0
SECTION
2
HEADER
9
$ACADVER
1
AC1009
9
$INSUNITS
70
4
0
ENDSEC
0
SECTION
2
TABLES
0
TABLE
2
LTYPE
70
3
0
LTYPE
2
CONTINUOUS
70
0
3
Solid line
72
65
73
0
40
0
0
LTYPE
2
DASHED
70
0
3
Dashed __ __ __
72
65
73
2
40
4.5
49
3
49
-1.5
0
LTYPE
2
CENTER
70
0
3
Center ____ _ ____
72
65
73
4
40
11.5
49
8
49
-1.5
49
0.5
49
-1.5
0
ENDTAB
0
TABLE
2
LAYER
70
9
0
LAYER
2
OUTLINE
70
0
62
7
6
CONTINUOUS
0
LAYER
2
HIDDEN
70
0
62
8
6
DASHED
0
LAYER
2
CENTER
70
0
62
1
6
CENTER
0
LAYER
2
THIN
70
0
62
7
6
CONTINUOUS
0
LAYER
2
DIM
70
0
62
3
6
CONTINUOUS
0
LAYER
2
HATCH
70
0
62
8
6
CONTINUOUS
0
LAYER
2
FRAME
70
0
62
7
6
CONTINUOUS
0
LAYER
2
TEXT
70
0
62
7
6
CONTINUOUS
0
LAYER
2
CUT
70
0
62
5
6
DASHED
0
ENDTAB
0
ENDSEC
0
SECTION
2
ENTITIES
0
LINE
8
OUTLINE
10
118.5
20
141.2
30
0
11
119
21
141.7
31
0
0
LINE
8
OUTLINE
10
119
20
141.7
30
0
11
133.5
21
141.7
31
0
0
LINE
8
OUTLINE
10
133.5
20
141.7
30
0
11
133.5
21
139.8
31
0
0
LINE
8
OUTLINE
10
133.5
20
139.8
30
0
11
135.9
21
139.8
31
0
0
LINE
8
OUTLINE
10
135.9
20
139.8
30
0
11
135.9
21
141.7
31
0
0
LINE
8
OUTLINE
10
135.9
20
141.7
30
0
11
178
21
141.7
31
0
0
LINE
8
OUTLINE
10
178
20
141.7
30
0
11
178.5
21
141.2
31
0
0
LINE
8
OUTLINE
10
118.5
20
102.2
30
0
11
119
21
101.7
31
0
0
LINE
8
OUTLINE
10
119
20
101.7
30
0
11
133.5
21
101.7
31
0
0
LINE
8
OUTLINE
10
133.5
20
101.7
30
0
11
133.5
21
103.6
31
0
0
LINE
8
OUTLINE
10
133.5
20
103.6
30
0
11
135.9
21
103.6
31
0
0
LINE
8
OUTLINE
10
135.9
20
103.6
30
0
11
135.9
21
101.7
31
0
0
LINE
8
OUTLINE
10
135.9
20
101.7
30
0
11
178
21
101.7
31
0
0
LINE
8
OUTLINE
10
178
20
101.7
30
0
11
178.5
21
102.2
31
0
0
LINE
8
OUTLINE
10
118.5
20
137.2
30
0
11
118.5
21
141.2
31
0
0
LINE
8
OUTLINE
10
118.5
20
106.2
30
0
11
118.5
21
102.2
31
0
0
LINE
8
OUTLINE
10
178.5
20
136.2
30
0
11
178.5
21
141.2
31
0
0
LINE
8
OUTLINE
10
178.5
20
107.2
30
0
11
178.5
21
102.2
31
0
0
LINE
8
OUTLINE
10
119
20
136.7
30
0
11
119
21
141.7
31
0
0
LINE
8
OUTLINE
10
119
20
106.7
30
0
11
119
21
101.7
31
0
0
LINE
8
OUTLINE
10
119
20
136.7
30
0
11
119
21
141.7
31
0
0
LINE
8
OUTLINE
10
119
20
106.7
30
0
11
119
21
101.7
31
0
0
LINE
8
OUTLINE
10
133.5
20
136.7
30
0
11
133.5
21
139.8
31
0
0
LINE
8
OUTLINE
10
133.5
20
106.7
30
0
11
133.5
21
103.6
31
0
0
LINE
8
OUTLINE
10
135.9
20
136.7
30
0
11
135.9
21
139.8
31
0
0
LINE
8
OUTLINE
10
135.9
20
106.7
30
0
11
135.9
21
103.6
31
0
0
LINE
8
OUTLINE
10
178
20
135.7
30
0
11
178
21
141.7
31
0
0
LINE
8
OUTLINE
10
178
20
107.7
30
0
11
178
21
101.7
31
0
0
LINE
8
OUTLINE
10
178
20
135.7
30
0
11
178
21
141.7
31
0
0
LINE
8
OUTLINE
10
178
20
107.7
30
0
11
178
21
101.7
31
0
0
LINE
8
CENTER
10
114.5
20
121.7
30
0
11
182.5
21
121.7
31
0
0
LINE
8
OUTLINE
10
118.5
20
137.2
30
0
11
119
21
136.7
31
0
0
LINE
8
OUTLINE
10
119
20
136.7
30
0
11
138.5
21
136.7
31
0
0
LINE
8
OUTLINE
10
138.5
20
136.7
30
0
11
138.5
21
135.7
31
0
0
LINE
8
OUTLINE
10
138.5
20
135.7
30
0
11
178
21
135.7
31
0
0
LINE
8
OUTLINE
10
178
20
135.7
30
0
11
178.5
21
136.2
31
0
0
LINE
8
OUTLINE
10
118.5
20
106.2
30
0
11
119
21
106.7
31
0
0
LINE
8
OUTLINE
10
119
20
106.7
30
0
11
138.5
21
106.7
31
0
0
LINE
8
OUTLINE
10
138.5
20
106.7
30
0
11
138.5
21
107.7
31
0
0
LINE
8
OUTLINE
10
138.5
20
107.7
30
0
11
178
21
107.7
31
0
0
LINE
8
OUTLINE
10
178
20
107.7
30
0
11
178.5
21
107.2
31
0
0
LINE
8
HATCH
10
176.232
20
135.7
30
0
11
178.5
21
137.968
31
0
0
LINE
8
HATCH
10
172.697
20
135.7
30
0
11
178.348
21
141.352
31
0
0
LINE
8
HATCH
10
169.161
20
135.7
30
0
11
175.161
21
141.7
31
0
0
LINE
8
HATCH
10
165.626
20
135.7
30
0
11
171.626
21
141.7
31
0
0
LINE
8
HATCH
10
162.09
20
135.7
30
0
11
168.09
21
141.7
31
0
0
LINE
8
HATCH
10
158.555
20
135.7
30
0
11
164.555
21
141.7
31
0
0
LINE
8
HATCH
10
155.019
20
135.7
30
0
11
161.019
21
141.7
31
0
0
LINE
8
HATCH
10
151.483
20
135.7
30
0
11
157.483
21
141.7
31
0
0
LINE
8
HATCH
10
147.948
20
135.7
30
0
11
153.948
21
141.7
31
0
0
LINE
8
HATCH
10
144.412
20
135.7
30
0
11
150.412
21
141.7
31
0
0
LINE
8
HATCH
10
140.877
20
135.7
30
0
11
146.877
21
141.7
31
0
0
LINE
8
HATCH
10
138.341
20
136.7
30
0
11
143.341
21
141.7
31
0
0
LINE
8
HATCH
10
134.806
20
136.7
30
0
11
139.806
21
141.7
31
0
0
LINE
8
HATCH
10
131.27
20
136.7
30
0
11
134.37
21
139.8
31
0
0
LINE
8
HATCH
10
135.9
20
141.33
30
0
11
136.27
21
141.7
31
0
0
LINE
8
HATCH
10
127.735
20
136.7
30
0
11
132.735
21
141.7
31
0
0
LINE
8
HATCH
10
124.199
20
136.7
30
0
11
129.199
21
141.7
31
0
0
LINE
8
HATCH
10
120.664
20
136.7
30
0
11
125.664
21
141.7
31
0
0
LINE
8
HATCH
10
118.5
20
138.072
30
0
11
122.128
21
141.7
31
0
0
LINE
8
HATCH
10
176.232
20
101.7
30
0
11
178.5
21
103.968
31
0
0
LINE
8
HATCH
10
172.697
20
101.7
30
0
11
178.348
21
107.352
31
0
0
LINE
8
HATCH
10
169.161
20
101.7
30
0
11
175.161
21
107.7
31
0
0
LINE
8
HATCH
10
165.626
20
101.7
30
0
11
171.626
21
107.7
31
0
0
LINE
8
HATCH
10
162.09
20
101.7
30
0
11
168.09
21
107.7
31
0
0
LINE
8
HATCH
10
158.555
20
101.7
30
0
11
164.555
21
107.7
31
0
0
LINE
8
HATCH
10
155.019
20
101.7
30
0
11
161.019
21
107.7
31
0
0
LINE
8
HATCH
10
151.483
20
101.7
30
0
11
157.483
21
107.7
31
0
0
LINE
8
HATCH
10
147.948
20
101.7
30
0
11
153.948
21
107.7
31
0
0
LINE
8
HATCH
10
144.412
20
101.7
30
0
11
150.412
21
107.7
31
0
0
LINE
8
HATCH
10
140.877
20
101.7
30
0
11
146.877
21
107.7
31
0
0
LINE
8
HATCH
10
137.341
20
101.7
30
0
11
143.341
21
107.7
31
0
0
LINE
8
HATCH
10
135.706
20
103.6
30
0
11
139.806
21
107.7
31
0
0
LINE
8
HATCH
10
130.27
20
101.7
30
0
11
135.27
21
106.7
31
0
0
LINE
8
HATCH
10
126.735
20
101.7
30
0
11
131.735
21
106.7
31
0
0
LINE
8
HATCH
10
123.199
20
101.7
30
0
11
128.199
21
106.7
31
0
0
LINE
8
HATCH
10
119.664
20
101.7
30
0
11
124.664
21
106.7
31
0
0
LINE
8
HATCH
10
118.5
20
104.072
30
0
11
121.128
21
106.7
31
0
0
LINE
8
DIM
10
118.5
20
100.7
30
0
11
118.5
21
84.7
31
0
0
LINE
8
DIM
10
178.5
20
100.7
30
0
11
178.5
21
84.7
31
0
0
LINE
8
DIM
10
118.5
20
86.7
30
0
11
178.5
21
86.7
31
0
0
SOLID
8
DIM
10
118.5
20
86.7
30
0
11
121.5
21
87.21
31
0
12
121.5
22
86.19
32
0
13
121.5
23
86.19
33
0
0
SOLID
8
DIM
10
178.5
20
86.7
30
0
11
175.5
21
86.19
31
0
12
175.5
22
87.21
32
0
13
175.5
23
87.21
33
0
0
TEXT
8
TEXT
10
148.5
20
87.6
30
0
40
3.5
1
60
50
0
72
1
11
148.5
21
87.6
31
0
0
LINE
8
DIM
10
148.5
20
101.7
30
0
11
148.5
21
146.7
31
0
0
SOLID
8
DIM
10
148.5
20
101.7
30
0
11
147.99
21
104.7
31
0
12
149.01
22
104.7
32
0
13
149.01
23
104.7
33
0
0
SOLID
8
DIM
10
148.5
20
141.7
30
0
11
149.01
21
138.7
31
0
12
147.99
22
138.7
32
0
13
147.99
23
138.7
33
0
0
TEXT
8
TEXT
10
148.5
20
147.5
30
0
40
3.5
1
%%c40 h6
50
0
72
1
11
148.5
21
147.5
31
0
0
LINE
8
DIM
10
128.5
20
106.7
30
0
11
128.5
21
146.7
31
0
0
SOLID
8
DIM
10
128.5
20
106.7
30
0
11
127.99
21
109.7
31
0
12
129.01
22
109.7
32
0
13
129.01
23
109.7
33
0
0
SOLID
8
DIM
10
128.5
20
136.7
30
0
11
129.01
21
133.7
31
0
12
127.99
22
133.7
32
0
13
127.99
23
133.7
33
0
0
TEXT
8
TEXT
10
128.5
20
147.5
30
0
40
3.5
1
%%c30 H7
50
0
72
1
11
128.5
21
147.5
31
0
0
LINE
8
DIM
10
158.5
20
107.7
30
0
11
158.5
21
146.7
31
0
0
SOLID
8
DIM
10
158.5
20
107.7
30
0
11
157.99
21
110.7
31
0
12
159.01
22
110.7
32
0
13
159.01
23
110.7
33
0
0
SOLID
8
DIM
10
158.5
20
135.7
30
0
11
159.01
21
132.7
31
0
12
157.99
22
132.7
32
0
13
157.99
23
132.7
33
0
0
TEXT
8
TEXT
10
158.5
20
147.5
30
0
40
3.5
1
%%c28
50
0
72
1
11
158.5
21
147.5
31
0
0
LINE
8
DIM
10
118.75
20
141.45
30
0
11
112.75
21
149.45
31
0
0
LINE
8
DIM
10
112.75
20
149.45
30
0
11
104.47
21
149.45
31
0
0
SOLID
8
DIM
10
118.75
20
141.45
30
0
11
120.958
21
139.356
31
0
12
120.142
22
138.744
32
0
13
120.142
23
138.744
33
0
0
TEXT
8
TEXT
10
112.25
20
150.15
30
0
40
3.5
1
C0.5
50
0
72
2
11
112.25
21
150.15
31
0
0
LINE
8
DIM
10
178.25
20
141.45
30
0
11
184.25
21
149.45
31
0
0
LINE
8
DIM
10
184.25
20
149.45
30
0
11
192.53
21
149.45
31
0
0
SOLID
8
DIM
10
178.25
20
141.45
30
0
11
176.858
21
138.744
31
0
12
176.042
22
139.356
32
0
13
176.042
23
139.356
33
0
0
TEXT
8
TEXT
10
184.75
20
150.15
30
0
40
3.5
1
C0.5
50
0
72
0
11
184.75
21
150.15
31
0
0
LINE
8
DIM
10
133.5
20
142.7
30
0
11
133.5
21
152.7
31
0
0
LINE
8
DIM
10
135.9
20
142.7
30
0
11
135.9
21
152.7
31
0
0
LINE
8
DIM
10
126.9
20
150.7
30
0
11
142.5
21
150.7
31
0
0
SOLID
8
DIM
10
133.5
20
150.7
30
0
11
130.5
21
150.19
31
0
12
130.5
22
151.21
32
0
13
130.5
23
151.21
33
0
0
SOLID
8
DIM
10
135.9
20
150.7
30
0
11
138.9
21
151.21
31
0
12
138.9
22
150.19
32
0
13
138.9
23
150.19
33
0
0
TEXT
8
TEXT
10
145.55
20
151.6
30
0
40
3.5
1
2.4
50
0
72
1
11
145.55
21
151.6
31
0
0
LINE
8
DIM
10
118.5
20
142.7
30
0
11
118.5
21
152.7
31
0
0
LINE
8
DIM
10
133.5
20
142.7
30
0
11
133.5
21
152.7
31
0
0
LINE
8
DIM
10
118.5
20
150.7
30
0
11
133.5
21
150.7
31
0
0
SOLID
8
DIM
10
118.5
20
150.7
30
0
11
121.5
21
151.21
31
0
12
121.5
22
150.19
32
0
13
121.5
23
150.19
33
0
0
SOLID
8
DIM
10
133.5
20
150.7
30
0
11
130.5
21
150.19
31
0
12
130.5
22
151.21
32
0
13
130.5
23
151.21
33
0
0
TEXT
8
TEXT
10
126
20
151.6
30
0
40
3.5
1
15
50
0
72
1
11
126
21
151.6
31
0
0
LINE
8
DIM
10
134.7
20
103.6
30
0
11
134.7
21
146.7
31
0
0
SOLID
8
DIM
10
134.7
20
103.6
30
0
11
134.19
21
106.6
31
0
12
135.21
22
106.6
32
0
13
135.21
23
106.6
33
0
0
SOLID
8
DIM
10
134.7
20
139.8
30
0
11
135.21
21
136.8
31
0
12
134.19
22
136.8
32
0
13
134.19
23
136.8
33
0
0
LINE
8
DIM
10
134.7
20
146.7
30
0
11
134.7
21
152.1
31
0
0
TEXT
8
TEXT
10
134.7
20
152.4
30
0
40
3.5
1
%%c36.2
50
0
72
1
11
134.7
21
152.4
31
0
0
LINE
8
FRAME
10
10
20
10
30
0
11
287
21
10
31
0
0
LINE
8
FRAME
10
287
20
10
30
0
11
287
21
200
31
0
0
LINE
8
FRAME
10
287
20
200
30
0
11
10
21
200
31
0
0
LINE
8
FRAME
10
10
20
200
30
0
11
10
21
10
31
0
0
LINE
8
FRAME
10
177
20
10
30
0
11
287
21
10
31
0
0
LINE
8
FRAME
10
287
20
10
30
0
11
287
21
34
31
0
0
LINE
8
FRAME
10
287
20
34
30
0
11
177
21
34
31
0
0
LINE
8
FRAME
10
177
20
34
30
0
11
177
21
10
31
0
0
LINE
8
FRAME
10
177
20
18
30
0
11
287
21
18
31
0
0
LINE
8
FRAME
10
177
20
26
30
0
11
287
21
26
31
0
0
LINE
8
FRAME
10
232
20
10
30
0
11
232
21
26
31
0
0
LINE
8
FRAME
10
255
20
26
30
0
11
255
21
34
31
0
0
TEXT
8
TEXT
10
179
20
28.5
30
0
40
4.2
1
VRINGON
72
0
11
179
21
28.5
31
0
0
TEXT
8
TEXT
10
257
20
28.5
30
0
40
2.5
1
도번 VR-RB-008
72
0
11
257
21
28.5
31
0
0
TEXT
8
TEXT
10
179
20
20.5
30
0
40
2.8
1
품명 슬리브
72
0
11
179
21
20.5
31
0
0
TEXT
8
TEXT
10
234
20
20.5
30
0
40
2.8
1
재질 SUJ2
72
0
11
234
21
20.5
31
0
0
TEXT
8
TEXT
10
179
20
12.5
30
0
40
2.5
1
척도 1:1
72
0
11
179
21
12.5
31
0
0
TEXT
8
TEXT
10
234
20
12.5
30
0
40
2.5
1
3각법 · 단위 mm
72
0
11
234
21
12.5
31
0
0
CIRCLE
8
FRAME
10
269
20
16.5
30
0
40
2.4
0
CIRCLE
8
FRAME
10
269
20
16.5
30
0
40
1.2
0
LINE
8
FRAME
10
274.5
20
13.9
30
0
11
281
21
15.1
31
0
0
LINE
8
FRAME
10
281
20
15.1
30
0
11
281
21
17.9
31
0
0
LINE
8
FRAME
10
281
20
17.9
30
0
11
274.5
21
19.1
31
0
0
LINE
8
FRAME
10
274.5
20
19.1
30
0
11
274.5
21
13.9
31
0
0
TEXT
8
TEXT
10
14
20
18.2
30
0
40
2.6
1
1. 지시 없는 모따기 C0.5
72
0
11
14
21
18.2
31
0
0
TEXT
8
TEXT
10
14
20
14
30
0
40
2.6
1
2. 지시 없는 공차 KS B ISO 2768-m
72
0
11
14
21
14
31
0
0
ENDSEC
0
EOF
