0
SECTION
2
HEADER
9
$ACADVER
1
AC1009
9
$INSUNITS
70
4
0
ENDSEC
0
SECTION
2
TABLES
0
TABLE
2
LTYPE
70
3
0
LTYPE
2
CONTINUOUS
70
0
3
Solid line
72
65
73
0
40
0
0
LTYPE
2
DASHED
70
0
3
Dashed __ __ __
72
65
73
2
40
4.5
49
3
49
-1.5
0
LTYPE
2
CENTER
70
0
3
Center ____ _ ____
72
65
73
4
40
11.5
49
8
49
-1.5
49
0.5
49
-1.5
0
ENDTAB
0
TABLE
2
LAYER
70
9
0
LAYER
2
OUTLINE
70
0
62
7
6
CONTINUOUS
0
LAYER
2
HIDDEN
70
0
62
8
6
DASHED
0
LAYER
2
CENTER
70
0
62
1
6
CENTER
0
LAYER
2
THIN
70
0
62
7
6
CONTINUOUS
0
LAYER
2
DIM
70
0
62
3
6
CONTINUOUS
0
LAYER
2
HATCH
70
0
62
8
6
CONTINUOUS
0
LAYER
2
FRAME
70
0
62
7
6
CONTINUOUS
0
LAYER
2
TEXT
70
0
62
7
6
CONTINUOUS
0
LAYER
2
CUT
70
0
62
5
6
DASHED
0
ENDTAB
0
ENDSEC
0
SECTION
2
ENTITIES
0
LINE
8
OUTLINE
10
88.068
20
120.7
30
0
11
89.568
21
122.2
31
0
0
LINE
8
OUTLINE
10
89.568
20
122.2
30
0
11
102.818
21
122.2
31
0
0
LINE
8
OUTLINE
10
102.818
20
122.2
30
0
11
102.818
21
120.9
31
0
0
LINE
8
OUTLINE
10
102.818
20
120.9
30
0
11
108.068
21
120.9
31
0
0
LINE
8
OUTLINE
10
108.068
20
120.9
30
0
11
108.068
21
124.2
31
0
0
LINE
8
OUTLINE
10
108.068
20
124.2
30
0
11
168.068
21
124.2
31
0
0
LINE
8
OUTLINE
10
168.068
20
124.2
30
0
11
168.068
21
123.7
31
0
0
LINE
8
OUTLINE
10
168.068
20
123.7
30
0
11
168.072
21
123.635
31
0
0
LINE
8
OUTLINE
10
168.072
20
123.635
30
0
11
168.085
21
123.571
31
0
0
LINE
8
OUTLINE
10
168.085
20
123.571
30
0
11
168.106
21
123.509
31
0
0
LINE
8
OUTLINE
10
168.106
20
123.509
30
0
11
168.134
21
123.45
31
0
0
LINE
8
OUTLINE
10
168.134
20
123.45
30
0
11
168.171
21
123.396
31
0
0
LINE
8
OUTLINE
10
168.171
20
123.396
30
0
11
168.214
21
123.346
31
0
0
LINE
8
OUTLINE
10
168.214
20
123.346
30
0
11
168.263
21
123.303
31
0
0
LINE
8
OUTLINE
10
168.263
20
123.303
30
0
11
168.318
21
123.267
31
0
0
LINE
8
OUTLINE
10
168.318
20
123.267
30
0
11
168.376
21
123.238
31
0
0
LINE
8
OUTLINE
10
168.376
20
123.238
30
0
11
168.438
21
123.217
31
0
0
LINE
8
OUTLINE
10
168.438
20
123.217
30
0
11
168.502
21
123.204
31
0
0
LINE
8
OUTLINE
10
168.502
20
123.204
30
0
11
168.568
21
123.2
31
0
0
LINE
8
OUTLINE
10
168.568
20
123.2
30
0
11
188.068
21
123.2
31
0
0
LINE
8
OUTLINE
10
188.068
20
123.2
30
0
11
188.068
21
121.26
31
0
0
LINE
8
OUTLINE
10
188.068
20
121.26
30
0
11
191.818
21
121.26
31
0
0
LINE
8
OUTLINE
10
191.818
20
121.26
30
0
11
191.818
21
122.2
31
0
0
LINE
8
OUTLINE
10
191.818
20
122.2
30
0
11
204.568
21
122.2
31
0
0
LINE
8
OUTLINE
10
204.568
20
122.2
30
0
11
206.068
21
120.7
31
0
0
LINE
8
OUTLINE
10
88.068
20
111.7
30
0
11
89.568
21
110.2
31
0
0
LINE
8
OUTLINE
10
89.568
20
110.2
30
0
11
102.818
21
110.2
31
0
0
LINE
8
OUTLINE
10
102.818
20
110.2
30
0
11
102.818
21
111.5
31
0
0
LINE
8
OUTLINE
10
102.818
20
111.5
30
0
11
108.068
21
111.5
31
0
0
LINE
8
OUTLINE
10
108.068
20
111.5
30
0
11
108.068
21
108.2
31
0
0
LINE
8
OUTLINE
10
108.068
20
108.2
30
0
11
168.068
21
108.2
31
0
0
LINE
8
OUTLINE
10
168.068
20
108.2
30
0
11
168.068
21
108.7
31
0
0
LINE
8
OUTLINE
10
168.068
20
108.7
30
0
11
168.072
21
108.765
31
0
0
LINE
8
OUTLINE
10
168.072
20
108.765
30
0
11
168.085
21
108.829
31
0
0
LINE
8
OUTLINE
10
168.085
20
108.829
30
0
11
168.106
21
108.891
31
0
0
LINE
8
OUTLINE
10
168.106
20
108.891
30
0
11
168.134
21
108.95
31
0
0
LINE
8
OUTLINE
10
168.134
20
108.95
30
0
11
168.171
21
109.004
31
0
0
LINE
8
OUTLINE
10
168.171
20
109.004
30
0
11
168.214
21
109.054
31
0
0
LINE
8
OUTLINE
10
168.214
20
109.054
30
0
11
168.263
21
109.097
31
0
0
LINE
8
OUTLINE
10
168.263
20
109.097
30
0
11
168.318
21
109.133
31
0
0
LINE
8
OUTLINE
10
168.318
20
109.133
30
0
11
168.376
21
109.162
31
0
0
LINE
8
OUTLINE
10
168.376
20
109.162
30
0
11
168.438
21
109.183
31
0
0
LINE
8
OUTLINE
10
168.438
20
109.183
30
0
11
168.502
21
109.196
31
0
0
LINE
8
OUTLINE
10
168.502
20
109.196
30
0
11
168.568
21
109.2
31
0
0
LINE
8
OUTLINE
10
168.568
20
109.2
30
0
11
188.068
21
109.2
31
0
0
LINE
8
OUTLINE
10
188.068
20
109.2
30
0
11
188.068
21
111.14
31
0
0
LINE
8
OUTLINE
10
188.068
20
111.14
30
0
11
191.818
21
111.14
31
0
0
LINE
8
OUTLINE
10
191.818
20
111.14
30
0
11
191.818
21
110.2
31
0
0
LINE
8
OUTLINE
10
191.818
20
110.2
30
0
11
204.568
21
110.2
31
0
0
LINE
8
OUTLINE
10
204.568
20
110.2
30
0
11
206.068
21
111.7
31
0
0
LINE
8
OUTLINE
10
88.068
20
111.7
30
0
11
88.068
21
120.7
31
0
0
LINE
8
OUTLINE
10
206.068
20
111.7
30
0
11
206.068
21
120.7
31
0
0
LINE
8
OUTLINE
10
89.568
20
110.2
30
0
11
89.568
21
122.2
31
0
0
LINE
8
OUTLINE
10
89.568
20
110.2
30
0
11
89.568
21
122.2
31
0
0
LINE
8
OUTLINE
10
102.818
20
111.5
30
0
11
102.818
21
120.9
31
0
0
LINE
8
OUTLINE
10
108.068
20
111.5
30
0
11
108.068
21
120.9
31
0
0
LINE
8
OUTLINE
10
168.068
20
108.7
30
0
11
168.068
21
123.7
31
0
0
LINE
8
OUTLINE
10
188.068
20
111.14
30
0
11
188.068
21
121.26
31
0
0
LINE
8
OUTLINE
10
191.818
20
111.14
30
0
11
191.818
21
121.26
31
0
0
LINE
8
OUTLINE
10
204.568
20
110.2
30
0
11
204.568
21
122.2
31
0
0
LINE
8
OUTLINE
10
204.568
20
110.2
30
0
11
204.568
21
122.2
31
0
0
LINE
8
CENTER
10
84.068
20
116.2
30
0
11
210.068
21
116.2
31
0
0
LINE
8
THIN
10
89.568
20
121.126
30
0
11
108.068
21
121.126
31
0
0
LINE
8
THIN
10
89.568
20
111.274
30
0
11
108.068
21
111.274
31
0
0
LINE
8
OUTLINE
10
108.068
20
110.2
30
0
11
108.068
21
122.2
31
0
0
LINE
8
THIN
10
188.068
20
121.433
30
0
11
204.568
21
121.433
31
0
0
LINE
8
THIN
10
188.068
20
110.967
30
0
11
204.568
21
110.967
31
0
0
CIRCLE
8
OUTLINE
10
178.068
20
116.2
30
0
40
1.5
0
LINE
8
CENTER
10
174.568
20
116.2
30
0
11
181.568
21
116.2
31
0
0
LINE
8
CENTER
10
178.068
20
112.7
30
0
11
178.068
21
119.7
31
0
0
LINE
8
DIM
10
88.068
20
109.2
30
0
11
88.068
21
91.2
31
0
0
LINE
8
DIM
10
108.068
20
109.2
30
0
11
108.068
21
91.2
31
0
0
LINE
8
DIM
10
88.068
20
93.2
30
0
11
108.068
21
93.2
31
0
0
SOLID
8
DIM
10
88.068
20
93.2
30
0
11
91.068
21
93.71
31
0
12
91.068
22
92.69
32
0
13
91.068
23
92.69
33
0
0
SOLID
8
DIM
10
108.068
20
93.2
30
0
11
105.068
21
92.69
31
0
12
105.068
22
93.71
32
0
13
105.068
23
93.71
33
0
0
TEXT
8
TEXT
10
98.068
20
94.1
30
0
40
3.5
1
20
50
0
72
1
11
98.068
21
94.1
31
0
0
LINE
8
DIM
10
168.068
20
108.2
30
0
11
168.068
21
91.2
31
0
0
LINE
8
DIM
10
188.068
20
108.2
30
0
11
188.068
21
91.2
31
0
0
LINE
8
DIM
10
168.068
20
93.2
30
0
11
188.068
21
93.2
31
0
0
SOLID
8
DIM
10
168.068
20
93.2
30
0
11
171.068
21
93.71
31
0
12
171.068
22
92.69
32
0
13
171.068
23
92.69
33
0
0
SOLID
8
DIM
10
188.068
20
93.2
30
0
11
185.068
21
92.69
31
0
12
185.068
22
93.71
32
0
13
185.068
23
93.71
33
0
0
TEXT
8
TEXT
10
178.068
20
94.1
30
0
40
3.5
1
20
50
0
72
1
11
178.068
21
94.1
31
0
0
LINE
8
DIM
10
188.068
20
109.2
30
0
11
188.068
21
91.2
31
0
0
LINE
8
DIM
10
206.068
20
109.2
30
0
11
206.068
21
91.2
31
0
0
LINE
8
DIM
10
188.068
20
93.2
30
0
11
206.068
21
93.2
31
0
0
SOLID
8
DIM
10
188.068
20
93.2
30
0
11
191.068
21
93.71
31
0
12
191.068
22
92.69
32
0
13
191.068
23
92.69
33
0
0
SOLID
8
DIM
10
206.068
20
93.2
30
0
11
203.068
21
92.69
31
0
12
203.068
22
93.71
32
0
13
203.068
23
93.71
33
0
0
TEXT
8
TEXT
10
197.068
20
94.1
30
0
40
3.5
1
18
50
0
72
1
11
197.068
21
94.1
31
0
0
LINE
8
DIM
10
88.068
20
107.2
30
0
11
88.068
21
82.2
31
0
0
LINE
8
DIM
10
206.068
20
107.2
30
0
11
206.068
21
82.2
31
0
0
LINE
8
DIM
10
88.068
20
84.2
30
0
11
206.068
21
84.2
31
0
0
SOLID
8
DIM
10
88.068
20
84.2
30
0
11
91.068
21
84.71
31
0
12
91.068
22
83.69
32
0
13
91.068
23
83.69
33
0
0
SOLID
8
DIM
10
206.068
20
84.2
30
0
11
203.068
21
83.69
31
0
12
203.068
22
84.71
32
0
13
203.068
23
84.71
33
0
0
TEXT
8
TEXT
10
147.068
20
85.1
30
0
40
3.5
1
118
50
0
72
1
11
147.068
21
85.1
31
0
0
LINE
8
DIM
10
98.068
20
122.2
30
0
11
104.068
21
131.2
31
0
0
LINE
8
DIM
10
104.068
20
131.2
30
0
11
111.367
21
131.2
31
0
0
SOLID
8
DIM
10
98.068
20
122.2
30
0
11
96.828
21
119.421
31
0
12
95.979
22
119.987
32
0
13
95.979
23
119.987
33
0
0
TEXT
8
TEXT
10
104.568
20
131.9
30
0
40
3.5
1
M12
50
0
72
0
11
104.568
21
131.9
31
0
0
LINE
8
DIM
10
138.068
20
108.2
30
0
11
138.068
21
129.2
31
0
0
SOLID
8
DIM
10
138.068
20
108.2
30
0
11
137.558
21
111.2
31
0
12
138.578
22
111.2
32
0
13
138.578
23
111.2
33
0
0
SOLID
8
DIM
10
138.068
20
124.2
30
0
11
138.578
21
121.2
31
0
12
137.558
22
121.2
32
0
13
137.558
23
121.2
33
0
0
TEXT
8
TEXT
10
138.068
20
130
30
0
40
3.5
1
%%c16 h7
50
0
72
1
11
138.068
21
130
31
0
0
LINE
8
DIM
10
178.068
20
109.2
30
0
11
178.068
21
128.2
31
0
0
SOLID
8
DIM
10
178.068
20
109.2
30
0
11
177.558
21
112.2
31
0
12
178.578
22
112.2
32
0
13
178.578
23
112.2
33
0
0
SOLID
8
DIM
10
178.068
20
123.2
30
0
11
178.578
21
120.2
31
0
12
177.558
22
120.2
32
0
13
177.558
23
120.2
33
0
0
TEXT
8
TEXT
10
178.068
20
129
30
0
40
3.5
1
%%c14
50
0
72
1
11
178.068
21
129
31
0
0
LINE
8
DIM
10
197.068
20
122.2
30
0
11
203.068
21
131.2
31
0
0
LINE
8
DIM
10
203.068
20
131.2
30
0
11
219.853
21
131.2
31
0
0
SOLID
8
DIM
10
197.068
20
122.2
30
0
11
195.828
21
119.421
31
0
12
194.979
22
119.987
32
0
13
194.979
23
119.987
33
0
0
TEXT
8
TEXT
10
203.568
20
131.9
30
0
40
3.5
1
M12×1.25
50
0
72
0
11
203.568
21
131.9
31
0
0
LINE
8
DIM
10
88.818
20
121.45
30
0
11
82.818
21
129.45
31
0
0
LINE
8
DIM
10
82.818
20
129.45
30
0
11
74.538
21
129.45
31
0
0
SOLID
8
DIM
10
88.818
20
121.45
30
0
11
91.026
21
119.356
31
0
12
90.209
22
118.744
32
0
13
90.209
23
118.744
33
0
0
TEXT
8
TEXT
10
82.318
20
130.15
30
0
40
3.5
1
C1.5
50
0
72
2
11
82.318
21
130.15
31
0
0
LINE
8
DIM
10
205.318
20
121.45
30
0
11
211.318
21
139.45
31
0
0
LINE
8
DIM
10
211.318
20
139.45
30
0
11
219.598
21
139.45
31
0
0
SOLID
8
DIM
10
205.318
20
121.45
30
0
11
204.853
21
118.443
31
0
12
203.885
22
118.765
32
0
13
203.885
23
118.765
33
0
0
TEXT
8
TEXT
10
211.818
20
140.15
30
0
40
3.5
1
C1.5
50
0
72
0
11
211.818
21
140.15
31
0
0
LINE
8
DIM
10
110.693
20
120.9
30
0
11
116.693
21
136.2
31
0
0
LINE
8
DIM
10
116.693
20
136.2
30
0
11
156.543
21
136.2
31
0
0
SOLID
8
DIM
10
110.693
20
120.9
30
0
11
110.072
21
117.921
31
0
12
109.122
22
118.293
32
0
13
109.122
23
118.293
33
0
0
TEXT
8
TEXT
10
117.193
20
136.9
30
0
40
3.5
1
5.25×%%c9.4 (DIN 76-A)
50
0
72
0
11
117.193
21
136.9
31
0
0
LINE
8
DIM
10
186.193
20
121.26
30
0
11
180.193
21
136.2
31
0
0
LINE
8
DIM
10
180.193
20
136.2
30
0
11
136.422
21
136.2
31
0
0
SOLID
8
DIM
10
186.193
20
121.26
30
0
11
187.784
21
118.666
31
0
12
186.837
22
118.286
32
0
13
186.837
23
118.286
33
0
0
TEXT
8
TEXT
10
179.693
20
136.9
30
0
40
3.5
1
3.75×%%c10.12 (DIN 76-A)
50
0
72
2
11
179.693
21
136.9
31
0
0
LINE
8
DIM
10
168.212
20
123.345
30
0
11
173.212
21
145.345
31
0
0
LINE
8
DIM
10
173.212
20
145.345
30
0
11
181.493
21
145.345
31
0
0
SOLID
8
DIM
10
168.212
20
123.345
30
0
11
168.045
21
120.307
31
0
12
167.05
22
120.533
32
0
13
167.05
23
120.533
33
0
0
TEXT
8
TEXT
10
173.712
20
146.045
30
0
40
3.5
1
R0.5
50
0
72
0
11
173.712
21
146.045
31
0
0
LINE
8
DIM
10
179.118
20
117.25
30
0
11
185.068
21
154.2
31
0
0
LINE
8
DIM
10
185.068
20
154.2
30
0
11
198.353
21
154.2
31
0
0
SOLID
8
DIM
10
179.118
20
117.25
30
0
11
179.144
21
114.207
31
0
12
178.137
22
114.369
32
0
13
178.137
23
114.369
33
0
0
TEXT
8
TEXT
10
185.568
20
154.9
30
0
40
3.5
1
%%c3 관통
50
0
72
0
11
185.568
21
154.9
31
0
0
LINE
8
DIM
10
206.068
20
124.2
30
0
11
206.068
21
134.2
31
0
0
LINE
8
DIM
10
178.068
20
124.2
30
0
11
178.068
21
134.2
31
0
0
LINE
8
DIM
10
178.068
20
132.2
30
0
11
206.068
21
132.2
31
0
0
SOLID
8
DIM
10
178.068
20
132.2
30
0
11
181.068
21
132.71
31
0
12
181.068
22
131.69
32
0
13
181.068
23
131.69
33
0
0
SOLID
8
DIM
10
206.068
20
132.2
30
0
11
203.068
21
131.69
31
0
12
203.068
22
132.71
32
0
13
203.068
23
132.71
33
0
0
TEXT
8
TEXT
10
192.068
20
133.1
30
0
40
3.5
1
28
50
0
72
1
11
192.068
21
133.1
31
0
0
LINE
8
FRAME
10
10
20
10
30
0
11
287
21
10
31
0
0
LINE
8
FRAME
10
287
20
10
30
0
11
287
21
200
31
0
0
LINE
8
FRAME
10
287
20
200
30
0
11
10
21
200
31
0
0
LINE
8
FRAME
10
10
20
200
30
0
11
10
21
10
31
0
0
LINE
8
FRAME
10
177
20
10
30
0
11
287
21
10
31
0
0
LINE
8
FRAME
10
287
20
10
30
0
11
287
21
34
31
0
0
LINE
8
FRAME
10
287
20
34
30
0
11
177
21
34
31
0
0
LINE
8
FRAME
10
177
20
34
30
0
11
177
21
10
31
0
0
LINE
8
FRAME
10
177
20
18
30
0
11
287
21
18
31
0
0
LINE
8
FRAME
10
177
20
26
30
0
11
287
21
26
31
0
0
LINE
8
FRAME
10
232
20
10
30
0
11
232
21
26
31
0
0
LINE
8
FRAME
10
255
20
26
30
0
11
255
21
34
31
0
0
TEXT
8
TEXT
10
179
20
28.5
30
0
40
4.2
1
VRINGON
72
0
11
179
21
28.5
31
0
0
TEXT
8
TEXT
10
257
20
28.5
30
0
40
2.5
1
도번 VR-RB-007
72
0
11
257
21
28.5
31
0
0
TEXT
8
TEXT
10
179
20
20.5
30
0
40
2.8
1
품명 양단 나사 축
72
0
11
179
21
20.5
31
0
0
TEXT
8
TEXT
10
234
20
20.5
30
0
40
2.8
1
재질 S45C
72
0
11
234
21
20.5
31
0
0
TEXT
8
TEXT
10
179
20
12.5
30
0
40
2.5
1
척도 1:1
72
0
11
179
21
12.5
31
0
0
TEXT
8
TEXT
10
234
20
12.5
30
0
40
2.5
1
3각법 · 단위 mm
72
0
11
234
21
12.5
31
0
0
CIRCLE
8
FRAME
10
269
20
16.5
30
0
40
2.4
0
CIRCLE
8
FRAME
10
269
20
16.5
30
0
40
1.2
0
LINE
8
FRAME
10
274.5
20
13.9
30
0
11
281
21
15.1
31
0
0
LINE
8
FRAME
10
281
20
15.1
30
0
11
281
21
17.9
31
0
0
LINE
8
FRAME
10
281
20
17.9
30
0
11
274.5
21
19.1
31
0
0
LINE
8
FRAME
10
274.5
20
19.1
30
0
11
274.5
21
13.9
31
0
0
TEXT
8
TEXT
10
14
20
18.2
30
0
40
2.6
1
1. 지시 없는 모따기 C0.5
72
0
11
14
21
18.2
31
0
0
TEXT
8
TEXT
10
14
20
14
30
0
40
2.6
1
2. 지시 없는 공차 KS B ISO 2768-m
72
0
11
14
21
14
31
0
0
ENDSEC
0
EOF
