ISO-10303-21;
HEADER;
FILE_DESCRIPTION(('Open CASCADE Model'),'2;1');
FILE_NAME('Open CASCADE Shape Model','2026-08-16T00:40:28',('Author'),(
    'Open CASCADE'),'Open CASCADE STEP processor 7.9','Open CASCADE 7.9'
  ,'Unknown');
FILE_SCHEMA(('AUTOMOTIVE_DESIGN { 1 0 10303 214 1 1 1 1 }'));
ENDSEC;
DATA;
#1 = APPLICATION_PROTOCOL_DEFINITION('international standard',
  'automotive_design',2000,#2);
#2 = APPLICATION_CONTEXT(
  'core data for automotive mechanical design processes');
#3 = SHAPE_DEFINITION_REPRESENTATION(#4,#10);
#4 = PRODUCT_DEFINITION_SHAPE('','',#5);
#5 = PRODUCT_DEFINITION('design','',#6,#9);
#6 = PRODUCT_DEFINITION_FORMATION('','',#7);
#7 = PRODUCT('Open CASCADE STEP translator 7.9 12',
  'Open CASCADE STEP translator 7.9 12','',(#8));
#8 = PRODUCT_CONTEXT('',#2,'mechanical');
#9 = PRODUCT_DEFINITION_CONTEXT('part definition',#2,'design');
#10 = ADVANCED_BREP_SHAPE_REPRESENTATION('',(#11,#15),#1635);
#11 = AXIS2_PLACEMENT_3D('',#12,#13,#14);
#12 = CARTESIAN_POINT('',(0.,0.,0.));
#13 = DIRECTION('',(0.,0.,1.));
#14 = DIRECTION('',(1.,0.,-0.));
#15 = MANIFOLD_SOLID_BREP('',#16);
#16 = CLOSED_SHELL('',(#17,#105,#109,#164,#199,#254,#289,#344,#379,#434,
    #489,#544,#599,#654,#709,#764,#819,#874,#929,#1369,#1404,#1431,#1486
    ,#1521,#1576,#1631));
#17 = ADVANCED_FACE('',(#18),#31,.T.);
#18 = FACE_BOUND('',#19,.T.);
#19 = EDGE_LOOP('',(#20,#54,#77,#104));
#20 = ORIENTED_EDGE('',*,*,#21,.T.);
#21 = EDGE_CURVE('',#22,#22,#24,.T.);
#22 = VERTEX_POINT('',#23);
#23 = CARTESIAN_POINT('',(0.,4.5,0.));
#24 = SURFACE_CURVE('',#25,(#30,#42),.PCURVE_S1.);
#25 = CIRCLE('',#26,4.5);
#26 = AXIS2_PLACEMENT_3D('',#27,#28,#29);
#27 = CARTESIAN_POINT('',(0.,0.,0.));
#28 = DIRECTION('',(1.,0.,0.));
#29 = DIRECTION('',(-0.,1.,0.));
#30 = PCURVE('',#31,#36);
#31 = CONICAL_SURFACE('',#32,4.5,0.785398163397);
#32 = AXIS2_PLACEMENT_3D('',#33,#34,#35);
#33 = CARTESIAN_POINT('',(0.,0.,0.));
#34 = DIRECTION('',(1.,0.,0.));
#35 = DIRECTION('',(-0.,1.,0.));
#36 = DEFINITIONAL_REPRESENTATION('',(#37),#41);
#37 = LINE('',#38,#39);
#38 = CARTESIAN_POINT('',(0.,0.));
#39 = VECTOR('',#40,1.);
#40 = DIRECTION('',(1.,0.));
#41 = ( GEOMETRIC_REPRESENTATION_CONTEXT(2) 
PARAMETRIC_REPRESENTATION_CONTEXT() REPRESENTATION_CONTEXT('2D SPACE',''
  ) );
#42 = PCURVE('',#43,#48);
#43 = PLANE('',#44);
#44 = AXIS2_PLACEMENT_3D('',#45,#46,#47);
#45 = CARTESIAN_POINT('',(0.,0.,0.));
#46 = DIRECTION('',(1.,0.,0.));
#47 = DIRECTION('',(-0.,1.,0.));
#48 = DEFINITIONAL_REPRESENTATION('',(#49),#53);
#49 = CIRCLE('',#50,4.5);
#50 = AXIS2_PLACEMENT_2D('',#51,#52);
#51 = CARTESIAN_POINT('',(0.,0.));
#52 = DIRECTION('',(1.,-0.));
#53 = ( GEOMETRIC_REPRESENTATION_CONTEXT(2) 
PARAMETRIC_REPRESENTATION_CONTEXT() REPRESENTATION_CONTEXT('2D SPACE',''
  ) );
#54 = ORIENTED_EDGE('',*,*,#55,.T.);
#55 = EDGE_CURVE('',#22,#56,#58,.T.);
#56 = VERTEX_POINT('',#57);
#57 = CARTESIAN_POINT('',(1.5,6.,0.));
#58 = SEAM_CURVE('',#59,(#63,#70),.PCURVE_S1.);
#59 = LINE('',#60,#61);
#60 = CARTESIAN_POINT('',(0.,4.5,0.));
#61 = VECTOR('',#62,1.);
#62 = DIRECTION('',(0.707106781187,0.707106781187,0.));
#63 = PCURVE('',#31,#64);
#64 = DEFINITIONAL_REPRESENTATION('',(#65),#69);
#65 = LINE('',#66,#67);
#66 = CARTESIAN_POINT('',(0.,0.));
#67 = VECTOR('',#68,1.);
#68 = DIRECTION('',(0.,1.));
#69 = ( GEOMETRIC_REPRESENTATION_CONTEXT(2) 
PARAMETRIC_REPRESENTATION_CONTEXT() REPRESENTATION_CONTEXT('2D SPACE',''
  ) );
#70 = PCURVE('',#31,#71);
#71 = DEFINITIONAL_REPRESENTATION('',(#72),#76);
#72 = LINE('',#73,#74);
#73 = CARTESIAN_POINT('',(6.28318530718,0.));
#74 = VECTOR('',#75,1.);
#75 = DIRECTION('',(0.,1.));
#76 = ( GEOMETRIC_REPRESENTATION_CONTEXT(2) 
PARAMETRIC_REPRESENTATION_CONTEXT() REPRESENTATION_CONTEXT('2D SPACE',''
  ) );
#77 = ORIENTED_EDGE('',*,*,#78,.F.);
#78 = EDGE_CURVE('',#56,#56,#79,.T.);
#79 = SURFACE_CURVE('',#80,(#85,#92),.PCURVE_S1.);
#80 = CIRCLE('',#81,6.);
#81 = AXIS2_PLACEMENT_3D('',#82,#83,#84);
#82 = CARTESIAN_POINT('',(1.5,0.,0.));
#83 = DIRECTION('',(1.,0.,0.));
#84 = DIRECTION('',(-0.,1.,0.));
#85 = PCURVE('',#31,#86);
#86 = DEFINITIONAL_REPRESENTATION('',(#87),#91);
#87 = LINE('',#88,#89);
#88 = CARTESIAN_POINT('',(0.,1.5));
#89 = VECTOR('',#90,1.);
#90 = DIRECTION('',(1.,0.));
#91 = ( GEOMETRIC_REPRESENTATION_CONTEXT(2) 
PARAMETRIC_REPRESENTATION_CONTEXT() REPRESENTATION_CONTEXT('2D SPACE',''
  ) );
#92 = PCURVE('',#93,#98);
#93 = CYLINDRICAL_SURFACE('',#94,6.);
#94 = AXIS2_PLACEMENT_3D('',#95,#96,#97);
#95 = CARTESIAN_POINT('',(1.5,0.,0.));
#96 = DIRECTION('',(1.,0.,0.));
#97 = DIRECTION('',(-0.,1.,0.));
#98 = DEFINITIONAL_REPRESENTATION('',(#99),#103);
#99 = LINE('',#100,#101);
#100 = CARTESIAN_POINT('',(0.,0.));
#101 = VECTOR('',#102,1.);
#102 = DIRECTION('',(1.,0.));
#103 = ( GEOMETRIC_REPRESENTATION_CONTEXT(2) 
PARAMETRIC_REPRESENTATION_CONTEXT() REPRESENTATION_CONTEXT('2D SPACE',''
  ) );
#104 = ORIENTED_EDGE('',*,*,#55,.F.);
#105 = ADVANCED_FACE('',(#106),#43,.F.);
#106 = FACE_BOUND('',#107,.T.);
#107 = EDGE_LOOP('',(#108));
#108 = ORIENTED_EDGE('',*,*,#21,.F.);
#109 = ADVANCED_FACE('',(#110),#93,.T.);
#110 = FACE_BOUND('',#111,.T.);
#111 = EDGE_LOOP('',(#112,#113,#136,#163));
#112 = ORIENTED_EDGE('',*,*,#78,.T.);
#113 = ORIENTED_EDGE('',*,*,#114,.T.);
#114 = EDGE_CURVE('',#56,#115,#117,.T.);
#115 = VERTEX_POINT('',#116);
#116 = CARTESIAN_POINT('',(14.75,6.,0.));
#117 = SEAM_CURVE('',#118,(#122,#129),.PCURVE_S1.);
#118 = LINE('',#119,#120);
#119 = CARTESIAN_POINT('',(1.5,6.,0.));
#120 = VECTOR('',#121,1.);
#121 = DIRECTION('',(1.,0.,0.));
#122 = PCURVE('',#93,#123);
#123 = DEFINITIONAL_REPRESENTATION('',(#124),#128);
#124 = LINE('',#125,#126);
#125 = CARTESIAN_POINT('',(0.,0.));
#126 = VECTOR('',#127,1.);
#127 = DIRECTION('',(0.,1.));
#128 = ( GEOMETRIC_REPRESENTATION_CONTEXT(2) 
PARAMETRIC_REPRESENTATION_CONTEXT() REPRESENTATION_CONTEXT('2D SPACE',''
  ) );
#129 = PCURVE('',#93,#130);
#130 = DEFINITIONAL_REPRESENTATION('',(#131),#135);
#131 = LINE('',#132,#133);
#132 = CARTESIAN_POINT('',(6.28318530718,0.));
#133 = VECTOR('',#134,1.);
#134 = DIRECTION('',(0.,1.));
#135 = ( GEOMETRIC_REPRESENTATION_CONTEXT(2) 
PARAMETRIC_REPRESENTATION_CONTEXT() REPRESENTATION_CONTEXT('2D SPACE',''
  ) );
#136 = ORIENTED_EDGE('',*,*,#137,.F.);
#137 = EDGE_CURVE('',#115,#115,#138,.T.);
#138 = SURFACE_CURVE('',#139,(#144,#151),.PCURVE_S1.);
#139 = CIRCLE('',#140,6.);
#140 = AXIS2_PLACEMENT_3D('',#141,#142,#143);
#141 = CARTESIAN_POINT('',(14.75,0.,0.));
#142 = DIRECTION('',(1.,0.,0.));
#143 = DIRECTION('',(-0.,1.,0.));
#144 = PCURVE('',#93,#145);
#145 = DEFINITIONAL_REPRESENTATION('',(#146),#150);
#146 = LINE('',#147,#148);
#147 = CARTESIAN_POINT('',(0.,13.25));
#148 = VECTOR('',#149,1.);
#149 = DIRECTION('',(1.,0.));
#150 = ( GEOMETRIC_REPRESENTATION_CONTEXT(2) 
PARAMETRIC_REPRESENTATION_CONTEXT() REPRESENTATION_CONTEXT('2D SPACE',''
  ) );
#151 = PCURVE('',#152,#157);
#152 = PLANE('',#153);
#153 = AXIS2_PLACEMENT_3D('',#154,#155,#156);
#154 = CARTESIAN_POINT('',(14.75,0.,0.));
#155 = DIRECTION('',(1.,0.,0.));
#156 = DIRECTION('',(-0.,1.,0.));
#157 = DEFINITIONAL_REPRESENTATION('',(#158),#162);
#158 = CIRCLE('',#159,6.);
#159 = AXIS2_PLACEMENT_2D('',#160,#161);
#160 = CARTESIAN_POINT('',(0.,0.));
#161 = DIRECTION('',(1.,0.));
#162 = ( GEOMETRIC_REPRESENTATION_CONTEXT(2) 
PARAMETRIC_REPRESENTATION_CONTEXT() REPRESENTATION_CONTEXT('2D SPACE',''
  ) );
#163 = ORIENTED_EDGE('',*,*,#114,.F.);
#164 = ADVANCED_FACE('',(#165,#168),#152,.T.);
#165 = FACE_BOUND('',#166,.T.);
#166 = EDGE_LOOP('',(#167));
#167 = ORIENTED_EDGE('',*,*,#137,.T.);
#168 = FACE_BOUND('',#169,.T.);
#169 = EDGE_LOOP('',(#170));
#170 = ORIENTED_EDGE('',*,*,#171,.F.);
#171 = EDGE_CURVE('',#172,#172,#174,.T.);
#172 = VERTEX_POINT('',#173);
#173 = CARTESIAN_POINT('',(14.75,4.7,0.));
#174 = SURFACE_CURVE('',#175,(#180,#187),.PCURVE_S1.);
#175 = CIRCLE('',#176,4.7);
#176 = AXIS2_PLACEMENT_3D('',#177,#178,#179);
#177 = CARTESIAN_POINT('',(14.75,0.,0.));
#178 = DIRECTION('',(1.,0.,0.));
#179 = DIRECTION('',(-0.,1.,0.));
#180 = PCURVE('',#152,#181);
#181 = DEFINITIONAL_REPRESENTATION('',(#182),#186);
#182 = CIRCLE('',#183,4.7);
#183 = AXIS2_PLACEMENT_2D('',#184,#185);
#184 = CARTESIAN_POINT('',(0.,0.));
#185 = DIRECTION('',(1.,0.));
#186 = ( GEOMETRIC_REPRESENTATION_CONTEXT(2) 
PARAMETRIC_REPRESENTATION_CONTEXT() REPRESENTATION_CONTEXT('2D SPACE',''
  ) );
#187 = PCURVE('',#188,#193);
#188 = CYLINDRICAL_SURFACE('',#189,4.7);
#189 = AXIS2_PLACEMENT_3D('',#190,#191,#192);
#190 = CARTESIAN_POINT('',(14.75,0.,0.));
#191 = DIRECTION('',(1.,0.,0.));
#192 = DIRECTION('',(-0.,1.,0.));
#193 = DEFINITIONAL_REPRESENTATION('',(#194),#198);
#194 = LINE('',#195,#196);
#195 = CARTESIAN_POINT('',(0.,0.));
#196 = VECTOR('',#197,1.);
#197 = DIRECTION('',(1.,0.));
#198 = ( GEOMETRIC_REPRESENTATION_CONTEXT(2) 
PARAMETRIC_REPRESENTATION_CONTEXT() REPRESENTATION_CONTEXT('2D SPACE',''
  ) );
#199 = ADVANCED_FACE('',(#200),#188,.T.);
#200 = FACE_BOUND('',#201,.T.);
#201 = EDGE_LOOP('',(#202,#203,#226,#253));
#202 = ORIENTED_EDGE('',*,*,#171,.T.);
#203 = ORIENTED_EDGE('',*,*,#204,.T.);
#204 = EDGE_CURVE('',#172,#205,#207,.T.);
#205 = VERTEX_POINT('',#206);
#206 = CARTESIAN_POINT('',(20.,4.7,0.));
#207 = SEAM_CURVE('',#208,(#212,#219),.PCURVE_S1.);
#208 = LINE('',#209,#210);
#209 = CARTESIAN_POINT('',(14.75,4.7,0.));
#210 = VECTOR('',#211,1.);
#211 = DIRECTION('',(1.,0.,0.));
#212 = PCURVE('',#188,#213);
#213 = DEFINITIONAL_REPRESENTATION('',(#214),#218);
#214 = LINE('',#215,#216);
#215 = CARTESIAN_POINT('',(0.,0.));
#216 = VECTOR('',#217,1.);
#217 = DIRECTION('',(0.,1.));
#218 = ( GEOMETRIC_REPRESENTATION_CONTEXT(2) 
PARAMETRIC_REPRESENTATION_CONTEXT() REPRESENTATION_CONTEXT('2D SPACE',''
  ) );
#219 = PCURVE('',#188,#220);
#220 = DEFINITIONAL_REPRESENTATION('',(#221),#225);
#221 = LINE('',#222,#223);
#222 = CARTESIAN_POINT('',(6.28318530718,0.));
#223 = VECTOR('',#224,1.);
#224 = DIRECTION('',(0.,1.));
#225 = ( GEOMETRIC_REPRESENTATION_CONTEXT(2) 
PARAMETRIC_REPRESENTATION_CONTEXT() REPRESENTATION_CONTEXT('2D SPACE',''
  ) );
#226 = ORIENTED_EDGE('',*,*,#227,.F.);
#227 = EDGE_CURVE('',#205,#205,#228,.T.);
#228 = SURFACE_CURVE('',#229,(#234,#241),.PCURVE_S1.);
#229 = CIRCLE('',#230,4.7);
#230 = AXIS2_PLACEMENT_3D('',#231,#232,#233);
#231 = CARTESIAN_POINT('',(20.,0.,0.));
#232 = DIRECTION('',(1.,0.,0.));
#233 = DIRECTION('',(-0.,1.,0.));
#234 = PCURVE('',#188,#235);
#235 = DEFINITIONAL_REPRESENTATION('',(#236),#240);
#236 = LINE('',#237,#238);
#237 = CARTESIAN_POINT('',(0.,5.25));
#238 = VECTOR('',#239,1.);
#239 = DIRECTION('',(1.,0.));
#240 = ( GEOMETRIC_REPRESENTATION_CONTEXT(2) 
PARAMETRIC_REPRESENTATION_CONTEXT() REPRESENTATION_CONTEXT('2D SPACE',''
  ) );
#241 = PCURVE('',#242,#247);
#242 = PLANE('',#243);
#243 = AXIS2_PLACEMENT_3D('',#244,#245,#246);
#244 = CARTESIAN_POINT('',(20.,0.,0.));
#245 = DIRECTION('',(1.,0.,0.));
#246 = DIRECTION('',(-0.,1.,0.));
#247 = DEFINITIONAL_REPRESENTATION('',(#248),#252);
#248 = CIRCLE('',#249,4.7);
#249 = AXIS2_PLACEMENT_2D('',#250,#251);
#250 = CARTESIAN_POINT('',(0.,0.));
#251 = DIRECTION('',(1.,-0.));
#252 = ( GEOMETRIC_REPRESENTATION_CONTEXT(2) 
PARAMETRIC_REPRESENTATION_CONTEXT() REPRESENTATION_CONTEXT('2D SPACE',''
  ) );
#253 = ORIENTED_EDGE('',*,*,#204,.F.);
#254 = ADVANCED_FACE('',(#255,#258),#242,.F.);
#255 = FACE_BOUND('',#256,.T.);
#256 = EDGE_LOOP('',(#257));
#257 = ORIENTED_EDGE('',*,*,#227,.T.);
#258 = FACE_BOUND('',#259,.T.);
#259 = EDGE_LOOP('',(#260));
#260 = ORIENTED_EDGE('',*,*,#261,.F.);
#261 = EDGE_CURVE('',#262,#262,#264,.T.);
#262 = VERTEX_POINT('',#263);
#263 = CARTESIAN_POINT('',(20.,8.,0.));
#264 = SURFACE_CURVE('',#265,(#270,#277),.PCURVE_S1.);
#265 = CIRCLE('',#266,8.);
#266 = AXIS2_PLACEMENT_3D('',#267,#268,#269);
#267 = CARTESIAN_POINT('',(20.,0.,0.));
#268 = DIRECTION('',(1.,0.,0.));
#269 = DIRECTION('',(-0.,1.,0.));
#270 = PCURVE('',#242,#271);
#271 = DEFINITIONAL_REPRESENTATION('',(#272),#276);
#272 = CIRCLE('',#273,8.);
#273 = AXIS2_PLACEMENT_2D('',#274,#275);
#274 = CARTESIAN_POINT('',(0.,0.));
#275 = DIRECTION('',(1.,-0.));
#276 = ( GEOMETRIC_REPRESENTATION_CONTEXT(2) 
PARAMETRIC_REPRESENTATION_CONTEXT() REPRESENTATION_CONTEXT('2D SPACE',''
  ) );
#277 = PCURVE('',#278,#283);
#278 = CYLINDRICAL_SURFACE('',#279,8.);
#279 = AXIS2_PLACEMENT_3D('',#280,#281,#282);
#280 = CARTESIAN_POINT('',(20.,0.,0.));
#281 = DIRECTION('',(1.,0.,0.));
#282 = DIRECTION('',(-0.,1.,0.));
#283 = DEFINITIONAL_REPRESENTATION('',(#284),#288);
#284 = LINE('',#285,#286);
#285 = CARTESIAN_POINT('',(0.,0.));
#286 = VECTOR('',#287,1.);
#287 = DIRECTION('',(1.,0.));
#288 = ( GEOMETRIC_REPRESENTATION_CONTEXT(2) 
PARAMETRIC_REPRESENTATION_CONTEXT() REPRESENTATION_CONTEXT('2D SPACE',''
  ) );
#289 = ADVANCED_FACE('',(#290),#278,.T.);
#290 = FACE_BOUND('',#291,.T.);
#291 = EDGE_LOOP('',(#292,#293,#316,#343));
#292 = ORIENTED_EDGE('',*,*,#261,.T.);
#293 = ORIENTED_EDGE('',*,*,#294,.T.);
#294 = EDGE_CURVE('',#262,#295,#297,.T.);
#295 = VERTEX_POINT('',#296);
#296 = CARTESIAN_POINT('',(80.,8.,0.));
#297 = SEAM_CURVE('',#298,(#302,#309),.PCURVE_S1.);
#298 = LINE('',#299,#300);
#299 = CARTESIAN_POINT('',(20.,8.,0.));
#300 = VECTOR('',#301,1.);
#301 = DIRECTION('',(1.,0.,0.));
#302 = PCURVE('',#278,#303);
#303 = DEFINITIONAL_REPRESENTATION('',(#304),#308);
#304 = LINE('',#305,#306);
#305 = CARTESIAN_POINT('',(0.,0.));
#306 = VECTOR('',#307,1.);
#307 = DIRECTION('',(0.,1.));
#308 = ( GEOMETRIC_REPRESENTATION_CONTEXT(2) 
PARAMETRIC_REPRESENTATION_CONTEXT() REPRESENTATION_CONTEXT('2D SPACE',''
  ) );
#309 = PCURVE('',#278,#310);
#310 = DEFINITIONAL_REPRESENTATION('',(#311),#315);
#311 = LINE('',#312,#313);
#312 = CARTESIAN_POINT('',(6.28318530718,0.));
#313 = VECTOR('',#314,1.);
#314 = DIRECTION('',(0.,1.));
#315 = ( GEOMETRIC_REPRESENTATION_CONTEXT(2) 
PARAMETRIC_REPRESENTATION_CONTEXT() REPRESENTATION_CONTEXT('2D SPACE',''
  ) );
#316 = ORIENTED_EDGE('',*,*,#317,.F.);
#317 = EDGE_CURVE('',#295,#295,#318,.T.);
#318 = SURFACE_CURVE('',#319,(#324,#331),.PCURVE_S1.);
#319 = CIRCLE('',#320,8.);
#320 = AXIS2_PLACEMENT_3D('',#321,#322,#323);
#321 = CARTESIAN_POINT('',(80.,0.,0.));
#322 = DIRECTION('',(1.,0.,0.));
#323 = DIRECTION('',(-0.,1.,0.));
#324 = PCURVE('',#278,#325);
#325 = DEFINITIONAL_REPRESENTATION('',(#326),#330);
#326 = LINE('',#327,#328);
#327 = CARTESIAN_POINT('',(0.,60.));
#328 = VECTOR('',#329,1.);
#329 = DIRECTION('',(1.,0.));
#330 = ( GEOMETRIC_REPRESENTATION_CONTEXT(2) 
PARAMETRIC_REPRESENTATION_CONTEXT() REPRESENTATION_CONTEXT('2D SPACE',''
  ) );
#331 = PCURVE('',#332,#337);
#332 = PLANE('',#333);
#333 = AXIS2_PLACEMENT_3D('',#334,#335,#336);
#334 = CARTESIAN_POINT('',(80.,0.,0.));
#335 = DIRECTION('',(1.,0.,0.));
#336 = DIRECTION('',(-0.,1.,0.));
#337 = DEFINITIONAL_REPRESENTATION('',(#338),#342);
#338 = CIRCLE('',#339,8.);
#339 = AXIS2_PLACEMENT_2D('',#340,#341);
#340 = CARTESIAN_POINT('',(0.,0.));
#341 = DIRECTION('',(1.,0.));
#342 = ( GEOMETRIC_REPRESENTATION_CONTEXT(2) 
PARAMETRIC_REPRESENTATION_CONTEXT() REPRESENTATION_CONTEXT('2D SPACE',''
  ) );
#343 = ORIENTED_EDGE('',*,*,#294,.F.);
#344 = ADVANCED_FACE('',(#345,#348),#332,.T.);
#345 = FACE_BOUND('',#346,.T.);
#346 = EDGE_LOOP('',(#347));
#347 = ORIENTED_EDGE('',*,*,#317,.T.);
#348 = FACE_BOUND('',#349,.T.);
#349 = EDGE_LOOP('',(#350));
#350 = ORIENTED_EDGE('',*,*,#351,.F.);
#351 = EDGE_CURVE('',#352,#352,#354,.T.);
#352 = VERTEX_POINT('',#353);
#353 = CARTESIAN_POINT('',(80.,7.5,0.));
#354 = SURFACE_CURVE('',#355,(#360,#367),.PCURVE_S1.);
#355 = CIRCLE('',#356,7.5);
#356 = AXIS2_PLACEMENT_3D('',#357,#358,#359);
#357 = CARTESIAN_POINT('',(80.,0.,0.));
#358 = DIRECTION('',(1.,0.,0.));
#359 = DIRECTION('',(-0.,1.,0.));
#360 = PCURVE('',#332,#361);
#361 = DEFINITIONAL_REPRESENTATION('',(#362),#366);
#362 = CIRCLE('',#363,7.5);
#363 = AXIS2_PLACEMENT_2D('',#364,#365);
#364 = CARTESIAN_POINT('',(0.,0.));
#365 = DIRECTION('',(1.,0.));
#366 = ( GEOMETRIC_REPRESENTATION_CONTEXT(2) 
PARAMETRIC_REPRESENTATION_CONTEXT() REPRESENTATION_CONTEXT('2D SPACE',''
  ) );
#367 = PCURVE('',#368,#373);
#368 = CONICAL_SURFACE('',#369,7.5,1.492256510455);
#369 = AXIS2_PLACEMENT_3D('',#370,#371,#372);
#370 = CARTESIAN_POINT('',(80.,0.,0.));
#371 = DIRECTION('',(-1.,-0.,-0.));
#372 = DIRECTION('',(-0.,1.,0.));
#373 = DEFINITIONAL_REPRESENTATION('',(#374),#378);
#374 = LINE('',#375,#376);
#375 = CARTESIAN_POINT('',(-0.,-0.));
#376 = VECTOR('',#377,1.);
#377 = DIRECTION('',(-1.,-0.));
#378 = ( GEOMETRIC_REPRESENTATION_CONTEXT(2) 
PARAMETRIC_REPRESENTATION_CONTEXT() REPRESENTATION_CONTEXT('2D SPACE',''
  ) );
#379 = ADVANCED_FACE('',(#380),#368,.T.);
#380 = FACE_BOUND('',#381,.T.);
#381 = EDGE_LOOP('',(#382,#383,#406,#433));
#382 = ORIENTED_EDGE('',*,*,#351,.T.);
#383 = ORIENTED_EDGE('',*,*,#384,.T.);
#384 = EDGE_CURVE('',#352,#385,#387,.T.);
#385 = VERTEX_POINT('',#386);
#386 = CARTESIAN_POINT('',(80.006155829702,7.42178276748,0.));
#387 = SEAM_CURVE('',#388,(#392,#399),.PCURVE_S1.);
#388 = LINE('',#389,#390);
#389 = CARTESIAN_POINT('',(80.,7.5,0.));
#390 = VECTOR('',#391,1.);
#391 = DIRECTION('',(7.845909572791E-02,-0.996917333733,0.));
#392 = PCURVE('',#368,#393);
#393 = DEFINITIONAL_REPRESENTATION('',(#394),#398);
#394 = LINE('',#395,#396);
#395 = CARTESIAN_POINT('',(-0.,-0.));
#396 = VECTOR('',#397,1.);
#397 = DIRECTION('',(-0.,-1.));
#398 = ( GEOMETRIC_REPRESENTATION_CONTEXT(2) 
PARAMETRIC_REPRESENTATION_CONTEXT() REPRESENTATION_CONTEXT('2D SPACE',''
  ) );
#399 = PCURVE('',#368,#400);
#400 = DEFINITIONAL_REPRESENTATION('',(#401),#405);
#401 = LINE('',#402,#403);
#402 = CARTESIAN_POINT('',(-6.28318530718,-0.));
#403 = VECTOR('',#404,1.);
#404 = DIRECTION('',(-0.,-1.));
#405 = ( GEOMETRIC_REPRESENTATION_CONTEXT(2) 
PARAMETRIC_REPRESENTATION_CONTEXT() REPRESENTATION_CONTEXT('2D SPACE',''
  ) );
#406 = ORIENTED_EDGE('',*,*,#407,.F.);
#407 = EDGE_CURVE('',#385,#385,#408,.T.);
#408 = SURFACE_CURVE('',#409,(#414,#421),.PCURVE_S1.);
#409 = CIRCLE('',#410,7.42178276748);
#410 = AXIS2_PLACEMENT_3D('',#411,#412,#413);
#411 = CARTESIAN_POINT('',(80.006155829702,0.,0.));
#412 = DIRECTION('',(1.,0.,0.));
#413 = DIRECTION('',(-0.,1.,0.));
#414 = PCURVE('',#368,#415);
#415 = DEFINITIONAL_REPRESENTATION('',(#416),#420);
#416 = LINE('',#417,#418);
#417 = CARTESIAN_POINT('',(-0.,-6.155829702436E-03));
#418 = VECTOR('',#419,1.);
#419 = DIRECTION('',(-1.,-0.));
#420 = ( GEOMETRIC_REPRESENTATION_CONTEXT(2) 
PARAMETRIC_REPRESENTATION_CONTEXT() REPRESENTATION_CONTEXT('2D SPACE',''
  ) );
#421 = PCURVE('',#422,#427);
#422 = CONICAL_SURFACE('',#423,7.42178276748,1.335176877776);
#423 = AXIS2_PLACEMENT_3D('',#424,#425,#426);
#424 = CARTESIAN_POINT('',(80.006155829702,0.,0.));
#425 = DIRECTION('',(-1.,-0.,-0.));
#426 = DIRECTION('',(-0.,1.,0.));
#427 = DEFINITIONAL_REPRESENTATION('',(#428),#432);
#428 = LINE('',#429,#430);
#429 = CARTESIAN_POINT('',(-0.,-0.));
#430 = VECTOR('',#431,1.);
#431 = DIRECTION('',(-1.,-0.));
#432 = ( GEOMETRIC_REPRESENTATION_CONTEXT(2) 
PARAMETRIC_REPRESENTATION_CONTEXT() REPRESENTATION_CONTEXT('2D SPACE',''
  ) );
#433 = ORIENTED_EDGE('',*,*,#384,.F.);
#434 = ADVANCED_FACE('',(#435),#422,.T.);
#435 = FACE_BOUND('',#436,.T.);
#436 = EDGE_LOOP('',(#437,#438,#461,#488));
#437 = ORIENTED_EDGE('',*,*,#407,.T.);
#438 = ORIENTED_EDGE('',*,*,#439,.T.);
#439 = EDGE_CURVE('',#385,#440,#442,.T.);
#440 = VERTEX_POINT('',#441);
#441 = CARTESIAN_POINT('',(80.024471741852,7.345491502813,0.));
#442 = SEAM_CURVE('',#443,(#447,#454),.PCURVE_S1.);
#443 = LINE('',#444,#445);
#444 = CARTESIAN_POINT('',(80.006155829702,7.42178276748,0.));
#445 = VECTOR('',#446,1.);
#446 = DIRECTION('',(0.233445363856,-0.972369920398,0.));
#447 = PCURVE('',#422,#448);
#448 = DEFINITIONAL_REPRESENTATION('',(#449),#453);
#449 = LINE('',#450,#451);
#450 = CARTESIAN_POINT('',(-0.,-0.));
#451 = VECTOR('',#452,1.);
#452 = DIRECTION('',(-0.,-1.));
#453 = ( GEOMETRIC_REPRESENTATION_CONTEXT(2) 
PARAMETRIC_REPRESENTATION_CONTEXT() REPRESENTATION_CONTEXT('2D SPACE',''
  ) );
#454 = PCURVE('',#422,#455);
#455 = DEFINITIONAL_REPRESENTATION('',(#456),#460);
#456 = LINE('',#457,#458);
#457 = CARTESIAN_POINT('',(-6.28318530718,-0.));
#458 = VECTOR('',#459,1.);
#459 = DIRECTION('',(-0.,-1.));
#460 = ( GEOMETRIC_REPRESENTATION_CONTEXT(2) 
PARAMETRIC_REPRESENTATION_CONTEXT() REPRESENTATION_CONTEXT('2D SPACE',''
  ) );
#461 = ORIENTED_EDGE('',*,*,#462,.F.);
#462 = EDGE_CURVE('',#440,#440,#463,.T.);
#463 = SURFACE_CURVE('',#464,(#469,#476),.PCURVE_S1.);
#464 = CIRCLE('',#465,7.345491502813);
#465 = AXIS2_PLACEMENT_3D('',#466,#467,#468);
#466 = CARTESIAN_POINT('',(80.024471741852,0.,0.));
#467 = DIRECTION('',(1.,0.,0.));
#468 = DIRECTION('',(-0.,1.,0.));
#469 = PCURVE('',#422,#470);
#470 = DEFINITIONAL_REPRESENTATION('',(#471),#475);
#471 = LINE('',#472,#473);
#472 = CARTESIAN_POINT('',(-0.,-1.831591214999E-02));
#473 = VECTOR('',#474,1.);
#474 = DIRECTION('',(-1.,-0.));
#475 = ( GEOMETRIC_REPRESENTATION_CONTEXT(2) 
PARAMETRIC_REPRESENTATION_CONTEXT() REPRESENTATION_CONTEXT('2D SPACE',''
  ) );
#476 = PCURVE('',#477,#482);
#477 = CONICAL_SURFACE('',#478,7.345491502813,1.178097245096);
#478 = AXIS2_PLACEMENT_3D('',#479,#480,#481);
#479 = CARTESIAN_POINT('',(80.024471741852,0.,0.));
#480 = DIRECTION('',(-1.,-0.,-0.));
#481 = DIRECTION('',(-0.,1.,0.));
#482 = DEFINITIONAL_REPRESENTATION('',(#483),#487);
#483 = LINE('',#484,#485);
#484 = CARTESIAN_POINT('',(-0.,-0.));
#485 = VECTOR('',#486,1.);
#486 = DIRECTION('',(-1.,-0.));
#487 = ( GEOMETRIC_REPRESENTATION_CONTEXT(2) 
PARAMETRIC_REPRESENTATION_CONTEXT() REPRESENTATION_CONTEXT('2D SPACE',''
  ) );
#488 = ORIENTED_EDGE('',*,*,#439,.F.);
#489 = ADVANCED_FACE('',(#490),#477,.T.);
#490 = FACE_BOUND('',#491,.T.);
#491 = EDGE_LOOP('',(#492,#493,#516,#543));
#492 = ORIENTED_EDGE('',*,*,#462,.T.);
#493 = ORIENTED_EDGE('',*,*,#494,.T.);
#494 = EDGE_CURVE('',#440,#495,#497,.T.);
#495 = VERTEX_POINT('',#496);
#496 = CARTESIAN_POINT('',(80.054496737906,7.27300475013,0.));
#497 = SEAM_CURVE('',#498,(#502,#509),.PCURVE_S1.);
#498 = LINE('',#499,#500);
#499 = CARTESIAN_POINT('',(80.024471741852,7.345491502813,0.));
#500 = VECTOR('',#501,1.);
#501 = DIRECTION('',(0.382683432365,-0.923879532511,0.));
#502 = PCURVE('',#477,#503);
#503 = DEFINITIONAL_REPRESENTATION('',(#504),#508);
#504 = LINE('',#505,#506);
#505 = CARTESIAN_POINT('',(-0.,-0.));
#506 = VECTOR('',#507,1.);
#507 = DIRECTION('',(-0.,-1.));
#508 = ( GEOMETRIC_REPRESENTATION_CONTEXT(2) 
PARAMETRIC_REPRESENTATION_CONTEXT() REPRESENTATION_CONTEXT('2D SPACE',''
  ) );
#509 = PCURVE('',#477,#510);
#510 = DEFINITIONAL_REPRESENTATION('',(#511),#515);
#511 = LINE('',#512,#513);
#512 = CARTESIAN_POINT('',(-6.28318530718,-0.));
#513 = VECTOR('',#514,1.);
#514 = DIRECTION('',(-0.,-1.));
#515 = ( GEOMETRIC_REPRESENTATION_CONTEXT(2) 
PARAMETRIC_REPRESENTATION_CONTEXT() REPRESENTATION_CONTEXT('2D SPACE',''
  ) );
#516 = ORIENTED_EDGE('',*,*,#517,.F.);
#517 = EDGE_CURVE('',#495,#495,#518,.T.);
#518 = SURFACE_CURVE('',#519,(#524,#531),.PCURVE_S1.);
#519 = CIRCLE('',#520,7.27300475013);
#520 = AXIS2_PLACEMENT_3D('',#521,#522,#523);
#521 = CARTESIAN_POINT('',(80.054496737906,0.,0.));
#522 = DIRECTION('',(1.,0.,0.));
#523 = DIRECTION('',(-0.,1.,0.));
#524 = PCURVE('',#477,#525);
#525 = DEFINITIONAL_REPRESENTATION('',(#526),#530);
#526 = LINE('',#527,#528);
#527 = CARTESIAN_POINT('',(-0.,-3.00249960534E-02));
#528 = VECTOR('',#529,1.);
#529 = DIRECTION('',(-1.,-0.));
#530 = ( GEOMETRIC_REPRESENTATION_CONTEXT(2) 
PARAMETRIC_REPRESENTATION_CONTEXT() REPRESENTATION_CONTEXT('2D SPACE',''
  ) );
#531 = PCURVE('',#532,#537);
#532 = CONICAL_SURFACE('',#533,7.27300475013,1.021017612417);
#533 = AXIS2_PLACEMENT_3D('',#534,#535,#536);
#534 = CARTESIAN_POINT('',(80.054496737906,0.,0.));
#535 = DIRECTION('',(-1.,-0.,-0.));
#536 = DIRECTION('',(-0.,1.,0.));
#537 = DEFINITIONAL_REPRESENTATION('',(#538),#542);
#538 = LINE('',#539,#540);
#539 = CARTESIAN_POINT('',(-0.,-0.));
#540 = VECTOR('',#541,1.);
#541 = DIRECTION('',(-1.,-0.));
#542 = ( GEOMETRIC_REPRESENTATION_CONTEXT(2) 
PARAMETRIC_REPRESENTATION_CONTEXT() REPRESENTATION_CONTEXT('2D SPACE',''
  ) );
#543 = ORIENTED_EDGE('',*,*,#494,.F.);
#544 = ADVANCED_FACE('',(#545),#532,.T.);
#545 = FACE_BOUND('',#546,.T.);
#546 = EDGE_LOOP('',(#547,#548,#571,#598));
#547 = ORIENTED_EDGE('',*,*,#517,.T.);
#548 = ORIENTED_EDGE('',*,*,#549,.T.);
#549 = EDGE_CURVE('',#495,#550,#552,.T.);
#550 = VERTEX_POINT('',#551);
#551 = CARTESIAN_POINT('',(80.095491502813,7.206107373854,0.));
#552 = SEAM_CURVE('',#553,(#557,#564),.PCURVE_S1.);
#553 = LINE('',#554,#555);
#554 = CARTESIAN_POINT('',(80.054496737906,7.27300475013,0.));
#555 = VECTOR('',#556,1.);
#556 = DIRECTION('',(0.522498564716,-0.852640164354,0.));
#557 = PCURVE('',#532,#558);
#558 = DEFINITIONAL_REPRESENTATION('',(#559),#563);
#559 = LINE('',#560,#561);
#560 = CARTESIAN_POINT('',(-0.,-0.));
#561 = VECTOR('',#562,1.);
#562 = DIRECTION('',(-0.,-1.));
#563 = ( GEOMETRIC_REPRESENTATION_CONTEXT(2) 
PARAMETRIC_REPRESENTATION_CONTEXT() REPRESENTATION_CONTEXT('2D SPACE',''
  ) );
#564 = PCURVE('',#532,#565);
#565 = DEFINITIONAL_REPRESENTATION('',(#566),#570);
#566 = LINE('',#567,#568);
#567 = CARTESIAN_POINT('',(-6.28318530718,-0.));
#568 = VECTOR('',#569,1.);
#569 = DIRECTION('',(-0.,-1.));
#570 = ( GEOMETRIC_REPRESENTATION_CONTEXT(2) 
PARAMETRIC_REPRESENTATION_CONTEXT() REPRESENTATION_CONTEXT('2D SPACE',''
  ) );
#571 = ORIENTED_EDGE('',*,*,#572,.F.);
#572 = EDGE_CURVE('',#550,#550,#573,.T.);
#573 = SURFACE_CURVE('',#574,(#579,#586),.PCURVE_S1.);
#574 = CIRCLE('',#575,7.206107373854);
#575 = AXIS2_PLACEMENT_3D('',#576,#577,#578);
#576 = CARTESIAN_POINT('',(80.095491502813,0.,0.));
#577 = DIRECTION('',(1.,0.,0.));
#578 = DIRECTION('',(-0.,1.,0.));
#579 = PCURVE('',#532,#580);
#580 = DEFINITIONAL_REPRESENTATION('',(#581),#585);
#581 = LINE('',#582,#583);
#582 = CARTESIAN_POINT('',(-0.,-4.09947649067E-02));
#583 = VECTOR('',#584,1.);
#584 = DIRECTION('',(-1.,-0.));
#585 = ( GEOMETRIC_REPRESENTATION_CONTEXT(2) 
PARAMETRIC_REPRESENTATION_CONTEXT() REPRESENTATION_CONTEXT('2D SPACE',''
  ) );
#586 = PCURVE('',#587,#592);
#587 = CONICAL_SURFACE('',#588,7.206107373854,0.863937979737);
#588 = AXIS2_PLACEMENT_3D('',#589,#590,#591);
#589 = CARTESIAN_POINT('',(80.095491502813,0.,0.));
#590 = DIRECTION('',(-1.,-0.,-0.));
#591 = DIRECTION('',(-0.,1.,0.));
#592 = DEFINITIONAL_REPRESENTATION('',(#593),#597);
#593 = LINE('',#594,#595);
#594 = CARTESIAN_POINT('',(-0.,-0.));
#595 = VECTOR('',#596,1.);
#596 = DIRECTION('',(-1.,-0.));
#597 = ( GEOMETRIC_REPRESENTATION_CONTEXT(2) 
PARAMETRIC_REPRESENTATION_CONTEXT() REPRESENTATION_CONTEXT('2D SPACE',''
  ) );
#598 = ORIENTED_EDGE('',*,*,#549,.F.);
#599 = ADVANCED_FACE('',(#600),#587,.T.);
#600 = FACE_BOUND('',#601,.T.);
#601 = EDGE_LOOP('',(#602,#603,#626,#653));
#602 = ORIENTED_EDGE('',*,*,#572,.T.);
#603 = ORIENTED_EDGE('',*,*,#604,.T.);
#604 = EDGE_CURVE('',#550,#605,#607,.T.);
#605 = VERTEX_POINT('',#606);
#606 = CARTESIAN_POINT('',(80.146446609407,7.146446609407,0.));
#607 = SEAM_CURVE('',#608,(#612,#619),.PCURVE_S1.);
#608 = LINE('',#609,#610);
#609 = CARTESIAN_POINT('',(80.095491502813,7.206107373854,0.));
#610 = VECTOR('',#611,1.);
#611 = DIRECTION('',(0.64944804833,-0.7604059656,0.));
#612 = PCURVE('',#587,#613);
#613 = DEFINITIONAL_REPRESENTATION('',(#614),#618);
#614 = LINE('',#615,#616);
#615 = CARTESIAN_POINT('',(-0.,-0.));
#616 = VECTOR('',#617,1.);
#617 = DIRECTION('',(-0.,-1.));
#618 = ( GEOMETRIC_REPRESENTATION_CONTEXT(2) 
PARAMETRIC_REPRESENTATION_CONTEXT() REPRESENTATION_CONTEXT('2D SPACE',''
  ) );
#619 = PCURVE('',#587,#620);
#620 = DEFINITIONAL_REPRESENTATION('',(#621),#625);
#621 = LINE('',#622,#623);
#622 = CARTESIAN_POINT('',(-6.28318530718,-0.));
#623 = VECTOR('',#624,1.);
#624 = DIRECTION('',(-0.,-1.));
#625 = ( GEOMETRIC_REPRESENTATION_CONTEXT(2) 
PARAMETRIC_REPRESENTATION_CONTEXT() REPRESENTATION_CONTEXT('2D SPACE',''
  ) );
#626 = ORIENTED_EDGE('',*,*,#627,.F.);
#627 = EDGE_CURVE('',#605,#605,#628,.T.);
#628 = SURFACE_CURVE('',#629,(#634,#641),.PCURVE_S1.);
#629 = CIRCLE('',#630,7.146446609407);
#630 = AXIS2_PLACEMENT_3D('',#631,#632,#633);
#631 = CARTESIAN_POINT('',(80.146446609407,0.,0.));
#632 = DIRECTION('',(1.,0.,0.));
#633 = DIRECTION('',(-0.,1.,0.));
#634 = PCURVE('',#587,#635);
#635 = DEFINITIONAL_REPRESENTATION('',(#636),#640);
#636 = LINE('',#637,#638);
#637 = CARTESIAN_POINT('',(-0.,-5.09551065942E-02));
#638 = VECTOR('',#639,1.);
#639 = DIRECTION('',(-1.,-0.));
#640 = ( GEOMETRIC_REPRESENTATION_CONTEXT(2) 
PARAMETRIC_REPRESENTATION_CONTEXT() REPRESENTATION_CONTEXT('2D SPACE',''
  ) );
#641 = PCURVE('',#642,#647);
#642 = CONICAL_SURFACE('',#643,7.146446609407,0.706858347058);
#643 = AXIS2_PLACEMENT_3D('',#644,#645,#646);
#644 = CARTESIAN_POINT('',(80.146446609407,0.,0.));
#645 = DIRECTION('',(-1.,-0.,-0.));
#646 = DIRECTION('',(-0.,1.,0.));
#647 = DEFINITIONAL_REPRESENTATION('',(#648),#652);
#648 = LINE('',#649,#650);
#649 = CARTESIAN_POINT('',(-0.,-0.));
#650 = VECTOR('',#651,1.);
#651 = DIRECTION('',(-1.,-0.));
#652 = ( GEOMETRIC_REPRESENTATION_CONTEXT(2) 
PARAMETRIC_REPRESENTATION_CONTEXT() REPRESENTATION_CONTEXT('2D SPACE',''
  ) );
#653 = ORIENTED_EDGE('',*,*,#604,.F.);
#654 = ADVANCED_FACE('',(#655),#642,.T.);
#655 = FACE_BOUND('',#656,.T.);
#656 = EDGE_LOOP('',(#657,#658,#681,#708));
#657 = ORIENTED_EDGE('',*,*,#627,.T.);
#658 = ORIENTED_EDGE('',*,*,#659,.T.);
#659 = EDGE_CURVE('',#605,#660,#662,.T.);
#660 = VERTEX_POINT('',#661);
#661 = CARTESIAN_POINT('',(80.206107373854,7.095491502813,0.));
#662 = SEAM_CURVE('',#663,(#667,#674),.PCURVE_S1.);
#663 = LINE('',#664,#665);
#664 = CARTESIAN_POINT('',(80.146446609407,7.146446609407,0.));
#665 = VECTOR('',#666,1.);
#666 = DIRECTION('',(0.7604059656,-0.64944804833,0.));
#667 = PCURVE('',#642,#668);
#668 = DEFINITIONAL_REPRESENTATION('',(#669),#673);
#669 = LINE('',#670,#671);
#670 = CARTESIAN_POINT('',(-0.,-0.));
#671 = VECTOR('',#672,1.);
#672 = DIRECTION('',(-0.,-1.));
#673 = ( GEOMETRIC_REPRESENTATION_CONTEXT(2) 
PARAMETRIC_REPRESENTATION_CONTEXT() REPRESENTATION_CONTEXT('2D SPACE',''
  ) );
#674 = PCURVE('',#642,#675);
#675 = DEFINITIONAL_REPRESENTATION('',(#676),#680);
#676 = LINE('',#677,#678);
#677 = CARTESIAN_POINT('',(-6.28318530718,-0.));
#678 = VECTOR('',#679,1.);
#679 = DIRECTION('',(-0.,-1.));
#680 = ( GEOMETRIC_REPRESENTATION_CONTEXT(2) 
PARAMETRIC_REPRESENTATION_CONTEXT() REPRESENTATION_CONTEXT('2D SPACE',''
  ) );
#681 = ORIENTED_EDGE('',*,*,#682,.F.);
#682 = EDGE_CURVE('',#660,#660,#683,.T.);
#683 = SURFACE_CURVE('',#684,(#689,#696),.PCURVE_S1.);
#684 = CIRCLE('',#685,7.095491502813);
#685 = AXIS2_PLACEMENT_3D('',#686,#687,#688);
#686 = CARTESIAN_POINT('',(80.206107373854,0.,0.));
#687 = DIRECTION('',(1.,0.,0.));
#688 = DIRECTION('',(-0.,1.,0.));
#689 = PCURVE('',#642,#690);
#690 = DEFINITIONAL_REPRESENTATION('',(#691),#695);
#691 = LINE('',#692,#693);
#692 = CARTESIAN_POINT('',(-0.,-5.966076444705E-02));
#693 = VECTOR('',#694,1.);
#694 = DIRECTION('',(-1.,-0.));
#695 = ( GEOMETRIC_REPRESENTATION_CONTEXT(2) 
PARAMETRIC_REPRESENTATION_CONTEXT() REPRESENTATION_CONTEXT('2D SPACE',''
  ) );
#696 = PCURVE('',#697,#702);
#697 = CONICAL_SURFACE('',#698,7.095491502813,0.549778714378);
#698 = AXIS2_PLACEMENT_3D('',#699,#700,#701);
#699 = CARTESIAN_POINT('',(80.206107373854,0.,0.));
#700 = DIRECTION('',(-1.,-0.,-0.));
#701 = DIRECTION('',(-0.,1.,0.));
#702 = DEFINITIONAL_REPRESENTATION('',(#703),#707);
#703 = LINE('',#704,#705);
#704 = CARTESIAN_POINT('',(-0.,-0.));
#705 = VECTOR('',#706,1.);
#706 = DIRECTION('',(-1.,-0.));
#707 = ( GEOMETRIC_REPRESENTATION_CONTEXT(2) 
PARAMETRIC_REPRESENTATION_CONTEXT() REPRESENTATION_CONTEXT('2D SPACE',''
  ) );
#708 = ORIENTED_EDGE('',*,*,#659,.F.);
#709 = ADVANCED_FACE('',(#710),#697,.T.);
#710 = FACE_BOUND('',#711,.T.);
#711 = EDGE_LOOP('',(#712,#713,#736,#763));
#712 = ORIENTED_EDGE('',*,*,#682,.T.);
#713 = ORIENTED_EDGE('',*,*,#714,.T.);
#714 = EDGE_CURVE('',#660,#715,#717,.T.);
#715 = VERTEX_POINT('',#716);
#716 = CARTESIAN_POINT('',(80.27300475013,7.054496737906,0.));
#717 = SEAM_CURVE('',#718,(#722,#729),.PCURVE_S1.);
#718 = LINE('',#719,#720);
#719 = CARTESIAN_POINT('',(80.206107373854,7.095491502813,0.));
#720 = VECTOR('',#721,1.);
#721 = DIRECTION('',(0.852640164354,-0.522498564716,0.));
#722 = PCURVE('',#697,#723);
#723 = DEFINITIONAL_REPRESENTATION('',(#724),#728);
#724 = LINE('',#725,#726);
#725 = CARTESIAN_POINT('',(-0.,-0.));
#726 = VECTOR('',#727,1.);
#727 = DIRECTION('',(-0.,-1.));
#728 = ( GEOMETRIC_REPRESENTATION_CONTEXT(2) 
PARAMETRIC_REPRESENTATION_CONTEXT() REPRESENTATION_CONTEXT('2D SPACE',''
  ) );
#729 = PCURVE('',#697,#730);
#730 = DEFINITIONAL_REPRESENTATION('',(#731),#735);
#731 = LINE('',#732,#733);
#732 = CARTESIAN_POINT('',(-6.28318530718,-0.));
#733 = VECTOR('',#734,1.);
#734 = DIRECTION('',(-0.,-1.));
#735 = ( GEOMETRIC_REPRESENTATION_CONTEXT(2) 
PARAMETRIC_REPRESENTATION_CONTEXT() REPRESENTATION_CONTEXT('2D SPACE',''
  ) );
#736 = ORIENTED_EDGE('',*,*,#737,.F.);
#737 = EDGE_CURVE('',#715,#715,#738,.T.);
#738 = SURFACE_CURVE('',#739,(#744,#751),.PCURVE_S1.);
#739 = CIRCLE('',#740,7.054496737906);
#740 = AXIS2_PLACEMENT_3D('',#741,#742,#743);
#741 = CARTESIAN_POINT('',(80.27300475013,0.,0.));
#742 = DIRECTION('',(1.,0.,0.));
#743 = DIRECTION('',(-0.,1.,0.));
#744 = PCURVE('',#697,#745);
#745 = DEFINITIONAL_REPRESENTATION('',(#746),#750);
#746 = LINE('',#747,#748);
#747 = CARTESIAN_POINT('',(-0.,-6.689737627646E-02));
#748 = VECTOR('',#749,1.);
#749 = DIRECTION('',(-1.,-0.));
#750 = ( GEOMETRIC_REPRESENTATION_CONTEXT(2) 
PARAMETRIC_REPRESENTATION_CONTEXT() REPRESENTATION_CONTEXT('2D SPACE',''
  ) );
#751 = PCURVE('',#752,#757);
#752 = CONICAL_SURFACE('',#753,7.054496737906,0.392699081699);
#753 = AXIS2_PLACEMENT_3D('',#754,#755,#756);
#754 = CARTESIAN_POINT('',(80.27300475013,0.,0.));
#755 = DIRECTION('',(-1.,-0.,-0.));
#756 = DIRECTION('',(-0.,1.,0.));
#757 = DEFINITIONAL_REPRESENTATION('',(#758),#762);
#758 = LINE('',#759,#760);
#759 = CARTESIAN_POINT('',(-0.,-0.));
#760 = VECTOR('',#761,1.);
#761 = DIRECTION('',(-1.,-0.));
#762 = ( GEOMETRIC_REPRESENTATION_CONTEXT(2) 
PARAMETRIC_REPRESENTATION_CONTEXT() REPRESENTATION_CONTEXT('2D SPACE',''
  ) );
#763 = ORIENTED_EDGE('',*,*,#714,.F.);
#764 = ADVANCED_FACE('',(#765),#752,.T.);
#765 = FACE_BOUND('',#766,.T.);
#766 = EDGE_LOOP('',(#767,#768,#791,#818));
#767 = ORIENTED_EDGE('',*,*,#737,.T.);
#768 = ORIENTED_EDGE('',*,*,#769,.T.);
#769 = EDGE_CURVE('',#715,#770,#772,.T.);
#770 = VERTEX_POINT('',#771);
#771 = CARTESIAN_POINT('',(80.345491502813,7.024471741852,0.));
#772 = SEAM_CURVE('',#773,(#777,#784),.PCURVE_S1.);
#773 = LINE('',#774,#775);
#774 = CARTESIAN_POINT('',(80.27300475013,7.054496737906,0.));
#775 = VECTOR('',#776,1.);
#776 = DIRECTION('',(0.923879532511,-0.382683432365,0.));
#777 = PCURVE('',#752,#778);
#778 = DEFINITIONAL_REPRESENTATION('',(#779),#783);
#779 = LINE('',#780,#781);
#780 = CARTESIAN_POINT('',(-0.,-0.));
#781 = VECTOR('',#782,1.);
#782 = DIRECTION('',(-0.,-1.));
#783 = ( GEOMETRIC_REPRESENTATION_CONTEXT(2) 
PARAMETRIC_REPRESENTATION_CONTEXT() REPRESENTATION_CONTEXT('2D SPACE',''
  ) );
#784 = PCURVE('',#752,#785);
#785 = DEFINITIONAL_REPRESENTATION('',(#786),#790);
#786 = LINE('',#787,#788);
#787 = CARTESIAN_POINT('',(-6.28318530718,-0.));
#788 = VECTOR('',#789,1.);
#789 = DIRECTION('',(-0.,-1.));
#790 = ( GEOMETRIC_REPRESENTATION_CONTEXT(2) 
PARAMETRIC_REPRESENTATION_CONTEXT() REPRESENTATION_CONTEXT('2D SPACE',''
  ) );
#791 = ORIENTED_EDGE('',*,*,#792,.F.);
#792 = EDGE_CURVE('',#770,#770,#793,.T.);
#793 = SURFACE_CURVE('',#794,(#799,#806),.PCURVE_S1.);
#794 = CIRCLE('',#795,7.024471741852);
#795 = AXIS2_PLACEMENT_3D('',#796,#797,#798);
#796 = CARTESIAN_POINT('',(80.345491502813,0.,0.));
#797 = DIRECTION('',(1.,0.,0.));
#798 = DIRECTION('',(-0.,1.,0.));
#799 = PCURVE('',#752,#800);
#800 = DEFINITIONAL_REPRESENTATION('',(#801),#805);
#801 = LINE('',#802,#803);
#802 = CARTESIAN_POINT('',(-0.,-7.248675268229E-02));
#803 = VECTOR('',#804,1.);
#804 = DIRECTION('',(-1.,-0.));
#805 = ( GEOMETRIC_REPRESENTATION_CONTEXT(2) 
PARAMETRIC_REPRESENTATION_CONTEXT() REPRESENTATION_CONTEXT('2D SPACE',''
  ) );
#806 = PCURVE('',#807,#812);
#807 = CONICAL_SURFACE('',#808,7.024471741852,0.235619449019);
#808 = AXIS2_PLACEMENT_3D('',#809,#810,#811);
#809 = CARTESIAN_POINT('',(80.345491502813,0.,0.));
#810 = DIRECTION('',(-1.,-0.,-0.));
#811 = DIRECTION('',(-0.,1.,0.));
#812 = DEFINITIONAL_REPRESENTATION('',(#813),#817);
#813 = LINE('',#814,#815);
#814 = CARTESIAN_POINT('',(-0.,-0.));
#815 = VECTOR('',#816,1.);
#816 = DIRECTION('',(-1.,-0.));
#817 = ( GEOMETRIC_REPRESENTATION_CONTEXT(2) 
PARAMETRIC_REPRESENTATION_CONTEXT() REPRESENTATION_CONTEXT('2D SPACE',''
  ) );
#818 = ORIENTED_EDGE('',*,*,#769,.F.);
#819 = ADVANCED_FACE('',(#820),#807,.T.);
#820 = FACE_BOUND('',#821,.T.);
#821 = EDGE_LOOP('',(#822,#823,#846,#873));
#822 = ORIENTED_EDGE('',*,*,#792,.T.);
#823 = ORIENTED_EDGE('',*,*,#824,.T.);
#824 = EDGE_CURVE('',#770,#825,#827,.T.);
#825 = VERTEX_POINT('',#826);
#826 = CARTESIAN_POINT('',(80.42178276748,7.006155829702,0.));
#827 = SEAM_CURVE('',#828,(#832,#839),.PCURVE_S1.);
#828 = LINE('',#829,#830);
#829 = CARTESIAN_POINT('',(80.345491502813,7.024471741852,0.));
#830 = VECTOR('',#831,1.);
#831 = DIRECTION('',(0.972369920398,-0.233445363856,0.));
#832 = PCURVE('',#807,#833);
#833 = DEFINITIONAL_REPRESENTATION('',(#834),#838);
#834 = LINE('',#835,#836);
#835 = CARTESIAN_POINT('',(-0.,-0.));
#836 = VECTOR('',#837,1.);
#837 = DIRECTION('',(-0.,-1.));
#838 = ( GEOMETRIC_REPRESENTATION_CONTEXT(2) 
PARAMETRIC_REPRESENTATION_CONTEXT() REPRESENTATION_CONTEXT('2D SPACE',''
  ) );
#839 = PCURVE('',#807,#840);
#840 = DEFINITIONAL_REPRESENTATION('',(#841),#845);
#841 = LINE('',#842,#843);
#842 = CARTESIAN_POINT('',(-6.28318530718,-0.));
#843 = VECTOR('',#844,1.);
#844 = DIRECTION('',(-0.,-1.));
#845 = ( GEOMETRIC_REPRESENTATION_CONTEXT(2) 
PARAMETRIC_REPRESENTATION_CONTEXT() REPRESENTATION_CONTEXT('2D SPACE',''
  ) );
#846 = ORIENTED_EDGE('',*,*,#847,.F.);
#847 = EDGE_CURVE('',#825,#825,#848,.T.);
#848 = SURFACE_CURVE('',#849,(#854,#861),.PCURVE_S1.);
#849 = CIRCLE('',#850,7.006155829702);
#850 = AXIS2_PLACEMENT_3D('',#851,#852,#853);
#851 = CARTESIAN_POINT('',(80.42178276748,0.,0.));
#852 = DIRECTION('',(1.,0.,0.));
#853 = DIRECTION('',(-0.,1.,0.));
#854 = PCURVE('',#807,#855);
#855 = DEFINITIONAL_REPRESENTATION('',(#856),#860);
#856 = LINE('',#857,#858);
#857 = CARTESIAN_POINT('',(-0.,-7.629126466736E-02));
#858 = VECTOR('',#859,1.);
#859 = DIRECTION('',(-1.,-0.));
#860 = ( GEOMETRIC_REPRESENTATION_CONTEXT(2) 
PARAMETRIC_REPRESENTATION_CONTEXT() REPRESENTATION_CONTEXT('2D SPACE',''
  ) );
#861 = PCURVE('',#862,#867);
#862 = CONICAL_SURFACE('',#863,7.006155829702,7.853981633974E-02);
#863 = AXIS2_PLACEMENT_3D('',#864,#865,#866);
#864 = CARTESIAN_POINT('',(80.42178276748,0.,0.));
#865 = DIRECTION('',(-1.,-0.,-0.));
#866 = DIRECTION('',(-0.,1.,0.));
#867 = DEFINITIONAL_REPRESENTATION('',(#868),#872);
#868 = LINE('',#869,#870);
#869 = CARTESIAN_POINT('',(-0.,-0.));
#870 = VECTOR('',#871,1.);
#871 = DIRECTION('',(-1.,-0.));
#872 = ( GEOMETRIC_REPRESENTATION_CONTEXT(2) 
PARAMETRIC_REPRESENTATION_CONTEXT() REPRESENTATION_CONTEXT('2D SPACE',''
  ) );
#873 = ORIENTED_EDGE('',*,*,#824,.F.);
#874 = ADVANCED_FACE('',(#875),#862,.T.);
#875 = FACE_BOUND('',#876,.T.);
#876 = EDGE_LOOP('',(#877,#878,#901,#928));
#877 = ORIENTED_EDGE('',*,*,#847,.T.);
#878 = ORIENTED_EDGE('',*,*,#879,.T.);
#879 = EDGE_CURVE('',#825,#880,#882,.T.);
#880 = VERTEX_POINT('',#881);
#881 = CARTESIAN_POINT('',(80.5,7.,0.));
#882 = SEAM_CURVE('',#883,(#887,#894),.PCURVE_S1.);
#883 = LINE('',#884,#885);
#884 = CARTESIAN_POINT('',(80.42178276748,7.006155829702,0.));
#885 = VECTOR('',#886,1.);
#886 = DIRECTION('',(0.996917333733,-7.845909572784E-02,0.));
#887 = PCURVE('',#862,#888);
#888 = DEFINITIONAL_REPRESENTATION('',(#889),#893);
#889 = LINE('',#890,#891);
#890 = CARTESIAN_POINT('',(-0.,-0.));
#891 = VECTOR('',#892,1.);
#892 = DIRECTION('',(-0.,-1.));
#893 = ( GEOMETRIC_REPRESENTATION_CONTEXT(2) 
PARAMETRIC_REPRESENTATION_CONTEXT() REPRESENTATION_CONTEXT('2D SPACE',''
  ) );
#894 = PCURVE('',#862,#895);
#895 = DEFINITIONAL_REPRESENTATION('',(#896),#900);
#896 = LINE('',#897,#898);
#897 = CARTESIAN_POINT('',(-6.28318530718,-0.));
#898 = VECTOR('',#899,1.);
#899 = DIRECTION('',(-0.,-1.));
#900 = ( GEOMETRIC_REPRESENTATION_CONTEXT(2) 
PARAMETRIC_REPRESENTATION_CONTEXT() REPRESENTATION_CONTEXT('2D SPACE',''
  ) );
#901 = ORIENTED_EDGE('',*,*,#902,.F.);
#902 = EDGE_CURVE('',#880,#880,#903,.T.);
#903 = SURFACE_CURVE('',#904,(#909,#916),.PCURVE_S1.);
#904 = CIRCLE('',#905,7.);
#905 = AXIS2_PLACEMENT_3D('',#906,#907,#908);
#906 = CARTESIAN_POINT('',(80.5,0.,0.));
#907 = DIRECTION('',(1.,0.,0.));
#908 = DIRECTION('',(-0.,1.,0.));
#909 = PCURVE('',#862,#910);
#910 = DEFINITIONAL_REPRESENTATION('',(#911),#915);
#911 = LINE('',#912,#913);
#912 = CARTESIAN_POINT('',(-0.,-7.821723252012E-02));
#913 = VECTOR('',#914,1.);
#914 = DIRECTION('',(-1.,-0.));
#915 = ( GEOMETRIC_REPRESENTATION_CONTEXT(2) 
PARAMETRIC_REPRESENTATION_CONTEXT() REPRESENTATION_CONTEXT('2D SPACE',''
  ) );
#916 = PCURVE('',#917,#922);
#917 = CYLINDRICAL_SURFACE('',#918,7.);
#918 = AXIS2_PLACEMENT_3D('',#919,#920,#921);
#919 = CARTESIAN_POINT('',(80.5,0.,0.));
#920 = DIRECTION('',(1.,0.,0.));
#921 = DIRECTION('',(-0.,1.,0.));
#922 = DEFINITIONAL_REPRESENTATION('',(#923),#927);
#923 = LINE('',#924,#925);
#924 = CARTESIAN_POINT('',(0.,0.));
#925 = VECTOR('',#926,1.);
#926 = DIRECTION('',(1.,0.));
#927 = ( GEOMETRIC_REPRESENTATION_CONTEXT(2) 
PARAMETRIC_REPRESENTATION_CONTEXT() REPRESENTATION_CONTEXT('2D SPACE',''
  ) );
#928 = ORIENTED_EDGE('',*,*,#879,.F.);
#929 = ADVANCED_FACE('',(#930,#984,#1179),#917,.T.);
#930 = FACE_BOUND('',#931,.T.);
#931 = EDGE_LOOP('',(#932,#955,#956,#957));
#932 = ORIENTED_EDGE('',*,*,#933,.F.);
#933 = EDGE_CURVE('',#880,#934,#936,.T.);
#934 = VERTEX_POINT('',#935);
#935 = CARTESIAN_POINT('',(100.,7.,0.));
#936 = SEAM_CURVE('',#937,(#941,#948),.PCURVE_S1.);
#937 = LINE('',#938,#939);
#938 = CARTESIAN_POINT('',(80.5,7.,0.));
#939 = VECTOR('',#940,1.);
#940 = DIRECTION('',(1.,0.,0.));
#941 = PCURVE('',#917,#942);
#942 = DEFINITIONAL_REPRESENTATION('',(#943),#947);
#943 = LINE('',#944,#945);
#944 = CARTESIAN_POINT('',(0.,0.));
#945 = VECTOR('',#946,1.);
#946 = DIRECTION('',(0.,1.));
#947 = ( GEOMETRIC_REPRESENTATION_CONTEXT(2) 
PARAMETRIC_REPRESENTATION_CONTEXT() REPRESENTATION_CONTEXT('2D SPACE',''
  ) );
#948 = PCURVE('',#917,#949);
#949 = DEFINITIONAL_REPRESENTATION('',(#950),#954);
#950 = LINE('',#951,#952);
#951 = CARTESIAN_POINT('',(6.28318530718,0.));
#952 = VECTOR('',#953,1.);
#953 = DIRECTION('',(0.,1.));
#954 = ( GEOMETRIC_REPRESENTATION_CONTEXT(2) 
PARAMETRIC_REPRESENTATION_CONTEXT() REPRESENTATION_CONTEXT('2D SPACE',''
  ) );
#955 = ORIENTED_EDGE('',*,*,#902,.T.);
#956 = ORIENTED_EDGE('',*,*,#933,.T.);
#957 = ORIENTED_EDGE('',*,*,#958,.F.);
#958 = EDGE_CURVE('',#934,#934,#959,.T.);
#959 = SURFACE_CURVE('',#960,(#965,#972),.PCURVE_S1.);
#960 = CIRCLE('',#961,7.);
#961 = AXIS2_PLACEMENT_3D('',#962,#963,#964);
#962 = CARTESIAN_POINT('',(100.,0.,0.));
#963 = DIRECTION('',(1.,0.,0.));
#964 = DIRECTION('',(-0.,1.,0.));
#965 = PCURVE('',#917,#966);
#966 = DEFINITIONAL_REPRESENTATION('',(#967),#971);
#967 = LINE('',#968,#969);
#968 = CARTESIAN_POINT('',(0.,19.5));
#969 = VECTOR('',#970,1.);
#970 = DIRECTION('',(1.,0.));
#971 = ( GEOMETRIC_REPRESENTATION_CONTEXT(2) 
PARAMETRIC_REPRESENTATION_CONTEXT() REPRESENTATION_CONTEXT('2D SPACE',''
  ) );
#972 = PCURVE('',#973,#978);
#973 = PLANE('',#974);
#974 = AXIS2_PLACEMENT_3D('',#975,#976,#977);
#975 = CARTESIAN_POINT('',(100.,0.,0.));
#976 = DIRECTION('',(1.,0.,0.));
#977 = DIRECTION('',(-0.,1.,0.));
#978 = DEFINITIONAL_REPRESENTATION('',(#979),#983);
#979 = CIRCLE('',#980,7.);
#980 = AXIS2_PLACEMENT_2D('',#981,#982);
#981 = CARTESIAN_POINT('',(0.,0.));
#982 = DIRECTION('',(1.,0.));
#983 = ( GEOMETRIC_REPRESENTATION_CONTEXT(2) 
PARAMETRIC_REPRESENTATION_CONTEXT() REPRESENTATION_CONTEXT('2D SPACE',''
  ) );
#984 = FACE_BOUND('',#985,.T.);
#985 = EDGE_LOOP('',(#986));
#986 = ORIENTED_EDGE('',*,*,#987,.F.);
#987 = EDGE_CURVE('',#988,#988,#990,.T.);
#988 = VERTEX_POINT('',#989);
#989 = CARTESIAN_POINT('',(91.5,0.,7.));
#990 = SURFACE_CURVE('',#991,(#1050,#1112),.PCURVE_S1.);
#991 = B_SPLINE_CURVE_WITH_KNOTS('',8,(#992,#993,#994,#995,#996,#997,
    #998,#999,#1000,#1001,#1002,#1003,#1004,#1005,#1006,#1007,#1008,
    #1009,#1010,#1011,#1012,#1013,#1014,#1015,#1016,#1017,#1018,#1019,
    #1020,#1021,#1022,#1023,#1024,#1025,#1026,#1027,#1028,#1029,#1030,
    #1031,#1032,#1033,#1034,#1035,#1036,#1037,#1038,#1039,#1040,#1041,
    #1042,#1043,#1044,#1045,#1046,#1047,#1048,#1049),.UNSPECIFIED.,.T.,
  .F.,(9,7,7,7,7,7,7,7,9),(0.,0.137062147496,0.275536135419,
    0.441731596226,0.588513944893,0.683783157606,0.788569232785,
    0.894844624627,1.),.UNSPECIFIED.);
#992 = CARTESIAN_POINT('',(91.5,0.,7.));
#993 = CARTESIAN_POINT('',(91.5,0.172345862583,7.));
#994 = CARTESIAN_POINT('',(91.477369257038,0.341213158801,6.995150300472
    ));
#995 = CARTESIAN_POINT('',(91.433705375345,0.503237957814,6.985794793294
    ));
#996 = CARTESIAN_POINT('',(91.371126243583,0.655449206282,6.972774141016
    ));
#997 = CARTESIAN_POINT('',(91.292265170244,0.795329883857,6.957302170151
    ));
#998 = CARTESIAN_POINT('',(91.200269301481,0.920924842123,6.94073531151)
  );
#999 = CARTESIAN_POINT('',(91.09879174179,1.030988629478,6.924317090751)
  );
#1000 = CARTESIAN_POINT('',(90.884043489381,1.220314681479,
    6.893484267213));
#1001 = CARTESIAN_POINT('',(90.768507863949,1.301147009046,
    6.878782988385));
#1002 = CARTESIAN_POINT('',(90.647238282875,1.367928934082,
    6.865628469625));
#1003 = CARTESIAN_POINT('',(90.521737191369,1.420963304691,
    6.854587575005));
#1004 = CARTESIAN_POINT('',(90.393246643963,1.460528093995,
    6.846056610055));
#1005 = CARTESIAN_POINT('',(90.262831881707,1.486835601357,6.84028518434
    ));
#1006 = CARTESIAN_POINT('',(90.131447531774,1.5,6.837397165589));
#1007 = CARTESIAN_POINT('',(89.842237640132,1.5,6.837397165589));
#1008 = CARTESIAN_POINT('',(89.684476987567,1.481037521972,
    6.841557046207));
#1009 = CARTESIAN_POINT('',(89.528333918324,1.443110088275,
    6.849878193449));
#1010 = CARTESIAN_POINT('',(89.375522202487,1.385971721351,
    6.862103737888));
#1011 = CARTESIAN_POINT('',(89.227995163103,1.309205166148,
    6.877710469258));
#1012 = CARTESIAN_POINT('',(89.088107155858,1.212284314918,
    6.895850104135));
#1013 = CARTESIAN_POINT('',(88.958851330607,1.094689208057,
    6.915288678158));
#1014 = CARTESIAN_POINT('',(88.742997718935,0.83376701346,6.951265454411
    ));
#1015 = CARTESIAN_POINT('',(88.65007115181,0.69129103374,6.968395616102)
  );
#1016 = CARTESIAN_POINT('',(88.5728712595,0.530896685694,6.984060240625)
  );
#1017 = CARTESIAN_POINT('',(88.516854903814,0.356478728992,
    6.996246296714));
#1018 = CARTESIAN_POINT('',(88.48557106505,0.173156867536,7.003211674018
    ));
#1019 = CARTESIAN_POINT('',(88.480695865081,-1.335511366305E-02,
    7.00417949973));
#1020 = CARTESIAN_POINT('',(88.501981487219,-0.197211450856,
    6.999436373509));
#1021 = CARTESIAN_POINT('',(88.576425862702,-0.48715315036,
    6.983963193507));
#1022 = CARTESIAN_POINT('',(88.615968190533,-0.598630608764,
    6.975878769223));
#1023 = CARTESIAN_POINT('',(88.665472186191,-0.706396292547,
    6.966022555437));
#1024 = CARTESIAN_POINT('',(88.724530349483,-0.809424317139,
    6.954719273896));
#1025 = CARTESIAN_POINT('',(88.792609607795,-0.906740306396,
    6.942379318021));
#1026 = CARTESIAN_POINT('',(88.869055511815,-0.997434617393,
    6.929473114538));
#1027 = CARTESIAN_POINT('',(88.953098754797,-1.080682310417,
    6.916496359815));
#1028 = CARTESIAN_POINT('',(89.143696218751,-1.23835824532,
    6.890100206321));
#1029 = CARTESIAN_POINT('',(89.251719245192,-1.311122953975,
    6.876758458389));
#1030 = CARTESIAN_POINT('',(89.36676752317,-1.373077579933,
    6.864538259313));
#1031 = CARTESIAN_POINT('',(89.487553440509,-1.423437107301,
    6.854053144268));
#1032 = CARTESIAN_POINT('',(89.612706243388,-1.461611103765,
    6.845819491048));
#1033 = CARTESIAN_POINT('',(89.740802786,-1.487200791539,6.840204741618)
  );
#1034 = CARTESIAN_POINT('',(89.870390130897,-1.5,6.837397165589));
#1035 = CARTESIAN_POINT('',(90.131452004496,-1.5,6.837397165589));
#1036 = CARTESIAN_POINT('',(90.262836160948,-1.486834718976,
    6.840285376439));
#1037 = CARTESIAN_POINT('',(90.393248745439,-1.460527024261,
    6.846056847423));
#1038 = CARTESIAN_POINT('',(90.521737096103,-1.420962897994,
    6.854587643238));
#1039 = CARTESIAN_POINT('',(90.647237106809,-1.3679294116,6.86562835281)
  );
#1040 = CARTESIAN_POINT('',(90.768506895743,-1.301147772994,
    6.878782858786));
#1041 = CARTESIAN_POINT('',(90.884043293841,-1.220314853871,
    6.893484239138));
#1042 = CARTESIAN_POINT('',(91.098754905975,-1.031021104618,
    6.92431180199));
#1043 = CARTESIAN_POINT('',(91.200245509486,-0.920960041785,
    6.940730614392));
#1044 = CARTESIAN_POINT('',(91.292270139183,-0.79534028518,
    6.957302229088));
#1045 = CARTESIAN_POINT('',(91.371153352553,-0.655418573372,
    6.972779290466));
#1046 = CARTESIAN_POINT('',(91.43373704508,-0.503167043136,
    6.985801588819));
#1047 = CARTESIAN_POINT('',(91.477388029435,-0.341122367797,
    6.995154321815));
#1048 = CARTESIAN_POINT('',(91.5,-0.172274373265,7.));
#1049 = CARTESIAN_POINT('',(91.5,0.,7.));
#1050 = PCURVE('',#917,#1051);
#1051 = DEFINITIONAL_REPRESENTATION('',(#1052),#1111);
#1052 = B_SPLINE_CURVE_WITH_KNOTS('',8,(#1053,#1054,#1055,#1056,#1057,
    #1058,#1059,#1060,#1061,#1062,#1063,#1064,#1065,#1066,#1067,#1068,
    #1069,#1070,#1071,#1072,#1073,#1074,#1075,#1076,#1077,#1078,#1079,
    #1080,#1081,#1082,#1083,#1084,#1085,#1086,#1087,#1088,#1089,#1090,
    #1091,#1092,#1093,#1094,#1095,#1096,#1097,#1098,#1099,#1100,#1101,
    #1102,#1103,#1104,#1105,#1106,#1107,#1108,#1109,#1110),
  .UNSPECIFIED.,.T.,.F.,(9,7,7,7,7,7,7,7,9),(0.,0.137062147496,
    0.275536135419,0.441731596226,0.588513944893,0.683783157606,
    0.788569232785,0.894844624627,1.),.UNSPECIFIED.);
#1053 = CARTESIAN_POINT('',(1.570796326795,11.));
#1054 = CARTESIAN_POINT('',(1.546175489283,11.));
#1055 = CARTESIAN_POINT('',(1.522051560781,10.977369257038));
#1056 = CARTESIAN_POINT('',(1.498882540888,10.933705375346));
#1057 = CARTESIAN_POINT('',(1.477073481528,10.871126243583));
#1058 = CARTESIAN_POINT('',(1.456978294201,10.792265170244));
#1059 = CARTESIAN_POINT('',(1.438885080204,10.700269301481));
#1060 = CARTESIAN_POINT('',(1.422989151409,10.59879174179));
#1061 = CARTESIAN_POINT('',(1.395586255325,10.384043489381));
#1062 = CARTESIAN_POINT('',(1.383851351769,10.268507863949));
#1063 = CARTESIAN_POINT('',(1.37412908394,10.147238282875));
#1064 = CARTESIAN_POINT('',(1.366390742716,10.021737191369));
#1065 = CARTESIAN_POINT('',(1.360608772413,9.893246643963));
#1066 = CARTESIAN_POINT('',(1.356761180222,9.762831881707));
#1067 = CARTESIAN_POINT('',(1.35483582811,9.631447531774));
#1068 = CARTESIAN_POINT('',(1.35483582811,9.342237640132));
#1069 = CARTESIAN_POINT('',(1.35760917509,9.184476987567));
#1070 = CARTESIAN_POINT('',(1.36315623613,9.028333918324));
#1071 = CARTESIAN_POINT('',(1.371503515979,8.875522202487));
#1072 = CARTESIAN_POINT('',(1.382693195628,8.727995163103));
#1073 = CARTESIAN_POINT('',(1.39677540081,8.588107155858));
#1074 = CARTESIAN_POINT('',(1.41379655046,8.458851330607));
#1075 = CARTESIAN_POINT('',(1.451423809376,8.242997718935));
#1076 = CARTESIAN_POINT('',(1.47192100497,8.15007115181));
#1077 = CARTESIAN_POINT('',(1.494933833921,8.0728712595));
#1078 = CARTESIAN_POINT('',(1.519891229502,8.016854903814));
#1079 = CARTESIAN_POINT('',(1.546071252138,7.98557106505));
#1080 = CARTESIAN_POINT('',(1.572694942886,7.980695865081));
#1081 = CARTESIAN_POINT('',(1.598958904954,8.001981487219));
#1082 = CARTESIAN_POINT('',(1.640438087933,8.076425862702));
#1083 = CARTESIAN_POINT('',(1.656402360724,8.115968190533));
#1084 = CARTESIAN_POINT('',(1.67185723445,8.165472186191));
#1085 = CARTESIAN_POINT('',(1.686659333939,8.224530349483));
#1086 = CARTESIAN_POINT('',(1.700669507975,8.292609607795));
#1087 = CARTESIAN_POINT('',(1.713754390804,8.369055511815));
#1088 = CARTESIAN_POINT('',(1.725789782494,8.453098754797));
#1089 = CARTESIAN_POINT('',(1.748628372003,8.643696218751));
#1090 = CARTESIAN_POINT('',(1.759195318621,8.751719245192));
#1091 = CARTESIAN_POINT('',(1.768215449749,8.86676752317));
#1092 = CARTESIAN_POINT('',(1.775563448971,8.987553440509));
#1093 = CARTESIAN_POINT('',(1.781142216877,9.112706243388));
#1094 = CARTESIAN_POINT('',(1.784884924571,9.240802786));
#1095 = CARTESIAN_POINT('',(1.78675682548,9.370390130897));
#1096 = CARTESIAN_POINT('',(1.78675682548,9.631452004496));
#1097 = CARTESIAN_POINT('',(1.784831344316,9.762836160948));
#1098 = CARTESIAN_POINT('',(1.780983724722,9.893248745439));
#1099 = CARTESIAN_POINT('',(1.775201852004,10.021737096103));
#1100 = CARTESIAN_POINT('',(1.767463639764,10.147237106809));
#1101 = CARTESIAN_POINT('',(1.757741412495,10.268506895743));
#1102 = CARTESIAN_POINT('',(1.746006423216,10.384043293841));
#1103 = CARTESIAN_POINT('',(1.718608202606,10.598754905975));
#1104 = CARTESIAN_POINT('',(1.702712645036,10.700245509486));
#1105 = CARTESIAN_POINT('',(1.684615826608,10.792270139183));
#1106 = CARTESIAN_POINT('',(1.664514746492,10.871153352553));
#1107 = CARTESIAN_POINT('',(1.642699951943,10.93373704508));
#1108 = CARTESIAN_POINT('',(1.619528123054,10.977388029435));
#1109 = CARTESIAN_POINT('',(1.595406951547,11.));
#1110 = CARTESIAN_POINT('',(1.570796326795,11.));
#1111 = ( GEOMETRIC_REPRESENTATION_CONTEXT(2) 
PARAMETRIC_REPRESENTATION_CONTEXT() REPRESENTATION_CONTEXT('2D SPACE',''
  ) );
#1112 = PCURVE('',#1113,#1118);
#1113 = CYLINDRICAL_SURFACE('',#1114,1.5);
#1114 = AXIS2_PLACEMENT_3D('',#1115,#1116,#1117);
#1115 = CARTESIAN_POINT('',(90.,0.,-9.));
#1116 = DIRECTION('',(-0.,-0.,-1.));
#1117 = DIRECTION('',(1.,0.,0.));
#1118 = DEFINITIONAL_REPRESENTATION('',(#1119),#1178);
#1119 = B_SPLINE_CURVE_WITH_KNOTS('',8,(#1120,#1121,#1122,#1123,#1124,
    #1125,#1126,#1127,#1128,#1129,#1130,#1131,#1132,#1133,#1134,#1135,
    #1136,#1137,#1138,#1139,#1140,#1141,#1142,#1143,#1144,#1145,#1146,
    #1147,#1148,#1149,#1150,#1151,#1152,#1153,#1154,#1155,#1156,#1157,
    #1158,#1159,#1160,#1161,#1162,#1163,#1164,#1165,#1166,#1167,#1168,
    #1169,#1170,#1171,#1172,#1173,#1174,#1175,#1176,#1177),
  .UNSPECIFIED.,.F.,.F.,(9,7,7,7,7,7,7,7,9),(0.,0.137062147496,
    0.275536135419,0.441731596226,0.588513944893,0.683783157606,
    0.788569232785,0.894844624627,1.),.UNSPECIFIED.);
#1120 = CARTESIAN_POINT('',(0.,-16.));
#1121 = CARTESIAN_POINT('',(-0.114897241722,-16.));
#1122 = CARTESIAN_POINT('',(-0.227475380722,-15.99515030047));
#1123 = CARTESIAN_POINT('',(-0.33780337713,-15.98579479329));
#1124 = CARTESIAN_POINT('',(-0.445819755639,-15.97277414101));
#1125 = CARTESIAN_POINT('',(-0.551338698853,-15.95730217015));
#1126 = CARTESIAN_POINT('',(-0.654018796272,-15.94073531151));
#1127 = CARTESIAN_POINT('',(-0.75328945977,-15.92431709075));
#1128 = CARTESIAN_POINT('',(-0.944148530384,-15.89348426721));
#1129 = CARTESIAN_POINT('',(-1.037561877218,-15.87878298838));
#1130 = CARTESIAN_POINT('',(-1.128992519389,-15.86562846962));
#1131 = CARTESIAN_POINT('',(-1.218873933389,-15.854587575));
#1132 = CARTESIAN_POINT('',(-1.307606279514,-15.84605661005));
#1133 = CARTESIAN_POINT('',(-1.395575137522,-15.84028518434));
#1134 = CARTESIAN_POINT('',(-1.483164638946,-15.83739716558));
#1135 = CARTESIAN_POINT('',(-1.675971233374,-15.83739716558));
#1136 = CARTESIAN_POINT('',(-1.781144541079,-15.8415570462));
#1137 = CARTESIAN_POINT('',(-1.887014381578,-15.84987819344));
#1138 = CARTESIAN_POINT('',(-1.994205373597,-15.86210373788));
#1139 = CARTESIAN_POINT('',(-2.10337512424,-15.87771046925));
#1140 = CARTESIAN_POINT('',(-2.215229346114,-15.89585010413));
#1141 = CARTESIAN_POINT('',(-2.330562674623,-15.91528867815));
#1142 = CARTESIAN_POINT('',(-2.556318859039,-15.95126545441));
#1143 = CARTESIAN_POINT('',(-2.668994534399,-15.9683956161));
#1144 = CARTESIAN_POINT('',(-2.785998588688,-15.98406024062));
#1145 = CARTESIAN_POINT('',(-2.905802673738,-15.99624629671));
#1146 = CARTESIAN_POINT('',(-3.02732698776,-16.00321167401));
#1147 = CARTESIAN_POINT('',(-3.149653163483,-16.00417949973));
#1148 = CARTESIAN_POINT('',(-3.271902489588,-15.9994363735));
#1149 = CARTESIAN_POINT('',(-3.471466630379,-15.9839631935));
#1150 = CARTESIAN_POINT('',(-3.55000588376,-15.97587876922));
#1151 = CARTESIAN_POINT('',(-3.628538618047,-15.96602255543));
#1152 = CARTESIAN_POINT('',(-3.707072027797,-15.95471927389));
#1153 = CARTESIAN_POINT('',(-3.785612204213,-15.94237931802));
#1154 = CARTESIAN_POINT('',(-3.864159433724,-15.92947311453));
#1155 = CARTESIAN_POINT('',(-3.942706301028,-15.91649635981));
#1156 = CARTESIAN_POINT('',(-4.107615830047,-15.89010020632));
#1157 = CARTESIAN_POINT('',(-4.194025637577,-15.87675845838));
#1158 = CARTESIAN_POINT('',(-4.280433480433,-15.86453825931));
#1159 = CARTESIAN_POINT('',(-4.366827265851,-15.85405314426));
#1160 = CARTESIAN_POINT('',(-4.453209706069,-15.84581949104));
#1161 = CARTESIAN_POINT('',(-4.539591080486,-15.84020474161));
#1162 = CARTESIAN_POINT('',(-4.625982400983,-15.83739716558));
#1163 = CARTESIAN_POINT('',(-4.800023650049,-15.83739716558));
#1164 = CARTESIAN_POINT('',(-4.887613016287,-15.84028537643));
#1165 = CARTESIAN_POINT('',(-4.975580536285,-15.84605684742));
#1166 = CARTESIAN_POINT('',(-5.064311436191,-15.85458764323));
#1167 = CARTESIAN_POINT('',(-5.154191970716,-15.86562835281));
#1168 = CARTESIAN_POINT('',(-5.245622612715,-15.87878285878));
#1169 = CARTESIAN_POINT('',(-5.339036603009,-15.89348423913));
#1170 = CARTESIAN_POINT('',(-5.52986310931,-15.92431180199));
#1171 = CARTESIAN_POINT('',(-5.629139103312,-15.94073061439));
#1172 = CARTESIAN_POINT('',(-5.731843128338,-15.95730222908));
#1173 = CARTESIAN_POINT('',(-5.83739131823,-15.97277929046));
#1174 = CARTESIAN_POINT('',(-5.945432050812,-15.98580158881));
#1175 = CARTESIAN_POINT('',(-6.05577046215,-15.99515432181));
#1176 = CARTESIAN_POINT('',(-6.168335725003,-16.));
#1177 = CARTESIAN_POINT('',(-6.28318530718,-16.));
#1178 = ( GEOMETRIC_REPRESENTATION_CONTEXT(2) 
PARAMETRIC_REPRESENTATION_CONTEXT() REPRESENTATION_CONTEXT('2D SPACE',''
  ) );
#1179 = FACE_BOUND('',#1180,.T.);
#1180 = EDGE_LOOP('',(#1181));
#1181 = ORIENTED_EDGE('',*,*,#1182,.T.);
#1182 = EDGE_CURVE('',#1183,#1183,#1185,.T.);
#1183 = VERTEX_POINT('',#1184);
#1184 = CARTESIAN_POINT('',(91.5,0.,-7.));
#1185 = SURFACE_CURVE('',#1186,(#1245,#1307),.PCURVE_S1.);
#1186 = B_SPLINE_CURVE_WITH_KNOTS('',8,(#1187,#1188,#1189,#1190,#1191,
    #1192,#1193,#1194,#1195,#1196,#1197,#1198,#1199,#1200,#1201,#1202,
    #1203,#1204,#1205,#1206,#1207,#1208,#1209,#1210,#1211,#1212,#1213,
    #1214,#1215,#1216,#1217,#1218,#1219,#1220,#1221,#1222,#1223,#1224,
    #1225,#1226,#1227,#1228,#1229,#1230,#1231,#1232,#1233,#1234,#1235,
    #1236,#1237,#1238,#1239,#1240,#1241,#1242,#1243,#1244),
  .UNSPECIFIED.,.T.,.F.,(9,7,7,7,7,7,7,7,9),(0.,0.137062148391,
    0.275536137219,0.441731599112,0.588513948738,0.683783162073,
    0.788569237936,0.894844628328,1.),.UNSPECIFIED.);
#1187 = CARTESIAN_POINT('',(91.5,-8.881784197001E-16,-7.));
#1188 = CARTESIAN_POINT('',(91.5,0.172345862583,-7.));
#1189 = CARTESIAN_POINT('',(91.477369257038,0.341213158802,
    -6.995150300472));
#1190 = CARTESIAN_POINT('',(91.433705375346,0.503237957814,
    -6.985794793294));
#1191 = CARTESIAN_POINT('',(91.371126243583,0.655449206282,
    -6.972774141016));
#1192 = CARTESIAN_POINT('',(91.292265170244,0.795329883858,
    -6.957302170151));
#1193 = CARTESIAN_POINT('',(91.200269301481,0.920924842123,
    -6.94073531151));
#1194 = CARTESIAN_POINT('',(91.09879174179,1.030988629478,
    -6.924317090751));
#1195 = CARTESIAN_POINT('',(90.884043489381,1.22031468148,
    -6.893484267213));
#1196 = CARTESIAN_POINT('',(90.76850786395,1.301147009046,
    -6.878782988385));
#1197 = CARTESIAN_POINT('',(90.647238282874,1.367928934082,
    -6.865628469625));
#1198 = CARTESIAN_POINT('',(90.521737191369,1.420963304691,
    -6.854587575005));
#1199 = CARTESIAN_POINT('',(90.393246643964,1.460528093994,
    -6.846056610055));
#1200 = CARTESIAN_POINT('',(90.262831881707,1.486835601357,
    -6.84028518434));
#1201 = CARTESIAN_POINT('',(90.131447531774,1.5,-6.837397165589));
#1202 = CARTESIAN_POINT('',(89.842237640132,1.5,-6.837397165589));
#1203 = CARTESIAN_POINT('',(89.684476987567,1.481037521972,
    -6.841557046207));
#1204 = CARTESIAN_POINT('',(89.528333918324,1.443110088275,
    -6.849878193449));
#1205 = CARTESIAN_POINT('',(89.375522202487,1.385971721352,
    -6.862103737888));
#1206 = CARTESIAN_POINT('',(89.227995163103,1.309205166148,
    -6.877710469258));
#1207 = CARTESIAN_POINT('',(89.088107155858,1.212284314918,
    -6.895850104135));
#1208 = CARTESIAN_POINT('',(88.958851330607,1.094689208057,
    -6.915288678158));
#1209 = CARTESIAN_POINT('',(88.742997718935,0.83376701346,
    -6.951265454411));
#1210 = CARTESIAN_POINT('',(88.65007115181,0.69129103374,-6.968395616102
    ));
#1211 = CARTESIAN_POINT('',(88.5728712595,0.530896685695,-6.984060240625
    ));
#1212 = CARTESIAN_POINT('',(88.516854903814,0.35647872899,
    -6.996246296714));
#1213 = CARTESIAN_POINT('',(88.48557106505,0.173156867537,
    -7.003211674018));
#1214 = CARTESIAN_POINT('',(88.480695865081,-1.335511366373E-02,
    -7.00417949973));
#1215 = CARTESIAN_POINT('',(88.501981487219,-0.197211450856,
    -6.999436373509));
#1216 = CARTESIAN_POINT('',(88.576425862702,-0.48715315036,
    -6.983963193507));
#1217 = CARTESIAN_POINT('',(88.615968190533,-0.598630608764,
    -6.975878769223));
#1218 = CARTESIAN_POINT('',(88.665472186191,-0.706396292547,
    -6.966022555437));
#1219 = CARTESIAN_POINT('',(88.724530349483,-0.809424317139,
    -6.954719273896));
#1220 = CARTESIAN_POINT('',(88.792609607795,-0.906740306396,
    -6.942379318021));
#1221 = CARTESIAN_POINT('',(88.869055511815,-0.997434617393,
    -6.929473114538));
#1222 = CARTESIAN_POINT('',(88.953098754797,-1.080682310417,
    -6.916496359815));
#1223 = CARTESIAN_POINT('',(89.143696218751,-1.23835824532,
    -6.890100206321));
#1224 = CARTESIAN_POINT('',(89.251719245192,-1.311122953975,
    -6.876758458389));
#1225 = CARTESIAN_POINT('',(89.36676752317,-1.373077579933,
    -6.864538259313));
#1226 = CARTESIAN_POINT('',(89.487553440509,-1.423437107301,
    -6.854053144268));
#1227 = CARTESIAN_POINT('',(89.612706243388,-1.461611103765,
    -6.845819491048));
#1228 = CARTESIAN_POINT('',(89.740802786,-1.487200791539,-6.840204741618
    ));
#1229 = CARTESIAN_POINT('',(89.870390130897,-1.5,-6.837397165589));
#1230 = CARTESIAN_POINT('',(90.131452001843,-1.5,-6.837397165589));
#1231 = CARTESIAN_POINT('',(90.262836165793,-1.486834719539,
    -6.840285376363));
#1232 = CARTESIAN_POINT('',(90.393248744809,-1.460527022294,
    -6.846056847734));
#1233 = CARTESIAN_POINT('',(90.521737092075,-1.4209628996,
    -6.854587642962));
#1234 = CARTESIAN_POINT('',(90.64723710742,-1.367929413553,
    -6.865628352496));
#1235 = CARTESIAN_POINT('',(90.768506899509,-1.301147768975,
    -6.87878285945));
#1236 = CARTESIAN_POINT('',(90.884043291516,-1.220314855921,
    -6.893484238804));
#1237 = CARTESIAN_POINT('',(91.098754905975,-1.031021104618,
    -6.92431180199));
#1238 = CARTESIAN_POINT('',(91.200245509486,-0.920960041784,
    -6.940730614392));
#1239 = CARTESIAN_POINT('',(91.292270139183,-0.79534028518,
    -6.957302229088));
#1240 = CARTESIAN_POINT('',(91.371153352553,-0.655418573372,
    -6.972779290466));
#1241 = CARTESIAN_POINT('',(91.43373704508,-0.503167043136,
    -6.985801588819));
#1242 = CARTESIAN_POINT('',(91.477388029435,-0.341122367797,
    -6.995154321815));
#1243 = CARTESIAN_POINT('',(91.5,-0.172274373264,-7.));
#1244 = CARTESIAN_POINT('',(91.5,-8.881784197001E-16,-7.));
#1245 = PCURVE('',#917,#1246);
#1246 = DEFINITIONAL_REPRESENTATION('',(#1247),#1306);
#1247 = B_SPLINE_CURVE_WITH_KNOTS('',8,(#1248,#1249,#1250,#1251,#1252,
    #1253,#1254,#1255,#1256,#1257,#1258,#1259,#1260,#1261,#1262,#1263,
    #1264,#1265,#1266,#1267,#1268,#1269,#1270,#1271,#1272,#1273,#1274,
    #1275,#1276,#1277,#1278,#1279,#1280,#1281,#1282,#1283,#1284,#1285,
    #1286,#1287,#1288,#1289,#1290,#1291,#1292,#1293,#1294,#1295,#1296,
    #1297,#1298,#1299,#1300,#1301,#1302,#1303,#1304,#1305),
  .UNSPECIFIED.,.T.,.F.,(9,7,7,7,7,7,7,7,9),(0.,0.137062148391,
    0.275536137219,0.441731599112,0.588513948738,0.683783162073,
    0.788569237936,0.894844628328,1.),.UNSPECIFIED.);
#1248 = CARTESIAN_POINT('',(4.712388980385,11.));
#1249 = CARTESIAN_POINT('',(4.737009817896,11.));
#1250 = CARTESIAN_POINT('',(4.761133746399,10.977369257038));
#1251 = CARTESIAN_POINT('',(4.784302766291,10.933705375346));
#1252 = CARTESIAN_POINT('',(4.806111825652,10.871126243583));
#1253 = CARTESIAN_POINT('',(4.826207012978,10.792265170244));
#1254 = CARTESIAN_POINT('',(4.844300226975,10.700269301481));
#1255 = CARTESIAN_POINT('',(4.860196155771,10.59879174179));
#1256 = CARTESIAN_POINT('',(4.887599051854,10.384043489381));
#1257 = CARTESIAN_POINT('',(4.899333955411,10.26850786395));
#1258 = CARTESIAN_POINT('',(4.909056223239,10.147238282874));
#1259 = CARTESIAN_POINT('',(4.916794564463,10.021737191369));
#1260 = CARTESIAN_POINT('',(4.922576534767,9.893246643964));
#1261 = CARTESIAN_POINT('',(4.926424126958,9.762831881707));
#1262 = CARTESIAN_POINT('',(4.92834947907,9.631447531774));
#1263 = CARTESIAN_POINT('',(4.92834947907,9.342237640132));
#1264 = CARTESIAN_POINT('',(4.925576132089,9.184476987567));
#1265 = CARTESIAN_POINT('',(4.920029071049,9.028333918324));
#1266 = CARTESIAN_POINT('',(4.9116817912,8.875522202487));
#1267 = CARTESIAN_POINT('',(4.900492111551,8.727995163103));
#1268 = CARTESIAN_POINT('',(4.88640990637,8.588107155858));
#1269 = CARTESIAN_POINT('',(4.86938875672,8.458851330607));
#1270 = CARTESIAN_POINT('',(4.831761497804,8.242997718935));
#1271 = CARTESIAN_POINT('',(4.81126430221,8.15007115181));
#1272 = CARTESIAN_POINT('',(4.788251473259,8.0728712595));
#1273 = CARTESIAN_POINT('',(4.763294077677,8.016854903814));
#1274 = CARTESIAN_POINT('',(4.737114055042,7.98557106505));
#1275 = CARTESIAN_POINT('',(4.710490364294,7.980695865081));
#1276 = CARTESIAN_POINT('',(4.684226402226,8.001981487219));
#1277 = CARTESIAN_POINT('',(4.642747219246,8.076425862702));
#1278 = CARTESIAN_POINT('',(4.626782946456,8.115968190533));
#1279 = CARTESIAN_POINT('',(4.61132807273,8.165472186191));
#1280 = CARTESIAN_POINT('',(4.59652597324,8.224530349483));
#1281 = CARTESIAN_POINT('',(4.582515799205,8.292609607795));
#1282 = CARTESIAN_POINT('',(4.569430916376,8.369055511815));
#1283 = CARTESIAN_POINT('',(4.557395524686,8.453098754797));
#1284 = CARTESIAN_POINT('',(4.534556935177,8.643696218751));
#1285 = CARTESIAN_POINT('',(4.523989988558,8.751719245192));
#1286 = CARTESIAN_POINT('',(4.51496985743,8.86676752317));
#1287 = CARTESIAN_POINT('',(4.507621858209,8.987553440509));
#1288 = CARTESIAN_POINT('',(4.502043090303,9.112706243388));
#1289 = CARTESIAN_POINT('',(4.498300382608,9.240802786));
#1290 = CARTESIAN_POINT('',(4.4964284817,9.370390130897));
#1291 = CARTESIAN_POINT('',(4.4964284817,9.631452001843));
#1292 = CARTESIAN_POINT('',(4.498353962782,9.762836165793));
#1293 = CARTESIAN_POINT('',(4.502201582742,9.893248744809));
#1294 = CARTESIAN_POINT('',(4.507983454943,10.021737092075));
#1295 = CARTESIAN_POINT('',(4.515721667133,10.14723710742));
#1296 = CARTESIAN_POINT('',(4.525443895267,10.268506899509));
#1297 = CARTESIAN_POINT('',(4.537178883667,10.384043291516));
#1298 = CARTESIAN_POINT('',(4.564577104574,10.598754905975));
#1299 = CARTESIAN_POINT('',(4.580472662144,10.700245509486));
#1300 = CARTESIAN_POINT('',(4.598569480571,10.792270139183));
#1301 = CARTESIAN_POINT('',(4.618670560688,10.871153352553));
#1302 = CARTESIAN_POINT('',(4.640485355237,10.93373704508));
#1303 = CARTESIAN_POINT('',(4.663657184125,10.977388029435));
#1304 = CARTESIAN_POINT('',(4.687778355633,11.));
#1305 = CARTESIAN_POINT('',(4.712388980385,11.));
#1306 = ( GEOMETRIC_REPRESENTATION_CONTEXT(2) 
PARAMETRIC_REPRESENTATION_CONTEXT() REPRESENTATION_CONTEXT('2D SPACE',''
  ) );
#1307 = PCURVE('',#1113,#1308);
#1308 = DEFINITIONAL_REPRESENTATION('',(#1309),#1368);
#1309 = B_SPLINE_CURVE_WITH_KNOTS('',8,(#1310,#1311,#1312,#1313,#1314,
    #1315,#1316,#1317,#1318,#1319,#1320,#1321,#1322,#1323,#1324,#1325,
    #1326,#1327,#1328,#1329,#1330,#1331,#1332,#1333,#1334,#1335,#1336,
    #1337,#1338,#1339,#1340,#1341,#1342,#1343,#1344,#1345,#1346,#1347,
    #1348,#1349,#1350,#1351,#1352,#1353,#1354,#1355,#1356,#1357,#1358,
    #1359,#1360,#1361,#1362,#1363,#1364,#1365,#1366,#1367),
  .UNSPECIFIED.,.F.,.F.,(9,7,7,7,7,7,7,7,9),(0.,0.137062148391,
    0.275536137219,0.441731599112,0.588513948738,0.683783162073,
    0.788569237936,0.894844628328,1.),.UNSPECIFIED.);
#1310 = CARTESIAN_POINT('',(0.,-2.));
#1311 = CARTESIAN_POINT('',(-0.114897241722,-2.));
#1312 = CARTESIAN_POINT('',(-0.227475380722,-2.004849699528));
#1313 = CARTESIAN_POINT('',(-0.33780337713,-2.014205206706));
#1314 = CARTESIAN_POINT('',(-0.445819755639,-2.027225858984));
#1315 = CARTESIAN_POINT('',(-0.551338698854,-2.042697829849));
#1316 = CARTESIAN_POINT('',(-0.654018796272,-2.05926468849));
#1317 = CARTESIAN_POINT('',(-0.753289459771,-2.075682909249));
#1318 = CARTESIAN_POINT('',(-0.944148530384,-2.106515732787));
#1319 = CARTESIAN_POINT('',(-1.037561877217,-2.121217011615));
#1320 = CARTESIAN_POINT('',(-1.128992519389,-2.134371530375));
#1321 = CARTESIAN_POINT('',(-1.218873933389,-2.145412424995));
#1322 = CARTESIAN_POINT('',(-1.307606279514,-2.153943389945));
#1323 = CARTESIAN_POINT('',(-1.395575137522,-2.15971481566));
#1324 = CARTESIAN_POINT('',(-1.483164638946,-2.162602834411));
#1325 = CARTESIAN_POINT('',(-1.675971233374,-2.162602834411));
#1326 = CARTESIAN_POINT('',(-1.781144541079,-2.158442953793));
#1327 = CARTESIAN_POINT('',(-1.887014381578,-2.150121806551));
#1328 = CARTESIAN_POINT('',(-1.994205373597,-2.137896262112));
#1329 = CARTESIAN_POINT('',(-2.10337512424,-2.122289530742));
#1330 = CARTESIAN_POINT('',(-2.215229346114,-2.104149895865));
#1331 = CARTESIAN_POINT('',(-2.330562674623,-2.084711321842));
#1332 = CARTESIAN_POINT('',(-2.556318859039,-2.048734545589));
#1333 = CARTESIAN_POINT('',(-2.668994534398,-2.031604383898));
#1334 = CARTESIAN_POINT('',(-2.785998588689,-2.015939759375));
#1335 = CARTESIAN_POINT('',(-2.905802673738,-2.003753703286));
#1336 = CARTESIAN_POINT('',(-3.02732698776,-1.996788325982));
#1337 = CARTESIAN_POINT('',(-3.149653163483,-1.99582050027));
#1338 = CARTESIAN_POINT('',(-3.271902489588,-2.000563626491));
#1339 = CARTESIAN_POINT('',(-3.471466630379,-2.016036806493));
#1340 = CARTESIAN_POINT('',(-3.55000588376,-2.024121230777));
#1341 = CARTESIAN_POINT('',(-3.628538618047,-2.033977444563));
#1342 = CARTESIAN_POINT('',(-3.707072027797,-2.045280726104));
#1343 = CARTESIAN_POINT('',(-3.785612204213,-2.057620681979));
#1344 = CARTESIAN_POINT('',(-3.864159433724,-2.070526885462));
#1345 = CARTESIAN_POINT('',(-3.942706301028,-2.083503640185));
#1346 = CARTESIAN_POINT('',(-4.107615830047,-2.109899793679));
#1347 = CARTESIAN_POINT('',(-4.194025637577,-2.123241541611));
#1348 = CARTESIAN_POINT('',(-4.280433480433,-2.135461740687));
#1349 = CARTESIAN_POINT('',(-4.366827265851,-2.145946855732));
#1350 = CARTESIAN_POINT('',(-4.453209706069,-2.154180508952));
#1351 = CARTESIAN_POINT('',(-4.539591080485,-2.159795258382));
#1352 = CARTESIAN_POINT('',(-4.625982400983,-2.162602834411));
#1353 = CARTESIAN_POINT('',(-4.80002364828,-2.162602834411));
#1354 = CARTESIAN_POINT('',(-4.887613019328,-2.159714623637));
#1355 = CARTESIAN_POINT('',(-4.975580536385,-2.153943152266));
#1356 = CARTESIAN_POINT('',(-5.064311433147,-2.145412357038));
#1357 = CARTESIAN_POINT('',(-5.154191970625,-2.134371647504));
#1358 = CARTESIAN_POINT('',(-5.245622616206,-2.12121714055));
#1359 = CARTESIAN_POINT('',(-5.339036600942,-2.106515761196));
#1360 = CARTESIAN_POINT('',(-5.52986310931,-2.07568819801));
#1361 = CARTESIAN_POINT('',(-5.629139103313,-2.059269385608));
#1362 = CARTESIAN_POINT('',(-5.731843128338,-2.042697770912));
#1363 = CARTESIAN_POINT('',(-5.83739131823,-2.027220709534));
#1364 = CARTESIAN_POINT('',(-5.945432050812,-2.014198411181));
#1365 = CARTESIAN_POINT('',(-6.05577046215,-2.004845678185));
#1366 = CARTESIAN_POINT('',(-6.168335725003,-2.));
#1367 = CARTESIAN_POINT('',(-6.28318530718,-2.));
#1368 = ( GEOMETRIC_REPRESENTATION_CONTEXT(2) 
PARAMETRIC_REPRESENTATION_CONTEXT() REPRESENTATION_CONTEXT('2D SPACE',''
  ) );
#1369 = ADVANCED_FACE('',(#1370,#1373),#973,.T.);
#1370 = FACE_BOUND('',#1371,.T.);
#1371 = EDGE_LOOP('',(#1372));
#1372 = ORIENTED_EDGE('',*,*,#958,.T.);
#1373 = FACE_BOUND('',#1374,.T.);
#1374 = EDGE_LOOP('',(#1375));
#1375 = ORIENTED_EDGE('',*,*,#1376,.F.);
#1376 = EDGE_CURVE('',#1377,#1377,#1379,.T.);
#1377 = VERTEX_POINT('',#1378);
#1378 = CARTESIAN_POINT('',(100.,5.06,0.));
#1379 = SURFACE_CURVE('',#1380,(#1385,#1392),.PCURVE_S1.);
#1380 = CIRCLE('',#1381,5.06);
#1381 = AXIS2_PLACEMENT_3D('',#1382,#1383,#1384);
#1382 = CARTESIAN_POINT('',(100.,0.,0.));
#1383 = DIRECTION('',(1.,0.,0.));
#1384 = DIRECTION('',(-0.,1.,0.));
#1385 = PCURVE('',#973,#1386);
#1386 = DEFINITIONAL_REPRESENTATION('',(#1387),#1391);
#1387 = CIRCLE('',#1388,5.06);
#1388 = AXIS2_PLACEMENT_2D('',#1389,#1390);
#1389 = CARTESIAN_POINT('',(0.,0.));
#1390 = DIRECTION('',(1.,0.));
#1391 = ( GEOMETRIC_REPRESENTATION_CONTEXT(2) 
PARAMETRIC_REPRESENTATION_CONTEXT() REPRESENTATION_CONTEXT('2D SPACE',''
  ) );
#1392 = PCURVE('',#1393,#1398);
#1393 = CYLINDRICAL_SURFACE('',#1394,5.06);
#1394 = AXIS2_PLACEMENT_3D('',#1395,#1396,#1397);
#1395 = CARTESIAN_POINT('',(100.,0.,0.));
#1396 = DIRECTION('',(1.,0.,0.));
#1397 = DIRECTION('',(-0.,1.,0.));
#1398 = DEFINITIONAL_REPRESENTATION('',(#1399),#1403);
#1399 = LINE('',#1400,#1401);
#1400 = CARTESIAN_POINT('',(0.,0.));
#1401 = VECTOR('',#1402,1.);
#1402 = DIRECTION('',(1.,0.));
#1403 = ( GEOMETRIC_REPRESENTATION_CONTEXT(2) 
PARAMETRIC_REPRESENTATION_CONTEXT() REPRESENTATION_CONTEXT('2D SPACE',''
  ) );
#1404 = ADVANCED_FACE('',(#1405),#1113,.F.);
#1405 = FACE_BOUND('',#1406,.T.);
#1406 = EDGE_LOOP('',(#1407,#1408,#1429,#1430));
#1407 = ORIENTED_EDGE('',*,*,#1182,.F.);
#1408 = ORIENTED_EDGE('',*,*,#1409,.T.);
#1409 = EDGE_CURVE('',#1183,#988,#1410,.T.);
#1410 = SEAM_CURVE('',#1411,(#1415,#1422),.PCURVE_S1.);
#1411 = LINE('',#1412,#1413);
#1412 = CARTESIAN_POINT('',(91.5,0.,-9.));
#1413 = VECTOR('',#1414,1.);
#1414 = DIRECTION('',(0.,0.,1.));
#1415 = PCURVE('',#1113,#1416);
#1416 = DEFINITIONAL_REPRESENTATION('',(#1417),#1421);
#1417 = LINE('',#1418,#1419);
#1418 = CARTESIAN_POINT('',(-6.28318530718,0.));
#1419 = VECTOR('',#1420,1.);
#1420 = DIRECTION('',(-0.,-1.));
#1421 = ( GEOMETRIC_REPRESENTATION_CONTEXT(2) 
PARAMETRIC_REPRESENTATION_CONTEXT() REPRESENTATION_CONTEXT('2D SPACE',''
  ) );
#1422 = PCURVE('',#1113,#1423);
#1423 = DEFINITIONAL_REPRESENTATION('',(#1424),#1428);
#1424 = LINE('',#1425,#1426);
#1425 = CARTESIAN_POINT('',(-0.,0.));
#1426 = VECTOR('',#1427,1.);
#1427 = DIRECTION('',(-0.,-1.));
#1428 = ( GEOMETRIC_REPRESENTATION_CONTEXT(2) 
PARAMETRIC_REPRESENTATION_CONTEXT() REPRESENTATION_CONTEXT('2D SPACE',''
  ) );
#1429 = ORIENTED_EDGE('',*,*,#987,.T.);
#1430 = ORIENTED_EDGE('',*,*,#1409,.F.);
#1431 = ADVANCED_FACE('',(#1432),#1393,.T.);
#1432 = FACE_BOUND('',#1433,.T.);
#1433 = EDGE_LOOP('',(#1434,#1435,#1458,#1485));
#1434 = ORIENTED_EDGE('',*,*,#1376,.T.);
#1435 = ORIENTED_EDGE('',*,*,#1436,.T.);
#1436 = EDGE_CURVE('',#1377,#1437,#1439,.T.);
#1437 = VERTEX_POINT('',#1438);
#1438 = CARTESIAN_POINT('',(103.75,5.06,0.));
#1439 = SEAM_CURVE('',#1440,(#1444,#1451),.PCURVE_S1.);
#1440 = LINE('',#1441,#1442);
#1441 = CARTESIAN_POINT('',(100.,5.06,0.));
#1442 = VECTOR('',#1443,1.);
#1443 = DIRECTION('',(1.,0.,0.));
#1444 = PCURVE('',#1393,#1445);
#1445 = DEFINITIONAL_REPRESENTATION('',(#1446),#1450);
#1446 = LINE('',#1447,#1448);
#1447 = CARTESIAN_POINT('',(0.,0.));
#1448 = VECTOR('',#1449,1.);
#1449 = DIRECTION('',(0.,1.));
#1450 = ( GEOMETRIC_REPRESENTATION_CONTEXT(2) 
PARAMETRIC_REPRESENTATION_CONTEXT() REPRESENTATION_CONTEXT('2D SPACE',''
  ) );
#1451 = PCURVE('',#1393,#1452);
#1452 = DEFINITIONAL_REPRESENTATION('',(#1453),#1457);
#1453 = LINE('',#1454,#1455);
#1454 = CARTESIAN_POINT('',(6.28318530718,0.));
#1455 = VECTOR('',#1456,1.);
#1456 = DIRECTION('',(0.,1.));
#1457 = ( GEOMETRIC_REPRESENTATION_CONTEXT(2) 
PARAMETRIC_REPRESENTATION_CONTEXT() REPRESENTATION_CONTEXT('2D SPACE',''
  ) );
#1458 = ORIENTED_EDGE('',*,*,#1459,.F.);
#1459 = EDGE_CURVE('',#1437,#1437,#1460,.T.);
#1460 = SURFACE_CURVE('',#1461,(#1466,#1473),.PCURVE_S1.);
#1461 = CIRCLE('',#1462,5.06);
#1462 = AXIS2_PLACEMENT_3D('',#1463,#1464,#1465);
#1463 = CARTESIAN_POINT('',(103.75,0.,0.));
#1464 = DIRECTION('',(1.,0.,0.));
#1465 = DIRECTION('',(-0.,1.,0.));
#1466 = PCURVE('',#1393,#1467);
#1467 = DEFINITIONAL_REPRESENTATION('',(#1468),#1472);
#1468 = LINE('',#1469,#1470);
#1469 = CARTESIAN_POINT('',(0.,3.75));
#1470 = VECTOR('',#1471,1.);
#1471 = DIRECTION('',(1.,0.));
#1472 = ( GEOMETRIC_REPRESENTATION_CONTEXT(2) 
PARAMETRIC_REPRESENTATION_CONTEXT() REPRESENTATION_CONTEXT('2D SPACE',''
  ) );
#1473 = PCURVE('',#1474,#1479);
#1474 = PLANE('',#1475);
#1475 = AXIS2_PLACEMENT_3D('',#1476,#1477,#1478);
#1476 = CARTESIAN_POINT('',(103.75,0.,0.));
#1477 = DIRECTION('',(1.,0.,0.));
#1478 = DIRECTION('',(-0.,1.,0.));
#1479 = DEFINITIONAL_REPRESENTATION('',(#1480),#1484);
#1480 = CIRCLE('',#1481,5.06);
#1481 = AXIS2_PLACEMENT_2D('',#1482,#1483);
#1482 = CARTESIAN_POINT('',(0.,0.));
#1483 = DIRECTION('',(1.,-0.));
#1484 = ( GEOMETRIC_REPRESENTATION_CONTEXT(2) 
PARAMETRIC_REPRESENTATION_CONTEXT() REPRESENTATION_CONTEXT('2D SPACE',''
  ) );
#1485 = ORIENTED_EDGE('',*,*,#1436,.F.);
#1486 = ADVANCED_FACE('',(#1487,#1490),#1474,.F.);
#1487 = FACE_BOUND('',#1488,.T.);
#1488 = EDGE_LOOP('',(#1489));
#1489 = ORIENTED_EDGE('',*,*,#1459,.T.);
#1490 = FACE_BOUND('',#1491,.T.);
#1491 = EDGE_LOOP('',(#1492));
#1492 = ORIENTED_EDGE('',*,*,#1493,.F.);
#1493 = EDGE_CURVE('',#1494,#1494,#1496,.T.);
#1494 = VERTEX_POINT('',#1495);
#1495 = CARTESIAN_POINT('',(103.75,6.,0.));
#1496 = SURFACE_CURVE('',#1497,(#1502,#1509),.PCURVE_S1.);
#1497 = CIRCLE('',#1498,6.);
#1498 = AXIS2_PLACEMENT_3D('',#1499,#1500,#1501);
#1499 = CARTESIAN_POINT('',(103.75,0.,0.));
#1500 = DIRECTION('',(1.,0.,0.));
#1501 = DIRECTION('',(-0.,1.,0.));
#1502 = PCURVE('',#1474,#1503);
#1503 = DEFINITIONAL_REPRESENTATION('',(#1504),#1508);
#1504 = CIRCLE('',#1505,6.);
#1505 = AXIS2_PLACEMENT_2D('',#1506,#1507);
#1506 = CARTESIAN_POINT('',(0.,0.));
#1507 = DIRECTION('',(1.,-0.));
#1508 = ( GEOMETRIC_REPRESENTATION_CONTEXT(2) 
PARAMETRIC_REPRESENTATION_CONTEXT() REPRESENTATION_CONTEXT('2D SPACE',''
  ) );
#1509 = PCURVE('',#1510,#1515);
#1510 = CYLINDRICAL_SURFACE('',#1511,6.);
#1511 = AXIS2_PLACEMENT_3D('',#1512,#1513,#1514);
#1512 = CARTESIAN_POINT('',(103.75,0.,0.));
#1513 = DIRECTION('',(1.,0.,0.));
#1514 = DIRECTION('',(-0.,1.,0.));
#1515 = DEFINITIONAL_REPRESENTATION('',(#1516),#1520);
#1516 = LINE('',#1517,#1518);
#1517 = CARTESIAN_POINT('',(0.,0.));
#1518 = VECTOR('',#1519,1.);
#1519 = DIRECTION('',(1.,0.));
#1520 = ( GEOMETRIC_REPRESENTATION_CONTEXT(2) 
PARAMETRIC_REPRESENTATION_CONTEXT() REPRESENTATION_CONTEXT('2D SPACE',''
  ) );
#1521 = ADVANCED_FACE('',(#1522),#1510,.T.);
#1522 = FACE_BOUND('',#1523,.T.);
#1523 = EDGE_LOOP('',(#1524,#1525,#1548,#1575));
#1524 = ORIENTED_EDGE('',*,*,#1493,.T.);
#1525 = ORIENTED_EDGE('',*,*,#1526,.T.);
#1526 = EDGE_CURVE('',#1494,#1527,#1529,.T.);
#1527 = VERTEX_POINT('',#1528);
#1528 = CARTESIAN_POINT('',(116.5,6.,0.));
#1529 = SEAM_CURVE('',#1530,(#1534,#1541),.PCURVE_S1.);
#1530 = LINE('',#1531,#1532);
#1531 = CARTESIAN_POINT('',(103.75,6.,0.));
#1532 = VECTOR('',#1533,1.);
#1533 = DIRECTION('',(1.,0.,0.));
#1534 = PCURVE('',#1510,#1535);
#1535 = DEFINITIONAL_REPRESENTATION('',(#1536),#1540);
#1536 = LINE('',#1537,#1538);
#1537 = CARTESIAN_POINT('',(0.,0.));
#1538 = VECTOR('',#1539,1.);
#1539 = DIRECTION('',(0.,1.));
#1540 = ( GEOMETRIC_REPRESENTATION_CONTEXT(2) 
PARAMETRIC_REPRESENTATION_CONTEXT() REPRESENTATION_CONTEXT('2D SPACE',''
  ) );
#1541 = PCURVE('',#1510,#1542);
#1542 = DEFINITIONAL_REPRESENTATION('',(#1543),#1547);
#1543 = LINE('',#1544,#1545);
#1544 = CARTESIAN_POINT('',(6.28318530718,0.));
#1545 = VECTOR('',#1546,1.);
#1546 = DIRECTION('',(0.,1.));
#1547 = ( GEOMETRIC_REPRESENTATION_CONTEXT(2) 
PARAMETRIC_REPRESENTATION_CONTEXT() REPRESENTATION_CONTEXT('2D SPACE',''
  ) );
#1548 = ORIENTED_EDGE('',*,*,#1549,.F.);
#1549 = EDGE_CURVE('',#1527,#1527,#1550,.T.);
#1550 = SURFACE_CURVE('',#1551,(#1556,#1563),.PCURVE_S1.);
#1551 = CIRCLE('',#1552,6.);
#1552 = AXIS2_PLACEMENT_3D('',#1553,#1554,#1555);
#1553 = CARTESIAN_POINT('',(116.5,0.,0.));
#1554 = DIRECTION('',(1.,0.,0.));
#1555 = DIRECTION('',(-0.,1.,0.));
#1556 = PCURVE('',#1510,#1557);
#1557 = DEFINITIONAL_REPRESENTATION('',(#1558),#1562);
#1558 = LINE('',#1559,#1560);
#1559 = CARTESIAN_POINT('',(0.,12.75));
#1560 = VECTOR('',#1561,1.);
#1561 = DIRECTION('',(1.,0.));
#1562 = ( GEOMETRIC_REPRESENTATION_CONTEXT(2) 
PARAMETRIC_REPRESENTATION_CONTEXT() REPRESENTATION_CONTEXT('2D SPACE',''
  ) );
#1563 = PCURVE('',#1564,#1569);
#1564 = CONICAL_SURFACE('',#1565,6.,0.785398163397);
#1565 = AXIS2_PLACEMENT_3D('',#1566,#1567,#1568);
#1566 = CARTESIAN_POINT('',(116.5,0.,0.));
#1567 = DIRECTION('',(-1.,-0.,-0.));
#1568 = DIRECTION('',(-0.,1.,0.));
#1569 = DEFINITIONAL_REPRESENTATION('',(#1570),#1574);
#1570 = LINE('',#1571,#1572);
#1571 = CARTESIAN_POINT('',(-0.,-0.));
#1572 = VECTOR('',#1573,1.);
#1573 = DIRECTION('',(-1.,-0.));
#1574 = ( GEOMETRIC_REPRESENTATION_CONTEXT(2) 
PARAMETRIC_REPRESENTATION_CONTEXT() REPRESENTATION_CONTEXT('2D SPACE',''
  ) );
#1575 = ORIENTED_EDGE('',*,*,#1526,.F.);
#1576 = ADVANCED_FACE('',(#1577),#1564,.T.);
#1577 = FACE_BOUND('',#1578,.T.);
#1578 = EDGE_LOOP('',(#1579,#1580,#1603,#1630));
#1579 = ORIENTED_EDGE('',*,*,#1549,.T.);
#1580 = ORIENTED_EDGE('',*,*,#1581,.T.);
#1581 = EDGE_CURVE('',#1527,#1582,#1584,.T.);
#1582 = VERTEX_POINT('',#1583);
#1583 = CARTESIAN_POINT('',(118.,4.5,0.));
#1584 = SEAM_CURVE('',#1585,(#1589,#1596),.PCURVE_S1.);
#1585 = LINE('',#1586,#1587);
#1586 = CARTESIAN_POINT('',(116.5,6.,0.));
#1587 = VECTOR('',#1588,1.);
#1588 = DIRECTION('',(0.707106781187,-0.707106781187,0.));
#1589 = PCURVE('',#1564,#1590);
#1590 = DEFINITIONAL_REPRESENTATION('',(#1591),#1595);
#1591 = LINE('',#1592,#1593);
#1592 = CARTESIAN_POINT('',(-0.,-0.));
#1593 = VECTOR('',#1594,1.);
#1594 = DIRECTION('',(-0.,-1.));
#1595 = ( GEOMETRIC_REPRESENTATION_CONTEXT(2) 
PARAMETRIC_REPRESENTATION_CONTEXT() REPRESENTATION_CONTEXT('2D SPACE',''
  ) );
#1596 = PCURVE('',#1564,#1597);
#1597 = DEFINITIONAL_REPRESENTATION('',(#1598),#1602);
#1598 = LINE('',#1599,#1600);
#1599 = CARTESIAN_POINT('',(-6.28318530718,-0.));
#1600 = VECTOR('',#1601,1.);
#1601 = DIRECTION('',(-0.,-1.));
#1602 = ( GEOMETRIC_REPRESENTATION_CONTEXT(2) 
PARAMETRIC_REPRESENTATION_CONTEXT() REPRESENTATION_CONTEXT('2D SPACE',''
  ) );
#1603 = ORIENTED_EDGE('',*,*,#1604,.F.);
#1604 = EDGE_CURVE('',#1582,#1582,#1605,.T.);
#1605 = SURFACE_CURVE('',#1606,(#1611,#1618),.PCURVE_S1.);
#1606 = CIRCLE('',#1607,4.5);
#1607 = AXIS2_PLACEMENT_3D('',#1608,#1609,#1610);
#1608 = CARTESIAN_POINT('',(118.,0.,0.));
#1609 = DIRECTION('',(1.,0.,0.));
#1610 = DIRECTION('',(-0.,1.,0.));
#1611 = PCURVE('',#1564,#1612);
#1612 = DEFINITIONAL_REPRESENTATION('',(#1613),#1617);
#1613 = LINE('',#1614,#1615);
#1614 = CARTESIAN_POINT('',(-0.,-1.5));
#1615 = VECTOR('',#1616,1.);
#1616 = DIRECTION('',(-1.,-0.));
#1617 = ( GEOMETRIC_REPRESENTATION_CONTEXT(2) 
PARAMETRIC_REPRESENTATION_CONTEXT() REPRESENTATION_CONTEXT('2D SPACE',''
  ) );
#1618 = PCURVE('',#1619,#1624);
#1619 = PLANE('',#1620);
#1620 = AXIS2_PLACEMENT_3D('',#1621,#1622,#1623);
#1621 = CARTESIAN_POINT('',(118.,0.,0.));
#1622 = DIRECTION('',(1.,0.,0.));
#1623 = DIRECTION('',(-0.,1.,0.));
#1624 = DEFINITIONAL_REPRESENTATION('',(#1625),#1629);
#1625 = CIRCLE('',#1626,4.5);
#1626 = AXIS2_PLACEMENT_2D('',#1627,#1628);
#1627 = CARTESIAN_POINT('',(0.,0.));
#1628 = DIRECTION('',(1.,0.));
#1629 = ( GEOMETRIC_REPRESENTATION_CONTEXT(2) 
PARAMETRIC_REPRESENTATION_CONTEXT() REPRESENTATION_CONTEXT('2D SPACE',''
  ) );
#1630 = ORIENTED_EDGE('',*,*,#1581,.F.);
#1631 = ADVANCED_FACE('',(#1632),#1619,.T.);
#1632 = FACE_BOUND('',#1633,.T.);
#1633 = EDGE_LOOP('',(#1634));
#1634 = ORIENTED_EDGE('',*,*,#1604,.T.);
#1635 = ( GEOMETRIC_REPRESENTATION_CONTEXT(3) 
GLOBAL_UNCERTAINTY_ASSIGNED_CONTEXT((#1639)) 
GLOBAL_UNIT_ASSIGNED_CONTEXT((#1636,#1637,#1638)) REPRESENTATION_CONTEXT
('Context #1','3D Context with UNIT and UNCERTAINTY') );
#1636 = ( LENGTH_UNIT() NAMED_UNIT(*) SI_UNIT(.MILLI.,.METRE.) );
#1637 = ( NAMED_UNIT(*) PLANE_ANGLE_UNIT() SI_UNIT($,.RADIAN.) );
#1638 = ( NAMED_UNIT(*) SI_UNIT($,.STERADIAN.) SOLID_ANGLE_UNIT() );
#1639 = UNCERTAINTY_MEASURE_WITH_UNIT(LENGTH_MEASURE(1.E-07),#1636,
  'distance_accuracy_value','confusion accuracy');
#1640 = PRODUCT_RELATED_PRODUCT_CATEGORY('part',$,(#7));
ENDSEC;
END-ISO-10303-21;
