0
SECTION
2
HEADER
9
$ACADVER
1
AC1009
9
$INSUNITS
70
4
0
ENDSEC
0
SECTION
2
TABLES
0
TABLE
2
LTYPE
70
3
0
LTYPE
2
CONTINUOUS
70
0
3
Solid line
72
65
73
0
40
0
0
LTYPE
2
DASHED
70
0
3
Dashed __ __ __
72
65
73
2
40
4.5
49
3
49
-1.5
0
LTYPE
2
CENTER
70
0
3
Center ____ _ ____
72
65
73
4
40
11.5
49
8
49
-1.5
49
0.5
49
-1.5
0
ENDTAB
0
TABLE
2
LAYER
70
9
0
LAYER
2
OUTLINE
70
0
62
7
6
CONTINUOUS
0
LAYER
2
HIDDEN
70
0
62
8
6
DASHED
0
LAYER
2
CENTER
70
0
62
1
6
CENTER
0
LAYER
2
THIN
70
0
62
7
6
CONTINUOUS
0
LAYER
2
DIM
70
0
62
3
6
CONTINUOUS
0
LAYER
2
HATCH
70
0
62
8
6
CONTINUOUS
0
LAYER
2
FRAME
70
0
62
7
6
CONTINUOUS
0
LAYER
2
TEXT
70
0
62
7
6
CONTINUOUS
0
LAYER
2
CUT
70
0
62
5
6
DASHED
0
ENDTAB
0
ENDSEC
0
SECTION
2
ENTITIES
0
LINE
8
OUTLINE
10
142.11
20
134.74
30
0
11
148.71
21
128.74
31
0
0
LINE
8
OUTLINE
10
148.71
20
128.74
30
0
11
186.71
21
128.74
31
0
0
LINE
8
OUTLINE
10
186.71
20
128.74
30
0
11
188.71
21
126.74
31
0
0
LINE
8
OUTLINE
10
142.11
20
110.74
30
0
11
148.71
21
116.74
31
0
0
LINE
8
OUTLINE
10
148.71
20
116.74
30
0
11
186.71
21
116.74
31
0
0
LINE
8
OUTLINE
10
186.71
20
116.74
30
0
11
188.71
21
118.74
31
0
0
LINE
8
OUTLINE
10
142.11
20
110.74
30
0
11
142.11
21
134.74
31
0
0
LINE
8
OUTLINE
10
188.71
20
118.74
30
0
11
188.71
21
126.74
31
0
0
LINE
8
OUTLINE
10
186.71
20
116.74
30
0
11
186.71
21
128.74
31
0
0
LINE
8
OUTLINE
10
186.71
20
116.74
30
0
11
186.71
21
128.74
31
0
0
LINE
8
CENTER
10
134.11
20
122.74
30
0
11
196.71
21
122.74
31
0
0
LINE
8
THIN
10
148.71
20
127.513
30
0
11
186.71
21
127.513
31
0
0
LINE
8
THIN
10
148.71
20
117.967
30
0
11
186.71
21
117.967
31
0
0
LINE
8
HIDDEN
10
142.11
20
126.74
30
0
11
146.11
21
126.74
31
0
0
LINE
8
HIDDEN
10
142.11
20
118.74
30
0
11
146.11
21
118.74
31
0
0
LINE
8
HIDDEN
10
146.11
20
118.74
30
0
11
146.11
21
126.74
31
0
0
LINE
8
DIM
10
142.11
20
109.74
30
0
11
142.11
21
93.74
31
0
0
LINE
8
DIM
10
148.71
20
109.74
30
0
11
148.71
21
93.74
31
0
0
LINE
8
DIM
10
135.51
20
95.74
30
0
11
155.31
21
95.74
31
0
0
SOLID
8
DIM
10
142.11
20
95.74
30
0
11
139.11
21
95.23
31
0
12
139.11
22
96.25
32
0
13
139.11
23
96.25
33
0
0
SOLID
8
DIM
10
148.71
20
95.74
30
0
11
151.71
21
96.25
31
0
12
151.71
22
95.23
32
0
13
151.71
23
95.23
33
0
0
TEXT
8
TEXT
10
158.36
20
97.54
30
0
40
3.5
1
3.3
50
0
72
1
11
158.36
21
97.54
31
0
0
LINE
8
DIM
10
148.71
20
115.74
30
0
11
148.71
21
93.74
31
0
0
LINE
8
DIM
10
188.71
20
115.74
30
0
11
188.71
21
93.74
31
0
0
LINE
8
DIM
10
148.71
20
95.74
30
0
11
188.71
21
95.74
31
0
0
SOLID
8
DIM
10
148.71
20
95.74
30
0
11
151.71
21
96.25
31
0
12
151.71
22
95.23
32
0
13
151.71
23
95.23
33
0
0
SOLID
8
DIM
10
188.71
20
95.74
30
0
11
185.71
21
95.23
31
0
12
185.71
22
96.25
32
0
13
185.71
23
96.25
33
0
0
TEXT
8
TEXT
10
168.71
20
97.54
30
0
40
3.5
1
20
50
0
72
1
11
168.71
21
97.54
31
0
0
LINE
8
DIM
10
142.11
20
109.74
30
0
11
142.11
21
84.74
31
0
0
LINE
8
DIM
10
188.71
20
109.74
30
0
11
188.71
21
84.74
31
0
0
LINE
8
DIM
10
142.11
20
86.74
30
0
11
188.71
21
86.74
31
0
0
SOLID
8
DIM
10
142.11
20
86.74
30
0
11
145.11
21
87.25
31
0
12
145.11
22
86.23
32
0
13
145.11
23
86.23
33
0
0
SOLID
8
DIM
10
188.71
20
86.74
30
0
11
185.71
21
86.23
31
0
12
185.71
22
87.25
32
0
13
185.71
23
87.25
33
0
0
TEXT
8
TEXT
10
165.41
20
88.54
30
0
40
3.5
1
23.3
50
0
72
1
11
165.41
21
88.54
31
0
0
LINE
8
DIM
10
143.562
20
112.06
30
0
11
143.562
21
143.42
31
0
0
SOLID
8
DIM
10
143.562
20
112.06
30
0
11
143.052
21
115.06
31
0
12
144.072
22
115.06
32
0
13
144.072
23
115.06
33
0
0
SOLID
8
DIM
10
143.562
20
133.42
30
0
11
144.072
21
130.42
31
0
12
143.052
22
130.42
32
0
13
143.052
23
130.42
33
0
0
TEXT
8
TEXT
10
143.562
20
145.02
30
0
40
3.5
1
%%c12
50
0
72
1
11
143.562
21
145.02
31
0
0
LINE
8
DIM
10
147.258
20
115.42
30
0
11
147.258
21
140.06
31
0
0
SOLID
8
DIM
10
147.258
20
115.42
30
0
11
146.748
21
118.42
31
0
12
147.768
22
118.42
32
0
13
147.768
23
118.42
33
0
0
SOLID
8
DIM
10
147.258
20
130.06
30
0
11
147.768
21
127.06
31
0
12
146.748
22
127.06
32
0
13
146.748
23
127.06
33
0
0
LINE
8
DIM
10
147.258
20
140.06
30
0
11
147.258
21
150.86
31
0
0
TEXT
8
TEXT
10
147.258
20
151.46
30
0
40
3.5
1
%%c6
50
0
72
1
11
147.258
21
151.46
31
0
0
LINE
8
DIM
10
168.71
20
128.74
30
0
11
174.71
21
137.74
31
0
0
LINE
8
DIM
10
174.71
20
137.74
30
0
11
181.05
21
137.74
31
0
0
SOLID
8
DIM
10
168.71
20
128.74
30
0
11
167.47
21
125.961
31
0
12
166.622
22
126.527
32
0
13
166.622
23
126.527
33
0
0
TEXT
8
TEXT
10
175.71
20
139.14
30
0
40
3.5
1
M6
50
0
72
0
11
175.71
21
139.14
31
0
0
LINE
8
DIM
10
187.71
20
127.74
30
0
11
193.71
21
135.74
31
0
0
LINE
8
DIM
10
193.71
20
135.74
30
0
11
200.05
21
135.74
31
0
0
SOLID
8
DIM
10
187.71
20
127.74
30
0
11
186.318
21
125.034
31
0
12
185.502
22
125.646
32
0
13
185.502
23
125.646
33
0
0
TEXT
8
TEXT
10
194.71
20
137.14
30
0
40
3.5
1
C1
50
0
72
0
11
194.71
21
137.14
31
0
0
LINE
8
DIM
10
144.11
20
126.74
30
0
11
138.11
21
148.74
31
0
0
LINE
8
DIM
10
138.11
20
148.74
30
0
11
114.36
21
148.74
31
0
0
SOLID
8
DIM
10
144.11
20
126.74
30
0
11
145.391
21
123.98
31
0
12
144.407
22
123.712
32
0
13
144.407
23
123.712
33
0
0
TEXT
8
TEXT
10
137.11
20
150.14
30
0
40
2.5
1
육각 소켓 S4 깊이 2
50
0
72
2
11
137.11
21
150.14
31
0
0
LINE
8
FRAME
10
10
20
10
30
0
11
287
21
10
31
0
0
LINE
8
FRAME
10
287
20
10
30
0
11
287
21
200
31
0
0
LINE
8
FRAME
10
287
20
200
30
0
11
10
21
200
31
0
0
LINE
8
FRAME
10
10
20
200
30
0
11
10
21
10
31
0
0
LINE
8
FRAME
10
177
20
10
30
0
11
287
21
10
31
0
0
LINE
8
FRAME
10
287
20
10
30
0
11
287
21
34
31
0
0
LINE
8
FRAME
10
287
20
34
30
0
11
177
21
34
31
0
0
LINE
8
FRAME
10
177
20
34
30
0
11
177
21
10
31
0
0
LINE
8
FRAME
10
177
20
18
30
0
11
287
21
18
31
0
0
LINE
8
FRAME
10
177
20
26
30
0
11
287
21
26
31
0
0
LINE
8
FRAME
10
232
20
10
30
0
11
232
21
26
31
0
0
LINE
8
FRAME
10
255
20
26
30
0
11
255
21
34
31
0
0
TEXT
8
TEXT
10
179
20
28.5
30
0
40
4.2
1
VRINGON
72
0
11
179
21
28.5
31
0
0
TEXT
8
TEXT
10
257
20
28.5
30
0
40
2.5
1
도번 VR-RB-016
72
0
11
257
21
28.5
31
0
0
TEXT
8
TEXT
10
179
20
20.5
30
0
40
2.8
1
품명 접시머리 나사 M6×20
72
0
11
179
21
20.5
31
0
0
TEXT
8
TEXT
10
234
20
20.5
30
0
40
2.8
1
재질 SUS304
72
0
11
234
21
20.5
31
0
0
TEXT
8
TEXT
10
179
20
12.5
30
0
40
2.5
1
척도 2:1
72
0
11
179
21
12.5
31
0
0
TEXT
8
TEXT
10
234
20
12.5
30
0
40
2.5
1
3각법 · 단위 mm
72
0
11
234
21
12.5
31
0
0
CIRCLE
8
FRAME
10
269
20
16.5
30
0
40
2.4
0
CIRCLE
8
FRAME
10
269
20
16.5
30
0
40
1.2
0
LINE
8
FRAME
10
274.5
20
13.9
30
0
11
281
21
15.1
31
0
0
LINE
8
FRAME
10
281
20
15.1
30
0
11
281
21
17.9
31
0
0
LINE
8
FRAME
10
281
20
17.9
30
0
11
274.5
21
19.1
31
0
0
LINE
8
FRAME
10
274.5
20
19.1
30
0
11
274.5
21
13.9
31
0
0
TEXT
8
TEXT
10
14
20
18.2
30
0
40
2.6
1
1. 지시 없는 모따기 C0.5
72
0
11
14
21
18.2
31
0
0
TEXT
8
TEXT
10
14
20
14
30
0
40
2.6
1
2. 지시 없는 공차 KS B ISO 2768-m
72
0
11
14
21
14
31
0
0
ENDSEC
0
EOF
