0
SECTION
2
HEADER
9
$ACADVER
1
AC1009
9
$INSUNITS
70
4
0
ENDSEC
0
SECTION
2
TABLES
0
TABLE
2
LTYPE
70
3
0
LTYPE
2
CONTINUOUS
70
0
3
Solid line
72
65
73
0
40
0
0
LTYPE
2
DASHED
70
0
3
Dashed __ __ __
72
65
73
2
40
4.5
49
3
49
-1.5
0
LTYPE
2
CENTER
70
0
3
Center ____ _ ____
72
65
73
4
40
11.5
49
8
49
-1.5
49
0.5
49
-1.5
0
ENDTAB
0
TABLE
2
LAYER
70
9
0
LAYER
2
OUTLINE
70
0
62
7
6
CONTINUOUS
0
LAYER
2
HIDDEN
70
0
62
8
6
DASHED
0
LAYER
2
CENTER
70
0
62
1
6
CENTER
0
LAYER
2
THIN
70
0
62
7
6
CONTINUOUS
0
LAYER
2
DIM
70
0
62
3
6
CONTINUOUS
0
LAYER
2
HATCH
70
0
62
8
6
CONTINUOUS
0
LAYER
2
FRAME
70
0
62
7
6
CONTINUOUS
0
LAYER
2
TEXT
70
0
62
7
6
CONTINUOUS
0
LAYER
2
CUT
70
0
62
5
6
DASHED
0
ENDTAB
0
ENDSEC
0
SECTION
2
ENTITIES
0
LINE
8
OUTLINE
10
95.805
20
137.8
30
0
11
96.805
21
138.8
31
0
0
LINE
8
OUTLINE
10
96.805
20
138.8
30
0
11
101.805
21
138.8
31
0
0
LINE
8
OUTLINE
10
101.805
20
138.8
30
0
11
101.805
21
134.8
31
0
0
LINE
8
OUTLINE
10
101.805
20
134.8
30
0
11
195.805
21
134.8
31
0
0
LINE
8
OUTLINE
10
195.805
20
134.8
30
0
11
197.805
21
132.8
31
0
0
LINE
8
OUTLINE
10
95.805
20
107.8
30
0
11
96.805
21
106.8
31
0
0
LINE
8
OUTLINE
10
96.805
20
106.8
30
0
11
101.805
21
106.8
31
0
0
LINE
8
OUTLINE
10
101.805
20
106.8
30
0
11
101.805
21
110.8
31
0
0
LINE
8
OUTLINE
10
101.805
20
110.8
30
0
11
195.805
21
110.8
31
0
0
LINE
8
OUTLINE
10
195.805
20
110.8
30
0
11
197.805
21
112.8
31
0
0
LINE
8
OUTLINE
10
95.805
20
107.8
30
0
11
95.805
21
137.8
31
0
0
LINE
8
OUTLINE
10
197.805
20
112.8
30
0
11
197.805
21
132.8
31
0
0
LINE
8
OUTLINE
10
96.805
20
106.8
30
0
11
96.805
21
138.8
31
0
0
LINE
8
OUTLINE
10
96.805
20
106.8
30
0
11
96.805
21
138.8
31
0
0
LINE
8
OUTLINE
10
101.805
20
110.8
30
0
11
101.805
21
134.8
31
0
0
LINE
8
OUTLINE
10
195.805
20
110.8
30
0
11
195.805
21
134.8
31
0
0
LINE
8
OUTLINE
10
195.805
20
110.8
30
0
11
195.805
21
134.8
31
0
0
LINE
8
CENTER
10
87.805
20
122.8
30
0
11
205.805
21
122.8
31
0
0
CIRCLE
8
OUTLINE
10
183.805
20
122.8
30
0
40
3.2
0
LINE
8
CENTER
10
178.605
20
122.8
30
0
11
189.005
21
122.8
31
0
0
LINE
8
CENTER
10
183.805
20
117.6
30
0
11
183.805
21
128
31
0
0
LINE
8
DIM
10
95.805
20
105.8
30
0
11
95.805
21
89.8
31
0
0
LINE
8
DIM
10
101.805
20
105.8
30
0
11
101.805
21
89.8
31
0
0
LINE
8
DIM
10
89.205
20
91.8
30
0
11
108.405
21
91.8
31
0
0
SOLID
8
DIM
10
95.805
20
91.8
30
0
11
92.805
21
91.29
31
0
12
92.805
22
92.31
32
0
13
92.805
23
92.31
33
0
0
SOLID
8
DIM
10
101.805
20
91.8
30
0
11
104.805
21
92.31
31
0
12
104.805
22
91.29
32
0
13
104.805
23
91.29
33
0
0
TEXT
8
TEXT
10
109.985
20
93.6
30
0
40
3.5
1
3
50
0
72
1
11
109.985
21
93.6
31
0
0
LINE
8
DIM
10
95.805
20
105.8
30
0
11
95.805
21
80.8
31
0
0
LINE
8
DIM
10
197.805
20
105.8
30
0
11
197.805
21
80.8
31
0
0
LINE
8
DIM
10
95.805
20
82.8
30
0
11
197.805
21
82.8
31
0
0
SOLID
8
DIM
10
95.805
20
82.8
30
0
11
98.805
21
83.31
31
0
12
98.805
22
82.29
32
0
13
98.805
23
82.29
33
0
0
SOLID
8
DIM
10
197.805
20
82.8
30
0
11
194.805
21
82.29
31
0
12
194.805
22
83.31
32
0
13
194.805
23
83.31
33
0
0
TEXT
8
TEXT
10
146.805
20
84.6
30
0
40
3.5
1
51
50
0
72
1
11
146.805
21
84.6
31
0
0
LINE
8
DIM
10
98.805
20
106.8
30
0
11
98.805
21
148.8
31
0
0
SOLID
8
DIM
10
98.805
20
106.8
30
0
11
98.295
21
109.8
31
0
12
99.315
22
109.8
32
0
13
99.315
23
109.8
33
0
0
SOLID
8
DIM
10
98.805
20
138.8
30
0
11
99.315
21
135.8
31
0
12
98.295
22
135.8
32
0
13
98.295
23
135.8
33
0
0
TEXT
8
TEXT
10
98.805
20
150.4
30
0
40
3.5
1
%%c16
50
0
72
1
11
98.805
21
150.4
31
0
0
LINE
8
DIM
10
149.805
20
110.8
30
0
11
149.805
21
144.8
31
0
0
SOLID
8
DIM
10
149.805
20
110.8
30
0
11
149.295
21
113.8
31
0
12
150.315
22
113.8
32
0
13
150.315
23
113.8
33
0
0
SOLID
8
DIM
10
149.805
20
134.8
30
0
11
150.315
21
131.8
31
0
12
149.295
22
131.8
32
0
13
149.295
23
131.8
33
0
0
TEXT
8
TEXT
10
149.805
20
146.4
30
0
40
3.5
1
%%c12 h11
50
0
72
1
11
149.805
21
146.4
31
0
0
LINE
8
DIM
10
96.305
20
138.3
30
0
11
90.305
21
146.3
31
0
0
LINE
8
DIM
10
90.305
20
146.3
30
0
11
81.025
21
146.3
31
0
0
SOLID
8
DIM
10
96.305
20
138.3
30
0
11
98.513
21
136.206
31
0
12
97.697
22
135.594
32
0
13
97.697
23
135.594
33
0
0
TEXT
8
TEXT
10
89.305
20
147.7
30
0
40
3.5
1
C0.5
50
0
72
2
11
89.305
21
147.7
31
0
0
LINE
8
DIM
10
196.805
20
133.8
30
0
11
202.805
21
141.8
31
0
0
LINE
8
DIM
10
202.805
20
141.8
30
0
11
209.145
21
141.8
31
0
0
SOLID
8
DIM
10
196.805
20
133.8
30
0
11
195.413
21
131.094
31
0
12
194.597
22
131.706
32
0
13
194.597
23
131.706
33
0
0
TEXT
8
TEXT
10
203.805
20
143.2
30
0
40
3.5
1
C1
50
0
72
0
11
203.805
21
143.2
31
0
0
LINE
8
DIM
10
186.045
20
125.04
30
0
11
190.805
21
145.8
31
0
0
LINE
8
DIM
10
190.805
20
145.8
30
0
11
208.03
21
145.8
31
0
0
SOLID
8
DIM
10
186.045
20
125.04
30
0
11
185.872
21
122.002
31
0
12
184.877
22
122.23
32
0
13
184.877
23
122.23
33
0
0
TEXT
8
TEXT
10
191.805
20
147.2
30
0
40
3.5
1
%%c3.2 관통
50
0
72
0
11
191.805
21
147.2
31
0
0
LINE
8
DIM
10
197.805
20
135.8
30
0
11
197.805
21
145.8
31
0
0
LINE
8
DIM
10
183.805
20
135.8
30
0
11
183.805
21
145.8
31
0
0
LINE
8
DIM
10
183.805
20
143.8
30
0
11
197.805
21
143.8
31
0
0
SOLID
8
DIM
10
183.805
20
143.8
30
0
11
186.805
21
144.31
31
0
12
186.805
22
143.29
32
0
13
186.805
23
143.29
33
0
0
SOLID
8
DIM
10
197.805
20
143.8
30
0
11
194.805
21
143.29
31
0
12
194.805
22
144.31
32
0
13
194.805
23
144.31
33
0
0
TEXT
8
TEXT
10
190.805
20
155.4
30
0
40
3.5
1
7
50
0
72
1
11
190.805
21
155.4
31
0
0
LINE
8
FRAME
10
10
20
10
30
0
11
287
21
10
31
0
0
LINE
8
FRAME
10
287
20
10
30
0
11
287
21
200
31
0
0
LINE
8
FRAME
10
287
20
200
30
0
11
10
21
200
31
0
0
LINE
8
FRAME
10
10
20
200
30
0
11
10
21
10
31
0
0
LINE
8
FRAME
10
177
20
10
30
0
11
287
21
10
31
0
0
LINE
8
FRAME
10
287
20
10
30
0
11
287
21
34
31
0
0
LINE
8
FRAME
10
287
20
34
30
0
11
177
21
34
31
0
0
LINE
8
FRAME
10
177
20
34
30
0
11
177
21
10
31
0
0
LINE
8
FRAME
10
177
20
18
30
0
11
287
21
18
31
0
0
LINE
8
FRAME
10
177
20
26
30
0
11
287
21
26
31
0
0
LINE
8
FRAME
10
232
20
10
30
0
11
232
21
26
31
0
0
LINE
8
FRAME
10
255
20
26
30
0
11
255
21
34
31
0
0
TEXT
8
TEXT
10
179
20
28.5
30
0
40
4.2
1
VRINGON
72
0
11
179
21
28.5
31
0
0
TEXT
8
TEXT
10
257
20
28.5
30
0
40
2.5
1
도번 VR-RB-002
72
0
11
257
21
28.5
31
0
0
TEXT
8
TEXT
10
179
20
20.5
30
0
40
2.8
1
품명 클레비스 핀
72
0
11
179
21
20.5
31
0
0
TEXT
8
TEXT
10
234
20
20.5
30
0
40
2.8
1
재질 S45C
72
0
11
234
21
20.5
31
0
0
TEXT
8
TEXT
10
179
20
12.5
30
0
40
2.5
1
척도 2:1
72
0
11
179
21
12.5
31
0
0
TEXT
8
TEXT
10
234
20
12.5
30
0
40
2.5
1
3각법 · 단위 mm
72
0
11
234
21
12.5
31
0
0
CIRCLE
8
FRAME
10
269
20
16.5
30
0
40
2.4
0
CIRCLE
8
FRAME
10
269
20
16.5
30
0
40
1.2
0
LINE
8
FRAME
10
274.5
20
13.9
30
0
11
281
21
15.1
31
0
0
LINE
8
FRAME
10
281
20
15.1
30
0
11
281
21
17.9
31
0
0
LINE
8
FRAME
10
281
20
17.9
30
0
11
274.5
21
19.1
31
0
0
LINE
8
FRAME
10
274.5
20
19.1
30
0
11
274.5
21
13.9
31
0
0
TEXT
8
TEXT
10
14
20
18.2
30
0
40
2.6
1
1. 지시 없는 모따기 C0.5
72
0
11
14
21
18.2
31
0
0
TEXT
8
TEXT
10
14
20
14
30
0
40
2.6
1
2. 지시 없는 공차 KS B ISO 2768-m
72
0
11
14
21
14
31
0
0
ENDSEC
0
EOF
