ISO-10303-21;
HEADER;
FILE_DESCRIPTION(('Open CASCADE Model'),'2;1');
FILE_NAME('Open CASCADE Shape Model','2026-08-16T09:22:56',('Author'),(
    'Open CASCADE'),'Open CASCADE STEP processor 7.9','Open CASCADE 7.9'
  ,'Unknown');
FILE_SCHEMA(('AUTOMOTIVE_DESIGN { 1 0 10303 214 1 1 1 1 }'));
ENDSEC;
DATA;
#1 = APPLICATION_PROTOCOL_DEFINITION('international standard',
  'automotive_design',2000,#2);
#2 = APPLICATION_CONTEXT(
  'core data for automotive mechanical design processes');
#3 = SHAPE_DEFINITION_REPRESENTATION(#4,#10);
#4 = PRODUCT_DEFINITION_SHAPE('','',#5);
#5 = PRODUCT_DEFINITION('design','',#6,#9);
#6 = PRODUCT_DEFINITION_FORMATION('','',#7);
#7 = PRODUCT('Open CASCADE STEP translator 7.9 2',
  'Open CASCADE STEP translator 7.9 2','',(#8));
#8 = PRODUCT_CONTEXT('',#2,'mechanical');
#9 = PRODUCT_DEFINITION_CONTEXT('part definition',#2,'design');
#10 = ADVANCED_BREP_SHAPE_REPRESENTATION('',(#11,#15),#725);
#11 = AXIS2_PLACEMENT_3D('',#12,#13,#14);
#12 = CARTESIAN_POINT('',(0.,0.,0.));
#13 = DIRECTION('',(0.,0.,1.));
#14 = DIRECTION('',(1.,0.,-0.));
#15 = MANIFOLD_SOLID_BREP('',#16);
#16 = CLOSED_SHELL('',(#17,#105,#109,#164,#199,#639,#694,#721));
#17 = ADVANCED_FACE('',(#18),#31,.T.);
#18 = FACE_BOUND('',#19,.T.);
#19 = EDGE_LOOP('',(#20,#54,#77,#104));
#20 = ORIENTED_EDGE('',*,*,#21,.T.);
#21 = EDGE_CURVE('',#22,#22,#24,.T.);
#22 = VERTEX_POINT('',#23);
#23 = CARTESIAN_POINT('',(0.,7.5,0.));
#24 = SURFACE_CURVE('',#25,(#30,#42),.PCURVE_S1.);
#25 = CIRCLE('',#26,7.5);
#26 = AXIS2_PLACEMENT_3D('',#27,#28,#29);
#27 = CARTESIAN_POINT('',(0.,0.,0.));
#28 = DIRECTION('',(1.,0.,0.));
#29 = DIRECTION('',(-0.,1.,0.));
#30 = PCURVE('',#31,#36);
#31 = CONICAL_SURFACE('',#32,7.5,0.785398163397);
#32 = AXIS2_PLACEMENT_3D('',#33,#34,#35);
#33 = CARTESIAN_POINT('',(0.,0.,0.));
#34 = DIRECTION('',(1.,0.,0.));
#35 = DIRECTION('',(-0.,1.,0.));
#36 = DEFINITIONAL_REPRESENTATION('',(#37),#41);
#37 = LINE('',#38,#39);
#38 = CARTESIAN_POINT('',(0.,0.));
#39 = VECTOR('',#40,1.);
#40 = DIRECTION('',(1.,0.));
#41 = ( GEOMETRIC_REPRESENTATION_CONTEXT(2) 
PARAMETRIC_REPRESENTATION_CONTEXT() REPRESENTATION_CONTEXT('2D SPACE',''
  ) );
#42 = PCURVE('',#43,#48);
#43 = PLANE('',#44);
#44 = AXIS2_PLACEMENT_3D('',#45,#46,#47);
#45 = CARTESIAN_POINT('',(0.,0.,0.));
#46 = DIRECTION('',(1.,0.,0.));
#47 = DIRECTION('',(-0.,1.,0.));
#48 = DEFINITIONAL_REPRESENTATION('',(#49),#53);
#49 = CIRCLE('',#50,7.5);
#50 = AXIS2_PLACEMENT_2D('',#51,#52);
#51 = CARTESIAN_POINT('',(0.,0.));
#52 = DIRECTION('',(1.,-0.));
#53 = ( GEOMETRIC_REPRESENTATION_CONTEXT(2) 
PARAMETRIC_REPRESENTATION_CONTEXT() REPRESENTATION_CONTEXT('2D SPACE',''
  ) );
#54 = ORIENTED_EDGE('',*,*,#55,.T.);
#55 = EDGE_CURVE('',#22,#56,#58,.T.);
#56 = VERTEX_POINT('',#57);
#57 = CARTESIAN_POINT('',(0.5,8.,0.));
#58 = SEAM_CURVE('',#59,(#63,#70),.PCURVE_S1.);
#59 = LINE('',#60,#61);
#60 = CARTESIAN_POINT('',(0.,7.5,0.));
#61 = VECTOR('',#62,1.);
#62 = DIRECTION('',(0.707106781187,0.707106781187,0.));
#63 = PCURVE('',#31,#64);
#64 = DEFINITIONAL_REPRESENTATION('',(#65),#69);
#65 = LINE('',#66,#67);
#66 = CARTESIAN_POINT('',(0.,0.));
#67 = VECTOR('',#68,1.);
#68 = DIRECTION('',(0.,1.));
#69 = ( GEOMETRIC_REPRESENTATION_CONTEXT(2) 
PARAMETRIC_REPRESENTATION_CONTEXT() REPRESENTATION_CONTEXT('2D SPACE',''
  ) );
#70 = PCURVE('',#31,#71);
#71 = DEFINITIONAL_REPRESENTATION('',(#72),#76);
#72 = LINE('',#73,#74);
#73 = CARTESIAN_POINT('',(6.28318530718,0.));
#74 = VECTOR('',#75,1.);
#75 = DIRECTION('',(0.,1.));
#76 = ( GEOMETRIC_REPRESENTATION_CONTEXT(2) 
PARAMETRIC_REPRESENTATION_CONTEXT() REPRESENTATION_CONTEXT('2D SPACE',''
  ) );
#77 = ORIENTED_EDGE('',*,*,#78,.F.);
#78 = EDGE_CURVE('',#56,#56,#79,.T.);
#79 = SURFACE_CURVE('',#80,(#85,#92),.PCURVE_S1.);
#80 = CIRCLE('',#81,8.);
#81 = AXIS2_PLACEMENT_3D('',#82,#83,#84);
#82 = CARTESIAN_POINT('',(0.5,0.,0.));
#83 = DIRECTION('',(1.,0.,0.));
#84 = DIRECTION('',(-0.,1.,0.));
#85 = PCURVE('',#31,#86);
#86 = DEFINITIONAL_REPRESENTATION('',(#87),#91);
#87 = LINE('',#88,#89);
#88 = CARTESIAN_POINT('',(0.,0.5));
#89 = VECTOR('',#90,1.);
#90 = DIRECTION('',(1.,0.));
#91 = ( GEOMETRIC_REPRESENTATION_CONTEXT(2) 
PARAMETRIC_REPRESENTATION_CONTEXT() REPRESENTATION_CONTEXT('2D SPACE',''
  ) );
#92 = PCURVE('',#93,#98);
#93 = CYLINDRICAL_SURFACE('',#94,8.);
#94 = AXIS2_PLACEMENT_3D('',#95,#96,#97);
#95 = CARTESIAN_POINT('',(0.5,0.,0.));
#96 = DIRECTION('',(1.,0.,0.));
#97 = DIRECTION('',(-0.,1.,0.));
#98 = DEFINITIONAL_REPRESENTATION('',(#99),#103);
#99 = LINE('',#100,#101);
#100 = CARTESIAN_POINT('',(0.,0.));
#101 = VECTOR('',#102,1.);
#102 = DIRECTION('',(1.,0.));
#103 = ( GEOMETRIC_REPRESENTATION_CONTEXT(2) 
PARAMETRIC_REPRESENTATION_CONTEXT() REPRESENTATION_CONTEXT('2D SPACE',''
  ) );
#104 = ORIENTED_EDGE('',*,*,#55,.F.);
#105 = ADVANCED_FACE('',(#106),#43,.F.);
#106 = FACE_BOUND('',#107,.T.);
#107 = EDGE_LOOP('',(#108));
#108 = ORIENTED_EDGE('',*,*,#21,.F.);
#109 = ADVANCED_FACE('',(#110),#93,.T.);
#110 = FACE_BOUND('',#111,.T.);
#111 = EDGE_LOOP('',(#112,#113,#136,#163));
#112 = ORIENTED_EDGE('',*,*,#78,.T.);
#113 = ORIENTED_EDGE('',*,*,#114,.T.);
#114 = EDGE_CURVE('',#56,#115,#117,.T.);
#115 = VERTEX_POINT('',#116);
#116 = CARTESIAN_POINT('',(3.,8.,0.));
#117 = SEAM_CURVE('',#118,(#122,#129),.PCURVE_S1.);
#118 = LINE('',#119,#120);
#119 = CARTESIAN_POINT('',(0.5,8.,0.));
#120 = VECTOR('',#121,1.);
#121 = DIRECTION('',(1.,0.,0.));
#122 = PCURVE('',#93,#123);
#123 = DEFINITIONAL_REPRESENTATION('',(#124),#128);
#124 = LINE('',#125,#126);
#125 = CARTESIAN_POINT('',(0.,0.));
#126 = VECTOR('',#127,1.);
#127 = DIRECTION('',(0.,1.));
#128 = ( GEOMETRIC_REPRESENTATION_CONTEXT(2) 
PARAMETRIC_REPRESENTATION_CONTEXT() REPRESENTATION_CONTEXT('2D SPACE',''
  ) );
#129 = PCURVE('',#93,#130);
#130 = DEFINITIONAL_REPRESENTATION('',(#131),#135);
#131 = LINE('',#132,#133);
#132 = CARTESIAN_POINT('',(6.28318530718,0.));
#133 = VECTOR('',#134,1.);
#134 = DIRECTION('',(0.,1.));
#135 = ( GEOMETRIC_REPRESENTATION_CONTEXT(2) 
PARAMETRIC_REPRESENTATION_CONTEXT() REPRESENTATION_CONTEXT('2D SPACE',''
  ) );
#136 = ORIENTED_EDGE('',*,*,#137,.F.);
#137 = EDGE_CURVE('',#115,#115,#138,.T.);
#138 = SURFACE_CURVE('',#139,(#144,#151),.PCURVE_S1.);
#139 = CIRCLE('',#140,8.);
#140 = AXIS2_PLACEMENT_3D('',#141,#142,#143);
#141 = CARTESIAN_POINT('',(3.,0.,0.));
#142 = DIRECTION('',(1.,0.,0.));
#143 = DIRECTION('',(-0.,1.,0.));
#144 = PCURVE('',#93,#145);
#145 = DEFINITIONAL_REPRESENTATION('',(#146),#150);
#146 = LINE('',#147,#148);
#147 = CARTESIAN_POINT('',(0.,2.5));
#148 = VECTOR('',#149,1.);
#149 = DIRECTION('',(1.,0.));
#150 = ( GEOMETRIC_REPRESENTATION_CONTEXT(2) 
PARAMETRIC_REPRESENTATION_CONTEXT() REPRESENTATION_CONTEXT('2D SPACE',''
  ) );
#151 = PCURVE('',#152,#157);
#152 = PLANE('',#153);
#153 = AXIS2_PLACEMENT_3D('',#154,#155,#156);
#154 = CARTESIAN_POINT('',(3.,0.,0.));
#155 = DIRECTION('',(1.,0.,0.));
#156 = DIRECTION('',(-0.,1.,0.));
#157 = DEFINITIONAL_REPRESENTATION('',(#158),#162);
#158 = CIRCLE('',#159,8.);
#159 = AXIS2_PLACEMENT_2D('',#160,#161);
#160 = CARTESIAN_POINT('',(0.,0.));
#161 = DIRECTION('',(1.,0.));
#162 = ( GEOMETRIC_REPRESENTATION_CONTEXT(2) 
PARAMETRIC_REPRESENTATION_CONTEXT() REPRESENTATION_CONTEXT('2D SPACE',''
  ) );
#163 = ORIENTED_EDGE('',*,*,#114,.F.);
#164 = ADVANCED_FACE('',(#165,#168),#152,.T.);
#165 = FACE_BOUND('',#166,.T.);
#166 = EDGE_LOOP('',(#167));
#167 = ORIENTED_EDGE('',*,*,#137,.T.);
#168 = FACE_BOUND('',#169,.T.);
#169 = EDGE_LOOP('',(#170));
#170 = ORIENTED_EDGE('',*,*,#171,.F.);
#171 = EDGE_CURVE('',#172,#172,#174,.T.);
#172 = VERTEX_POINT('',#173);
#173 = CARTESIAN_POINT('',(3.,6.,0.));
#174 = SURFACE_CURVE('',#175,(#180,#187),.PCURVE_S1.);
#175 = CIRCLE('',#176,6.);
#176 = AXIS2_PLACEMENT_3D('',#177,#178,#179);
#177 = CARTESIAN_POINT('',(3.,0.,0.));
#178 = DIRECTION('',(1.,0.,0.));
#179 = DIRECTION('',(-0.,1.,0.));
#180 = PCURVE('',#152,#181);
#181 = DEFINITIONAL_REPRESENTATION('',(#182),#186);
#182 = CIRCLE('',#183,6.);
#183 = AXIS2_PLACEMENT_2D('',#184,#185);
#184 = CARTESIAN_POINT('',(0.,0.));
#185 = DIRECTION('',(1.,0.));
#186 = ( GEOMETRIC_REPRESENTATION_CONTEXT(2) 
PARAMETRIC_REPRESENTATION_CONTEXT() REPRESENTATION_CONTEXT('2D SPACE',''
  ) );
#187 = PCURVE('',#188,#193);
#188 = CYLINDRICAL_SURFACE('',#189,6.);
#189 = AXIS2_PLACEMENT_3D('',#190,#191,#192);
#190 = CARTESIAN_POINT('',(3.,0.,0.));
#191 = DIRECTION('',(1.,0.,0.));
#192 = DIRECTION('',(-0.,1.,0.));
#193 = DEFINITIONAL_REPRESENTATION('',(#194),#198);
#194 = LINE('',#195,#196);
#195 = CARTESIAN_POINT('',(0.,0.));
#196 = VECTOR('',#197,1.);
#197 = DIRECTION('',(1.,0.));
#198 = ( GEOMETRIC_REPRESENTATION_CONTEXT(2) 
PARAMETRIC_REPRESENTATION_CONTEXT() REPRESENTATION_CONTEXT('2D SPACE',''
  ) );
#199 = ADVANCED_FACE('',(#200,#254,#449),#188,.T.);
#200 = FACE_BOUND('',#201,.T.);
#201 = EDGE_LOOP('',(#202,#225,#226,#227));
#202 = ORIENTED_EDGE('',*,*,#203,.F.);
#203 = EDGE_CURVE('',#172,#204,#206,.T.);
#204 = VERTEX_POINT('',#205);
#205 = CARTESIAN_POINT('',(50.,6.,0.));
#206 = SEAM_CURVE('',#207,(#211,#218),.PCURVE_S1.);
#207 = LINE('',#208,#209);
#208 = CARTESIAN_POINT('',(3.,6.,0.));
#209 = VECTOR('',#210,1.);
#210 = DIRECTION('',(1.,0.,0.));
#211 = PCURVE('',#188,#212);
#212 = DEFINITIONAL_REPRESENTATION('',(#213),#217);
#213 = LINE('',#214,#215);
#214 = CARTESIAN_POINT('',(0.,0.));
#215 = VECTOR('',#216,1.);
#216 = DIRECTION('',(0.,1.));
#217 = ( GEOMETRIC_REPRESENTATION_CONTEXT(2) 
PARAMETRIC_REPRESENTATION_CONTEXT() REPRESENTATION_CONTEXT('2D SPACE',''
  ) );
#218 = PCURVE('',#188,#219);
#219 = DEFINITIONAL_REPRESENTATION('',(#220),#224);
#220 = LINE('',#221,#222);
#221 = CARTESIAN_POINT('',(6.28318530718,0.));
#222 = VECTOR('',#223,1.);
#223 = DIRECTION('',(0.,1.));
#224 = ( GEOMETRIC_REPRESENTATION_CONTEXT(2) 
PARAMETRIC_REPRESENTATION_CONTEXT() REPRESENTATION_CONTEXT('2D SPACE',''
  ) );
#225 = ORIENTED_EDGE('',*,*,#171,.T.);
#226 = ORIENTED_EDGE('',*,*,#203,.T.);
#227 = ORIENTED_EDGE('',*,*,#228,.F.);
#228 = EDGE_CURVE('',#204,#204,#229,.T.);
#229 = SURFACE_CURVE('',#230,(#235,#242),.PCURVE_S1.);
#230 = CIRCLE('',#231,6.);
#231 = AXIS2_PLACEMENT_3D('',#232,#233,#234);
#232 = CARTESIAN_POINT('',(50.,0.,0.));
#233 = DIRECTION('',(1.,0.,0.));
#234 = DIRECTION('',(-0.,1.,0.));
#235 = PCURVE('',#188,#236);
#236 = DEFINITIONAL_REPRESENTATION('',(#237),#241);
#237 = LINE('',#238,#239);
#238 = CARTESIAN_POINT('',(0.,47.));
#239 = VECTOR('',#240,1.);
#240 = DIRECTION('',(1.,0.));
#241 = ( GEOMETRIC_REPRESENTATION_CONTEXT(2) 
PARAMETRIC_REPRESENTATION_CONTEXT() REPRESENTATION_CONTEXT('2D SPACE',''
  ) );
#242 = PCURVE('',#243,#248);
#243 = CONICAL_SURFACE('',#244,6.,0.785398163397);
#244 = AXIS2_PLACEMENT_3D('',#245,#246,#247);
#245 = CARTESIAN_POINT('',(50.,0.,0.));
#246 = DIRECTION('',(-1.,-0.,-0.));
#247 = DIRECTION('',(-0.,1.,0.));
#248 = DEFINITIONAL_REPRESENTATION('',(#249),#253);
#249 = LINE('',#250,#251);
#250 = CARTESIAN_POINT('',(-0.,-0.));
#251 = VECTOR('',#252,1.);
#252 = DIRECTION('',(-1.,-0.));
#253 = ( GEOMETRIC_REPRESENTATION_CONTEXT(2) 
PARAMETRIC_REPRESENTATION_CONTEXT() REPRESENTATION_CONTEXT('2D SPACE',''
  ) );
#254 = FACE_BOUND('',#255,.T.);
#255 = EDGE_LOOP('',(#256));
#256 = ORIENTED_EDGE('',*,*,#257,.T.);
#257 = EDGE_CURVE('',#258,#258,#260,.T.);
#258 = VERTEX_POINT('',#259);
#259 = CARTESIAN_POINT('',(45.6,0.,-6.));
#260 = SURFACE_CURVE('',#261,(#320,#382),.PCURVE_S1.);
#261 = B_SPLINE_CURVE_WITH_KNOTS('',8,(#262,#263,#264,#265,#266,#267,
    #268,#269,#270,#271,#272,#273,#274,#275,#276,#277,#278,#279,#280,
    #281,#282,#283,#284,#285,#286,#287,#288,#289,#290,#291,#292,#293,
    #294,#295,#296,#297,#298,#299,#300,#301,#302,#303,#304,#305,#306,
    #307,#308,#309,#310,#311,#312,#313,#314,#315,#316,#317,#318,#319),
  .UNSPECIFIED.,.T.,.F.,(9,7,7,7,7,7,7,7,9),(0.,0.131641217992,
    0.276236927313,0.443125305616,0.589761709464,0.684729884745,
    0.7891728275,0.899548683517,1.),.UNSPECIFIED.);
#262 = CARTESIAN_POINT('',(45.6,-6.661338147751E-16,-6.));
#263 = CARTESIAN_POINT('',(45.6,0.176961222305,-6.));
#264 = CARTESIAN_POINT('',(45.577632135081,0.350380766193,
    -5.994034906964));
#265 = CARTESIAN_POINT('',(45.534462146201,0.517052655873,
    -5.982524238302));
#266 = CARTESIAN_POINT('',(45.472533930336,0.674131344358,
    -5.966441635279));
#267 = CARTESIAN_POINT('',(45.394375196665,0.819183389786,
    -5.947183819233));
#268 = CARTESIAN_POINT('',(45.303009758197,0.950285142689,
    -5.926335914674));
#269 = CARTESIAN_POINT('',(45.20196653804,1.066160127783,-5.905398781251
    ));
#270 = CARTESIAN_POINT('',(44.978084983142,1.276398901732,
    -5.863735350834));
#271 = CARTESIAN_POINT('',(44.851548107813,1.369901504464,
    -5.842761694253));
#272 = CARTESIAN_POINT('',(44.71799595384,1.447154370354,-5.823814319828
    ));
#273 = CARTESIAN_POINT('',(44.579269248313,1.50851092631,-5.807804202352
    ));
#274 = CARTESIAN_POINT('',(44.436876117393,1.554295532769,
    -5.795378725969));
#275 = CARTESIAN_POINT('',(44.292105189303,1.584751036363,
    -5.786952078449));
#276 = CARTESIAN_POINT('',(44.14611240206,1.6,-5.78273291792));
#277 = CARTESIAN_POINT('',(43.831361096782,1.6,-5.78273291792));
#278 = CARTESIAN_POINT('',(43.662969266497,1.579686993035,
    -5.788353141215));
#279 = CARTESIAN_POINT('',(43.496439071178,1.539161406283,
    -5.799566367001));
#280 = CARTESIAN_POINT('',(43.333513385346,1.478181917984,
    -5.816007841851));
#281 = CARTESIAN_POINT('',(43.176230876024,1.39629185736,-5.836955560879
    ));
#282 = CARTESIAN_POINT('',(43.027098505234,1.292920198921,
    -5.861249043079));
#283 = CARTESIAN_POINT('',(42.889325947088,1.167528906651,
    -5.887217132005));
#284 = CARTESIAN_POINT('',(42.659854281975,0.890145313226,
    -5.935062994589));
#285 = CARTESIAN_POINT('',(42.560800105164,0.738642663647,-5.95784550424
    ));
#286 = CARTESIAN_POINT('',(42.478267785601,0.567741598585,
    -5.978708595683));
#287 = CARTESIAN_POINT('',(42.418261050286,0.381647241521,
    -5.994944977173));
#288 = CARTESIAN_POINT('',(42.384660621353,0.185879614979,
    -6.004244710375));
#289 = CARTESIAN_POINT('',(42.379317812292,-1.341622618146E-02,
    -6.005572378811));
#290 = CARTESIAN_POINT('',(42.402007693544,-0.2099464556,-5.999283833478
    ));
#291 = CARTESIAN_POINT('',(42.481521751126,-0.519633263234,
    -5.978700928019));
#292 = CARTESIAN_POINT('',(42.523700533644,-0.638541241591,
    -5.967956629044));
#293 = CARTESIAN_POINT('',(42.57650379801,-0.753488515871,
    -5.954849656958));
#294 = CARTESIAN_POINT('',(42.639497736732,-0.863383511928,
    -5.939803951008));
#295 = CARTESIAN_POINT('',(42.712115193593,-0.967187942713,
    -5.923358370163));
#296 = CARTESIAN_POINT('',(42.793658931708,-1.063930603527,
    -5.906135252567));
#297 = CARTESIAN_POINT('',(42.883307202615,-1.15272933995,
    -5.888795507257));
#298 = CARTESIAN_POINT('',(43.086594992846,-1.320903625767,
    -5.853487346381));
#299 = CARTESIAN_POINT('',(43.201828159277,-1.398531255753,
    -5.835613390941));
#300 = CARTESIAN_POINT('',(43.32456169375,-1.464623598504,
    -5.819217797485));
#301 = CARTESIAN_POINT('',(43.45340651331,-1.518338003542,
    -5.805133395776));
#302 = CARTESIAN_POINT('',(43.586894459029,-1.55905069092,
    -5.794063755319));
#303 = CARTESIAN_POINT('',(43.72351418069,-1.586344022015,-5.78651083088
    ));
#304 = CARTESIAN_POINT('',(43.861732321092,-1.6,-5.78273291792));
#305 = CARTESIAN_POINT('',(44.146122016639,-1.6,-5.78273291792));
#306 = CARTESIAN_POINT('',(44.292115885485,-1.584749050781,
    -5.786952625482));
#307 = CARTESIAN_POINT('',(44.436883137601,-1.554292605069,
    -5.795379540847));
#308 = CARTESIAN_POINT('',(44.579271183711,-1.50850897778,
    -5.807804675009));
#309 = CARTESIAN_POINT('',(44.717993971444,-1.447154646287,
    -5.823814168425));
#310 = CARTESIAN_POINT('',(44.851544752193,-1.369903662209,
    -5.842761172755));
#311 = CARTESIAN_POINT('',(44.978082730575,-1.276401017033,
    -5.863734931641));
#312 = CARTESIAN_POINT('',(45.201930531996,-1.066193939709,
    -5.905392080675));
#313 = CARTESIAN_POINT('',(45.302987015988,-0.950320681812,
    -5.926330235075));
#314 = CARTESIAN_POINT('',(45.394380715246,-0.819192714381,-5.9471841618
    ));
#315 = CARTESIAN_POINT('',(45.472560815751,-0.674098805279,
    -5.966448088961));
#316 = CARTESIAN_POINT('',(45.534493124697,-0.516979856117,
    -5.982532510102));
#317 = CARTESIAN_POINT('',(45.577650370466,-0.350288674183,
    -5.994039766644));
#318 = CARTESIAN_POINT('',(45.6,-0.176889084461,-6.));
#319 = CARTESIAN_POINT('',(45.6,-6.661338147751E-16,-6.));
#320 = PCURVE('',#188,#321);
#321 = DEFINITIONAL_REPRESENTATION('',(#322),#381);
#322 = B_SPLINE_CURVE_WITH_KNOTS('',8,(#323,#324,#325,#326,#327,#328,
    #329,#330,#331,#332,#333,#334,#335,#336,#337,#338,#339,#340,#341,
    #342,#343,#344,#345,#346,#347,#348,#349,#350,#351,#352,#353,#354,
    #355,#356,#357,#358,#359,#360,#361,#362,#363,#364,#365,#366,#367,
    #368,#369,#370,#371,#372,#373,#374,#375,#376,#377,#378,#379,#380),
  .UNSPECIFIED.,.T.,.F.,(9,7,7,7,7,7,7,7,9),(0.,0.131641217992,
    0.276236927313,0.443125305616,0.589761709464,0.684729884745,
    0.7891728275,0.899548683517,1.),.UNSPECIFIED.);
#323 = CARTESIAN_POINT('',(4.712388980385,42.6));
#324 = CARTESIAN_POINT('',(4.741882517436,42.6));
#325 = CARTESIAN_POINT('',(4.770785813584,42.577632135081));
#326 = CARTESIAN_POINT('',(4.798603394479,42.534462146201));
#327 = CARTESIAN_POINT('',(4.82489417114,42.472533930336));
#328 = CARTESIAN_POINT('',(4.849264221041,42.394375196665));
#329 = CARTESIAN_POINT('',(4.871380791219,42.303009758197));
#330 = CARTESIAN_POINT('',(4.891003185191,42.20196653804));
#331 = CARTESIAN_POINT('',(4.926724398739,41.978084983142));
#332 = CARTESIAN_POINT('',(4.942690405666,41.851548107813));
#333 = CARTESIAN_POINT('',(4.955944107966,41.71799595384));
#334 = CARTESIAN_POINT('',(4.966511473823,41.579269248313));
#335 = CARTESIAN_POINT('',(4.974418165758,41.436876117393));
#336 = CARTESIAN_POINT('',(4.979684793938,41.292105189303));
#337 = CARTESIAN_POINT('',(4.982321776218,41.14611240206));
#338 = CARTESIAN_POINT('',(4.982321776218,40.831361096782));
#339 = CARTESIAN_POINT('',(4.97880907035,40.662969266497));
#340 = CARTESIAN_POINT('',(4.97180105686,40.496439071178));
#341 = CARTESIAN_POINT('',(4.961275054328,40.333513385346));
#342 = CARTESIAN_POINT('',(4.947189904639,40.176230876024));
#343 = CARTESIAN_POINT('',(4.929499987205,40.027098505234));
#344 = CARTESIAN_POINT('',(4.908169902224,39.889325947088));
#345 = CARTESIAN_POINT('',(4.861256600252,39.659854281975));
#346 = CARTESIAN_POINT('',(4.83572820882,39.560800105164));
#347 = CARTESIAN_POINT('',(4.807051927705,39.478267785601));
#348 = CARTESIAN_POINT('',(4.775957558685,39.418261050286));
#349 = CARTESIAN_POINT('',(4.743346238426,39.384660621353));
#350 = CARTESIAN_POINT('',(4.710170717737,39.379317812292));
#351 = CARTESIAN_POINT('',(4.67741831177,39.402007693544));
#352 = CARTESIAN_POINT('',(4.625689968256,39.481521751126));
#353 = CARTESIAN_POINT('',(4.605796832188,39.523700533644));
#354 = CARTESIAN_POINT('',(4.586523482056,39.57650379801));
#355 = CARTESIAN_POINT('',(4.568045541025,39.639497736732));
#356 = CARTESIAN_POINT('',(4.550535740538,39.712115193593));
#357 = CARTESIAN_POINT('',(4.534162333275,39.793658931708));
#358 = CARTESIAN_POINT('',(4.519084513973,39.883307202615));
#359 = CARTESIAN_POINT('',(4.490444382536,40.086594992846));
#360 = CARTESIAN_POINT('',(4.47717047746,40.201828159277));
#361 = CARTESIAN_POINT('',(4.465823308046,40.32456169375));
#362 = CARTESIAN_POINT('',(4.456569271776,40.45340651331));
#363 = CARTESIAN_POINT('',(4.449537619048,40.586894459029));
#364 = CARTESIAN_POINT('',(4.444817608149,40.72351418069));
#365 = CARTESIAN_POINT('',(4.442456184551,40.861732321092));
#366 = CARTESIAN_POINT('',(4.442456184551,41.146122016639));
#367 = CARTESIAN_POINT('',(4.445093510218,41.292115885485));
#368 = CARTESIAN_POINT('',(4.450360301337,41.436883137601));
#369 = CARTESIAN_POINT('',(4.458266820902,41.579271183711));
#370 = CARTESIAN_POINT('',(4.468833802129,41.717993971444));
#371 = CARTESIAN_POINT('',(4.482087185444,41.851544752193));
#372 = CARTESIAN_POINT('',(4.498053202624,41.978082730575));
#373 = CARTESIAN_POINT('',(4.533769030668,42.201930531996));
#374 = CARTESIAN_POINT('',(4.553391174502,42.302987015988));
#375 = CARTESIAN_POINT('',(4.575512221411,42.394380715246));
#376 = CARTESIAN_POINT('',(4.599889298308,42.472560815751));
#377 = CARTESIAN_POINT('',(4.626186750013,42.534493124697));
#378 = CARTESIAN_POINT('',(4.654007495082,42.577650370466));
#379 = CARTESIAN_POINT('',(4.682907466308,42.6));
#380 = CARTESIAN_POINT('',(4.712388980385,42.6));
#381 = ( GEOMETRIC_REPRESENTATION_CONTEXT(2) 
PARAMETRIC_REPRESENTATION_CONTEXT() REPRESENTATION_CONTEXT('2D SPACE',''
  ) );
#382 = PCURVE('',#383,#388);
#383 = CYLINDRICAL_SURFACE('',#384,1.6);
#384 = AXIS2_PLACEMENT_3D('',#385,#386,#387);
#385 = CARTESIAN_POINT('',(44.,0.,-8.));
#386 = DIRECTION('',(-0.,-0.,-1.));
#387 = DIRECTION('',(1.,0.,0.));
#388 = DEFINITIONAL_REPRESENTATION('',(#389),#448);
#389 = B_SPLINE_CURVE_WITH_KNOTS('',8,(#390,#391,#392,#393,#394,#395,
    #396,#397,#398,#399,#400,#401,#402,#403,#404,#405,#406,#407,#408,
    #409,#410,#411,#412,#413,#414,#415,#416,#417,#418,#419,#420,#421,
    #422,#423,#424,#425,#426,#427,#428,#429,#430,#431,#432,#433,#434,
    #435,#436,#437,#438,#439,#440,#441,#442,#443,#444,#445,#446,#447),
  .UNSPECIFIED.,.F.,.F.,(9,7,7,7,7,7,7,7,9),(0.,0.131641217992,
    0.276236927313,0.443125305616,0.589761709464,0.684729884745,
    0.7891728275,0.899548683517,1.),.UNSPECIFIED.);
#390 = CARTESIAN_POINT('',(0.,-2.));
#391 = CARTESIAN_POINT('',(-0.110600763941,-2.));
#392 = CARTESIAN_POINT('',(-0.218987919004,-2.005965093036));
#393 = CARTESIAN_POINT('',(-0.325219618673,-2.017475761698));
#394 = CARTESIAN_POINT('',(-0.429232061524,-2.033558364721));
#395 = CARTESIAN_POINT('',(-0.530844128511,-2.052816180767));
#396 = CARTESIAN_POINT('',(-0.629727614536,-2.073664085326));
#397 = CARTESIAN_POINT('',(-0.725339672739,-2.094601218749));
#398 = CARTESIAN_POINT('',(-0.917290281514,-2.136264649166));
#399 = CARTESIAN_POINT('',(-1.014945590846,-2.157238305747));
#400 = CARTESIAN_POINT('',(-1.110389890924,-2.176185680172));
#401 = CARTESIAN_POINT('',(-1.204119265824,-2.192195797648));
#402 = CARTESIAN_POINT('',(-1.296588033564,-2.204621274031));
#403 = CARTESIAN_POINT('',(-1.388230680693,-2.213047921551));
#404 = CARTESIAN_POINT('',(-1.479476075507,-2.21726708208));
#405 = CARTESIAN_POINT('',(-1.676195641306,-2.21726708208));
#406 = CARTESIAN_POINT('',(-1.781440170411,-2.211646858785));
#407 = CARTESIAN_POINT('',(-1.887306972742,-2.200433632999));
#408 = CARTESIAN_POINT('',(-1.99446512667,-2.183992158149));
#409 = CARTESIAN_POINT('',(-2.10359392189,-2.163044439121));
#410 = CARTESIAN_POINT('',(-2.215403577298,-2.138750956921));
#411 = CARTESIAN_POINT('',(-2.330675896187,-2.112782867995));
#412 = CARTESIAN_POINT('',(-2.555674943921,-2.064937005411));
#413 = CARTESIAN_POINT('',(-2.66809658867,-2.04215449576));
#414 = CARTESIAN_POINT('',(-2.785051958896,-2.021291404317));
#415 = CARTESIAN_POINT('',(-2.904927256563,-2.005055022827));
#416 = CARTESIAN_POINT('',(-3.026603639919,-1.995755289625));
#417 = CARTESIAN_POINT('',(-3.149136969986,-1.994427621189));
#418 = CARTESIAN_POINT('',(-3.271636362908,-2.000716166522));
#419 = CARTESIAN_POINT('',(-3.471468718599,-2.021299071981));
#420 = CARTESIAN_POINT('',(-3.550007214859,-2.032043370956));
#421 = CARTESIAN_POINT('',(-3.628538192313,-2.045150343042));
#422 = CARTESIAN_POINT('',(-3.707070365011,-2.060196048992));
#423 = CARTESIAN_POINT('',(-3.785610711078,-2.076641629837));
#424 = CARTESIAN_POINT('',(-3.864159450519,-2.093864747433));
#425 = CARTESIAN_POINT('',(-3.942707813141,-2.111204492743));
#426 = CARTESIAN_POINT('',(-4.107604224832,-2.146512653619));
#427 = CARTESIAN_POINT('',(-4.194022836477,-2.164386609059));
#428 = CARTESIAN_POINT('',(-4.280440887572,-2.180782202515));
#429 = CARTESIAN_POINT('',(-4.366837452247,-2.194866604224));
#430 = CARTESIAN_POINT('',(-4.453214106465,-2.205936244681));
#431 = CARTESIAN_POINT('',(-4.539585652057,-2.21348916912));
#432 = CARTESIAN_POINT('',(-4.625971681067,-2.21726708208));
#433 = CARTESIAN_POINT('',(-4.803715240784,-2.21726708208));
#434 = CARTESIAN_POINT('',(-4.894961301146,-2.213047374518));
#435 = CARTESIAN_POINT('',(-4.986601896368,-2.204620459153));
#436 = CARTESIAN_POINT('',(-5.079067614691,-2.192195324991));
#437 = CARTESIAN_POINT('',(-5.172794291431,-2.176185831575));
#438 = CARTESIAN_POINT('',(-5.268237269282,-2.157238827245));
#439 = CARTESIAN_POINT('',(-5.36589309437,-2.136265068359));
#440 = CARTESIAN_POINT('',(-5.557814763733,-2.094607919325));
#441 = CARTESIAN_POINT('',(-5.653432133888,-2.073669764925));
#442 = CARTESIAN_POINT('',(-5.752338495904,-2.0528158382));
#443 = CARTESIAN_POINT('',(-5.853978315859,-2.033551911039));
#444 = CARTESIAN_POINT('',(-5.958013681513,-2.017467489898));
#445 = CARTESIAN_POINT('',(-6.064254953464,-2.005960233356));
#446 = CARTESIAN_POINT('',(-6.172629629392,-2.));
#447 = CARTESIAN_POINT('',(-6.28318530718,-2.));
#448 = ( GEOMETRIC_REPRESENTATION_CONTEXT(2) 
PARAMETRIC_REPRESENTATION_CONTEXT() REPRESENTATION_CONTEXT('2D SPACE',''
  ) );
#449 = FACE_BOUND('',#450,.T.);
#450 = EDGE_LOOP('',(#451));
#451 = ORIENTED_EDGE('',*,*,#452,.F.);
#452 = EDGE_CURVE('',#453,#453,#455,.T.);
#453 = VERTEX_POINT('',#454);
#454 = CARTESIAN_POINT('',(45.6,0.,6.));
#455 = SURFACE_CURVE('',#456,(#515,#577),.PCURVE_S1.);
#456 = B_SPLINE_CURVE_WITH_KNOTS('',8,(#457,#458,#459,#460,#461,#462,
    #463,#464,#465,#466,#467,#468,#469,#470,#471,#472,#473,#474,#475,
    #476,#477,#478,#479,#480,#481,#482,#483,#484,#485,#486,#487,#488,
    #489,#490,#491,#492,#493,#494,#495,#496,#497,#498,#499,#500,#501,
    #502,#503,#504,#505,#506,#507,#508,#509,#510,#511,#512,#513,#514),
  .UNSPECIFIED.,.T.,.F.,(9,7,7,7,7,7,7,7,9),(0.,0.131641220218,
    0.276236929167,0.443125307043,0.589761710515,0.684729885553,
    0.78917282804,0.899548683774,1.),.UNSPECIFIED.);
#457 = CARTESIAN_POINT('',(45.6,0.,6.));
#458 = CARTESIAN_POINT('',(45.6,0.176961218606,6.));
#459 = CARTESIAN_POINT('',(45.577632135728,0.350380772773,5.994034907068
    ));
#460 = CARTESIAN_POINT('',(45.534462143858,0.517052654649,5.982524237858
    ));
#461 = CARTESIAN_POINT('',(45.472533932132,0.674131339798,5.966441635641
    ));
#462 = CARTESIAN_POINT('',(45.394375199063,0.819183390993,5.947183819698
    ));
#463 = CARTESIAN_POINT('',(45.303009753764,0.950285145859,5.926335913818
    ));
#464 = CARTESIAN_POINT('',(45.201966540117,1.066160125833,5.905398781637
    ));
#465 = CARTESIAN_POINT('',(44.978084983142,1.276398901732,5.863735350834
    ));
#466 = CARTESIAN_POINT('',(44.851548107813,1.369901504464,5.842761694253
    ));
#467 = CARTESIAN_POINT('',(44.71799595384,1.447154370354,5.823814319828)
  );
#468 = CARTESIAN_POINT('',(44.579269248313,1.50851092631,5.807804202352)
  );
#469 = CARTESIAN_POINT('',(44.436876117393,1.554295532769,5.795378725969
    ));
#470 = CARTESIAN_POINT('',(44.292105189303,1.584751036363,5.786952078449
    ));
#471 = CARTESIAN_POINT('',(44.14611240206,1.6,5.78273291792));
#472 = CARTESIAN_POINT('',(43.831361096782,1.6,5.78273291792));
#473 = CARTESIAN_POINT('',(43.662969266497,1.579686993035,5.788353141215
    ));
#474 = CARTESIAN_POINT('',(43.496439071178,1.539161406283,5.799566367001
    ));
#475 = CARTESIAN_POINT('',(43.333513385346,1.478181917984,5.816007841851
    ));
#476 = CARTESIAN_POINT('',(43.176230876024,1.39629185736,5.836955560879)
  );
#477 = CARTESIAN_POINT('',(43.027098505234,1.292920198921,5.861249043079
    ));
#478 = CARTESIAN_POINT('',(42.889325947088,1.167528906651,5.887217132005
    ));
#479 = CARTESIAN_POINT('',(42.659854281975,0.890145313226,5.935062994589
    ));
#480 = CARTESIAN_POINT('',(42.560800105164,0.738642663647,5.95784550424)
  );
#481 = CARTESIAN_POINT('',(42.478267785601,0.567741598584,5.978708595683
    ));
#482 = CARTESIAN_POINT('',(42.418261050286,0.381647241522,5.994944977172
    ));
#483 = CARTESIAN_POINT('',(42.384660621352,0.185879614979,6.004244710375
    ));
#484 = CARTESIAN_POINT('',(42.379317812292,-1.34162261814E-02,
    6.005572378811));
#485 = CARTESIAN_POINT('',(42.402007693544,-0.2099464556,5.999283833478)
  );
#486 = CARTESIAN_POINT('',(42.481521751126,-0.519633263234,
    5.978700928019));
#487 = CARTESIAN_POINT('',(42.523700533644,-0.638541241591,
    5.967956629044));
#488 = CARTESIAN_POINT('',(42.57650379801,-0.753488515871,5.954849656958
    ));
#489 = CARTESIAN_POINT('',(42.639497736733,-0.863383511928,
    5.939803951008));
#490 = CARTESIAN_POINT('',(42.712115193593,-0.967187942713,
    5.923358370163));
#491 = CARTESIAN_POINT('',(42.793658931708,-1.063930603527,
    5.906135252567));
#492 = CARTESIAN_POINT('',(42.883307202615,-1.15272933995,5.888795507257
    ));
#493 = CARTESIAN_POINT('',(43.086594992846,-1.320903625767,
    5.853487346381));
#494 = CARTESIAN_POINT('',(43.201828159277,-1.398531255753,
    5.835613390941));
#495 = CARTESIAN_POINT('',(43.32456169375,-1.464623598504,5.819217797485
    ));
#496 = CARTESIAN_POINT('',(43.45340651331,-1.518338003542,5.805133395776
    ));
#497 = CARTESIAN_POINT('',(43.586894459029,-1.55905069092,5.794063755319
    ));
#498 = CARTESIAN_POINT('',(43.72351418069,-1.586344022015,5.78651083088)
  );
#499 = CARTESIAN_POINT('',(43.861732321092,-1.6,5.78273291792));
#500 = CARTESIAN_POINT('',(44.146122016639,-1.6,5.78273291792));
#501 = CARTESIAN_POINT('',(44.292115885485,-1.584749050781,
    5.786952625482));
#502 = CARTESIAN_POINT('',(44.436883137601,-1.554292605069,
    5.795379540847));
#503 = CARTESIAN_POINT('',(44.579271183711,-1.50850897778,5.807804675009
    ));
#504 = CARTESIAN_POINT('',(44.717993971444,-1.447154646287,
    5.823814168425));
#505 = CARTESIAN_POINT('',(44.851544752193,-1.369903662209,
    5.842761172755));
#506 = CARTESIAN_POINT('',(44.978082730575,-1.276401017033,
    5.863734931641));
#507 = CARTESIAN_POINT('',(45.201930531996,-1.066193939709,
    5.905392080675));
#508 = CARTESIAN_POINT('',(45.302987015988,-0.950320681812,
    5.926330235075));
#509 = CARTESIAN_POINT('',(45.394380715246,-0.819192714381,5.9471841618)
  );
#510 = CARTESIAN_POINT('',(45.472560815751,-0.674098805279,
    5.966448088961));
#511 = CARTESIAN_POINT('',(45.534493124697,-0.516979856118,
    5.982532510102));
#512 = CARTESIAN_POINT('',(45.577650370466,-0.350288674183,
    5.994039766644));
#513 = CARTESIAN_POINT('',(45.6,-0.176889084461,6.));
#514 = CARTESIAN_POINT('',(45.6,0.,6.));
#515 = PCURVE('',#188,#516);
#516 = DEFINITIONAL_REPRESENTATION('',(#517),#576);
#517 = B_SPLINE_CURVE_WITH_KNOTS('',8,(#518,#519,#520,#521,#522,#523,
    #524,#525,#526,#527,#528,#529,#530,#531,#532,#533,#534,#535,#536,
    #537,#538,#539,#540,#541,#542,#543,#544,#545,#546,#547,#548,#549,
    #550,#551,#552,#553,#554,#555,#556,#557,#558,#559,#560,#561,#562,
    #563,#564,#565,#566,#567,#568,#569,#570,#571,#572,#573,#574,#575),
  .UNSPECIFIED.,.T.,.F.,(9,7,7,7,7,7,7,7,9),(0.,0.131641220218,
    0.276236929167,0.443125307043,0.589761710515,0.684729885553,
    0.78917282804,0.899548683774,1.),.UNSPECIFIED.);
#518 = CARTESIAN_POINT('',(1.570796326795,42.6));
#519 = CARTESIAN_POINT('',(1.541302790361,42.6));
#520 = CARTESIAN_POINT('',(1.512399492501,42.577632135728));
#521 = CARTESIAN_POINT('',(1.484581912897,42.534462143858));
#522 = CARTESIAN_POINT('',(1.458291136805,42.472533932132));
#523 = CARTESIAN_POINT('',(1.433921085944,42.394375199063));
#524 = CARTESIAN_POINT('',(1.411804515419,42.303009753764));
#525 = CARTESIAN_POINT('',(1.39218212232,42.201966540117));
#526 = CARTESIAN_POINT('',(1.35646090844,41.978084983142));
#527 = CARTESIAN_POINT('',(1.340494901514,41.851548107813));
#528 = CARTESIAN_POINT('',(1.327241199214,41.71799595384));
#529 = CARTESIAN_POINT('',(1.316673833356,41.579269248313));
#530 = CARTESIAN_POINT('',(1.308767141421,41.436876117393));
#531 = CARTESIAN_POINT('',(1.303500513242,41.292105189303));
#532 = CARTESIAN_POINT('',(1.300863530961,41.14611240206));
#533 = CARTESIAN_POINT('',(1.300863530961,40.831361096782));
#534 = CARTESIAN_POINT('',(1.304376236829,40.662969266497));
#535 = CARTESIAN_POINT('',(1.311384250319,40.496439071178));
#536 = CARTESIAN_POINT('',(1.321910252851,40.333513385346));
#537 = CARTESIAN_POINT('',(1.335995402541,40.176230876024));
#538 = CARTESIAN_POINT('',(1.353685319975,40.027098505234));
#539 = CARTESIAN_POINT('',(1.375015404956,39.889325947089));
#540 = CARTESIAN_POINT('',(1.421928706928,39.659854281975));
#541 = CARTESIAN_POINT('',(1.44745709836,39.560800105164));
#542 = CARTESIAN_POINT('',(1.476133379474,39.478267785601));
#543 = CARTESIAN_POINT('',(1.507227748495,39.418261050286));
#544 = CARTESIAN_POINT('',(1.539839068753,39.384660621352));
#545 = CARTESIAN_POINT('',(1.573014589442,39.379317812292));
#546 = CARTESIAN_POINT('',(1.605766995409,39.402007693544));
#547 = CARTESIAN_POINT('',(1.657495338924,39.481521751126));
#548 = CARTESIAN_POINT('',(1.677388474992,39.523700533644));
#549 = CARTESIAN_POINT('',(1.696661825123,39.57650379801));
#550 = CARTESIAN_POINT('',(1.715139766154,39.639497736733));
#551 = CARTESIAN_POINT('',(1.732649566642,39.712115193593));
#552 = CARTESIAN_POINT('',(1.749022973905,39.793658931708));
#553 = CARTESIAN_POINT('',(1.764100793207,39.883307202615));
#554 = CARTESIAN_POINT('',(1.792740924644,40.086594992846));
#555 = CARTESIAN_POINT('',(1.80601482972,40.201828159277));
#556 = CARTESIAN_POINT('',(1.817361999133,40.32456169375));
#557 = CARTESIAN_POINT('',(1.826616035404,40.45340651331));
#558 = CARTESIAN_POINT('',(1.833647688132,40.586894459029));
#559 = CARTESIAN_POINT('',(1.83836769903,40.72351418069));
#560 = CARTESIAN_POINT('',(1.840729122628,40.861732321092));
#561 = CARTESIAN_POINT('',(1.840729122628,41.146122016639));
#562 = CARTESIAN_POINT('',(1.838091796962,41.292115885485));
#563 = CARTESIAN_POINT('',(1.832825005843,41.436883137601));
#564 = CARTESIAN_POINT('',(1.824918486277,41.579271183711));
#565 = CARTESIAN_POINT('',(1.81435150505,41.717993971444));
#566 = CARTESIAN_POINT('',(1.801098121736,41.851544752193));
#567 = CARTESIAN_POINT('',(1.785132104556,41.978082730575));
#568 = CARTESIAN_POINT('',(1.749416276512,42.201930531996));
#569 = CARTESIAN_POINT('',(1.729794132678,42.302987015988));
#570 = CARTESIAN_POINT('',(1.707673085768,42.394380715246));
#571 = CARTESIAN_POINT('',(1.683296008872,42.472560815751));
#572 = CARTESIAN_POINT('',(1.656998557167,42.534493124697));
#573 = CARTESIAN_POINT('',(1.629177812098,42.577650370466));
#574 = CARTESIAN_POINT('',(1.600277840872,42.6));
#575 = CARTESIAN_POINT('',(1.570796326795,42.6));
#576 = ( GEOMETRIC_REPRESENTATION_CONTEXT(2) 
PARAMETRIC_REPRESENTATION_CONTEXT() REPRESENTATION_CONTEXT('2D SPACE',''
  ) );
#577 = PCURVE('',#383,#578);
#578 = DEFINITIONAL_REPRESENTATION('',(#579),#638);
#579 = B_SPLINE_CURVE_WITH_KNOTS('',8,(#580,#581,#582,#583,#584,#585,
    #586,#587,#588,#589,#590,#591,#592,#593,#594,#595,#596,#597,#598,
    #599,#600,#601,#602,#603,#604,#605,#606,#607,#608,#609,#610,#611,
    #612,#613,#614,#615,#616,#617,#618,#619,#620,#621,#622,#623,#624,
    #625,#626,#627,#628,#629,#630,#631,#632,#633,#634,#635,#636,#637),
  .UNSPECIFIED.,.F.,.F.,(9,7,7,7,7,7,7,7,9),(0.,0.131641220218,
    0.276236929167,0.443125307043,0.589761710515,0.684729885553,
    0.78917282804,0.899548683774,1.),.UNSPECIFIED.);
#580 = CARTESIAN_POINT('',(0.,-14.));
#581 = CARTESIAN_POINT('',(-0.110600761629,-14.));
#582 = CARTESIAN_POINT('',(-0.218987922905,-13.99403490706));
#583 = CARTESIAN_POINT('',(-0.325219618516,-13.98252423785));
#584 = CARTESIAN_POINT('',(-0.429232058253,-13.96644163564));
#585 = CARTESIAN_POINT('',(-0.530844128668,-13.94718381969));
#586 = CARTESIAN_POINT('',(-0.629727617643,-13.92633591381));
#587 = CARTESIAN_POINT('',(-0.725339670958,-13.90539878163));
#588 = CARTESIAN_POINT('',(-0.917290281514,-13.86373535083));
#589 = CARTESIAN_POINT('',(-1.014945590846,-13.84276169425));
#590 = CARTESIAN_POINT('',(-1.110389890924,-13.82381431982));
#591 = CARTESIAN_POINT('',(-1.204119265824,-13.80780420235));
#592 = CARTESIAN_POINT('',(-1.296588033564,-13.79537872596));
#593 = CARTESIAN_POINT('',(-1.388230680693,-13.78695207844));
#594 = CARTESIAN_POINT('',(-1.479476075507,-13.78273291792));
#595 = CARTESIAN_POINT('',(-1.676195641306,-13.78273291792));
#596 = CARTESIAN_POINT('',(-1.781440170411,-13.78835314121));
#597 = CARTESIAN_POINT('',(-1.887306972742,-13.799566367));
#598 = CARTESIAN_POINT('',(-1.99446512667,-13.81600784185));
#599 = CARTESIAN_POINT('',(-2.10359392189,-13.83695556087));
#600 = CARTESIAN_POINT('',(-2.215403577298,-13.86124904307));
#601 = CARTESIAN_POINT('',(-2.330675896187,-13.887217132));
#602 = CARTESIAN_POINT('',(-2.555674943921,-13.93506299458));
#603 = CARTESIAN_POINT('',(-2.66809658867,-13.95784550424));
#604 = CARTESIAN_POINT('',(-2.785051958896,-13.97870859568));
#605 = CARTESIAN_POINT('',(-2.904927256563,-13.99494497717));
#606 = CARTESIAN_POINT('',(-3.026603639919,-14.00424471037));
#607 = CARTESIAN_POINT('',(-3.149136969986,-14.00557237881));
#608 = CARTESIAN_POINT('',(-3.271636362908,-13.99928383347));
#609 = CARTESIAN_POINT('',(-3.471468718599,-13.97870092801));
#610 = CARTESIAN_POINT('',(-3.550007214859,-13.96795662904));
#611 = CARTESIAN_POINT('',(-3.628538192313,-13.95484965695));
#612 = CARTESIAN_POINT('',(-3.707070365011,-13.939803951));
#613 = CARTESIAN_POINT('',(-3.785610711078,-13.92335837016));
#614 = CARTESIAN_POINT('',(-3.864159450519,-13.90613525256));
#615 = CARTESIAN_POINT('',(-3.942707813141,-13.88879550725));
#616 = CARTESIAN_POINT('',(-4.107604224832,-13.85348734638));
#617 = CARTESIAN_POINT('',(-4.194022836477,-13.83561339094));
#618 = CARTESIAN_POINT('',(-4.280440887572,-13.81921779748));
#619 = CARTESIAN_POINT('',(-4.366837452247,-13.80513339577));
#620 = CARTESIAN_POINT('',(-4.453214106465,-13.79406375531));
#621 = CARTESIAN_POINT('',(-4.539585652057,-13.78651083088));
#622 = CARTESIAN_POINT('',(-4.625971681067,-13.78273291792));
#623 = CARTESIAN_POINT('',(-4.803715240784,-13.78273291792));
#624 = CARTESIAN_POINT('',(-4.894961301146,-13.78695262548));
#625 = CARTESIAN_POINT('',(-4.986601896368,-13.79537954084));
#626 = CARTESIAN_POINT('',(-5.079067614691,-13.807804675));
#627 = CARTESIAN_POINT('',(-5.172794291431,-13.82381416842));
#628 = CARTESIAN_POINT('',(-5.268237269282,-13.84276117275));
#629 = CARTESIAN_POINT('',(-5.36589309437,-13.86373493164));
#630 = CARTESIAN_POINT('',(-5.557814763733,-13.90539208067));
#631 = CARTESIAN_POINT('',(-5.653432133887,-13.92633023507));
#632 = CARTESIAN_POINT('',(-5.752338495904,-13.9471841618));
#633 = CARTESIAN_POINT('',(-5.853978315859,-13.96644808896));
#634 = CARTESIAN_POINT('',(-5.958013681513,-13.9825325101));
#635 = CARTESIAN_POINT('',(-6.064254953464,-13.99403976664));
#636 = CARTESIAN_POINT('',(-6.172629629392,-14.));
#637 = CARTESIAN_POINT('',(-6.28318530718,-14.));
#638 = ( GEOMETRIC_REPRESENTATION_CONTEXT(2) 
PARAMETRIC_REPRESENTATION_CONTEXT() REPRESENTATION_CONTEXT('2D SPACE',''
  ) );
#639 = ADVANCED_FACE('',(#640),#243,.T.);
#640 = FACE_BOUND('',#641,.T.);
#641 = EDGE_LOOP('',(#642,#643,#666,#693));
#642 = ORIENTED_EDGE('',*,*,#228,.T.);
#643 = ORIENTED_EDGE('',*,*,#644,.T.);
#644 = EDGE_CURVE('',#204,#645,#647,.T.);
#645 = VERTEX_POINT('',#646);
#646 = CARTESIAN_POINT('',(51.,5.,0.));
#647 = SEAM_CURVE('',#648,(#652,#659),.PCURVE_S1.);
#648 = LINE('',#649,#650);
#649 = CARTESIAN_POINT('',(50.,6.,0.));
#650 = VECTOR('',#651,1.);
#651 = DIRECTION('',(0.707106781187,-0.707106781187,0.));
#652 = PCURVE('',#243,#653);
#653 = DEFINITIONAL_REPRESENTATION('',(#654),#658);
#654 = LINE('',#655,#656);
#655 = CARTESIAN_POINT('',(-0.,-0.));
#656 = VECTOR('',#657,1.);
#657 = DIRECTION('',(-0.,-1.));
#658 = ( GEOMETRIC_REPRESENTATION_CONTEXT(2) 
PARAMETRIC_REPRESENTATION_CONTEXT() REPRESENTATION_CONTEXT('2D SPACE',''
  ) );
#659 = PCURVE('',#243,#660);
#660 = DEFINITIONAL_REPRESENTATION('',(#661),#665);
#661 = LINE('',#662,#663);
#662 = CARTESIAN_POINT('',(-6.28318530718,-0.));
#663 = VECTOR('',#664,1.);
#664 = DIRECTION('',(-0.,-1.));
#665 = ( GEOMETRIC_REPRESENTATION_CONTEXT(2) 
PARAMETRIC_REPRESENTATION_CONTEXT() REPRESENTATION_CONTEXT('2D SPACE',''
  ) );
#666 = ORIENTED_EDGE('',*,*,#667,.F.);
#667 = EDGE_CURVE('',#645,#645,#668,.T.);
#668 = SURFACE_CURVE('',#669,(#674,#681),.PCURVE_S1.);
#669 = CIRCLE('',#670,5.);
#670 = AXIS2_PLACEMENT_3D('',#671,#672,#673);
#671 = CARTESIAN_POINT('',(51.,0.,0.));
#672 = DIRECTION('',(1.,0.,0.));
#673 = DIRECTION('',(-0.,1.,0.));
#674 = PCURVE('',#243,#675);
#675 = DEFINITIONAL_REPRESENTATION('',(#676),#680);
#676 = LINE('',#677,#678);
#677 = CARTESIAN_POINT('',(-0.,-1.));
#678 = VECTOR('',#679,1.);
#679 = DIRECTION('',(-1.,-0.));
#680 = ( GEOMETRIC_REPRESENTATION_CONTEXT(2) 
PARAMETRIC_REPRESENTATION_CONTEXT() REPRESENTATION_CONTEXT('2D SPACE',''
  ) );
#681 = PCURVE('',#682,#687);
#682 = PLANE('',#683);
#683 = AXIS2_PLACEMENT_3D('',#684,#685,#686);
#684 = CARTESIAN_POINT('',(51.,0.,0.));
#685 = DIRECTION('',(1.,0.,0.));
#686 = DIRECTION('',(-0.,1.,0.));
#687 = DEFINITIONAL_REPRESENTATION('',(#688),#692);
#688 = CIRCLE('',#689,5.);
#689 = AXIS2_PLACEMENT_2D('',#690,#691);
#690 = CARTESIAN_POINT('',(0.,0.));
#691 = DIRECTION('',(1.,0.));
#692 = ( GEOMETRIC_REPRESENTATION_CONTEXT(2) 
PARAMETRIC_REPRESENTATION_CONTEXT() REPRESENTATION_CONTEXT('2D SPACE',''
  ) );
#693 = ORIENTED_EDGE('',*,*,#644,.F.);
#694 = ADVANCED_FACE('',(#695),#383,.F.);
#695 = FACE_BOUND('',#696,.T.);
#696 = EDGE_LOOP('',(#697,#698,#719,#720));
#697 = ORIENTED_EDGE('',*,*,#257,.F.);
#698 = ORIENTED_EDGE('',*,*,#699,.T.);
#699 = EDGE_CURVE('',#258,#453,#700,.T.);
#700 = SEAM_CURVE('',#701,(#705,#712),.PCURVE_S1.);
#701 = LINE('',#702,#703);
#702 = CARTESIAN_POINT('',(45.6,0.,-8.));
#703 = VECTOR('',#704,1.);
#704 = DIRECTION('',(0.,0.,1.));
#705 = PCURVE('',#383,#706);
#706 = DEFINITIONAL_REPRESENTATION('',(#707),#711);
#707 = LINE('',#708,#709);
#708 = CARTESIAN_POINT('',(-6.28318530718,0.));
#709 = VECTOR('',#710,1.);
#710 = DIRECTION('',(-0.,-1.));
#711 = ( GEOMETRIC_REPRESENTATION_CONTEXT(2) 
PARAMETRIC_REPRESENTATION_CONTEXT() REPRESENTATION_CONTEXT('2D SPACE',''
  ) );
#712 = PCURVE('',#383,#713);
#713 = DEFINITIONAL_REPRESENTATION('',(#714),#718);
#714 = LINE('',#715,#716);
#715 = CARTESIAN_POINT('',(-0.,0.));
#716 = VECTOR('',#717,1.);
#717 = DIRECTION('',(-0.,-1.));
#718 = ( GEOMETRIC_REPRESENTATION_CONTEXT(2) 
PARAMETRIC_REPRESENTATION_CONTEXT() REPRESENTATION_CONTEXT('2D SPACE',''
  ) );
#719 = ORIENTED_EDGE('',*,*,#452,.T.);
#720 = ORIENTED_EDGE('',*,*,#699,.F.);
#721 = ADVANCED_FACE('',(#722),#682,.T.);
#722 = FACE_BOUND('',#723,.T.);
#723 = EDGE_LOOP('',(#724));
#724 = ORIENTED_EDGE('',*,*,#667,.T.);
#725 = ( GEOMETRIC_REPRESENTATION_CONTEXT(3) 
GLOBAL_UNCERTAINTY_ASSIGNED_CONTEXT((#729)) GLOBAL_UNIT_ASSIGNED_CONTEXT
((#726,#727,#728)) REPRESENTATION_CONTEXT('Context #1',
  '3D Context with UNIT and UNCERTAINTY') );
#726 = ( LENGTH_UNIT() NAMED_UNIT(*) SI_UNIT(.MILLI.,.METRE.) );
#727 = ( NAMED_UNIT(*) PLANE_ANGLE_UNIT() SI_UNIT($,.RADIAN.) );
#728 = ( NAMED_UNIT(*) SI_UNIT($,.STERADIAN.) SOLID_ANGLE_UNIT() );
#729 = UNCERTAINTY_MEASURE_WITH_UNIT(LENGTH_MEASURE(1.E-07),#726,
  'distance_accuracy_value','confusion accuracy');
#730 = PRODUCT_RELATED_PRODUCT_CATEGORY('part',$,(#7));
ENDSEC;
END-ISO-10303-21;
