#usda 1.0
(
    defaultPrim = "clevis_pin"
    metersPerUnit = 0.001
    upAxis = "Y"
    doc = "VRINGON revolve part — CadQuery executor"
)

def Xform "clevis_pin" (
    kind = "component"
)
{
    custom string vringon:dsl_version = "vringon-shaft/1.0"
    custom string vringon:dsl_json = "{\"dsl\":\"vringon-shaft/1.0\",\"id\":\"clevis-pin\",\"name\":\"Clevis pin\",\"name_ko\":\"클레비스 핀\",\"part_class\":\"pin\",\"units\":\"mm\",\"material\":\"S45C\",\"drawing\":{\"number\":\"VR-RB-002\",\"scale\":\"2:1\",\"projection\":\"third\"},\"segments\":[{\"type\":\"cyl\",\"length\":3,\"diameter\":16},{\"type\":\"cyl\",\"length\":48,\"diameter\":12,\"tolerance\":\"h11\"}],\"transitions\":[{\"at\":0,\"type\":\"chamfer\",\"size\":0.5},{\"at\":2,\"type\":\"chamfer\",\"size\":1}],\"grooves\":[],\"bore\":null,\"features\":[{\"type\":\"cross_hole\",\"position\":44,\"diameter\":3.2,\"through\":true,\"angle\":0}],\"meta\":{\"source\":\"golden\",\"difficulty\":1}}"
    custom string vringon:name_ko = "클레비스 핀"
    custom string vringon:material = "S45C"
    custom double vringon:length_mm = 51.0
    custom double vringon:max_diameter_mm = 16
    custom double vringon:volume_mm3 = 5912.250
    custom double[] vringon:segment_lengths_mm = [3, 48]
    custom string[] vringon:segment_types = ["cyl", "cyl"]
    custom string[] vringon:threads = []
    custom string[] vringon:features = ["cross_hole"]

    def Mesh "body"
    {
        float3[] extent = [(0.0000, -7.9901, -7.9975), (51.0000, 8.0000, 7.9975)]
        int[] faceVertexCounts = [3, 3, 3, 3, 3, 3, 3, 3, 3, 3, 3, 3, 3, 3, 3, 3, 3, 3, 3, 3, 3, 3, 3, 3, 3, 3, 3, 3, 3, 3, 3, 3, 3, 3, 3, 3, 3, 3, 3, 3, 3, 3, 3, 3, 3, 3, 3, 3, 3, 3, 3, 3, 3, 3, 3, 3, 3, 3, 3, 3, 3, 3, 3, 3, 3, 3, 3, 3, 3, 3, 3, 3, 3, 3, 3, 3, 3, 3, 3, 3, 3, 3, 3, 3, 3, 3, 3, 3, 3, 3, 3, 3, 3, 3, 3, 3, 3, 3, 3, 3, 3, 3, 3, 3, 3, 3, 3, 3, 3, 3, 3, 3, 3, 3, 3, 3, 3, 3, 3, 3, 3, 3, 3, 3, 3, 3, 3, 3, 3, 3, 3, 3, 3, 3, 3, 3, 3, 3, 3, 3, 3, 3, 3, 3, 3, 3, 3, 3, 3, 3, 3, 3, 3, 3, 3, 3, 3, 3, 3, 3, 3, 3, 3, 3, 3, 3, 3, 3, 3, 3, 3, 3, 3, 3, 3, 3, 3, 3, 3, 3, 3, 3, 3, 3, 3, 3, 3, 3, 3, 3, 3, 3, 3, 3, 3, 3, 3, 3, 3, 3, 3, 3, 3, 3, 3, 3, 3, 3, 3, 3, 3, 3, 3, 3, 3, 3, 3, 3, 3, 3, 3, 3, 3, 3, 3, 3, 3, 3, 3, 3, 3, 3, 3, 3, 3, 3, 3, 3, 3, 3, 3, 3, 3, 3, 3, 3, 3, 3, 3, 3, 3, 3, 3, 3, 3, 3, 3, 3, 3, 3, 3, 3, 3, 3, 3, 3, 3, 3, 3, 3, 3, 3, 3, 3, 3, 3, 3, 3, 3, 3, 3, 3, 3, 3, 3, 3, 3, 3, 3, 3, 3, 3, 3, 3, 3, 3, 3, 3, 3, 3, 3, 3, 3, 3, 3, 3, 3, 3, 3, 3, 3, 3, 3, 3, 3, 3, 3, 3, 3, 3, 3, 3, 3, 3, 3, 3, 3, 3, 3, 3, 3, 3, 3, 3, 3, 3, 3, 3, 3, 3, 3, 3, 3, 3, 3, 3, 3, 3, 3, 3, 3, 3, 3, 3, 3, 3, 3, 3, 3, 3, 3, 3, 3, 3, 3, 3, 3, 3, 3, 3, 3, 3, 3, 3, 3, 3, 3, 3, 3, 3, 3, 3, 3, 3, 3, 3, 3, 3, 3, 3, 3, 3, 3, 3, 3, 3, 3, 3, 3, 3, 3, 3, 3, 3, 3, 3, 3, 3, 3, 3, 3, 3, 3, 3, 3, 3, 3, 3, 3, 3, 3, 3, 3, 3, 3, 3, 3, 3, 3, 3, 3, 3, 3, 3, 3, 3, 3, 3, 3, 3, 3, 3, 3, 3, 3, 3, 3, 3, 3, 3, 3, 3, 3, 3, 3, 3, 3, 3, 3, 3, 3, 3, 3, 3, 3, 3, 3, 3, 3, 3, 3, 3, 3, 3, 3, 3, 3, 3, 3, 3, 3, 3, 3, 3, 3, 3, 3, 3, 3, 3, 3, 3, 3, 3, 3, 3, 3, 3, 3, 3, 3, 3, 3, 3, 3, 3, 3, 3, 3, 3, 3, 3, 3, 3, 3, 3, 3, 3, 3, 3, 3, 3, 3, 3, 3, 3, 3, 3, 3, 3, 3, 3, 3, 3, 3, 3, 3, 3, 3, 3, 3, 3, 3, 3, 3, 3, 3, 3, 3, 3, 3, 3, 3, 3, 3, 3, 3, 3, 3, 3, 3, 3, 3, 3, 3, 3, 3, 3, 3, 3, 3, 3, 3, 3, 3, 3, 3, 3, 3, 3, 3, 3, 3, 3, 3, 3, 3, 3, 3, 3, 3, 3, 3, 3, 3, 3, 3, 3, 3, 3, 3, 3, 3, 3, 3, 3, 3, 3, 3, 3, 3, 3, 3, 3, 3, 3, 3, 3, 3, 3, 3, 3, 3, 3, 3, 3, 3, 3, 3, 3, 3, 3, 3, 3, 3, 3, 3, 3, 3, 3, 3, 3, 3, 3, 3, 3, 3, 3, 3, 3, 3, 3, 3, 3, 3, 3, 3, 3, 3, 3, 3, 3, 3, 3, 3, 3, 3, 3, 3, 3, 3, 3, 3, 3, 3, 3, 3, 3, 3, 3, 3, 3, 3, 3, 3, 3, 3, 3, 3, 3, 3, 3, 3, 3, 3, 3, 3, 3, 3, 3, 3, 3, 3, 3, 3, 3, 3, 3, 3, 3, 3, 3, 3, 3, 3, 3, 3, 3, 3, 3, 3, 3, 3, 3, 3, 3, 3, 3, 3, 3, 3, 3, 3, 3, 3, 3, 3, 3, 3, 3, 3, 3, 3, 3, 3, 3, 3, 3, 3, 3, 3, 3, 3, 3, 3, 3, 3, 3, 3, 3, 3, 3, 3, 3, 3, 3, 3, 3, 3, 3, 3, 3, 3, 3, 3, 3, 3, 3, 3, 3, 3, 3, 3, 3, 3, 3, 3, 3, 3, 3, 3, 3, 3, 3, 3, 3, 3, 3, 3, 3, 3, 3, 3, 3, 3, 3, 3, 3, 3, 3, 3, 3, 3, 3, 3, 3, 3, 3, 3, 3, 3, 3, 3, 3, 3, 3, 3, 3, 3, 3, 3, 3, 3, 3, 3, 3, 3, 3, 3, 3, 3, 3, 3, 3, 3, 3, 3, 3, 3, 3, 3, 3, 3, 3, 3, 3, 3, 3, 3, 3, 3, 3, 3, 3, 3, 3, 3, 3, 3, 3, 3, 3, 3, 3, 3, 3, 3, 3, 3, 3, 3, 3, 3, 3, 3, 3, 3, 3, 3, 3, 3, 3, 3, 3, 3, 3, 3, 3, 3, 3, 3, 3, 3, 3, 3, 3, 3, 3, 3, 3, 3, 3, 3, 3, 3, 3, 3, 3, 3, 3, 3, 3, 3, 3, 3, 3, 3, 3, 3, 3, 3, 3, 3, 3, 3, 3, 3, 3, 3, 3, 3, 3, 3, 3, 3, 3, 3, 3, 3, 3, 3, 3, 3, 3, 3, 3, 3, 3, 3, 3, 3, 3, 3, 3, 3, 3, 3, 3, 3, 3, 3, 3, 3, 3, 3, 3, 3, 3, 3, 3, 3, 3, 3, 3, 3, 3, 3, 3, 3, 3, 3, 3, 3, 3, 3, 3, 3, 3, 3, 3, 3, 3, 3, 3, 3, 3, 3, 3, 3, 3, 3, 3, 3, 3, 3, 3, 3, 3, 3, 3, 3, 3, 3, 3, 3, 3, 3, 3, 3, 3, 3, 3, 3, 3, 3, 3, 3, 3, 3, 3, 3, 3, 3, 3, 3, 3, 3, 3, 3, 3, 3, 3, 3, 3, 3, 3, 3, 3, 3, 3, 3, 3, 3, 3, 3, 3, 3, 3, 3, 3, 3, 3, 3, 3, 3, 3, 3, 3, 3, 3, 3, 3, 3, 3, 3, 3, 3, 3, 3, 3, 3, 3, 3, 3, 3, 3, 3, 3, 3, 3, 3, 3, 3, 3, 3, 3, 3, 3, 3, 3, 3, 3, 3, 3, 3, 3, 3, 3, 3, 3, 3, 3, 3, 3, 3, 3, 3, 3]
        int[] faceVertexIndices = [66, 0, 1, 66, 65, 0, 67, 1, 2, 67, 66, 1, 68, 2, 3, 68, 67, 2, 69, 3, 4, 69, 68, 3, 70, 4, 5, 70, 69, 4, 6, 70, 5, 71, 70, 6, 72, 6, 7, 72, 71, 6, 73, 7, 8, 73, 72, 7, 9, 73, 8, 74, 73, 9, 75, 9, 10, 75, 74, 9, 76, 10, 11, 76, 75, 10, 77, 11, 12, 77, 76, 11, 13, 77, 12, 78, 77, 13, 14, 78, 13, 79, 78, 14, 80, 14, 15, 80, 79, 14, 81, 15, 16, 81, 80, 15, 82, 16, 17, 82, 81, 16, 83, 17, 18, 83, 82, 17, 84, 83, 18, 84, 18, 19, 85, 84, 19, 85, 19, 20, 86, 85, 20, 86, 20, 21, 22, 86, 21, 87, 86, 22, 88, 87, 22, 88, 22, 23, 89, 23, 24, 89, 88, 23, 25, 89, 24, 90, 89, 25, 26, 90, 25, 91, 90, 26, 92, 26, 27, 92, 91, 26, 93, 27, 28, 93, 92, 27, 94, 28, 29, 94, 93, 28, 95, 29, 30, 95, 94, 29, 96, 30, 31, 96, 95, 30, 97, 31, 32, 97, 96, 31, 98, 32, 33, 98, 97, 32, 99, 33, 34, 99, 98, 33, 35, 99, 34, 100, 99, 35, 36, 100, 35, 101, 100, 36, 102, 36, 37, 102, 101, 36, 103, 37, 38, 103, 102, 37, 104, 38, 39, 104, 103, 38, 105, 39, 40, 105, 104, 39, 106, 40, 41, 106, 105, 40, 107, 41, 42, 107, 106, 41, 43, 107, 42, 108, 107, 43, 44, 108, 43, 109, 108, 44, 45, 109, 44, 110, 109, 45, 111, 110, 45, 111, 45, 46, 112, 111, 46, 112, 46, 47, 48, 112, 47, 113, 112, 48, 49, 113, 48, 114, 113, 49, 115, 114, 49, 115, 49, 50, 116, 115, 50, 116, 50, 51, 117, 116, 51, 117, 51, 52, 118, 117, 52, 118, 52, 53, 119, 118, 53, 119, 53, 54, 55, 119, 54, 120, 119, 55, 56, 120, 55, 121, 120, 56, 122, 56, 57, 122, 121, 56, 58, 122, 57, 123, 122, 58, 124, 58, 59, 124, 123, 58, 60, 124, 59, 125, 124, 60, 61, 125, 60, 126, 125, 61, 127, 61, 62, 127, 126, 61, 64, 62, 63, 64, 127, 62, 182, 184, 183, 185, 184, 182, 181, 185, 182, 186, 185, 181, 179, 181, 180, 190, 187, 186, 190, 188, 187, 190, 189, 188, 176, 178, 177, 176, 179, 178, 176, 181, 179, 175, 181, 176, 129, 128, 190, 129, 190, 186, 172, 174, 173, 172, 175, 174, 172, 186, 181, 172, 181, 175, 132, 131, 130, 133, 130, 129, 133, 132, 130, 135, 134, 133, 168, 170, 169, 168, 171, 170, 167, 186, 172, 167, 171, 168, 167, 172, 171, 138, 137, 136, 139, 136, 135, 139, 135, 133, 139, 138, 136, 139, 133, 129, 164, 166, 165, 163, 167, 166, 163, 166, 164, 141, 140, 139, 161, 163, 162, 143, 142, 141, 143, 141, 139, 160, 167, 163, 160, 163, 161, 144, 143, 139, 158, 160, 159, 157, 160, 158, 149, 147, 146, 149, 148, 147, 154, 156, 155, 150, 145, 144, 150, 146, 145, 150, 149, 146, 151, 129, 186, 151, 139, 129, 151, 186, 167, 151, 167, 160, 151, 144, 139, 151, 150, 144, 152, 154, 153, 152, 157, 156, 152, 160, 157, 152, 151, 160, 152, 156, 154, 257, 191, 192, 257, 256, 191, 258, 192, 193, 258, 257, 192, 259, 193, 194, 259, 258, 193, 260, 194, 195, 260, 259, 194, 261, 195, 196, 261, 260, 195, 262, 196, 197, 262, 261, 196, 263, 197, 198, 263, 198, 199, 263, 262, 197, 264, 263, 199, 265, 199, 200, 265, 264, 199, 266, 200, 201, 266, 265, 200, 267, 201, 202, 267, 202, 203, 267, 266, 201, 268, 267, 203, 269, 203, 204, 269, 268, 203, 270, 204, 205, 270, 269, 204, 271, 205, 206, 271, 206, 207, 271, 270, 205, 272, 271, 207, 273, 272, 207, 273, 207, 208, 274, 208, 209, 274, 209, 210, 274, 273, 208, 275, 274, 210, 276, 275, 210, 276, 210, 211, 277, 276, 211, 277, 211, 212, 278, 277, 212, 278, 212, 213, 279, 278, 213, 279, 213, 214, 280, 214, 215, 280, 279, 214, 281, 215, 216, 281, 280, 215, 282, 216, 217, 282, 281, 216, 283, 217, 218, 283, 282, 217, 284, 218, 219, 284, 219, 220, 284, 283, 218, 285, 284, 220, 286, 220, 221, 286, 285, 220, 287, 221, 222, 287, 286, 221, 288, 222, 223, 288, 287, 222, 289, 223, 224, 289, 288, 223, 290, 224, 225, 290, 289, 224, 291, 225, 226, 291, 290, 225, 292, 226, 227, 292, 291, 226, 293, 227, 228, 293, 228, 229, 293, 292, 227, 294, 229, 230, 294, 293, 229, 295, 294, 230, 296, 230, 231, 296, 295, 230, 297, 231, 232, 297, 296, 231, 298, 232, 233, 298, 297, 232, 299, 298, 233, 299, 233, 234, 300, 299, 234, 300, 234, 235, 301, 300, 235, 301, 235, 236, 302, 301, 236, 302, 236, 237, 302, 237, 238, 303, 302, 238, 304, 303, 238, 304, 238, 239, 305, 304, 239, 305, 239, 240, 306, 305, 240, 306, 240, 241, 306, 241, 242, 307, 306, 242, 308, 307, 242, 308, 242, 243, 308, 243, 244, 309, 308, 244, 310, 309, 244, 310, 244, 245, 310, 245, 246, 311, 310, 246, 312, 246, 247, 312, 311, 246, 313, 247, 248, 313, 248, 249, 313, 312, 247, 314, 313, 249, 315, 249, 250, 315, 314, 249, 316, 250, 251, 316, 315, 250, 317, 251, 252, 317, 316, 251, 318, 252, 253, 318, 317, 252, 255, 253, 254, 255, 318, 253, 422, 358, 359, 422, 359, 360, 422, 421, 358, 420, 357, 358, 420, 358, 421, 423, 422, 360, 419, 356, 357, 419, 357, 420, 424, 360, 361, 424, 423, 360, 418, 355, 356, 418, 356, 419, 425, 424, 361, 425, 361, 362, 425, 362, 363, 417, 354, 355, 417, 355, 418, 426, 425, 363, 426, 363, 364, 416, 353, 354, 416, 354, 417, 427, 426, 364, 427, 364, 365, 415, 352, 353, 415, 353, 416, 428, 427, 365, 414, 351, 352, 414, 352, 415, 429, 428, 365, 429, 365, 366, 413, 350, 351, 413, 351, 414, 430, 366, 367, 430, 429, 366, 412, 349, 350, 412, 350, 413, 431, 367, 368, 431, 430, 367, 411, 348, 349, 411, 349, 412, 432, 431, 368, 432, 368, 369, 410, 347, 348, 410, 348, 411, 433, 432, 369, 433, 369, 370, 433, 370, 371, 409, 347, 410, 409, 346, 347, 434, 433, 371, 408, 345, 346, 408, 346, 409, 435, 434, 371, 435, 371, 372, 407, 344, 345, 407, 345, 408, 436, 435, 372, 436, 372, 373, 343, 344, 407, 406, 343, 407, 437, 436, 373, 437, 373, 374, 405, 343, 406, 342, 343, 405, 375, 438, 437, 375, 437, 374, 341, 342, 405, 341, 405, 404, 376, 439, 438, 376, 438, 375, 440, 439, 376, 340, 341, 404, 340, 404, 403, 377, 440, 376, 339, 340, 403, 339, 402, 401, 339, 403, 402, 378, 441, 440, 378, 440, 377, 338, 401, 400, 338, 339, 401, 379, 442, 441, 379, 441, 378, 337, 338, 400, 380, 443, 442, 380, 444, 443, 380, 442, 379, 336, 337, 400, 336, 399, 398, 336, 400, 399, 381, 444, 380, 335, 336, 398, 319, 444, 381, 319, 382, 444, 334, 335, 398, 334, 398, 397, 320, 382, 319, 320, 383, 382, 333, 334, 397, 333, 397, 396, 321, 383, 320, 321, 384, 383, 321, 385, 384, 332, 333, 396, 332, 396, 395, 322, 385, 321, 331, 332, 395, 331, 395, 394, 323, 385, 322, 323, 386, 385, 330, 331, 394, 330, 394, 393, 324, 386, 323, 324, 387, 386, 329, 330, 393, 329, 392, 391, 329, 393, 392, 325, 387, 324, 325, 388, 387, 325, 389, 388, 328, 329, 391, 328, 391, 390, 326, 389, 325, 327, 390, 389, 327, 328, 390, 327, 389, 326, 511, 446, 445, 511, 445, 447, 512, 447, 448, 512, 448, 449, 512, 511, 447, 513, 512, 449, 514, 513, 449, 514, 449, 450, 514, 450, 451, 515, 514, 451, 516, 451, 452, 516, 452, 453, 516, 515, 451, 517, 516, 453, 518, 517, 453, 518, 453, 454, 518, 454, 455, 519, 518, 455, 519, 455, 456, 520, 519, 456, 521, 456, 457, 521, 457, 458, 521, 520, 456, 522, 521, 458, 671, 458, 459, 671, 522, 458, 672, 671, 459, 673, 672, 459, 674, 673, 459, 675, 674, 459, 676, 675, 459, 677, 676, 459, 523, 667, 666, 523, 668, 667, 523, 669, 668, 523, 670, 669, 523, 671, 670, 523, 522, 671, 665, 523, 666, 678, 677, 459, 664, 523, 665, 679, 678, 459, 663, 523, 664, 680, 459, 460, 680, 679, 459, 662, 523, 663, 681, 680, 460, 682, 681, 460, 683, 682, 460, 684, 683, 460, 685, 684, 460, 524, 659, 658, 524, 660, 659, 524, 661, 660, 524, 662, 661, 524, 523, 662, 657, 524, 658, 686, 460, 461, 686, 685, 460, 656, 524, 657, 687, 686, 461, 688, 687, 461, 689, 688, 461, 525, 654, 653, 525, 655, 654, 525, 656, 655, 525, 524, 656, 690, 689, 461, 652, 525, 653, 691, 690, 461, 691, 461, 462, 651, 525, 652, 692, 691, 462, 693, 692, 462, 694, 693, 462, 526, 651, 650, 526, 525, 651, 526, 650, 726, 725, 526, 726, 695, 462, 463, 695, 694, 462, 724, 526, 725, 696, 695, 463, 697, 696, 463, 698, 697, 463, 527, 526, 724, 527, 722, 721, 527, 723, 722, 527, 724, 723, 699, 698, 463, 720, 527, 721, 700, 463, 464, 700, 699, 463, 719, 527, 720, 701, 700, 464, 702, 701, 464, 703, 702, 464, 704, 703, 464, 705, 704, 464, 528, 716, 715, 528, 717, 716, 528, 718, 717, 528, 719, 718, 528, 527, 719, 714, 528, 715, 706, 705, 464, 713, 528, 714, 707, 706, 464, 707, 464, 465, 712, 528, 713, 708, 707, 465, 709, 708, 465, 529, 528, 712, 529, 709, 465, 529, 710, 709, 529, 711, 710, 529, 712, 711, 530, 529, 465, 530, 465, 466, 531, 466, 467, 531, 530, 466, 532, 467, 468, 532, 531, 467, 533, 468, 469, 533, 532, 468, 534, 469, 470, 534, 533, 469, 535, 470, 471, 535, 471, 472, 535, 534, 470, 536, 535, 472, 537, 472, 473, 537, 473, 474, 537, 536, 472, 538, 537, 474, 539, 474, 475, 539, 538, 474, 540, 475, 476, 540, 539, 475, 541, 476, 477, 541, 477, 478, 541, 540, 476, 542, 541, 478, 543, 478, 479, 543, 542, 478, 544, 479, 480, 544, 543, 479, 545, 480, 481, 545, 481, 482, 545, 544, 480, 546, 482, 483, 546, 545, 482, 547, 546, 483, 548, 483, 484, 548, 547, 483, 549, 484, 485, 549, 548, 484, 550, 485, 486, 550, 549, 485, 551, 486, 487, 551, 550, 486, 552, 551, 487, 552, 487, 488, 553, 552, 488, 553, 488, 489, 554, 553, 489, 554, 489, 490, 632, 554, 490, 633, 554, 632, 631, 632, 490, 634, 554, 633, 630, 631, 490, 630, 490, 491, 635, 554, 634, 629, 630, 491, 628, 629, 491, 627, 628, 491, 626, 627, 491, 625, 626, 491, 624, 625, 491, 555, 554, 635, 555, 635, 636, 555, 636, 637, 555, 637, 638, 555, 638, 639, 555, 639, 640, 641, 555, 640, 623, 491, 492, 623, 624, 491, 642, 555, 641, 622, 623, 492, 621, 622, 492, 620, 621, 492, 619, 620, 492, 556, 555, 642, 556, 642, 643, 556, 643, 644, 556, 644, 645, 646, 556, 645, 618, 492, 493, 618, 619, 492, 647, 556, 646, 617, 618, 493, 616, 617, 493, 615, 616, 493, 557, 647, 648, 557, 648, 649, 557, 556, 647, 573, 557, 649, 614, 493, 494, 614, 615, 493, 574, 557, 573, 613, 614, 494, 612, 613, 494, 611, 612, 494, 610, 611, 494, 558, 557, 574, 558, 574, 575, 558, 575, 576, 558, 576, 577, 578, 558, 577, 609, 610, 494, 609, 494, 495, 579, 558, 578, 608, 609, 495, 607, 608, 495, 606, 607, 495, 605, 606, 495, 559, 558, 579, 559, 579, 580, 559, 580, 581, 559, 581, 582, 583, 559, 582, 604, 605, 495, 603, 604, 495, 603, 495, 496, 584, 559, 583, 602, 603, 496, 585, 559, 584, 601, 602, 496, 600, 601, 496, 599, 600, 496, 598, 599, 496, 597, 598, 496, 596, 597, 496, 595, 596, 496, 594, 496, 497, 594, 595, 496, 560, 585, 586, 560, 586, 587, 560, 587, 588, 560, 588, 589, 560, 589, 590, 560, 590, 591, 560, 591, 592, 560, 592, 593, 560, 593, 594, 560, 559, 585, 561, 560, 594, 561, 594, 497, 562, 497, 498, 562, 498, 499, 562, 561, 497, 563, 562, 499, 564, 563, 499, 564, 499, 500, 564, 500, 501, 565, 564, 501, 566, 565, 501, 566, 501, 502, 567, 566, 502, 567, 502, 503, 568, 567, 503, 568, 503, 504, 569, 568, 504, 569, 504, 505, 569, 505, 506, 570, 569, 506, 571, 570, 506, 571, 506, 507, 572, 571, 507, 572, 507, 508, 510, 572, 508, 510, 508, 509, 856, 727, 728, 794, 793, 856, 791, 789, 790, 792, 855, 791, 857, 728, 729, 857, 729, 730, 857, 856, 728, 857, 794, 856, 857, 795, 794, 857, 796, 795, 858, 730, 731, 858, 731, 732, 858, 857, 730, 858, 796, 857, 858, 797, 796, 858, 798, 797, 859, 732, 733, 859, 733, 734, 859, 858, 732, 859, 799, 798, 859, 800, 799, 859, 798, 858, 860, 800, 859, 860, 734, 735, 860, 735, 736, 860, 801, 800, 860, 802, 801, 860, 859, 734, 861, 736, 737, 861, 737, 738, 861, 860, 736, 861, 802, 860, 861, 803, 802, 861, 804, 803, 862, 738, 739, 862, 739, 740, 862, 861, 738, 862, 804, 861, 862, 805, 804, 862, 806, 805, 863, 806, 862, 863, 740, 741, 863, 741, 742, 863, 807, 806, 863, 808, 807, 863, 862, 740, 864, 742, 743, 864, 743, 744, 864, 863, 742, 864, 808, 863, 864, 809, 808, 864, 810, 809, 865, 744, 745, 865, 745, 746, 865, 810, 864, 865, 864, 744, 865, 811, 810, 865, 812, 811, 866, 746, 747, 866, 747, 748, 866, 865, 746, 866, 812, 865, 866, 813, 812, 866, 814, 813, 867, 748, 749, 867, 749, 750, 867, 866, 748, 867, 814, 866, 867, 815, 814, 867, 816, 815, 868, 750, 751, 868, 751, 752, 868, 867, 750, 868, 816, 867, 868, 817, 816, 868, 818, 817, 869, 868, 752, 869, 818, 868, 869, 752, 753, 869, 753, 754, 869, 819, 818, 869, 820, 819, 870, 754, 755, 870, 755, 756, 870, 869, 754, 870, 820, 869, 870, 821, 820, 870, 822, 821, 871, 756, 757, 871, 757, 758, 871, 870, 756, 871, 822, 870, 871, 823, 822, 871, 824, 823, 872, 758, 759, 872, 871, 758, 872, 824, 871, 872, 825, 824, 873, 872, 759, 873, 759, 760, 873, 760, 761, 873, 825, 872, 873, 826, 825, 873, 827, 826, 874, 829, 828, 874, 761, 762, 874, 762, 763, 874, 873, 761, 874, 827, 873, 874, 828, 827, 875, 830, 829, 875, 831, 830, 875, 763, 764, 875, 764, 765, 875, 874, 763, 875, 829, 874, 876, 832, 831, 876, 833, 832, 876, 765, 766, 876, 766, 767, 876, 875, 765, 876, 831, 875, 877, 834, 833, 877, 835, 834, 877, 767, 768, 877, 768, 769, 877, 833, 876, 877, 876, 767, 878, 836, 835, 878, 837, 836, 878, 769, 770, 878, 770, 771, 878, 835, 877, 878, 877, 769, 879, 878, 771, 879, 838, 837, 879, 839, 838, 879, 771, 772, 879, 772, 773, 879, 837, 878, 880, 839, 879, 880, 840, 839, 880, 841, 840, 880, 879, 773, 880, 773, 774, 880, 774, 775, 881, 842, 841, 881, 843, 842, 881, 880, 775, 881, 841, 880, 881, 775, 776, 881, 776, 777, 882, 844, 843, 882, 845, 844, 882, 843, 881, 882, 777, 778, 882, 778, 779, 882, 881, 777, 883, 846, 845, 883, 847, 846, 883, 882, 779, 883, 845, 882, 883, 779, 780, 883, 780, 781, 884, 848, 847, 884, 849, 848, 884, 781, 782, 884, 782, 783, 884, 847, 883, 884, 883, 781, 885, 850, 849, 885, 851, 850, 885, 849, 884, 885, 783, 784, 885, 784, 785, 885, 884, 783, 886, 852, 851, 886, 853, 852, 886, 885, 785, 886, 785, 786, 886, 786, 787, 886, 851, 885, 887, 853, 886, 887, 886, 787, 887, 854, 853, 887, 855, 854, 887, 787, 788, 887, 788, 789, 887, 789, 791, 887, 791, 855, 889, 888, 966, 889, 966, 967, 890, 889, 967, 890, 967, 968, 891, 890, 968, 891, 968, 969, 892, 891, 969, 892, 969, 970, 893, 892, 970, 893, 970, 971, 894, 893, 971, 894, 971, 972, 895, 972, 973, 895, 894, 972, 896, 973, 974, 896, 895, 973, 897, 974, 975, 897, 896, 974, 898, 975, 976, 898, 897, 975, 899, 898, 976, 899, 976, 977, 900, 899, 977, 900, 977, 978, 901, 900, 978, 901, 978, 979, 902, 901, 979, 902, 979, 980, 903, 902, 980, 903, 980, 981, 904, 903, 981, 904, 981, 982, 905, 904, 982, 905, 982, 983, 906, 905, 983, 906, 983, 984, 907, 906, 984, 907, 984, 985, 908, 907, 985, 908, 985, 986, 909, 908, 986, 909, 986, 987, 910, 909, 987, 910, 987, 988, 911, 988, 989, 911, 910, 988, 912, 989, 990, 912, 911, 989, 913, 990, 991, 913, 912, 990, 914, 991, 992, 914, 913, 991, 915, 992, 993, 915, 914, 992, 916, 993, 994, 916, 915, 993, 917, 994, 995, 917, 916, 994, 918, 995, 996, 918, 917, 995, 919, 996, 997, 919, 918, 996, 920, 997, 998, 920, 919, 997, 921, 998, 999, 921, 920, 998, 922, 999, 1000, 922, 921, 999, 923, 1000, 1001, 923, 922, 1000, 924, 1001, 1002, 924, 923, 1001, 925, 924, 1002, 925, 1002, 1003, 926, 925, 1003, 926, 1003, 1004, 927, 1004, 1005, 927, 926, 1004, 928, 1005, 1006, 928, 927, 1005, 929, 1006, 1007, 929, 928, 1006, 930, 1007, 1008, 930, 929, 1007, 931, 1008, 1009, 931, 930, 1008, 932, 1009, 1010, 932, 931, 1009, 933, 1010, 1011, 933, 932, 1010, 934, 1011, 1012, 934, 933, 1011, 935, 1012, 1013, 935, 934, 1012, 936, 1013, 1014, 936, 935, 1013, 937, 1014, 1015, 937, 936, 1014, 938, 1015, 1016, 938, 937, 1015, 939, 1016, 1017, 939, 938, 1016, 940, 1017, 1018, 940, 939, 1017, 941, 1018, 1019, 941, 940, 1018, 942, 1019, 1020, 942, 941, 1019, 943, 1020, 1021, 943, 942, 1020, 944, 1021, 1022, 944, 943, 1021, 945, 1022, 1023, 945, 944, 1022, 946, 1023, 1024, 946, 945, 1023, 947, 1024, 1025, 947, 946, 1024, 948, 1025, 1026, 948, 947, 1025, 949, 948, 1026, 949, 1026, 1027, 950, 949, 1027, 950, 1027, 1028, 951, 950, 1028, 951, 1028, 1029, 952, 951, 1029, 952, 1029, 1030, 953, 952, 1030, 953, 1030, 1031, 954, 953, 1031, 954, 1031, 1032, 955, 954, 1032, 955, 1032, 1033, 956, 955, 1033, 956, 1033, 1034, 957, 956, 1034, 957, 1034, 1035, 958, 957, 1035, 958, 1035, 1036, 959, 958, 1036, 959, 1036, 1037, 960, 959, 1037, 960, 1037, 1038, 961, 960, 1038, 961, 1038, 1039, 962, 1039, 1040, 962, 961, 1039, 963, 1040, 1041, 963, 962, 1040, 964, 1041, 1042, 964, 963, 1041, 965, 1042, 1043, 965, 964, 1042, 1086, 1084, 1085, 1080, 1081, 1082, 1079, 1082, 1083, 1079, 1083, 1084, 1079, 1084, 1086, 1079, 1080, 1082, 1088, 1086, 1087, 1077, 1078, 1079, 1077, 1079, 1086, 1090, 1088, 1089, 1075, 1076, 1077, 1093, 1091, 1092, 1095, 1093, 1094, 1071, 1072, 1073, 1096, 1091, 1093, 1096, 1090, 1091, 1096, 1086, 1088, 1096, 1088, 1090, 1096, 1093, 1095, 1070, 1071, 1073, 1097, 1086, 1096, 1098, 1086, 1097, 1098, 1073, 1074, 1098, 1074, 1075, 1098, 1075, 1077, 1098, 1077, 1086, 1067, 1070, 1073, 1067, 1068, 1069, 1067, 1069, 1070, 1100, 1098, 1099, 1101, 1098, 1100, 1065, 1066, 1067, 1102, 1098, 1101, 1064, 1065, 1067, 1104, 1102, 1103, 1062, 1063, 1064, 1105, 1098, 1102, 1105, 1102, 1104, 1106, 1098, 1105, 1044, 1098, 1106, 1059, 1060, 1061, 1059, 1061, 1062, 1047, 1044, 1045, 1047, 1045, 1046, 1047, 1073, 1098, 1047, 1067, 1073, 1047, 1098, 1044, 1056, 1057, 1058, 1056, 1058, 1059, 1056, 1062, 1064, 1056, 1059, 1062, 1053, 1054, 1055, 1053, 1055, 1056, 1053, 1064, 1067, 1053, 1067, 1047, 1053, 1056, 1064, 1051, 1048, 1049, 1051, 1049, 1050, 1052, 1047, 1048, 1052, 1053, 1047, 1052, 1048, 1051]
        point3f[] points = [(0.0000, 7.5000, 0.0000), (0.0000, 7.4627, 0.7468), (0.0000, 7.3513, 1.4861), (0.0000, 7.1668, 2.2107), (0.0000, 6.9111, 2.9133), (0.0000, 6.5867, 3.5869), (0.0000, 6.1968, 4.2249), (0.0000, 5.7453, 4.8209), (0.0000, 5.2368, 5.3690), (0.0000, 4.6762, 5.8637), (0.0000, 4.0691, 6.3002), (0.0000, 3.4216, 6.6740), (0.0000, 2.7401, 6.9816), (0.0000, 2.0313, 7.2197), (0.0000, 1.3024, 7.3861), (0.0000, 0.5605, 7.4790), (0.0000, -0.1870, 7.4977), (0.0000, -0.9326, 7.4418), (0.0000, -1.6689, 7.3120), (0.0000, -2.3886, 7.1095), (0.0000, -3.0847, 6.8363), (0.0000, -3.7500, 6.4952), (0.0000, -4.3781, 6.0895), (0.0000, -4.9626, 5.6234), (0.0000, -5.4979, 5.1013), (0.0000, -5.9785, 4.5285), (0.0000, -6.3997, 3.9108), (0.0000, -6.7573, 3.2541), (0.0000, -7.0477, 2.5652), (0.0000, -7.2681, 1.8507), (0.0000, -7.4162, 1.1178), (0.0000, -7.4907, 0.3738), (0.0000, -7.4907, -0.3738), (0.0000, -7.4162, -1.1178), (0.0000, -7.2681, -1.8507), (0.0000, -7.0477, -2.5652), (0.0000, -6.7573, -3.2541), (0.0000, -6.3997, -3.9108), (0.0000, -5.9785, -4.5285), (0.0000, -5.4979, -5.1013), (0.0000, -4.9626, -5.6234), (0.0000, -4.3781, -6.0895), (0.0000, -3.7500, -6.4952), (0.0000, -3.0847, -6.8363), (0.0000, -2.3886, -7.1095), (0.0000, -1.6689, -7.3120), (0.0000, -0.9326, -7.4418), (0.0000, -0.1870, -7.4977), (0.0000, 0.5605, -7.4790), (0.0000, 1.3024, -7.3861), (0.0000, 2.0313, -7.2197), (0.0000, 2.7401, -6.9816), (0.0000, 3.4216, -6.6740), (0.0000, 4.0691, -6.3002), (0.0000, 4.6762, -5.8637), (0.0000, 5.2368, -5.3690), (0.0000, 5.7453, -4.8209), (0.0000, 6.1968, -4.2249), (0.0000, 6.5867, -3.5869), (0.0000, 6.9111, -2.9133), (0.0000, 7.1668, -2.2107), (0.0000, 7.3513, -1.4861), (0.0000, 7.4627, -0.7468), (0.0000, 7.5000, 0.0000), (0.5000, 8.0000, 0.0000), (0.5000, 8.0000, 0.0000), (0.5000, 7.9602, 0.7965), (0.5000, 7.8414, 1.5852), (0.5000, 7.6446, 2.3580), (0.5000, 7.3718, 3.1075), (0.5000, 7.0258, 3.8260), (0.5000, 6.6099, 4.5066), (0.5000, 6.1284, 5.1423), (0.5000, 5.5859, 5.7269), (0.5000, 4.9879, 6.2547), (0.5000, 4.3404, 6.7202), (0.5000, 3.6497, 7.1190), (0.5000, 2.9227, 7.4470), (0.5000, 2.1667, 7.7010), (0.5000, 1.3892, 7.8785), (0.5000, 0.5978, 7.9776), (0.5000, -0.1994, 7.9975), (0.5000, -0.9947, 7.9379), (0.5000, -1.7802, 7.7994), (0.5000, -2.5479, 7.5834), (0.5000, -3.2903, 7.2920), (0.5000, -4.0000, 6.9282), (0.5000, -4.6699, 6.4955), (0.5000, -5.2935, 5.9982), (0.5000, -5.8644, 5.4414), (0.5000, -6.3771, 4.8304), (0.5000, -6.8263, 4.1715), (0.5000, -7.2078, 3.4711), (0.5000, -7.5175, 2.7362), (0.5000, -7.7526, 1.9741), (0.5000, -7.9106, 1.1923), (0.5000, -7.9901, 0.3988), (0.5000, -7.9901, -0.3988), (0.5000, -7.9106, -1.1923), (0.5000, -7.7526, -1.9741), (0.5000, -7.5175, -2.7362), (0.5000, -7.2078, -3.4711), (0.5000, -6.8263, -4.1715), (0.5000, -6.3771, -4.8304), (0.5000, -5.8644, -5.4414), (0.5000, -5.2935, -5.9982), (0.5000, -4.6699, -6.4955), (0.5000, -4.0000, -6.9282), (0.5000, -3.2903, -7.2920), (0.5000, -2.5479, -7.5834), (0.5000, -1.7802, -7.7994), (0.5000, -0.9947, -7.9379), (0.5000, -0.1994, -7.9975), (0.5000, 0.5978, -7.9776), (0.5000, 1.3892, -7.8785), (0.5000, 2.1667, -7.7010), (0.5000, 2.9227, -7.4470), (0.5000, 3.6497, -7.1190), (0.5000, 4.3404, -6.7202), (0.5000, 4.9879, -6.2547), (0.5000, 5.5859, -5.7269), (0.5000, 6.1284, -5.1423), (0.5000, 6.6099, -4.5066), (0.5000, 7.0258, -3.8260), (0.5000, 7.3718, -3.1075), (0.5000, 7.6446, -2.3580), (0.5000, 7.8414, -1.5852), (0.5000, 7.9602, -0.7965), (0.0000, 7.5000, 0.0000), (0.0000, 7.4627, 0.7468), (0.0000, 7.3513, 1.4861), (0.0000, 7.1668, 2.2107), (0.0000, 6.9111, 2.9133), (0.0000, 6.5867, 3.5869), (0.0000, 6.1968, 4.2249), (0.0000, 5.7453, 4.8209), (0.0000, 5.2368, 5.3690), (0.0000, 4.6762, 5.8637), (0.0000, 4.0691, 6.3002), (0.0000, 3.4216, 6.6740), (0.0000, 2.7401, 6.9816), (0.0000, 2.0313, 7.2197), (0.0000, 1.3024, 7.3861), (0.0000, 0.5605, 7.4790), (0.0000, -0.1870, 7.4977), (0.0000, -0.9326, 7.4418), (0.0000, -1.6689, 7.3120), (0.0000, -2.3886, 7.1095), (0.0000, -3.0847, 6.8363), (0.0000, -3.7500, 6.4952), (0.0000, -4.3781, 6.0895), (0.0000, -4.9626, 5.6234), (0.0000, -5.4979, 5.1013), (0.0000, -5.9785, 4.5285), (0.0000, -6.3997, 3.9108), (0.0000, -6.7573, 3.2541), (0.0000, -7.0477, 2.5652), (0.0000, -7.2681, 1.8507), (0.0000, -7.4162, 1.1178), (0.0000, -7.4907, 0.3738), (0.0000, -7.4907, -0.3738), (0.0000, -7.4162, -1.1178), (0.0000, -7.2681, -1.8507), (0.0000, -7.0477, -2.5652), (0.0000, -6.7573, -3.2541), (0.0000, -6.3997, -3.9108), (0.0000, -5.9785, -4.5285), (0.0000, -5.4979, -5.1013), (0.0000, -4.9626, -5.6234), (0.0000, -4.3781, -6.0895), (0.0000, -3.7500, -6.4952), (0.0000, -3.0847, -6.8363), (0.0000, -2.3886, -7.1095), (0.0000, -1.6689, -7.3120), (0.0000, -0.9326, -7.4418), (0.0000, -0.1870, -7.4977), (0.0000, 0.5605, -7.4790), (0.0000, 1.3024, -7.3861), (0.0000, 2.0313, -7.2197), (0.0000, 2.7401, -6.9816), (0.0000, 3.4216, -6.6740), (0.0000, 4.0691, -6.3002), (0.0000, 4.6762, -5.8637), (0.0000, 5.2368, -5.3690), (0.0000, 5.7453, -4.8209), (0.0000, 6.1968, -4.2249), (0.0000, 6.5867, -3.5869), (0.0000, 6.9111, -2.9133), (0.0000, 7.1668, -2.2107), (0.0000, 7.3513, -1.4861), (0.0000, 7.4627, -0.7468), (0.5000, 8.0000, 0.0000), (0.5000, 7.9602, 0.7965), (0.5000, 7.8414, 1.5852), (0.5000, 7.6446, 2.3580), (0.5000, 7.3718, 3.1075), (0.5000, 7.0258, 3.8260), (0.5000, 6.6099, 4.5066), (0.5000, 6.1284, 5.1423), (0.5000, 5.5859, 5.7269), (0.5000, 4.9879, 6.2547), (0.5000, 4.3404, 6.7202), (0.5000, 3.6497, 7.1190), (0.5000, 2.9227, 7.4470), (0.5000, 2.1667, 7.7010), (0.5000, 1.3892, 7.8785), (0.5000, 0.5978, 7.9776), (0.5000, -0.1994, 7.9975), (0.5000, -0.9947, 7.9379), (0.5000, -1.7802, 7.7994), (0.5000, -2.5479, 7.5834), (0.5000, -3.2903, 7.2920), (0.5000, -4.0000, 6.9282), (0.5000, -4.6699, 6.4955), (0.5000, -5.2935, 5.9982), (0.5000, -5.8644, 5.4414), (0.5000, -6.3771, 4.8304), (0.5000, -6.8263, 4.1715), (0.5000, -7.2078, 3.4711), (0.5000, -7.5175, 2.7362), (0.5000, -7.7526, 1.9741), (0.5000, -7.9106, 1.1923), (0.5000, -7.9901, 0.3988), (0.5000, -7.9901, -0.3988), (0.5000, -7.9106, -1.1923), (0.5000, -7.7526, -1.9741), (0.5000, -7.5175, -2.7362), (0.5000, -7.2078, -3.4711), (0.5000, -6.8263, -4.1715), (0.5000, -6.3771, -4.8304), (0.5000, -5.8644, -5.4414), (0.5000, -5.2935, -5.9982), (0.5000, -4.6699, -6.4955), (0.5000, -4.0000, -6.9282), (0.5000, -3.2903, -7.2920), (0.5000, -2.5479, -7.5834), (0.5000, -1.7802, -7.7994), (0.5000, -0.9947, -7.9379), (0.5000, -0.1994, -7.9975), (0.5000, 0.5978, -7.9776), (0.5000, 1.3892, -7.8785), (0.5000, 2.1667, -7.7010), (0.5000, 2.9227, -7.4470), (0.5000, 3.6497, -7.1190), (0.5000, 4.3404, -6.7202), (0.5000, 4.9879, -6.2547), (0.5000, 5.5859, -5.7269), (0.5000, 6.1284, -5.1423), (0.5000, 6.6099, -4.5066), (0.5000, 7.0258, -3.8260), (0.5000, 7.3718, -3.1075), (0.5000, 7.6446, -2.3580), (0.5000, 7.8414, -1.5852), (0.5000, 7.9602, -0.7965), (0.5000, 8.0000, 0.0000), (3.0000, 8.0000, 0.0000), (3.0000, 8.0000, 0.0000), (3.0000, 7.9602, 0.7965), (3.0000, 7.8414, 1.5852), (3.0000, 7.6446, 2.3580), (3.0000, 7.3718, 3.1075), (3.0000, 7.0258, 3.8260), (3.0000, 6.6099, 4.5066), (3.0000, 6.1284, 5.1423), (3.0000, 5.5859, 5.7269), (3.0000, 4.9879, 6.2547), (3.0000, 4.3404, 6.7202), (3.0000, 3.6497, 7.1190), (3.0000, 2.9227, 7.4470), (3.0000, 2.1667, 7.7010), (3.0000, 1.3892, 7.8785), (3.0000, 0.5978, 7.9776), (3.0000, -0.1994, 7.9975), (3.0000, -0.9947, 7.9379), (3.0000, -1.7802, 7.7994), (3.0000, -2.5479, 7.5834), (3.0000, -3.2903, 7.2920), (3.0000, -4.0000, 6.9282), (3.0000, -4.6699, 6.4955), (3.0000, -5.2935, 5.9982), (3.0000, -5.8644, 5.4414), (3.0000, -6.3771, 4.8304), (3.0000, -6.8263, 4.1715), (3.0000, -7.2078, 3.4711), (3.0000, -7.5175, 2.7362), (3.0000, -7.7526, 1.9741), (3.0000, -7.9106, 1.1923), (3.0000, -7.9901, 0.3988), (3.0000, -7.9901, -0.3988), (3.0000, -7.9106, -1.1923), (3.0000, -7.7526, -1.9741), (3.0000, -7.5175, -2.7362), (3.0000, -7.2078, -3.4711), (3.0000, -6.8263, -4.1715), (3.0000, -6.3771, -4.8304), (3.0000, -5.8644, -5.4414), (3.0000, -5.2935, -5.9982), (3.0000, -4.6699, -6.4955), (3.0000, -4.0000, -6.9282), (3.0000, -3.2903, -7.2920), (3.0000, -2.5479, -7.5834), (3.0000, -1.7802, -7.7994), (3.0000, -0.9947, -7.9379), (3.0000, -0.1994, -7.9975), (3.0000, 0.5978, -7.9776), (3.0000, 1.3892, -7.8785), (3.0000, 2.1667, -7.7010), (3.0000, 2.9227, -7.4470), (3.0000, 3.6497, -7.1190), (3.0000, 4.3404, -6.7202), (3.0000, 4.9879, -6.2547), (3.0000, 5.5859, -5.7269), (3.0000, 6.1284, -5.1423), (3.0000, 6.6099, -4.5066), (3.0000, 7.0258, -3.8260), (3.0000, 7.3718, -3.1075), (3.0000, 7.6446, -2.3580), (3.0000, 7.8414, -1.5852), (3.0000, 7.9602, -0.7965), (3.0000, 8.0000, 0.0000), (3.0000, 7.9602, 0.7965), (3.0000, 7.8414, 1.5852), (3.0000, 7.6446, 2.3580), (3.0000, 7.3718, 3.1075), (3.0000, 7.0258, 3.8260), (3.0000, 6.6099, 4.5066), (3.0000, 6.1284, 5.1423), (3.0000, 5.5859, 5.7269), (3.0000, 4.9879, 6.2547), (3.0000, 4.3404, 6.7202), (3.0000, 3.6497, 7.1190), (3.0000, 2.9227, 7.4470), (3.0000, 2.1667, 7.7010), (3.0000, 1.3892, 7.8785), (3.0000, 0.5978, 7.9776), (3.0000, -0.1994, 7.9975), (3.0000, -0.9947, 7.9379), (3.0000, -1.7802, 7.7994), (3.0000, -2.5479, 7.5834), (3.0000, -3.2903, 7.2920), (3.0000, -4.0000, 6.9282), (3.0000, -4.6699, 6.4955), (3.0000, -5.2935, 5.9982), (3.0000, -5.8644, 5.4414), (3.0000, -6.3771, 4.8304), (3.0000, -6.8263, 4.1715), (3.0000, -7.2078, 3.4711), (3.0000, -7.5175, 2.7362), (3.0000, -7.7526, 1.9741), (3.0000, -7.9106, 1.1923), (3.0000, -7.9901, 0.3988), (3.0000, -7.9901, -0.3988), (3.0000, -7.9106, -1.1923), (3.0000, -7.7526, -1.9741), (3.0000, -7.5175, -2.7362), (3.0000, -7.2078, -3.4711), (3.0000, -6.8263, -4.1715), (3.0000, -6.3771, -4.8304), (3.0000, -5.8644, -5.4414), (3.0000, -5.2935, -5.9982), (3.0000, -4.6699, -6.4955), (3.0000, -4.0000, -6.9282), (3.0000, -3.2903, -7.2920), (3.0000, -2.5479, -7.5834), (3.0000, -1.7802, -7.7994), (3.0000, -0.9947, -7.9379), (3.0000, -0.1994, -7.9975), (3.0000, 0.5978, -7.9776), (3.0000, 1.3892, -7.8785), (3.0000, 2.1667, -7.7010), (3.0000, 2.9227, -7.4470), (3.0000, 3.6497, -7.1190), (3.0000, 4.3404, -6.7202), (3.0000, 4.9879, -6.2547), (3.0000, 5.5859, -5.7269), (3.0000, 6.1284, -5.1423), (3.0000, 6.6099, -4.5066), (3.0000, 7.0258, -3.8260), (3.0000, 7.3718, -3.1075), (3.0000, 7.6446, -2.3580), (3.0000, 7.8414, -1.5852), (3.0000, 7.9602, -0.7965), (3.0000, 6.0000, 0.0000), (3.0000, 5.9702, 0.5974), (3.0000, 5.8810, 1.1889), (3.0000, 5.7334, 1.7685), (3.0000, 5.5289, 2.3306), (3.0000, 5.2693, 2.8695), (3.0000, 4.9574, 3.3799), (3.0000, 4.5963, 3.8567), (3.0000, 4.1894, 4.2952), (3.0000, 3.7409, 4.6910), (3.0000, 3.2553, 5.0402), (3.0000, 2.7373, 5.3392), (3.0000, 2.1920, 5.5852), (3.0000, 1.6250, 5.7757), (3.0000, 1.0419, 5.9088), (3.0000, 0.4484, 5.9832), (3.0000, -0.1496, 5.9981), (3.0000, -0.7461, 5.9534), (3.0000, -1.3351, 5.8496), (3.0000, -1.9109, 5.6876), (3.0000, -2.4677, 5.4690), (3.0000, -3.0000, 5.1962), (3.0000, -3.5025, 4.8716), (3.0000, -3.9701, 4.4987), (3.0000, -4.3983, 4.0810), (3.0000, -4.7828, 3.6228), (3.0000, -5.1197, 3.1286), (3.0000, -5.4058, 2.6033), (3.0000, -5.6382, 2.0521), (3.0000, -5.8145, 1.4805), (3.0000, -5.9330, 0.8943), (3.0000, -5.9925, 0.2991), (3.0000, -5.9925, -0.2991), (3.0000, -5.9330, -0.8943), (3.0000, -5.8145, -1.4805), (3.0000, -5.6382, -2.0521), (3.0000, -5.4058, -2.6033), (3.0000, -5.1197, -3.1286), (3.0000, -4.7828, -3.6228), (3.0000, -4.3983, -4.0810), (3.0000, -3.9701, -4.4987), (3.0000, -3.5025, -4.8716), (3.0000, -3.0000, -5.1962), (3.0000, -2.4677, -5.4690), (3.0000, -1.9109, -5.6876), (3.0000, -1.3351, -5.8496), (3.0000, -0.7461, -5.9534), (3.0000, -0.1496, -5.9981), (3.0000, 0.4484, -5.9832), (3.0000, 1.0419, -5.9088), (3.0000, 1.6250, -5.7757), (3.0000, 2.1920, -5.5852), (3.0000, 2.7373, -5.3392), (3.0000, 3.2553, -5.0402), (3.0000, 3.7409, -4.6910), (3.0000, 4.1894, -4.2952), (3.0000, 4.5963, -3.8567), (3.0000, 4.9574, -3.3799), (3.0000, 5.2693, -2.8695), (3.0000, 5.5289, -2.3306), (3.0000, 5.7334, -1.7685), (3.0000, 5.8810, -1.1889), (3.0000, 5.9702, -0.5974), (3.0000, 6.0000, 0.0000), (50.0000, 6.0000, 0.0000), (3.0000, 5.9702, 0.5974), (3.0000, 5.8810, 1.1889), (3.0000, 5.7334, 1.7685), (3.0000, 5.5289, 2.3306), (3.0000, 5.2693, 2.8695), (3.0000, 4.9574, 3.3799), (3.0000, 4.5963, 3.8567), (3.0000, 4.1894, 4.2952), (3.0000, 3.7409, 4.6910), (3.0000, 3.2553, 5.0402), (3.0000, 2.7373, 5.3392), (3.0000, 2.1920, 5.5852), (3.0000, 1.6250, 5.7757), (3.0000, 1.0419, 5.9088), (3.0000, 0.4484, 5.9832), (3.0000, -0.1496, 5.9981), (3.0000, -0.7461, 5.9534), (3.0000, -1.3351, 5.8496), (3.0000, -1.9109, 5.6876), (3.0000, -2.4677, 5.4690), (3.0000, -3.0000, 5.1962), (3.0000, -3.5025, 4.8716), (3.0000, -3.9701, 4.4987), (3.0000, -4.3983, 4.0810), (3.0000, -4.7828, 3.6228), (3.0000, -5.1197, 3.1286), (3.0000, -5.4058, 2.6033), (3.0000, -5.6382, 2.0521), (3.0000, -5.8145, 1.4805), (3.0000, -5.9330, 0.8943), (3.0000, -5.9925, 0.2991), (3.0000, -5.9925, -0.2991), (3.0000, -5.9330, -0.8943), (3.0000, -5.8145, -1.4805), (3.0000, -5.6382, -2.0521), (3.0000, -5.4058, -2.6033), (3.0000, -5.1197, -3.1286), (3.0000, -4.7828, -3.6228), (3.0000, -4.3983, -4.0810), (3.0000, -3.9701, -4.4987), (3.0000, -3.5025, -4.8716), (3.0000, -3.0000, -5.1962), (3.0000, -2.4677, -5.4690), (3.0000, -1.9109, -5.6876), (3.0000, -1.3351, -5.8496), (3.0000, -0.7461, -5.9534), (3.0000, -0.1496, -5.9981), (3.0000, 0.4484, -5.9832), (3.0000, 1.0419, -5.9088), (3.0000, 1.6250, -5.7757), (3.0000, 2.1920, -5.5852), (3.0000, 2.7373, -5.3392), (3.0000, 3.2553, -5.0402), (3.0000, 3.7409, -4.6910), (3.0000, 4.1894, -4.2952), (3.0000, 4.5963, -3.8567), (3.0000, 4.9574, -3.3799), (3.0000, 5.2693, -2.8695), (3.0000, 5.5289, -2.3306), (3.0000, 5.7334, -1.7685), (3.0000, 5.8810, -1.1889), (3.0000, 5.9702, -0.5974), (3.0000, 6.0000, 0.0000), (50.0000, 6.0000, 0.0000), (50.0000, 5.9702, 0.5974), (50.0000, 5.8810, 1.1889), (50.0000, 5.7334, 1.7685), (50.0000, 5.5289, 2.3306), (50.0000, 5.2693, 2.8695), (50.0000, 4.9574, 3.3799), (50.0000, 4.5963, 3.8567), (50.0000, 4.1894, 4.2952), (50.0000, 3.7409, 4.6910), (50.0000, 3.2553, 5.0402), (50.0000, 2.7373, 5.3392), (50.0000, 2.1920, 5.5852), (50.0000, 1.6250, 5.7757), (50.0000, 1.0419, 5.9088), (50.0000, 0.4484, 5.9832), (50.0000, -0.1496, 5.9981), (50.0000, -0.7461, 5.9534), (50.0000, -1.3351, 5.8496), (50.0000, -1.9109, 5.6876), (50.0000, -2.4677, 5.4690), (50.0000, -3.0000, 5.1962), (50.0000, -3.5025, 4.8716), (50.0000, -3.9701, 4.4987), (50.0000, -4.3983, 4.0810), (50.0000, -4.7828, 3.6228), (50.0000, -5.1197, 3.1286), (50.0000, -5.4058, 2.6033), (50.0000, -5.6382, 2.0521), (50.0000, -5.8145, 1.4805), (50.0000, -5.9330, 0.8943), (50.0000, -5.9925, 0.2991), (50.0000, -5.9925, -0.2991), (50.0000, -5.9330, -0.8943), (50.0000, -5.8145, -1.4805), (50.0000, -5.6382, -2.0521), (50.0000, -5.4058, -2.6033), (50.0000, -5.1197, -3.1286), (50.0000, -4.7828, -3.6228), (50.0000, -4.3983, -4.0810), (50.0000, -3.9701, -4.4987), (50.0000, -3.5025, -4.8716), (50.0000, -3.0000, -5.1962), (50.0000, -2.4677, -5.4690), (50.0000, -1.9109, -5.6876), (50.0000, -1.3351, -5.8496), (50.0000, -0.7461, -5.9534), (50.0000, -0.1496, -5.9981), (50.0000, 0.4484, -5.9832), (50.0000, 1.0419, -5.9088), (50.0000, 1.6250, -5.7757), (50.0000, 2.1920, -5.5852), (50.0000, 2.7373, -5.3392), (50.0000, 3.2553, -5.0402), (50.0000, 3.7409, -4.6910), (50.0000, 4.1894, -4.2952), (50.0000, 4.5963, -3.8567), (50.0000, 4.9574, -3.3799), (50.0000, 5.2693, -2.8695), (50.0000, 5.5289, -2.3306), (50.0000, 5.7334, -1.7685), (50.0000, 5.8810, -1.1889), (50.0000, 5.9702, -0.5974), (45.6000, 0.0000, -6.0000), (45.5937, 0.1413, -5.9983), (45.5754, 0.2796, -5.9935), (45.5456, 0.4138, -5.9857), (45.5050, 0.5430, -5.9754), (45.4546, 0.6664, -5.9629), (45.3953, 0.7831, -5.9487), (45.3279, 0.8925, -5.9332), (45.2537, 0.9941, -5.9171), (45.1738, 1.0873, -5.9007), (45.0895, 1.1718, -5.8845), (45.0011, 1.2481, -5.8688), (44.9090, 1.3167, -5.8537), (44.8137, 1.3777, -5.8397), (44.7155, 1.4311, -5.8268), (44.6150, 1.4771, -5.8153), (44.5125, 1.5157, -5.8054), (44.4085, 1.5470, -5.7971), (44.3032, 1.5710, -5.7907), (44.1970, 1.5878, -5.7861), (44.0902, 1.5975, -5.7834), (43.9831, 1.5999, -5.7828), (43.8761, 1.5952, -5.7841), (43.7695, 1.5833, -5.7873), (43.6636, 1.5642, -5.7925), (43.5587, 1.5379, -5.7995), (43.4551, 1.5044, -5.8083), (43.3533, 1.4635, -5.8188), (43.2535, 1.4152, -5.8307), (43.1561, 1.3594, -5.8440), (43.0618, 1.2960, -5.8584), (42.9708, 1.2250, -5.8736), (42.8838, 1.1463, -5.8895), (42.8014, 1.0599, -5.9056), (42.7239, 0.9652, -5.9219), (42.6515, 0.8612, -5.9379), (42.5858, 0.7484, -5.9531), (42.5283, 0.6278, -5.9671), (42.4803, 0.5004, -5.9791), (42.4428, 0.3676, -5.9887), (42.4167, 0.2307, -5.9956), (42.4026, 0.0910, -5.9993), (42.4008, -0.0500, -5.9998), (42.4114, -0.1907, -5.9970), (42.4344, -0.3298, -5.9909), (42.4693, -0.4657, -5.9819), (42.5159, -0.5980, -5.9701), (42.5740, -0.7257, -5.9560), (42.6430, -0.8477, -5.9398), (42.7225, -0.9633, -5.9222), (42.8118, -1.0715, -5.9035), (42.9102, -1.1714, -5.8845), (43.0169, -1.2624, -5.8657), (43.1313, -1.3436, -5.8476), (43.2523, -1.4146, -5.8309), (43.3791, -1.4746, -5.8160), (43.5107, -1.5233, -5.8034), (43.6460, -1.5603, -5.7936), (43.7840, -1.5854, -5.7868), (43.9237, -1.5982, -5.7832), (44.0640, -1.5987, -5.7831), (44.2040, -1.5869, -5.7863), (44.3429, -1.5628, -5.7929), (44.4800, -1.5263, -5.8026), (44.6146, -1.4773, -5.8153), (44.7458, -1.4156, -5.8306), (44.8728, -1.3410, -5.8482), (44.9944, -1.2534, -5.8676), (45.1097, -1.1527, -5.8882), (45.2181, -1.0374, -5.9096), (45.3082, -0.9212, -5.9289), (45.3816, -0.8070, -5.9455), (45.4462, -0.6844, -5.9608), (45.5009, -0.5543, -5.9743), (45.5446, -0.4175, -5.9855), (45.5762, -0.2750, -5.9937), (45.5940, -0.1390, -5.9984), (45.6000, 0.0000, 6.0000), (45.5937, 0.1413, 5.9983), (45.5754, 0.2796, 5.9935), (45.5456, 0.4138, 5.9857), (45.5050, 0.5430, 5.9754), (45.4546, 0.6664, 5.9629), (45.3953, 0.7831, 5.9487), (45.3279, 0.8925, 5.9332), (45.2537, 0.9941, 5.9171), (45.1738, 1.0873, 5.9007), (45.0895, 1.1718, 5.8845), (45.0011, 1.2481, 5.8688), (44.9090, 1.3167, 5.8537), (44.8137, 1.3777, 5.8397), (44.7155, 1.4311, 5.8268), (44.6150, 1.4771, 5.8153), (44.5125, 1.5157, 5.8054), (44.4085, 1.5470, 5.7971), (44.3032, 1.5710, 5.7907), (44.1970, 1.5878, 5.7861), (44.0902, 1.5975, 5.7834), (43.9831, 1.5999, 5.7828), (43.8761, 1.5952, 5.7841), (43.7695, 1.5833, 5.7873), (43.6636, 1.5642, 5.7925), (43.5587, 1.5379, 5.7995), (43.4551, 1.5044, 5.8083), (43.3533, 1.4635, 5.8188), (43.2535, 1.4152, 5.8307), (43.1561, 1.3594, 5.8440), (43.0618, 1.2960, 5.8584), (42.9708, 1.2250, 5.8736), (42.8838, 1.1463, 5.8895), (42.8014, 1.0599, 5.9056), (42.7239, 0.9652, 5.9219), (42.6515, 0.8612, 5.9379), (42.5858, 0.7484, 5.9531), (42.5283, 0.6278, 5.9671), (42.4803, 0.5004, 5.9791), (42.4428, 0.3676, 5.9887), (42.4167, 0.2307, 5.9956), (42.4026, 0.0910, 5.9993), (42.4008, -0.0500, 5.9998), (42.4114, -0.1907, 5.9970), (42.4344, -0.3298, 5.9909), (42.4693, -0.4657, 5.9819), (42.5159, -0.5980, 5.9701), (42.5740, -0.7257, 5.9560), (42.6430, -0.8477, 5.9398), (42.7225, -0.9633, 5.9222), (42.8118, -1.0715, 5.9035), (42.9102, -1.1714, 5.8845), (43.0169, -1.2624, 5.8657), (43.1313, -1.3436, 5.8476), (43.2523, -1.4146, 5.8309), (43.3791, -1.4746, 5.8160), (43.5107, -1.5233, 5.8034), (43.6460, -1.5603, 5.7936), (43.7840, -1.5854, 5.7868), (43.9237, -1.5982, 5.7832), (44.0640, -1.5987, 5.7831), (44.2040, -1.5869, 5.7863), (44.3429, -1.5628, 5.7929), (44.4800, -1.5263, 5.8026), (44.6146, -1.4773, 5.8153), (44.7458, -1.4156, 5.8306), (44.8728, -1.3410, 5.8482), (44.9944, -1.2534, 5.8676), (45.1097, -1.1527, 5.8882), (45.2181, -1.0374, 5.9096), (45.3082, -0.9212, 5.9289), (45.3816, -0.8070, 5.9455), (45.4462, -0.6844, 5.9608), (45.5009, -0.5543, 5.9743), (45.5446, -0.4175, 5.9855), (45.5762, -0.2750, 5.9937), (45.5940, -0.1390, 5.9984), (50.0000, 6.0000, 0.0000), (50.0000, 5.9702, 0.5974), (50.0000, 5.8810, 1.1889), (50.0000, 5.7334, 1.7685), (50.0000, 5.5289, 2.3306), (50.0000, 5.2693, 2.8695), (50.0000, 4.9574, 3.3799), (50.0000, 4.5963, 3.8567), (50.0000, 4.1894, 4.2952), (50.0000, 3.7409, 4.6910), (50.0000, 3.2553, 5.0402), (50.0000, 2.7373, 5.3392), (50.0000, 2.1920, 5.5852), (50.0000, 1.6250, 5.7757), (50.0000, 1.0419, 5.9088), (50.0000, 0.4484, 5.9832), (50.0000, -0.1496, 5.9981), (50.0000, -0.7461, 5.9534), (50.0000, -1.3351, 5.8496), (50.0000, -1.9109, 5.6876), (50.0000, -2.4677, 5.4690), (50.0000, -3.0000, 5.1962), (50.0000, -3.5025, 4.8716), (50.0000, -3.9701, 4.4987), (50.0000, -4.3983, 4.0810), (50.0000, -4.7828, 3.6228), (50.0000, -5.1197, 3.1286), (50.0000, -5.4058, 2.6033), (50.0000, -5.6382, 2.0521), (50.0000, -5.8145, 1.4805), (50.0000, -5.9330, 0.8943), (50.0000, -5.9925, 0.2991), (50.0000, -5.9925, -0.2991), (50.0000, -5.9330, -0.8943), (50.0000, -5.8145, -1.4805), (50.0000, -5.6382, -2.0521), (50.0000, -5.4058, -2.6033), (50.0000, -5.1197, -3.1286), (50.0000, -4.7828, -3.6228), (50.0000, -4.3983, -4.0810), (50.0000, -3.9701, -4.4987), (50.0000, -3.5025, -4.8716), (50.0000, -3.0000, -5.1962), (50.0000, -2.4677, -5.4690), (50.0000, -1.9109, -5.6876), (50.0000, -1.3351, -5.8496), (50.0000, -0.7461, -5.9534), (50.0000, -0.1496, -5.9981), (50.0000, 0.4484, -5.9832), (50.0000, 1.0419, -5.9088), (50.0000, 1.6250, -5.7757), (50.0000, 2.1920, -5.5852), (50.0000, 2.7373, -5.3392), (50.0000, 3.2553, -5.0402), (50.0000, 3.7409, -4.6910), (50.0000, 4.1894, -4.2952), (50.0000, 4.5963, -3.8567), (50.0000, 4.9574, -3.3799), (50.0000, 5.2693, -2.8695), (50.0000, 5.5289, -2.3306), (50.0000, 5.7334, -1.7685), (50.0000, 5.8810, -1.1889), (50.0000, 5.9702, -0.5974), (50.0000, 6.0000, 0.0000), (50.5000, 5.5000, 0.0000), (51.0000, 5.0000, 0.0000), (51.0000, 5.0000, 0.0000), (51.0000, 4.9752, 0.4978), (51.0000, 4.9009, 0.9907), (51.0000, 4.7779, 1.4738), (51.0000, 4.6074, 1.9422), (51.0000, 4.3911, 2.3913), (51.0000, 4.1312, 2.8166), (51.0000, 3.8302, 3.2139), (51.0000, 3.4912, 3.5793), (51.0000, 3.1174, 3.9092), (51.0000, 2.7127, 4.2001), (51.0000, 2.2811, 4.4494), (51.0000, 1.8267, 4.6544), (51.0000, 1.3542, 4.8131), (51.0000, 0.8682, 4.9240), (51.0000, 0.3737, 4.9860), (51.0000, -0.1247, 4.9984), (51.0000, -0.6217, 4.9612), (51.0000, -1.1126, 4.8746), (51.0000, -1.5924, 4.7396), (51.0000, -2.0564, 4.5575), (51.0000, -2.5000, 4.3301), (51.0000, -2.9187, 4.0597), (51.0000, -3.3084, 3.7489), (51.0000, -3.6653, 3.4009), (51.0000, -3.9857, 3.0190), (51.0000, -4.2665, 2.6072), (51.0000, -4.5048, 2.1694), (51.0000, -4.6985, 1.7101), (51.0000, -4.8454, 1.2338), (51.0000, -4.9442, 0.7452), (51.0000, -4.9938, 0.2492), (51.0000, -4.9938, -0.2492), (51.0000, -4.9442, -0.7452), (51.0000, -4.8454, -1.2338), (51.0000, -4.6985, -1.7101), (51.0000, -4.5048, -2.1694), (51.0000, -4.2665, -2.6072), (51.0000, -3.9857, -3.0190), (51.0000, -3.6653, -3.4009), (51.0000, -3.3084, -3.7489), (51.0000, -2.9187, -4.0597), (51.0000, -2.5000, -4.3301), (51.0000, -2.0564, -4.5575), (51.0000, -1.5924, -4.7396), (51.0000, -1.1126, -4.8746), (51.0000, -0.6217, -4.9612), (51.0000, -0.1247, -4.9984), (51.0000, 0.3737, -4.9860), (51.0000, 0.8682, -4.9240), (51.0000, 1.3542, -4.8131), (51.0000, 1.8267, -4.6544), (51.0000, 2.2811, -4.4494), (51.0000, 2.7127, -4.2001), (51.0000, 3.1174, -3.9092), (51.0000, 3.4912, -3.5793), (51.0000, 3.8302, -3.2139), (51.0000, 4.1312, -2.8166), (51.0000, 4.3911, -2.3913), (51.0000, 4.6074, -1.9422), (51.0000, 4.7779, -1.4738), (51.0000, 4.9009, -0.9907), (51.0000, 4.9752, -0.4978), (50.5000, 5.5000, 0.0000), (50.5000, 5.3943, 1.0730), (50.5000, 5.0813, 2.1048), (50.5000, 4.5731, 3.0556), (50.5000, 3.8891, 3.8891), (50.5000, 3.0556, 4.5731), (50.5000, 2.1048, 5.0813), (50.5000, 1.0730, 5.3943), (50.5000, 0.0000, 5.5000), (50.5000, -1.0730, 5.3943), (50.5000, -2.1048, 5.0813), (50.5000, -3.0556, 4.5731), (50.5000, -3.8891, 3.8891), (50.5000, -4.5731, 3.0556), (50.5000, -5.0813, 2.1048), (50.5000, -5.3943, 1.0730), (50.5000, -5.5000, -0.0000), (50.5000, -5.3943, -1.0730), (50.5000, -5.0813, -2.1048), (50.5000, -4.5731, -3.0556), (50.5000, -3.8891, -3.8891), (50.5000, -3.0556, -4.5731), (50.5000, -2.1048, -5.0813), (50.5000, -1.0730, -5.3943), (50.5000, 0.0000, -5.5000), (50.5000, 1.0730, -5.3943), (50.5000, 2.1048, -5.0813), (50.5000, 3.0556, -4.5731), (50.5000, 3.8891, -3.8891), (50.5000, 4.5731, -3.0556), (50.5000, 5.0813, -2.1048), (50.5000, 5.3943, -1.0730), (45.6000, 0.0000, -6.0000), (45.5937, 0.1413, -5.9983), (45.5754, 0.2796, -5.9935), (45.5456, 0.4138, -5.9857), (45.5050, 0.5430, -5.9754), (45.4546, 0.6664, -5.9629), (45.3953, 0.7831, -5.9487), (45.3279, 0.8925, -5.9332), (45.2537, 0.9941, -5.9171), (45.1738, 1.0873, -5.9007), (45.0895, 1.1718, -5.8845), (45.0011, 1.2481, -5.8688), (44.9090, 1.3167, -5.8537), (44.8137, 1.3777, -5.8397), (44.7155, 1.4311, -5.8268), (44.6150, 1.4771, -5.8153), (44.5125, 1.5157, -5.8054), (44.4085, 1.5470, -5.7971), (44.3032, 1.5710, -5.7907), (44.1970, 1.5878, -5.7861), (44.0902, 1.5975, -5.7834), (43.9831, 1.5999, -5.7828), (43.8761, 1.5952, -5.7841), (43.7695, 1.5833, -5.7873), (43.6636, 1.5642, -5.7925), (43.5587, 1.5379, -5.7995), (43.4551, 1.5044, -5.8083), (43.3533, 1.4635, -5.8188), (43.2535, 1.4152, -5.8307), (43.1561, 1.3594, -5.8440), (43.0618, 1.2960, -5.8584), (42.9708, 1.2250, -5.8736), (42.8838, 1.1463, -5.8895), (42.8014, 1.0599, -5.9056), (42.7239, 0.9652, -5.9219), (42.6515, 0.8612, -5.9379), (42.5858, 0.7484, -5.9531), (42.5283, 0.6278, -5.9671), (42.4803, 0.5004, -5.9791), (42.4428, 0.3676, -5.9887), (42.4167, 0.2307, -5.9956), (42.4026, 0.0910, -5.9993), (42.4008, -0.0500, -5.9998), (42.4114, -0.1907, -5.9970), (42.4344, -0.3298, -5.9909), (42.4693, -0.4657, -5.9819), (42.5159, -0.5980, -5.9701), (42.5740, -0.7257, -5.9560), (42.6430, -0.8477, -5.9398), (42.7225, -0.9633, -5.9222), (42.8118, -1.0715, -5.9035), (42.9102, -1.1714, -5.8845), (43.0169, -1.2624, -5.8657), (43.1313, -1.3436, -5.8476), (43.2523, -1.4146, -5.8309), (43.3791, -1.4746, -5.8160), (43.5107, -1.5233, -5.8034), (43.6460, -1.5603, -5.7936), (43.7840, -1.5854, -5.7868), (43.9237, -1.5982, -5.7832), (44.0640, -1.5987, -5.7831), (44.2040, -1.5869, -5.7863), (44.3429, -1.5628, -5.7929), (44.4800, -1.5263, -5.8026), (44.6146, -1.4773, -5.8153), (44.7458, -1.4156, -5.8306), (44.8728, -1.3410, -5.8482), (44.9944, -1.2534, -5.8676), (45.1097, -1.1527, -5.8882), (45.2181, -1.0374, -5.9096), (45.3082, -0.9212, -5.9289), (45.3816, -0.8070, -5.9455), (45.4462, -0.6844, -5.9608), (45.5009, -0.5543, -5.9743), (45.5446, -0.4175, -5.9855), (45.5762, -0.2750, -5.9937), (45.5940, -0.1390, -5.9984), (45.6000, 0.0000, -6.0000), (45.6000, 0.0000, 6.0000), (45.5937, 0.1413, 5.9983), (45.5754, 0.2796, 5.9935), (45.5456, 0.4138, 5.9857), (45.5050, 0.5430, 5.9754), (45.4546, 0.6664, 5.9629), (45.3953, 0.7831, 5.9487), (45.3279, 0.8925, 5.9332), (45.2537, 0.9941, 5.9171), (45.1738, 1.0873, 5.9007), (45.0895, 1.1718, 5.8845), (45.0011, 1.2481, 5.8688), (44.9090, 1.3167, 5.8537), (44.8137, 1.3777, 5.8397), (44.7155, 1.4311, 5.8268), (44.6150, 1.4771, 5.8153), (44.5125, 1.5157, 5.8054), (44.4085, 1.5470, 5.7971), (44.3032, 1.5710, 5.7907), (44.1970, 1.5878, 5.7861), (44.0902, 1.5975, 5.7834), (43.9831, 1.5999, 5.7828), (43.8761, 1.5952, 5.7841), (43.7695, 1.5833, 5.7873), (43.6636, 1.5642, 5.7925), (43.5587, 1.5379, 5.7995), (43.4551, 1.5044, 5.8083), (43.3533, 1.4635, 5.8188), (43.2535, 1.4152, 5.8307), (43.1561, 1.3594, 5.8440), (43.0618, 1.2960, 5.8584), (42.9708, 1.2250, 5.8736), (42.8838, 1.1463, 5.8895), (42.8014, 1.0599, 5.9056), (42.7239, 0.9652, 5.9219), (42.6515, 0.8612, 5.9379), (42.5858, 0.7484, 5.9531), (42.5283, 0.6278, 5.9671), (42.4803, 0.5004, 5.9791), (42.4428, 0.3676, 5.9887), (42.4167, 0.2307, 5.9956), (42.4026, 0.0910, 5.9993), (42.4008, -0.0500, 5.9998), (42.4114, -0.1907, 5.9970), (42.4344, -0.3298, 5.9909), (42.4693, -0.4657, 5.9819), (42.5159, -0.5980, 5.9701), (42.5740, -0.7257, 5.9560), (42.6430, -0.8477, 5.9398), (42.7225, -0.9633, 5.9222), (42.8118, -1.0715, 5.9035), (42.9102, -1.1714, 5.8845), (43.0169, -1.2624, 5.8657), (43.1313, -1.3436, 5.8476), (43.2523, -1.4146, 5.8309), (43.3791, -1.4746, 5.8160), (43.5107, -1.5233, 5.8034), (43.6460, -1.5603, 5.7936), (43.7840, -1.5854, 5.7868), (43.9237, -1.5982, 5.7832), (44.0640, -1.5987, 5.7831), (44.2040, -1.5869, 5.7863), (44.3429, -1.5628, 5.7929), (44.4800, -1.5263, 5.8026), (44.6146, -1.4773, 5.8153), (44.7458, -1.4156, 5.8306), (44.8728, -1.3410, 5.8482), (44.9944, -1.2534, 5.8676), (45.1097, -1.1527, 5.8882), (45.2181, -1.0374, 5.9096), (45.3082, -0.9212, 5.9289), (45.3816, -0.8070, 5.9455), (45.4462, -0.6844, 5.9608), (45.5009, -0.5543, 5.9743), (45.5446, -0.4175, 5.9855), (45.5762, -0.2750, 5.9937), (45.5940, -0.1390, 5.9984), (45.6000, 0.0000, 6.0000), (51.0000, 5.0000, 0.0000), (51.0000, 4.9752, 0.4978), (51.0000, 4.9009, 0.9907), (51.0000, 4.7779, 1.4738), (51.0000, 4.6074, 1.9422), (51.0000, 4.3911, 2.3913), (51.0000, 4.1312, 2.8166), (51.0000, 3.8302, 3.2139), (51.0000, 3.4912, 3.5793), (51.0000, 3.1174, 3.9092), (51.0000, 2.7127, 4.2001), (51.0000, 2.2811, 4.4494), (51.0000, 1.8267, 4.6544), (51.0000, 1.3542, 4.8131), (51.0000, 0.8682, 4.9240), (51.0000, 0.3737, 4.9860), (51.0000, -0.1247, 4.9984), (51.0000, -0.6217, 4.9612), (51.0000, -1.1126, 4.8746), (51.0000, -1.5924, 4.7396), (51.0000, -2.0564, 4.5575), (51.0000, -2.5000, 4.3301), (51.0000, -2.9187, 4.0597), (51.0000, -3.3084, 3.7489), (51.0000, -3.6653, 3.4009), (51.0000, -3.9857, 3.0190), (51.0000, -4.2665, 2.6072), (51.0000, -4.5048, 2.1694), (51.0000, -4.6985, 1.7101), (51.0000, -4.8454, 1.2338), (51.0000, -4.9442, 0.7452), (51.0000, -4.9938, 0.2492), (51.0000, -4.9938, -0.2492), (51.0000, -4.9442, -0.7452), (51.0000, -4.8454, -1.2338), (51.0000, -4.6985, -1.7101), (51.0000, -4.5048, -2.1694), (51.0000, -4.2665, -2.6072), (51.0000, -3.9857, -3.0190), (51.0000, -3.6653, -3.4009), (51.0000, -3.3084, -3.7489), (51.0000, -2.9187, -4.0597), (51.0000, -2.5000, -4.3301), (51.0000, -2.0564, -4.5575), (51.0000, -1.5924, -4.7396), (51.0000, -1.1126, -4.8746), (51.0000, -0.6217, -4.9612), (51.0000, -0.1247, -4.9984), (51.0000, 0.3737, -4.9860), (51.0000, 0.8682, -4.9240), (51.0000, 1.3542, -4.8131), (51.0000, 1.8267, -4.6544), (51.0000, 2.2811, -4.4494), (51.0000, 2.7127, -4.2001), (51.0000, 3.1174, -3.9092), (51.0000, 3.4912, -3.5793), (51.0000, 3.8302, -3.2139), (51.0000, 4.1312, -2.8166), (51.0000, 4.3911, -2.3913), (51.0000, 4.6074, -1.9422), (51.0000, 4.7779, -1.4738), (51.0000, 4.9009, -0.9907), (51.0000, 4.9752, -0.4978)]
        uniform token subdivisionScheme = "none"
        color3f[] primvars:displayColor = [(0.72, 0.74, 0.77)]
    }
}
