0
SECTION
2
HEADER
9
$ACADVER
1
AC1009
9
$INSUNITS
70
4
0
ENDSEC
0
SECTION
2
TABLES
0
TABLE
2
LTYPE
70
3
0
LTYPE
2
CONTINUOUS
70
0
3
Solid line
72
65
73
0
40
0
0
LTYPE
2
DASHED
70
0
3
Dashed __ __ __
72
65
73
2
40
4.5
49
3
49
-1.5
0
LTYPE
2
CENTER
70
0
3
Center ____ _ ____
72
65
73
4
40
11.5
49
8
49
-1.5
49
0.5
49
-1.5
0
ENDTAB
0
TABLE
2
LAYER
70
9
0
LAYER
2
OUTLINE
70
0
62
7
6
CONTINUOUS
0
LAYER
2
HIDDEN
70
0
62
8
6
DASHED
0
LAYER
2
CENTER
70
0
62
1
6
CENTER
0
LAYER
2
THIN
70
0
62
7
6
CONTINUOUS
0
LAYER
2
DIM
70
0
62
3
6
CONTINUOUS
0
LAYER
2
HATCH
70
0
62
8
6
CONTINUOUS
0
LAYER
2
FRAME
70
0
62
7
6
CONTINUOUS
0
LAYER
2
TEXT
70
0
62
7
6
CONTINUOUS
0
LAYER
2
CUT
70
0
62
5
6
DASHED
0
ENDTAB
0
ENDSEC
0
SECTION
2
ENTITIES
0
LINE
8
OUTLINE
10
93.5
20
135.1
30
0
11
95
21
136.6
31
0
0
LINE
8
OUTLINE
10
95
20
136.6
30
0
11
99.5
21
136.6
31
0
0
LINE
8
OUTLINE
10
99.5
20
136.6
30
0
11
99.5
21
136.1
31
0
0
LINE
8
OUTLINE
10
99.5
20
136.1
30
0
11
100.8
21
136.1
31
0
0
LINE
8
OUTLINE
10
100.8
20
136.1
30
0
11
100.8
21
136.6
31
0
0
LINE
8
OUTLINE
10
100.8
20
136.6
30
0
11
112
21
136.6
31
0
0
LINE
8
OUTLINE
10
112
20
136.6
30
0
11
112.196
21
136.613
31
0
0
LINE
8
OUTLINE
10
112.196
20
136.613
30
0
11
112.388
21
136.651
31
0
0
LINE
8
OUTLINE
10
112.388
20
136.651
30
0
11
112.574
21
136.714
31
0
0
LINE
8
OUTLINE
10
112.574
20
136.714
30
0
11
112.75
21
136.801
31
0
0
LINE
8
OUTLINE
10
112.75
20
136.801
30
0
11
112.913
21
136.91
31
0
0
LINE
8
OUTLINE
10
112.913
20
136.91
30
0
11
113.061
21
137.039
31
0
0
LINE
8
OUTLINE
10
113.061
20
137.039
30
0
11
113.19
21
137.187
31
0
0
LINE
8
OUTLINE
10
113.19
20
137.187
30
0
11
113.299
21
137.35
31
0
0
LINE
8
OUTLINE
10
113.299
20
137.35
30
0
11
113.386
21
137.526
31
0
0
LINE
8
OUTLINE
10
113.386
20
137.526
30
0
11
113.449
21
137.712
31
0
0
LINE
8
OUTLINE
10
113.449
20
137.712
30
0
11
113.487
21
137.904
31
0
0
LINE
8
OUTLINE
10
113.487
20
137.904
30
0
11
113.5
21
138.1
31
0
0
LINE
8
OUTLINE
10
113.5
20
138.1
30
0
11
113.5
21
148.1
31
0
0
LINE
8
OUTLINE
10
113.5
20
148.1
30
0
11
114.5
21
149.1
31
0
0
LINE
8
OUTLINE
10
114.5
20
149.1
30
0
11
182.5
21
149.1
31
0
0
LINE
8
OUTLINE
10
182.5
20
149.1
30
0
11
183.5
21
148.1
31
0
0
LINE
8
OUTLINE
10
183.5
20
148.1
30
0
11
183.5
21
138.1
31
0
0
LINE
8
OUTLINE
10
183.5
20
138.1
30
0
11
183.513
21
137.904
31
0
0
LINE
8
OUTLINE
10
183.513
20
137.904
30
0
11
183.551
21
137.712
31
0
0
LINE
8
OUTLINE
10
183.551
20
137.712
30
0
11
183.614
21
137.526
31
0
0
LINE
8
OUTLINE
10
183.614
20
137.526
30
0
11
183.701
21
137.35
31
0
0
LINE
8
OUTLINE
10
183.701
20
137.35
30
0
11
183.81
21
137.187
31
0
0
LINE
8
OUTLINE
10
183.81
20
137.187
30
0
11
183.939
21
137.039
31
0
0
LINE
8
OUTLINE
10
183.939
20
137.039
30
0
11
184.087
21
136.91
31
0
0
LINE
8
OUTLINE
10
184.087
20
136.91
30
0
11
184.25
21
136.801
31
0
0
LINE
8
OUTLINE
10
184.25
20
136.801
30
0
11
184.426
21
136.714
31
0
0
LINE
8
OUTLINE
10
184.426
20
136.714
30
0
11
184.612
21
136.651
31
0
0
LINE
8
OUTLINE
10
184.612
20
136.651
30
0
11
184.804
21
136.613
31
0
0
LINE
8
OUTLINE
10
184.804
20
136.613
30
0
11
185
21
136.6
31
0
0
LINE
8
OUTLINE
10
185
20
136.6
30
0
11
196.2
21
136.6
31
0
0
LINE
8
OUTLINE
10
196.2
20
136.6
30
0
11
196.2
21
136.1
31
0
0
LINE
8
OUTLINE
10
196.2
20
136.1
30
0
11
197.5
21
136.1
31
0
0
LINE
8
OUTLINE
10
197.5
20
136.1
30
0
11
197.5
21
136.6
31
0
0
LINE
8
OUTLINE
10
197.5
20
136.6
30
0
11
202
21
136.6
31
0
0
LINE
8
OUTLINE
10
202
20
136.6
30
0
11
203.5
21
135.1
31
0
0
LINE
8
OUTLINE
10
93.5
20
118.1
30
0
11
95
21
116.6
31
0
0
LINE
8
OUTLINE
10
95
20
116.6
30
0
11
99.5
21
116.6
31
0
0
LINE
8
OUTLINE
10
99.5
20
116.6
30
0
11
99.5
21
117.1
31
0
0
LINE
8
OUTLINE
10
99.5
20
117.1
30
0
11
100.8
21
117.1
31
0
0
LINE
8
OUTLINE
10
100.8
20
117.1
30
0
11
100.8
21
116.6
31
0
0
LINE
8
OUTLINE
10
100.8
20
116.6
30
0
11
112
21
116.6
31
0
0
LINE
8
OUTLINE
10
112
20
116.6
30
0
11
112.196
21
116.587
31
0
0
LINE
8
OUTLINE
10
112.196
20
116.587
30
0
11
112.388
21
116.549
31
0
0
LINE
8
OUTLINE
10
112.388
20
116.549
30
0
11
112.574
21
116.486
31
0
0
LINE
8
OUTLINE
10
112.574
20
116.486
30
0
11
112.75
21
116.399
31
0
0
LINE
8
OUTLINE
10
112.75
20
116.399
30
0
11
112.913
21
116.29
31
0
0
LINE
8
OUTLINE
10
112.913
20
116.29
30
0
11
113.061
21
116.161
31
0
0
LINE
8
OUTLINE
10
113.061
20
116.161
30
0
11
113.19
21
116.013
31
0
0
LINE
8
OUTLINE
10
113.19
20
116.013
30
0
11
113.299
21
115.85
31
0
0
LINE
8
OUTLINE
10
113.299
20
115.85
30
0
11
113.386
21
115.674
31
0
0
LINE
8
OUTLINE
10
113.386
20
115.674
30
0
11
113.449
21
115.488
31
0
0
LINE
8
OUTLINE
10
113.449
20
115.488
30
0
11
113.487
21
115.296
31
0
0
LINE
8
OUTLINE
10
113.487
20
115.296
30
0
11
113.5
21
115.1
31
0
0
LINE
8
OUTLINE
10
113.5
20
115.1
30
0
11
113.5
21
105.1
31
0
0
LINE
8
OUTLINE
10
113.5
20
105.1
30
0
11
114.5
21
104.1
31
0
0
LINE
8
OUTLINE
10
114.5
20
104.1
30
0
11
182.5
21
104.1
31
0
0
LINE
8
OUTLINE
10
182.5
20
104.1
30
0
11
183.5
21
105.1
31
0
0
LINE
8
OUTLINE
10
183.5
20
105.1
30
0
11
183.5
21
115.1
31
0
0
LINE
8
OUTLINE
10
183.5
20
115.1
30
0
11
183.513
21
115.296
31
0
0
LINE
8
OUTLINE
10
183.513
20
115.296
30
0
11
183.551
21
115.488
31
0
0
LINE
8
OUTLINE
10
183.551
20
115.488
30
0
11
183.614
21
115.674
31
0
0
LINE
8
OUTLINE
10
183.614
20
115.674
30
0
11
183.701
21
115.85
31
0
0
LINE
8
OUTLINE
10
183.701
20
115.85
30
0
11
183.81
21
116.013
31
0
0
LINE
8
OUTLINE
10
183.81
20
116.013
30
0
11
183.939
21
116.161
31
0
0
LINE
8
OUTLINE
10
183.939
20
116.161
30
0
11
184.087
21
116.29
31
0
0
LINE
8
OUTLINE
10
184.087
20
116.29
30
0
11
184.25
21
116.399
31
0
0
LINE
8
OUTLINE
10
184.25
20
116.399
30
0
11
184.426
21
116.486
31
0
0
LINE
8
OUTLINE
10
184.426
20
116.486
30
0
11
184.612
21
116.549
31
0
0
LINE
8
OUTLINE
10
184.612
20
116.549
30
0
11
184.804
21
116.587
31
0
0
LINE
8
OUTLINE
10
184.804
20
116.587
30
0
11
185
21
116.6
31
0
0
LINE
8
OUTLINE
10
185
20
116.6
30
0
11
196.2
21
116.6
31
0
0
LINE
8
OUTLINE
10
196.2
20
116.6
30
0
11
196.2
21
117.1
31
0
0
LINE
8
OUTLINE
10
196.2
20
117.1
30
0
11
197.5
21
117.1
31
0
0
LINE
8
OUTLINE
10
197.5
20
117.1
30
0
11
197.5
21
116.6
31
0
0
LINE
8
OUTLINE
10
197.5
20
116.6
30
0
11
202
21
116.6
31
0
0
LINE
8
OUTLINE
10
202
20
116.6
30
0
11
203.5
21
118.1
31
0
0
LINE
8
OUTLINE
10
93.5
20
118.1
30
0
11
93.5
21
135.1
31
0
0
LINE
8
OUTLINE
10
203.5
20
118.1
30
0
11
203.5
21
135.1
31
0
0
LINE
8
OUTLINE
10
95
20
116.6
30
0
11
95
21
136.6
31
0
0
LINE
8
OUTLINE
10
95
20
116.6
30
0
11
95
21
136.6
31
0
0
LINE
8
OUTLINE
10
99.5
20
117.1
30
0
11
99.5
21
136.1
31
0
0
LINE
8
OUTLINE
10
100.8
20
117.1
30
0
11
100.8
21
136.1
31
0
0
LINE
8
OUTLINE
10
113.5
20
115.1
30
0
11
113.5
21
138.1
31
0
0
LINE
8
OUTLINE
10
114.5
20
104.1
30
0
11
114.5
21
149.1
31
0
0
LINE
8
OUTLINE
10
182.5
20
104.1
30
0
11
182.5
21
149.1
31
0
0
LINE
8
OUTLINE
10
182.5
20
104.1
30
0
11
182.5
21
149.1
31
0
0
LINE
8
OUTLINE
10
183.5
20
115.1
30
0
11
183.5
21
138.1
31
0
0
LINE
8
OUTLINE
10
196.2
20
117.1
30
0
11
196.2
21
136.1
31
0
0
LINE
8
OUTLINE
10
197.5
20
117.1
30
0
11
197.5
21
136.1
31
0
0
LINE
8
OUTLINE
10
202
20
116.6
30
0
11
202
21
136.6
31
0
0
LINE
8
OUTLINE
10
202
20
116.6
30
0
11
202
21
136.6
31
0
0
LINE
8
CENTER
10
89.5
20
126.6
30
0
11
207.5
21
126.6
31
0
0
LINE
8
HIDDEN
10
93.5
20
128.725
30
0
11
95.449
21
127.6
31
0
0
LINE
8
HIDDEN
10
95.449
20
127.6
30
0
11
99.449
21
127.6
31
0
0
LINE
8
HIDDEN
10
99.449
20
127.6
30
0
11
100.05
21
126.6
31
0
0
LINE
8
HIDDEN
10
93.5
20
124.475
30
0
11
95.449
21
125.6
31
0
0
LINE
8
HIDDEN
10
95.449
20
125.6
30
0
11
99.449
21
125.6
31
0
0
LINE
8
HIDDEN
10
99.449
20
125.6
30
0
11
100.05
21
126.6
31
0
0
LINE
8
HIDDEN
10
95.449
20
125.6
30
0
11
95.449
21
127.6
31
0
0
LINE
8
HIDDEN
10
203.5
20
128.725
30
0
11
201.551
21
127.6
31
0
0
LINE
8
HIDDEN
10
201.551
20
127.6
30
0
11
197.551
21
127.6
31
0
0
LINE
8
HIDDEN
10
197.551
20
127.6
30
0
11
196.95
21
126.6
31
0
0
LINE
8
HIDDEN
10
203.5
20
124.475
30
0
11
201.551
21
125.6
31
0
0
LINE
8
HIDDEN
10
201.551
20
125.6
30
0
11
197.551
21
125.6
31
0
0
LINE
8
HIDDEN
10
197.551
20
125.6
30
0
11
196.95
21
126.6
31
0
0
LINE
8
HIDDEN
10
201.551
20
125.6
30
0
11
201.551
21
127.6
31
0
0
LINE
8
DIM
10
93.5
20
115.6
30
0
11
93.5
21
87.1
31
0
0
LINE
8
DIM
10
113.5
20
115.6
30
0
11
113.5
21
87.1
31
0
0
LINE
8
DIM
10
93.5
20
89.1
30
0
11
113.5
21
89.1
31
0
0
SOLID
8
DIM
10
93.5
20
89.1
30
0
11
96.5
21
89.61
31
0
12
96.5
22
88.59
32
0
13
96.5
23
88.59
33
0
0
SOLID
8
DIM
10
113.5
20
89.1
30
0
11
110.5
21
88.59
31
0
12
110.5
22
89.61
32
0
13
110.5
23
89.61
33
0
0
TEXT
8
TEXT
10
103.5
20
90
30
0
40
3.5
1
20
50
0
72
1
11
103.5
21
90
31
0
0
LINE
8
DIM
10
183.5
20
115.6
30
0
11
183.5
21
87.1
31
0
0
LINE
8
DIM
10
203.5
20
115.6
30
0
11
203.5
21
87.1
31
0
0
LINE
8
DIM
10
183.5
20
89.1
30
0
11
203.5
21
89.1
31
0
0
SOLID
8
DIM
10
183.5
20
89.1
30
0
11
186.5
21
89.61
31
0
12
186.5
22
88.59
32
0
13
186.5
23
88.59
33
0
0
SOLID
8
DIM
10
203.5
20
89.1
30
0
11
200.5
21
88.59
31
0
12
200.5
22
89.61
32
0
13
200.5
23
89.61
33
0
0
TEXT
8
TEXT
10
193.5
20
90
30
0
40
3.5
1
20
50
0
72
1
11
193.5
21
90
31
0
0
LINE
8
DIM
10
93.5
20
103.1
30
0
11
93.5
21
78.1
31
0
0
LINE
8
DIM
10
203.5
20
103.1
30
0
11
203.5
21
78.1
31
0
0
LINE
8
DIM
10
93.5
20
80.1
30
0
11
203.5
21
80.1
31
0
0
SOLID
8
DIM
10
93.5
20
80.1
30
0
11
96.5
21
80.61
31
0
12
96.5
22
79.59
32
0
13
96.5
23
79.59
33
0
0
SOLID
8
DIM
10
203.5
20
80.1
30
0
11
200.5
21
79.59
31
0
12
200.5
22
80.61
32
0
13
200.5
23
80.61
33
0
0
TEXT
8
TEXT
10
148.5
20
81
30
0
40
3.5
1
110
50
0
72
1
11
148.5
21
81
31
0
0
LINE
8
DIM
10
103.5
20
116.6
30
0
11
103.5
21
141.6
31
0
0
SOLID
8
DIM
10
103.5
20
116.6
30
0
11
102.99
21
119.6
31
0
12
104.01
22
119.6
32
0
13
104.01
23
119.6
33
0
0
SOLID
8
DIM
10
103.5
20
136.6
30
0
11
104.01
21
133.6
31
0
12
102.99
22
133.6
32
0
13
102.99
23
133.6
33
0
0
TEXT
8
TEXT
10
103.5
20
142.4
30
0
40
3.5
1
%%c20 h6
50
0
72
1
11
103.5
21
142.4
31
0
0
LINE
8
DIM
10
148.5
20
104.1
30
0
11
148.5
21
154.1
31
0
0
SOLID
8
DIM
10
148.5
20
104.1
30
0
11
147.99
21
107.1
31
0
12
149.01
22
107.1
32
0
13
149.01
23
107.1
33
0
0
SOLID
8
DIM
10
148.5
20
149.1
30
0
11
149.01
21
146.1
31
0
12
147.99
22
146.1
32
0
13
147.99
23
146.1
33
0
0
TEXT
8
TEXT
10
148.5
20
154.9
30
0
40
3.5
1
%%c45
50
0
72
1
11
148.5
21
154.9
31
0
0
LINE
8
DIM
10
193.5
20
116.6
30
0
11
193.5
21
141.6
31
0
0
SOLID
8
DIM
10
193.5
20
116.6
30
0
11
192.99
21
119.6
31
0
12
194.01
22
119.6
32
0
13
194.01
23
119.6
33
0
0
SOLID
8
DIM
10
193.5
20
136.6
30
0
11
194.01
21
133.6
31
0
12
192.99
22
133.6
32
0
13
192.99
23
133.6
33
0
0
TEXT
8
TEXT
10
193.5
20
142.4
30
0
40
3.5
1
%%c20 h6
50
0
72
1
11
193.5
21
142.4
31
0
0
LINE
8
DIM
10
94.25
20
135.85
30
0
11
88.25
21
143.85
31
0
0
LINE
8
DIM
10
88.25
20
143.85
30
0
11
79.97
21
143.85
31
0
0
SOLID
8
DIM
10
94.25
20
135.85
30
0
11
96.458
21
133.756
31
0
12
95.642
22
133.144
32
0
13
95.642
23
133.144
33
0
0
TEXT
8
TEXT
10
87.75
20
144.55
30
0
40
3.5
1
C1.5
50
0
72
2
11
87.75
21
144.55
31
0
0
LINE
8
DIM
10
202.75
20
135.85
30
0
11
208.75
21
143.85
31
0
0
LINE
8
DIM
10
208.75
20
143.85
30
0
11
217.03
21
143.85
31
0
0
SOLID
8
DIM
10
202.75
20
135.85
30
0
11
201.358
21
133.144
31
0
12
200.542
22
133.756
32
0
13
200.542
23
133.756
33
0
0
TEXT
8
TEXT
10
209.25
20
144.55
30
0
40
3.5
1
C1.5
50
0
72
0
11
209.25
21
144.55
31
0
0
LINE
8
DIM
10
113.065
20
137.035
30
0
11
108.065
21
149.035
31
0
0
LINE
8
DIM
10
108.065
20
149.035
30
0
11
99.785
21
149.035
31
0
0
SOLID
8
DIM
10
113.065
20
137.035
30
0
11
114.69
21
134.462
31
0
12
113.748
22
134.07
32
0
13
113.748
23
134.07
33
0
0
TEXT
8
TEXT
10
107.565
20
149.735
30
0
40
3.5
1
R1.5
50
0
72
2
11
107.565
21
149.735
31
0
0
LINE
8
DIM
10
183.935
20
137.035
30
0
11
188.935
21
149.035
31
0
0
LINE
8
DIM
10
188.935
20
149.035
30
0
11
197.215
21
149.035
31
0
0
SOLID
8
DIM
10
183.935
20
137.035
30
0
11
183.252
21
134.07
31
0
12
182.31
22
134.462
32
0
13
182.31
23
134.462
33
0
0
TEXT
8
TEXT
10
189.435
20
149.735
30
0
40
3.5
1
R1.5
50
0
72
0
11
189.435
21
149.735
31
0
0
LINE
8
DIM
10
113
20
148.6
30
0
11
119
21
156.6
31
0
0
LINE
8
DIM
10
119
20
156.6
30
0
11
124.34
21
156.6
31
0
0
SOLID
8
DIM
10
113
20
148.6
30
0
11
111.608
21
145.894
31
0
12
110.792
22
146.506
32
0
13
110.792
23
146.506
33
0
0
TEXT
8
TEXT
10
119.5
20
157.3
30
0
40
3.5
1
C1
50
0
72
0
11
119.5
21
157.3
31
0
0
LINE
8
DIM
10
184
20
148.6
30
0
11
178
21
156.6
31
0
0
LINE
8
DIM
10
178
20
156.6
30
0
11
172.66
21
156.6
31
0
0
SOLID
8
DIM
10
184
20
148.6
30
0
11
186.208
21
146.506
31
0
12
185.392
22
145.894
32
0
13
185.392
23
145.894
33
0
0
TEXT
8
TEXT
10
177.5
20
157.3
30
0
40
3.5
1
C1
50
0
72
2
11
177.5
21
157.3
31
0
0
LINE
8
DIM
10
99.5
20
137.6
30
0
11
99.5
21
160.1
31
0
0
LINE
8
DIM
10
100.8
20
137.6
30
0
11
100.8
21
160.1
31
0
0
LINE
8
DIM
10
92.9
20
158.1
30
0
11
107.4
21
158.1
31
0
0
SOLID
8
DIM
10
99.5
20
158.1
30
0
11
96.5
21
157.59
31
0
12
96.5
22
158.61
32
0
13
96.5
23
158.61
33
0
0
SOLID
8
DIM
10
100.8
20
158.1
30
0
11
103.8
21
158.61
31
0
12
103.8
22
157.59
32
0
13
103.8
23
157.59
33
0
0
TEXT
8
TEXT
10
110.45
20
159
30
0
40
3.5
1
1.3
50
0
72
1
11
110.45
21
159
31
0
0
LINE
8
DIM
10
93.5
20
137.6
30
0
11
93.5
21
160.1
31
0
0
LINE
8
DIM
10
99.5
20
137.6
30
0
11
99.5
21
160.1
31
0
0
LINE
8
DIM
10
86.9
20
158.1
30
0
11
106.1
21
158.1
31
0
0
SOLID
8
DIM
10
93.5
20
158.1
30
0
11
90.5
21
157.59
31
0
12
90.5
22
158.61
32
0
13
90.5
23
158.61
33
0
0
SOLID
8
DIM
10
99.5
20
158.1
30
0
11
102.5
21
158.61
31
0
12
102.5
22
157.59
32
0
13
102.5
23
157.59
33
0
0
TEXT
8
TEXT
10
85.32
20
159
30
0
40
3.5
1
6
50
0
72
1
11
85.32
21
159
31
0
0
LINE
8
DIM
10
100.15
20
117.1
30
0
11
100.15
21
141.6
31
0
0
SOLID
8
DIM
10
100.15
20
117.1
30
0
11
99.64
21
120.1
31
0
12
100.66
22
120.1
32
0
13
100.66
23
120.1
33
0
0
SOLID
8
DIM
10
100.15
20
136.1
30
0
11
100.66
21
133.1
31
0
12
99.64
22
133.1
32
0
13
99.64
23
133.1
33
0
0
LINE
8
DIM
10
100.15
20
141.6
30
0
11
100.15
21
156.8
31
0
0
TEXT
8
TEXT
10
100.15
20
157.1
30
0
40
3.5
1
%%c19
50
0
72
1
11
100.15
21
157.1
31
0
0
LINE
8
DIM
10
196.2
20
137.6
30
0
11
196.2
21
160.1
31
0
0
LINE
8
DIM
10
197.5
20
137.6
30
0
11
197.5
21
160.1
31
0
0
LINE
8
DIM
10
189.6
20
158.1
30
0
11
204.1
21
158.1
31
0
0
SOLID
8
DIM
10
196.2
20
158.1
30
0
11
193.2
21
157.59
31
0
12
193.2
22
158.61
32
0
13
193.2
23
158.61
33
0
0
SOLID
8
DIM
10
197.5
20
158.1
30
0
11
200.5
21
158.61
31
0
12
200.5
22
157.59
32
0
13
200.5
23
157.59
33
0
0
TEXT
8
TEXT
10
207.15
20
159
30
0
40
3.5
1
1.3
50
0
72
1
11
207.15
21
159
31
0
0
LINE
8
DIM
10
203.5
20
137.6
30
0
11
203.5
21
160.1
31
0
0
LINE
8
DIM
10
197.5
20
137.6
30
0
11
197.5
21
160.1
31
0
0
LINE
8
DIM
10
190.9
20
158.1
30
0
11
210.1
21
158.1
31
0
0
SOLID
8
DIM
10
197.5
20
158.1
30
0
11
194.5
21
157.59
31
0
12
194.5
22
158.61
32
0
13
194.5
23
158.61
33
0
0
SOLID
8
DIM
10
203.5
20
158.1
30
0
11
206.5
21
158.61
31
0
12
206.5
22
157.59
32
0
13
206.5
23
157.59
33
0
0
TEXT
8
TEXT
10
211.68
20
159
30
0
40
3.5
1
6
50
0
72
1
11
211.68
21
159
31
0
0
LINE
8
DIM
10
196.85
20
117.1
30
0
11
196.85
21
141.6
31
0
0
SOLID
8
DIM
10
196.85
20
117.1
30
0
11
196.34
21
120.1
31
0
12
197.36
22
120.1
32
0
13
197.36
23
120.1
33
0
0
SOLID
8
DIM
10
196.85
20
136.1
30
0
11
197.36
21
133.1
31
0
12
196.34
22
133.1
32
0
13
196.34
23
133.1
33
0
0
LINE
8
DIM
10
196.85
20
141.6
30
0
11
196.85
21
156.8
31
0
0
TEXT
8
TEXT
10
196.85
20
157.1
30
0
40
3.5
1
%%c19
50
0
72
1
11
196.85
21
157.1
31
0
0
LINE
8
DIM
10
93.5
20
129.575
30
0
11
88.5
21
149.1
31
0
0
LINE
8
DIM
10
88.5
20
149.1
30
0
11
60.35
21
149.1
31
0
0
SOLID
8
DIM
10
93.5
20
129.575
30
0
11
94.738
21
126.795
31
0
12
93.75
22
126.542
32
0
13
93.75
23
126.542
33
0
0
TEXT
8
TEXT
10
88
20
149.8
30
0
40
2.5
1
센터구멍 A2 (DIN 332)
50
0
72
2
11
88
21
149.8
31
0
0
LINE
8
DIM
10
203.5
20
129.575
30
0
11
208.5
21
149.1
31
0
0
LINE
8
DIM
10
208.5
20
149.1
30
0
11
236.65
21
149.1
31
0
0
SOLID
8
DIM
10
203.5
20
129.575
30
0
11
203.25
21
126.542
31
0
12
202.262
22
126.795
32
0
13
202.262
23
126.795
33
0
0
TEXT
8
TEXT
10
209
20
149.8
30
0
40
2.5
1
센터구멍 A2 (DIN 332)
50
0
72
0
11
209
21
149.8
31
0
0
LINE
8
FRAME
10
10
20
10
30
0
11
287
21
10
31
0
0
LINE
8
FRAME
10
287
20
10
30
0
11
287
21
200
31
0
0
LINE
8
FRAME
10
287
20
200
30
0
11
10
21
200
31
0
0
LINE
8
FRAME
10
10
20
200
30
0
11
10
21
10
31
0
0
LINE
8
FRAME
10
177
20
10
30
0
11
287
21
10
31
0
0
LINE
8
FRAME
10
287
20
10
30
0
11
287
21
34
31
0
0
LINE
8
FRAME
10
287
20
34
30
0
11
177
21
34
31
0
0
LINE
8
FRAME
10
177
20
34
30
0
11
177
21
10
31
0
0
LINE
8
FRAME
10
177
20
18
30
0
11
287
21
18
31
0
0
LINE
8
FRAME
10
177
20
26
30
0
11
287
21
26
31
0
0
LINE
8
FRAME
10
232
20
10
30
0
11
232
21
26
31
0
0
LINE
8
FRAME
10
255
20
26
30
0
11
255
21
34
31
0
0
TEXT
8
TEXT
10
179
20
28.5
30
0
40
4.2
1
VRINGON
72
0
11
179
21
28.5
31
0
0
TEXT
8
TEXT
10
257
20
28.5
30
0
40
2.5
1
도번 VR-RB-005
72
0
11
257
21
28.5
31
0
0
TEXT
8
TEXT
10
179
20
20.5
30
0
40
2.8
1
품명 롤러
72
0
11
179
21
20.5
31
0
0
TEXT
8
TEXT
10
234
20
20.5
30
0
40
2.8
1
재질 SUS304
72
0
11
234
21
20.5
31
0
0
TEXT
8
TEXT
10
179
20
12.5
30
0
40
2.5
1
척도 1:1
72
0
11
179
21
12.5
31
0
0
TEXT
8
TEXT
10
234
20
12.5
30
0
40
2.5
1
3각법 · 단위 mm
72
0
11
234
21
12.5
31
0
0
CIRCLE
8
FRAME
10
269
20
16.5
30
0
40
2.4
0
CIRCLE
8
FRAME
10
269
20
16.5
30
0
40
1.2
0
LINE
8
FRAME
10
274.5
20
13.9
30
0
11
281
21
15.1
31
0
0
LINE
8
FRAME
10
281
20
15.1
30
0
11
281
21
17.9
31
0
0
LINE
8
FRAME
10
281
20
17.9
30
0
11
274.5
21
19.1
31
0
0
LINE
8
FRAME
10
274.5
20
19.1
30
0
11
274.5
21
13.9
31
0
0
TEXT
8
TEXT
10
14
20
18.2
30
0
40
2.6
1
1. 지시 없는 모따기 C0.5
72
0
11
14
21
18.2
31
0
0
TEXT
8
TEXT
10
14
20
14
30
0
40
2.6
1
2. 지시 없는 공차 KS B ISO 2768-m
72
0
11
14
21
14
31
0
0
ENDSEC
0
EOF
