0
SECTION
2
HEADER
9
$ACADVER
1
AC1009
9
$INSUNITS
70
4
0
ENDSEC
0
SECTION
2
TABLES
0
TABLE
2
LTYPE
70
3
0
LTYPE
2
CONTINUOUS
70
0
3
Solid line
72
65
73
0
40
0
0
LTYPE
2
DASHED
70
0
3
Dashed __ __ __
72
65
73
2
40
4.5
49
3
49
-1.5
0
LTYPE
2
CENTER
70
0
3
Center ____ _ ____
72
65
73
4
40
11.5
49
8
49
-1.5
49
0.5
49
-1.5
0
ENDTAB
0
TABLE
2
LAYER
70
9
0
LAYER
2
OUTLINE
70
0
62
7
6
CONTINUOUS
0
LAYER
2
HIDDEN
70
0
62
8
6
DASHED
0
LAYER
2
CENTER
70
0
62
1
6
CENTER
0
LAYER
2
THIN
70
0
62
7
6
CONTINUOUS
0
LAYER
2
DIM
70
0
62
3
6
CONTINUOUS
0
LAYER
2
HATCH
70
0
62
8
6
CONTINUOUS
0
LAYER
2
FRAME
70
0
62
7
6
CONTINUOUS
0
LAYER
2
TEXT
70
0
62
7
6
CONTINUOUS
0
LAYER
2
CUT
70
0
62
5
6
DASHED
0
ENDTAB
0
ENDSEC
0
SECTION
2
ENTITIES
0
LINE
8
OUTLINE
10
92.12
20
130.25
30
0
11
93.12
21
131.25
31
0
0
LINE
8
OUTLINE
10
93.12
20
131.25
30
0
11
106.92
21
131.25
31
0
0
LINE
8
OUTLINE
10
106.92
20
131.25
30
0
11
107.077
21
131.26
31
0
0
LINE
8
OUTLINE
10
107.077
20
131.26
30
0
11
107.231
21
131.291
31
0
0
LINE
8
OUTLINE
10
107.231
20
131.291
30
0
11
107.379
21
131.341
31
0
0
LINE
8
OUTLINE
10
107.379
20
131.341
30
0
11
107.52
21
131.411
31
0
0
LINE
8
OUTLINE
10
107.52
20
131.411
30
0
11
107.651
21
131.498
31
0
0
LINE
8
OUTLINE
10
107.651
20
131.498
30
0
11
107.769
21
131.601
31
0
0
LINE
8
OUTLINE
10
107.769
20
131.601
30
0
11
107.872
21
131.719
31
0
0
LINE
8
OUTLINE
10
107.872
20
131.719
30
0
11
107.959
21
131.85
31
0
0
LINE
8
OUTLINE
10
107.959
20
131.85
30
0
11
108.029
21
131.991
31
0
0
LINE
8
OUTLINE
10
108.029
20
131.991
30
0
11
108.079
21
132.139
31
0
0
LINE
8
OUTLINE
10
108.079
20
132.139
30
0
11
108.11
21
132.293
31
0
0
LINE
8
OUTLINE
10
108.11
20
132.293
30
0
11
108.12
21
132.45
31
0
0
LINE
8
OUTLINE
10
108.12
20
132.45
30
0
11
108.12
21
137.25
31
0
0
LINE
8
OUTLINE
10
108.12
20
137.25
30
0
11
128.12
21
137.25
31
0
0
LINE
8
OUTLINE
10
128.12
20
137.25
30
0
11
128.12
21
132.25
31
0
0
LINE
8
OUTLINE
10
128.12
20
132.25
30
0
11
140.12
21
132.25
31
0
0
LINE
8
OUTLINE
10
140.12
20
132.25
30
0
11
140.12
21
137.25
31
0
0
LINE
8
OUTLINE
10
140.12
20
137.25
30
0
11
164.12
21
137.25
31
0
0
LINE
8
OUTLINE
10
164.12
20
137.25
30
0
11
164.12
21
132.25
31
0
0
LINE
8
OUTLINE
10
164.12
20
132.25
30
0
11
176.12
21
132.25
31
0
0
LINE
8
OUTLINE
10
176.12
20
132.25
30
0
11
176.12
21
137.25
31
0
0
LINE
8
OUTLINE
10
176.12
20
137.25
30
0
11
200.12
21
137.25
31
0
0
LINE
8
OUTLINE
10
200.12
20
137.25
30
0
11
200.12
21
132.25
31
0
0
LINE
8
OUTLINE
10
200.12
20
132.25
30
0
11
212.12
21
132.25
31
0
0
LINE
8
OUTLINE
10
212.12
20
132.25
30
0
11
212.12
21
137.25
31
0
0
LINE
8
OUTLINE
10
212.12
20
137.25
30
0
11
232.12
21
137.25
31
0
0
LINE
8
OUTLINE
10
232.12
20
137.25
30
0
11
232.12
21
132.45
31
0
0
LINE
8
OUTLINE
10
232.12
20
132.45
30
0
11
232.13
21
132.293
31
0
0
LINE
8
OUTLINE
10
232.13
20
132.293
30
0
11
232.161
21
132.139
31
0
0
LINE
8
OUTLINE
10
232.161
20
132.139
30
0
11
232.211
21
131.991
31
0
0
LINE
8
OUTLINE
10
232.211
20
131.991
30
0
11
232.281
21
131.85
31
0
0
LINE
8
OUTLINE
10
232.281
20
131.85
30
0
11
232.368
21
131.719
31
0
0
LINE
8
OUTLINE
10
232.368
20
131.719
30
0
11
232.471
21
131.601
31
0
0
LINE
8
OUTLINE
10
232.471
20
131.601
30
0
11
232.589
21
131.498
31
0
0
LINE
8
OUTLINE
10
232.589
20
131.498
30
0
11
232.72
21
131.411
31
0
0
LINE
8
OUTLINE
10
232.72
20
131.411
30
0
11
232.861
21
131.341
31
0
0
LINE
8
OUTLINE
10
232.861
20
131.341
30
0
11
233.009
21
131.291
31
0
0
LINE
8
OUTLINE
10
233.009
20
131.291
30
0
11
233.163
21
131.26
31
0
0
LINE
8
OUTLINE
10
233.163
20
131.26
30
0
11
233.32
21
131.25
31
0
0
LINE
8
OUTLINE
10
233.32
20
131.25
30
0
11
243.12
21
131.25
31
0
0
LINE
8
OUTLINE
10
243.12
20
131.25
30
0
11
244.12
21
130.25
31
0
0
LINE
8
OUTLINE
10
92.12
20
116.25
30
0
11
93.12
21
115.25
31
0
0
LINE
8
OUTLINE
10
93.12
20
115.25
30
0
11
106.92
21
115.25
31
0
0
LINE
8
OUTLINE
10
106.92
20
115.25
30
0
11
107.077
21
115.24
31
0
0
LINE
8
OUTLINE
10
107.077
20
115.24
30
0
11
107.231
21
115.209
31
0
0
LINE
8
OUTLINE
10
107.231
20
115.209
30
0
11
107.379
21
115.159
31
0
0
LINE
8
OUTLINE
10
107.379
20
115.159
30
0
11
107.52
21
115.089
31
0
0
LINE
8
OUTLINE
10
107.52
20
115.089
30
0
11
107.651
21
115.002
31
0
0
LINE
8
OUTLINE
10
107.651
20
115.002
30
0
11
107.769
21
114.899
31
0
0
LINE
8
OUTLINE
10
107.769
20
114.899
30
0
11
107.872
21
114.781
31
0
0
LINE
8
OUTLINE
10
107.872
20
114.781
30
0
11
107.959
21
114.65
31
0
0
LINE
8
OUTLINE
10
107.959
20
114.65
30
0
11
108.029
21
114.509
31
0
0
LINE
8
OUTLINE
10
108.029
20
114.509
30
0
11
108.079
21
114.361
31
0
0
LINE
8
OUTLINE
10
108.079
20
114.361
30
0
11
108.11
21
114.207
31
0
0
LINE
8
OUTLINE
10
108.11
20
114.207
30
0
11
108.12
21
114.05
31
0
0
LINE
8
OUTLINE
10
108.12
20
114.05
30
0
11
108.12
21
109.25
31
0
0
LINE
8
OUTLINE
10
108.12
20
109.25
30
0
11
128.12
21
109.25
31
0
0
LINE
8
OUTLINE
10
128.12
20
109.25
30
0
11
128.12
21
114.25
31
0
0
LINE
8
OUTLINE
10
128.12
20
114.25
30
0
11
140.12
21
114.25
31
0
0
LINE
8
OUTLINE
10
140.12
20
114.25
30
0
11
140.12
21
109.25
31
0
0
LINE
8
OUTLINE
10
140.12
20
109.25
30
0
11
164.12
21
109.25
31
0
0
LINE
8
OUTLINE
10
164.12
20
109.25
30
0
11
164.12
21
114.25
31
0
0
LINE
8
OUTLINE
10
164.12
20
114.25
30
0
11
176.12
21
114.25
31
0
0
LINE
8
OUTLINE
10
176.12
20
114.25
30
0
11
176.12
21
109.25
31
0
0
LINE
8
OUTLINE
10
176.12
20
109.25
30
0
11
200.12
21
109.25
31
0
0
LINE
8
OUTLINE
10
200.12
20
109.25
30
0
11
200.12
21
114.25
31
0
0
LINE
8
OUTLINE
10
200.12
20
114.25
30
0
11
212.12
21
114.25
31
0
0
LINE
8
OUTLINE
10
212.12
20
114.25
30
0
11
212.12
21
109.25
31
0
0
LINE
8
OUTLINE
10
212.12
20
109.25
30
0
11
232.12
21
109.25
31
0
0
LINE
8
OUTLINE
10
232.12
20
109.25
30
0
11
232.12
21
114.05
31
0
0
LINE
8
OUTLINE
10
232.12
20
114.05
30
0
11
232.13
21
114.207
31
0
0
LINE
8
OUTLINE
10
232.13
20
114.207
30
0
11
232.161
21
114.361
31
0
0
LINE
8
OUTLINE
10
232.161
20
114.361
30
0
11
232.211
21
114.509
31
0
0
LINE
8
OUTLINE
10
232.211
20
114.509
30
0
11
232.281
21
114.65
31
0
0
LINE
8
OUTLINE
10
232.281
20
114.65
30
0
11
232.368
21
114.781
31
0
0
LINE
8
OUTLINE
10
232.368
20
114.781
30
0
11
232.471
21
114.899
31
0
0
LINE
8
OUTLINE
10
232.471
20
114.899
30
0
11
232.589
21
115.002
31
0
0
LINE
8
OUTLINE
10
232.589
20
115.002
30
0
11
232.72
21
115.089
31
0
0
LINE
8
OUTLINE
10
232.72
20
115.089
30
0
11
232.861
21
115.159
31
0
0
LINE
8
OUTLINE
10
232.861
20
115.159
30
0
11
233.009
21
115.209
31
0
0
LINE
8
OUTLINE
10
233.009
20
115.209
30
0
11
233.163
21
115.24
31
0
0
LINE
8
OUTLINE
10
233.163
20
115.24
30
0
11
233.32
21
115.25
31
0
0
LINE
8
OUTLINE
10
233.32
20
115.25
30
0
11
243.12
21
115.25
31
0
0
LINE
8
OUTLINE
10
243.12
20
115.25
30
0
11
244.12
21
116.25
31
0
0
LINE
8
OUTLINE
10
92.12
20
116.25
30
0
11
92.12
21
130.25
31
0
0
LINE
8
OUTLINE
10
244.12
20
116.25
30
0
11
244.12
21
130.25
31
0
0
LINE
8
OUTLINE
10
93.12
20
115.25
30
0
11
93.12
21
131.25
31
0
0
LINE
8
OUTLINE
10
93.12
20
115.25
30
0
11
93.12
21
131.25
31
0
0
LINE
8
OUTLINE
10
108.12
20
114.05
30
0
11
108.12
21
132.45
31
0
0
LINE
8
OUTLINE
10
128.12
20
114.25
30
0
11
128.12
21
132.25
31
0
0
LINE
8
OUTLINE
10
140.12
20
114.25
30
0
11
140.12
21
132.25
31
0
0
LINE
8
OUTLINE
10
164.12
20
114.25
30
0
11
164.12
21
132.25
31
0
0
LINE
8
OUTLINE
10
176.12
20
114.25
30
0
11
176.12
21
132.25
31
0
0
LINE
8
OUTLINE
10
200.12
20
114.25
30
0
11
200.12
21
132.25
31
0
0
LINE
8
OUTLINE
10
212.12
20
114.25
30
0
11
212.12
21
132.25
31
0
0
LINE
8
OUTLINE
10
232.12
20
114.05
30
0
11
232.12
21
132.45
31
0
0
LINE
8
OUTLINE
10
243.12
20
115.25
30
0
11
243.12
21
131.25
31
0
0
LINE
8
OUTLINE
10
243.12
20
115.25
30
0
11
243.12
21
131.25
31
0
0
LINE
8
CENTER
10
84.12
20
123.25
30
0
11
252.12
21
123.25
31
0
0
LINE
8
HIDDEN
10
92.12
20
127.5
30
0
11
96.018
21
125.25
31
0
0
LINE
8
HIDDEN
10
96.018
20
125.25
30
0
11
104.018
21
125.25
31
0
0
LINE
8
HIDDEN
10
104.018
20
125.25
30
0
11
105.22
21
123.25
31
0
0
LINE
8
HIDDEN
10
92.12
20
119
30
0
11
96.018
21
121.25
31
0
0
LINE
8
HIDDEN
10
96.018
20
121.25
30
0
11
104.018
21
121.25
31
0
0
LINE
8
HIDDEN
10
104.018
20
121.25
30
0
11
105.22
21
123.25
31
0
0
LINE
8
HIDDEN
10
96.018
20
121.25
30
0
11
96.018
21
125.25
31
0
0
LINE
8
DIM
10
92.12
20
114.25
30
0
11
92.12
21
92.25
31
0
0
LINE
8
DIM
10
108.12
20
114.25
30
0
11
108.12
21
92.25
31
0
0
LINE
8
DIM
10
92.12
20
94.25
30
0
11
108.12
21
94.25
31
0
0
SOLID
8
DIM
10
92.12
20
94.25
30
0
11
95.12
21
94.76
31
0
12
95.12
22
93.74
32
0
13
95.12
23
93.74
33
0
0
SOLID
8
DIM
10
108.12
20
94.25
30
0
11
105.12
21
93.74
31
0
12
105.12
22
94.76
32
0
13
105.12
23
94.76
33
0
0
TEXT
8
TEXT
10
100.12
20
96.05
30
0
40
3.5
1
8
50
0
72
1
11
100.12
21
96.05
31
0
0
LINE
8
DIM
10
232.12
20
114.25
30
0
11
232.12
21
92.25
31
0
0
LINE
8
DIM
10
244.12
20
114.25
30
0
11
244.12
21
92.25
31
0
0
LINE
8
DIM
10
232.12
20
94.25
30
0
11
244.12
21
94.25
31
0
0
SOLID
8
DIM
10
232.12
20
94.25
30
0
11
235.12
21
94.76
31
0
12
235.12
22
93.74
32
0
13
235.12
23
93.74
33
0
0
SOLID
8
DIM
10
244.12
20
94.25
30
0
11
241.12
21
93.74
31
0
12
241.12
22
94.76
32
0
13
241.12
23
94.76
33
0
0
TEXT
8
TEXT
10
238.12
20
96.05
30
0
40
3.5
1
6
50
0
72
1
11
238.12
21
96.05
31
0
0
LINE
8
DIM
10
92.12
20
108.25
30
0
11
92.12
21
83.25
31
0
0
LINE
8
DIM
10
244.12
20
108.25
30
0
11
244.12
21
83.25
31
0
0
LINE
8
DIM
10
92.12
20
85.25
30
0
11
244.12
21
85.25
31
0
0
SOLID
8
DIM
10
92.12
20
85.25
30
0
11
95.12
21
85.76
31
0
12
95.12
22
84.74
32
0
13
95.12
23
84.74
33
0
0
SOLID
8
DIM
10
244.12
20
85.25
30
0
11
241.12
21
84.74
31
0
12
241.12
22
85.76
32
0
13
241.12
23
85.76
33
0
0
TEXT
8
TEXT
10
168.12
20
87.05
30
0
40
3.5
1
76
50
0
72
1
11
168.12
21
87.05
31
0
0
LINE
8
DIM
10
100.12
20
115.25
30
0
11
100.12
21
141.25
31
0
0
SOLID
8
DIM
10
100.12
20
115.25
30
0
11
99.61
21
118.25
31
0
12
100.63
22
118.25
32
0
13
100.63
23
118.25
33
0
0
SOLID
8
DIM
10
100.12
20
131.25
30
0
11
100.63
21
128.25
31
0
12
99.61
22
128.25
32
0
13
99.61
23
128.25
33
0
0
TEXT
8
TEXT
10
100.12
20
142.85
30
0
40
3.5
1
%%c8
50
0
72
1
11
100.12
21
142.85
31
0
0
LINE
8
DIM
10
170.12
20
109.25
30
0
11
170.12
21
147.25
31
0
0
SOLID
8
DIM
10
170.12
20
109.25
30
0
11
169.61
21
112.25
31
0
12
170.63
22
112.25
32
0
13
170.63
23
112.25
33
0
0
SOLID
8
DIM
10
170.12
20
137.25
30
0
11
170.63
21
134.25
31
0
12
169.61
22
134.25
32
0
13
169.61
23
134.25
33
0
0
TEXT
8
TEXT
10
170.12
20
148.85
30
0
40
3.5
1
%%c14 g6
50
0
72
1
11
170.12
21
148.85
31
0
0
LINE
8
DIM
10
238.12
20
115.25
30
0
11
238.12
21
141.25
31
0
0
SOLID
8
DIM
10
238.12
20
115.25
30
0
11
237.61
21
118.25
31
0
12
238.63
22
118.25
32
0
13
238.63
23
118.25
33
0
0
SOLID
8
DIM
10
238.12
20
131.25
30
0
11
238.63
21
128.25
31
0
12
237.61
22
128.25
32
0
13
237.61
23
128.25
33
0
0
TEXT
8
TEXT
10
238.12
20
142.85
30
0
40
3.5
1
%%c8
50
0
72
1
11
238.12
21
142.85
31
0
0
LINE
8
DIM
10
92.62
20
130.75
30
0
11
86.62
21
138.75
31
0
0
LINE
8
DIM
10
86.62
20
138.75
30
0
11
77.34
21
138.75
31
0
0
SOLID
8
DIM
10
92.62
20
130.75
30
0
11
94.828
21
128.656
31
0
12
94.012
22
128.044
32
0
13
94.012
23
128.044
33
0
0
TEXT
8
TEXT
10
85.62
20
140.15
30
0
40
3.5
1
C0.5
50
0
72
2
11
85.62
21
140.15
31
0
0
LINE
8
DIM
10
107.772
20
131.598
30
0
11
102.772
21
138.598
31
0
0
LINE
8
DIM
10
102.772
20
138.598
30
0
11
93.492
21
138.598
31
0
0
SOLID
8
DIM
10
107.772
20
131.598
30
0
11
109.931
21
129.453
31
0
12
109.101
22
128.86
32
0
13
109.101
23
128.86
33
0
0
TEXT
8
TEXT
10
101.772
20
139.998
30
0
40
3.5
1
R0.6
50
0
72
2
11
101.772
21
139.998
31
0
0
LINE
8
DIM
10
232.468
20
131.598
30
0
11
237.468
21
138.598
31
0
0
LINE
8
DIM
10
237.468
20
138.598
30
0
11
246.748
21
138.598
31
0
0
SOLID
8
DIM
10
232.468
20
131.598
30
0
11
231.139
21
128.86
31
0
12
230.309
22
129.453
32
0
13
230.309
23
129.453
33
0
0
TEXT
8
TEXT
10
238.468
20
139.998
30
0
40
3.5
1
R0.6
50
0
72
0
11
238.468
21
139.998
31
0
0
LINE
8
DIM
10
243.62
20
130.75
30
0
11
249.62
21
143.75
31
0
0
LINE
8
DIM
10
249.62
20
143.75
30
0
11
258.9
21
143.75
31
0
0
SOLID
8
DIM
10
243.62
20
130.75
30
0
11
242.826
21
127.812
31
0
12
241.9
22
128.24
32
0
13
241.9
23
128.24
33
0
0
TEXT
8
TEXT
10
250.62
20
145.15
30
0
40
3.5
1
C0.5
50
0
72
0
11
250.62
21
145.15
31
0
0
LINE
8
DIM
10
128.12
20
138.25
30
0
11
128.12
21
148.25
31
0
0
LINE
8
DIM
10
140.12
20
138.25
30
0
11
140.12
21
148.25
31
0
0
LINE
8
DIM
10
128.12
20
146.25
30
0
11
140.12
21
146.25
31
0
0
SOLID
8
DIM
10
128.12
20
146.25
30
0
11
131.12
21
146.76
31
0
12
131.12
22
145.74
32
0
13
131.12
23
145.74
33
0
0
SOLID
8
DIM
10
140.12
20
146.25
30
0
11
137.12
21
145.74
31
0
12
137.12
22
146.76
32
0
13
137.12
23
146.76
33
0
0
TEXT
8
TEXT
10
134.12
20
148.05
30
0
40
3.5
1
6
50
0
72
1
11
134.12
21
148.05
31
0
0
LINE
8
DIM
10
108.12
20
138.25
30
0
11
108.12
21
148.25
31
0
0
LINE
8
DIM
10
128.12
20
138.25
30
0
11
128.12
21
148.25
31
0
0
LINE
8
DIM
10
108.12
20
146.25
30
0
11
128.12
21
146.25
31
0
0
SOLID
8
DIM
10
108.12
20
146.25
30
0
11
111.12
21
146.76
31
0
12
111.12
22
145.74
32
0
13
111.12
23
145.74
33
0
0
SOLID
8
DIM
10
128.12
20
146.25
30
0
11
125.12
21
145.74
31
0
12
125.12
22
146.76
32
0
13
125.12
23
146.76
33
0
0
TEXT
8
TEXT
10
118.12
20
148.05
30
0
40
3.5
1
10
50
0
72
1
11
118.12
21
148.05
31
0
0
LINE
8
DIM
10
134.12
20
114.25
30
0
11
134.12
21
142.25
31
0
0
SOLID
8
DIM
10
134.12
20
114.25
30
0
11
133.61
21
117.25
31
0
12
134.63
22
117.25
32
0
13
134.63
23
117.25
33
0
0
SOLID
8
DIM
10
134.12
20
132.25
30
0
11
134.63
21
129.25
31
0
12
133.61
22
129.25
32
0
13
133.61
23
129.25
33
0
0
TEXT
8
TEXT
10
134.12
20
143.85
30
0
40
3.5
1
%%c9
50
0
72
1
11
134.12
21
143.85
31
0
0
LINE
8
DIM
10
164.12
20
138.25
30
0
11
164.12
21
148.25
31
0
0
LINE
8
DIM
10
176.12
20
138.25
30
0
11
176.12
21
148.25
31
0
0
LINE
8
DIM
10
164.12
20
146.25
30
0
11
176.12
21
146.25
31
0
0
SOLID
8
DIM
10
164.12
20
146.25
30
0
11
167.12
21
146.76
31
0
12
167.12
22
145.74
32
0
13
167.12
23
145.74
33
0
0
SOLID
8
DIM
10
176.12
20
146.25
30
0
11
173.12
21
145.74
31
0
12
173.12
22
146.76
32
0
13
173.12
23
146.76
33
0
0
TEXT
8
TEXT
10
170.12
20
152.95
30
0
40
3.5
1
6
50
0
72
1
11
170.12
21
152.95
31
0
0
LINE
8
DIM
10
108.12
20
138.25
30
0
11
108.12
21
148.25
31
0
0
LINE
8
DIM
10
164.12
20
138.25
30
0
11
164.12
21
148.25
31
0
0
LINE
8
DIM
10
108.12
20
146.25
30
0
11
164.12
21
146.25
31
0
0
SOLID
8
DIM
10
108.12
20
146.25
30
0
11
111.12
21
146.76
31
0
12
111.12
22
145.74
32
0
13
111.12
23
145.74
33
0
0
SOLID
8
DIM
10
164.12
20
146.25
30
0
11
161.12
21
145.74
31
0
12
161.12
22
146.76
32
0
13
161.12
23
146.76
33
0
0
TEXT
8
TEXT
10
136.12
20
152.95
30
0
40
3.5
1
28
50
0
72
1
11
136.12
21
152.95
31
0
0
LINE
8
DIM
10
170.12
20
114.25
30
0
11
170.12
21
142.25
31
0
0
SOLID
8
DIM
10
170.12
20
114.25
30
0
11
169.61
21
117.25
31
0
12
170.63
22
117.25
32
0
13
170.63
23
117.25
33
0
0
SOLID
8
DIM
10
170.12
20
132.25
30
0
11
170.63
21
129.25
31
0
12
169.61
22
129.25
32
0
13
169.61
23
129.25
33
0
0
TEXT
8
TEXT
10
170.12
20
143.85
30
0
40
3.5
1
%%c9
50
0
72
1
11
170.12
21
143.85
31
0
0
LINE
8
DIM
10
200.12
20
138.25
30
0
11
200.12
21
148.25
31
0
0
LINE
8
DIM
10
212.12
20
138.25
30
0
11
212.12
21
148.25
31
0
0
LINE
8
DIM
10
200.12
20
146.25
30
0
11
212.12
21
146.25
31
0
0
SOLID
8
DIM
10
200.12
20
146.25
30
0
11
203.12
21
146.76
31
0
12
203.12
22
145.74
32
0
13
203.12
23
145.74
33
0
0
SOLID
8
DIM
10
212.12
20
146.25
30
0
11
209.12
21
145.74
31
0
12
209.12
22
146.76
32
0
13
209.12
23
146.76
33
0
0
TEXT
8
TEXT
10
206.12
20
148.05
30
0
40
3.5
1
6
50
0
72
1
11
206.12
21
148.05
31
0
0
LINE
8
DIM
10
232.12
20
138.25
30
0
11
232.12
21
148.25
31
0
0
LINE
8
DIM
10
212.12
20
138.25
30
0
11
212.12
21
148.25
31
0
0
LINE
8
DIM
10
212.12
20
146.25
30
0
11
232.12
21
146.25
31
0
0
SOLID
8
DIM
10
212.12
20
146.25
30
0
11
215.12
21
146.76
31
0
12
215.12
22
145.74
32
0
13
215.12
23
145.74
33
0
0
SOLID
8
DIM
10
232.12
20
146.25
30
0
11
229.12
21
145.74
31
0
12
229.12
22
146.76
32
0
13
229.12
23
146.76
33
0
0
TEXT
8
TEXT
10
222.12
20
148.05
30
0
40
3.5
1
10
50
0
72
1
11
222.12
21
148.05
31
0
0
LINE
8
DIM
10
206.12
20
114.25
30
0
11
206.12
21
142.25
31
0
0
SOLID
8
DIM
10
206.12
20
114.25
30
0
11
205.61
21
117.25
31
0
12
206.63
22
117.25
32
0
13
206.63
23
117.25
33
0
0
SOLID
8
DIM
10
206.12
20
132.25
30
0
11
206.63
21
129.25
31
0
12
205.61
22
129.25
32
0
13
205.61
23
129.25
33
0
0
TEXT
8
TEXT
10
206.12
20
143.85
30
0
40
3.5
1
%%c9
50
0
72
1
11
206.12
21
143.85
31
0
0
LINE
8
DIM
10
92.12
20
125.7
30
0
11
87.12
21
144.25
31
0
0
LINE
8
DIM
10
87.12
20
144.25
30
0
11
57.97
21
144.25
31
0
0
SOLID
8
DIM
10
92.12
20
125.7
30
0
11
93.393
21
122.936
31
0
12
92.408
22
122.671
32
0
13
92.408
23
122.671
33
0
0
TEXT
8
TEXT
10
86.12
20
145.65
30
0
40
2.5
1
센터구멍 A2 (DIN 332)
50
0
72
2
11
86.12
21
145.65
31
0
0
LINE
8
FRAME
10
10
20
10
30
0
11
287
21
10
31
0
0
LINE
8
FRAME
10
287
20
10
30
0
11
287
21
200
31
0
0
LINE
8
FRAME
10
287
20
200
30
0
11
10
21
200
31
0
0
LINE
8
FRAME
10
10
20
200
30
0
11
10
21
10
31
0
0
LINE
8
FRAME
10
177
20
10
30
0
11
287
21
10
31
0
0
LINE
8
FRAME
10
287
20
10
30
0
11
287
21
34
31
0
0
LINE
8
FRAME
10
287
20
34
30
0
11
177
21
34
31
0
0
LINE
8
FRAME
10
177
20
34
30
0
11
177
21
10
31
0
0
LINE
8
FRAME
10
177
20
18
30
0
11
287
21
18
31
0
0
LINE
8
FRAME
10
177
20
26
30
0
11
287
21
26
31
0
0
LINE
8
FRAME
10
232
20
10
30
0
11
232
21
26
31
0
0
LINE
8
FRAME
10
255
20
26
30
0
11
255
21
34
31
0
0
TEXT
8
TEXT
10
179
20
28.5
30
0
40
4.2
1
VRINGON
72
0
11
179
21
28.5
31
0
0
TEXT
8
TEXT
10
257
20
28.5
30
0
40
2.5
1
도번 VR-RB-024
72
0
11
257
21
28.5
31
0
0
TEXT
8
TEXT
10
179
20
20.5
30
0
40
2.8
1
품명 밸브 스풀
72
0
11
179
21
20.5
31
0
0
TEXT
8
TEXT
10
234
20
20.5
30
0
40
2.8
1
재질 SUJ2
72
0
11
234
21
20.5
31
0
0
TEXT
8
TEXT
10
179
20
12.5
30
0
40
2.5
1
척도 2:1
72
0
11
179
21
12.5
31
0
0
TEXT
8
TEXT
10
234
20
12.5
30
0
40
2.5
1
3각법 · 단위 mm
72
0
11
234
21
12.5
31
0
0
CIRCLE
8
FRAME
10
269
20
16.5
30
0
40
2.4
0
CIRCLE
8
FRAME
10
269
20
16.5
30
0
40
1.2
0
LINE
8
FRAME
10
274.5
20
13.9
30
0
11
281
21
15.1
31
0
0
LINE
8
FRAME
10
281
20
15.1
30
0
11
281
21
17.9
31
0
0
LINE
8
FRAME
10
281
20
17.9
30
0
11
274.5
21
19.1
31
0
0
LINE
8
FRAME
10
274.5
20
19.1
30
0
11
274.5
21
13.9
31
0
0
TEXT
8
TEXT
10
14
20
18.2
30
0
40
2.6
1
1. 지시 없는 모따기 C0.5
72
0
11
14
21
18.2
31
0
0
TEXT
8
TEXT
10
14
20
14
30
0
40
2.6
1
2. 지시 없는 공차 KS B ISO 2768-m
72
0
11
14
21
14
31
0
0
ENDSEC
0
EOF
