0
SECTION
2
HEADER
9
$ACADVER
1
AC1009
9
$INSUNITS
70
4
0
ENDSEC
0
SECTION
2
TABLES
0
TABLE
2
LTYPE
70
3
0
LTYPE
2
CONTINUOUS
70
0
3
Solid line
72
65
73
0
40
0
0
LTYPE
2
DASHED
70
0
3
Dashed __ __ __
72
65
73
2
40
4.5
49
3
49
-1.5
0
LTYPE
2
CENTER
70
0
3
Center ____ _ ____
72
65
73
4
40
11.5
49
8
49
-1.5
49
0.5
49
-1.5
0
ENDTAB
0
TABLE
2
LAYER
70
9
0
LAYER
2
OUTLINE
70
0
62
7
6
CONTINUOUS
0
LAYER
2
HIDDEN
70
0
62
8
6
DASHED
0
LAYER
2
CENTER
70
0
62
1
6
CENTER
0
LAYER
2
THIN
70
0
62
7
6
CONTINUOUS
0
LAYER
2
DIM
70
0
62
3
6
CONTINUOUS
0
LAYER
2
HATCH
70
0
62
8
6
CONTINUOUS
0
LAYER
2
FRAME
70
0
62
7
6
CONTINUOUS
0
LAYER
2
TEXT
70
0
62
7
6
CONTINUOUS
0
LAYER
2
CUT
70
0
62
5
6
DASHED
0
ENDTAB
0
ENDSEC
0
SECTION
2
ENTITIES
0
LINE
8
OUTLINE
10
73.755
20
123.75
30
0
11
75.255
21
125.25
31
0
0
LINE
8
OUTLINE
10
75.255
20
125.25
30
0
11
88.755
21
125.25
31
0
0
LINE
8
OUTLINE
10
88.755
20
125.25
30
0
11
88.755
21
124.45
31
0
0
LINE
8
OUTLINE
10
88.755
20
124.45
30
0
11
91.755
21
124.45
31
0
0
LINE
8
OUTLINE
10
91.755
20
124.45
30
0
11
91.755
21
127.25
31
0
0
LINE
8
OUTLINE
10
91.755
20
127.25
30
0
11
103.755
21
127.25
31
0
0
LINE
8
OUTLINE
10
103.755
20
127.25
30
0
11
103.764
21
127.119
31
0
0
LINE
8
OUTLINE
10
103.764
20
127.119
30
0
11
103.789
21
126.991
31
0
0
LINE
8
OUTLINE
10
103.789
20
126.991
30
0
11
103.831
21
126.867
31
0
0
LINE
8
OUTLINE
10
103.831
20
126.867
30
0
11
103.889
21
126.75
31
0
0
LINE
8
OUTLINE
10
103.889
20
126.75
30
0
11
103.962
21
126.641
31
0
0
LINE
8
OUTLINE
10
103.962
20
126.641
30
0
11
104.048
21
126.543
31
0
0
LINE
8
OUTLINE
10
104.048
20
126.543
30
0
11
104.146
21
126.457
31
0
0
LINE
8
OUTLINE
10
104.146
20
126.457
30
0
11
104.255
21
126.384
31
0
0
LINE
8
OUTLINE
10
104.255
20
126.384
30
0
11
104.372
21
126.326
31
0
0
LINE
8
OUTLINE
10
104.372
20
126.326
30
0
11
104.496
21
126.284
31
0
0
LINE
8
OUTLINE
10
104.496
20
126.284
30
0
11
104.624
21
126.259
31
0
0
LINE
8
OUTLINE
10
104.624
20
126.259
30
0
11
104.755
21
126.25
31
0
0
LINE
8
OUTLINE
10
104.755
20
126.25
30
0
11
109.755
21
126.25
31
0
0
LINE
8
OUTLINE
10
109.755
20
126.25
30
0
11
109.755
21
125.55
31
0
0
LINE
8
OUTLINE
10
109.755
20
125.55
30
0
11
111.355
21
125.55
31
0
0
LINE
8
OUTLINE
10
111.355
20
125.55
30
0
11
111.355
21
126.25
31
0
0
LINE
8
OUTLINE
10
111.355
20
126.25
30
0
11
172.255
21
126.25
31
0
0
LINE
8
OUTLINE
10
172.255
20
126.25
30
0
11
172.451
21
126.263
31
0
0
LINE
8
OUTLINE
10
172.451
20
126.263
30
0
11
172.643
21
126.301
31
0
0
LINE
8
OUTLINE
10
172.643
20
126.301
30
0
11
172.829
21
126.364
31
0
0
LINE
8
OUTLINE
10
172.829
20
126.364
30
0
11
173.005
21
126.451
31
0
0
LINE
8
OUTLINE
10
173.005
20
126.451
30
0
11
173.168
21
126.56
31
0
0
LINE
8
OUTLINE
10
173.168
20
126.56
30
0
11
173.316
21
126.689
31
0
0
LINE
8
OUTLINE
10
173.316
20
126.689
30
0
11
173.445
21
126.837
31
0
0
LINE
8
OUTLINE
10
173.445
20
126.837
30
0
11
173.554
21
127
31
0
0
LINE
8
OUTLINE
10
173.554
20
127
30
0
11
173.641
21
127.176
31
0
0
LINE
8
OUTLINE
10
173.641
20
127.176
30
0
11
173.704
21
127.362
31
0
0
LINE
8
OUTLINE
10
173.704
20
127.362
30
0
11
173.742
21
127.554
31
0
0
LINE
8
OUTLINE
10
173.742
20
127.554
30
0
11
173.755
21
127.75
31
0
0
LINE
8
OUTLINE
10
173.755
20
127.75
30
0
11
173.755
21
128.25
31
0
0
LINE
8
OUTLINE
10
173.755
20
128.25
30
0
11
192.755
21
128.25
31
0
0
LINE
8
OUTLINE
10
192.755
20
128.25
30
0
11
193.755
21
127.25
31
0
0
LINE
8
OUTLINE
10
73.755
20
112.75
30
0
11
75.255
21
111.25
31
0
0
LINE
8
OUTLINE
10
75.255
20
111.25
30
0
11
88.755
21
111.25
31
0
0
LINE
8
OUTLINE
10
88.755
20
111.25
30
0
11
88.755
21
112.05
31
0
0
LINE
8
OUTLINE
10
88.755
20
112.05
30
0
11
91.755
21
112.05
31
0
0
LINE
8
OUTLINE
10
91.755
20
112.05
30
0
11
91.755
21
109.25
31
0
0
LINE
8
OUTLINE
10
91.755
20
109.25
30
0
11
103.755
21
109.25
31
0
0
LINE
8
OUTLINE
10
103.755
20
109.25
30
0
11
103.764
21
109.381
31
0
0
LINE
8
OUTLINE
10
103.764
20
109.381
30
0
11
103.789
21
109.509
31
0
0
LINE
8
OUTLINE
10
103.789
20
109.509
30
0
11
103.831
21
109.633
31
0
0
LINE
8
OUTLINE
10
103.831
20
109.633
30
0
11
103.889
21
109.75
31
0
0
LINE
8
OUTLINE
10
103.889
20
109.75
30
0
11
103.962
21
109.859
31
0
0
LINE
8
OUTLINE
10
103.962
20
109.859
30
0
11
104.048
21
109.957
31
0
0
LINE
8
OUTLINE
10
104.048
20
109.957
30
0
11
104.146
21
110.043
31
0
0
LINE
8
OUTLINE
10
104.146
20
110.043
30
0
11
104.255
21
110.116
31
0
0
LINE
8
OUTLINE
10
104.255
20
110.116
30
0
11
104.372
21
110.174
31
0
0
LINE
8
OUTLINE
10
104.372
20
110.174
30
0
11
104.496
21
110.216
31
0
0
LINE
8
OUTLINE
10
104.496
20
110.216
30
0
11
104.624
21
110.241
31
0
0
LINE
8
OUTLINE
10
104.624
20
110.241
30
0
11
104.755
21
110.25
31
0
0
LINE
8
OUTLINE
10
104.755
20
110.25
30
0
11
109.755
21
110.25
31
0
0
LINE
8
OUTLINE
10
109.755
20
110.25
30
0
11
109.755
21
110.95
31
0
0
LINE
8
OUTLINE
10
109.755
20
110.95
30
0
11
111.355
21
110.95
31
0
0
LINE
8
OUTLINE
10
111.355
20
110.95
30
0
11
111.355
21
110.25
31
0
0
LINE
8
OUTLINE
10
111.355
20
110.25
30
0
11
172.255
21
110.25
31
0
0
LINE
8
OUTLINE
10
172.255
20
110.25
30
0
11
172.451
21
110.237
31
0
0
LINE
8
OUTLINE
10
172.451
20
110.237
30
0
11
172.643
21
110.199
31
0
0
LINE
8
OUTLINE
10
172.643
20
110.199
30
0
11
172.829
21
110.136
31
0
0
LINE
8
OUTLINE
10
172.829
20
110.136
30
0
11
173.005
21
110.049
31
0
0
LINE
8
OUTLINE
10
173.005
20
110.049
30
0
11
173.168
21
109.94
31
0
0
LINE
8
OUTLINE
10
173.168
20
109.94
30
0
11
173.316
21
109.811
31
0
0
LINE
8
OUTLINE
10
173.316
20
109.811
30
0
11
173.445
21
109.663
31
0
0
LINE
8
OUTLINE
10
173.445
20
109.663
30
0
11
173.554
21
109.5
31
0
0
LINE
8
OUTLINE
10
173.554
20
109.5
30
0
11
173.641
21
109.324
31
0
0
LINE
8
OUTLINE
10
173.641
20
109.324
30
0
11
173.704
21
109.138
31
0
0
LINE
8
OUTLINE
10
173.704
20
109.138
30
0
11
173.742
21
108.946
31
0
0
LINE
8
OUTLINE
10
173.742
20
108.946
30
0
11
173.755
21
108.75
31
0
0
LINE
8
OUTLINE
10
173.755
20
108.75
30
0
11
173.755
21
108.25
31
0
0
LINE
8
OUTLINE
10
173.755
20
108.25
30
0
11
192.755
21
108.25
31
0
0
LINE
8
OUTLINE
10
192.755
20
108.25
30
0
11
193.755
21
109.25
31
0
0
LINE
8
OUTLINE
10
73.755
20
112.75
30
0
11
73.755
21
123.75
31
0
0
LINE
8
OUTLINE
10
193.755
20
109.25
30
0
11
193.755
21
127.25
31
0
0
LINE
8
OUTLINE
10
75.255
20
111.25
30
0
11
75.255
21
125.25
31
0
0
LINE
8
OUTLINE
10
75.255
20
111.25
30
0
11
75.255
21
125.25
31
0
0
LINE
8
OUTLINE
10
88.755
20
112.05
30
0
11
88.755
21
124.45
31
0
0
LINE
8
OUTLINE
10
91.755
20
112.05
30
0
11
91.755
21
124.45
31
0
0
LINE
8
OUTLINE
10
109.755
20
110.95
30
0
11
109.755
21
125.55
31
0
0
LINE
8
OUTLINE
10
111.355
20
110.95
30
0
11
111.355
21
125.55
31
0
0
LINE
8
OUTLINE
10
173.755
20
108.75
30
0
11
173.755
21
127.75
31
0
0
LINE
8
OUTLINE
10
192.755
20
108.25
30
0
11
192.755
21
128.25
31
0
0
LINE
8
OUTLINE
10
192.755
20
108.25
30
0
11
192.755
21
128.25
31
0
0
LINE
8
CENTER
10
69.755
20
118.25
30
0
11
197.755
21
118.25
31
0
0
LINE
8
HIDDEN
10
193.755
20
120.9
30
0
11
191.33
21
119.5
31
0
0
LINE
8
HIDDEN
10
191.33
20
119.5
30
0
11
186.33
21
119.5
31
0
0
LINE
8
HIDDEN
10
186.33
20
119.5
30
0
11
185.579
21
118.25
31
0
0
LINE
8
HIDDEN
10
193.755
20
115.6
30
0
11
191.33
21
117
31
0
0
LINE
8
HIDDEN
10
191.33
20
117
30
0
11
186.33
21
117
31
0
0
LINE
8
HIDDEN
10
186.33
20
117
30
0
11
185.579
21
118.25
31
0
0
LINE
8
HIDDEN
10
191.33
20
117
30
0
11
191.33
21
119.5
31
0
0
LINE
8
THIN
10
75.255
20
124.33
30
0
11
91.755
21
124.33
31
0
0
LINE
8
THIN
10
75.255
20
112.17
30
0
11
91.755
21
112.17
31
0
0
LINE
8
OUTLINE
10
91.755
20
111.25
30
0
11
91.755
21
125.25
31
0
0
LINE
8
OUTLINE
10
93.755
20
123.907
30
0
11
101.755
21
123.907
31
0
0
LINE
8
OUTLINE
10
93.755
20
112.593
30
0
11
101.755
21
112.593
31
0
0
LINE
8
OUTLINE
10
93.755
20
112.593
30
0
11
93.755
21
123.907
31
0
0
LINE
8
OUTLINE
10
101.755
20
112.593
30
0
11
101.755
21
123.907
31
0
0
LINE
8
CUT
10
97.755
20
129.75
30
0
11
97.755
21
134.75
31
0
0
LINE
8
CUT
10
97.755
20
134.75
30
0
11
94.755
21
134.75
31
0
0
SOLID
8
DIM
10
93.255
20
134.75
30
0
11
96.255
21
135.26
31
0
12
96.255
22
134.24
32
0
13
96.255
23
134.24
33
0
0
TEXT
8
TEXT
10
99.255
20
135.35
30
0
40
3.5
1
A
50
0
72
0
11
99.255
21
135.35
31
0
0
LINE
8
CUT
10
97.755
20
106.75
30
0
11
97.755
21
101.75
31
0
0
LINE
8
CUT
10
97.755
20
101.75
30
0
11
94.755
21
101.75
31
0
0
SOLID
8
DIM
10
93.255
20
101.75
30
0
11
96.255
21
102.26
31
0
12
96.255
22
101.24
32
0
13
96.255
23
101.24
33
0
0
TEXT
8
TEXT
10
99.255
20
98.55
30
0
40
3.5
1
A
50
0
72
0
11
99.255
21
98.55
31
0
0
CIRCLE
8
OUTLINE
10
183.755
20
118.25
30
0
40
4
0
LINE
8
CENTER
10
177.755
20
118.25
30
0
11
189.755
21
118.25
31
0
0
LINE
8
CENTER
10
183.755
20
112.25
30
0
11
183.755
21
124.25
31
0
0
LINE
8
DIM
10
73.755
20
110.25
30
0
11
73.755
21
91.25
31
0
0
LINE
8
DIM
10
91.755
20
110.25
30
0
11
91.755
21
91.25
31
0
0
LINE
8
DIM
10
73.755
20
93.25
30
0
11
91.755
21
93.25
31
0
0
SOLID
8
DIM
10
73.755
20
93.25
30
0
11
76.755
21
93.76
31
0
12
76.755
22
92.74
32
0
13
76.755
23
92.74
33
0
0
SOLID
8
DIM
10
91.755
20
93.25
30
0
11
88.755
21
92.74
31
0
12
88.755
22
93.76
32
0
13
88.755
23
93.76
33
0
0
TEXT
8
TEXT
10
82.755
20
94.15
30
0
40
3.5
1
18
50
0
72
1
11
82.755
21
94.15
31
0
0
LINE
8
DIM
10
91.755
20
108.25
30
0
11
91.755
21
91.25
31
0
0
LINE
8
DIM
10
103.755
20
108.25
30
0
11
103.755
21
91.25
31
0
0
LINE
8
DIM
10
91.755
20
93.25
30
0
11
103.755
21
93.25
31
0
0
SOLID
8
DIM
10
91.755
20
93.25
30
0
11
94.755
21
93.76
31
0
12
94.755
22
92.74
32
0
13
94.755
23
92.74
33
0
0
SOLID
8
DIM
10
103.755
20
93.25
30
0
11
100.755
21
92.74
31
0
12
100.755
22
93.76
32
0
13
100.755
23
93.76
33
0
0
TEXT
8
TEXT
10
97.755
20
94.15
30
0
40
3.5
1
12
50
0
72
1
11
97.755
21
94.15
31
0
0
LINE
8
DIM
10
173.755
20
107.25
30
0
11
173.755
21
91.25
31
0
0
LINE
8
DIM
10
193.755
20
107.25
30
0
11
193.755
21
91.25
31
0
0
LINE
8
DIM
10
173.755
20
93.25
30
0
11
193.755
21
93.25
31
0
0
SOLID
8
DIM
10
173.755
20
93.25
30
0
11
176.755
21
93.76
31
0
12
176.755
22
92.74
32
0
13
176.755
23
92.74
33
0
0
SOLID
8
DIM
10
193.755
20
93.25
30
0
11
190.755
21
92.74
31
0
12
190.755
22
93.76
32
0
13
190.755
23
93.76
33
0
0
TEXT
8
TEXT
10
183.755
20
94.15
30
0
40
3.5
1
20
50
0
72
1
11
183.755
21
94.15
31
0
0
LINE
8
DIM
10
73.755
20
107.25
30
0
11
73.755
21
82.25
31
0
0
LINE
8
DIM
10
193.755
20
107.25
30
0
11
193.755
21
82.25
31
0
0
LINE
8
DIM
10
73.755
20
84.25
30
0
11
193.755
21
84.25
31
0
0
SOLID
8
DIM
10
73.755
20
84.25
30
0
11
76.755
21
84.76
31
0
12
76.755
22
83.74
32
0
13
76.755
23
83.74
33
0
0
SOLID
8
DIM
10
193.755
20
84.25
30
0
11
190.755
21
83.74
31
0
12
190.755
22
84.76
32
0
13
190.755
23
84.76
33
0
0
TEXT
8
TEXT
10
133.755
20
85.15
30
0
40
3.5
1
120
50
0
72
1
11
133.755
21
85.15
31
0
0
LINE
8
DIM
10
82.755
20
125.25
30
0
11
88.755
21
134.25
31
0
0
LINE
8
DIM
10
88.755
20
134.25
30
0
11
103.58
21
134.25
31
0
0
SOLID
8
DIM
10
82.755
20
125.25
30
0
11
81.515
21
122.471
31
0
12
80.667
22
123.037
32
0
13
80.667
23
123.037
33
0
0
TEXT
8
TEXT
10
89.255
20
134.95
30
0
40
3.5
1
M14×1.5
50
0
72
0
11
89.255
21
134.95
31
0
0
LINE
8
DIM
10
97.755
20
109.25
30
0
11
97.755
21
132.25
31
0
0
SOLID
8
DIM
10
97.755
20
109.25
30
0
11
97.245
21
112.25
31
0
12
98.265
22
112.25
32
0
13
98.265
23
112.25
33
0
0
SOLID
8
DIM
10
97.755
20
127.25
30
0
11
98.265
21
124.25
31
0
12
97.245
22
124.25
32
0
13
97.245
23
124.25
33
0
0
LINE
8
DIM
10
97.755
20
132.25
30
0
11
97.755
21
142.55
31
0
0
TEXT
8
TEXT
10
97.755
20
142.85
30
0
40
3.5
1
%%c18
50
0
72
1
11
97.755
21
142.85
31
0
0
LINE
8
DIM
10
138.755
20
110.25
30
0
11
138.755
21
131.25
31
0
0
SOLID
8
DIM
10
138.755
20
110.25
30
0
11
138.245
21
113.25
31
0
12
139.265
22
113.25
32
0
13
139.265
23
113.25
33
0
0
SOLID
8
DIM
10
138.755
20
126.25
30
0
11
139.265
21
123.25
31
0
12
138.245
22
123.25
32
0
13
138.245
23
123.25
33
0
0
TEXT
8
TEXT
10
138.755
20
132.05
30
0
40
3.5
1
%%c16 f7
50
0
72
1
11
138.755
21
132.05
31
0
0
LINE
8
DIM
10
183.755
20
108.25
30
0
11
183.755
21
133.25
31
0
0
SOLID
8
DIM
10
183.755
20
108.25
30
0
11
183.245
21
111.25
31
0
12
184.265
22
111.25
32
0
13
184.265
23
111.25
33
0
0
SOLID
8
DIM
10
183.755
20
128.25
30
0
11
184.265
21
125.25
31
0
12
183.245
22
125.25
32
0
13
183.245
23
125.25
33
0
0
TEXT
8
TEXT
10
183.755
20
134.05
30
0
40
3.5
1
%%c20
50
0
72
1
11
183.755
21
134.05
31
0
0
LINE
8
DIM
10
74.505
20
124.5
30
0
11
68.505
21
132.5
31
0
0
LINE
8
DIM
10
68.505
20
132.5
30
0
11
60.225
21
132.5
31
0
0
SOLID
8
DIM
10
74.505
20
124.5
30
0
11
76.713
21
122.406
31
0
12
75.897
22
121.794
32
0
13
75.897
23
121.794
33
0
0
TEXT
8
TEXT
10
68.005
20
133.2
30
0
40
3.5
1
C1.5
50
0
72
2
11
68.005
21
133.2
31
0
0
LINE
8
DIM
10
93.255
20
124.45
30
0
11
99.255
21
149.25
31
0
0
LINE
8
DIM
10
99.255
20
149.25
30
0
11
136.165
21
149.25
31
0
0
SOLID
8
DIM
10
93.255
20
124.45
30
0
11
93.045
21
121.414
31
0
12
92.054
22
121.654
32
0
13
92.054
23
121.654
33
0
0
TEXT
8
TEXT
10
99.755
20
149.95
30
0
40
3.5
1
3×%%c12.4 (DIN 76-A)
50
0
72
0
11
99.755
21
149.95
31
0
0
LINE
8
DIM
10
104.045
20
126.54
30
0
11
109.045
21
133.54
31
0
0
LINE
8
DIM
10
109.045
20
133.54
30
0
11
114.385
21
133.54
31
0
0
SOLID
8
DIM
10
104.045
20
126.54
30
0
11
102.716
21
123.802
31
0
12
101.886
22
124.395
32
0
13
101.886
23
124.395
33
0
0
TEXT
8
TEXT
10
109.545
20
134.24
30
0
40
3.5
1
R1
50
0
72
0
11
109.545
21
134.24
31
0
0
LINE
8
DIM
10
173.32
20
126.685
30
0
11
168.32
21
133.685
31
0
0
LINE
8
DIM
10
168.32
20
133.685
30
0
11
160.04
21
133.685
31
0
0
SOLID
8
DIM
10
173.32
20
126.685
30
0
11
175.479
21
124.54
31
0
12
174.649
22
123.947
32
0
13
174.649
23
123.947
33
0
0
TEXT
8
TEXT
10
167.82
20
134.385
30
0
40
3.5
1
R1.5
50
0
72
2
11
167.82
21
134.385
31
0
0
LINE
8
DIM
10
193.255
20
127.75
30
0
11
199.255
21
135.75
31
0
0
LINE
8
DIM
10
199.255
20
135.75
30
0
11
204.595
21
135.75
31
0
0
SOLID
8
DIM
10
193.255
20
127.75
30
0
11
191.863
21
125.044
31
0
12
191.047
22
125.656
32
0
13
191.047
23
125.656
33
0
0
TEXT
8
TEXT
10
199.755
20
136.45
30
0
40
3.5
1
C1
50
0
72
0
11
199.755
21
136.45
31
0
0
LINE
8
DIM
10
109.755
20
127.25
30
0
11
109.755
21
139.25
31
0
0
LINE
8
DIM
10
111.355
20
127.25
30
0
11
111.355
21
139.25
31
0
0
LINE
8
DIM
10
103.155
20
137.25
30
0
11
117.955
21
137.25
31
0
0
SOLID
8
DIM
10
109.755
20
137.25
30
0
11
106.755
21
136.74
31
0
12
106.755
22
137.76
32
0
13
106.755
23
137.76
33
0
0
SOLID
8
DIM
10
111.355
20
137.25
30
0
11
114.355
21
137.76
31
0
12
114.355
22
136.74
32
0
13
114.355
23
136.74
33
0
0
TEXT
8
TEXT
10
121.005
20
138.15
30
0
40
3.5
1
1.6
50
0
72
1
11
121.005
21
138.15
31
0
0
LINE
8
DIM
10
103.755
20
127.25
30
0
11
103.755
21
139.25
31
0
0
LINE
8
DIM
10
109.755
20
127.25
30
0
11
109.755
21
139.25
31
0
0
LINE
8
DIM
10
97.155
20
137.25
30
0
11
116.355
21
137.25
31
0
0
SOLID
8
DIM
10
103.755
20
137.25
30
0
11
100.755
21
136.74
31
0
12
100.755
22
137.76
32
0
13
100.755
23
137.76
33
0
0
SOLID
8
DIM
10
109.755
20
137.25
30
0
11
112.755
21
137.76
31
0
12
112.755
22
136.74
32
0
13
112.755
23
136.74
33
0
0
TEXT
8
TEXT
10
95.575
20
147.95
30
0
40
3.5
1
6
50
0
72
1
11
95.575
21
147.95
31
0
0
LINE
8
DIM
10
110.555
20
110.95
30
0
11
110.555
21
131.25
31
0
0
SOLID
8
DIM
10
110.555
20
110.95
30
0
11
110.045
21
113.95
31
0
12
111.065
22
113.95
32
0
13
111.065
23
113.95
33
0
0
SOLID
8
DIM
10
110.555
20
125.55
30
0
11
111.065
21
122.55
31
0
12
110.045
22
122.55
32
0
13
110.045
23
122.55
33
0
0
LINE
8
DIM
10
110.555
20
131.25
30
0
11
110.555
21
141.55
31
0
0
TEXT
8
TEXT
10
110.555
20
141.85
30
0
40
3.5
1
%%c14.6
50
0
72
1
11
110.555
21
141.85
31
0
0
LINE
8
DIM
10
93.755
20
128.25
30
0
11
93.755
21
141.25
31
0
0
LINE
8
DIM
10
101.755
20
128.25
30
0
11
101.755
21
141.25
31
0
0
LINE
8
DIM
10
87.155
20
139.25
30
0
11
108.355
21
139.25
31
0
0
SOLID
8
DIM
10
93.755
20
139.25
30
0
11
90.755
21
138.74
31
0
12
90.755
22
139.76
32
0
13
90.755
23
139.76
33
0
0
SOLID
8
DIM
10
101.755
20
139.25
30
0
11
104.755
21
139.76
31
0
12
104.755
22
138.74
32
0
13
104.755
23
138.74
33
0
0
TEXT
8
TEXT
10
109.935
20
154.85
30
0
40
3.5
1
8
50
0
72
1
11
109.935
21
154.85
31
0
0
LINE
8
DIM
10
91.755
20
128.25
30
0
11
91.755
21
141.25
31
0
0
LINE
8
DIM
10
93.755
20
128.25
30
0
11
93.755
21
141.25
31
0
0
LINE
8
DIM
10
85.155
20
139.25
30
0
11
100.355
21
139.25
31
0
0
SOLID
8
DIM
10
91.755
20
139.25
30
0
11
88.755
21
138.74
31
0
12
88.755
22
139.76
32
0
13
88.755
23
139.76
33
0
0
SOLID
8
DIM
10
93.755
20
139.25
30
0
11
96.755
21
139.76
31
0
12
96.755
22
138.74
32
0
13
96.755
23
138.74
33
0
0
TEXT
8
TEXT
10
83.575
20
140.15
30
0
40
3.5
1
2
50
0
72
1
11
83.575
21
140.15
31
0
0
LINE
8
DIM
10
186.555
20
121.05
30
0
11
190.755
21
139.25
31
0
0
LINE
8
DIM
10
190.755
20
139.25
30
0
11
204.04
21
139.25
31
0
0
SOLID
8
DIM
10
186.555
20
121.05
30
0
11
186.377
21
118.012
31
0
12
185.383
22
118.242
32
0
13
185.383
23
118.242
33
0
0
TEXT
8
TEXT
10
191.255
20
139.95
30
0
40
3.5
1
%%c8 관통
50
0
72
0
11
191.255
21
139.95
31
0
0
LINE
8
DIM
10
193.755
20
129.25
30
0
11
193.755
21
139.25
31
0
0
LINE
8
DIM
10
183.755
20
129.25
30
0
11
183.755
21
139.25
31
0
0
LINE
8
DIM
10
183.755
20
137.25
30
0
11
193.755
21
137.25
31
0
0
SOLID
8
DIM
10
183.755
20
137.25
30
0
11
186.755
21
137.76
31
0
12
186.755
22
136.74
32
0
13
186.755
23
136.74
33
0
0
SOLID
8
DIM
10
193.755
20
137.25
30
0
11
190.755
21
136.74
31
0
12
190.755
22
137.76
32
0
13
190.755
23
137.76
33
0
0
TEXT
8
TEXT
10
188.755
20
138.15
30
0
40
3.5
1
10
50
0
72
1
11
188.755
21
138.15
31
0
0
LINE
8
DIM
10
193.755
20
121.4
30
0
11
198.755
21
145.25
31
0
0
LINE
8
DIM
10
198.755
20
145.25
30
0
11
229.005
21
145.25
31
0
0
SOLID
8
DIM
10
193.755
20
121.4
30
0
11
193.639
21
118.359
31
0
12
192.64
22
118.568
32
0
13
192.64
23
118.568
33
0
0
TEXT
8
TEXT
10
199.255
20
145.95
30
0
40
2.5
1
센터구멍 B2.5 (DIN 332)
50
0
72
0
11
199.255
21
145.95
31
0
0
TEXT
8
TEXT
10
217.755
20
139.25
30
0
40
4
1
A-A
50
0
72
1
11
217.755
21
139.25
31
0
0
LINE
8
CENTER
10
205.755
20
118.25
30
0
11
229.755
21
118.25
31
0
0
LINE
8
CENTER
10
217.755
20
106.25
30
0
11
217.755
21
130.25
31
0
0
ARC
8
OUTLINE
10
217.755
20
118.25
30
0
40
9
50
128.942
51
231.058
0
ARC
8
OUTLINE
10
217.755
20
118.25
30
0
40
9
50
308.942
51
51.058
0
LINE
8
OUTLINE
10
212.098
20
125.25
30
0
11
223.412
21
125.25
31
0
0
LINE
8
OUTLINE
10
212.098
20
111.25
30
0
11
223.412
21
111.25
31
0
0
LINE
8
DIM
10
224.412
20
125.25
30
0
11
235.755
21
125.25
31
0
0
LINE
8
DIM
10
224.412
20
111.25
30
0
11
235.755
21
111.25
31
0
0
LINE
8
DIM
10
233.755
20
111.25
30
0
11
233.755
21
125.25
31
0
0
SOLID
8
DIM
10
233.755
20
111.25
30
0
11
233.245
21
114.25
31
0
12
234.265
22
114.25
32
0
13
234.265
23
114.25
33
0
0
SOLID
8
DIM
10
233.755
20
125.25
30
0
11
234.265
21
122.25
31
0
12
233.245
22
122.25
32
0
13
233.245
23
122.25
33
0
0
TEXT
8
TEXT
10
232.855
20
118.25
30
0
40
3.5
1
14
50
90
72
1
11
232.855
21
118.25
31
0
0
LINE
8
HATCH
10
219.655
20
109.465
30
0
11
222.76
21
112.57
31
0
0
LINE
8
HATCH
10
216.073
20
109.419
30
0
11
222.952
21
116.298
31
0
0
LINE
8
HATCH
10
213.467
20
110.348
30
0
11
223.143
21
120.025
31
0
0
LINE
8
HATCH
10
212.167
20
112.584
30
0
11
223.335
21
123.752
31
0
0
LINE
8
HATCH
10
212.358
20
116.311
30
0
11
222.142
21
126.095
31
0
0
LINE
8
HATCH
10
212.55
20
120.038
30
0
11
219.566
21
127.054
31
0
0
LINE
8
HATCH
10
212.741
20
123.765
30
0
11
216.053
21
127.077
31
0
0
LINE
8
FRAME
10
10
20
10
30
0
11
287
21
10
31
0
0
LINE
8
FRAME
10
287
20
10
30
0
11
287
21
200
31
0
0
LINE
8
FRAME
10
287
20
200
30
0
11
10
21
200
31
0
0
LINE
8
FRAME
10
10
20
200
30
0
11
10
21
10
31
0
0
LINE
8
FRAME
10
177
20
10
30
0
11
287
21
10
31
0
0
LINE
8
FRAME
10
287
20
10
30
0
11
287
21
34
31
0
0
LINE
8
FRAME
10
287
20
34
30
0
11
177
21
34
31
0
0
LINE
8
FRAME
10
177
20
34
30
0
11
177
21
10
31
0
0
LINE
8
FRAME
10
177
20
18
30
0
11
287
21
18
31
0
0
LINE
8
FRAME
10
177
20
26
30
0
11
287
21
26
31
0
0
LINE
8
FRAME
10
232
20
10
30
0
11
232
21
26
31
0
0
LINE
8
FRAME
10
255
20
26
30
0
11
255
21
34
31
0
0
TEXT
8
TEXT
10
179
20
28.5
30
0
40
4.2
1
VRINGON
72
0
11
179
21
28.5
31
0
0
TEXT
8
TEXT
10
257
20
28.5
30
0
40
2.5
1
도번 VR-RB-023
72
0
11
257
21
28.5
31
0
0
TEXT
8
TEXT
10
179
20
20.5
30
0
40
2.8
1
품명 피스톤 로드
72
0
11
179
21
20.5
31
0
0
TEXT
8
TEXT
10
234
20
20.5
30
0
40
2.8
1
재질 SUS304
72
0
11
234
21
20.5
31
0
0
TEXT
8
TEXT
10
179
20
12.5
30
0
40
2.5
1
척도 1:1
72
0
11
179
21
12.5
31
0
0
TEXT
8
TEXT
10
234
20
12.5
30
0
40
2.5
1
3각법 · 단위 mm
72
0
11
234
21
12.5
31
0
0
CIRCLE
8
FRAME
10
269
20
16.5
30
0
40
2.4
0
CIRCLE
8
FRAME
10
269
20
16.5
30
0
40
1.2
0
LINE
8
FRAME
10
274.5
20
13.9
30
0
11
281
21
15.1
31
0
0
LINE
8
FRAME
10
281
20
15.1
30
0
11
281
21
17.9
31
0
0
LINE
8
FRAME
10
281
20
17.9
30
0
11
274.5
21
19.1
31
0
0
LINE
8
FRAME
10
274.5
20
19.1
30
0
11
274.5
21
13.9
31
0
0
TEXT
8
TEXT
10
14
20
18.2
30
0
40
2.6
1
1. 지시 없는 모따기 C0.5
72
0
11
14
21
18.2
31
0
0
TEXT
8
TEXT
10
14
20
14
30
0
40
2.6
1
2. 지시 없는 공차 KS B ISO 2768-m
72
0
11
14
21
14
31
0
0
ENDSEC
0
EOF
