<svg xmlns="http://www.w3.org/2000/svg" viewBox="0 0 297 210" width="1188" height="840" font-family="Pretendard, 'Segoe UI', Arial, sans-serif" data-vringon-dsl="valve-spool" data-scale="2">
<rect width="297" height="210" fill="#FFFFFF"/>
<g id="center" stroke="#111111" stroke-width="0.18" fill="none" stroke-linecap="round" stroke-linejoin="round" stroke-dasharray="8 1.5 0.5 1.5">
<line x1="84.12" y1="86.75" x2="252.12" y2="86.75"/>
</g>
<g id="hidden" stroke="#111111" stroke-width="0.25" fill="none" stroke-linecap="round" stroke-linejoin="round" stroke-dasharray="3 1.5">
<line x1="92.12" y1="82.5" x2="96.018" y2="84.75"/>
<line x1="96.018" y1="84.75" x2="104.018" y2="84.75"/>
<line x1="104.018" y1="84.75" x2="105.22" y2="86.75"/>
<line x1="92.12" y1="91" x2="96.018" y2="88.75"/>
<line x1="96.018" y1="88.75" x2="104.018" y2="88.75"/>
<line x1="104.018" y1="88.75" x2="105.22" y2="86.75"/>
<line x1="96.018" y1="88.75" x2="96.018" y2="84.75"/>
</g>
<g id="dim" stroke="#111111" stroke-width="0.18" fill="none" stroke-linecap="round" stroke-linejoin="round">
<line x1="92.12" y1="95.75" x2="92.12" y2="117.75"/>
<line x1="108.12" y1="95.75" x2="108.12" y2="117.75"/>
<line x1="92.12" y1="115.75" x2="108.12" y2="115.75"/>
<polygon points="92.12,115.75 95.12,115.24 95.12,116.26" fill="#111111" stroke="none"/>
<polygon points="108.12,115.75 105.12,116.26 105.12,115.24" fill="#111111" stroke="none"/>
<line x1="232.12" y1="95.75" x2="232.12" y2="117.75"/>
<line x1="244.12" y1="95.75" x2="244.12" y2="117.75"/>
<line x1="232.12" y1="115.75" x2="244.12" y2="115.75"/>
<polygon points="232.12,115.75 235.12,115.24 235.12,116.26" fill="#111111" stroke="none"/>
<polygon points="244.12,115.75 241.12,116.26 241.12,115.24" fill="#111111" stroke="none"/>
<line x1="92.12" y1="101.75" x2="92.12" y2="126.75"/>
<line x1="244.12" y1="101.75" x2="244.12" y2="126.75"/>
<line x1="92.12" y1="124.75" x2="244.12" y2="124.75"/>
<polygon points="92.12,124.75 95.12,124.24 95.12,125.26" fill="#111111" stroke="none"/>
<polygon points="244.12,124.75 241.12,125.26 241.12,124.24" fill="#111111" stroke="none"/>
<line x1="100.12" y1="94.75" x2="100.12" y2="68.75"/>
<polygon points="100.12,94.75 99.61,91.75 100.63,91.75" fill="#111111" stroke="none"/>
<polygon points="100.12,78.75 100.63,81.75 99.61,81.75" fill="#111111" stroke="none"/>
<line x1="170.12" y1="100.75" x2="170.12" y2="62.75"/>
<polygon points="170.12,100.75 169.61,97.75 170.63,97.75" fill="#111111" stroke="none"/>
<polygon points="170.12,72.75 170.63,75.75 169.61,75.75" fill="#111111" stroke="none"/>
<line x1="238.12" y1="94.75" x2="238.12" y2="68.75"/>
<polygon points="238.12,94.75 237.61,91.75 238.63,91.75" fill="#111111" stroke="none"/>
<polygon points="238.12,78.75 238.63,81.75 237.61,81.75" fill="#111111" stroke="none"/>
<line x1="92.62" y1="79.25" x2="86.62" y2="71.25"/>
<line x1="86.62" y1="71.25" x2="77.34" y2="71.25"/>
<polygon points="92.62,79.25 94.828,81.344 94.012,81.956" fill="#111111" stroke="none"/>
<line x1="107.772" y1="78.402" x2="102.772" y2="71.402"/>
<line x1="102.772" y1="71.402" x2="93.492" y2="71.402"/>
<polygon points="107.772,78.402 109.931,80.547 109.101,81.14" fill="#111111" stroke="none"/>
<line x1="232.468" y1="78.402" x2="237.468" y2="71.402"/>
<line x1="237.468" y1="71.402" x2="246.748" y2="71.402"/>
<polygon points="232.468,78.402 231.139,81.14 230.309,80.547" fill="#111111" stroke="none"/>
<line x1="243.62" y1="79.25" x2="249.62" y2="66.25"/>
<line x1="249.62" y1="66.25" x2="258.9" y2="66.25"/>
<polygon points="243.62,79.25 242.826,82.188 241.9,81.76" fill="#111111" stroke="none"/>
<line x1="128.12" y1="71.75" x2="128.12" y2="61.75"/>
<line x1="140.12" y1="71.75" x2="140.12" y2="61.75"/>
<line x1="128.12" y1="63.75" x2="140.12" y2="63.75"/>
<polygon points="128.12,63.75 131.12,63.24 131.12,64.26" fill="#111111" stroke="none"/>
<polygon points="140.12,63.75 137.12,64.26 137.12,63.24" fill="#111111" stroke="none"/>
<line x1="108.12" y1="71.75" x2="108.12" y2="61.75"/>
<line x1="128.12" y1="71.75" x2="128.12" y2="61.75"/>
<line x1="108.12" y1="63.75" x2="128.12" y2="63.75"/>
<polygon points="108.12,63.75 111.12,63.24 111.12,64.26" fill="#111111" stroke="none"/>
<polygon points="128.12,63.75 125.12,64.26 125.12,63.24" fill="#111111" stroke="none"/>
<line x1="134.12" y1="95.75" x2="134.12" y2="67.75"/>
<polygon points="134.12,95.75 133.61,92.75 134.63,92.75" fill="#111111" stroke="none"/>
<polygon points="134.12,77.75 134.63,80.75 133.61,80.75" fill="#111111" stroke="none"/>
<line x1="164.12" y1="71.75" x2="164.12" y2="61.75"/>
<line x1="176.12" y1="71.75" x2="176.12" y2="61.75"/>
<line x1="164.12" y1="63.75" x2="176.12" y2="63.75"/>
<polygon points="164.12,63.75 167.12,63.24 167.12,64.26" fill="#111111" stroke="none"/>
<polygon points="176.12,63.75 173.12,64.26 173.12,63.24" fill="#111111" stroke="none"/>
<line x1="108.12" y1="71.75" x2="108.12" y2="61.75"/>
<line x1="164.12" y1="71.75" x2="164.12" y2="61.75"/>
<line x1="108.12" y1="63.75" x2="164.12" y2="63.75"/>
<polygon points="108.12,63.75 111.12,63.24 111.12,64.26" fill="#111111" stroke="none"/>
<polygon points="164.12,63.75 161.12,64.26 161.12,63.24" fill="#111111" stroke="none"/>
<line x1="170.12" y1="95.75" x2="170.12" y2="67.75"/>
<polygon points="170.12,95.75 169.61,92.75 170.63,92.75" fill="#111111" stroke="none"/>
<polygon points="170.12,77.75 170.63,80.75 169.61,80.75" fill="#111111" stroke="none"/>
<line x1="200.12" y1="71.75" x2="200.12" y2="61.75"/>
<line x1="212.12" y1="71.75" x2="212.12" y2="61.75"/>
<line x1="200.12" y1="63.75" x2="212.12" y2="63.75"/>
<polygon points="200.12,63.75 203.12,63.24 203.12,64.26" fill="#111111" stroke="none"/>
<polygon points="212.12,63.75 209.12,64.26 209.12,63.24" fill="#111111" stroke="none"/>
<line x1="232.12" y1="71.75" x2="232.12" y2="61.75"/>
<line x1="212.12" y1="71.75" x2="212.12" y2="61.75"/>
<line x1="212.12" y1="63.75" x2="232.12" y2="63.75"/>
<polygon points="212.12,63.75 215.12,63.24 215.12,64.26" fill="#111111" stroke="none"/>
<polygon points="232.12,63.75 229.12,64.26 229.12,63.24" fill="#111111" stroke="none"/>
<line x1="206.12" y1="95.75" x2="206.12" y2="67.75"/>
<polygon points="206.12,95.75 205.61,92.75 206.63,92.75" fill="#111111" stroke="none"/>
<polygon points="206.12,77.75 206.63,80.75 205.61,80.75" fill="#111111" stroke="none"/>
<line x1="92.12" y1="84.3" x2="87.12" y2="65.75"/>
<line x1="87.12" y1="65.75" x2="57.97" y2="65.75"/>
<polygon points="92.12,84.3 93.393,87.064 92.408,87.329" fill="#111111" stroke="none"/>
</g>
<g id="outline" stroke="#111111" stroke-width="0.5" fill="none" stroke-linecap="round" stroke-linejoin="round">
<polyline points="92.12,79.75 93.12,78.75 106.92,78.75 107.077,78.74 107.231,78.709 107.379,78.659 107.52,78.589 107.651,78.502 107.769,78.399 107.872,78.281 107.959,78.15 108.029,78.009 108.079,77.861 108.11,77.707 108.12,77.55 108.12,72.75 128.12,72.75 128.12,77.75 140.12,77.75 140.12,72.75 164.12,72.75 164.12,77.75 176.12,77.75 176.12,72.75 200.12,72.75 200.12,77.75 212.12,77.75 212.12,72.75 232.12,72.75 232.12,77.55 232.13,77.707 232.161,77.861 232.211,78.009 232.281,78.15 232.368,78.281 232.471,78.399 232.589,78.502 232.72,78.589 232.861,78.659 233.009,78.709 233.163,78.74 233.32,78.75 243.12,78.75 244.12,79.75"/>
<polyline points="92.12,93.75 93.12,94.75 106.92,94.75 107.077,94.76 107.231,94.791 107.379,94.841 107.52,94.911 107.651,94.998 107.769,95.101 107.872,95.219 107.959,95.35 108.029,95.491 108.079,95.639 108.11,95.793 108.12,95.95 108.12,100.75 128.12,100.75 128.12,95.75 140.12,95.75 140.12,100.75 164.12,100.75 164.12,95.75 176.12,95.75 176.12,100.75 200.12,100.75 200.12,95.75 212.12,95.75 212.12,100.75 232.12,100.75 232.12,95.95 232.13,95.793 232.161,95.639 232.211,95.491 232.281,95.35 232.368,95.219 232.471,95.101 232.589,94.998 232.72,94.911 232.861,94.841 233.009,94.791 233.163,94.76 233.32,94.75 243.12,94.75 244.12,93.75"/>
<line x1="92.12" y1="93.75" x2="92.12" y2="79.75"/>
<line x1="244.12" y1="93.75" x2="244.12" y2="79.75"/>
<line x1="93.12" y1="94.75" x2="93.12" y2="78.75"/>
<line x1="93.12" y1="94.75" x2="93.12" y2="78.75"/>
<line x1="108.12" y1="95.95" x2="108.12" y2="77.55"/>
<line x1="128.12" y1="95.75" x2="128.12" y2="77.75"/>
<line x1="140.12" y1="95.75" x2="140.12" y2="77.75"/>
<line x1="164.12" y1="95.75" x2="164.12" y2="77.75"/>
<line x1="176.12" y1="95.75" x2="176.12" y2="77.75"/>
<line x1="200.12" y1="95.75" x2="200.12" y2="77.75"/>
<line x1="212.12" y1="95.75" x2="212.12" y2="77.75"/>
<line x1="232.12" y1="95.95" x2="232.12" y2="77.55"/>
<line x1="243.12" y1="94.75" x2="243.12" y2="78.75"/>
<line x1="243.12" y1="94.75" x2="243.12" y2="78.75"/>
</g>
<g id="text" fill="#111111">
<text x="100.12" y="113.95" font-size="3.5" text-anchor="middle" fill="#111111" data-role="dim">8</text>
<text x="238.12" y="113.95" font-size="3.5" text-anchor="middle" fill="#111111" data-role="dim">6</text>
<text x="168.12" y="122.95" font-size="3.5" text-anchor="middle" fill="#111111" data-role="dim">76</text>
<text x="100.12" y="67.15" font-size="3.5" text-anchor="middle" fill="#111111" data-role="dim">⌀8</text>
<text x="170.12" y="61.15" font-size="3.5" text-anchor="middle" fill="#111111" data-role="dim">⌀14 g6</text>
<text x="238.12" y="67.15" font-size="3.5" text-anchor="middle" fill="#111111" data-role="dim">⌀8</text>
<text x="85.62" y="69.85" font-size="3.5" text-anchor="end" fill="#111111" data-role="dim">C0.5</text>
<text x="101.772" y="70.002" font-size="3.5" text-anchor="end" fill="#111111" data-role="dim">R0.6</text>
<text x="238.468" y="70.002" font-size="3.5" text-anchor="start" fill="#111111" data-role="dim">R0.6</text>
<text x="250.62" y="64.85" font-size="3.5" text-anchor="start" fill="#111111" data-role="dim">C0.5</text>
<text x="134.12" y="61.95" font-size="3.5" text-anchor="middle" fill="#111111" data-role="dim">6</text>
<text x="118.12" y="61.95" font-size="3.5" text-anchor="middle" fill="#111111" data-role="dim">10</text>
<text x="134.12" y="66.15" font-size="3.5" text-anchor="middle" fill="#111111" data-role="dim">⌀9</text>
<text x="170.12" y="57.05" font-size="3.5" text-anchor="middle" fill="#111111" data-role="dim">6</text>
<text x="136.12" y="57.05" font-size="3.5" text-anchor="middle" fill="#111111" data-role="dim">28</text>
<text x="170.12" y="66.15" font-size="3.5" text-anchor="middle" fill="#111111" data-role="dim">⌀9</text>
<text x="206.12" y="61.95" font-size="3.5" text-anchor="middle" fill="#111111" data-role="dim">6</text>
<text x="222.12" y="61.95" font-size="3.5" text-anchor="middle" fill="#111111" data-role="dim">10</text>
<text x="206.12" y="66.15" font-size="3.5" text-anchor="middle" fill="#111111" data-role="dim">⌀9</text>
<text x="86.12" y="64.35" font-size="2.5" text-anchor="end" fill="#111111" data-role="dim">센터구멍 A2 (DIN 332)</text>
</g>
<g id="frame" stroke="#111111" stroke-width="0.5" fill="none" stroke-linecap="round" stroke-linejoin="round">
<rect x="10" y="10" width="277" height="190"/>
<rect x="177" y="176" width="110" height="24"/>
<line x1="177" y1="192" x2="287" y2="192"/>
<line x1="177" y1="184" x2="287" y2="184"/>
<line x1="232" y1="200" x2="232" y2="184"/>
<line x1="255" y1="184" x2="255" y2="176"/>
<circle cx="269" cy="193.5" r="2.4"/>
<circle cx="269" cy="193.5" r="1.2"/>
<polyline points="274.5,196.1 281,194.9 281,192.1 274.5,190.9"/>
</g><g id="sheet-text" fill="#111111">
<text x="179" y="181.5" font-size="4.2" text-anchor="start" font-weight="700" data-role="title">VRINGON</text>
<text x="257" y="181.5" font-size="2.5" text-anchor="start" font-weight="700" data-role="title">도번 VR-RB-024</text>
<text x="179" y="189.5" font-size="2.8" text-anchor="start" font-weight="700" data-role="title">품명 밸브 스풀</text>
<text x="234" y="189.5" font-size="2.8" text-anchor="start" font-weight="700" data-role="title">재질 SUJ2</text>
<text x="179" y="197.5" font-size="2.5" text-anchor="start" font-weight="700" data-role="title">척도 2:1</text>
<text x="234" y="197.5" font-size="2.5" text-anchor="start" font-weight="700" data-role="title">3각법 · 단위 mm</text>
<text x="14" y="191.8" font-size="2.6" text-anchor="start" font-weight="400" data-role="note">1. 지시 없는 모따기 C0.5</text>
<text x="14" y="196" font-size="2.6" text-anchor="start" font-weight="400" data-role="note">2. 지시 없는 공차 KS B ISO 2768-m</text>
</g></svg>