0
SECTION
2
HEADER
9
$ACADVER
1
AC1009
9
$INSUNITS
70
4
0
ENDSEC
0
SECTION
2
TABLES
0
TABLE
2
LTYPE
70
3
0
LTYPE
2
CONTINUOUS
70
0
3
Solid line
72
65
73
0
40
0
0
LTYPE
2
DASHED
70
0
3
Dashed __ __ __
72
65
73
2
40
4.5
49
3
49
-1.5
0
LTYPE
2
CENTER
70
0
3
Center ____ _ ____
72
65
73
4
40
11.5
49
8
49
-1.5
49
0.5
49
-1.5
0
ENDTAB
0
TABLE
2
LAYER
70
9
0
LAYER
2
OUTLINE
70
0
62
7
6
CONTINUOUS
0
LAYER
2
HIDDEN
70
0
62
8
6
DASHED
0
LAYER
2
CENTER
70
0
62
1
6
CENTER
0
LAYER
2
THIN
70
0
62
7
6
CONTINUOUS
0
LAYER
2
DIM
70
0
62
3
6
CONTINUOUS
0
LAYER
2
HATCH
70
0
62
8
6
CONTINUOUS
0
LAYER
2
FRAME
70
0
62
7
6
CONTINUOUS
0
LAYER
2
TEXT
70
0
62
7
6
CONTINUOUS
0
LAYER
2
CUT
70
0
62
5
6
DASHED
0
ENDTAB
0
ENDSEC
0
SECTION
2
ENTITIES
0
LINE
8
OUTLINE
10
73.475
20
125.2
30
0
11
74.475
21
126.2
31
0
0
LINE
8
OUTLINE
10
74.475
20
126.2
30
0
11
84.475
21
126.2
31
0
0
LINE
8
OUTLINE
10
84.475
20
126.2
30
0
11
84.475
21
125.45
31
0
0
LINE
8
OUTLINE
10
84.475
20
125.45
30
0
11
87.475
21
125.45
31
0
0
LINE
8
OUTLINE
10
87.475
20
125.45
30
0
11
87.475
21
127.2
31
0
0
LINE
8
OUTLINE
10
87.475
20
127.2
30
0
11
94.975
21
127.2
31
0
0
LINE
8
OUTLINE
10
94.975
20
127.2
30
0
11
95.04
21
127.204
31
0
0
LINE
8
OUTLINE
10
95.04
20
127.204
30
0
11
95.104
21
127.217
31
0
0
LINE
8
OUTLINE
10
95.104
20
127.217
30
0
11
95.166
21
127.238
31
0
0
LINE
8
OUTLINE
10
95.166
20
127.238
30
0
11
95.225
21
127.267
31
0
0
LINE
8
OUTLINE
10
95.225
20
127.267
30
0
11
95.279
21
127.303
31
0
0
LINE
8
OUTLINE
10
95.279
20
127.303
30
0
11
95.329
21
127.346
31
0
0
LINE
8
OUTLINE
10
95.329
20
127.346
30
0
11
95.372
21
127.396
31
0
0
LINE
8
OUTLINE
10
95.372
20
127.396
30
0
11
95.408
21
127.45
31
0
0
LINE
8
OUTLINE
10
95.408
20
127.45
30
0
11
95.437
21
127.509
31
0
0
LINE
8
OUTLINE
10
95.437
20
127.509
30
0
11
95.458
21
127.571
31
0
0
LINE
8
OUTLINE
10
95.458
20
127.571
30
0
11
95.471
21
127.635
31
0
0
LINE
8
OUTLINE
10
95.471
20
127.635
30
0
11
95.475
21
127.7
31
0
0
LINE
8
OUTLINE
10
95.475
20
127.7
30
0
11
114.975
21
127.7
31
0
0
LINE
8
OUTLINE
10
114.975
20
127.7
30
0
11
115.04
21
127.704
31
0
0
LINE
8
OUTLINE
10
115.04
20
127.704
30
0
11
115.104
21
127.717
31
0
0
LINE
8
OUTLINE
10
115.104
20
127.717
30
0
11
115.166
21
127.738
31
0
0
LINE
8
OUTLINE
10
115.166
20
127.738
30
0
11
115.225
21
127.767
31
0
0
LINE
8
OUTLINE
10
115.225
20
127.767
30
0
11
115.279
21
127.803
31
0
0
LINE
8
OUTLINE
10
115.279
20
127.803
30
0
11
115.329
21
127.846
31
0
0
LINE
8
OUTLINE
10
115.329
20
127.846
30
0
11
115.372
21
127.896
31
0
0
LINE
8
OUTLINE
10
115.372
20
127.896
30
0
11
115.408
21
127.95
31
0
0
LINE
8
OUTLINE
10
115.408
20
127.95
30
0
11
115.437
21
128.009
31
0
0
LINE
8
OUTLINE
10
115.437
20
128.009
30
0
11
115.458
21
128.071
31
0
0
LINE
8
OUTLINE
10
115.458
20
128.071
30
0
11
115.471
21
128.135
31
0
0
LINE
8
OUTLINE
10
115.471
20
128.135
30
0
11
115.475
21
128.2
31
0
0
LINE
8
OUTLINE
10
115.475
20
128.2
30
0
11
115.475
21
129.2
31
0
0
LINE
8
OUTLINE
10
115.475
20
129.2
30
0
11
160.475
21
129.2
31
0
0
LINE
8
OUTLINE
10
160.475
20
129.2
30
0
11
160.475
21
128.2
31
0
0
LINE
8
OUTLINE
10
160.475
20
128.2
30
0
11
160.479
21
128.135
31
0
0
LINE
8
OUTLINE
10
160.479
20
128.135
30
0
11
160.492
21
128.071
31
0
0
LINE
8
OUTLINE
10
160.492
20
128.071
30
0
11
160.513
21
128.009
31
0
0
LINE
8
OUTLINE
10
160.513
20
128.009
30
0
11
160.542
21
127.95
31
0
0
LINE
8
OUTLINE
10
160.542
20
127.95
30
0
11
160.578
21
127.896
31
0
0
LINE
8
OUTLINE
10
160.578
20
127.896
30
0
11
160.621
21
127.846
31
0
0
LINE
8
OUTLINE
10
160.621
20
127.846
30
0
11
160.671
21
127.803
31
0
0
LINE
8
OUTLINE
10
160.671
20
127.803
30
0
11
160.725
21
127.767
31
0
0
LINE
8
OUTLINE
10
160.725
20
127.767
30
0
11
160.784
21
127.738
31
0
0
LINE
8
OUTLINE
10
160.784
20
127.738
30
0
11
160.846
21
127.717
31
0
0
LINE
8
OUTLINE
10
160.846
20
127.717
30
0
11
160.91
21
127.704
31
0
0
LINE
8
OUTLINE
10
160.91
20
127.704
30
0
11
160.975
21
127.7
31
0
0
LINE
8
OUTLINE
10
160.975
20
127.7
30
0
11
180.475
21
127.7
31
0
0
LINE
8
OUTLINE
10
180.475
20
127.7
30
0
11
180.479
21
127.635
31
0
0
LINE
8
OUTLINE
10
180.479
20
127.635
30
0
11
180.492
21
127.571
31
0
0
LINE
8
OUTLINE
10
180.492
20
127.571
30
0
11
180.513
21
127.509
31
0
0
LINE
8
OUTLINE
10
180.513
20
127.509
30
0
11
180.542
21
127.45
31
0
0
LINE
8
OUTLINE
10
180.542
20
127.45
30
0
11
180.578
21
127.396
31
0
0
LINE
8
OUTLINE
10
180.578
20
127.396
30
0
11
180.621
21
127.346
31
0
0
LINE
8
OUTLINE
10
180.621
20
127.346
30
0
11
180.671
21
127.303
31
0
0
LINE
8
OUTLINE
10
180.671
20
127.303
30
0
11
180.725
21
127.267
31
0
0
LINE
8
OUTLINE
10
180.725
20
127.267
30
0
11
180.784
21
127.238
31
0
0
LINE
8
OUTLINE
10
180.784
20
127.238
30
0
11
180.846
21
127.217
31
0
0
LINE
8
OUTLINE
10
180.846
20
127.217
30
0
11
180.91
21
127.204
31
0
0
LINE
8
OUTLINE
10
180.91
20
127.204
30
0
11
180.975
21
127.2
31
0
0
LINE
8
OUTLINE
10
180.975
20
127.2
30
0
11
183.475
21
127.2
31
0
0
LINE
8
OUTLINE
10
183.475
20
127.2
30
0
11
183.475
21
126.85
31
0
0
LINE
8
OUTLINE
10
183.475
20
126.85
30
0
11
184.575
21
126.85
31
0
0
LINE
8
OUTLINE
10
184.575
20
126.85
30
0
11
184.575
21
127.2
31
0
0
LINE
8
OUTLINE
10
184.575
20
127.2
30
0
11
191.975
21
127.2
31
0
0
LINE
8
OUTLINE
10
191.975
20
127.2
30
0
11
192.475
21
126.7
31
0
0
LINE
8
OUTLINE
10
73.475
20
115.2
30
0
11
74.475
21
114.2
31
0
0
LINE
8
OUTLINE
10
74.475
20
114.2
30
0
11
84.475
21
114.2
31
0
0
LINE
8
OUTLINE
10
84.475
20
114.2
30
0
11
84.475
21
114.95
31
0
0
LINE
8
OUTLINE
10
84.475
20
114.95
30
0
11
87.475
21
114.95
31
0
0
LINE
8
OUTLINE
10
87.475
20
114.95
30
0
11
87.475
21
113.2
31
0
0
LINE
8
OUTLINE
10
87.475
20
113.2
30
0
11
94.975
21
113.2
31
0
0
LINE
8
OUTLINE
10
94.975
20
113.2
30
0
11
95.04
21
113.196
31
0
0
LINE
8
OUTLINE
10
95.04
20
113.196
30
0
11
95.104
21
113.183
31
0
0
LINE
8
OUTLINE
10
95.104
20
113.183
30
0
11
95.166
21
113.162
31
0
0
LINE
8
OUTLINE
10
95.166
20
113.162
30
0
11
95.225
21
113.133
31
0
0
LINE
8
OUTLINE
10
95.225
20
113.133
30
0
11
95.279
21
113.097
31
0
0
LINE
8
OUTLINE
10
95.279
20
113.097
30
0
11
95.329
21
113.054
31
0
0
LINE
8
OUTLINE
10
95.329
20
113.054
30
0
11
95.372
21
113.004
31
0
0
LINE
8
OUTLINE
10
95.372
20
113.004
30
0
11
95.408
21
112.95
31
0
0
LINE
8
OUTLINE
10
95.408
20
112.95
30
0
11
95.437
21
112.891
31
0
0
LINE
8
OUTLINE
10
95.437
20
112.891
30
0
11
95.458
21
112.829
31
0
0
LINE
8
OUTLINE
10
95.458
20
112.829
30
0
11
95.471
21
112.765
31
0
0
LINE
8
OUTLINE
10
95.471
20
112.765
30
0
11
95.475
21
112.7
31
0
0
LINE
8
OUTLINE
10
95.475
20
112.7
30
0
11
114.975
21
112.7
31
0
0
LINE
8
OUTLINE
10
114.975
20
112.7
30
0
11
115.04
21
112.696
31
0
0
LINE
8
OUTLINE
10
115.04
20
112.696
30
0
11
115.104
21
112.683
31
0
0
LINE
8
OUTLINE
10
115.104
20
112.683
30
0
11
115.166
21
112.662
31
0
0
LINE
8
OUTLINE
10
115.166
20
112.662
30
0
11
115.225
21
112.633
31
0
0
LINE
8
OUTLINE
10
115.225
20
112.633
30
0
11
115.279
21
112.597
31
0
0
LINE
8
OUTLINE
10
115.279
20
112.597
30
0
11
115.329
21
112.554
31
0
0
LINE
8
OUTLINE
10
115.329
20
112.554
30
0
11
115.372
21
112.504
31
0
0
LINE
8
OUTLINE
10
115.372
20
112.504
30
0
11
115.408
21
112.45
31
0
0
LINE
8
OUTLINE
10
115.408
20
112.45
30
0
11
115.437
21
112.391
31
0
0
LINE
8
OUTLINE
10
115.437
20
112.391
30
0
11
115.458
21
112.329
31
0
0
LINE
8
OUTLINE
10
115.458
20
112.329
30
0
11
115.471
21
112.265
31
0
0
LINE
8
OUTLINE
10
115.471
20
112.265
30
0
11
115.475
21
112.2
31
0
0
LINE
8
OUTLINE
10
115.475
20
112.2
30
0
11
115.475
21
111.2
31
0
0
LINE
8
OUTLINE
10
115.475
20
111.2
30
0
11
160.475
21
111.2
31
0
0
LINE
8
OUTLINE
10
160.475
20
111.2
30
0
11
160.475
21
112.2
31
0
0
LINE
8
OUTLINE
10
160.475
20
112.2
30
0
11
160.479
21
112.265
31
0
0
LINE
8
OUTLINE
10
160.479
20
112.265
30
0
11
160.492
21
112.329
31
0
0
LINE
8
OUTLINE
10
160.492
20
112.329
30
0
11
160.513
21
112.391
31
0
0
LINE
8
OUTLINE
10
160.513
20
112.391
30
0
11
160.542
21
112.45
31
0
0
LINE
8
OUTLINE
10
160.542
20
112.45
30
0
11
160.578
21
112.504
31
0
0
LINE
8
OUTLINE
10
160.578
20
112.504
30
0
11
160.621
21
112.554
31
0
0
LINE
8
OUTLINE
10
160.621
20
112.554
30
0
11
160.671
21
112.597
31
0
0
LINE
8
OUTLINE
10
160.671
20
112.597
30
0
11
160.725
21
112.633
31
0
0
LINE
8
OUTLINE
10
160.725
20
112.633
30
0
11
160.784
21
112.662
31
0
0
LINE
8
OUTLINE
10
160.784
20
112.662
30
0
11
160.846
21
112.683
31
0
0
LINE
8
OUTLINE
10
160.846
20
112.683
30
0
11
160.91
21
112.696
31
0
0
LINE
8
OUTLINE
10
160.91
20
112.696
30
0
11
160.975
21
112.7
31
0
0
LINE
8
OUTLINE
10
160.975
20
112.7
30
0
11
180.475
21
112.7
31
0
0
LINE
8
OUTLINE
10
180.475
20
112.7
30
0
11
180.479
21
112.765
31
0
0
LINE
8
OUTLINE
10
180.479
20
112.765
30
0
11
180.492
21
112.829
31
0
0
LINE
8
OUTLINE
10
180.492
20
112.829
30
0
11
180.513
21
112.891
31
0
0
LINE
8
OUTLINE
10
180.513
20
112.891
30
0
11
180.542
21
112.95
31
0
0
LINE
8
OUTLINE
10
180.542
20
112.95
30
0
11
180.578
21
113.004
31
0
0
LINE
8
OUTLINE
10
180.578
20
113.004
30
0
11
180.621
21
113.054
31
0
0
LINE
8
OUTLINE
10
180.621
20
113.054
30
0
11
180.671
21
113.097
31
0
0
LINE
8
OUTLINE
10
180.671
20
113.097
30
0
11
180.725
21
113.133
31
0
0
LINE
8
OUTLINE
10
180.725
20
113.133
30
0
11
180.784
21
113.162
31
0
0
LINE
8
OUTLINE
10
180.784
20
113.162
30
0
11
180.846
21
113.183
31
0
0
LINE
8
OUTLINE
10
180.846
20
113.183
30
0
11
180.91
21
113.196
31
0
0
LINE
8
OUTLINE
10
180.91
20
113.196
30
0
11
180.975
21
113.2
31
0
0
LINE
8
OUTLINE
10
180.975
20
113.2
30
0
11
183.475
21
113.2
31
0
0
LINE
8
OUTLINE
10
183.475
20
113.2
30
0
11
183.475
21
113.55
31
0
0
LINE
8
OUTLINE
10
183.475
20
113.55
30
0
11
184.575
21
113.55
31
0
0
LINE
8
OUTLINE
10
184.575
20
113.55
30
0
11
184.575
21
113.2
31
0
0
LINE
8
OUTLINE
10
184.575
20
113.2
30
0
11
191.975
21
113.2
31
0
0
LINE
8
OUTLINE
10
191.975
20
113.2
30
0
11
192.475
21
113.7
31
0
0
LINE
8
OUTLINE
10
73.475
20
115.2
30
0
11
73.475
21
125.2
31
0
0
LINE
8
OUTLINE
10
192.475
20
113.7
30
0
11
192.475
21
126.7
31
0
0
LINE
8
OUTLINE
10
74.475
20
114.2
30
0
11
74.475
21
126.2
31
0
0
LINE
8
OUTLINE
10
74.475
20
114.2
30
0
11
74.475
21
126.2
31
0
0
LINE
8
OUTLINE
10
84.475
20
114.95
30
0
11
84.475
21
125.45
31
0
0
LINE
8
OUTLINE
10
87.475
20
114.95
30
0
11
87.475
21
125.45
31
0
0
LINE
8
OUTLINE
10
115.475
20
112.2
30
0
11
115.475
21
128.2
31
0
0
LINE
8
OUTLINE
10
160.475
20
112.2
30
0
11
160.475
21
128.2
31
0
0
LINE
8
OUTLINE
10
183.475
20
113.55
30
0
11
183.475
21
126.85
31
0
0
LINE
8
OUTLINE
10
184.575
20
113.55
30
0
11
184.575
21
126.85
31
0
0
LINE
8
OUTLINE
10
191.975
20
113.2
30
0
11
191.975
21
127.2
31
0
0
LINE
8
OUTLINE
10
191.975
20
113.2
30
0
11
191.975
21
127.2
31
0
0
LINE
8
CENTER
10
69.475
20
120.2
30
0
11
196.475
21
120.2
31
0
0
LINE
8
HIDDEN
10
192.475
20
122.325
30
0
11
190.526
21
121.2
31
0
0
LINE
8
HIDDEN
10
190.526
20
121.2
30
0
11
186.526
21
121.2
31
0
0
LINE
8
HIDDEN
10
186.526
20
121.2
30
0
11
185.925
21
120.2
31
0
0
LINE
8
HIDDEN
10
192.475
20
118.075
30
0
11
190.526
21
119.2
31
0
0
LINE
8
HIDDEN
10
190.526
20
119.2
30
0
11
186.526
21
119.2
31
0
0
LINE
8
HIDDEN
10
186.526
20
119.2
30
0
11
185.925
21
120.2
31
0
0
LINE
8
HIDDEN
10
190.526
20
119.2
30
0
11
190.526
21
121.2
31
0
0
LINE
8
THIN
10
74.475
20
125.587
30
0
11
87.475
21
125.587
31
0
0
LINE
8
THIN
10
74.475
20
114.813
30
0
11
87.475
21
114.813
31
0
0
LINE
8
OUTLINE
10
87.475
20
114.2
30
0
11
87.475
21
126.2
31
0
0
LINE
8
OUTLINE
10
130.475
20
123.2
30
0
11
144.475
21
123.2
31
0
0
LINE
8
OUTLINE
10
130.475
20
117.2
30
0
11
144.475
21
117.2
31
0
0
ARC
8
OUTLINE
10
130.475
20
120.2
30
0
40
3
50
90
51
270
0
ARC
8
OUTLINE
10
144.475
20
120.2
30
0
40
3
50
-90
51
90
0
LINE
8
CUT
10
137.475
20
131.7
30
0
11
137.475
21
136.7
31
0
0
LINE
8
CUT
10
137.475
20
136.7
30
0
11
134.475
21
136.7
31
0
0
SOLID
8
DIM
10
132.975
20
136.7
30
0
11
135.975
21
137.21
31
0
12
135.975
22
136.19
32
0
13
135.975
23
136.19
33
0
0
TEXT
8
TEXT
10
138.975
20
137.3
30
0
40
3.5
1
A
50
0
72
0
11
138.975
21
137.3
31
0
0
LINE
8
CUT
10
137.475
20
108.7
30
0
11
137.475
21
103.7
31
0
0
LINE
8
CUT
10
137.475
20
103.7
30
0
11
134.475
21
103.7
31
0
0
SOLID
8
DIM
10
132.975
20
103.7
30
0
11
135.975
21
104.21
31
0
12
135.975
22
103.19
32
0
13
135.975
23
103.19
33
0
0
TEXT
8
TEXT
10
138.975
20
100.5
30
0
40
3.5
1
A
50
0
72
0
11
138.975
21
100.5
31
0
0
LINE
8
DIM
10
73.475
20
113.2
30
0
11
73.475
21
94.2
31
0
0
LINE
8
DIM
10
87.475
20
113.2
30
0
11
87.475
21
94.2
31
0
0
LINE
8
DIM
10
73.475
20
96.2
30
0
11
87.475
21
96.2
31
0
0
SOLID
8
DIM
10
73.475
20
96.2
30
0
11
76.475
21
96.71
31
0
12
76.475
22
95.69
32
0
13
76.475
23
95.69
33
0
0
SOLID
8
DIM
10
87.475
20
96.2
30
0
11
84.475
21
95.69
31
0
12
84.475
22
96.71
32
0
13
84.475
23
96.71
33
0
0
TEXT
8
TEXT
10
80.475
20
97.1
30
0
40
3.5
1
14
50
0
72
1
11
80.475
21
97.1
31
0
0
LINE
8
DIM
10
87.475
20
112.2
30
0
11
87.475
21
94.2
31
0
0
LINE
8
DIM
10
95.475
20
112.2
30
0
11
95.475
21
94.2
31
0
0
LINE
8
DIM
10
80.875
20
96.2
30
0
11
102.075
21
96.2
31
0
0
SOLID
8
DIM
10
87.475
20
96.2
30
0
11
84.475
21
95.69
31
0
12
84.475
22
96.71
32
0
13
84.475
23
96.71
33
0
0
SOLID
8
DIM
10
95.475
20
96.2
30
0
11
98.475
21
96.71
31
0
12
98.475
22
95.69
32
0
13
98.475
23
95.69
33
0
0
TEXT
8
TEXT
10
103.655
20
97.1
30
0
40
3.5
1
8
50
0
72
1
11
103.655
21
97.1
31
0
0
LINE
8
DIM
10
95.475
20
111.7
30
0
11
95.475
21
94.2
31
0
0
LINE
8
DIM
10
115.475
20
111.7
30
0
11
115.475
21
94.2
31
0
0
LINE
8
DIM
10
95.475
20
96.2
30
0
11
115.475
21
96.2
31
0
0
SOLID
8
DIM
10
95.475
20
96.2
30
0
11
98.475
21
96.71
31
0
12
98.475
22
95.69
32
0
13
98.475
23
95.69
33
0
0
SOLID
8
DIM
10
115.475
20
96.2
30
0
11
112.475
21
95.69
31
0
12
112.475
22
96.71
32
0
13
112.475
23
96.71
33
0
0
TEXT
8
TEXT
10
105.475
20
102
30
0
40
3.5
1
20
50
0
72
1
11
105.475
21
102
31
0
0
LINE
8
DIM
10
160.475
20
111.7
30
0
11
160.475
21
94.2
31
0
0
LINE
8
DIM
10
180.475
20
111.7
30
0
11
180.475
21
94.2
31
0
0
LINE
8
DIM
10
160.475
20
96.2
30
0
11
180.475
21
96.2
31
0
0
SOLID
8
DIM
10
160.475
20
96.2
30
0
11
163.475
21
96.71
31
0
12
163.475
22
95.69
32
0
13
163.475
23
95.69
33
0
0
SOLID
8
DIM
10
180.475
20
96.2
30
0
11
177.475
21
95.69
31
0
12
177.475
22
96.71
32
0
13
177.475
23
96.71
33
0
0
TEXT
8
TEXT
10
170.475
20
97.1
30
0
40
3.5
1
20
50
0
72
1
11
170.475
21
97.1
31
0
0
LINE
8
DIM
10
180.475
20
112.2
30
0
11
180.475
21
94.2
31
0
0
LINE
8
DIM
10
192.475
20
112.2
30
0
11
192.475
21
94.2
31
0
0
LINE
8
DIM
10
180.475
20
96.2
30
0
11
192.475
21
96.2
31
0
0
SOLID
8
DIM
10
180.475
20
96.2
30
0
11
183.475
21
96.71
31
0
12
183.475
22
95.69
32
0
13
183.475
23
95.69
33
0
0
SOLID
8
DIM
10
192.475
20
96.2
30
0
11
189.475
21
95.69
31
0
12
189.475
22
96.71
32
0
13
189.475
23
96.71
33
0
0
TEXT
8
TEXT
10
186.475
20
97.1
30
0
40
3.5
1
12
50
0
72
1
11
186.475
21
97.1
31
0
0
LINE
8
DIM
10
73.475
20
110.2
30
0
11
73.475
21
85.2
31
0
0
LINE
8
DIM
10
192.475
20
110.2
30
0
11
192.475
21
85.2
31
0
0
LINE
8
DIM
10
73.475
20
87.2
30
0
11
192.475
21
87.2
31
0
0
SOLID
8
DIM
10
73.475
20
87.2
30
0
11
76.475
21
87.71
31
0
12
76.475
22
86.69
32
0
13
76.475
23
86.69
33
0
0
SOLID
8
DIM
10
192.475
20
87.2
30
0
11
189.475
21
86.69
31
0
12
189.475
22
87.71
32
0
13
189.475
23
87.71
33
0
0
TEXT
8
TEXT
10
132.975
20
88.1
30
0
40
3.5
1
119
50
0
72
1
11
132.975
21
88.1
31
0
0
LINE
8
DIM
10
80.475
20
126.2
30
0
11
86.475
21
135.2
31
0
0
LINE
8
DIM
10
86.475
20
135.2
30
0
11
98.36
21
135.2
31
0
0
SOLID
8
DIM
10
80.475
20
126.2
30
0
11
79.235
21
123.421
31
0
12
78.387
22
123.987
32
0
13
78.387
23
123.987
33
0
0
TEXT
8
TEXT
10
86.975
20
135.9
30
0
40
3.5
1
M12×1
50
0
72
0
11
86.975
21
135.9
31
0
0
LINE
8
DIM
10
91.475
20
113.2
30
0
11
91.475
21
132.2
31
0
0
SOLID
8
DIM
10
91.475
20
113.2
30
0
11
90.965
21
116.2
31
0
12
91.985
22
116.2
32
0
13
91.985
23
116.2
33
0
0
SOLID
8
DIM
10
91.475
20
127.2
30
0
11
91.985
21
124.2
31
0
12
90.965
22
124.2
32
0
13
90.965
23
124.2
33
0
0
LINE
8
DIM
10
91.475
20
132.2
30
0
11
91.475
21
142.5
31
0
0
TEXT
8
TEXT
10
91.475
20
142.8
30
0
40
3.5
1
%%c14
50
0
72
1
11
91.475
21
142.8
31
0
0
LINE
8
DIM
10
105.475
20
112.7
30
0
11
105.475
21
132.7
31
0
0
SOLID
8
DIM
10
105.475
20
112.7
30
0
11
104.965
21
115.7
31
0
12
105.985
22
115.7
32
0
13
105.985
23
115.7
33
0
0
SOLID
8
DIM
10
105.475
20
127.7
30
0
11
105.985
21
124.7
31
0
12
104.965
22
124.7
32
0
13
104.965
23
124.7
33
0
0
TEXT
8
TEXT
10
105.475
20
133.5
30
0
40
3.5
1
%%c15 j5
50
0
72
1
11
105.475
21
133.5
31
0
0
LINE
8
DIM
10
137.975
20
111.2
30
0
11
137.975
21
134.2
31
0
0
SOLID
8
DIM
10
137.975
20
111.2
30
0
11
137.465
21
114.2
31
0
12
138.485
22
114.2
32
0
13
138.485
23
114.2
33
0
0
SOLID
8
DIM
10
137.975
20
129.2
30
0
11
138.485
21
126.2
31
0
12
137.465
22
126.2
32
0
13
137.465
23
126.2
33
0
0
LINE
8
DIM
10
137.975
20
134.2
30
0
11
137.975
21
144.5
31
0
0
TEXT
8
TEXT
10
137.975
20
144.8
30
0
40
3.5
1
%%c18
50
0
72
1
11
137.975
21
144.8
31
0
0
LINE
8
DIM
10
170.475
20
112.7
30
0
11
170.475
21
132.7
31
0
0
SOLID
8
DIM
10
170.475
20
112.7
30
0
11
169.965
21
115.7
31
0
12
170.985
22
115.7
32
0
13
170.985
23
115.7
33
0
0
SOLID
8
DIM
10
170.475
20
127.7
30
0
11
170.985
21
124.7
31
0
12
169.965
22
124.7
32
0
13
169.965
23
124.7
33
0
0
TEXT
8
TEXT
10
170.475
20
133.5
30
0
40
3.5
1
%%c15 j5
50
0
72
1
11
170.475
21
133.5
31
0
0
LINE
8
DIM
10
186.475
20
113.2
30
0
11
186.475
21
132.2
31
0
0
SOLID
8
DIM
10
186.475
20
113.2
30
0
11
185.965
21
116.2
31
0
12
186.985
22
116.2
32
0
13
186.985
23
116.2
33
0
0
SOLID
8
DIM
10
186.475
20
127.2
30
0
11
186.985
21
124.2
31
0
12
185.965
22
124.2
32
0
13
185.965
23
124.2
33
0
0
TEXT
8
TEXT
10
186.475
20
133
30
0
40
3.5
1
%%c14 h6
50
0
72
1
11
186.475
21
133
31
0
0
LINE
8
DIM
10
73.975
20
125.7
30
0
11
67.975
21
133.7
31
0
0
LINE
8
DIM
10
67.975
20
133.7
30
0
11
62.635
21
133.7
31
0
0
SOLID
8
DIM
10
73.975
20
125.7
30
0
11
76.183
21
123.606
31
0
12
75.367
22
122.994
32
0
13
75.367
23
122.994
33
0
0
TEXT
8
TEXT
10
67.475
20
134.4
30
0
40
3.5
1
C1
50
0
72
2
11
67.475
21
134.4
31
0
0
LINE
8
DIM
10
192.225
20
126.95
30
0
11
198.225
21
134.95
31
0
0
LINE
8
DIM
10
198.225
20
134.95
30
0
11
206.505
21
134.95
31
0
0
SOLID
8
DIM
10
192.225
20
126.95
30
0
11
190.833
21
124.244
31
0
12
190.017
22
124.856
32
0
13
190.017
23
124.856
33
0
0
TEXT
8
TEXT
10
198.725
20
135.65
30
0
40
3.5
1
C0.5
50
0
72
0
11
198.725
21
135.65
31
0
0
LINE
8
DIM
10
88.975
20
125.45
30
0
11
94.975
21
150.2
31
0
0
LINE
8
DIM
10
94.975
20
150.2
30
0
11
131.885
21
150.2
31
0
0
SOLID
8
DIM
10
88.975
20
125.45
30
0
11
88.764
21
122.414
31
0
12
87.773
22
122.655
32
0
13
87.773
23
122.655
33
0
0
TEXT
8
TEXT
10
95.475
20
150.9
30
0
40
3.5
1
3×%%c10.5 (DIN 76-A)
50
0
72
0
11
95.475
21
150.9
31
0
0
LINE
8
DIM
10
95.33
20
127.345
30
0
11
90.33
21
149.345
31
0
0
LINE
8
DIM
10
90.33
20
149.345
30
0
11
82.05
21
149.345
31
0
0
SOLID
8
DIM
10
95.33
20
127.345
30
0
11
96.492
21
124.533
31
0
12
95.498
22
124.307
32
0
13
95.498
23
124.307
33
0
0
TEXT
8
TEXT
10
89.83
20
150.045
30
0
40
3.5
1
R0.5
50
0
72
2
11
89.83
21
150.045
31
0
0
LINE
8
DIM
10
115.33
20
127.845
30
0
11
110.33
21
139.845
31
0
0
LINE
8
DIM
10
110.33
20
139.845
30
0
11
102.05
21
139.845
31
0
0
SOLID
8
DIM
10
115.33
20
127.845
30
0
11
116.955
21
125.272
31
0
12
116.013
22
124.88
32
0
13
116.013
23
124.88
33
0
0
TEXT
8
TEXT
10
109.83
20
140.545
30
0
40
3.5
1
R0.5
50
0
72
2
11
109.83
21
140.545
31
0
0
LINE
8
DIM
10
160.62
20
127.845
30
0
11
165.62
21
139.845
31
0
0
LINE
8
DIM
10
165.62
20
139.845
30
0
11
173.9
21
139.845
31
0
0
SOLID
8
DIM
10
160.62
20
127.845
30
0
11
159.937
21
124.88
31
0
12
158.995
22
125.272
32
0
13
158.995
23
125.272
33
0
0
TEXT
8
TEXT
10
166.12
20
140.545
30
0
40
3.5
1
R0.5
50
0
72
0
11
166.12
21
140.545
31
0
0
LINE
8
DIM
10
180.62
20
127.345
30
0
11
185.62
21
139.345
31
0
0
LINE
8
DIM
10
185.62
20
139.345
30
0
11
193.9
21
139.345
31
0
0
SOLID
8
DIM
10
180.62
20
127.345
30
0
11
179.937
21
124.38
31
0
12
178.995
22
124.772
32
0
13
178.995
23
124.772
33
0
0
TEXT
8
TEXT
10
186.12
20
140.045
30
0
40
3.5
1
R0.5
50
0
72
0
11
186.12
21
140.045
31
0
0
LINE
8
DIM
10
183.475
20
128.2
30
0
11
183.475
21
140.2
31
0
0
LINE
8
DIM
10
184.575
20
128.2
30
0
11
184.575
21
140.2
31
0
0
LINE
8
DIM
10
176.875
20
138.2
30
0
11
191.175
21
138.2
31
0
0
SOLID
8
DIM
10
183.475
20
138.2
30
0
11
180.475
21
137.69
31
0
12
180.475
22
138.71
32
0
13
180.475
23
138.71
33
0
0
SOLID
8
DIM
10
184.575
20
138.2
30
0
11
187.575
21
138.71
31
0
12
187.575
22
137.69
32
0
13
187.575
23
137.69
33
0
0
TEXT
8
TEXT
10
194.225
20
144
30
0
40
3.5
1
1.1
50
0
72
1
11
194.225
21
144
31
0
0
LINE
8
DIM
10
180.475
20
128.2
30
0
11
180.475
21
140.2
31
0
0
LINE
8
DIM
10
183.475
20
128.2
30
0
11
183.475
21
140.2
31
0
0
LINE
8
DIM
10
173.875
20
138.2
30
0
11
190.075
21
138.2
31
0
0
SOLID
8
DIM
10
180.475
20
138.2
30
0
11
177.475
21
137.69
31
0
12
177.475
22
138.71
32
0
13
177.475
23
138.71
33
0
0
SOLID
8
DIM
10
183.475
20
138.2
30
0
11
186.475
21
138.71
31
0
12
186.475
22
137.69
32
0
13
186.475
23
137.69
33
0
0
TEXT
8
TEXT
10
172.295
20
148.9
30
0
40
3.5
1
3
50
0
72
1
11
172.295
21
148.9
31
0
0
LINE
8
DIM
10
184.025
20
113.55
30
0
11
184.025
21
132.2
31
0
0
SOLID
8
DIM
10
184.025
20
113.55
30
0
11
183.515
21
116.55
31
0
12
184.535
22
116.55
32
0
13
184.535
23
116.55
33
0
0
SOLID
8
DIM
10
184.025
20
126.85
30
0
11
184.535
21
123.85
31
0
12
183.515
22
123.85
32
0
13
183.515
23
123.85
33
0
0
LINE
8
DIM
10
184.025
20
132.2
30
0
11
184.025
21
147.4
31
0
0
TEXT
8
TEXT
10
184.025
20
147.7
30
0
40
3.5
1
%%c13.3
50
0
72
1
11
184.025
21
147.7
31
0
0
LINE
8
DIM
10
127.475
20
130.2
30
0
11
127.475
21
143.2
31
0
0
LINE
8
DIM
10
147.475
20
130.2
30
0
11
147.475
21
143.2
31
0
0
LINE
8
DIM
10
127.475
20
141.2
30
0
11
147.475
21
141.2
31
0
0
SOLID
8
DIM
10
127.475
20
141.2
30
0
11
130.475
21
141.71
31
0
12
130.475
22
140.69
32
0
13
130.475
23
140.69
33
0
0
SOLID
8
DIM
10
147.475
20
141.2
30
0
11
144.475
21
140.69
31
0
12
144.475
22
141.71
32
0
13
144.475
23
141.71
33
0
0
TEXT
8
TEXT
10
137.475
20
151.9
30
0
40
3.5
1
20
50
0
72
1
11
137.475
21
151.9
31
0
0
LINE
8
DIM
10
115.475
20
130.2
30
0
11
115.475
21
143.2
31
0
0
LINE
8
DIM
10
127.475
20
130.2
30
0
11
127.475
21
143.2
31
0
0
LINE
8
DIM
10
115.475
20
141.2
30
0
11
127.475
21
141.2
31
0
0
SOLID
8
DIM
10
115.475
20
141.2
30
0
11
118.475
21
141.71
31
0
12
118.475
22
140.69
32
0
13
118.475
23
140.69
33
0
0
SOLID
8
DIM
10
127.475
20
141.2
30
0
11
124.475
21
140.69
31
0
12
124.475
22
141.71
32
0
13
124.475
23
141.71
33
0
0
TEXT
8
TEXT
10
121.475
20
142.1
30
0
40
3.5
1
12
50
0
72
1
11
121.475
21
142.1
31
0
0
LINE
8
DIM
10
192.475
20
122.475
30
0
11
197.475
21
140.7
31
0
0
LINE
8
DIM
10
197.475
20
140.7
30
0
11
225.625
21
140.7
31
0
0
SOLID
8
DIM
10
192.475
20
122.475
30
0
11
192.173
21
119.447
31
0
12
191.189
22
119.717
32
0
13
191.189
23
119.717
33
0
0
TEXT
8
TEXT
10
197.975
20
141.4
30
0
40
2.5
1
센터구멍 A2 (DIN 332)
50
0
72
0
11
197.975
21
141.4
31
0
0
TEXT
8
TEXT
10
215.475
20
141.2
30
0
40
4
1
A-A
50
0
72
1
11
215.475
21
141.2
31
0
0
LINE
8
CENTER
10
203.475
20
120.2
30
0
11
227.475
21
120.2
31
0
0
LINE
8
CENTER
10
215.475
20
108.2
30
0
11
215.475
21
132.2
31
0
0
ARC
8
OUTLINE
10
215.475
20
120.2
30
0
40
9
50
109.471
51
70.529
0
LINE
8
OUTLINE
10
212.475
20
125.7
30
0
11
212.475
21
128.685
31
0
0
LINE
8
OUTLINE
10
218.475
20
125.7
30
0
11
218.475
21
128.685
31
0
0
LINE
8
OUTLINE
10
212.475
20
125.7
30
0
11
218.475
21
125.7
31
0
0
LINE
8
DIM
10
212.475
20
129.685
30
0
11
212.475
21
137.2
31
0
0
LINE
8
DIM
10
218.475
20
129.685
30
0
11
218.475
21
137.2
31
0
0
LINE
8
DIM
10
205.875
20
135.2
30
0
11
225.075
21
135.2
31
0
0
SOLID
8
DIM
10
212.475
20
135.2
30
0
11
209.475
21
134.69
31
0
12
209.475
22
135.71
32
0
13
209.475
23
135.71
33
0
0
SOLID
8
DIM
10
218.475
20
135.2
30
0
11
221.475
21
135.71
31
0
12
221.475
22
134.69
32
0
13
221.475
23
134.69
33
0
0
TEXT
8
TEXT
10
226.655
20
136.1
30
0
40
3.5
1
6
50
0
72
1
11
226.655
21
136.1
31
0
0
LINE
8
DIM
10
219.475
20
125.7
30
0
11
233.475
21
125.7
31
0
0
LINE
8
DIM
10
216.475
20
111.2
30
0
11
233.475
21
111.2
31
0
0
LINE
8
DIM
10
231.475
20
111.2
30
0
11
231.475
21
125.7
31
0
0
SOLID
8
DIM
10
231.475
20
111.2
30
0
11
230.965
21
114.2
31
0
12
231.985
22
114.2
32
0
13
231.985
23
114.2
33
0
0
SOLID
8
DIM
10
231.475
20
125.7
30
0
11
231.985
21
122.7
31
0
12
230.965
22
122.7
32
0
13
230.965
23
122.7
33
0
0
TEXT
8
TEXT
10
230.575
20
118.45
30
0
40
3.5
1
14.5
50
90
72
1
11
230.575
21
118.45
31
0
0
LINE
8
HATCH
10
217.729
20
111.498
30
0
11
224.183
21
117.952
31
0
0
LINE
8
HATCH
10
214.023
20
111.328
30
0
11
224.349
21
121.654
31
0
0
LINE
8
HATCH
10
211.364
20
112.205
30
0
11
223.471
21
124.312
31
0
0
LINE
8
HATCH
10
209.288
20
113.664
30
0
11
222.002
21
126.378
31
0
0
LINE
8
HATCH
10
207.728
20
115.64
30
0
11
217.788
21
125.7
31
0
0
LINE
8
HATCH
10
218.475
20
126.387
30
0
11
220.038
21
127.95
31
0
0
LINE
8
HATCH
10
206.72
20
118.167
30
0
11
214.253
21
125.7
31
0
0
LINE
8
HATCH
10
206.589
20
121.571
30
0
11
212.475
21
127.458
31
0
0
LINE
8
FRAME
10
10
20
10
30
0
11
287
21
10
31
0
0
LINE
8
FRAME
10
287
20
10
30
0
11
287
21
200
31
0
0
LINE
8
FRAME
10
287
20
200
30
0
11
10
21
200
31
0
0
LINE
8
FRAME
10
10
20
200
30
0
11
10
21
10
31
0
0
LINE
8
FRAME
10
177
20
10
30
0
11
287
21
10
31
0
0
LINE
8
FRAME
10
287
20
10
30
0
11
287
21
34
31
0
0
LINE
8
FRAME
10
287
20
34
30
0
11
177
21
34
31
0
0
LINE
8
FRAME
10
177
20
34
30
0
11
177
21
10
31
0
0
LINE
8
FRAME
10
177
20
18
30
0
11
287
21
18
31
0
0
LINE
8
FRAME
10
177
20
26
30
0
11
287
21
26
31
0
0
LINE
8
FRAME
10
232
20
10
30
0
11
232
21
26
31
0
0
LINE
8
FRAME
10
255
20
26
30
0
11
255
21
34
31
0
0
TEXT
8
TEXT
10
179
20
28.5
30
0
40
4.2
1
VRINGON
72
0
11
179
21
28.5
31
0
0
TEXT
8
TEXT
10
257
20
28.5
30
0
40
2.5
1
도번 VR-RB-012
72
0
11
257
21
28.5
31
0
0
TEXT
8
TEXT
10
179
20
20.5
30
0
40
2.8
1
품명 스핀들
72
0
11
179
21
20.5
31
0
0
TEXT
8
TEXT
10
234
20
20.5
30
0
40
2.8
1
재질 SCM415
72
0
11
234
21
20.5
31
0
0
TEXT
8
TEXT
10
179
20
12.5
30
0
40
2.5
1
척도 1:1
72
0
11
179
21
12.5
31
0
0
TEXT
8
TEXT
10
234
20
12.5
30
0
40
2.5
1
3각법 · 단위 mm
72
0
11
234
21
12.5
31
0
0
CIRCLE
8
FRAME
10
269
20
16.5
30
0
40
2.4
0
CIRCLE
8
FRAME
10
269
20
16.5
30
0
40
1.2
0
LINE
8
FRAME
10
274.5
20
13.9
30
0
11
281
21
15.1
31
0
0
LINE
8
FRAME
10
281
20
15.1
30
0
11
281
21
17.9
31
0
0
LINE
8
FRAME
10
281
20
17.9
30
0
11
274.5
21
19.1
31
0
0
LINE
8
FRAME
10
274.5
20
19.1
30
0
11
274.5
21
13.9
31
0
0
TEXT
8
TEXT
10
14
20
18.2
30
0
40
2.6
1
1. 지시 없는 모따기 C0.5
72
0
11
14
21
18.2
31
0
0
TEXT
8
TEXT
10
14
20
14
30
0
40
2.6
1
2. 지시 없는 공차 KS B ISO 2768-m
72
0
11
14
21
14
31
0
0
ENDSEC
0
EOF
