0
SECTION
2
HEADER
9
$ACADVER
1
AC1009
9
$INSUNITS
70
4
0
ENDSEC
0
SECTION
2
TABLES
0
TABLE
2
LTYPE
70
3
0
LTYPE
2
CONTINUOUS
70
0
3
Solid line
72
65
73
0
40
0
0
LTYPE
2
DASHED
70
0
3
Dashed __ __ __
72
65
73
2
40
4.5
49
3
49
-1.5
0
LTYPE
2
CENTER
70
0
3
Center ____ _ ____
72
65
73
4
40
11.5
49
8
49
-1.5
49
0.5
49
-1.5
0
ENDTAB
0
TABLE
2
LAYER
70
9
0
LAYER
2
OUTLINE
70
0
62
7
6
CONTINUOUS
0
LAYER
2
HIDDEN
70
0
62
8
6
DASHED
0
LAYER
2
CENTER
70
0
62
1
6
CENTER
0
LAYER
2
THIN
70
0
62
7
6
CONTINUOUS
0
LAYER
2
DIM
70
0
62
3
6
CONTINUOUS
0
LAYER
2
HATCH
70
0
62
8
6
CONTINUOUS
0
LAYER
2
FRAME
70
0
62
7
6
CONTINUOUS
0
LAYER
2
TEXT
70
0
62
7
6
CONTINUOUS
0
LAYER
2
CUT
70
0
62
5
6
DASHED
0
ENDTAB
0
ENDSEC
0
SECTION
2
ENTITIES
0
LINE
8
OUTLINE
10
117.885
20
137.9
30
0
11
119.885
21
139.9
31
0
0
LINE
8
OUTLINE
10
119.885
20
139.9
30
0
11
145.885
21
139.9
31
0
0
LINE
8
OUTLINE
10
145.885
20
139.9
30
0
11
150.885
21
133.233
31
0
0
LINE
8
OUTLINE
10
150.885
20
133.233
30
0
11
151.885
21
130.9
31
0
0
LINE
8
OUTLINE
10
151.885
20
130.9
30
0
11
151.885
21
127.9
31
0
0
LINE
8
OUTLINE
10
151.885
20
127.9
30
0
11
181.885
21
127.9
31
0
0
LINE
8
OUTLINE
10
181.885
20
127.9
30
0
11
183.885
21
125.9
31
0
0
LINE
8
OUTLINE
10
117.885
20
101.9
30
0
11
119.885
21
99.9
31
0
0
LINE
8
OUTLINE
10
119.885
20
99.9
30
0
11
145.885
21
99.9
31
0
0
LINE
8
OUTLINE
10
145.885
20
99.9
30
0
11
150.885
21
106.567
31
0
0
LINE
8
OUTLINE
10
150.885
20
106.567
30
0
11
151.885
21
108.9
31
0
0
LINE
8
OUTLINE
10
151.885
20
108.9
30
0
11
151.885
21
111.9
31
0
0
LINE
8
OUTLINE
10
151.885
20
111.9
30
0
11
181.885
21
111.9
31
0
0
LINE
8
OUTLINE
10
181.885
20
111.9
30
0
11
183.885
21
113.9
31
0
0
LINE
8
OUTLINE
10
117.885
20
101.9
30
0
11
117.885
21
137.9
31
0
0
LINE
8
OUTLINE
10
183.885
20
113.9
30
0
11
183.885
21
125.9
31
0
0
LINE
8
OUTLINE
10
119.885
20
99.9
30
0
11
119.885
21
139.9
31
0
0
LINE
8
OUTLINE
10
119.885
20
99.9
30
0
11
119.885
21
139.9
31
0
0
LINE
8
OUTLINE
10
150.885
20
106.567
30
0
11
150.885
21
133.233
31
0
0
LINE
8
OUTLINE
10
150.885
20
106.567
30
0
11
150.885
21
133.233
31
0
0
LINE
8
OUTLINE
10
151.885
20
111.9
30
0
11
151.885
21
127.9
31
0
0
LINE
8
OUTLINE
10
181.885
20
111.9
30
0
11
181.885
21
127.9
31
0
0
LINE
8
OUTLINE
10
181.885
20
111.9
30
0
11
181.885
21
127.9
31
0
0
LINE
8
CENTER
10
109.885
20
119.9
30
0
11
191.885
21
119.9
31
0
0
LINE
8
THIN
10
151.885
20
126.366
30
0
11
181.885
21
126.366
31
0
0
LINE
8
THIN
10
151.885
20
113.434
30
0
11
181.885
21
113.434
31
0
0
LINE
8
HATCH
10
141.824
20
99.9
30
0
11
142.885
21
100.961
31
0
0
LINE
8
HATCH
10
139.703
20
99.9
30
0
11
142.885
21
103.082
31
0
0
LINE
8
HATCH
10
137.582
20
99.9
30
0
11
142.885
21
105.203
31
0
0
LINE
8
HATCH
10
135.46
20
99.9
30
0
11
142.885
21
107.325
31
0
0
LINE
8
HATCH
10
133.339
20
99.9
30
0
11
142.885
21
109.446
31
0
0
LINE
8
HATCH
10
131.218
20
99.9
30
0
11
142.885
21
111.567
31
0
0
LINE
8
HATCH
10
129.096
20
99.9
30
0
11
142.885
21
113.689
31
0
0
LINE
8
HATCH
10
126.975
20
99.9
30
0
11
142.885
21
115.81
31
0
0
LINE
8
HATCH
10
124.854
20
99.9
30
0
11
142.885
21
117.931
31
0
0
LINE
8
HATCH
10
122.732
20
99.9
30
0
11
142.885
21
120.053
31
0
0
LINE
8
HATCH
10
120.885
20
100.174
30
0
11
142.885
21
122.174
31
0
0
LINE
8
HATCH
10
120.885
20
102.295
30
0
11
142.885
21
124.295
31
0
0
LINE
8
HATCH
10
120.885
20
104.417
30
0
11
142.885
21
126.417
31
0
0
LINE
8
HATCH
10
120.885
20
106.538
30
0
11
142.885
21
128.538
31
0
0
LINE
8
HATCH
10
120.885
20
108.659
30
0
11
142.885
21
130.659
31
0
0
LINE
8
HATCH
10
120.885
20
110.78
30
0
11
142.885
21
132.78
31
0
0
LINE
8
HATCH
10
120.885
20
112.902
30
0
11
142.885
21
134.902
31
0
0
LINE
8
HATCH
10
120.885
20
115.023
30
0
11
142.885
21
137.023
31
0
0
LINE
8
HATCH
10
120.885
20
117.144
30
0
11
142.885
21
139.144
31
0
0
LINE
8
HATCH
10
120.885
20
119.266
30
0
11
141.519
21
139.9
31
0
0
LINE
8
HATCH
10
120.885
20
121.387
30
0
11
139.398
21
139.9
31
0
0
LINE
8
HATCH
10
120.885
20
123.508
30
0
11
137.277
21
139.9
31
0
0
LINE
8
HATCH
10
120.885
20
125.63
30
0
11
135.155
21
139.9
31
0
0
LINE
8
HATCH
10
120.885
20
127.751
30
0
11
133.034
21
139.9
31
0
0
LINE
8
HATCH
10
120.885
20
129.872
30
0
11
130.913
21
139.9
31
0
0
LINE
8
HATCH
10
120.885
20
131.994
30
0
11
128.791
21
139.9
31
0
0
LINE
8
HATCH
10
120.885
20
134.115
30
0
11
126.67
21
139.9
31
0
0
LINE
8
HATCH
10
120.885
20
136.236
30
0
11
124.549
21
139.9
31
0
0
LINE
8
HATCH
10
120.885
20
138.358
30
0
11
122.427
21
139.9
31
0
0
LINE
8
HATCH
10
120.885
20
100.961
30
0
11
121.946
21
99.9
31
0
0
LINE
8
HATCH
10
120.885
20
103.082
30
0
11
124.067
21
99.9
31
0
0
LINE
8
HATCH
10
120.885
20
105.203
30
0
11
126.188
21
99.9
31
0
0
LINE
8
HATCH
10
120.885
20
107.325
30
0
11
128.31
21
99.9
31
0
0
LINE
8
HATCH
10
120.885
20
109.446
30
0
11
130.431
21
99.9
31
0
0
LINE
8
HATCH
10
120.885
20
111.567
30
0
11
132.552
21
99.9
31
0
0
LINE
8
HATCH
10
120.885
20
113.689
30
0
11
134.674
21
99.9
31
0
0
LINE
8
HATCH
10
120.885
20
115.81
30
0
11
136.795
21
99.9
31
0
0
LINE
8
HATCH
10
120.885
20
117.931
30
0
11
138.916
21
99.9
31
0
0
LINE
8
HATCH
10
120.885
20
120.053
30
0
11
141.038
21
99.9
31
0
0
LINE
8
HATCH
10
120.885
20
122.174
30
0
11
142.885
21
100.174
31
0
0
LINE
8
HATCH
10
120.885
20
124.295
30
0
11
142.885
21
102.295
31
0
0
LINE
8
HATCH
10
120.885
20
126.417
30
0
11
142.885
21
104.417
31
0
0
LINE
8
HATCH
10
120.885
20
128.538
30
0
11
142.885
21
106.538
31
0
0
LINE
8
HATCH
10
120.885
20
130.659
30
0
11
142.885
21
108.659
31
0
0
LINE
8
HATCH
10
120.885
20
132.78
30
0
11
142.885
21
110.78
31
0
0
LINE
8
HATCH
10
120.885
20
134.902
30
0
11
142.885
21
112.902
31
0
0
LINE
8
HATCH
10
120.885
20
137.023
30
0
11
142.885
21
115.023
31
0
0
LINE
8
HATCH
10
120.885
20
139.144
30
0
11
142.885
21
117.144
31
0
0
LINE
8
HATCH
10
122.251
20
139.9
30
0
11
142.885
21
119.266
31
0
0
LINE
8
HATCH
10
124.372
20
139.9
30
0
11
142.885
21
121.387
31
0
0
LINE
8
HATCH
10
126.493
20
139.9
30
0
11
142.885
21
123.508
31
0
0
LINE
8
HATCH
10
128.615
20
139.9
30
0
11
142.885
21
125.63
31
0
0
LINE
8
HATCH
10
130.736
20
139.9
30
0
11
142.885
21
127.751
31
0
0
LINE
8
HATCH
10
132.857
20
139.9
30
0
11
142.885
21
129.872
31
0
0
LINE
8
HATCH
10
134.979
20
139.9
30
0
11
142.885
21
131.994
31
0
0
LINE
8
HATCH
10
137.1
20
139.9
30
0
11
142.885
21
134.115
31
0
0
LINE
8
HATCH
10
139.221
20
139.9
30
0
11
142.885
21
136.236
31
0
0
LINE
8
HATCH
10
141.343
20
139.9
30
0
11
142.885
21
138.358
31
0
0
LINE
8
DIM
10
145.885
20
98.9
30
0
11
145.885
21
82.9
31
0
0
LINE
8
DIM
10
151.885
20
98.9
30
0
11
151.885
21
82.9
31
0
0
LINE
8
DIM
10
139.285
20
84.9
30
0
11
158.485
21
84.9
31
0
0
SOLID
8
DIM
10
145.885
20
84.9
30
0
11
142.885
21
84.39
31
0
12
142.885
22
85.41
32
0
13
142.885
23
85.41
33
0
0
SOLID
8
DIM
10
151.885
20
84.9
30
0
11
154.885
21
85.41
31
0
12
154.885
22
84.39
32
0
13
154.885
23
84.39
33
0
0
TEXT
8
TEXT
10
160.065
20
86.7
30
0
40
3.5
1
3
50
0
72
1
11
160.065
21
86.7
31
0
0
LINE
8
DIM
10
151.885
20
110.9
30
0
11
151.885
21
82.9
31
0
0
LINE
8
DIM
10
183.885
20
110.9
30
0
11
183.885
21
82.9
31
0
0
LINE
8
DIM
10
151.885
20
84.9
30
0
11
183.885
21
84.9
31
0
0
SOLID
8
DIM
10
151.885
20
84.9
30
0
11
154.885
21
85.41
31
0
12
154.885
22
84.39
32
0
13
154.885
23
84.39
33
0
0
SOLID
8
DIM
10
183.885
20
84.9
30
0
11
180.885
21
84.39
31
0
12
180.885
22
85.41
32
0
13
180.885
23
85.41
33
0
0
TEXT
8
TEXT
10
167.885
20
86.7
30
0
40
3.5
1
16
50
0
72
1
11
167.885
21
86.7
31
0
0
LINE
8
DIM
10
117.885
20
98.9
30
0
11
117.885
21
73.9
31
0
0
LINE
8
DIM
10
183.885
20
98.9
30
0
11
183.885
21
73.9
31
0
0
LINE
8
DIM
10
117.885
20
75.9
30
0
11
183.885
21
75.9
31
0
0
SOLID
8
DIM
10
117.885
20
75.9
30
0
11
120.885
21
76.41
31
0
12
120.885
22
75.39
32
0
13
120.885
23
75.39
33
0
0
SOLID
8
DIM
10
183.885
20
75.9
30
0
11
180.885
21
75.39
31
0
12
180.885
22
76.41
32
0
13
180.885
23
76.41
33
0
0
TEXT
8
TEXT
10
150.885
20
77.7
30
0
40
3.5
1
33
50
0
72
1
11
150.885
21
77.7
31
0
0
LINE
8
DIM
10
131.885
20
99.9
30
0
11
131.885
21
149.9
31
0
0
SOLID
8
DIM
10
131.885
20
99.9
30
0
11
131.375
21
102.9
31
0
12
132.395
22
102.9
32
0
13
132.395
23
102.9
33
0
0
SOLID
8
DIM
10
131.885
20
139.9
30
0
11
132.395
21
136.9
31
0
12
131.375
22
136.9
32
0
13
131.375
23
136.9
33
0
0
TEXT
8
TEXT
10
131.885
20
151.5
30
0
40
3.5
1
%%c20
50
0
72
1
11
131.885
21
151.5
31
0
0
LINE
8
DIM
10
147.205
20
101.66
30
0
11
147.205
21
148.14
31
0
0
SOLID
8
DIM
10
147.205
20
101.66
30
0
11
146.695
21
104.66
31
0
12
147.715
22
104.66
32
0
13
147.715
23
104.66
33
0
0
SOLID
8
DIM
10
147.205
20
138.14
30
0
11
147.715
21
135.14
31
0
12
146.695
22
135.14
32
0
13
146.695
23
135.14
33
0
0
TEXT
8
TEXT
10
147.205
20
149.74
30
0
40
3.5
1
%%c20
50
0
72
1
11
147.205
21
149.74
31
0
0
LINE
8
DIM
10
150.565
20
106.14
30
0
11
150.565
21
143.66
31
0
0
SOLID
8
DIM
10
150.565
20
106.14
30
0
11
150.055
21
109.14
31
0
12
151.075
22
109.14
32
0
13
151.075
23
109.14
33
0
0
SOLID
8
DIM
10
150.565
20
133.66
30
0
11
151.075
21
130.66
31
0
12
150.055
22
130.66
32
0
13
150.055
23
130.66
33
0
0
TEXT
8
TEXT
10
150.565
20
145.26
30
0
40
3.5
1
%%c12
50
0
72
1
11
150.565
21
145.26
31
0
0
LINE
8
DIM
10
167.885
20
127.9
30
0
11
173.885
21
136.9
31
0
0
LINE
8
DIM
10
173.885
20
136.9
30
0
11
180.225
21
136.9
31
0
0
SOLID
8
DIM
10
167.885
20
127.9
30
0
11
166.645
21
125.121
31
0
12
165.797
22
125.687
32
0
13
165.797
23
125.687
33
0
0
TEXT
8
TEXT
10
174.885
20
138.3
30
0
40
3.5
1
M8
50
0
72
0
11
174.885
21
138.3
31
0
0
LINE
8
DIM
10
118.885
20
138.9
30
0
11
112.885
21
146.9
31
0
0
LINE
8
DIM
10
112.885
20
146.9
30
0
11
106.545
21
146.9
31
0
0
SOLID
8
DIM
10
118.885
20
138.9
30
0
11
121.093
21
136.806
31
0
12
120.277
22
136.194
32
0
13
120.277
23
136.194
33
0
0
TEXT
8
TEXT
10
111.885
20
148.3
30
0
40
3.5
1
C1
50
0
72
2
11
111.885
21
148.3
31
0
0
LINE
8
DIM
10
152.385
20
131.4
30
0
11
146.385
21
139.4
31
0
0
LINE
8
DIM
10
146.385
20
139.4
30
0
11
137.105
21
139.4
31
0
0
SOLID
8
DIM
10
152.385
20
131.4
30
0
11
154.593
21
129.306
31
0
12
153.777
22
128.694
32
0
13
153.777
23
128.694
33
0
0
TEXT
8
TEXT
10
145.385
20
140.8
30
0
40
3.5
1
C0.5
50
0
72
2
11
145.385
21
140.8
31
0
0
LINE
8
DIM
10
182.885
20
126.9
30
0
11
188.885
21
134.9
31
0
0
LINE
8
DIM
10
188.885
20
134.9
30
0
11
195.225
21
134.9
31
0
0
SOLID
8
DIM
10
182.885
20
126.9
30
0
11
181.493
21
124.194
31
0
12
180.677
22
124.806
32
0
13
180.677
23
124.806
33
0
0
TEXT
8
TEXT
10
189.885
20
136.3
30
0
40
3.5
1
C1
50
0
72
0
11
189.885
21
136.3
31
0
0
LINE
8
DIM
10
120.885
20
140.9
30
0
11
120.885
21
150.9
31
0
0
LINE
8
DIM
10
142.885
20
140.9
30
0
11
142.885
21
150.9
31
0
0
LINE
8
DIM
10
120.885
20
148.9
30
0
11
142.885
21
148.9
31
0
0
SOLID
8
DIM
10
120.885
20
148.9
30
0
11
123.885
21
149.41
31
0
12
123.885
22
148.39
32
0
13
123.885
23
148.39
33
0
0
SOLID
8
DIM
10
142.885
20
148.9
30
0
11
139.885
21
148.39
31
0
12
139.885
22
149.41
32
0
13
139.885
23
149.41
33
0
0
TEXT
8
TEXT
10
131.885
20
155.6
30
0
40
3.5
1
11
50
0
72
1
11
131.885
21
155.6
31
0
0
LINE
8
DIM
10
117.885
20
140.9
30
0
11
117.885
21
150.9
31
0
0
LINE
8
DIM
10
120.885
20
140.9
30
0
11
120.885
21
150.9
31
0
0
LINE
8
DIM
10
111.285
20
148.9
30
0
11
127.485
21
148.9
31
0
0
SOLID
8
DIM
10
117.885
20
148.9
30
0
11
114.885
21
148.39
31
0
12
114.885
22
149.41
32
0
13
114.885
23
149.41
33
0
0
SOLID
8
DIM
10
120.885
20
148.9
30
0
11
123.885
21
149.41
31
0
12
123.885
22
148.39
32
0
13
123.885
23
148.39
33
0
0
TEXT
8
TEXT
10
108.235
20
155.6
30
0
40
3.5
1
1.5
50
0
72
1
11
108.235
21
155.6
31
0
0
LINE
8
DIM
10
131.885
20
139.9
30
0
11
137.885
21
162.9
31
0
0
LINE
8
DIM
10
137.885
20
162.9
30
0
11
155.76
21
162.9
31
0
0
SOLID
8
DIM
10
131.885
20
139.9
30
0
11
131.621
21
136.868
31
0
12
130.634
22
137.126
32
0
13
130.634
23
137.126
33
0
0
TEXT
8
TEXT
10
138.885
20
164.3
30
0
40
2.5
1
널링 빗목 p0.8
50
0
72
0
11
138.885
21
164.3
31
0
0
LINE
8
FRAME
10
10
20
10
30
0
11
287
21
10
31
0
0
LINE
8
FRAME
10
287
20
10
30
0
11
287
21
200
31
0
0
LINE
8
FRAME
10
287
20
200
30
0
11
10
21
200
31
0
0
LINE
8
FRAME
10
10
20
200
30
0
11
10
21
10
31
0
0
LINE
8
FRAME
10
177
20
10
30
0
11
287
21
10
31
0
0
LINE
8
FRAME
10
287
20
10
30
0
11
287
21
34
31
0
0
LINE
8
FRAME
10
287
20
34
30
0
11
177
21
34
31
0
0
LINE
8
FRAME
10
177
20
34
30
0
11
177
21
10
31
0
0
LINE
8
FRAME
10
177
20
18
30
0
11
287
21
18
31
0
0
LINE
8
FRAME
10
177
20
26
30
0
11
287
21
26
31
0
0
LINE
8
FRAME
10
232
20
10
30
0
11
232
21
26
31
0
0
LINE
8
FRAME
10
255
20
26
30
0
11
255
21
34
31
0
0
TEXT
8
TEXT
10
179
20
28.5
30
0
40
4.2
1
VRINGON
72
0
11
179
21
28.5
31
0
0
TEXT
8
TEXT
10
257
20
28.5
30
0
40
2.5
1
도번 VR-RB-022
72
0
11
257
21
28.5
31
0
0
TEXT
8
TEXT
10
179
20
20.5
30
0
40
2.8
1
품명 널링 손잡이 나사
72
0
11
179
21
20.5
31
0
0
TEXT
8
TEXT
10
234
20
20.5
30
0
40
2.8
1
재질 SUS303
72
0
11
234
21
20.5
31
0
0
TEXT
8
TEXT
10
179
20
12.5
30
0
40
2.5
1
척도 2:1
72
0
11
179
21
12.5
31
0
0
TEXT
8
TEXT
10
234
20
12.5
30
0
40
2.5
1
3각법 · 단위 mm
72
0
11
234
21
12.5
31
0
0
CIRCLE
8
FRAME
10
269
20
16.5
30
0
40
2.4
0
CIRCLE
8
FRAME
10
269
20
16.5
30
0
40
1.2
0
LINE
8
FRAME
10
274.5
20
13.9
30
0
11
281
21
15.1
31
0
0
LINE
8
FRAME
10
281
20
15.1
30
0
11
281
21
17.9
31
0
0
LINE
8
FRAME
10
281
20
17.9
30
0
11
274.5
21
19.1
31
0
0
LINE
8
FRAME
10
274.5
20
19.1
30
0
11
274.5
21
13.9
31
0
0
TEXT
8
TEXT
10
14
20
18.2
30
0
40
2.6
1
1. 지시 없는 모따기 C0.5
72
0
11
14
21
18.2
31
0
0
TEXT
8
TEXT
10
14
20
14
30
0
40
2.6
1
2. 지시 없는 공차 KS B ISO 2768-m
72
0
11
14
21
14
31
0
0
ENDSEC
0
EOF
