#usda 1.0
(
    defaultPrim = "spacer"
    metersPerUnit = 0.001
    upAxis = "Y"
    doc = "VRINGON revolve part — CadQuery executor"
)

def Xform "spacer" (
    kind = "component"
)
{
    custom string vringon:dsl_version = "vringon-shaft/1.0"
    custom string vringon:dsl_json = "{\"dsl\":\"vringon-shaft/1.0\",\"id\":\"spacer\",\"name\":\"Spacer sleeve\",\"name_ko\":\"스페이서\",\"part_class\":\"spacer\",\"units\":\"mm\",\"material\":\"A6061\",\"drawing\":{\"number\":\"VR-RB-001\",\"scale\":\"2:1\",\"projection\":\"third\"},\"segments\":[{\"type\":\"cyl\",\"length\":12,\"diameter\":24}],\"transitions\":[{\"at\":0,\"type\":\"chamfer\",\"size\":0.5},{\"at\":1,\"type\":\"chamfer\",\"size\":0.5}],\"grooves\":[],\"bore\":{\"through\":true,\"segments\":[{\"length\":12,\"diameter\":16,\"tolerance\":\"H8\"}],\"chamfer_left\":0.5,\"chamfer_right\":0.5},\"features\":[],\"meta\":{\"source\":\"golden\",\"difficulty\":1}}"
    custom string vringon:name_ko = "스페이서"
    custom string vringon:material = "A6061"
    custom double vringon:length_mm = 12.0
    custom double vringon:max_diameter_mm = 24
    custom double vringon:volume_mm3 = 2984.513
    custom double[] vringon:segment_lengths_mm = [12]
    custom string[] vringon:segment_types = ["cyl"]
    custom string[] vringon:threads = []
    custom string[] vringon:features = []

    def Mesh "body"
    {
        float3[] extent = [(0.0000, -11.9851, -11.9963), (12.0000, 12.0000, 11.9963)]
        int[] faceVertexCounts = [3, 3, 3, 3, 3, 3, 3, 3, 3, 3, 3, 3, 3, 3, 3, 3, 3, 3, 3, 3, 3, 3, 3, 3, 3, 3, 3, 3, 3, 3, 3, 3, 3, 3, 3, 3, 3, 3, 3, 3, 3, 3, 3, 3, 3, 3, 3, 3, 3, 3, 3, 3, 3, 3, 3, 3, 3, 3, 3, 3, 3, 3, 3, 3, 3, 3, 3, 3, 3, 3, 3, 3, 3, 3, 3, 3, 3, 3, 3, 3, 3, 3, 3, 3, 3, 3, 3, 3, 3, 3, 3, 3, 3, 3, 3, 3, 3, 3, 3, 3, 3, 3, 3, 3, 3, 3, 3, 3, 3, 3, 3, 3, 3, 3, 3, 3, 3, 3, 3, 3, 3, 3, 3, 3, 3, 3, 3, 3, 3, 3, 3, 3, 3, 3, 3, 3, 3, 3, 3, 3, 3, 3, 3, 3, 3, 3, 3, 3, 3, 3, 3, 3, 3, 3, 3, 3, 3, 3, 3, 3, 3, 3, 3, 3, 3, 3, 3, 3, 3, 3, 3, 3, 3, 3, 3, 3, 3, 3, 3, 3, 3, 3, 3, 3, 3, 3, 3, 3, 3, 3, 3, 3, 3, 3, 3, 3, 3, 3, 3, 3, 3, 3, 3, 3, 3, 3, 3, 3, 3, 3, 3, 3, 3, 3, 3, 3, 3, 3, 3, 3, 3, 3, 3, 3, 3, 3, 3, 3, 3, 3, 3, 3, 3, 3, 3, 3, 3, 3, 3, 3, 3, 3, 3, 3, 3, 3, 3, 3, 3, 3, 3, 3, 3, 3, 3, 3, 3, 3, 3, 3, 3, 3, 3, 3, 3, 3, 3, 3, 3, 3, 3, 3, 3, 3, 3, 3, 3, 3, 3, 3, 3, 3, 3, 3, 3, 3, 3, 3, 3, 3, 3, 3, 3, 3, 3, 3, 3, 3, 3, 3, 3, 3, 3, 3, 3, 3, 3, 3, 3, 3, 3, 3, 3, 3, 3, 3, 3, 3, 3, 3, 3, 3, 3, 3, 3, 3, 3, 3, 3, 3, 3, 3, 3, 3, 3, 3, 3, 3, 3, 3, 3, 3, 3, 3, 3, 3, 3, 3, 3, 3, 3, 3, 3, 3, 3, 3, 3, 3, 3, 3, 3, 3, 3, 3, 3, 3, 3, 3, 3, 3, 3, 3, 3, 3, 3, 3, 3, 3, 3, 3, 3, 3, 3, 3, 3, 3, 3, 3, 3, 3, 3, 3, 3, 3, 3, 3, 3, 3, 3, 3, 3, 3, 3, 3, 3, 3, 3, 3, 3, 3, 3, 3, 3, 3, 3, 3, 3, 3, 3, 3, 3, 3, 3, 3, 3, 3, 3, 3, 3, 3, 3, 3, 3, 3, 3, 3, 3, 3, 3, 3, 3, 3, 3, 3, 3, 3, 3, 3, 3, 3, 3, 3, 3, 3, 3, 3, 3, 3, 3, 3, 3, 3, 3, 3, 3, 3, 3, 3, 3, 3, 3, 3, 3, 3, 3, 3, 3, 3, 3, 3, 3, 3, 3, 3, 3, 3, 3, 3, 3, 3, 3, 3, 3, 3, 3, 3, 3, 3, 3, 3, 3, 3, 3, 3, 3, 3, 3, 3, 3, 3, 3, 3, 3, 3, 3, 3, 3, 3, 3, 3, 3, 3, 3, 3, 3, 3, 3, 3, 3, 3, 3, 3, 3, 3, 3, 3, 3, 3, 3, 3, 3, 3, 3, 3, 3, 3, 3, 3, 3, 3, 3, 3, 3, 3, 3, 3, 3, 3, 3, 3, 3, 3, 3, 3, 3, 3, 3, 3, 3, 3, 3, 3, 3, 3, 3, 3, 3, 3, 3, 3, 3, 3, 3, 3, 3, 3, 3, 3, 3, 3, 3, 3, 3, 3, 3, 3, 3, 3, 3, 3, 3, 3, 3, 3, 3, 3, 3, 3, 3, 3, 3, 3, 3, 3, 3, 3, 3, 3, 3, 3, 3, 3, 3, 3, 3, 3, 3, 3, 3, 3, 3, 3, 3, 3, 3, 3, 3, 3, 3, 3, 3, 3, 3, 3, 3, 3, 3, 3, 3, 3, 3, 3, 3, 3, 3, 3, 3, 3, 3, 3, 3, 3, 3, 3, 3, 3, 3, 3, 3, 3, 3, 3, 3, 3, 3, 3, 3, 3, 3, 3, 3, 3, 3, 3, 3, 3, 3, 3, 3, 3, 3, 3, 3, 3, 3, 3, 3, 3, 3, 3, 3, 3, 3, 3, 3, 3, 3, 3, 3, 3, 3, 3, 3, 3, 3, 3, 3, 3, 3, 3, 3, 3, 3, 3, 3, 3, 3, 3, 3, 3, 3, 3, 3, 3, 3, 3, 3, 3, 3, 3, 3, 3, 3, 3, 3, 3, 3, 3, 3, 3, 3, 3, 3, 3, 3, 3, 3, 3, 3, 3, 3, 3, 3, 3, 3, 3, 3, 3, 3, 3, 3, 3, 3, 3, 3, 3, 3, 3, 3, 3, 3, 3, 3, 3, 3, 3, 3, 3, 3, 3, 3, 3, 3, 3, 3, 3, 3, 3, 3, 3, 3, 3, 3, 3, 3, 3, 3, 3, 3, 3, 3, 3, 3, 3, 3, 3, 3, 3, 3, 3, 3, 3, 3, 3, 3, 3, 3, 3, 3, 3, 3, 3, 3, 3, 3, 3, 3, 3, 3, 3, 3, 3, 3, 3, 3, 3, 3, 3, 3, 3, 3, 3, 3, 3, 3, 3, 3, 3, 3, 3, 3, 3, 3, 3, 3, 3, 3, 3, 3, 3, 3, 3, 3, 3, 3, 3, 3, 3, 3, 3, 3, 3, 3, 3, 3, 3, 3, 3, 3, 3, 3, 3, 3, 3, 3, 3, 3, 3, 3, 3, 3, 3, 3, 3, 3, 3, 3, 3, 3, 3, 3, 3, 3, 3, 3, 3, 3, 3, 3, 3, 3, 3, 3, 3, 3, 3, 3, 3, 3, 3, 3, 3, 3, 3, 3, 3, 3, 3, 3, 3, 3, 3, 3, 3, 3, 3, 3, 3, 3, 3, 3, 3, 3, 3, 3, 3, 3, 3, 3, 3, 3, 3, 3, 3, 3, 3, 3, 3, 3, 3, 3, 3, 3, 3, 3, 3, 3, 3, 3, 3, 3, 3, 3, 3, 3, 3, 3, 3, 3, 3, 3, 3, 3, 3, 3, 3, 3, 3, 3, 3, 3, 3, 3, 3, 3, 3, 3, 3]
        int[] faceVertexIndices = [66, 0, 1, 66, 65, 0, 67, 1, 2, 67, 66, 1, 68, 2, 3, 68, 67, 2, 69, 3, 4, 69, 68, 3, 70, 4, 5, 70, 69, 4, 71, 5, 6, 71, 70, 5, 72, 6, 7, 72, 71, 6, 73, 7, 8, 73, 72, 7, 74, 8, 9, 74, 73, 8, 75, 9, 10, 75, 74, 9, 76, 10, 11, 76, 75, 10, 77, 11, 12, 77, 76, 11, 78, 12, 13, 78, 77, 12, 14, 78, 13, 79, 78, 14, 80, 14, 15, 80, 79, 14, 81, 15, 16, 81, 80, 15, 17, 81, 16, 82, 81, 17, 18, 82, 17, 83, 82, 18, 84, 83, 18, 84, 18, 19, 85, 84, 19, 85, 19, 20, 21, 85, 20, 86, 85, 21, 87, 86, 21, 87, 21, 22, 88, 87, 22, 88, 22, 23, 24, 88, 23, 89, 88, 24, 25, 89, 24, 90, 89, 25, 91, 25, 26, 91, 90, 25, 92, 26, 27, 92, 91, 26, 28, 92, 27, 93, 92, 28, 94, 28, 29, 94, 93, 28, 95, 29, 30, 95, 94, 29, 96, 30, 31, 96, 95, 30, 32, 96, 31, 97, 96, 32, 98, 32, 33, 98, 97, 32, 99, 33, 34, 99, 98, 33, 100, 34, 35, 100, 99, 34, 101, 35, 36, 101, 100, 35, 37, 101, 36, 102, 101, 37, 103, 37, 38, 103, 102, 37, 39, 103, 38, 104, 103, 39, 105, 39, 40, 105, 104, 39, 106, 40, 41, 106, 105, 40, 42, 106, 41, 107, 106, 42, 108, 107, 42, 108, 42, 43, 44, 108, 43, 109, 108, 44, 110, 109, 44, 110, 44, 45, 46, 110, 45, 111, 110, 46, 112, 111, 46, 112, 46, 47, 48, 112, 47, 113, 112, 48, 114, 113, 48, 114, 48, 49, 50, 114, 49, 115, 114, 50, 116, 115, 50, 116, 50, 51, 52, 116, 51, 117, 116, 52, 118, 117, 52, 118, 52, 53, 54, 118, 53, 119, 118, 54, 120, 119, 54, 120, 54, 55, 56, 120, 55, 121, 120, 56, 122, 56, 57, 122, 121, 56, 123, 57, 58, 123, 122, 57, 124, 58, 59, 124, 123, 58, 60, 124, 59, 125, 124, 60, 126, 60, 61, 126, 125, 60, 62, 126, 61, 127, 126, 62, 64, 62, 63, 64, 127, 62, 194, 128, 129, 194, 193, 128, 195, 129, 130, 195, 194, 129, 196, 130, 131, 196, 131, 132, 196, 195, 130, 197, 196, 132, 198, 132, 133, 198, 197, 132, 199, 133, 134, 199, 134, 135, 199, 198, 133, 200, 199, 135, 201, 135, 136, 201, 200, 135, 202, 136, 137, 202, 137, 138, 202, 201, 136, 203, 138, 139, 203, 202, 138, 204, 139, 140, 204, 203, 139, 205, 204, 140, 206, 140, 141, 206, 141, 142, 206, 205, 140, 207, 206, 142, 208, 142, 143, 208, 207, 142, 209, 143, 144, 209, 208, 143, 210, 144, 145, 210, 145, 146, 210, 209, 144, 211, 210, 146, 212, 211, 146, 212, 146, 147, 212, 147, 148, 213, 212, 148, 214, 213, 148, 214, 148, 149, 214, 149, 150, 215, 214, 150, 216, 150, 151, 216, 215, 150, 217, 151, 152, 217, 216, 151, 218, 152, 153, 218, 217, 152, 219, 153, 154, 219, 218, 153, 220, 154, 155, 220, 219, 154, 221, 155, 156, 221, 156, 157, 221, 220, 155, 222, 221, 157, 223, 157, 158, 223, 222, 157, 224, 158, 159, 224, 159, 160, 224, 223, 158, 225, 160, 161, 225, 224, 160, 226, 225, 161, 227, 161, 162, 227, 226, 161, 228, 162, 163, 228, 227, 162, 229, 163, 164, 229, 228, 163, 230, 164, 165, 230, 165, 166, 230, 229, 164, 231, 166, 167, 231, 230, 166, 232, 231, 167, 233, 167, 168, 233, 232, 167, 234, 168, 169, 234, 169, 170, 234, 233, 168, 235, 170, 171, 235, 234, 170, 236, 235, 171, 237, 236, 171, 237, 171, 172, 237, 172, 173, 238, 237, 173, 238, 173, 174, 239, 238, 174, 240, 239, 174, 240, 174, 175, 240, 175, 176, 241, 240, 176, 242, 241, 176, 242, 176, 177, 242, 177, 178, 243, 242, 178, 244, 243, 178, 244, 178, 179, 245, 244, 179, 245, 179, 180, 246, 245, 180, 246, 180, 181, 246, 181, 182, 247, 246, 182, 248, 247, 182, 248, 182, 183, 249, 183, 184, 249, 248, 183, 250, 184, 185, 250, 249, 184, 251, 185, 186, 251, 250, 185, 252, 186, 187, 252, 251, 186, 253, 187, 188, 253, 252, 187, 254, 188, 189, 254, 253, 188, 255, 189, 190, 255, 254, 189, 192, 190, 191, 192, 255, 190, 322, 256, 257, 322, 321, 256, 323, 257, 258, 323, 322, 257, 324, 258, 259, 324, 323, 258, 325, 259, 260, 325, 324, 259, 326, 260, 261, 326, 325, 260, 327, 261, 262, 327, 326, 261, 328, 262, 263, 328, 327, 262, 329, 263, 264, 329, 328, 263, 330, 264, 265, 330, 329, 264, 331, 265, 266, 331, 330, 265, 332, 266, 267, 332, 331, 266, 333, 267, 268, 333, 332, 267, 334, 268, 269, 334, 333, 268, 270, 334, 269, 335, 334, 270, 336, 270, 271, 336, 335, 270, 337, 271, 272, 337, 336, 271, 273, 337, 272, 338, 337, 273, 274, 338, 273, 339, 338, 274, 340, 339, 274, 340, 274, 275, 341, 340, 275, 341, 275, 276, 277, 341, 276, 342, 341, 277, 343, 342, 277, 343, 277, 278, 344, 343, 278, 344, 278, 279, 280, 344, 279, 345, 344, 280, 281, 345, 280, 346, 345, 281, 347, 281, 282, 347, 346, 281, 348, 282, 283, 348, 347, 282, 284, 348, 283, 349, 348, 284, 350, 284, 285, 350, 349, 284, 351, 285, 286, 351, 350, 285, 352, 286, 287, 352, 351, 286, 288, 352, 287, 353, 352, 288, 354, 288, 289, 354, 353, 288, 355, 289, 290, 355, 354, 289, 356, 290, 291, 356, 355, 290, 357, 291, 292, 357, 356, 291, 293, 357, 292, 358, 357, 293, 359, 293, 294, 359, 358, 293, 295, 359, 294, 360, 359, 295, 361, 295, 296, 361, 360, 295, 362, 296, 297, 362, 361, 296, 298, 362, 297, 363, 362, 298, 364, 363, 298, 364, 298, 299, 300, 364, 299, 365, 364, 300, 366, 365, 300, 366, 300, 301, 302, 366, 301, 367, 366, 302, 368, 367, 302, 368, 302, 303, 304, 368, 303, 369, 368, 304, 370, 369, 304, 370, 304, 305, 306, 370, 305, 371, 370, 306, 372, 371, 306, 372, 306, 307, 308, 372, 307, 373, 372, 308, 374, 373, 308, 374, 308, 309, 310, 374, 309, 375, 374, 310, 376, 375, 310, 376, 310, 311, 312, 376, 311, 377, 376, 312, 378, 312, 313, 378, 377, 312, 379, 313, 314, 379, 378, 313, 380, 314, 315, 380, 379, 314, 316, 380, 315, 381, 380, 316, 382, 316, 317, 382, 381, 316, 318, 382, 317, 383, 382, 318, 320, 318, 319, 320, 383, 318, 487, 423, 424, 487, 486, 423, 485, 422, 423, 485, 423, 486, 488, 424, 425, 488, 425, 426, 488, 487, 424, 484, 421, 422, 484, 422, 485, 489, 488, 426, 483, 420, 421, 483, 421, 484, 490, 426, 427, 490, 489, 426, 482, 419, 420, 482, 420, 483, 491, 427, 428, 491, 428, 429, 491, 490, 427, 481, 418, 419, 481, 419, 482, 492, 491, 429, 480, 417, 418, 480, 418, 481, 493, 429, 430, 493, 430, 431, 493, 492, 429, 479, 416, 417, 479, 417, 480, 494, 493, 431, 478, 415, 416, 478, 416, 479, 495, 431, 432, 495, 494, 431, 477, 415, 478, 477, 414, 415, 496, 495, 432, 496, 432, 433, 476, 413, 414, 476, 414, 477, 497, 496, 433, 497, 433, 434, 475, 413, 476, 475, 411, 412, 475, 412, 413, 498, 497, 434, 498, 434, 435, 474, 411, 475, 499, 498, 435, 499, 435, 436, 473, 410, 411, 473, 411, 474, 500, 499, 436, 500, 436, 437, 472, 409, 410, 472, 410, 473, 501, 500, 437, 501, 437, 438, 471, 408, 409, 471, 409, 472, 439, 501, 438, 502, 501, 439, 470, 408, 471, 407, 408, 470, 503, 502, 439, 440, 503, 439, 406, 407, 470, 406, 470, 469, 441, 504, 503, 441, 503, 440, 505, 504, 441, 405, 406, 469, 405, 469, 468, 442, 505, 441, 404, 405, 468, 404, 467, 466, 404, 468, 467, 443, 506, 505, 443, 505, 442, 403, 466, 465, 403, 404, 466, 444, 507, 506, 444, 506, 443, 402, 403, 465, 445, 508, 507, 445, 509, 508, 445, 507, 444, 401, 402, 465, 401, 465, 464, 446, 509, 445, 400, 401, 464, 400, 463, 462, 400, 464, 463, 384, 509, 446, 384, 447, 509, 384, 448, 447, 399, 400, 462, 385, 448, 384, 398, 399, 462, 398, 462, 461, 386, 449, 448, 386, 448, 385, 397, 398, 461, 397, 461, 460, 387, 449, 386, 387, 450, 449, 396, 397, 460, 396, 460, 459, 388, 450, 387, 388, 451, 450, 395, 396, 459, 395, 458, 457, 395, 459, 458, 389, 451, 388, 389, 452, 451, 389, 453, 452, 394, 395, 457, 390, 453, 389, 393, 394, 457, 393, 457, 456, 391, 454, 453, 391, 453, 390, 392, 455, 454, 392, 456, 455, 392, 454, 391, 392, 393, 456, 576, 510, 511, 576, 575, 510, 577, 511, 512, 577, 576, 511, 578, 512, 513, 578, 577, 512, 579, 513, 514, 579, 578, 513, 580, 514, 515, 580, 579, 514, 516, 580, 515, 581, 580, 516, 582, 516, 517, 582, 581, 516, 583, 517, 518, 583, 582, 517, 584, 518, 519, 584, 583, 518, 585, 519, 520, 585, 584, 519, 586, 520, 521, 586, 585, 520, 587, 521, 522, 587, 586, 521, 588, 522, 523, 588, 587, 522, 524, 588, 523, 589, 588, 524, 590, 524, 525, 590, 589, 524, 526, 590, 525, 591, 590, 526, 592, 526, 527, 592, 591, 526, 593, 527, 528, 593, 592, 527, 594, 593, 528, 594, 528, 529, 595, 594, 529, 595, 529, 530, 596, 595, 530, 596, 530, 531, 597, 596, 531, 597, 531, 532, 598, 597, 532, 598, 532, 533, 599, 533, 534, 599, 598, 533, 600, 534, 535, 600, 599, 534, 601, 535, 536, 601, 600, 535, 602, 536, 537, 602, 601, 536, 603, 537, 538, 603, 602, 537, 604, 538, 539, 604, 603, 538, 605, 539, 540, 605, 604, 539, 606, 540, 541, 606, 605, 540, 607, 541, 542, 607, 606, 541, 543, 607, 542, 608, 607, 543, 609, 543, 544, 609, 608, 543, 610, 544, 545, 610, 609, 544, 546, 610, 545, 611, 610, 546, 612, 546, 547, 612, 611, 546, 613, 547, 548, 613, 612, 547, 614, 548, 549, 614, 613, 548, 615, 549, 550, 615, 614, 549, 551, 615, 550, 616, 615, 551, 617, 551, 552, 617, 616, 551, 618, 617, 552, 618, 552, 553, 619, 553, 554, 619, 618, 553, 555, 619, 554, 620, 619, 555, 621, 620, 555, 621, 555, 556, 622, 621, 556, 622, 556, 557, 623, 622, 557, 623, 557, 558, 624, 623, 558, 624, 558, 559, 625, 624, 559, 625, 559, 560, 626, 625, 560, 626, 560, 561, 627, 626, 561, 627, 561, 562, 628, 627, 562, 628, 562, 563, 629, 628, 563, 629, 563, 564, 630, 629, 564, 630, 564, 565, 631, 630, 565, 631, 565, 566, 632, 566, 567, 632, 631, 566, 633, 567, 568, 633, 632, 567, 634, 568, 569, 634, 633, 568, 635, 569, 570, 635, 634, 569, 636, 570, 571, 636, 635, 570, 572, 636, 571, 637, 636, 572, 574, 572, 573, 574, 637, 572, 704, 638, 639, 704, 703, 638, 705, 639, 640, 705, 704, 639, 706, 640, 641, 706, 641, 642, 706, 705, 640, 707, 706, 642, 708, 642, 643, 708, 707, 642, 709, 643, 644, 709, 644, 645, 709, 708, 643, 710, 709, 645, 711, 645, 646, 711, 710, 645, 712, 646, 647, 712, 647, 648, 712, 711, 646, 713, 648, 649, 713, 712, 648, 714, 649, 650, 714, 713, 649, 715, 714, 650, 716, 650, 651, 716, 651, 652, 716, 715, 650, 717, 716, 652, 718, 652, 653, 718, 717, 652, 719, 653, 654, 719, 718, 653, 720, 654, 655, 720, 655, 656, 720, 719, 654, 721, 720, 656, 722, 721, 656, 722, 656, 657, 722, 657, 658, 723, 722, 658, 724, 723, 658, 724, 658, 659, 724, 659, 660, 725, 724, 660, 726, 660, 661, 726, 725, 660, 727, 661, 662, 727, 726, 661, 728, 662, 663, 728, 727, 662, 729, 663, 664, 729, 728, 663, 730, 664, 665, 730, 729, 664, 731, 665, 666, 731, 666, 667, 731, 730, 665, 732, 731, 667, 733, 667, 668, 733, 732, 667, 734, 668, 669, 734, 669, 670, 734, 733, 668, 735, 670, 671, 735, 734, 670, 736, 735, 671, 737, 671, 672, 737, 736, 671, 738, 672, 673, 738, 737, 672, 739, 673, 674, 739, 738, 673, 740, 674, 675, 740, 675, 676, 740, 739, 674, 741, 676, 677, 741, 740, 676, 742, 741, 677, 743, 677, 678, 743, 742, 677, 744, 678, 679, 744, 679, 680, 744, 743, 678, 745, 680, 681, 745, 744, 680, 746, 745, 681, 747, 746, 681, 747, 681, 682, 747, 682, 683, 748, 747, 683, 748, 683, 684, 749, 748, 684, 750, 749, 684, 750, 684, 685, 750, 685, 686, 751, 750, 686, 752, 751, 686, 752, 686, 687, 752, 687, 688, 753, 752, 688, 754, 753, 688, 754, 688, 689, 755, 754, 689, 755, 689, 690, 756, 755, 690, 756, 690, 691, 756, 691, 692, 757, 756, 692, 758, 757, 692, 758, 692, 693, 759, 693, 694, 759, 758, 693, 760, 694, 695, 760, 759, 694, 761, 695, 696, 761, 760, 695, 762, 696, 697, 762, 761, 696, 763, 697, 698, 763, 762, 697, 764, 698, 699, 764, 763, 698, 765, 699, 700, 765, 764, 699, 702, 700, 701, 702, 765, 700, 832, 766, 767, 832, 831, 766, 833, 767, 768, 833, 832, 767, 834, 768, 769, 834, 833, 768, 835, 769, 770, 835, 834, 769, 836, 770, 771, 836, 835, 770, 772, 836, 771, 837, 836, 772, 838, 772, 773, 838, 837, 772, 839, 773, 774, 839, 838, 773, 840, 774, 775, 840, 839, 774, 841, 775, 776, 841, 840, 775, 842, 776, 777, 842, 841, 776, 843, 777, 778, 843, 842, 777, 844, 778, 779, 844, 843, 778, 780, 844, 779, 845, 844, 780, 846, 780, 781, 846, 845, 780, 782, 846, 781, 847, 846, 782, 848, 782, 783, 848, 847, 782, 849, 783, 784, 849, 848, 783, 850, 849, 784, 850, 784, 785, 851, 850, 785, 851, 785, 786, 852, 851, 786, 852, 786, 787, 853, 852, 787, 853, 787, 788, 854, 853, 788, 854, 788, 789, 855, 789, 790, 855, 854, 789, 856, 790, 791, 856, 855, 790, 857, 791, 792, 857, 856, 791, 858, 792, 793, 858, 857, 792, 859, 793, 794, 859, 858, 793, 860, 794, 795, 860, 859, 794, 861, 795, 796, 861, 860, 795, 862, 796, 797, 862, 861, 796, 863, 797, 798, 863, 862, 797, 799, 863, 798, 864, 863, 799, 865, 799, 800, 865, 864, 799, 866, 800, 801, 866, 865, 800, 802, 866, 801, 867, 866, 802, 868, 802, 803, 868, 867, 802, 869, 803, 804, 869, 868, 803, 870, 804, 805, 870, 869, 804, 871, 805, 806, 871, 870, 805, 807, 871, 806, 872, 871, 807, 873, 807, 808, 873, 872, 807, 874, 873, 808, 874, 808, 809, 875, 809, 810, 875, 874, 809, 811, 875, 810, 876, 875, 811, 877, 876, 811, 877, 811, 812, 878, 877, 812, 878, 812, 813, 879, 878, 813, 879, 813, 814, 880, 879, 814, 880, 814, 815, 881, 880, 815, 881, 815, 816, 882, 881, 816, 882, 816, 817, 883, 882, 817, 883, 817, 818, 884, 883, 818, 884, 818, 819, 885, 884, 819, 885, 819, 820, 886, 885, 820, 886, 820, 821, 887, 886, 821, 887, 821, 822, 888, 822, 823, 888, 887, 822, 889, 823, 824, 889, 888, 823, 890, 824, 825, 890, 889, 824, 891, 825, 826, 891, 890, 825, 892, 826, 827, 892, 891, 826, 828, 892, 827, 893, 892, 828, 830, 828, 829, 830, 893, 828, 1013, 949, 1012, 1013, 950, 949, 1011, 1012, 949, 1011, 949, 948, 1014, 951, 950, 1014, 950, 1013, 1010, 948, 947, 1010, 1011, 948, 1015, 952, 951, 1015, 953, 952, 1015, 951, 1014, 1009, 947, 946, 1009, 1010, 947, 1016, 953, 1015, 1008, 946, 945, 1008, 1009, 946, 1017, 954, 953, 1017, 955, 954, 1017, 953, 1016, 1007, 945, 944, 1007, 1008, 945, 1018, 955, 1017, 1006, 944, 943, 1006, 1007, 944, 1019, 956, 955, 1019, 955, 1018, 1005, 943, 942, 1005, 1006, 943, 957, 894, 956, 957, 956, 1019, 1004, 941, 940, 1004, 942, 941, 1004, 1005, 942, 958, 895, 894, 958, 896, 895, 958, 894, 957, 1003, 1004, 940, 959, 896, 958, 1002, 1003, 940, 1002, 940, 939, 960, 897, 896, 960, 898, 897, 960, 896, 959, 1001, 1002, 939, 1001, 939, 938, 961, 898, 960, 1000, 1001, 938, 1000, 938, 937, 962, 899, 898, 962, 898, 961, 999, 937, 936, 999, 1000, 937, 900, 899, 962, 963, 900, 962, 998, 999, 936, 998, 936, 935, 964, 901, 900, 964, 900, 963, 997, 935, 934, 997, 998, 935, 902, 901, 964, 902, 964, 965, 933, 996, 997, 933, 997, 934, 966, 902, 965, 995, 996, 933, 903, 902, 966, 932, 995, 933, 904, 903, 966, 904, 966, 967, 931, 994, 995, 931, 995, 932, 993, 994, 931, 905, 967, 968, 905, 904, 967, 930, 993, 931, 906, 968, 969, 906, 969, 970, 906, 905, 968, 929, 993, 930, 929, 991, 992, 929, 992, 993, 907, 970, 971, 907, 906, 970, 928, 991, 929, 908, 907, 971, 927, 991, 928, 927, 989, 990, 927, 990, 991, 909, 971, 972, 909, 908, 971, 926, 989, 927, 910, 909, 972, 910, 972, 973, 910, 973, 974, 925, 989, 926, 925, 987, 988, 925, 988, 989, 911, 910, 974, 924, 987, 925, 924, 986, 987, 912, 911, 974, 912, 974, 975, 912, 975, 976, 923, 986, 924, 913, 912, 976, 922, 986, 923, 922, 985, 986, 914, 913, 976, 914, 976, 977, 914, 977, 978, 921, 985, 922, 921, 983, 984, 921, 984, 985, 915, 914, 978, 920, 983, 921, 920, 982, 983, 916, 915, 978, 916, 978, 979, 919, 982, 920, 917, 916, 979, 917, 979, 980, 918, 982, 919, 918, 917, 980, 918, 980, 981, 918, 981, 982]
        point3f[] points = [(0.0000, 11.5000, 0.0000), (0.0000, 11.4429, 1.1450), (0.0000, 11.2720, 2.2787), (0.0000, 10.9891, 3.3897), (0.0000, 10.5970, 4.4670), (0.0000, 10.0995, 5.4999), (0.0000, 9.5017, 6.4782), (0.0000, 8.8095, 7.3921), (0.0000, 8.0297, 8.2325), (0.0000, 7.1701, 8.9911), (0.0000, 6.2393, 9.6603), (0.0000, 5.2464, 10.2335), (0.0000, 4.2014, 10.7050), (0.0000, 3.1147, 11.0702), (0.0000, 1.9970, 11.3253), (0.0000, 0.8594, 11.4678), (0.0000, -0.2867, 11.4964), (0.0000, -1.4300, 11.4108), (0.0000, -2.5590, 11.2117), (0.0000, -3.6626, 10.9012), (0.0000, -4.7298, 10.4823), (0.0000, -5.7500, 9.9593), (0.0000, -6.7131, 9.3373), (0.0000, -7.6094, 8.6225), (0.0000, -8.4301, 7.8220), (0.0000, -9.1670, 6.9438), (0.0000, -9.8128, 5.9965), (0.0000, -10.3611, 4.9897), (0.0000, -10.8065, 3.9332), (0.0000, -11.1444, 2.8377), (0.0000, -11.3716, 1.7140), (0.0000, -11.4857, 0.5732), (0.0000, -11.4857, -0.5732), (0.0000, -11.3716, -1.7140), (0.0000, -11.1444, -2.8377), (0.0000, -10.8065, -3.9332), (0.0000, -10.3611, -4.9897), (0.0000, -9.8128, -5.9965), (0.0000, -9.1670, -6.9438), (0.0000, -8.4301, -7.8220), (0.0000, -7.6094, -8.6225), (0.0000, -6.7131, -9.3373), (0.0000, -5.7500, -9.9593), (0.0000, -4.7298, -10.4823), (0.0000, -3.6626, -10.9012), (0.0000, -2.5590, -11.2117), (0.0000, -1.4300, -11.4108), (0.0000, -0.2867, -11.4964), (0.0000, 0.8594, -11.4678), (0.0000, 1.9970, -11.3253), (0.0000, 3.1147, -11.0702), (0.0000, 4.2014, -10.7050), (0.0000, 5.2464, -10.2335), (0.0000, 6.2393, -9.6603), (0.0000, 7.1701, -8.9911), (0.0000, 8.0297, -8.2325), (0.0000, 8.8095, -7.3921), (0.0000, 9.5017, -6.4782), (0.0000, 10.0995, -5.4999), (0.0000, 10.5970, -4.4670), (0.0000, 10.9891, -3.3897), (0.0000, 11.2720, -2.2787), (0.0000, 11.4429, -1.1450), (0.0000, 11.5000, 0.0000), (0.5000, 12.0000, 0.0000), (0.5000, 12.0000, 0.0000), (0.5000, 11.9404, 1.1948), (0.5000, 11.7621, 2.3778), (0.5000, 11.4669, 3.5371), (0.5000, 11.0577, 4.6612), (0.5000, 10.5387, 5.7390), (0.5000, 9.9149, 6.7598), (0.5000, 9.1925, 7.7135), (0.5000, 8.3788, 8.5904), (0.5000, 7.4819, 9.3820), (0.5000, 6.5106, 10.0803), (0.5000, 5.4745, 10.6785), (0.5000, 4.3841, 11.1705), (0.5000, 3.2501, 11.5515), (0.5000, 2.0838, 11.8177), (0.5000, 0.8968, 11.9664), (0.5000, -0.2992, 11.9963), (0.5000, -1.4921, 11.9069), (0.5000, -2.6703, 11.6991), (0.5000, -3.8218, 11.3751), (0.5000, -4.9354, 10.9381), (0.5000, -6.0000, 10.3923), (0.5000, -7.0049, 9.7433), (0.5000, -7.9402, 8.9974), (0.5000, -8.7966, 8.1621), (0.5000, -9.5656, 7.2457), (0.5000, -10.2395, 6.2572), (0.5000, -10.8116, 5.2066), (0.5000, -11.2763, 4.1042), (0.5000, -11.6289, 2.9611), (0.5000, -11.8660, 1.7885), (0.5000, -11.9851, 0.5982), (0.5000, -11.9851, -0.5982), (0.5000, -11.8660, -1.7885), (0.5000, -11.6289, -2.9611), (0.5000, -11.2763, -4.1042), (0.5000, -10.8116, -5.2066), (0.5000, -10.2395, -6.2572), (0.5000, -9.5656, -7.2457), (0.5000, -8.7966, -8.1621), (0.5000, -7.9402, -8.9974), (0.5000, -7.0049, -9.7433), (0.5000, -6.0000, -10.3923), (0.5000, -4.9354, -10.9381), (0.5000, -3.8218, -11.3751), (0.5000, -2.6703, -11.6991), (0.5000, -1.4921, -11.9069), (0.5000, -0.2992, -11.9963), (0.5000, 0.8968, -11.9664), (0.5000, 2.0838, -11.8177), (0.5000, 3.2501, -11.5515), (0.5000, 4.3841, -11.1705), (0.5000, 5.4745, -10.6785), (0.5000, 6.5106, -10.0803), (0.5000, 7.4819, -9.3820), (0.5000, 8.3788, -8.5904), (0.5000, 9.1925, -7.7135), (0.5000, 9.9149, -6.7598), (0.5000, 10.5387, -5.7390), (0.5000, 11.0577, -4.6612), (0.5000, 11.4669, -3.5371), (0.5000, 11.7621, -2.3778), (0.5000, 11.9404, -1.1948), (0.5000, 12.0000, 0.0000), (0.5000, 11.9404, 1.1948), (0.5000, 11.7621, 2.3778), (0.5000, 11.4669, 3.5371), (0.5000, 11.0577, 4.6612), (0.5000, 10.5387, 5.7390), (0.5000, 9.9149, 6.7598), (0.5000, 9.1925, 7.7135), (0.5000, 8.3788, 8.5904), (0.5000, 7.4819, 9.3820), (0.5000, 6.5106, 10.0803), (0.5000, 5.4745, 10.6785), (0.5000, 4.3841, 11.1705), (0.5000, 3.2501, 11.5515), (0.5000, 2.0838, 11.8177), (0.5000, 0.8968, 11.9664), (0.5000, -0.2992, 11.9963), (0.5000, -1.4921, 11.9069), (0.5000, -2.6703, 11.6991), (0.5000, -3.8218, 11.3751), (0.5000, -4.9354, 10.9381), (0.5000, -6.0000, 10.3923), (0.5000, -7.0049, 9.7433), (0.5000, -7.9402, 8.9974), (0.5000, -8.7966, 8.1621), (0.5000, -9.5656, 7.2457), (0.5000, -10.2395, 6.2572), (0.5000, -10.8116, 5.2066), (0.5000, -11.2763, 4.1042), (0.5000, -11.6289, 2.9611), (0.5000, -11.8660, 1.7885), (0.5000, -11.9851, 0.5982), (0.5000, -11.9851, -0.5982), (0.5000, -11.8660, -1.7885), (0.5000, -11.6289, -2.9611), (0.5000, -11.2763, -4.1042), (0.5000, -10.8116, -5.2066), (0.5000, -10.2395, -6.2572), (0.5000, -9.5656, -7.2457), (0.5000, -8.7966, -8.1621), (0.5000, -7.9402, -8.9974), (0.5000, -7.0049, -9.7433), (0.5000, -6.0000, -10.3923), (0.5000, -4.9354, -10.9381), (0.5000, -3.8218, -11.3751), (0.5000, -2.6703, -11.6991), (0.5000, -1.4921, -11.9069), (0.5000, -0.2992, -11.9963), (0.5000, 0.8968, -11.9664), (0.5000, 2.0838, -11.8177), (0.5000, 3.2501, -11.5515), (0.5000, 4.3841, -11.1705), (0.5000, 5.4745, -10.6785), (0.5000, 6.5106, -10.0803), (0.5000, 7.4819, -9.3820), (0.5000, 8.3788, -8.5904), (0.5000, 9.1925, -7.7135), (0.5000, 9.9149, -6.7598), (0.5000, 10.5387, -5.7390), (0.5000, 11.0577, -4.6612), (0.5000, 11.4669, -3.5371), (0.5000, 11.7621, -2.3778), (0.5000, 11.9404, -1.1948), (0.5000, 12.0000, 0.0000), (11.5000, 12.0000, 0.0000), (11.5000, 12.0000, 0.0000), (11.5000, 11.9404, 1.1948), (11.5000, 11.7621, 2.3778), (11.5000, 11.4669, 3.5371), (11.5000, 11.0577, 4.6612), (11.5000, 10.5387, 5.7390), (11.5000, 9.9149, 6.7598), (11.5000, 9.1925, 7.7135), (11.5000, 8.3788, 8.5904), (11.5000, 7.4819, 9.3820), (11.5000, 6.5106, 10.0803), (11.5000, 5.4745, 10.6785), (11.5000, 4.3841, 11.1705), (11.5000, 3.2501, 11.5515), (11.5000, 2.0838, 11.8177), (11.5000, 0.8968, 11.9664), (11.5000, -0.2992, 11.9963), (11.5000, -1.4921, 11.9069), (11.5000, -2.6703, 11.6991), (11.5000, -3.8218, 11.3751), (11.5000, -4.9354, 10.9381), (11.5000, -6.0000, 10.3923), (11.5000, -7.0049, 9.7433), (11.5000, -7.9402, 8.9974), (11.5000, -8.7966, 8.1621), (11.5000, -9.5656, 7.2457), (11.5000, -10.2395, 6.2572), (11.5000, -10.8116, 5.2066), (11.5000, -11.2763, 4.1042), (11.5000, -11.6289, 2.9611), (11.5000, -11.8660, 1.7885), (11.5000, -11.9851, 0.5982), (11.5000, -11.9851, -0.5982), (11.5000, -11.8660, -1.7885), (11.5000, -11.6289, -2.9611), (11.5000, -11.2763, -4.1042), (11.5000, -10.8116, -5.2066), (11.5000, -10.2395, -6.2572), (11.5000, -9.5656, -7.2457), (11.5000, -8.7966, -8.1621), (11.5000, -7.9402, -8.9974), (11.5000, -7.0049, -9.7433), (11.5000, -6.0000, -10.3923), (11.5000, -4.9354, -10.9381), (11.5000, -3.8218, -11.3751), (11.5000, -2.6703, -11.6991), (11.5000, -1.4921, -11.9069), (11.5000, -0.2992, -11.9963), (11.5000, 0.8968, -11.9664), (11.5000, 2.0838, -11.8177), (11.5000, 3.2501, -11.5515), (11.5000, 4.3841, -11.1705), (11.5000, 5.4745, -10.6785), (11.5000, 6.5106, -10.0803), (11.5000, 7.4819, -9.3820), (11.5000, 8.3788, -8.5904), (11.5000, 9.1925, -7.7135), (11.5000, 9.9149, -6.7598), (11.5000, 10.5387, -5.7390), (11.5000, 11.0577, -4.6612), (11.5000, 11.4669, -3.5371), (11.5000, 11.7621, -2.3778), (11.5000, 11.9404, -1.1948), (11.5000, 12.0000, 0.0000), (11.5000, 11.9404, 1.1948), (11.5000, 11.7621, 2.3778), (11.5000, 11.4669, 3.5371), (11.5000, 11.0577, 4.6612), (11.5000, 10.5387, 5.7390), (11.5000, 9.9149, 6.7598), (11.5000, 9.1925, 7.7135), (11.5000, 8.3788, 8.5904), (11.5000, 7.4819, 9.3820), (11.5000, 6.5106, 10.0803), (11.5000, 5.4745, 10.6785), (11.5000, 4.3841, 11.1705), (11.5000, 3.2501, 11.5515), (11.5000, 2.0838, 11.8177), (11.5000, 0.8968, 11.9664), (11.5000, -0.2992, 11.9963), (11.5000, -1.4921, 11.9069), (11.5000, -2.6703, 11.6991), (11.5000, -3.8218, 11.3751), (11.5000, -4.9354, 10.9381), (11.5000, -6.0000, 10.3923), (11.5000, -7.0049, 9.7433), (11.5000, -7.9402, 8.9974), (11.5000, -8.7966, 8.1621), (11.5000, -9.5656, 7.2457), (11.5000, -10.2395, 6.2572), (11.5000, -10.8116, 5.2066), (11.5000, -11.2763, 4.1042), (11.5000, -11.6289, 2.9611), (11.5000, -11.8660, 1.7885), (11.5000, -11.9851, 0.5982), (11.5000, -11.9851, -0.5982), (11.5000, -11.8660, -1.7885), (11.5000, -11.6289, -2.9611), (11.5000, -11.2763, -4.1042), (11.5000, -10.8116, -5.2066), (11.5000, -10.2395, -6.2572), (11.5000, -9.5656, -7.2457), (11.5000, -8.7966, -8.1621), (11.5000, -7.9402, -8.9974), (11.5000, -7.0049, -9.7433), (11.5000, -6.0000, -10.3923), (11.5000, -4.9354, -10.9381), (11.5000, -3.8218, -11.3751), (11.5000, -2.6703, -11.6991), (11.5000, -1.4921, -11.9069), (11.5000, -0.2992, -11.9963), (11.5000, 0.8968, -11.9664), (11.5000, 2.0838, -11.8177), (11.5000, 3.2501, -11.5515), (11.5000, 4.3841, -11.1705), (11.5000, 5.4745, -10.6785), (11.5000, 6.5106, -10.0803), (11.5000, 7.4819, -9.3820), (11.5000, 8.3788, -8.5904), (11.5000, 9.1925, -7.7135), (11.5000, 9.9149, -6.7598), (11.5000, 10.5387, -5.7390), (11.5000, 11.0577, -4.6612), (11.5000, 11.4669, -3.5371), (11.5000, 11.7621, -2.3778), (11.5000, 11.9404, -1.1948), (11.5000, 12.0000, 0.0000), (12.0000, 11.5000, 0.0000), (12.0000, 11.5000, 0.0000), (12.0000, 11.4429, 1.1450), (12.0000, 11.2720, 2.2787), (12.0000, 10.9891, 3.3897), (12.0000, 10.5970, 4.4670), (12.0000, 10.0995, 5.4999), (12.0000, 9.5017, 6.4782), (12.0000, 8.8095, 7.3921), (12.0000, 8.0297, 8.2325), (12.0000, 7.1701, 8.9911), (12.0000, 6.2393, 9.6603), (12.0000, 5.2464, 10.2335), (12.0000, 4.2014, 10.7050), (12.0000, 3.1147, 11.0702), (12.0000, 1.9970, 11.3253), (12.0000, 0.8594, 11.4678), (12.0000, -0.2867, 11.4964), (12.0000, -1.4300, 11.4108), (12.0000, -2.5590, 11.2117), (12.0000, -3.6626, 10.9012), (12.0000, -4.7298, 10.4823), (12.0000, -5.7500, 9.9593), (12.0000, -6.7131, 9.3373), (12.0000, -7.6094, 8.6225), (12.0000, -8.4301, 7.8220), (12.0000, -9.1670, 6.9438), (12.0000, -9.8128, 5.9965), (12.0000, -10.3611, 4.9897), (12.0000, -10.8065, 3.9332), (12.0000, -11.1444, 2.8377), (12.0000, -11.3716, 1.7140), (12.0000, -11.4857, 0.5732), (12.0000, -11.4857, -0.5732), (12.0000, -11.3716, -1.7140), (12.0000, -11.1444, -2.8377), (12.0000, -10.8065, -3.9332), (12.0000, -10.3611, -4.9897), (12.0000, -9.8128, -5.9965), (12.0000, -9.1670, -6.9438), (12.0000, -8.4301, -7.8220), (12.0000, -7.6094, -8.6225), (12.0000, -6.7131, -9.3373), (12.0000, -5.7500, -9.9593), (12.0000, -4.7298, -10.4823), (12.0000, -3.6626, -10.9012), (12.0000, -2.5590, -11.2117), (12.0000, -1.4300, -11.4108), (12.0000, -0.2867, -11.4964), (12.0000, 0.8594, -11.4678), (12.0000, 1.9970, -11.3253), (12.0000, 3.1147, -11.0702), (12.0000, 4.2014, -10.7050), (12.0000, 5.2464, -10.2335), (12.0000, 6.2393, -9.6603), (12.0000, 7.1701, -8.9911), (12.0000, 8.0297, -8.2325), (12.0000, 8.8095, -7.3921), (12.0000, 9.5017, -6.4782), (12.0000, 10.0995, -5.4999), (12.0000, 10.5970, -4.4670), (12.0000, 10.9891, -3.3897), (12.0000, 11.2720, -2.2787), (12.0000, 11.4429, -1.1450), (12.0000, 11.5000, 0.0000), (12.0000, 11.4429, 1.1450), (12.0000, 11.2720, 2.2787), (12.0000, 10.9891, 3.3897), (12.0000, 10.5970, 4.4670), (12.0000, 10.0995, 5.4999), (12.0000, 9.5017, 6.4782), (12.0000, 8.8095, 7.3921), (12.0000, 8.0297, 8.2325), (12.0000, 7.1701, 8.9911), (12.0000, 6.2393, 9.6603), (12.0000, 5.2464, 10.2335), (12.0000, 4.2014, 10.7050), (12.0000, 3.1147, 11.0702), (12.0000, 1.9970, 11.3253), (12.0000, 0.8594, 11.4678), (12.0000, -0.2867, 11.4964), (12.0000, -1.4300, 11.4108), (12.0000, -2.5590, 11.2117), (12.0000, -3.6626, 10.9012), (12.0000, -4.7298, 10.4823), (12.0000, -5.7500, 9.9593), (12.0000, -6.7131, 9.3373), (12.0000, -7.6094, 8.6225), (12.0000, -8.4301, 7.8220), (12.0000, -9.1670, 6.9438), (12.0000, -9.8128, 5.9965), (12.0000, -10.3611, 4.9897), (12.0000, -10.8065, 3.9332), (12.0000, -11.1444, 2.8377), (12.0000, -11.3716, 1.7140), (12.0000, -11.4857, 0.5732), (12.0000, -11.4857, -0.5732), (12.0000, -11.3716, -1.7140), (12.0000, -11.1444, -2.8377), (12.0000, -10.8065, -3.9332), (12.0000, -10.3611, -4.9897), (12.0000, -9.8128, -5.9965), (12.0000, -9.1670, -6.9438), (12.0000, -8.4301, -7.8220), (12.0000, -7.6094, -8.6225), (12.0000, -6.7131, -9.3373), (12.0000, -5.7500, -9.9593), (12.0000, -4.7298, -10.4823), (12.0000, -3.6626, -10.9012), (12.0000, -2.5590, -11.2117), (12.0000, -1.4300, -11.4108), (12.0000, -0.2867, -11.4964), (12.0000, 0.8594, -11.4678), (12.0000, 1.9970, -11.3253), (12.0000, 3.1147, -11.0702), (12.0000, 4.2014, -10.7050), (12.0000, 5.2464, -10.2335), (12.0000, 6.2393, -9.6603), (12.0000, 7.1701, -8.9911), (12.0000, 8.0297, -8.2325), (12.0000, 8.8095, -7.3921), (12.0000, 9.5017, -6.4782), (12.0000, 10.0995, -5.4999), (12.0000, 10.5970, -4.4670), (12.0000, 10.9891, -3.3897), (12.0000, 11.2720, -2.2787), (12.0000, 11.4429, -1.1450), (12.0000, 8.5000, 0.0000), (12.0000, 8.4578, 0.8463), (12.0000, 8.3315, 1.6842), (12.0000, 8.1224, 2.5054), (12.0000, 7.8325, 3.3017), (12.0000, 7.4649, 4.0652), (12.0000, 7.0230, 4.7882), (12.0000, 6.5114, 5.4637), (12.0000, 5.9350, 6.0849), (12.0000, 5.2997, 6.6456), (12.0000, 4.6116, 7.1402), (12.0000, 3.8778, 7.5639), (12.0000, 3.1054, 7.9124), (12.0000, 2.3021, 8.1823), (12.0000, 1.4760, 8.3709), (12.0000, 0.6352, 8.4762), (12.0000, -0.2119, 8.4974), (12.0000, -1.0569, 8.4340), (12.0000, -1.8914, 8.2869), (12.0000, -2.7071, 8.0574), (12.0000, -3.4959, 7.7478), (12.0000, -4.2500, 7.3612), (12.0000, -4.9618, 6.9015), (12.0000, -5.6243, 6.3731), (12.0000, -6.2309, 5.7815), (12.0000, -6.7756, 5.1323), (12.0000, -7.2530, 4.4322), (12.0000, -7.6582, 3.6880), (12.0000, -7.9874, 2.9072), (12.0000, -8.2372, 2.0974), (12.0000, -8.4051, 1.2669), (12.0000, -8.4894, 0.4237), (12.0000, -8.4894, -0.4237), (12.0000, -8.4051, -1.2669), (12.0000, -8.2372, -2.0974), (12.0000, -7.9874, -2.9072), (12.0000, -7.6582, -3.6880), (12.0000, -7.2530, -4.4322), (12.0000, -6.7756, -5.1323), (12.0000, -6.2309, -5.7815), (12.0000, -5.6243, -6.3731), (12.0000, -4.9618, -6.9015), (12.0000, -4.2500, -7.3612), (12.0000, -3.4959, -7.7478), (12.0000, -2.7071, -8.0574), (12.0000, -1.8914, -8.2869), (12.0000, -1.0569, -8.4340), (12.0000, -0.2119, -8.4974), (12.0000, 0.6352, -8.4762), (12.0000, 1.4760, -8.3709), (12.0000, 2.3021, -8.1823), (12.0000, 3.1054, -7.9124), (12.0000, 3.8778, -7.5639), (12.0000, 4.6116, -7.1402), (12.0000, 5.2997, -6.6456), (12.0000, 5.9350, -6.0849), (12.0000, 6.5114, -5.4637), (12.0000, 7.0230, -4.7882), (12.0000, 7.4649, -4.0652), (12.0000, 7.8325, -3.3017), (12.0000, 8.1224, -2.5054), (12.0000, 8.3315, -1.6842), (12.0000, 8.4578, -0.8463), (12.0000, 8.5000, 0.0000), (12.0000, 8.4578, 0.8463), (12.0000, 8.3315, 1.6842), (12.0000, 8.1224, 2.5054), (12.0000, 7.8325, 3.3017), (12.0000, 7.4649, 4.0652), (12.0000, 7.0230, 4.7882), (12.0000, 6.5114, 5.4637), (12.0000, 5.9350, 6.0849), (12.0000, 5.2997, 6.6456), (12.0000, 4.6116, 7.1402), (12.0000, 3.8778, 7.5639), (12.0000, 3.1054, 7.9124), (12.0000, 2.3021, 8.1823), (12.0000, 1.4760, 8.3709), (12.0000, 0.6352, 8.4762), (12.0000, -0.2119, 8.4974), (12.0000, -1.0569, 8.4340), (12.0000, -1.8914, 8.2869), (12.0000, -2.7071, 8.0574), (12.0000, -3.4959, 7.7478), (12.0000, -4.2500, 7.3612), (12.0000, -4.9618, 6.9015), (12.0000, -5.6243, 6.3731), (12.0000, -6.2309, 5.7815), (12.0000, -6.7756, 5.1323), (12.0000, -7.2530, 4.4322), (12.0000, -7.6582, 3.6880), (12.0000, -7.9874, 2.9072), (12.0000, -8.2372, 2.0974), (12.0000, -8.4051, 1.2669), (12.0000, -8.4894, 0.4237), (12.0000, -8.4894, -0.4237), (12.0000, -8.4051, -1.2669), (12.0000, -8.2372, -2.0974), (12.0000, -7.9874, -2.9072), (12.0000, -7.6582, -3.6880), (12.0000, -7.2530, -4.4322), (12.0000, -6.7756, -5.1323), (12.0000, -6.2309, -5.7815), (12.0000, -5.6243, -6.3731), (12.0000, -4.9618, -6.9015), (12.0000, -4.2500, -7.3612), (12.0000, -3.4959, -7.7478), (12.0000, -2.7071, -8.0574), (12.0000, -1.8914, -8.2869), (12.0000, -1.0569, -8.4340), (12.0000, -0.2119, -8.4974), (12.0000, 0.6352, -8.4762), (12.0000, 1.4760, -8.3709), (12.0000, 2.3021, -8.1823), (12.0000, 3.1054, -7.9124), (12.0000, 3.8778, -7.5639), (12.0000, 4.6116, -7.1402), (12.0000, 5.2997, -6.6456), (12.0000, 5.9350, -6.0849), (12.0000, 6.5114, -5.4637), (12.0000, 7.0230, -4.7882), (12.0000, 7.4649, -4.0652), (12.0000, 7.8325, -3.3017), (12.0000, 8.1224, -2.5054), (12.0000, 8.3315, -1.6842), (12.0000, 8.4578, -0.8463), (12.0000, 8.5000, 0.0000), (11.5000, 8.0000, 0.0000), (11.5000, 8.0000, 0.0000), (11.5000, 7.9602, 0.7965), (11.5000, 7.8414, 1.5852), (11.5000, 7.6446, 2.3580), (11.5000, 7.3718, 3.1075), (11.5000, 7.0258, 3.8260), (11.5000, 6.6099, 4.5066), (11.5000, 6.1284, 5.1423), (11.5000, 5.5859, 5.7269), (11.5000, 4.9879, 6.2547), (11.5000, 4.3404, 6.7202), (11.5000, 3.6497, 7.1190), (11.5000, 2.9227, 7.4470), (11.5000, 2.1667, 7.7010), (11.5000, 1.3892, 7.8785), (11.5000, 0.5978, 7.9776), (11.5000, -0.1994, 7.9975), (11.5000, -0.9947, 7.9379), (11.5000, -1.7802, 7.7994), (11.5000, -2.5479, 7.5834), (11.5000, -3.2903, 7.2920), (11.5000, -4.0000, 6.9282), (11.5000, -4.6699, 6.4955), (11.5000, -5.2935, 5.9982), (11.5000, -5.8644, 5.4414), (11.5000, -6.3771, 4.8304), (11.5000, -6.8263, 4.1715), (11.5000, -7.2078, 3.4711), (11.5000, -7.5175, 2.7362), (11.5000, -7.7526, 1.9741), (11.5000, -7.9106, 1.1923), (11.5000, -7.9901, 0.3988), (11.5000, -7.9901, -0.3988), (11.5000, -7.9106, -1.1923), (11.5000, -7.7526, -1.9741), (11.5000, -7.5175, -2.7362), (11.5000, -7.2078, -3.4711), (11.5000, -6.8263, -4.1715), (11.5000, -6.3771, -4.8304), (11.5000, -5.8644, -5.4414), (11.5000, -5.2935, -5.9982), (11.5000, -4.6699, -6.4955), (11.5000, -4.0000, -6.9282), (11.5000, -3.2903, -7.2920), (11.5000, -2.5479, -7.5834), (11.5000, -1.7802, -7.7994), (11.5000, -0.9947, -7.9379), (11.5000, -0.1994, -7.9975), (11.5000, 0.5978, -7.9776), (11.5000, 1.3892, -7.8785), (11.5000, 2.1667, -7.7010), (11.5000, 2.9227, -7.4470), (11.5000, 3.6497, -7.1190), (11.5000, 4.3404, -6.7202), (11.5000, 4.9879, -6.2547), (11.5000, 5.5859, -5.7269), (11.5000, 6.1284, -5.1423), (11.5000, 6.6099, -4.5066), (11.5000, 7.0258, -3.8260), (11.5000, 7.3718, -3.1075), (11.5000, 7.6446, -2.3580), (11.5000, 7.8414, -1.5852), (11.5000, 7.9602, -0.7965), (11.5000, 8.0000, 0.0000), (11.5000, 7.9602, 0.7965), (11.5000, 7.8414, 1.5852), (11.5000, 7.6446, 2.3580), (11.5000, 7.3718, 3.1075), (11.5000, 7.0258, 3.8260), (11.5000, 6.6099, 4.5066), (11.5000, 6.1284, 5.1423), (11.5000, 5.5859, 5.7269), (11.5000, 4.9879, 6.2547), (11.5000, 4.3404, 6.7202), (11.5000, 3.6497, 7.1190), (11.5000, 2.9227, 7.4470), (11.5000, 2.1667, 7.7010), (11.5000, 1.3892, 7.8785), (11.5000, 0.5978, 7.9776), (11.5000, -0.1994, 7.9975), (11.5000, -0.9947, 7.9379), (11.5000, -1.7802, 7.7994), (11.5000, -2.5479, 7.5834), (11.5000, -3.2903, 7.2920), (11.5000, -4.0000, 6.9282), (11.5000, -4.6699, 6.4955), (11.5000, -5.2935, 5.9982), (11.5000, -5.8644, 5.4414), (11.5000, -6.3771, 4.8304), (11.5000, -6.8263, 4.1715), (11.5000, -7.2078, 3.4711), (11.5000, -7.5175, 2.7362), (11.5000, -7.7526, 1.9741), (11.5000, -7.9106, 1.1923), (11.5000, -7.9901, 0.3988), (11.5000, -7.9901, -0.3988), (11.5000, -7.9106, -1.1923), (11.5000, -7.7526, -1.9741), (11.5000, -7.5175, -2.7362), (11.5000, -7.2078, -3.4711), (11.5000, -6.8263, -4.1715), (11.5000, -6.3771, -4.8304), (11.5000, -5.8644, -5.4414), (11.5000, -5.2935, -5.9982), (11.5000, -4.6699, -6.4955), (11.5000, -4.0000, -6.9282), (11.5000, -3.2903, -7.2920), (11.5000, -2.5479, -7.5834), (11.5000, -1.7802, -7.7994), (11.5000, -0.9947, -7.9379), (11.5000, -0.1994, -7.9975), (11.5000, 0.5978, -7.9776), (11.5000, 1.3892, -7.8785), (11.5000, 2.1667, -7.7010), (11.5000, 2.9227, -7.4470), (11.5000, 3.6497, -7.1190), (11.5000, 4.3404, -6.7202), (11.5000, 4.9879, -6.2547), (11.5000, 5.5859, -5.7269), (11.5000, 6.1284, -5.1423), (11.5000, 6.6099, -4.5066), (11.5000, 7.0258, -3.8260), (11.5000, 7.3718, -3.1075), (11.5000, 7.6446, -2.3580), (11.5000, 7.8414, -1.5852), (11.5000, 7.9602, -0.7965), (11.5000, 8.0000, 0.0000), (0.5000, 8.0000, 0.0000), (0.5000, 8.0000, 0.0000), (0.5000, 7.9602, 0.7965), (0.5000, 7.8414, 1.5852), (0.5000, 7.6446, 2.3580), (0.5000, 7.3718, 3.1075), (0.5000, 7.0258, 3.8260), (0.5000, 6.6099, 4.5066), (0.5000, 6.1284, 5.1423), (0.5000, 5.5859, 5.7269), (0.5000, 4.9879, 6.2547), (0.5000, 4.3404, 6.7202), (0.5000, 3.6497, 7.1190), (0.5000, 2.9227, 7.4470), (0.5000, 2.1667, 7.7010), (0.5000, 1.3892, 7.8785), (0.5000, 0.5978, 7.9776), (0.5000, -0.1994, 7.9975), (0.5000, -0.9947, 7.9379), (0.5000, -1.7802, 7.7994), (0.5000, -2.5479, 7.5834), (0.5000, -3.2903, 7.2920), (0.5000, -4.0000, 6.9282), (0.5000, -4.6699, 6.4955), (0.5000, -5.2935, 5.9982), (0.5000, -5.8644, 5.4414), (0.5000, -6.3771, 4.8304), (0.5000, -6.8263, 4.1715), (0.5000, -7.2078, 3.4711), (0.5000, -7.5175, 2.7362), (0.5000, -7.7526, 1.9741), (0.5000, -7.9106, 1.1923), (0.5000, -7.9901, 0.3988), (0.5000, -7.9901, -0.3988), (0.5000, -7.9106, -1.1923), (0.5000, -7.7526, -1.9741), (0.5000, -7.5175, -2.7362), (0.5000, -7.2078, -3.4711), (0.5000, -6.8263, -4.1715), (0.5000, -6.3771, -4.8304), (0.5000, -5.8644, -5.4414), (0.5000, -5.2935, -5.9982), (0.5000, -4.6699, -6.4955), (0.5000, -4.0000, -6.9282), (0.5000, -3.2903, -7.2920), (0.5000, -2.5479, -7.5834), (0.5000, -1.7802, -7.7994), (0.5000, -0.9947, -7.9379), (0.5000, -0.1994, -7.9975), (0.5000, 0.5978, -7.9776), (0.5000, 1.3892, -7.8785), (0.5000, 2.1667, -7.7010), (0.5000, 2.9227, -7.4470), (0.5000, 3.6497, -7.1190), (0.5000, 4.3404, -6.7202), (0.5000, 4.9879, -6.2547), (0.5000, 5.5859, -5.7269), (0.5000, 6.1284, -5.1423), (0.5000, 6.6099, -4.5066), (0.5000, 7.0258, -3.8260), (0.5000, 7.3718, -3.1075), (0.5000, 7.6446, -2.3580), (0.5000, 7.8414, -1.5852), (0.5000, 7.9602, -0.7965), (0.5000, 8.0000, 0.0000), (0.5000, 7.9602, 0.7965), (0.5000, 7.8414, 1.5852), (0.5000, 7.6446, 2.3580), (0.5000, 7.3718, 3.1075), (0.5000, 7.0258, 3.8260), (0.5000, 6.6099, 4.5066), (0.5000, 6.1284, 5.1423), (0.5000, 5.5859, 5.7269), (0.5000, 4.9879, 6.2547), (0.5000, 4.3404, 6.7202), (0.5000, 3.6497, 7.1190), (0.5000, 2.9227, 7.4470), (0.5000, 2.1667, 7.7010), (0.5000, 1.3892, 7.8785), (0.5000, 0.5978, 7.9776), (0.5000, -0.1994, 7.9975), (0.5000, -0.9947, 7.9379), (0.5000, -1.7802, 7.7994), (0.5000, -2.5479, 7.5834), (0.5000, -3.2903, 7.2920), (0.5000, -4.0000, 6.9282), (0.5000, -4.6699, 6.4955), (0.5000, -5.2935, 5.9982), (0.5000, -5.8644, 5.4414), (0.5000, -6.3771, 4.8304), (0.5000, -6.8263, 4.1715), (0.5000, -7.2078, 3.4711), (0.5000, -7.5175, 2.7362), (0.5000, -7.7526, 1.9741), (0.5000, -7.9106, 1.1923), (0.5000, -7.9901, 0.3988), (0.5000, -7.9901, -0.3988), (0.5000, -7.9106, -1.1923), (0.5000, -7.7526, -1.9741), (0.5000, -7.5175, -2.7362), (0.5000, -7.2078, -3.4711), (0.5000, -6.8263, -4.1715), (0.5000, -6.3771, -4.8304), (0.5000, -5.8644, -5.4414), (0.5000, -5.2935, -5.9982), (0.5000, -4.6699, -6.4955), (0.5000, -4.0000, -6.9282), (0.5000, -3.2903, -7.2920), (0.5000, -2.5479, -7.5834), (0.5000, -1.7802, -7.7994), (0.5000, -0.9947, -7.9379), (0.5000, -0.1994, -7.9975), (0.5000, 0.5978, -7.9776), (0.5000, 1.3892, -7.8785), (0.5000, 2.1667, -7.7010), (0.5000, 2.9227, -7.4470), (0.5000, 3.6497, -7.1190), (0.5000, 4.3404, -6.7202), (0.5000, 4.9879, -6.2547), (0.5000, 5.5859, -5.7269), (0.5000, 6.1284, -5.1423), (0.5000, 6.6099, -4.5066), (0.5000, 7.0258, -3.8260), (0.5000, 7.3718, -3.1075), (0.5000, 7.6446, -2.3580), (0.5000, 7.8414, -1.5852), (0.5000, 7.9602, -0.7965), (0.5000, 8.0000, 0.0000), (0.0000, 8.5000, 0.0000), (0.0000, 8.5000, 0.0000), (0.0000, 8.4578, 0.8463), (0.0000, 8.3315, 1.6842), (0.0000, 8.1224, 2.5054), (0.0000, 7.8325, 3.3017), (0.0000, 7.4649, 4.0652), (0.0000, 7.0230, 4.7882), (0.0000, 6.5114, 5.4637), (0.0000, 5.9350, 6.0849), (0.0000, 5.2997, 6.6456), (0.0000, 4.6116, 7.1402), (0.0000, 3.8778, 7.5639), (0.0000, 3.1054, 7.9124), (0.0000, 2.3021, 8.1823), (0.0000, 1.4760, 8.3709), (0.0000, 0.6352, 8.4762), (0.0000, -0.2119, 8.4974), (0.0000, -1.0569, 8.4340), (0.0000, -1.8914, 8.2869), (0.0000, -2.7071, 8.0574), (0.0000, -3.4959, 7.7478), (0.0000, -4.2500, 7.3612), (0.0000, -4.9618, 6.9015), (0.0000, -5.6243, 6.3731), (0.0000, -6.2309, 5.7815), (0.0000, -6.7756, 5.1323), (0.0000, -7.2530, 4.4322), (0.0000, -7.6582, 3.6880), (0.0000, -7.9874, 2.9072), (0.0000, -8.2372, 2.0974), (0.0000, -8.4051, 1.2669), (0.0000, -8.4894, 0.4237), (0.0000, -8.4894, -0.4237), (0.0000, -8.4051, -1.2669), (0.0000, -8.2372, -2.0974), (0.0000, -7.9874, -2.9072), (0.0000, -7.6582, -3.6880), (0.0000, -7.2530, -4.4322), (0.0000, -6.7756, -5.1323), (0.0000, -6.2309, -5.7815), (0.0000, -5.6243, -6.3731), (0.0000, -4.9618, -6.9015), (0.0000, -4.2500, -7.3612), (0.0000, -3.4959, -7.7478), (0.0000, -2.7071, -8.0574), (0.0000, -1.8914, -8.2869), (0.0000, -1.0569, -8.4340), (0.0000, -0.2119, -8.4974), (0.0000, 0.6352, -8.4762), (0.0000, 1.4760, -8.3709), (0.0000, 2.3021, -8.1823), (0.0000, 3.1054, -7.9124), (0.0000, 3.8778, -7.5639), (0.0000, 4.6116, -7.1402), (0.0000, 5.2997, -6.6456), (0.0000, 5.9350, -6.0849), (0.0000, 6.5114, -5.4637), (0.0000, 7.0230, -4.7882), (0.0000, 7.4649, -4.0652), (0.0000, 7.8325, -3.3017), (0.0000, 8.1224, -2.5054), (0.0000, 8.3315, -1.6842), (0.0000, 8.4578, -0.8463), (0.0000, 11.5000, 0.0000), (0.0000, 11.4429, 1.1450), (0.0000, 11.2720, 2.2787), (0.0000, 10.9891, 3.3897), (0.0000, 10.5970, 4.4670), (0.0000, 10.0995, 5.4999), (0.0000, 9.5017, 6.4782), (0.0000, 8.8095, 7.3921), (0.0000, 8.0297, 8.2325), (0.0000, 7.1701, 8.9911), (0.0000, 6.2393, 9.6603), (0.0000, 5.2464, 10.2335), (0.0000, 4.2014, 10.7050), (0.0000, 3.1147, 11.0702), (0.0000, 1.9970, 11.3253), (0.0000, 0.8594, 11.4678), (0.0000, -0.2867, 11.4964), (0.0000, -1.4300, 11.4108), (0.0000, -2.5590, 11.2117), (0.0000, -3.6626, 10.9012), (0.0000, -4.7298, 10.4823), (0.0000, -5.7500, 9.9593), (0.0000, -6.7131, 9.3373), (0.0000, -7.6094, 8.6225), (0.0000, -8.4301, 7.8220), (0.0000, -9.1670, 6.9438), (0.0000, -9.8128, 5.9965), (0.0000, -10.3611, 4.9897), (0.0000, -10.8065, 3.9332), (0.0000, -11.1444, 2.8377), (0.0000, -11.3716, 1.7140), (0.0000, -11.4857, 0.5732), (0.0000, -11.4857, -0.5732), (0.0000, -11.3716, -1.7140), (0.0000, -11.1444, -2.8377), (0.0000, -10.8065, -3.9332), (0.0000, -10.3611, -4.9897), (0.0000, -9.8128, -5.9965), (0.0000, -9.1670, -6.9438), (0.0000, -8.4301, -7.8220), (0.0000, -7.6094, -8.6225), (0.0000, -6.7131, -9.3373), (0.0000, -5.7500, -9.9593), (0.0000, -4.7298, -10.4823), (0.0000, -3.6626, -10.9012), (0.0000, -2.5590, -11.2117), (0.0000, -1.4300, -11.4108), (0.0000, -0.2867, -11.4964), (0.0000, 0.8594, -11.4678), (0.0000, 1.9970, -11.3253), (0.0000, 3.1147, -11.0702), (0.0000, 4.2014, -10.7050), (0.0000, 5.2464, -10.2335), (0.0000, 6.2393, -9.6603), (0.0000, 7.1701, -8.9911), (0.0000, 8.0297, -8.2325), (0.0000, 8.8095, -7.3921), (0.0000, 9.5017, -6.4782), (0.0000, 10.0995, -5.4999), (0.0000, 10.5970, -4.4670), (0.0000, 10.9891, -3.3897), (0.0000, 11.2720, -2.2787), (0.0000, 11.4429, -1.1450), (0.0000, 8.5000, 0.0000), (0.0000, 8.4578, 0.8463), (0.0000, 8.3315, 1.6842), (0.0000, 8.1224, 2.5054), (0.0000, 7.8325, 3.3017), (0.0000, 7.4649, 4.0652), (0.0000, 7.0230, 4.7882), (0.0000, 6.5114, 5.4637), (0.0000, 5.9350, 6.0849), (0.0000, 5.2997, 6.6456), (0.0000, 4.6116, 7.1402), (0.0000, 3.8778, 7.5639), (0.0000, 3.1054, 7.9124), (0.0000, 2.3021, 8.1823), (0.0000, 1.4760, 8.3709), (0.0000, 0.6352, 8.4762), (0.0000, -0.2119, 8.4974), (0.0000, -1.0569, 8.4340), (0.0000, -1.8914, 8.2869), (0.0000, -2.7071, 8.0574), (0.0000, -3.4959, 7.7478), (0.0000, -4.2500, 7.3612), (0.0000, -4.9618, 6.9015), (0.0000, -5.6243, 6.3731), (0.0000, -6.2309, 5.7815), (0.0000, -6.7756, 5.1323), (0.0000, -7.2530, 4.4322), (0.0000, -7.6582, 3.6880), (0.0000, -7.9874, 2.9072), (0.0000, -8.2372, 2.0974), (0.0000, -8.4051, 1.2669), (0.0000, -8.4894, 0.4237), (0.0000, -8.4894, -0.4237), (0.0000, -8.4051, -1.2669), (0.0000, -8.2372, -2.0974), (0.0000, -7.9874, -2.9072), (0.0000, -7.6582, -3.6880), (0.0000, -7.2530, -4.4322), (0.0000, -6.7756, -5.1323), (0.0000, -6.2309, -5.7815), (0.0000, -5.6243, -6.3731), (0.0000, -4.9618, -6.9015), (0.0000, -4.2500, -7.3612), (0.0000, -3.4959, -7.7478), (0.0000, -2.7071, -8.0574), (0.0000, -1.8914, -8.2869), (0.0000, -1.0569, -8.4340), (0.0000, -0.2119, -8.4974), (0.0000, 0.6352, -8.4762), (0.0000, 1.4760, -8.3709), (0.0000, 2.3021, -8.1823), (0.0000, 3.1054, -7.9124), (0.0000, 3.8778, -7.5639), (0.0000, 4.6116, -7.1402), (0.0000, 5.2997, -6.6456), (0.0000, 5.9350, -6.0849), (0.0000, 6.5114, -5.4637), (0.0000, 7.0230, -4.7882), (0.0000, 7.4649, -4.0652), (0.0000, 7.8325, -3.3017), (0.0000, 8.1224, -2.5054), (0.0000, 8.3315, -1.6842), (0.0000, 8.4578, -0.8463)]
        uniform token subdivisionScheme = "none"
        color3f[] primvars:displayColor = [(0.72, 0.74, 0.77)]
    }
}
