0
SECTION
2
HEADER
9
$ACADVER
1
AC1009
9
$INSUNITS
70
4
0
ENDSEC
0
SECTION
2
TABLES
0
TABLE
2
LTYPE
70
3
0
LTYPE
2
CONTINUOUS
70
0
3
Solid line
72
65
73
0
40
0
0
LTYPE
2
DASHED
70
0
3
Dashed __ __ __
72
65
73
2
40
4.5
49
3
49
-1.5
0
LTYPE
2
CENTER
70
0
3
Center ____ _ ____
72
65
73
4
40
11.5
49
8
49
-1.5
49
0.5
49
-1.5
0
ENDTAB
0
TABLE
2
LAYER
70
9
0
LAYER
2
OUTLINE
70
0
62
7
6
CONTINUOUS
0
LAYER
2
HIDDEN
70
0
62
8
6
DASHED
0
LAYER
2
CENTER
70
0
62
1
6
CENTER
0
LAYER
2
THIN
70
0
62
7
6
CONTINUOUS
0
LAYER
2
DIM
70
0
62
3
6
CONTINUOUS
0
LAYER
2
HATCH
70
0
62
8
6
CONTINUOUS
0
LAYER
2
FRAME
70
0
62
7
6
CONTINUOUS
0
LAYER
2
TEXT
70
0
62
7
6
CONTINUOUS
0
LAYER
2
CUT
70
0
62
5
6
DASHED
0
ENDTAB
0
ENDSEC
0
SECTION
2
ENTITIES
0
LINE
8
OUTLINE
10
121.355
20
146.9
30
0
11
122.355
21
147.9
31
0
0
LINE
8
OUTLINE
10
122.355
20
147.9
30
0
11
170.355
21
147.9
31
0
0
LINE
8
OUTLINE
10
170.355
20
147.9
30
0
11
171.355
21
146.9
31
0
0
LINE
8
OUTLINE
10
121.355
20
88.9
30
0
11
122.355
21
87.9
31
0
0
LINE
8
OUTLINE
10
122.355
20
87.9
30
0
11
170.355
21
87.9
31
0
0
LINE
8
OUTLINE
10
170.355
20
87.9
30
0
11
171.355
21
88.9
31
0
0
LINE
8
OUTLINE
10
121.355
20
143.9
30
0
11
121.355
21
146.9
31
0
0
LINE
8
OUTLINE
10
121.355
20
91.9
30
0
11
121.355
21
88.9
31
0
0
LINE
8
OUTLINE
10
171.355
20
143.9
30
0
11
171.355
21
146.9
31
0
0
LINE
8
OUTLINE
10
171.355
20
91.9
30
0
11
171.355
21
88.9
31
0
0
LINE
8
OUTLINE
10
122.355
20
142.9
30
0
11
122.355
21
147.9
31
0
0
LINE
8
OUTLINE
10
122.355
20
92.9
30
0
11
122.355
21
87.9
31
0
0
LINE
8
OUTLINE
10
170.355
20
142.9
30
0
11
170.355
21
147.9
31
0
0
LINE
8
OUTLINE
10
170.355
20
92.9
30
0
11
170.355
21
87.9
31
0
0
LINE
8
OUTLINE
10
170.355
20
142.9
30
0
11
170.355
21
147.9
31
0
0
LINE
8
OUTLINE
10
170.355
20
92.9
30
0
11
170.355
21
87.9
31
0
0
LINE
8
CENTER
10
113.355
20
117.9
30
0
11
179.355
21
117.9
31
0
0
LINE
8
OUTLINE
10
121.355
20
143.9
30
0
11
122.355
21
142.9
31
0
0
LINE
8
OUTLINE
10
122.355
20
142.9
30
0
11
170.355
21
142.9
31
0
0
LINE
8
OUTLINE
10
170.355
20
142.9
30
0
11
171.355
21
143.9
31
0
0
LINE
8
OUTLINE
10
121.355
20
91.9
30
0
11
122.355
21
92.9
31
0
0
LINE
8
OUTLINE
10
122.355
20
92.9
30
0
11
170.355
21
92.9
31
0
0
LINE
8
OUTLINE
10
170.355
20
92.9
30
0
11
171.355
21
91.9
31
0
0
LINE
8
HATCH
10
168.587
20
142.9
30
0
11
171.355
21
145.668
31
0
0
LINE
8
HATCH
10
165.052
20
142.9
30
0
11
170.052
21
147.9
31
0
0
LINE
8
HATCH
10
161.516
20
142.9
30
0
11
166.516
21
147.9
31
0
0
LINE
8
HATCH
10
157.981
20
142.9
30
0
11
162.981
21
147.9
31
0
0
LINE
8
HATCH
10
154.445
20
142.9
30
0
11
159.445
21
147.9
31
0
0
LINE
8
HATCH
10
150.91
20
142.9
30
0
11
155.91
21
147.9
31
0
0
LINE
8
HATCH
10
147.374
20
142.9
30
0
11
152.374
21
147.9
31
0
0
LINE
8
HATCH
10
143.838
20
142.9
30
0
11
148.838
21
147.9
31
0
0
LINE
8
HATCH
10
140.303
20
142.9
30
0
11
145.303
21
147.9
31
0
0
LINE
8
HATCH
10
136.767
20
142.9
30
0
11
141.767
21
147.9
31
0
0
LINE
8
HATCH
10
133.232
20
142.9
30
0
11
138.232
21
147.9
31
0
0
LINE
8
HATCH
10
129.696
20
142.9
30
0
11
134.696
21
147.9
31
0
0
LINE
8
HATCH
10
126.161
20
142.9
30
0
11
131.161
21
147.9
31
0
0
LINE
8
HATCH
10
122.625
20
142.9
30
0
11
127.625
21
147.9
31
0
0
LINE
8
HATCH
10
121.355
20
145.165
30
0
11
124.09
21
147.9
31
0
0
LINE
8
HATCH
10
168.587
20
87.9
30
0
11
171.355
21
90.668
31
0
0
LINE
8
HATCH
10
165.052
20
87.9
30
0
11
170.052
21
92.9
31
0
0
LINE
8
HATCH
10
161.516
20
87.9
30
0
11
166.516
21
92.9
31
0
0
LINE
8
HATCH
10
157.981
20
87.9
30
0
11
162.981
21
92.9
31
0
0
LINE
8
HATCH
10
154.445
20
87.9
30
0
11
159.445
21
92.9
31
0
0
LINE
8
HATCH
10
150.91
20
87.9
30
0
11
155.91
21
92.9
31
0
0
LINE
8
HATCH
10
147.374
20
87.9
30
0
11
152.374
21
92.9
31
0
0
LINE
8
HATCH
10
143.838
20
87.9
30
0
11
148.838
21
92.9
31
0
0
LINE
8
HATCH
10
140.303
20
87.9
30
0
11
145.303
21
92.9
31
0
0
LINE
8
HATCH
10
136.767
20
87.9
30
0
11
141.767
21
92.9
31
0
0
LINE
8
HATCH
10
133.232
20
87.9
30
0
11
138.232
21
92.9
31
0
0
LINE
8
HATCH
10
129.696
20
87.9
30
0
11
134.696
21
92.9
31
0
0
LINE
8
HATCH
10
126.161
20
87.9
30
0
11
131.161
21
92.9
31
0
0
LINE
8
HATCH
10
122.625
20
87.9
30
0
11
127.625
21
92.9
31
0
0
LINE
8
HATCH
10
121.355
20
90.165
30
0
11
124.09
21
92.9
31
0
0
LINE
8
HIDDEN
10
143.855
20
140.9
30
0
11
143.855
21
147.9
31
0
0
LINE
8
HIDDEN
10
148.855
20
140.9
30
0
11
148.855
21
147.9
31
0
0
LINE
8
HIDDEN
10
143.855
20
140.9
30
0
11
148.855
21
140.9
31
0
0
LINE
8
DIM
10
121.355
20
86.9
30
0
11
121.355
21
70.9
31
0
0
LINE
8
DIM
10
171.355
20
86.9
30
0
11
171.355
21
70.9
31
0
0
LINE
8
DIM
10
121.355
20
72.9
30
0
11
171.355
21
72.9
31
0
0
SOLID
8
DIM
10
121.355
20
72.9
30
0
11
124.355
21
73.41
31
0
12
124.355
22
72.39
32
0
13
124.355
23
72.39
33
0
0
SOLID
8
DIM
10
171.355
20
72.9
30
0
11
168.355
21
72.39
31
0
12
168.355
22
73.41
32
0
13
168.355
23
73.41
33
0
0
TEXT
8
TEXT
10
146.355
20
74.7
30
0
40
3.5
1
25
50
0
72
1
11
146.355
21
74.7
31
0
0
LINE
8
DIM
10
146.355
20
87.9
30
0
11
146.355
21
157.9
31
0
0
SOLID
8
DIM
10
146.355
20
87.9
30
0
11
145.845
21
90.9
31
0
12
146.865
22
90.9
32
0
13
146.865
23
90.9
33
0
0
SOLID
8
DIM
10
146.355
20
147.9
30
0
11
146.865
21
144.9
31
0
12
145.845
22
144.9
32
0
13
145.845
23
144.9
33
0
0
TEXT
8
TEXT
10
146.355
20
159.5
30
0
40
3.5
1
%%c30 m6
50
0
72
1
11
146.355
21
159.5
31
0
0
LINE
8
DIM
10
146.355
20
92.9
30
0
11
146.355
21
152.9
31
0
0
SOLID
8
DIM
10
146.355
20
92.9
30
0
11
145.845
21
95.9
31
0
12
146.865
22
95.9
32
0
13
146.865
23
95.9
33
0
0
SOLID
8
DIM
10
146.355
20
142.9
30
0
11
146.865
21
139.9
31
0
12
145.845
22
139.9
32
0
13
145.845
23
139.9
33
0
0
TEXT
8
TEXT
10
146.355
20
154.5
30
0
40
3.5
1
%%c25 H7
50
0
72
1
11
146.355
21
154.5
31
0
0
LINE
8
DIM
10
121.855
20
147.4
30
0
11
115.855
21
155.4
31
0
0
LINE
8
DIM
10
115.855
20
155.4
30
0
11
106.575
21
155.4
31
0
0
SOLID
8
DIM
10
121.855
20
147.4
30
0
11
124.063
21
145.306
31
0
12
123.247
22
144.694
32
0
13
123.247
23
144.694
33
0
0
TEXT
8
TEXT
10
114.855
20
156.8
30
0
40
3.5
1
C0.5
50
0
72
2
11
114.855
21
156.8
31
0
0
LINE
8
DIM
10
170.855
20
147.4
30
0
11
176.855
21
155.4
31
0
0
LINE
8
DIM
10
176.855
20
155.4
30
0
11
186.135
21
155.4
31
0
0
SOLID
8
DIM
10
170.855
20
147.4
30
0
11
169.463
21
144.694
31
0
12
168.647
22
145.306
32
0
13
168.647
23
145.306
33
0
0
TEXT
8
TEXT
10
177.855
20
156.8
30
0
40
3.5
1
C0.5
50
0
72
0
11
177.855
21
156.8
31
0
0
LINE
8
DIM
10
148.105
20
147.9
30
0
11
153.355
21
163.9
31
0
0
LINE
8
DIM
10
153.355
20
163.9
30
0
11
176.53
21
163.9
31
0
0
SOLID
8
DIM
10
148.105
20
147.9
30
0
11
147.654
21
144.891
31
0
12
146.685
22
145.209
32
0
13
146.685
23
145.209
33
0
0
TEXT
8
TEXT
10
154.355
20
165.3
30
0
40
3.5
1
%%c2.5 깊이 3.5
50
0
72
0
11
154.355
21
165.3
31
0
0
LINE
8
DIM
10
121.355
20
148.9
30
0
11
121.355
21
158.9
31
0
0
LINE
8
DIM
10
146.355
20
148.9
30
0
11
146.355
21
158.9
31
0
0
LINE
8
DIM
10
121.355
20
156.9
30
0
11
146.355
21
156.9
31
0
0
SOLID
8
DIM
10
121.355
20
156.9
30
0
11
124.355
21
157.41
31
0
12
124.355
22
156.39
32
0
13
124.355
23
156.39
33
0
0
SOLID
8
DIM
10
146.355
20
156.9
30
0
11
143.355
21
156.39
31
0
12
143.355
22
157.41
32
0
13
143.355
23
157.41
33
0
0
TEXT
8
TEXT
10
133.855
20
158.7
30
0
40
3.5
1
12.5
50
0
72
1
11
133.855
21
158.7
31
0
0
LINE
8
FRAME
10
10
20
10
30
0
11
287
21
10
31
0
0
LINE
8
FRAME
10
287
20
10
30
0
11
287
21
200
31
0
0
LINE
8
FRAME
10
287
20
200
30
0
11
10
21
200
31
0
0
LINE
8
FRAME
10
10
20
200
30
0
11
10
21
10
31
0
0
LINE
8
FRAME
10
177
20
10
30
0
11
287
21
10
31
0
0
LINE
8
FRAME
10
287
20
10
30
0
11
287
21
34
31
0
0
LINE
8
FRAME
10
287
20
34
30
0
11
177
21
34
31
0
0
LINE
8
FRAME
10
177
20
34
30
0
11
177
21
10
31
0
0
LINE
8
FRAME
10
177
20
18
30
0
11
287
21
18
31
0
0
LINE
8
FRAME
10
177
20
26
30
0
11
287
21
26
31
0
0
LINE
8
FRAME
10
232
20
10
30
0
11
232
21
26
31
0
0
LINE
8
FRAME
10
255
20
26
30
0
11
255
21
34
31
0
0
TEXT
8
TEXT
10
179
20
28.5
30
0
40
4.2
1
VRINGON
72
0
11
179
21
28.5
31
0
0
TEXT
8
TEXT
10
257
20
28.5
30
0
40
2.5
1
도번 VR-RB-003
72
0
11
257
21
28.5
31
0
0
TEXT
8
TEXT
10
179
20
20.5
30
0
40
2.8
1
품명 부시
72
0
11
179
21
20.5
31
0
0
TEXT
8
TEXT
10
234
20
20.5
30
0
40
2.8
1
재질 C3604
72
0
11
234
21
20.5
31
0
0
TEXT
8
TEXT
10
179
20
12.5
30
0
40
2.5
1
척도 2:1
72
0
11
179
21
12.5
31
0
0
TEXT
8
TEXT
10
234
20
12.5
30
0
40
2.5
1
3각법 · 단위 mm
72
0
11
234
21
12.5
31
0
0
CIRCLE
8
FRAME
10
269
20
16.5
30
0
40
2.4
0
CIRCLE
8
FRAME
10
269
20
16.5
30
0
40
1.2
0
LINE
8
FRAME
10
274.5
20
13.9
30
0
11
281
21
15.1
31
0
0
LINE
8
FRAME
10
281
20
15.1
30
0
11
281
21
17.9
31
0
0
LINE
8
FRAME
10
281
20
17.9
30
0
11
274.5
21
19.1
31
0
0
LINE
8
FRAME
10
274.5
20
19.1
30
0
11
274.5
21
13.9
31
0
0
TEXT
8
TEXT
10
14
20
18.2
30
0
40
2.6
1
1. 지시 없는 모따기 C0.5
72
0
11
14
21
18.2
31
0
0
TEXT
8
TEXT
10
14
20
14
30
0
40
2.6
1
2. 지시 없는 공차 KS B ISO 2768-m
72
0
11
14
21
14
31
0
0
ENDSEC
0
EOF
