ISO-10303-21;
HEADER;
FILE_DESCRIPTION(('Open CASCADE Model'),'2;1');
FILE_NAME('Open CASCADE Shape Model','2026-08-16T09:22:55',('Author'),(
    'Open CASCADE'),'Open CASCADE STEP processor 7.9','Open CASCADE 7.9'
  ,'Unknown');
FILE_SCHEMA(('AUTOMOTIVE_DESIGN { 1 0 10303 214 1 1 1 1 }'));
ENDSEC;
DATA;
#1 = APPLICATION_PROTOCOL_DEFINITION('international standard',
  'automotive_design',2000,#2);
#2 = APPLICATION_CONTEXT(
  'core data for automotive mechanical design processes');
#3 = SHAPE_DEFINITION_REPRESENTATION(#4,#10);
#4 = PRODUCT_DEFINITION_SHAPE('','',#5);
#5 = PRODUCT_DEFINITION('design','',#6,#9);
#6 = PRODUCT_DEFINITION_FORMATION('','',#7);
#7 = PRODUCT('Open CASCADE STEP translator 7.9 1',
  'Open CASCADE STEP translator 7.9 1','',(#8));
#8 = PRODUCT_CONTEXT('',#2,'mechanical');
#9 = PRODUCT_DEFINITION_CONTEXT('part definition',#2,'design');
#10 = ADVANCED_BREP_SHAPE_REPRESENTATION('',(#11,#15),#899);
#11 = AXIS2_PLACEMENT_3D('',#12,#13,#14);
#12 = CARTESIAN_POINT('',(0.,0.,0.));
#13 = DIRECTION('',(0.,0.,1.));
#14 = DIRECTION('',(1.,0.,-0.));
#15 = MANIFOLD_SOLID_BREP('',#16);
#16 = CLOSED_SHELL('',(#17,#105,#140,#424,#479,#708,#763,#842,#872));
#17 = ADVANCED_FACE('',(#18),#31,.T.);
#18 = FACE_BOUND('',#19,.T.);
#19 = EDGE_LOOP('',(#20,#54,#77,#104));
#20 = ORIENTED_EDGE('',*,*,#21,.T.);
#21 = EDGE_CURVE('',#22,#22,#24,.T.);
#22 = VERTEX_POINT('',#23);
#23 = CARTESIAN_POINT('',(0.,14.5,0.));
#24 = SURFACE_CURVE('',#25,(#30,#42),.PCURVE_S1.);
#25 = CIRCLE('',#26,14.5);
#26 = AXIS2_PLACEMENT_3D('',#27,#28,#29);
#27 = CARTESIAN_POINT('',(0.,0.,0.));
#28 = DIRECTION('',(1.,0.,0.));
#29 = DIRECTION('',(-0.,1.,0.));
#30 = PCURVE('',#31,#36);
#31 = CONICAL_SURFACE('',#32,14.5,0.785398163397);
#32 = AXIS2_PLACEMENT_3D('',#33,#34,#35);
#33 = CARTESIAN_POINT('',(0.,0.,0.));
#34 = DIRECTION('',(1.,0.,0.));
#35 = DIRECTION('',(-0.,1.,0.));
#36 = DEFINITIONAL_REPRESENTATION('',(#37),#41);
#37 = LINE('',#38,#39);
#38 = CARTESIAN_POINT('',(0.,0.));
#39 = VECTOR('',#40,1.);
#40 = DIRECTION('',(1.,0.));
#41 = ( GEOMETRIC_REPRESENTATION_CONTEXT(2) 
PARAMETRIC_REPRESENTATION_CONTEXT() REPRESENTATION_CONTEXT('2D SPACE',''
  ) );
#42 = PCURVE('',#43,#48);
#43 = PLANE('',#44);
#44 = AXIS2_PLACEMENT_3D('',#45,#46,#47);
#45 = CARTESIAN_POINT('',(0.,0.,0.));
#46 = DIRECTION('',(1.,0.,0.));
#47 = DIRECTION('',(-0.,1.,0.));
#48 = DEFINITIONAL_REPRESENTATION('',(#49),#53);
#49 = CIRCLE('',#50,14.5);
#50 = AXIS2_PLACEMENT_2D('',#51,#52);
#51 = CARTESIAN_POINT('',(0.,0.));
#52 = DIRECTION('',(1.,-0.));
#53 = ( GEOMETRIC_REPRESENTATION_CONTEXT(2) 
PARAMETRIC_REPRESENTATION_CONTEXT() REPRESENTATION_CONTEXT('2D SPACE',''
  ) );
#54 = ORIENTED_EDGE('',*,*,#55,.T.);
#55 = EDGE_CURVE('',#22,#56,#58,.T.);
#56 = VERTEX_POINT('',#57);
#57 = CARTESIAN_POINT('',(0.5,15.,0.));
#58 = SEAM_CURVE('',#59,(#63,#70),.PCURVE_S1.);
#59 = LINE('',#60,#61);
#60 = CARTESIAN_POINT('',(0.,14.5,0.));
#61 = VECTOR('',#62,1.);
#62 = DIRECTION('',(0.707106781187,0.707106781187,0.));
#63 = PCURVE('',#31,#64);
#64 = DEFINITIONAL_REPRESENTATION('',(#65),#69);
#65 = LINE('',#66,#67);
#66 = CARTESIAN_POINT('',(0.,0.));
#67 = VECTOR('',#68,1.);
#68 = DIRECTION('',(0.,1.));
#69 = ( GEOMETRIC_REPRESENTATION_CONTEXT(2) 
PARAMETRIC_REPRESENTATION_CONTEXT() REPRESENTATION_CONTEXT('2D SPACE',''
  ) );
#70 = PCURVE('',#31,#71);
#71 = DEFINITIONAL_REPRESENTATION('',(#72),#76);
#72 = LINE('',#73,#74);
#73 = CARTESIAN_POINT('',(6.28318530718,0.));
#74 = VECTOR('',#75,1.);
#75 = DIRECTION('',(0.,1.));
#76 = ( GEOMETRIC_REPRESENTATION_CONTEXT(2) 
PARAMETRIC_REPRESENTATION_CONTEXT() REPRESENTATION_CONTEXT('2D SPACE',''
  ) );
#77 = ORIENTED_EDGE('',*,*,#78,.F.);
#78 = EDGE_CURVE('',#56,#56,#79,.T.);
#79 = SURFACE_CURVE('',#80,(#85,#92),.PCURVE_S1.);
#80 = CIRCLE('',#81,15.);
#81 = AXIS2_PLACEMENT_3D('',#82,#83,#84);
#82 = CARTESIAN_POINT('',(0.5,0.,0.));
#83 = DIRECTION('',(1.,0.,0.));
#84 = DIRECTION('',(-0.,1.,0.));
#85 = PCURVE('',#31,#86);
#86 = DEFINITIONAL_REPRESENTATION('',(#87),#91);
#87 = LINE('',#88,#89);
#88 = CARTESIAN_POINT('',(0.,0.5));
#89 = VECTOR('',#90,1.);
#90 = DIRECTION('',(1.,0.));
#91 = ( GEOMETRIC_REPRESENTATION_CONTEXT(2) 
PARAMETRIC_REPRESENTATION_CONTEXT() REPRESENTATION_CONTEXT('2D SPACE',''
  ) );
#92 = PCURVE('',#93,#98);
#93 = CYLINDRICAL_SURFACE('',#94,15.);
#94 = AXIS2_PLACEMENT_3D('',#95,#96,#97);
#95 = CARTESIAN_POINT('',(0.5,0.,0.));
#96 = DIRECTION('',(1.,0.,0.));
#97 = DIRECTION('',(-0.,1.,0.));
#98 = DEFINITIONAL_REPRESENTATION('',(#99),#103);
#99 = LINE('',#100,#101);
#100 = CARTESIAN_POINT('',(0.,0.));
#101 = VECTOR('',#102,1.);
#102 = DIRECTION('',(1.,0.));
#103 = ( GEOMETRIC_REPRESENTATION_CONTEXT(2) 
PARAMETRIC_REPRESENTATION_CONTEXT() REPRESENTATION_CONTEXT('2D SPACE',''
  ) );
#104 = ORIENTED_EDGE('',*,*,#55,.F.);
#105 = ADVANCED_FACE('',(#106,#137),#43,.F.);
#106 = FACE_BOUND('',#107,.T.);
#107 = EDGE_LOOP('',(#108));
#108 = ORIENTED_EDGE('',*,*,#109,.T.);
#109 = EDGE_CURVE('',#110,#110,#112,.T.);
#110 = VERTEX_POINT('',#111);
#111 = CARTESIAN_POINT('',(0.,13.,0.));
#112 = SURFACE_CURVE('',#113,(#118,#125),.PCURVE_S1.);
#113 = CIRCLE('',#114,13.);
#114 = AXIS2_PLACEMENT_3D('',#115,#116,#117);
#115 = CARTESIAN_POINT('',(0.,0.,0.));
#116 = DIRECTION('',(1.,0.,0.));
#117 = DIRECTION('',(-0.,1.,0.));
#118 = PCURVE('',#43,#119);
#119 = DEFINITIONAL_REPRESENTATION('',(#120),#124);
#120 = CIRCLE('',#121,13.);
#121 = AXIS2_PLACEMENT_2D('',#122,#123);
#122 = CARTESIAN_POINT('',(0.,0.));
#123 = DIRECTION('',(1.,-0.));
#124 = ( GEOMETRIC_REPRESENTATION_CONTEXT(2) 
PARAMETRIC_REPRESENTATION_CONTEXT() REPRESENTATION_CONTEXT('2D SPACE',''
  ) );
#125 = PCURVE('',#126,#131);
#126 = CONICAL_SURFACE('',#127,12.5,0.785398163397);
#127 = AXIS2_PLACEMENT_3D('',#128,#129,#130);
#128 = CARTESIAN_POINT('',(0.5,0.,0.));
#129 = DIRECTION('',(-1.,-0.,-0.));
#130 = DIRECTION('',(0.,1.,0.));
#131 = DEFINITIONAL_REPRESENTATION('',(#132),#136);
#132 = LINE('',#133,#134);
#133 = CARTESIAN_POINT('',(-0.,0.5));
#134 = VECTOR('',#135,1.);
#135 = DIRECTION('',(-1.,0.));
#136 = ( GEOMETRIC_REPRESENTATION_CONTEXT(2) 
PARAMETRIC_REPRESENTATION_CONTEXT() REPRESENTATION_CONTEXT('2D SPACE',''
  ) );
#137 = FACE_BOUND('',#138,.T.);
#138 = EDGE_LOOP('',(#139));
#139 = ORIENTED_EDGE('',*,*,#21,.F.);
#140 = ADVANCED_FACE('',(#141),#93,.T.);
#141 = FACE_BOUND('',#142,.T.);
#142 = EDGE_LOOP('',(#143,#166,#167,#168,#283,#306,#333,#334));
#143 = ORIENTED_EDGE('',*,*,#144,.F.);
#144 = EDGE_CURVE('',#56,#145,#147,.T.);
#145 = VERTEX_POINT('',#146);
#146 = CARTESIAN_POINT('',(11.25,15.,0.));
#147 = SEAM_CURVE('',#148,(#152,#159),.PCURVE_S1.);
#148 = LINE('',#149,#150);
#149 = CARTESIAN_POINT('',(0.5,15.,0.));
#150 = VECTOR('',#151,1.);
#151 = DIRECTION('',(1.,0.,0.));
#152 = PCURVE('',#93,#153);
#153 = DEFINITIONAL_REPRESENTATION('',(#154),#158);
#154 = LINE('',#155,#156);
#155 = CARTESIAN_POINT('',(0.,0.));
#156 = VECTOR('',#157,1.);
#157 = DIRECTION('',(0.,1.));
#158 = ( GEOMETRIC_REPRESENTATION_CONTEXT(2) 
PARAMETRIC_REPRESENTATION_CONTEXT() REPRESENTATION_CONTEXT('2D SPACE',''
  ) );
#159 = PCURVE('',#93,#160);
#160 = DEFINITIONAL_REPRESENTATION('',(#161),#165);
#161 = LINE('',#162,#163);
#162 = CARTESIAN_POINT('',(6.28318530718,0.));
#163 = VECTOR('',#164,1.);
#164 = DIRECTION('',(0.,1.));
#165 = ( GEOMETRIC_REPRESENTATION_CONTEXT(2) 
PARAMETRIC_REPRESENTATION_CONTEXT() REPRESENTATION_CONTEXT('2D SPACE',''
  ) );
#166 = ORIENTED_EDGE('',*,*,#78,.T.);
#167 = ORIENTED_EDGE('',*,*,#144,.T.);
#168 = ORIENTED_EDGE('',*,*,#169,.F.);
#169 = EDGE_CURVE('',#170,#145,#172,.T.);
#170 = VERTEX_POINT('',#171);
#171 = CARTESIAN_POINT('',(13.75,15.,8.326672684689E-16));
#172 = SURFACE_CURVE('',#173,(#206,#242),.PCURVE_S1.);
#173 = B_SPLINE_CURVE_WITH_KNOTS('',7,(#174,#175,#176,#177,#178,#179,
    #180,#181,#182,#183,#184,#185,#186,#187,#188,#189,#190,#191,#192,
    #193,#194,#195,#196,#197,#198,#199,#200,#201,#202,#203,#204,#205),
  .UNSPECIFIED.,.F.,.F.,(8,6,6,6,6,8),(0.,0.269793582989,0.498664972933,
    0.727533614439,0.883935571598,1.),.UNSPECIFIED.);
#174 = CARTESIAN_POINT('',(13.75,15.,-2.22044604925E-16));
#175 = CARTESIAN_POINT('',(13.75,15.,-0.175920881097));
#176 = CARTESIAN_POINT('',(13.721115257748,14.997592866487,
    -0.347801340826));
#177 = CARTESIAN_POINT('',(13.665732593174,14.992978040553,
    -0.510110633699));
#178 = CARTESIAN_POINT('',(13.58740656744,14.986797693673,
    -0.658142907436));
#179 = CARTESIAN_POINT('',(13.490787065773,14.979981035135,
    -0.78824470385));
#180 = CARTESIAN_POINT('',(13.381524134421,14.97335315687,
    -0.898187860524));
#181 = CARTESIAN_POINT('',(13.168245861295,14.962436151408,
    -1.06362344714));
#182 = CARTESIAN_POINT('',(13.064056333107,14.957847839786,
    -1.126313432909));
#183 = CARTESIAN_POINT('',(12.955332510292,14.953946669675,
    -1.176040624809));
#184 = CARTESIAN_POINT('',(12.843472351213,14.950912321435,
    -1.213089825071));
#185 = CARTESIAN_POINT('',(12.729627365484,14.948854841468,
    -1.237696844559));
#186 = CARTESIAN_POINT('',(12.614812065668,14.947825928877,-1.25));
#187 = CARTESIAN_POINT('',(12.385189313071,14.947825928877,-1.25));
#188 = CARTESIAN_POINT('',(12.270374617525,14.948854827317,
    -1.237697123993));
#189 = CARTESIAN_POINT('',(12.156529032625,14.95091226639,
    -1.213090398578));
#190 = CARTESIAN_POINT('',(12.044667387888,14.953946638236,
    -1.176040997873));
#191 = CARTESIAN_POINT('',(11.935942063286,14.957847898299,
    -1.12631287335));
#192 = CARTESIAN_POINT('',(11.831752185887,14.962436251366,
    -1.063621932379));
#193 = CARTESIAN_POINT('',(11.666973827827,14.970870707481,
    -0.935806736168));
#194 = CARTESIAN_POINT('',(11.602892739315,14.974498679724,
    -0.87763479555));
#195 = CARTESIAN_POINT('',(11.542403831752,14.978237647024,
    -0.813196882973));
#196 = CARTESIAN_POINT('',(11.486309617708,14.981972688669,
    -0.742602777481));
#197 = CARTESIAN_POINT('',(11.435436345909,14.985570608767,
    -0.66605542319));
#198 = CARTESIAN_POINT('',(11.390638651397,14.988887874934,
    -0.583859303379));
#199 = CARTESIAN_POINT('',(11.32473199417,14.993931149325,
    -0.431558004645));
#200 = CARTESIAN_POINT('',(11.300495832599,14.9958469606,-0.363807653852
    ));
#201 = CARTESIAN_POINT('',(11.280585980359,14.997461975664,
    -0.293645485398));
#202 = CARTESIAN_POINT('',(11.26537838339,14.998718223115,
    -0.221598701208));
#203 = CARTESIAN_POINT('',(11.255134730923,14.999572362774,
    -0.14824071707));
#204 = CARTESIAN_POINT('',(11.25,15.,-7.417184906661E-02));
#205 = CARTESIAN_POINT('',(11.25,15.,0.));
#206 = PCURVE('',#93,#207);
#207 = DEFINITIONAL_REPRESENTATION('',(#208),#241);
#208 = B_SPLINE_CURVE_WITH_KNOTS('',7,(#209,#210,#211,#212,#213,#214,
    #215,#216,#217,#218,#219,#220,#221,#222,#223,#224,#225,#226,#227,
    #228,#229,#230,#231,#232,#233,#234,#235,#236,#237,#238,#239,#240),
  .UNSPECIFIED.,.F.,.F.,(8,6,6,6,6,8),(0.,0.269793582989,0.498664972933,
    0.727533614439,0.883935571598,1.),.UNSPECIFIED.);
#209 = CARTESIAN_POINT('',(6.28318530718,13.25));
#210 = CARTESIAN_POINT('',(6.27145724844,13.25));
#211 = CARTESIAN_POINT('',(6.259998546962,13.221115257748));
#212 = CARTESIAN_POINT('',(6.249175315833,13.165732593174));
#213 = CARTESIAN_POINT('',(6.239299068628,13.08740656744));
#214 = CARTESIAN_POINT('',(6.230614147722,12.990787065773));
#215 = CARTESIAN_POINT('',(6.223271419482,12.881524134421));
#216 = CARTESIAN_POINT('',(6.212218392883,12.668245861295));
#217 = CARTESIAN_POINT('',(6.20802798843,12.564056333107));
#218 = CARTESIAN_POINT('',(6.204702700547,12.455332510292));
#219 = CARTESIAN_POINT('',(6.202224485555,12.343472351213));
#220 = CARTESIAN_POINT('',(6.200578294604,12.229627365484));
#221 = CARTESIAN_POINT('',(6.199755220569,12.114812065668));
#222 = CARTESIAN_POINT('',(6.199755220569,11.885189313071));
#223 = CARTESIAN_POINT('',(6.200578276005,11.770374617525));
#224 = CARTESIAN_POINT('',(6.202224447131,11.656529032625));
#225 = CARTESIAN_POINT('',(6.204702675552,11.544667387888));
#226 = CARTESIAN_POINT('',(6.208028025947,11.435942063286));
#227 = CARTESIAN_POINT('',(6.212218494086,11.331752185887));
#228 = CARTESIAN_POINT('',(6.220758039854,11.166973827827));
#229 = CARTESIAN_POINT('',(6.224643678362,11.102892739315));
#230 = CARTESIAN_POINT('',(6.228946698676,11.042403831752));
#231 = CARTESIAN_POINT('',(6.233659431115,10.986309617708));
#232 = CARTESIAN_POINT('',(6.238768056127,10.935436345909));
#233 = CARTESIAN_POINT('',(6.244252114348,10.890638651397));
#234 = CARTESIAN_POINT('',(6.254411099471,10.82473199417));
#235 = CARTESIAN_POINT('',(6.258929543627,10.800495832599));
#236 = CARTESIAN_POINT('',(6.263608152087,10.780585980359));
#237 = CARTESIAN_POINT('',(6.268411861844,10.76537838339));
#238 = CARTESIAN_POINT('',(6.273302594276,10.755134730923));
#239 = CARTESIAN_POINT('',(6.278240517242,10.75));
#240 = CARTESIAN_POINT('',(6.28318530718,10.75));
#241 = ( GEOMETRIC_REPRESENTATION_CONTEXT(2) 
PARAMETRIC_REPRESENTATION_CONTEXT() REPRESENTATION_CONTEXT('2D SPACE',''
  ) );
#242 = PCURVE('',#243,#248);
#243 = CYLINDRICAL_SURFACE('',#244,1.25);
#244 = AXIS2_PLACEMENT_3D('',#245,#246,#247);
#245 = CARTESIAN_POINT('',(12.5,11.5,1.276756478319E-15));
#246 = DIRECTION('',(-0.,-1.,-1.110223024625E-16));
#247 = DIRECTION('',(1.,0.,0.));
#248 = DEFINITIONAL_REPRESENTATION('',(#249),#282);
#249 = B_SPLINE_CURVE_WITH_KNOTS('',7,(#250,#251,#252,#253,#254,#255,
    #256,#257,#258,#259,#260,#261,#262,#263,#264,#265,#266,#267,#268,
    #269,#270,#271,#272,#273,#274,#275,#276,#277,#278,#279,#280,#281),
  .UNSPECIFIED.,.F.,.F.,(8,6,6,6,6,8),(0.,0.269793582989,0.498664972933,
    0.727533614439,0.883935571598,1.),.UNSPECIFIED.);
#250 = CARTESIAN_POINT('',(8.881784197001E-16,-3.5));
#251 = CARTESIAN_POINT('',(-0.140736704878,-3.5));
#252 = CARTESIAN_POINT('',(-0.27824105387,-3.497592866487));
#253 = CARTESIAN_POINT('',(-0.412641396655,-3.492978040553));
#254 = CARTESIAN_POINT('',(-0.543786270009,-3.486797693673));
#255 = CARTESIAN_POINT('',(-0.671258150053,-3.479981035135));
#256 = CARTESIAN_POINT('',(-0.794233839043,-3.47335315687));
#257 = CARTESIAN_POINT('',(-1.010169466646,-3.462436151408));
#258 = CARTESIAN_POINT('',(-1.10676948728,-3.457847839786));
#259 = CARTESIAN_POINT('',(-1.201465929665,-3.453946669675));
#260 = CARTESIAN_POINT('',(-1.294754595391,-3.450912321435));
#261 = CARTESIAN_POINT('',(-1.387093739491,-3.448854841468));
#262 = CARTESIAN_POINT('',(-1.478946674261,-3.447825928877));
#263 = CARTESIAN_POINT('',(-1.662644876338,-3.447825928877));
#264 = CARTESIAN_POINT('',(-1.754497405498,-3.448854827317));
#265 = CARTESIAN_POINT('',(-1.84683687819,-3.45091226639));
#266 = CARTESIAN_POINT('',(-1.940126634051,-3.453946638236));
#267 = CARTESIAN_POINT('',(-2.034824501315,-3.457847898299));
#268 = CARTESIAN_POINT('',(-2.131425164093,-3.462436251366));
#269 = CARTESIAN_POINT('',(-2.298256588792,-3.470870707481));
#270 = CARTESIAN_POINT('',(-2.367287038534,-3.474498679724));
#271 = CARTESIAN_POINT('',(-2.4376262806,-3.478237647024));
#272 = CARTESIAN_POINT('',(-2.509309203804,-3.481972688669));
#273 = CARTESIAN_POINT('',(-2.582396557957,-3.485570608767));
#274 = CARTESIAN_POINT('',(-2.656978363123,-3.488887874934));
#275 = CARTESIAN_POINT('',(-2.789738292169,-3.493931149325));
#276 = CARTESIAN_POINT('',(-2.847181047912,-3.4958469606));
#277 = CARTESIAN_POINT('',(-2.905315672743,-3.497461975664));
#278 = CARTESIAN_POINT('',(-2.963972460696,-3.498718223115));
#279 = CARTESIAN_POINT('',(-3.023000034033,-3.499572362774));
#280 = CARTESIAN_POINT('',(-3.082255174337,-3.5));
#281 = CARTESIAN_POINT('',(-3.14159265359,-3.5));
#282 = ( GEOMETRIC_REPRESENTATION_CONTEXT(2) 
PARAMETRIC_REPRESENTATION_CONTEXT() REPRESENTATION_CONTEXT('2D SPACE',''
  ) );
#283 = ORIENTED_EDGE('',*,*,#284,.T.);
#284 = EDGE_CURVE('',#170,#285,#287,.T.);
#285 = VERTEX_POINT('',#286);
#286 = CARTESIAN_POINT('',(24.5,15.,0.));
#287 = SEAM_CURVE('',#288,(#292,#299),.PCURVE_S1.);
#288 = LINE('',#289,#290);
#289 = CARTESIAN_POINT('',(0.5,15.,0.));
#290 = VECTOR('',#291,1.);
#291 = DIRECTION('',(1.,0.,0.));
#292 = PCURVE('',#93,#293);
#293 = DEFINITIONAL_REPRESENTATION('',(#294),#298);
#294 = LINE('',#295,#296);
#295 = CARTESIAN_POINT('',(0.,0.));
#296 = VECTOR('',#297,1.);
#297 = DIRECTION('',(0.,1.));
#298 = ( GEOMETRIC_REPRESENTATION_CONTEXT(2) 
PARAMETRIC_REPRESENTATION_CONTEXT() REPRESENTATION_CONTEXT('2D SPACE',''
  ) );
#299 = PCURVE('',#93,#300);
#300 = DEFINITIONAL_REPRESENTATION('',(#301),#305);
#301 = LINE('',#302,#303);
#302 = CARTESIAN_POINT('',(6.28318530718,0.));
#303 = VECTOR('',#304,1.);
#304 = DIRECTION('',(0.,1.));
#305 = ( GEOMETRIC_REPRESENTATION_CONTEXT(2) 
PARAMETRIC_REPRESENTATION_CONTEXT() REPRESENTATION_CONTEXT('2D SPACE',''
  ) );
#306 = ORIENTED_EDGE('',*,*,#307,.F.);
#307 = EDGE_CURVE('',#285,#285,#308,.T.);
#308 = SURFACE_CURVE('',#309,(#314,#321),.PCURVE_S1.);
#309 = CIRCLE('',#310,15.);
#310 = AXIS2_PLACEMENT_3D('',#311,#312,#313);
#311 = CARTESIAN_POINT('',(24.5,0.,0.));
#312 = DIRECTION('',(1.,0.,0.));
#313 = DIRECTION('',(-0.,1.,0.));
#314 = PCURVE('',#93,#315);
#315 = DEFINITIONAL_REPRESENTATION('',(#316),#320);
#316 = LINE('',#317,#318);
#317 = CARTESIAN_POINT('',(0.,24.));
#318 = VECTOR('',#319,1.);
#319 = DIRECTION('',(1.,0.));
#320 = ( GEOMETRIC_REPRESENTATION_CONTEXT(2) 
PARAMETRIC_REPRESENTATION_CONTEXT() REPRESENTATION_CONTEXT('2D SPACE',''
  ) );
#321 = PCURVE('',#322,#327);
#322 = CONICAL_SURFACE('',#323,15.,0.785398163397);
#323 = AXIS2_PLACEMENT_3D('',#324,#325,#326);
#324 = CARTESIAN_POINT('',(24.5,0.,0.));
#325 = DIRECTION('',(-1.,-0.,-0.));
#326 = DIRECTION('',(-0.,1.,0.));
#327 = DEFINITIONAL_REPRESENTATION('',(#328),#332);
#328 = LINE('',#329,#330);
#329 = CARTESIAN_POINT('',(-0.,-0.));
#330 = VECTOR('',#331,1.);
#331 = DIRECTION('',(-1.,-0.));
#332 = ( GEOMETRIC_REPRESENTATION_CONTEXT(2) 
PARAMETRIC_REPRESENTATION_CONTEXT() REPRESENTATION_CONTEXT('2D SPACE',''
  ) );
#333 = ORIENTED_EDGE('',*,*,#284,.F.);
#334 = ORIENTED_EDGE('',*,*,#335,.F.);
#335 = EDGE_CURVE('',#145,#170,#336,.T.);
#336 = SURFACE_CURVE('',#337,(#364,#394),.PCURVE_S1.);
#337 = B_SPLINE_CURVE_WITH_KNOTS('',7,(#338,#339,#340,#341,#342,#343,
    #344,#345,#346,#347,#348,#349,#350,#351,#352,#353,#354,#355,#356,
    #357,#358,#359,#360,#361,#362,#363),.UNSPECIFIED.,.F.,.F.,(8,6,6,6,8
    ),(0.,0.270541215508,0.500044767402,0.729547976109,1.),
  .UNSPECIFIED.);
#338 = CARTESIAN_POINT('',(11.25,15.,1.866349868147E-15));
#339 = CARTESIAN_POINT('',(11.25,15.,0.175920881097));
#340 = CARTESIAN_POINT('',(11.278884742252,14.997592866487,
    0.347801340826));
#341 = CARTESIAN_POINT('',(11.334267406826,14.992978040553,
    0.510110633699));
#342 = CARTESIAN_POINT('',(11.41259343256,14.986797693673,0.658142907437
    ));
#343 = CARTESIAN_POINT('',(11.509212934226,14.979981035135,0.78824470385
    ));
#344 = CARTESIAN_POINT('',(11.618475865579,14.97335315687,0.898187860524
    ));
#345 = CARTESIAN_POINT('',(11.831753255842,14.962436196599,
    1.063622762321));
#346 = CARTESIAN_POINT('',(11.935942738216,14.957847880383,
    1.126313013319));
#347 = CARTESIAN_POINT('',(12.044667043803,14.953946665725,
    1.176040627508));
#348 = CARTESIAN_POINT('',(12.156527970849,14.950912295519,
    1.213090082863));
#349 = CARTESIAN_POINT('',(12.270373682424,14.948854830391,
    1.237697078397));
#350 = CARTESIAN_POINT('',(12.385189141388,14.947825928877,1.25));
#351 = CARTESIAN_POINT('',(12.614810686929,14.947825928877,1.25));
#352 = CARTESIAN_POINT('',(12.729625382475,14.948854827317,
    1.237697123993));
#353 = CARTESIAN_POINT('',(12.843470967375,14.95091226639,1.213090398578
    ));
#354 = CARTESIAN_POINT('',(12.955332612112,14.953946638236,
    1.176040997873));
#355 = CARTESIAN_POINT('',(13.064057936714,14.957847898299,1.12631287335
    ));
#356 = CARTESIAN_POINT('',(13.168247814113,14.962436251366,
    1.063621932379));
#357 = CARTESIAN_POINT('',(13.381485004348,14.973351153931,0.89821821292
    ));
#358 = CARTESIAN_POINT('',(13.490769487483,14.979979430706,
    0.788275447026));
#359 = CARTESIAN_POINT('',(13.587422771672,14.986798456691,
    0.658141911639));
#360 = CARTESIAN_POINT('',(13.665765539431,14.992980793245,0.51006302894
    ));
#361 = CARTESIAN_POINT('',(13.721138733607,14.997594822071,
    0.347720121935));
#362 = CARTESIAN_POINT('',(13.75,15.,0.175849376134));
#363 = CARTESIAN_POINT('',(13.75,15.,1.540859630675E-15));
#364 = PCURVE('',#93,#365);
#365 = DEFINITIONAL_REPRESENTATION('',(#366),#393);
#366 = B_SPLINE_CURVE_WITH_KNOTS('',7,(#367,#368,#369,#370,#371,#372,
    #373,#374,#375,#376,#377,#378,#379,#380,#381,#382,#383,#384,#385,
    #386,#387,#388,#389,#390,#391,#392),.UNSPECIFIED.,.F.,.F.,(8,6,6,6,8
    ),(0.,0.270541215508,0.500044767402,0.729547976109,1.),
  .UNSPECIFIED.);
#367 = CARTESIAN_POINT('',(0.,10.75));
#368 = CARTESIAN_POINT('',(1.172805873979E-02,10.75));
#369 = CARTESIAN_POINT('',(2.318676021716E-02,10.778884742252));
#370 = CARTESIAN_POINT('',(3.40099913464E-02,10.834267406826));
#371 = CARTESIAN_POINT('',(4.388623855133E-02,10.91259343256));
#372 = CARTESIAN_POINT('',(5.257115945709E-02,11.009212934226));
#373 = CARTESIAN_POINT('',(5.991388769748E-02,11.118475865579));
#374 = CARTESIAN_POINT('',(7.096686854312E-02,11.331753255842));
#375 = CARTESIAN_POINT('',(7.51572906237E-02,11.435942738216));
#376 = CARTESIAN_POINT('',(7.848260686993E-02,11.544667043803));
#377 = CARTESIAN_POINT('',(8.096083891681E-02,11.656527970849));
#378 = CARTESIAN_POINT('',(8.260702812488E-02,11.770373682424));
#379 = CARTESIAN_POINT('',(8.343008661062E-02,11.885189141388));
#380 = CARTESIAN_POINT('',(8.343008661062E-02,12.114810686929));
#381 = CARTESIAN_POINT('',(8.260703117505E-02,12.229625382475));
#382 = CARTESIAN_POINT('',(8.096086004887E-02,12.343470967375));
#383 = CARTESIAN_POINT('',(7.84826316272E-02,12.455332612112));
#384 = CARTESIAN_POINT('',(7.515728123262E-02,12.564057936714));
#385 = CARTESIAN_POINT('',(7.09668130933E-02,12.668247814113));
#386 = CARTESIAN_POINT('',(5.991591559149E-02,12.881485004348));
#387 = CARTESIAN_POINT('',(5.257321169942E-02,12.990769487483));
#388 = CARTESIAN_POINT('',(4.388616890154E-02,13.087422771672));
#389 = CARTESIAN_POINT('',(3.40068142415E-02,13.165765539431));
#390 = CARTESIAN_POINT('',(2.31813456312E-02,13.221138733607));
#391 = CARTESIAN_POINT('',(1.172329174229E-02,13.25));
#392 = CARTESIAN_POINT('',(0.,13.25));
#393 = ( GEOMETRIC_REPRESENTATION_CONTEXT(2) 
PARAMETRIC_REPRESENTATION_CONTEXT() REPRESENTATION_CONTEXT('2D SPACE',''
  ) );
#394 = PCURVE('',#243,#395);
#395 = DEFINITIONAL_REPRESENTATION('',(#396),#423);
#396 = B_SPLINE_CURVE_WITH_KNOTS('',7,(#397,#398,#399,#400,#401,#402,
    #403,#404,#405,#406,#407,#408,#409,#410,#411,#412,#413,#414,#415,
    #416,#417,#418,#419,#420,#421,#422),.UNSPECIFIED.,.F.,.F.,(8,6,6,6,8
    ),(0.,0.270541215508,0.500044767402,0.729547976109,1.),
  .UNSPECIFIED.);
#397 = CARTESIAN_POINT('',(-3.14159265359,-3.5));
#398 = CARTESIAN_POINT('',(-3.282329358467,-3.5));
#399 = CARTESIAN_POINT('',(-3.41983370746,-3.497592866487));
#400 = CARTESIAN_POINT('',(-3.554234050245,-3.492978040553));
#401 = CARTESIAN_POINT('',(-3.685378923599,-3.486797693673));
#402 = CARTESIAN_POINT('',(-3.812850803642,-3.479981035135));
#403 = CARTESIAN_POINT('',(-3.935826492633,-3.47335315687));
#404 = CARTESIAN_POINT('',(-4.151761226373,-3.462436196599));
#405 = CARTESIAN_POINT('',(-4.248361300338,-3.457847880383));
#406 = CARTESIAN_POINT('',(-4.343058324678,-3.453946665725));
#407 = CARTESIAN_POINT('',(-4.43634757665,-3.450912295519));
#408 = CARTESIAN_POINT('',(-4.528687149462,-3.448854830391));
#409 = CARTESIAN_POINT('',(-4.620540293495,-3.447825928877));
#410 = CARTESIAN_POINT('',(-4.804237529928,-3.447825928877));
#411 = CARTESIAN_POINT('',(-4.896090059088,-3.448854827317));
#412 = CARTESIAN_POINT('',(-4.988429531779,-3.45091226639));
#413 = CARTESIAN_POINT('',(-5.08171928764,-3.453946638236));
#414 = CARTESIAN_POINT('',(-5.176417154905,-3.457847898299));
#415 = CARTESIAN_POINT('',(-5.273017817683,-3.462436251366));
#416 = CARTESIAN_POINT('',(-5.48891185052,-3.473351153931));
#417 = CARTESIAN_POINT('',(-5.611900984325,-3.479979430706));
#418 = CARTESIAN_POINT('',(-5.73940705632,-3.486798456691));
#419 = CARTESIAN_POINT('',(-5.870587478708,-3.492980793245));
#420 = CARTESIAN_POINT('',(-6.005009241282,-3.497594822071));
#421 = CARTESIAN_POINT('',(-6.142505806272,-3.5));
#422 = CARTESIAN_POINT('',(-6.28318530718,-3.5));
#423 = ( GEOMETRIC_REPRESENTATION_CONTEXT(2) 
PARAMETRIC_REPRESENTATION_CONTEXT() REPRESENTATION_CONTEXT('2D SPACE',''
  ) );
#424 = ADVANCED_FACE('',(#425),#126,.F.);
#425 = FACE_BOUND('',#426,.T.);
#426 = EDGE_LOOP('',(#427,#456,#477,#478));
#427 = ORIENTED_EDGE('',*,*,#428,.T.);
#428 = EDGE_CURVE('',#429,#429,#431,.T.);
#429 = VERTEX_POINT('',#430);
#430 = CARTESIAN_POINT('',(0.5,12.5,0.));
#431 = SURFACE_CURVE('',#432,(#437,#444),.PCURVE_S1.);
#432 = CIRCLE('',#433,12.5);
#433 = AXIS2_PLACEMENT_3D('',#434,#435,#436);
#434 = CARTESIAN_POINT('',(0.5,0.,0.));
#435 = DIRECTION('',(1.,0.,0.));
#436 = DIRECTION('',(-0.,1.,0.));
#437 = PCURVE('',#126,#438);
#438 = DEFINITIONAL_REPRESENTATION('',(#439),#443);
#439 = LINE('',#440,#441);
#440 = CARTESIAN_POINT('',(-0.,0.));
#441 = VECTOR('',#442,1.);
#442 = DIRECTION('',(-1.,0.));
#443 = ( GEOMETRIC_REPRESENTATION_CONTEXT(2) 
PARAMETRIC_REPRESENTATION_CONTEXT() REPRESENTATION_CONTEXT('2D SPACE',''
  ) );
#444 = PCURVE('',#445,#450);
#445 = CYLINDRICAL_SURFACE('',#446,12.5);
#446 = AXIS2_PLACEMENT_3D('',#447,#448,#449);
#447 = CARTESIAN_POINT('',(24.5,0.,0.));
#448 = DIRECTION('',(-1.,-0.,-0.));
#449 = DIRECTION('',(0.,1.,0.));
#450 = DEFINITIONAL_REPRESENTATION('',(#451),#455);
#451 = LINE('',#452,#453);
#452 = CARTESIAN_POINT('',(-0.,24.));
#453 = VECTOR('',#454,1.);
#454 = DIRECTION('',(-1.,0.));
#455 = ( GEOMETRIC_REPRESENTATION_CONTEXT(2) 
PARAMETRIC_REPRESENTATION_CONTEXT() REPRESENTATION_CONTEXT('2D SPACE',''
  ) );
#456 = ORIENTED_EDGE('',*,*,#457,.T.);
#457 = EDGE_CURVE('',#429,#110,#458,.T.);
#458 = SEAM_CURVE('',#459,(#463,#470),.PCURVE_S1.);
#459 = LINE('',#460,#461);
#460 = CARTESIAN_POINT('',(0.5,12.5,0.));
#461 = VECTOR('',#462,1.);
#462 = DIRECTION('',(-0.707106781187,0.707106781187,0.));
#463 = PCURVE('',#126,#464);
#464 = DEFINITIONAL_REPRESENTATION('',(#465),#469);
#465 = LINE('',#466,#467);
#466 = CARTESIAN_POINT('',(-0.,0.));
#467 = VECTOR('',#468,1.);
#468 = DIRECTION('',(-0.,1.));
#469 = ( GEOMETRIC_REPRESENTATION_CONTEXT(2) 
PARAMETRIC_REPRESENTATION_CONTEXT() REPRESENTATION_CONTEXT('2D SPACE',''
  ) );
#470 = PCURVE('',#126,#471);
#471 = DEFINITIONAL_REPRESENTATION('',(#472),#476);
#472 = LINE('',#473,#474);
#473 = CARTESIAN_POINT('',(-6.28318530718,0.));
#474 = VECTOR('',#475,1.);
#475 = DIRECTION('',(-0.,1.));
#476 = ( GEOMETRIC_REPRESENTATION_CONTEXT(2) 
PARAMETRIC_REPRESENTATION_CONTEXT() REPRESENTATION_CONTEXT('2D SPACE',''
  ) );
#477 = ORIENTED_EDGE('',*,*,#109,.F.);
#478 = ORIENTED_EDGE('',*,*,#457,.F.);
#479 = ADVANCED_FACE('',(#480),#243,.F.);
#480 = FACE_BOUND('',#481,.T.);
#481 = EDGE_LOOP('',(#482,#594,#615,#616,#617,#618));
#482 = ORIENTED_EDGE('',*,*,#483,.F.);
#483 = EDGE_CURVE('',#484,#486,#488,.T.);
#484 = VERTEX_POINT('',#485);
#485 = CARTESIAN_POINT('',(13.75,12.5,6.938893903907E-16));
#486 = VERTEX_POINT('',#487);
#487 = CARTESIAN_POINT('',(11.25,12.5,0.));
#488 = SURFACE_CURVE('',#489,(#522,#558),.PCURVE_S1.);
#489 = B_SPLINE_CURVE_WITH_KNOTS('',7,(#490,#491,#492,#493,#494,#495,
    #496,#497,#498,#499,#500,#501,#502,#503,#504,#505,#506,#507,#508,
    #509,#510,#511,#512,#513,#514,#515,#516,#517,#518,#519,#520,#521),
  .UNSPECIFIED.,.F.,.F.,(8,6,6,6,6,8),(0.,0.269846091082,0.498660087594,
    0.727471428674,0.883907295441,1.),.UNSPECIFIED.);
#490 = CARTESIAN_POINT('',(13.75,12.5,-2.22044604925E-16));
#491 = CARTESIAN_POINT('',(13.75,12.5,-0.175939043972));
#492 = CARTESIAN_POINT('',(13.721109292766,12.497110831968,
    -0.347814314022));
#493 = CARTESIAN_POINT('',(13.665728752929,12.491573311592,
    -0.510107156561));
#494 = CARTESIAN_POINT('',(13.587412931997,12.484156656727,
    -0.65812650308));
#495 = CARTESIAN_POINT('',(13.490802732724,12.475972802996,
    -0.788225715391));
#496 = CARTESIAN_POINT('',(13.381539792818,12.468012841395,
    -0.898175714626));
#497 = CARTESIAN_POINT('',(13.168276173743,12.454900767377,
    -1.063599934395));
#498 = CARTESIAN_POINT('',(13.064108321628,12.449389252561,
    -1.126284335672));
#499 = CARTESIAN_POINT('',(12.955393471126,12.444701240792,
    -1.17601711791));
#500 = CARTESIAN_POINT('',(12.843529165557,12.441053706857,
    -1.213076344999));
#501 = CARTESIAN_POINT('',(12.729669405802,12.43858001763,
    -1.237692296281));
#502 = CARTESIAN_POINT('',(12.614833265961,12.437342963833,-1.25));
#503 = CARTESIAN_POINT('',(12.385168066702,12.437342963833,-1.25));
#504 = CARTESIAN_POINT('',(12.27033249507,12.438580001359,
    -1.237692565227));
#505 = CARTESIAN_POINT('',(12.156472147685,12.441053643421,
    -1.213076893736));
#506 = CARTESIAN_POINT('',(12.044606406535,12.444701205116,
    -1.176017469874));
#507 = CARTESIAN_POINT('',(11.935890106861,12.449389321629,
    -1.126283783696));
#508 = CARTESIAN_POINT('',(11.831721919677,12.454900884599,-1.0635984555
    ));
#509 = CARTESIAN_POINT('',(11.666963262286,12.465030731031,
    -0.935798540694));
#510 = CARTESIAN_POINT('',(11.602878750118,12.469388330618,
    -0.877621270488));
#511 = CARTESIAN_POINT('',(11.542390970157,12.473878344997,
    -0.813181453344));
#512 = CARTESIAN_POINT('',(11.486300211607,12.478362779137,
    -0.742588732684));
#513 = CARTESIAN_POINT('',(11.435430929485,12.482681879928,
    -0.666045301381));
#514 = CARTESIAN_POINT('',(11.390636526704,12.486663617405,
    -0.583854393504));
#515 = CARTESIAN_POINT('',(11.324732818294,12.492716736298,
    -0.431559909083));
#516 = CARTESIAN_POINT('',(11.300497320153,12.495016012124,
    -0.36381175221));
#517 = CARTESIAN_POINT('',(11.28058785503,12.496954148197,
    -0.293652052685));
#518 = CARTESIAN_POINT('',(11.265380114433,12.4984616912,-0.221607377199
    ));
#519 = CARTESIAN_POINT('',(11.25513570439,12.499486729166,
    -0.148250019977));
#520 = CARTESIAN_POINT('',(11.25,12.5,-7.417882362893E-02));
#521 = CARTESIAN_POINT('',(11.25,12.5,0.));
#522 = PCURVE('',#243,#523);
#523 = DEFINITIONAL_REPRESENTATION('',(#524),#557);
#524 = B_SPLINE_CURVE_WITH_KNOTS('',7,(#525,#526,#527,#528,#529,#530,
    #531,#532,#533,#534,#535,#536,#537,#538,#539,#540,#541,#542,#543,
    #544,#545,#546,#547,#548,#549,#550,#551,#552,#553,#554,#555,#556),
  .UNSPECIFIED.,.F.,.F.,(8,6,6,6,6,8),(0.,0.269846091082,0.498660087594,
    0.727471428674,0.883907295441,1.),.UNSPECIFIED.);
#525 = CARTESIAN_POINT('',(8.881784197001E-16,-1.));
#526 = CARTESIAN_POINT('',(-0.140751235178,-1.));
#527 = CARTESIAN_POINT('',(-0.278251431443,-0.997110831968));
#528 = CARTESIAN_POINT('',(-0.412640028527,-0.991573311592));
#529 = CARTESIAN_POINT('',(-0.543773150299,-0.984156656727));
#530 = CARTESIAN_POINT('',(-0.67123893452,-0.975972802996));
#531 = CARTESIAN_POINT('',(-0.794217985549,-0.968012841395));
#532 = CARTESIAN_POINT('',(-1.010138776518,-0.954900767377));
#533 = CARTESIAN_POINT('',(-1.106722350966,-0.949389252561));
#534 = CARTESIAN_POINT('',(-1.201414406798,-0.944701240792));
#535 = CARTESIAN_POINT('',(-1.294708431349,-0.941053706857));
#536 = CARTESIAN_POINT('',(-1.387060111183,-0.93858001763));
#537 = CARTESIAN_POINT('',(-1.478929714026,-0.937342963833));
#538 = CARTESIAN_POINT('',(-1.662661873433,-0.937342963833));
#539 = CARTESIAN_POINT('',(-1.754531099093,-0.938580001359));
#540 = CARTESIAN_POINT('',(-1.846883100578,-0.941053643421));
#541 = CARTESIAN_POINT('',(-1.940178178248,-0.944701205116));
#542 = CARTESIAN_POINT('',(-2.034871613333,-0.949389321629));
#543 = CARTESIAN_POINT('',(-2.131455807407,-0.954900884599));
#544 = CARTESIAN_POINT('',(-2.298267285975,-0.965030731031));
#545 = CARTESIAN_POINT('',(-2.367302513716,-0.969388330618));
#546 = CARTESIAN_POINT('',(-2.43764221529,-0.973878344997));
#547 = CARTESIAN_POINT('',(-2.509322627808,-0.978362779137));
#548 = CARTESIAN_POINT('',(-2.582405709568,-0.982681879928));
#549 = CARTESIAN_POINT('',(-2.656982643025,-0.986663617405));
#550 = CARTESIAN_POINT('',(-2.789736632084,-0.992716736298));
#551 = CARTESIAN_POINT('',(-2.847177555041,-0.995016012124));
#552 = CARTESIAN_POINT('',(-2.905310238173,-0.996954148197));
#553 = CARTESIAN_POINT('',(-2.963965434725,-0.9984616912));
#554 = CARTESIAN_POINT('',(-3.022992582307,-0.999486729166));
#555 = CARTESIAN_POINT('',(-3.082249594687,-1.));
#556 = CARTESIAN_POINT('',(-3.14159265359,-1.));
#557 = ( GEOMETRIC_REPRESENTATION_CONTEXT(2) 
PARAMETRIC_REPRESENTATION_CONTEXT() REPRESENTATION_CONTEXT('2D SPACE',''
  ) );
#558 = PCURVE('',#445,#559);
#559 = DEFINITIONAL_REPRESENTATION('',(#560),#593);
#560 = B_SPLINE_CURVE_WITH_KNOTS('',7,(#561,#562,#563,#564,#565,#566,
    #567,#568,#569,#570,#571,#572,#573,#574,#575,#576,#577,#578,#579,
    #580,#581,#582,#583,#584,#585,#586,#587,#588,#589,#590,#591,#592),
  .UNSPECIFIED.,.F.,.F.,(8,6,6,6,6,8),(0.,0.269846091082,0.498660087594,
    0.727471428674,0.883907295441,1.),.UNSPECIFIED.);
#561 = CARTESIAN_POINT('',(-6.28318530718,10.75));
#562 = CARTESIAN_POINT('',(-6.269110183662,10.75));
#563 = CARTESIAN_POINT('',(-6.25536015496,10.778890707234));
#564 = CARTESIAN_POINT('',(-6.242372212697,10.834271247071));
#565 = CARTESIAN_POINT('',(-6.230517831278,10.912587068003));
#566 = CARTESIAN_POINT('',(-6.220090066939,11.009197267276));
#567 = CARTESIAN_POINT('',(-6.211271257883,11.118460207182));
#568 = CARTESIAN_POINT('',(-6.197995813129,11.331723826257));
#569 = CARTESIAN_POINT('',(-6.192961899627,11.435891678372));
#570 = CARTESIAN_POINT('',(-6.188965716781,11.544606528874));
#571 = CARTESIAN_POINT('',(-6.185986656046,11.656470834443));
#572 = CARTESIAN_POINT('',(-6.184007463961,11.770330594198));
#573 = CARTESIAN_POINT('',(-6.183017886018,11.885166734039));
#574 = CARTESIAN_POINT('',(-6.183017886018,12.114831933298));
#575 = CARTESIAN_POINT('',(-6.184007442494,12.22966750493));
#576 = CARTESIAN_POINT('',(-6.185986611832,12.343527852315));
#577 = CARTESIAN_POINT('',(-6.188965688422,12.455393593465));
#578 = CARTESIAN_POINT('',(-6.192961944146,12.564109893138));
#579 = CARTESIAN_POINT('',(-6.197995931811,12.668278080323));
#580 = CARTESIAN_POINT('',(-6.208251991722,12.833036737714));
#581 = CARTESIAN_POINT('',(-6.212919166321,12.897121249882));
#582 = CARTESIAN_POINT('',(-6.218086736012,12.957609029843));
#583 = CARTESIAN_POINT('',(-6.22374532277,13.013699788393));
#584 = CARTESIAN_POINT('',(-6.229878251101,13.064569070515));
#585 = CARTESIAN_POINT('',(-6.23646098628,13.109363473296));
#586 = CARTESIAN_POINT('',(-6.248654164762,13.175267181706));
#587 = CARTESIAN_POINT('',(-6.254077048995,13.199502679847));
#588 = CARTESIAN_POINT('',(-6.25969177873,13.21941214497));
#589 = CARTESIAN_POINT('',(-6.2654563737,13.234619885567));
#590 = CARTESIAN_POINT('',(-6.271325308188,13.24486429561));
#591 = CARTESIAN_POINT('',(-6.277251001289,13.25));
#592 = CARTESIAN_POINT('',(-6.28318530718,13.25));
#593 = ( GEOMETRIC_REPRESENTATION_CONTEXT(2) 
PARAMETRIC_REPRESENTATION_CONTEXT() REPRESENTATION_CONTEXT('2D SPACE',''
  ) );
#594 = ORIENTED_EDGE('',*,*,#595,.T.);
#595 = EDGE_CURVE('',#484,#170,#596,.T.);
#596 = SEAM_CURVE('',#597,(#601,#608),.PCURVE_S1.);
#597 = LINE('',#598,#599);
#598 = CARTESIAN_POINT('',(13.75,11.5,1.276756478319E-15));
#599 = VECTOR('',#600,1.);
#600 = DIRECTION('',(0.,1.,1.110223024625E-16));
#601 = PCURVE('',#243,#602);
#602 = DEFINITIONAL_REPRESENTATION('',(#603),#607);
#603 = LINE('',#604,#605);
#604 = CARTESIAN_POINT('',(-6.28318530718,0.));
#605 = VECTOR('',#606,1.);
#606 = DIRECTION('',(-0.,-1.));
#607 = ( GEOMETRIC_REPRESENTATION_CONTEXT(2) 
PARAMETRIC_REPRESENTATION_CONTEXT() REPRESENTATION_CONTEXT('2D SPACE',''
  ) );
#608 = PCURVE('',#243,#609);
#609 = DEFINITIONAL_REPRESENTATION('',(#610),#614);
#610 = LINE('',#611,#612);
#611 = CARTESIAN_POINT('',(-0.,0.));
#612 = VECTOR('',#613,1.);
#613 = DIRECTION('',(-0.,-1.));
#614 = ( GEOMETRIC_REPRESENTATION_CONTEXT(2) 
PARAMETRIC_REPRESENTATION_CONTEXT() REPRESENTATION_CONTEXT('2D SPACE',''
  ) );
#615 = ORIENTED_EDGE('',*,*,#169,.T.);
#616 = ORIENTED_EDGE('',*,*,#335,.T.);
#617 = ORIENTED_EDGE('',*,*,#595,.F.);
#618 = ORIENTED_EDGE('',*,*,#619,.F.);
#619 = EDGE_CURVE('',#486,#484,#620,.T.);
#620 = SURFACE_CURVE('',#621,(#648,#678),.PCURVE_S1.);
#621 = B_SPLINE_CURVE_WITH_KNOTS('',7,(#622,#623,#624,#625,#626,#627,
    #628,#629,#630,#631,#632,#633,#634,#635,#636,#637,#638,#639,#640,
    #641,#642,#643,#644,#645,#646,#647),.UNSPECIFIED.,.F.,.F.,(8,6,6,6,8
    ),(0.,0.27059852237,0.500046066969,0.729493611568,1.),
  .UNSPECIFIED.);
#622 = CARTESIAN_POINT('',(11.25,12.5,1.450016233913E-15));
#623 = CARTESIAN_POINT('',(11.25,12.5,0.175939044141));
#624 = CARTESIAN_POINT('',(11.278890707267,12.497110831966,
    0.347814313668));
#625 = CARTESIAN_POINT('',(11.334271246934,12.491573311603,0.51010715679
    ));
#626 = CARTESIAN_POINT('',(11.412587068188,12.484156656712,
    0.658126503094));
#627 = CARTESIAN_POINT('',(11.509197267191,12.475972803003,
    0.788225715343));
#628 = CARTESIAN_POINT('',(11.618460207183,12.468012841395,
    0.898175714627));
#629 = CARTESIAN_POINT('',(11.831721919677,12.454900884599,1.0635984555)
  );
#630 = CARTESIAN_POINT('',(11.935890106862,12.449389321629,
    1.126283783696));
#631 = CARTESIAN_POINT('',(12.044606406535,12.444701205116,
    1.176017469874));
#632 = CARTESIAN_POINT('',(12.156472147685,12.441053643421,
    1.213076893736));
#633 = CARTESIAN_POINT('',(12.27033249507,12.438580001359,1.237692565227
    ));
#634 = CARTESIAN_POINT('',(12.385168066702,12.437342963833,1.25));
#635 = CARTESIAN_POINT('',(12.614831933298,12.437342963833,1.25));
#636 = CARTESIAN_POINT('',(12.72966750493,12.438580001359,1.237692565227
    ));
#637 = CARTESIAN_POINT('',(12.843527852315,12.441053643421,
    1.213076893736));
#638 = CARTESIAN_POINT('',(12.955393593465,12.444701205116,
    1.176017469874));
#639 = CARTESIAN_POINT('',(13.064109893139,12.449389321629,
    1.126283783696));
#640 = CARTESIAN_POINT('',(13.168278080323,12.454900884599,1.0635984555)
  );
#641 = CARTESIAN_POINT('',(13.381500499155,12.468010425505,
    0.898206193916));
#642 = CARTESIAN_POINT('',(13.490785169118,12.475970874622,
    0.788256525449));
#643 = CARTESIAN_POINT('',(13.587429134555,12.484157574867,
    0.658125472202));
#644 = CARTESIAN_POINT('',(13.66576187399,12.491576630259,0.510059441042
    ));
#645 = CARTESIAN_POINT('',(13.7211328546,12.497113187932,0.347732657633)
  );
#646 = CARTESIAN_POINT('',(13.75,12.5,0.175867304323));
#647 = CARTESIAN_POINT('',(13.75,12.5,1.402081752597E-15));
#648 = PCURVE('',#243,#649);
#649 = DEFINITIONAL_REPRESENTATION('',(#650),#677);
#650 = B_SPLINE_CURVE_WITH_KNOTS('',7,(#651,#652,#653,#654,#655,#656,
    #657,#658,#659,#660,#661,#662,#663,#664,#665,#666,#667,#668,#669,
    #670,#671,#672,#673,#674,#675,#676),.UNSPECIFIED.,.F.,.F.,(8,6,6,6,8
    ),(0.,0.27059852237,0.500046066969,0.729493611568,1.),
  .UNSPECIFIED.);
#651 = CARTESIAN_POINT('',(-3.14159265359,-1.));
#652 = CARTESIAN_POINT('',(-3.282343888903,-1.));
#653 = CARTESIAN_POINT('',(-3.419844084758,-0.997110831966));
#654 = CARTESIAN_POINT('',(-3.554232682266,-0.991573311603));
#655 = CARTESIAN_POINT('',(-3.685365803946,-0.984156656712));
#656 = CARTESIAN_POINT('',(-3.812831588049,-0.975972803003));
#657 = CARTESIAN_POINT('',(-3.93581063914,-0.968012841395));
#658 = CARTESIAN_POINT('',(-4.151729499773,-0.954900884599));
#659 = CARTESIAN_POINT('',(-4.248313693847,-0.949389321629));
#660 = CARTESIAN_POINT('',(-4.343007128931,-0.944701205116));
#661 = CARTESIAN_POINT('',(-4.436302206602,-0.941053643421));
#662 = CARTESIAN_POINT('',(-4.528654208087,-0.938580001359));
#663 = CARTESIAN_POINT('',(-4.620523433747,-0.937342963833));
#664 = CARTESIAN_POINT('',(-4.804254527023,-0.937342963833));
#665 = CARTESIAN_POINT('',(-4.896123752682,-0.938580001359));
#666 = CARTESIAN_POINT('',(-4.988475754167,-0.941053643421));
#667 = CARTESIAN_POINT('',(-5.081770831838,-0.944701205116));
#668 = CARTESIAN_POINT('',(-5.176464266922,-0.949389321629));
#669 = CARTESIAN_POINT('',(-5.273048460997,-0.954900884599));
#670 = CARTESIAN_POINT('',(-5.488927538385,-0.968010425505));
#671 = CARTESIAN_POINT('',(-5.611920170366,-0.975970874622));
#672 = CARTESIAN_POINT('',(-5.73942020481,-0.984157574867));
#673 = CARTESIAN_POINT('',(-5.870588973746,-0.991576630259));
#674 = CARTESIAN_POINT('',(-6.004999209921,-0.997113187932));
#675 = CARTESIAN_POINT('',(-6.142491463721,-1.));
#676 = CARTESIAN_POINT('',(-6.28318530718,-1.));
#677 = ( GEOMETRIC_REPRESENTATION_CONTEXT(2) 
PARAMETRIC_REPRESENTATION_CONTEXT() REPRESENTATION_CONTEXT('2D SPACE',''
  ) );
#678 = PCURVE('',#445,#679);
#679 = DEFINITIONAL_REPRESENTATION('',(#680),#707);
#680 = B_SPLINE_CURVE_WITH_KNOTS('',7,(#681,#682,#683,#684,#685,#686,
    #687,#688,#689,#690,#691,#692,#693,#694,#695,#696,#697,#698,#699,
    #700,#701,#702,#703,#704,#705,#706),.UNSPECIFIED.,.F.,.F.,(8,6,6,6,8
    ),(0.,0.27059852237,0.500046066969,0.729493611568,1.),
  .UNSPECIFIED.);
#681 = CARTESIAN_POINT('',(0.,13.25));
#682 = CARTESIAN_POINT('',(-1.407512353128E-02,13.25));
#683 = CARTESIAN_POINT('',(-2.782515219084E-02,13.221109292733));
#684 = CARTESIAN_POINT('',(-4.081309450102E-02,13.165728753066));
#685 = CARTESIAN_POINT('',(-5.266747590253E-02,13.087412931812));
#686 = CARTESIAN_POINT('',(-6.309524023678E-02,12.990802732809));
#687 = CARTESIAN_POINT('',(-7.191404929701E-02,12.881539792817));
#688 = CARTESIAN_POINT('',(-8.518937536825E-02,12.668278080323));
#689 = CARTESIAN_POINT('',(-9.022336303356E-02,12.564109893138));
#690 = CARTESIAN_POINT('',(-9.421961875788E-02,12.455393593465));
#691 = CARTESIAN_POINT('',(-9.719869534807E-02,12.343527852315));
#692 = CARTESIAN_POINT('',(-9.917786468601E-02,12.22966750493));
#693 = CARTESIAN_POINT('',(-0.100167421162,12.114831933298));
#694 = CARTESIAN_POINT('',(-0.100167421162,11.885168066702));
#695 = CARTESIAN_POINT('',(-9.917786468601E-02,11.77033249507));
#696 = CARTESIAN_POINT('',(-9.719869534807E-02,11.656472147685));
#697 = CARTESIAN_POINT('',(-9.421961875788E-02,11.544606406535));
#698 = CARTESIAN_POINT('',(-9.022336303356E-02,11.435890106861));
#699 = CARTESIAN_POINT('',(-8.518937536825E-02,11.331721919677));
#700 = CARTESIAN_POINT('',(-7.191649528779E-02,11.118499500845));
#701 = CARTESIAN_POINT('',(-6.309770970917E-02,11.009214830882));
#702 = CARTESIAN_POINT('',(-5.266738777384E-02,10.912570865445));
#703 = CARTESIAN_POINT('',(-4.080927124282E-02,10.83423812601));
#704 = CARTESIAN_POINT('',(-2.781861972159E-02,10.7788671454));
#705 = CARTESIAN_POINT('',(-1.406938434582E-02,10.75));
#706 = CARTESIAN_POINT('',(0.,10.75));
#707 = ( GEOMETRIC_REPRESENTATION_CONTEXT(2) 
PARAMETRIC_REPRESENTATION_CONTEXT() REPRESENTATION_CONTEXT('2D SPACE',''
  ) );
#708 = ADVANCED_FACE('',(#709),#322,.T.);
#709 = FACE_BOUND('',#710,.T.);
#710 = EDGE_LOOP('',(#711,#712,#735,#762));
#711 = ORIENTED_EDGE('',*,*,#307,.T.);
#712 = ORIENTED_EDGE('',*,*,#713,.T.);
#713 = EDGE_CURVE('',#285,#714,#716,.T.);
#714 = VERTEX_POINT('',#715);
#715 = CARTESIAN_POINT('',(25.,14.5,0.));
#716 = SEAM_CURVE('',#717,(#721,#728),.PCURVE_S1.);
#717 = LINE('',#718,#719);
#718 = CARTESIAN_POINT('',(24.5,15.,0.));
#719 = VECTOR('',#720,1.);
#720 = DIRECTION('',(0.707106781187,-0.707106781187,0.));
#721 = PCURVE('',#322,#722);
#722 = DEFINITIONAL_REPRESENTATION('',(#723),#727);
#723 = LINE('',#724,#725);
#724 = CARTESIAN_POINT('',(-0.,-0.));
#725 = VECTOR('',#726,1.);
#726 = DIRECTION('',(-0.,-1.));
#727 = ( GEOMETRIC_REPRESENTATION_CONTEXT(2) 
PARAMETRIC_REPRESENTATION_CONTEXT() REPRESENTATION_CONTEXT('2D SPACE',''
  ) );
#728 = PCURVE('',#322,#729);
#729 = DEFINITIONAL_REPRESENTATION('',(#730),#734);
#730 = LINE('',#731,#732);
#731 = CARTESIAN_POINT('',(-6.28318530718,-0.));
#732 = VECTOR('',#733,1.);
#733 = DIRECTION('',(-0.,-1.));
#734 = ( GEOMETRIC_REPRESENTATION_CONTEXT(2) 
PARAMETRIC_REPRESENTATION_CONTEXT() REPRESENTATION_CONTEXT('2D SPACE',''
  ) );
#735 = ORIENTED_EDGE('',*,*,#736,.F.);
#736 = EDGE_CURVE('',#714,#714,#737,.T.);
#737 = SURFACE_CURVE('',#738,(#743,#750),.PCURVE_S1.);
#738 = CIRCLE('',#739,14.5);
#739 = AXIS2_PLACEMENT_3D('',#740,#741,#742);
#740 = CARTESIAN_POINT('',(25.,0.,0.));
#741 = DIRECTION('',(1.,0.,0.));
#742 = DIRECTION('',(-0.,1.,0.));
#743 = PCURVE('',#322,#744);
#744 = DEFINITIONAL_REPRESENTATION('',(#745),#749);
#745 = LINE('',#746,#747);
#746 = CARTESIAN_POINT('',(-0.,-0.5));
#747 = VECTOR('',#748,1.);
#748 = DIRECTION('',(-1.,-0.));
#749 = ( GEOMETRIC_REPRESENTATION_CONTEXT(2) 
PARAMETRIC_REPRESENTATION_CONTEXT() REPRESENTATION_CONTEXT('2D SPACE',''
  ) );
#750 = PCURVE('',#751,#756);
#751 = PLANE('',#752);
#752 = AXIS2_PLACEMENT_3D('',#753,#754,#755);
#753 = CARTESIAN_POINT('',(25.,0.,0.));
#754 = DIRECTION('',(1.,0.,0.));
#755 = DIRECTION('',(-0.,1.,0.));
#756 = DEFINITIONAL_REPRESENTATION('',(#757),#761);
#757 = CIRCLE('',#758,14.5);
#758 = AXIS2_PLACEMENT_2D('',#759,#760);
#759 = CARTESIAN_POINT('',(0.,0.));
#760 = DIRECTION('',(1.,0.));
#761 = ( GEOMETRIC_REPRESENTATION_CONTEXT(2) 
PARAMETRIC_REPRESENTATION_CONTEXT() REPRESENTATION_CONTEXT('2D SPACE',''
  ) );
#762 = ORIENTED_EDGE('',*,*,#713,.F.);
#763 = ADVANCED_FACE('',(#764),#445,.F.);
#764 = FACE_BOUND('',#765,.T.);
#765 = EDGE_LOOP('',(#766,#789,#816,#817,#818,#839,#840,#841));
#766 = ORIENTED_EDGE('',*,*,#767,.F.);
#767 = EDGE_CURVE('',#768,#484,#770,.T.);
#768 = VERTEX_POINT('',#769);
#769 = CARTESIAN_POINT('',(24.5,12.5,0.));
#770 = SEAM_CURVE('',#771,(#775,#782),.PCURVE_S1.);
#771 = LINE('',#772,#773);
#772 = CARTESIAN_POINT('',(24.5,12.5,0.));
#773 = VECTOR('',#774,1.);
#774 = DIRECTION('',(-1.,0.,0.));
#775 = PCURVE('',#445,#776);
#776 = DEFINITIONAL_REPRESENTATION('',(#777),#781);
#777 = LINE('',#778,#779);
#778 = CARTESIAN_POINT('',(-0.,0.));
#779 = VECTOR('',#780,1.);
#780 = DIRECTION('',(-0.,1.));
#781 = ( GEOMETRIC_REPRESENTATION_CONTEXT(2) 
PARAMETRIC_REPRESENTATION_CONTEXT() REPRESENTATION_CONTEXT('2D SPACE',''
  ) );
#782 = PCURVE('',#445,#783);
#783 = DEFINITIONAL_REPRESENTATION('',(#784),#788);
#784 = LINE('',#785,#786);
#785 = CARTESIAN_POINT('',(-6.28318530718,0.));
#786 = VECTOR('',#787,1.);
#787 = DIRECTION('',(-0.,1.));
#788 = ( GEOMETRIC_REPRESENTATION_CONTEXT(2) 
PARAMETRIC_REPRESENTATION_CONTEXT() REPRESENTATION_CONTEXT('2D SPACE',''
  ) );
#789 = ORIENTED_EDGE('',*,*,#790,.T.);
#790 = EDGE_CURVE('',#768,#768,#791,.T.);
#791 = SURFACE_CURVE('',#792,(#797,#804),.PCURVE_S1.);
#792 = CIRCLE('',#793,12.5);
#793 = AXIS2_PLACEMENT_3D('',#794,#795,#796);
#794 = CARTESIAN_POINT('',(24.5,0.,0.));
#795 = DIRECTION('',(1.,0.,0.));
#796 = DIRECTION('',(-0.,1.,0.));
#797 = PCURVE('',#445,#798);
#798 = DEFINITIONAL_REPRESENTATION('',(#799),#803);
#799 = LINE('',#800,#801);
#800 = CARTESIAN_POINT('',(-0.,0.));
#801 = VECTOR('',#802,1.);
#802 = DIRECTION('',(-1.,0.));
#803 = ( GEOMETRIC_REPRESENTATION_CONTEXT(2) 
PARAMETRIC_REPRESENTATION_CONTEXT() REPRESENTATION_CONTEXT('2D SPACE',''
  ) );
#804 = PCURVE('',#805,#810);
#805 = CONICAL_SURFACE('',#806,13.,0.785398163397);
#806 = AXIS2_PLACEMENT_3D('',#807,#808,#809);
#807 = CARTESIAN_POINT('',(25.,0.,0.));
#808 = DIRECTION('',(1.,0.,0.));
#809 = DIRECTION('',(0.,1.,0.));
#810 = DEFINITIONAL_REPRESENTATION('',(#811),#815);
#811 = LINE('',#812,#813);
#812 = CARTESIAN_POINT('',(0.,-0.5));
#813 = VECTOR('',#814,1.);
#814 = DIRECTION('',(1.,-0.));
#815 = ( GEOMETRIC_REPRESENTATION_CONTEXT(2) 
PARAMETRIC_REPRESENTATION_CONTEXT() REPRESENTATION_CONTEXT('2D SPACE',''
  ) );
#816 = ORIENTED_EDGE('',*,*,#767,.T.);
#817 = ORIENTED_EDGE('',*,*,#483,.T.);
#818 = ORIENTED_EDGE('',*,*,#819,.T.);
#819 = EDGE_CURVE('',#486,#429,#820,.T.);
#820 = SEAM_CURVE('',#821,(#825,#832),.PCURVE_S1.);
#821 = LINE('',#822,#823);
#822 = CARTESIAN_POINT('',(24.5,12.5,0.));
#823 = VECTOR('',#824,1.);
#824 = DIRECTION('',(-1.,0.,0.));
#825 = PCURVE('',#445,#826);
#826 = DEFINITIONAL_REPRESENTATION('',(#827),#831);
#827 = LINE('',#828,#829);
#828 = CARTESIAN_POINT('',(-0.,0.));
#829 = VECTOR('',#830,1.);
#830 = DIRECTION('',(-0.,1.));
#831 = ( GEOMETRIC_REPRESENTATION_CONTEXT(2) 
PARAMETRIC_REPRESENTATION_CONTEXT() REPRESENTATION_CONTEXT('2D SPACE',''
  ) );
#832 = PCURVE('',#445,#833);
#833 = DEFINITIONAL_REPRESENTATION('',(#834),#838);
#834 = LINE('',#835,#836);
#835 = CARTESIAN_POINT('',(-6.28318530718,0.));
#836 = VECTOR('',#837,1.);
#837 = DIRECTION('',(-0.,1.));
#838 = ( GEOMETRIC_REPRESENTATION_CONTEXT(2) 
PARAMETRIC_REPRESENTATION_CONTEXT() REPRESENTATION_CONTEXT('2D SPACE',''
  ) );
#839 = ORIENTED_EDGE('',*,*,#428,.F.);
#840 = ORIENTED_EDGE('',*,*,#819,.F.);
#841 = ORIENTED_EDGE('',*,*,#619,.T.);
#842 = ADVANCED_FACE('',(#843,#846),#751,.T.);
#843 = FACE_BOUND('',#844,.T.);
#844 = EDGE_LOOP('',(#845));
#845 = ORIENTED_EDGE('',*,*,#736,.T.);
#846 = FACE_BOUND('',#847,.T.);
#847 = EDGE_LOOP('',(#848));
#848 = ORIENTED_EDGE('',*,*,#849,.F.);
#849 = EDGE_CURVE('',#850,#850,#852,.T.);
#850 = VERTEX_POINT('',#851);
#851 = CARTESIAN_POINT('',(25.,13.,0.));
#852 = SURFACE_CURVE('',#853,(#858,#865),.PCURVE_S1.);
#853 = CIRCLE('',#854,13.);
#854 = AXIS2_PLACEMENT_3D('',#855,#856,#857);
#855 = CARTESIAN_POINT('',(25.,0.,0.));
#856 = DIRECTION('',(1.,0.,0.));
#857 = DIRECTION('',(-0.,1.,0.));
#858 = PCURVE('',#751,#859);
#859 = DEFINITIONAL_REPRESENTATION('',(#860),#864);
#860 = CIRCLE('',#861,13.);
#861 = AXIS2_PLACEMENT_2D('',#862,#863);
#862 = CARTESIAN_POINT('',(0.,0.));
#863 = DIRECTION('',(1.,0.));
#864 = ( GEOMETRIC_REPRESENTATION_CONTEXT(2) 
PARAMETRIC_REPRESENTATION_CONTEXT() REPRESENTATION_CONTEXT('2D SPACE',''
  ) );
#865 = PCURVE('',#805,#866);
#866 = DEFINITIONAL_REPRESENTATION('',(#867),#871);
#867 = LINE('',#868,#869);
#868 = CARTESIAN_POINT('',(0.,-0.));
#869 = VECTOR('',#870,1.);
#870 = DIRECTION('',(1.,-0.));
#871 = ( GEOMETRIC_REPRESENTATION_CONTEXT(2) 
PARAMETRIC_REPRESENTATION_CONTEXT() REPRESENTATION_CONTEXT('2D SPACE',''
  ) );
#872 = ADVANCED_FACE('',(#873),#805,.F.);
#873 = FACE_BOUND('',#874,.T.);
#874 = EDGE_LOOP('',(#875,#876,#897,#898));
#875 = ORIENTED_EDGE('',*,*,#849,.T.);
#876 = ORIENTED_EDGE('',*,*,#877,.T.);
#877 = EDGE_CURVE('',#850,#768,#878,.T.);
#878 = SEAM_CURVE('',#879,(#883,#890),.PCURVE_S1.);
#879 = LINE('',#880,#881);
#880 = CARTESIAN_POINT('',(25.,13.,0.));
#881 = VECTOR('',#882,1.);
#882 = DIRECTION('',(-0.707106781187,-0.707106781187,0.));
#883 = PCURVE('',#805,#884);
#884 = DEFINITIONAL_REPRESENTATION('',(#885),#889);
#885 = LINE('',#886,#887);
#886 = CARTESIAN_POINT('',(0.,-0.));
#887 = VECTOR('',#888,1.);
#888 = DIRECTION('',(0.,-1.));
#889 = ( GEOMETRIC_REPRESENTATION_CONTEXT(2) 
PARAMETRIC_REPRESENTATION_CONTEXT() REPRESENTATION_CONTEXT('2D SPACE',''
  ) );
#890 = PCURVE('',#805,#891);
#891 = DEFINITIONAL_REPRESENTATION('',(#892),#896);
#892 = LINE('',#893,#894);
#893 = CARTESIAN_POINT('',(6.28318530718,-0.));
#894 = VECTOR('',#895,1.);
#895 = DIRECTION('',(0.,-1.));
#896 = ( GEOMETRIC_REPRESENTATION_CONTEXT(2) 
PARAMETRIC_REPRESENTATION_CONTEXT() REPRESENTATION_CONTEXT('2D SPACE',''
  ) );
#897 = ORIENTED_EDGE('',*,*,#790,.F.);
#898 = ORIENTED_EDGE('',*,*,#877,.F.);
#899 = ( GEOMETRIC_REPRESENTATION_CONTEXT(3) 
GLOBAL_UNCERTAINTY_ASSIGNED_CONTEXT((#903)) GLOBAL_UNIT_ASSIGNED_CONTEXT
((#900,#901,#902)) REPRESENTATION_CONTEXT('Context #1',
  '3D Context with UNIT and UNCERTAINTY') );
#900 = ( LENGTH_UNIT() NAMED_UNIT(*) SI_UNIT(.MILLI.,.METRE.) );
#901 = ( NAMED_UNIT(*) PLANE_ANGLE_UNIT() SI_UNIT($,.RADIAN.) );
#902 = ( NAMED_UNIT(*) SI_UNIT($,.STERADIAN.) SOLID_ANGLE_UNIT() );
#903 = UNCERTAINTY_MEASURE_WITH_UNIT(LENGTH_MEASURE(1.E-07),#900,
  'distance_accuracy_value','confusion accuracy');
#904 = PRODUCT_RELATED_PRODUCT_CATEGORY('part',$,(#7));
ENDSEC;
END-ISO-10303-21;
