#usda 1.0
(
    defaultPrim = "countersunk_m6"
    metersPerUnit = 0.001
    upAxis = "Y"
    doc = "VRINGON revolve part — CadQuery executor"
)

def Xform "countersunk_m6" (
    kind = "component"
)
{
    custom string vringon:dsl_version = "vringon-shaft/1.0"
    custom string vringon:dsl_json = "{\"dsl\":\"vringon-shaft/1.0\",\"id\":\"countersunk-m6\",\"name\":\"Countersunk socket screw M6x20\",\"name_ko\":\"접시머리 나사 M6×20\",\"part_class\":\"other\",\"units\":\"mm\",\"material\":\"SUS304\",\"drawing\":{\"number\":\"VR-RB-016\",\"scale\":\"5:1\",\"projection\":\"third\"},\"segments\":[{\"type\":\"taper\",\"length\":3.3,\"d_start\":12,\"d_end\":6,\"label\":\"접시 머리 90°\"},{\"type\":\"thread\",\"length\":20,\"diameter\":6,\"spec\":\"M6\",\"pitch\":1}],\"transitions\":[{\"at\":2,\"type\":\"chamfer\",\"size\":1}],\"grooves\":[],\"bore\":null,\"features\":[{\"type\":\"hex_socket\",\"end\":\"left\",\"across_flats\":4,\"depth\":2}],\"meta\":{\"source\":\"golden\",\"difficulty\":3}}"
    custom string vringon:name_ko = "접시머리 나사 M6×20"
    custom string vringon:material = "SUS304"
    custom double vringon:length_mm = 23.3
    custom double vringon:max_diameter_mm = 12
    custom double vringon:volume_mm3 = 747.109
    custom double[] vringon:segment_lengths_mm = [3.3, 20]
    custom string[] vringon:segment_types = ["taper", "thread"]
    custom string[] vringon:threads = ["M6"]
    custom string[] vringon:features = ["hex_socket"]

    def Mesh "body"
    {
        float3[] extent = [(0.0000, -5.9925, -5.9981), (23.3000, 6.0000, 5.9981)]
        int[] faceVertexCounts = [3, 3, 3, 3, 3, 3, 3, 3, 3, 3, 3, 3, 3, 3, 3, 3, 3, 3, 3, 3, 3, 3, 3, 3, 3, 3, 3, 3, 3, 3, 3, 3, 3, 3, 3, 3, 3, 3, 3, 3, 3, 3, 3, 3, 3, 3, 3, 3, 3, 3, 3, 3, 3, 3, 3, 3, 3, 3, 3, 3, 3, 3, 3, 3, 3, 3, 3, 3, 3, 3, 3, 3, 3, 3, 3, 3, 3, 3, 3, 3, 3, 3, 3, 3, 3, 3, 3, 3, 3, 3, 3, 3, 3, 3, 3, 3, 3, 3, 3, 3, 3, 3, 3, 3, 3, 3, 3, 3, 3, 3, 3, 3, 3, 3, 3, 3, 3, 3, 3, 3, 3, 3, 3, 3, 3, 3, 3, 3, 3, 3, 3, 3, 3, 3, 3, 3, 3, 3, 3, 3, 3, 3, 3, 3, 3, 3, 3, 3, 3, 3, 3, 3, 3, 3, 3, 3, 3, 3, 3, 3, 3, 3, 3, 3, 3, 3, 3, 3, 3, 3, 3, 3, 3, 3, 3, 3, 3, 3, 3, 3, 3, 3, 3, 3, 3, 3, 3, 3, 3, 3, 3, 3, 3, 3, 3, 3, 3, 3, 3, 3, 3, 3, 3, 3, 3, 3, 3, 3, 3, 3, 3, 3, 3, 3, 3, 3, 3, 3, 3, 3, 3, 3, 3, 3, 3, 3, 3, 3, 3, 3, 3, 3, 3, 3, 3, 3, 3, 3, 3, 3, 3, 3, 3, 3, 3, 3, 3, 3, 3, 3, 3, 3, 3, 3, 3, 3, 3, 3, 3, 3, 3, 3, 3, 3, 3, 3, 3, 3, 3, 3, 3, 3, 3, 3, 3, 3, 3, 3, 3, 3, 3, 3, 3, 3, 3, 3, 3, 3, 3, 3, 3, 3, 3, 3, 3, 3, 3, 3, 3, 3, 3, 3, 3, 3, 3, 3, 3, 3, 3, 3, 3, 3, 3, 3, 3, 3, 3, 3, 3, 3, 3, 3, 3, 3, 3, 3, 3, 3, 3, 3, 3, 3, 3, 3, 3, 3, 3, 3, 3, 3, 3, 3, 3, 3, 3, 3, 3, 3, 3, 3, 3, 3, 3, 3, 3, 3, 3, 3, 3, 3, 3, 3, 3, 3, 3, 3, 3, 3, 3, 3, 3, 3, 3, 3, 3, 3, 3, 3, 3, 3, 3, 3, 3, 3, 3, 3, 3, 3, 3, 3, 3, 3, 3, 3, 3, 3, 3, 3, 3, 3, 3, 3, 3, 3, 3, 3, 3, 3, 3, 3, 3, 3, 3, 3, 3, 3, 3, 3, 3, 3, 3, 3, 3, 3, 3, 3, 3, 3, 3, 3, 3, 3, 3, 3, 3, 3, 3, 3, 3, 3, 3, 3, 3, 3, 3, 3, 3, 3, 3, 3, 3, 3, 3, 3, 3, 3, 3, 3, 3, 3, 3, 3, 3, 3, 3, 3, 3, 3, 3, 3, 3, 3, 3, 3, 3, 3, 3, 3, 3, 3, 3, 3, 3, 3, 3, 3, 3, 3, 3, 3, 3, 3, 3, 3, 3, 3, 3, 3, 3, 3, 3, 3, 3, 3, 3, 3, 3, 3, 3, 3, 3, 3, 3, 3, 3, 3, 3, 3, 3, 3, 3, 3, 3, 3, 3, 3, 3, 3, 3, 3, 3, 3, 3, 3, 3, 3, 3, 3, 3, 3, 3, 3, 3, 3, 3, 3, 3, 3, 3, 3, 3, 3, 3, 3, 3, 3, 3, 3, 3, 3, 3, 3, 3, 3, 3, 3, 3, 3, 3, 3, 3, 3, 3, 3, 3, 3, 3, 3, 3, 3, 3, 3, 3, 3, 3, 3, 3, 3, 3, 3, 3, 3, 3, 3, 3, 3, 3, 3, 3, 3, 3, 3, 3, 3, 3, 3, 3, 3, 3, 3, 3, 3, 3, 3, 3, 3, 3, 3, 3, 3, 3, 3, 3, 3, 3, 3, 3, 3, 3, 3, 3, 3, 3, 3, 3, 3, 3, 3, 3, 3, 3, 3, 3, 3, 3, 3, 3, 3, 3, 3, 3, 3, 3, 3, 3, 3, 3, 3, 3, 3, 3, 3, 3, 3, 3, 3, 3, 3, 3, 3, 3, 3, 3, 3, 3, 3, 3, 3, 3, 3, 3, 3, 3, 3, 3, 3, 3, 3, 3, 3, 3, 3, 3, 3, 3, 3, 3, 3, 3, 3, 3, 3, 3, 3, 3, 3, 3, 3, 3, 3, 3, 3, 3, 3, 3, 3, 3, 3, 3, 3, 3, 3, 3, 3, 3, 3, 3, 3, 3, 3, 3, 3, 3, 3, 3, 3, 3, 3, 3, 3, 3, 3, 3, 3, 3, 3, 3, 3, 3, 3, 3, 3, 3, 3, 3, 3, 3, 3, 3, 3, 3, 3, 3, 3, 3, 3, 3, 3, 3, 3, 3, 3, 3, 3, 3, 3, 3, 3, 3, 3]
        int[] faceVertexIndices = [130, 0, 1, 68, 67, 131, 64, 62, 63, 66, 129, 65, 132, 1, 2, 132, 2, 3, 132, 130, 1, 133, 3, 4, 133, 4, 5, 133, 132, 3, 134, 131, 130, 134, 130, 132, 134, 68, 131, 134, 69, 68, 134, 70, 69, 135, 5, 6, 135, 6, 7, 135, 133, 5, 136, 134, 132, 136, 70, 134, 136, 71, 70, 136, 72, 71, 136, 132, 133, 137, 7, 8, 137, 8, 9, 137, 135, 7, 138, 133, 135, 138, 136, 133, 138, 72, 136, 138, 73, 72, 138, 74, 73, 139, 9, 10, 139, 10, 11, 139, 137, 9, 140, 138, 135, 140, 74, 138, 140, 75, 74, 140, 76, 75, 140, 135, 137, 141, 11, 12, 141, 12, 13, 141, 139, 11, 142, 140, 137, 142, 76, 140, 142, 137, 139, 142, 77, 76, 142, 78, 77, 143, 13, 14, 143, 14, 15, 143, 141, 13, 144, 142, 139, 144, 78, 142, 144, 79, 78, 144, 80, 79, 144, 139, 141, 145, 15, 16, 145, 16, 17, 145, 143, 15, 146, 80, 144, 146, 143, 145, 146, 141, 143, 146, 81, 80, 146, 82, 81, 146, 144, 141, 147, 17, 18, 147, 18, 19, 147, 145, 17, 148, 146, 145, 148, 82, 146, 148, 83, 82, 148, 84, 83, 149, 19, 20, 149, 20, 21, 149, 147, 19, 150, 145, 147, 150, 84, 148, 150, 85, 84, 150, 86, 85, 150, 148, 145, 151, 21, 22, 151, 22, 23, 151, 149, 21, 152, 86, 150, 152, 147, 149, 152, 150, 147, 152, 87, 86, 152, 88, 87, 153, 151, 23, 153, 23, 24, 153, 24, 25, 154, 88, 152, 154, 152, 149, 154, 89, 88, 154, 90, 89, 154, 149, 151, 155, 25, 26, 155, 26, 27, 155, 153, 25, 156, 90, 154, 156, 154, 151, 156, 151, 153, 156, 91, 90, 156, 92, 91, 157, 27, 28, 157, 155, 27, 157, 28, 29, 158, 156, 153, 158, 153, 155, 158, 93, 92, 158, 94, 93, 158, 92, 156, 159, 29, 30, 159, 30, 31, 159, 157, 29, 160, 158, 155, 160, 155, 157, 160, 94, 158, 160, 95, 94, 160, 96, 95, 161, 31, 32, 161, 159, 31, 162, 157, 159, 162, 160, 157, 162, 96, 160, 162, 97, 96, 162, 98, 97, 163, 32, 33, 163, 33, 34, 163, 161, 32, 164, 162, 159, 164, 159, 161, 164, 98, 162, 164, 99, 98, 165, 34, 35, 165, 35, 36, 165, 163, 34, 166, 164, 161, 166, 161, 163, 166, 99, 164, 166, 100, 99, 166, 101, 100, 167, 36, 37, 167, 37, 38, 167, 165, 36, 168, 102, 101, 168, 103, 102, 168, 166, 163, 168, 101, 166, 168, 163, 165, 169, 167, 38, 169, 38, 39, 169, 39, 40, 170, 104, 103, 170, 105, 104, 170, 165, 167, 170, 167, 169, 170, 168, 165, 170, 103, 168, 171, 40, 41, 171, 41, 42, 171, 169, 40, 172, 106, 105, 172, 107, 106, 172, 105, 170, 172, 170, 169, 173, 42, 43, 173, 43, 44, 173, 171, 42, 174, 108, 107, 174, 109, 108, 174, 172, 169, 174, 171, 173, 174, 107, 172, 174, 169, 171, 175, 44, 45, 175, 45, 46, 175, 173, 44, 176, 110, 109, 176, 111, 110, 176, 174, 173, 176, 109, 174, 177, 175, 46, 177, 46, 47, 177, 47, 48, 178, 112, 111, 178, 113, 112, 178, 176, 173, 178, 111, 176, 178, 173, 175, 179, 48, 49, 179, 49, 50, 179, 177, 48, 180, 114, 113, 180, 115, 114, 180, 113, 178, 180, 175, 177, 180, 178, 175, 181, 50, 51, 181, 51, 52, 181, 179, 50, 182, 177, 179, 182, 179, 181, 182, 116, 115, 182, 117, 116, 182, 115, 180, 182, 180, 177, 183, 52, 53, 183, 53, 54, 183, 181, 52, 184, 182, 181, 184, 118, 117, 184, 119, 118, 184, 117, 182, 185, 54, 55, 185, 55, 56, 185, 183, 54, 186, 119, 184, 186, 183, 185, 186, 120, 119, 186, 121, 120, 186, 184, 181, 186, 181, 183, 187, 185, 56, 187, 56, 57, 187, 57, 58, 188, 121, 186, 188, 186, 185, 188, 122, 121, 188, 123, 122, 189, 187, 58, 189, 58, 59, 189, 59, 60, 190, 185, 187, 190, 124, 123, 190, 125, 124, 190, 188, 185, 190, 123, 188, 191, 189, 60, 191, 60, 61, 191, 61, 62, 191, 64, 65, 191, 62, 64, 192, 126, 125, 192, 187, 189, 192, 127, 126, 192, 125, 190, 192, 190, 187, 192, 189, 191, 193, 127, 192, 193, 128, 127, 193, 129, 128, 193, 191, 65, 193, 192, 191, 193, 65, 129, 257, 247, 246, 257, 248, 247, 257, 249, 248, 257, 250, 249, 257, 251, 250, 257, 252, 251, 257, 253, 252, 257, 254, 253, 257, 255, 254, 257, 256, 255, 257, 194, 256, 262, 238, 237, 262, 239, 238, 262, 240, 239, 262, 241, 240, 262, 242, 241, 262, 243, 242, 262, 244, 243, 262, 245, 244, 262, 246, 245, 262, 257, 246, 236, 262, 237, 258, 194, 257, 258, 195, 194, 258, 196, 195, 258, 197, 196, 258, 198, 197, 258, 199, 198, 258, 200, 199, 201, 200, 258, 202, 201, 258, 261, 262, 236, 261, 234, 233, 261, 235, 234, 261, 236, 235, 203, 202, 258, 232, 261, 233, 204, 203, 258, 231, 261, 232, 205, 204, 258, 205, 258, 259, 230, 261, 231, 206, 205, 259, 229, 261, 230, 207, 206, 259, 228, 261, 229, 208, 207, 259, 227, 261, 228, 209, 208, 259, 226, 261, 227, 226, 260, 261, 210, 209, 259, 225, 260, 226, 211, 210, 259, 224, 260, 225, 212, 211, 259, 223, 260, 224, 213, 212, 259, 222, 260, 223, 214, 213, 259, 221, 260, 222, 215, 259, 260, 215, 214, 259, 220, 260, 221, 216, 215, 260, 219, 260, 220, 217, 216, 260, 218, 217, 260, 218, 260, 219, 329, 263, 264, 329, 328, 263, 330, 264, 265, 330, 329, 264, 331, 265, 266, 331, 330, 265, 332, 266, 267, 332, 331, 266, 333, 267, 268, 333, 268, 269, 333, 332, 267, 334, 333, 269, 335, 269, 270, 335, 270, 271, 335, 334, 269, 336, 271, 272, 336, 335, 271, 337, 336, 272, 338, 272, 273, 338, 273, 274, 338, 337, 272, 339, 338, 274, 340, 274, 275, 340, 275, 276, 340, 339, 274, 341, 340, 276, 342, 276, 277, 342, 341, 276, 343, 277, 278, 343, 278, 279, 343, 342, 277, 344, 343, 279, 345, 344, 279, 345, 279, 280, 346, 280, 281, 346, 281, 282, 346, 345, 280, 347, 346, 282, 347, 282, 283, 348, 347, 283, 348, 283, 284, 349, 348, 284, 350, 349, 284, 350, 284, 285, 350, 285, 286, 351, 286, 287, 351, 350, 286, 352, 287, 288, 352, 351, 287, 353, 352, 288, 354, 288, 289, 354, 353, 288, 355, 289, 290, 355, 354, 289, 356, 290, 291, 356, 355, 290, 357, 291, 292, 357, 292, 293, 357, 356, 291, 358, 357, 293, 359, 293, 294, 359, 358, 293, 360, 294, 295, 360, 359, 294, 361, 295, 296, 361, 360, 295, 362, 296, 297, 362, 361, 296, 363, 297, 298, 363, 362, 297, 364, 298, 299, 364, 363, 298, 365, 299, 300, 365, 300, 301, 365, 364, 299, 366, 365, 301, 367, 301, 302, 367, 366, 301, 368, 302, 303, 368, 367, 302, 369, 303, 304, 369, 368, 303, 370, 304, 305, 370, 369, 304, 371, 370, 305, 371, 305, 306, 371, 306, 307, 372, 371, 307, 372, 307, 308, 373, 372, 308, 374, 373, 308, 374, 308, 309, 375, 374, 309, 375, 309, 310, 376, 375, 310, 376, 310, 311, 377, 376, 311, 377, 311, 312, 378, 377, 312, 378, 312, 313, 379, 378, 313, 379, 313, 314, 380, 379, 314, 380, 314, 315, 380, 315, 316, 381, 380, 316, 381, 316, 317, 382, 381, 317, 383, 382, 317, 383, 317, 318, 384, 318, 319, 384, 383, 318, 385, 319, 320, 385, 384, 319, 386, 320, 321, 386, 321, 322, 386, 385, 320, 387, 386, 322, 388, 322, 323, 388, 323, 324, 388, 387, 322, 389, 388, 324, 390, 324, 325, 390, 389, 324, 327, 325, 326, 327, 390, 325, 392, 391, 393, 392, 393, 394, 396, 395, 397, 396, 397, 398, 400, 399, 401, 400, 401, 402, 404, 403, 405, 404, 405, 406, 408, 407, 409, 408, 409, 410, 412, 411, 413, 412, 413, 414, 545, 415, 416, 483, 482, 546, 479, 477, 478, 481, 544, 480, 547, 416, 417, 547, 417, 418, 547, 545, 416, 548, 546, 545, 548, 545, 547, 548, 483, 546, 548, 484, 483, 548, 485, 484, 549, 418, 419, 549, 419, 420, 549, 547, 418, 550, 547, 549, 550, 486, 485, 550, 487, 486, 550, 548, 547, 550, 485, 548, 551, 420, 421, 551, 421, 422, 551, 549, 420, 552, 549, 551, 552, 550, 549, 552, 488, 487, 552, 489, 488, 552, 487, 550, 553, 551, 422, 553, 422, 423, 553, 423, 424, 553, 552, 551, 554, 489, 552, 554, 552, 553, 554, 490, 489, 554, 491, 490, 555, 424, 425, 555, 425, 426, 555, 553, 424, 556, 491, 554, 556, 553, 555, 556, 492, 491, 556, 493, 492, 556, 554, 553, 557, 426, 427, 557, 427, 428, 557, 555, 426, 558, 555, 557, 558, 556, 555, 558, 494, 493, 558, 495, 494, 558, 493, 556, 559, 557, 428, 559, 428, 429, 559, 429, 430, 560, 558, 557, 560, 495, 558, 560, 557, 559, 560, 496, 495, 560, 497, 496, 561, 430, 431, 561, 431, 432, 561, 559, 430, 562, 559, 561, 562, 560, 559, 562, 498, 497, 562, 499, 498, 562, 497, 560, 563, 432, 433, 563, 433, 434, 563, 562, 561, 563, 561, 432, 564, 562, 563, 564, 499, 562, 564, 500, 499, 564, 501, 500, 565, 434, 435, 565, 435, 436, 565, 563, 434, 566, 564, 563, 566, 563, 565, 566, 501, 564, 566, 502, 501, 566, 503, 502, 567, 436, 437, 567, 437, 438, 567, 565, 436, 567, 566, 565, 568, 503, 566, 568, 504, 503, 568, 505, 504, 568, 566, 567, 569, 438, 439, 569, 439, 440, 569, 567, 438, 570, 567, 569, 570, 505, 568, 570, 568, 567, 570, 506, 505, 570, 507, 506, 571, 440, 441, 571, 441, 442, 571, 569, 440, 572, 570, 569, 572, 507, 570, 572, 508, 507, 572, 509, 508, 572, 569, 571, 573, 442, 443, 573, 443, 444, 573, 571, 442, 574, 572, 571, 574, 571, 573, 574, 509, 572, 574, 510, 509, 574, 511, 510, 575, 574, 573, 575, 444, 445, 575, 445, 446, 575, 573, 444, 576, 574, 575, 576, 511, 574, 576, 512, 511, 576, 513, 512, 577, 575, 446, 577, 446, 447, 578, 576, 575, 578, 513, 576, 578, 575, 577, 578, 514, 513, 579, 447, 448, 579, 448, 449, 579, 578, 577, 579, 577, 447, 580, 578, 579, 580, 514, 578, 580, 515, 514, 580, 516, 515, 581, 579, 449, 581, 449, 450, 581, 450, 451, 581, 580, 579, 582, 517, 516, 582, 518, 517, 582, 580, 581, 582, 516, 580, 583, 581, 451, 583, 451, 452, 583, 452, 453, 584, 519, 518, 584, 520, 519, 584, 518, 582, 584, 582, 581, 584, 581, 583, 585, 453, 454, 585, 454, 455, 585, 583, 453, 586, 521, 520, 586, 522, 521, 586, 584, 583, 586, 520, 584, 586, 583, 585, 587, 455, 456, 587, 456, 457, 587, 585, 455, 587, 586, 585, 588, 523, 522, 588, 524, 523, 588, 586, 587, 588, 522, 586, 589, 457, 458, 589, 458, 459, 589, 587, 457, 590, 525, 524, 590, 526, 525, 590, 524, 588, 590, 588, 587, 590, 587, 589, 591, 590, 589, 591, 459, 460, 591, 460, 461, 591, 589, 459, 592, 527, 526, 592, 528, 527, 592, 590, 591, 592, 526, 590, 593, 592, 591, 593, 461, 462, 593, 462, 463, 593, 591, 461, 594, 529, 528, 594, 530, 529, 594, 528, 592, 594, 592, 593, 595, 463, 464, 595, 464, 465, 595, 593, 463, 596, 594, 593, 596, 531, 530, 596, 532, 531, 596, 530, 594, 596, 593, 595, 597, 595, 465, 597, 596, 595, 597, 465, 466, 597, 466, 467, 598, 596, 597, 598, 532, 596, 598, 533, 532, 598, 534, 533, 599, 597, 467, 599, 467, 468, 599, 468, 469, 600, 534, 598, 600, 597, 599, 600, 535, 534, 600, 536, 535, 600, 598, 597, 601, 600, 599, 601, 599, 469, 601, 469, 470, 601, 470, 471, 602, 536, 600, 602, 600, 601, 602, 537, 536, 602, 538, 537, 603, 601, 471, 603, 471, 472, 603, 472, 473, 604, 538, 602, 604, 539, 538, 604, 540, 539, 604, 601, 603, 604, 602, 601, 605, 603, 473, 605, 473, 474, 605, 474, 475, 606, 541, 540, 606, 542, 541, 606, 603, 605, 606, 604, 603, 606, 540, 604, 607, 605, 475, 607, 475, 476, 607, 476, 477, 607, 479, 480, 607, 606, 605, 607, 477, 479, 608, 543, 542, 608, 544, 543, 608, 542, 606, 608, 607, 480, 608, 606, 607, 608, 480, 544, 611, 610, 609, 611, 613, 612, 611, 614, 613, 611, 609, 614, 657, 654, 655, 657, 655, 656, 660, 658, 659, 661, 657, 658, 661, 658, 660, 644, 645, 646, 644, 646, 647, 665, 663, 664, 666, 663, 665, 667, 663, 666, 641, 644, 647, 641, 642, 643, 641, 643, 644, 641, 647, 648, 641, 648, 649, 641, 649, 650, 641, 650, 651, 641, 651, 652, 641, 652, 653, 641, 653, 654, 641, 661, 662, 641, 662, 663, 641, 654, 657, 641, 657, 661, 639, 640, 641, 637, 639, 641, 637, 638, 639, 672, 669, 670, 672, 670, 671, 673, 669, 672, 674, 669, 673, 674, 667, 668, 674, 668, 669, 676, 667, 674, 676, 674, 675, 632, 633, 634, 632, 634, 635, 615, 676, 677, 616, 663, 667, 616, 641, 663, 616, 635, 636, 616, 636, 637, 616, 637, 641, 616, 676, 615, 616, 667, 676, 629, 630, 631, 629, 631, 632, 628, 629, 632, 618, 616, 617, 627, 632, 635, 627, 628, 632, 620, 618, 619, 620, 616, 618, 621, 616, 620, 624, 625, 626, 624, 626, 627, 622, 616, 621, 623, 635, 616, 623, 627, 635, 623, 624, 627, 623, 616, 622]
        point3f[] points = [(0.0000, 6.0000, 0.0000), (0.0000, 5.9702, 0.5974), (0.0000, 5.8810, 1.1889), (0.0000, 5.7334, 1.7685), (0.0000, 5.5289, 2.3306), (0.0000, 5.2693, 2.8695), (0.0000, 4.9574, 3.3799), (0.0000, 4.5963, 3.8567), (0.0000, 4.1894, 4.2952), (0.0000, 3.7409, 4.6910), (0.0000, 3.2553, 5.0402), (0.0000, 2.7373, 5.3392), (0.0000, 2.1920, 5.5852), (0.0000, 1.6250, 5.7757), (0.0000, 1.0419, 5.9088), (0.0000, 0.4484, 5.9832), (0.0000, -0.1496, 5.9981), (0.0000, -0.7461, 5.9534), (0.0000, -1.3351, 5.8496), (0.0000, -1.9109, 5.6876), (0.0000, -2.4677, 5.4690), (0.0000, -3.0000, 5.1962), (0.0000, -3.5025, 4.8716), (0.0000, -3.9701, 4.4987), (0.0000, -4.3983, 4.0810), (0.0000, -4.7828, 3.6228), (0.0000, -5.1197, 3.1286), (0.0000, -5.4058, 2.6033), (0.0000, -5.6382, 2.0521), (0.0000, -5.8145, 1.4805), (0.0000, -5.9330, 0.8943), (0.0000, -5.9925, 0.2991), (0.0000, -5.9925, -0.2991), (0.0000, -5.9330, -0.8943), (0.0000, -5.8145, -1.4805), (0.0000, -5.6382, -2.0521), (0.0000, -5.4058, -2.6033), (0.0000, -5.1197, -3.1286), (0.0000, -4.7828, -3.6228), (0.0000, -4.3983, -4.0810), (0.0000, -3.9701, -4.4987), (0.0000, -3.5025, -4.8716), (0.0000, -3.0000, -5.1962), (0.0000, -2.4677, -5.4690), (0.0000, -1.9109, -5.6876), (0.0000, -1.3351, -5.8496), (0.0000, -0.7461, -5.9534), (0.0000, -0.1496, -5.9981), (0.0000, 0.4484, -5.9832), (0.0000, 1.0419, -5.9088), (0.0000, 1.6250, -5.7757), (0.0000, 2.1920, -5.5852), (0.0000, 2.7373, -5.3392), (0.0000, 3.2553, -5.0402), (0.0000, 3.7409, -4.6910), (0.0000, 4.1894, -4.2952), (0.0000, 4.5963, -3.8567), (0.0000, 4.9574, -3.3799), (0.0000, 5.2693, -2.8695), (0.0000, 5.5289, -2.3306), (0.0000, 5.7334, -1.7685), (0.0000, 5.8810, -1.1889), (0.0000, 5.9702, -0.5974), (0.0000, 6.0000, 0.0000), (1.1000, 5.0000, 0.0000), (2.2000, 4.0000, 0.0000), (3.3000, 3.0000, 0.0000), (3.3000, 3.0000, 0.0000), (3.3000, 2.9851, 0.2987), (3.3000, 2.9405, 0.5944), (3.3000, 2.8667, 0.8843), (3.3000, 2.7644, 1.1653), (3.3000, 2.6347, 1.4348), (3.3000, 2.4787, 1.6900), (3.3000, 2.2981, 1.9284), (3.3000, 2.0947, 2.1476), (3.3000, 1.8705, 2.3455), (3.3000, 1.6276, 2.5201), (3.3000, 1.3686, 2.6696), (3.3000, 1.0960, 2.7926), (3.3000, 0.8125, 2.8879), (3.3000, 0.5209, 2.9544), (3.3000, 0.2242, 2.9916), (3.3000, -0.0748, 2.9991), (3.3000, -0.3730, 2.9767), (3.3000, -0.6676, 2.9248), (3.3000, -0.9555, 2.8438), (3.3000, -1.2339, 2.7345), (3.3000, -1.5000, 2.5981), (3.3000, -1.7512, 2.4358), (3.3000, -1.9851, 2.2493), (3.3000, -2.1992, 2.0405), (3.3000, -2.3914, 1.8114), (3.3000, -2.5599, 1.5643), (3.3000, -2.7029, 1.3017), (3.3000, -2.8191, 1.0261), (3.3000, -2.9072, 0.7403), (3.3000, -2.9665, 0.4471), (3.3000, -2.9963, 0.1495), (3.3000, -2.9963, -0.1495), (3.3000, -2.9665, -0.4471), (3.3000, -2.9072, -0.7403), (3.3000, -2.8191, -1.0261), (3.3000, -2.7029, -1.3017), (3.3000, -2.5599, -1.5643), (3.3000, -2.3914, -1.8114), (3.3000, -2.1992, -2.0405), (3.3000, -1.9851, -2.2493), (3.3000, -1.7512, -2.4358), (3.3000, -1.5000, -2.5981), (3.3000, -1.2339, -2.7345), (3.3000, -0.9555, -2.8438), (3.3000, -0.6676, -2.9248), (3.3000, -0.3730, -2.9767), (3.3000, -0.0748, -2.9991), (3.3000, 0.2242, -2.9916), (3.3000, 0.5209, -2.9544), (3.3000, 0.8125, -2.8879), (3.3000, 1.0960, -2.7926), (3.3000, 1.3686, -2.6696), (3.3000, 1.6276, -2.5201), (3.3000, 1.8705, -2.3455), (3.3000, 2.0947, -2.1476), (3.3000, 2.2981, -1.9284), (3.3000, 2.4787, -1.6900), (3.3000, 2.6347, -1.4348), (3.3000, 2.7644, -1.1653), (3.3000, 2.8667, -0.8843), (3.3000, 2.9405, -0.5944), (3.3000, 2.9851, -0.2987), (1.1000, 5.0000, 0.0000), (2.2000, 4.0000, 0.0000), (1.1000, 4.9039, 0.9755), (1.1000, 4.6194, 1.9134), (2.2000, 3.9231, 0.7804), (1.1000, 4.1573, 2.7779), (2.2000, 3.6955, 1.5307), (1.1000, 3.5355, 3.5355), (2.2000, 3.3259, 2.2223), (1.1000, 2.7779, 4.1573), (2.2000, 2.8284, 2.8284), (1.1000, 1.9134, 4.6194), (2.2000, 2.2223, 3.3259), (1.1000, 0.9755, 4.9039), (2.2000, 1.5307, 3.6955), (1.1000, 0.0000, 5.0000), (2.2000, 0.7804, 3.9231), (1.1000, -0.9755, 4.9039), (2.2000, 0.0000, 4.0000), (1.1000, -1.9134, 4.6194), (2.2000, -0.7804, 3.9231), (1.1000, -2.7779, 4.1573), (2.2000, -1.5307, 3.6955), (1.1000, -3.5355, 3.5355), (2.2000, -2.2223, 3.3259), (1.1000, -4.1573, 2.7779), (2.2000, -2.8284, 2.8284), (1.1000, -4.6194, 1.9134), (2.2000, -3.3259, 2.2223), (1.1000, -4.9039, 0.9755), (2.2000, -3.6955, 1.5307), (1.1000, -5.0000, -0.0000), (2.2000, -3.9231, 0.7804), (1.1000, -4.9039, -0.9755), (2.2000, -4.0000, -0.0000), (1.1000, -4.6194, -1.9134), (2.2000, -3.9231, -0.7804), (1.1000, -4.1573, -2.7779), (2.2000, -3.6955, -1.5307), (1.1000, -3.5355, -3.5355), (2.2000, -3.3259, -2.2223), (1.1000, -2.7779, -4.1573), (2.2000, -2.8284, -2.8284), (1.1000, -1.9134, -4.6194), (2.2000, -2.2223, -3.3259), (1.1000, -0.9755, -4.9039), (2.2000, -1.5307, -3.6955), (1.1000, 0.0000, -5.0000), (2.2000, -0.7804, -3.9231), (1.1000, 0.9755, -4.9039), (2.2000, 0.0000, -4.0000), (1.1000, 1.9134, -4.6194), (2.2000, 0.7804, -3.9231), (1.1000, 2.7779, -4.1573), (2.2000, 1.5307, -3.6955), (1.1000, 3.5355, -3.5355), (2.2000, 2.2223, -3.3259), (1.1000, 4.1573, -2.7779), (2.2000, 2.8284, -2.8284), (1.1000, 4.6194, -1.9134), (2.2000, 3.3259, -2.2223), (1.1000, 4.9039, -0.9755), (2.2000, 3.6955, -1.5307), (2.2000, 3.9231, -0.7804), (0.0000, 6.0000, 0.0000), (0.0000, 5.9702, 0.5974), (0.0000, 5.8810, 1.1889), (0.0000, 5.7334, 1.7685), (0.0000, 5.5289, 2.3306), (0.0000, 5.2693, 2.8695), (0.0000, 4.9574, 3.3799), (0.0000, 4.5963, 3.8567), (0.0000, 4.1894, 4.2952), (0.0000, 3.7409, 4.6910), (0.0000, 3.2553, 5.0402), (0.0000, 2.7373, 5.3392), (0.0000, 2.1920, 5.5852), (0.0000, 1.6250, 5.7757), (0.0000, 1.0419, 5.9088), (0.0000, 0.4484, 5.9832), (0.0000, -0.1496, 5.9981), (0.0000, -0.7461, 5.9534), (0.0000, -1.3351, 5.8496), (0.0000, -1.9109, 5.6876), (0.0000, -2.4677, 5.4690), (0.0000, -3.0000, 5.1962), (0.0000, -3.5025, 4.8716), (0.0000, -3.9701, 4.4987), (0.0000, -4.3983, 4.0810), (0.0000, -4.7828, 3.6228), (0.0000, -5.1197, 3.1286), (0.0000, -5.4058, 2.6033), (0.0000, -5.6382, 2.0521), (0.0000, -5.8145, 1.4805), (0.0000, -5.9330, 0.8943), (0.0000, -5.9925, 0.2991), (0.0000, -5.9925, -0.2991), (0.0000, -5.9330, -0.8943), (0.0000, -5.8145, -1.4805), (0.0000, -5.6382, -2.0521), (0.0000, -5.4058, -2.6033), (0.0000, -5.1197, -3.1286), (0.0000, -4.7828, -3.6228), (0.0000, -4.3983, -4.0810), (0.0000, -3.9701, -4.4987), (0.0000, -3.5025, -4.8716), (0.0000, -3.0000, -5.1962), (0.0000, -2.4677, -5.4690), (0.0000, -1.9109, -5.6876), (0.0000, -1.3351, -5.8496), (0.0000, -0.7461, -5.9534), (0.0000, -0.1496, -5.9981), (0.0000, 0.4484, -5.9832), (0.0000, 1.0419, -5.9088), (0.0000, 1.6250, -5.7757), (0.0000, 2.1920, -5.5852), (0.0000, 2.7373, -5.3392), (0.0000, 3.2553, -5.0402), (0.0000, 3.7409, -4.6910), (0.0000, 4.1894, -4.2952), (0.0000, 4.5963, -3.8567), (0.0000, 4.9574, -3.3799), (0.0000, 5.2693, -2.8695), (0.0000, 5.5289, -2.3306), (0.0000, 5.7334, -1.7685), (0.0000, 5.8810, -1.1889), (0.0000, 5.9702, -0.5974), (0.0000, 2.0000, -1.1547), (0.0000, 2.0000, 1.1547), (0.0000, 0.0000, 2.3094), (0.0000, -2.0000, 1.1547), (0.0000, -2.0000, -1.1547), (0.0000, -0.0000, -2.3094), (3.3000, 3.0000, 0.0000), (3.3000, 2.9851, 0.2987), (3.3000, 2.9405, 0.5944), (3.3000, 2.8667, 0.8843), (3.3000, 2.7644, 1.1653), (3.3000, 2.6347, 1.4348), (3.3000, 2.4787, 1.6900), (3.3000, 2.2981, 1.9284), (3.3000, 2.0947, 2.1476), (3.3000, 1.8705, 2.3455), (3.3000, 1.6276, 2.5201), (3.3000, 1.3686, 2.6696), (3.3000, 1.0960, 2.7926), (3.3000, 0.8125, 2.8879), (3.3000, 0.5209, 2.9544), (3.3000, 0.2242, 2.9916), (3.3000, -0.0748, 2.9991), (3.3000, -0.3730, 2.9767), (3.3000, -0.6676, 2.9248), (3.3000, -0.9555, 2.8438), (3.3000, -1.2339, 2.7345), (3.3000, -1.5000, 2.5981), (3.3000, -1.7512, 2.4358), (3.3000, -1.9851, 2.2493), (3.3000, -2.1992, 2.0405), (3.3000, -2.3914, 1.8114), (3.3000, -2.5599, 1.5643), (3.3000, -2.7029, 1.3017), (3.3000, -2.8191, 1.0261), (3.3000, -2.9072, 0.7403), (3.3000, -2.9665, 0.4471), (3.3000, -2.9963, 0.1495), (3.3000, -2.9963, -0.1495), (3.3000, -2.9665, -0.4471), (3.3000, -2.9072, -0.7403), (3.3000, -2.8191, -1.0261), (3.3000, -2.7029, -1.3017), (3.3000, -2.5599, -1.5643), (3.3000, -2.3914, -1.8114), (3.3000, -2.1992, -2.0405), (3.3000, -1.9851, -2.2493), (3.3000, -1.7512, -2.4358), (3.3000, -1.5000, -2.5981), (3.3000, -1.2339, -2.7345), (3.3000, -0.9555, -2.8438), (3.3000, -0.6676, -2.9248), (3.3000, -0.3730, -2.9767), (3.3000, -0.0748, -2.9991), (3.3000, 0.2242, -2.9916), (3.3000, 0.5209, -2.9544), (3.3000, 0.8125, -2.8879), (3.3000, 1.0960, -2.7926), (3.3000, 1.3686, -2.6696), (3.3000, 1.6276, -2.5201), (3.3000, 1.8705, -2.3455), (3.3000, 2.0947, -2.1476), (3.3000, 2.2981, -1.9284), (3.3000, 2.4787, -1.6900), (3.3000, 2.6347, -1.4348), (3.3000, 2.7644, -1.1653), (3.3000, 2.8667, -0.8843), (3.3000, 2.9405, -0.5944), (3.3000, 2.9851, -0.2987), (3.3000, 3.0000, 0.0000), (22.3000, 3.0000, 0.0000), (22.3000, 3.0000, 0.0000), (22.3000, 2.9851, 0.2987), (22.3000, 2.9405, 0.5944), (22.3000, 2.8667, 0.8843), (22.3000, 2.7644, 1.1653), (22.3000, 2.6347, 1.4348), (22.3000, 2.4787, 1.6900), (22.3000, 2.2981, 1.9284), (22.3000, 2.0947, 2.1476), (22.3000, 1.8705, 2.3455), (22.3000, 1.6276, 2.5201), (22.3000, 1.3686, 2.6696), (22.3000, 1.0960, 2.7926), (22.3000, 0.8125, 2.8879), (22.3000, 0.5209, 2.9544), (22.3000, 0.2242, 2.9916), (22.3000, -0.0748, 2.9991), (22.3000, -0.3730, 2.9767), (22.3000, -0.6676, 2.9248), (22.3000, -0.9555, 2.8438), (22.3000, -1.2339, 2.7345), (22.3000, -1.5000, 2.5981), (22.3000, -1.7512, 2.4358), (22.3000, -1.9851, 2.2493), (22.3000, -2.1992, 2.0405), (22.3000, -2.3914, 1.8114), (22.3000, -2.5599, 1.5643), (22.3000, -2.7029, 1.3017), (22.3000, -2.8191, 1.0261), (22.3000, -2.9072, 0.7403), (22.3000, -2.9665, 0.4471), (22.3000, -2.9963, 0.1495), (22.3000, -2.9963, -0.1495), (22.3000, -2.9665, -0.4471), (22.3000, -2.9072, -0.7403), (22.3000, -2.8191, -1.0261), (22.3000, -2.7029, -1.3017), (22.3000, -2.5599, -1.5643), (22.3000, -2.3914, -1.8114), (22.3000, -2.1992, -2.0405), (22.3000, -1.9851, -2.2493), (22.3000, -1.7512, -2.4358), (22.3000, -1.5000, -2.5981), (22.3000, -1.2339, -2.7345), (22.3000, -0.9555, -2.8438), (22.3000, -0.6676, -2.9248), (22.3000, -0.3730, -2.9767), (22.3000, -0.0748, -2.9991), (22.3000, 0.2242, -2.9916), (22.3000, 0.5209, -2.9544), (22.3000, 0.8125, -2.8879), (22.3000, 1.0960, -2.7926), (22.3000, 1.3686, -2.6696), (22.3000, 1.6276, -2.5201), (22.3000, 1.8705, -2.3455), (22.3000, 2.0947, -2.1476), (22.3000, 2.2981, -1.9284), (22.3000, 2.4787, -1.6900), (22.3000, 2.6347, -1.4348), (22.3000, 2.7644, -1.1653), (22.3000, 2.8667, -0.8843), (22.3000, 2.9405, -0.5944), (22.3000, 2.9851, -0.2987), (0.0000, 2.0000, -1.1547), (0.0000, 2.0000, 1.1547), (2.0000, 2.0000, -1.1547), (2.0000, 2.0000, 1.1547), (0.0000, -0.0000, -2.3094), (0.0000, 2.0000, -1.1547), (2.0000, -0.0000, -2.3094), (2.0000, 2.0000, -1.1547), (0.0000, -2.0000, -1.1547), (0.0000, -0.0000, -2.3094), (2.0000, -2.0000, -1.1547), (2.0000, -0.0000, -2.3094), (0.0000, -2.0000, 1.1547), (0.0000, -2.0000, -1.1547), (2.0000, -2.0000, 1.1547), (2.0000, -2.0000, -1.1547), (0.0000, 0.0000, 2.3094), (0.0000, -2.0000, 1.1547), (2.0000, 0.0000, 2.3094), (2.0000, -2.0000, 1.1547), (0.0000, 2.0000, 1.1547), (0.0000, 0.0000, 2.3094), (2.0000, 2.0000, 1.1547), (2.0000, 0.0000, 2.3094), (22.3000, 3.0000, 0.0000), (22.3000, 2.9851, 0.2987), (22.3000, 2.9405, 0.5944), (22.3000, 2.8667, 0.8843), (22.3000, 2.7644, 1.1653), (22.3000, 2.6347, 1.4348), (22.3000, 2.4787, 1.6900), (22.3000, 2.2981, 1.9284), (22.3000, 2.0947, 2.1476), (22.3000, 1.8705, 2.3455), (22.3000, 1.6276, 2.5201), (22.3000, 1.3686, 2.6696), (22.3000, 1.0960, 2.7926), (22.3000, 0.8125, 2.8879), (22.3000, 0.5209, 2.9544), (22.3000, 0.2242, 2.9916), (22.3000, -0.0748, 2.9991), (22.3000, -0.3730, 2.9767), (22.3000, -0.6676, 2.9248), (22.3000, -0.9555, 2.8438), (22.3000, -1.2339, 2.7345), (22.3000, -1.5000, 2.5981), (22.3000, -1.7512, 2.4358), (22.3000, -1.9851, 2.2493), (22.3000, -2.1992, 2.0405), (22.3000, -2.3914, 1.8114), (22.3000, -2.5599, 1.5643), (22.3000, -2.7029, 1.3017), (22.3000, -2.8191, 1.0261), (22.3000, -2.9072, 0.7403), (22.3000, -2.9665, 0.4471), (22.3000, -2.9963, 0.1495), (22.3000, -2.9963, -0.1495), (22.3000, -2.9665, -0.4471), (22.3000, -2.9072, -0.7403), (22.3000, -2.8191, -1.0261), (22.3000, -2.7029, -1.3017), (22.3000, -2.5599, -1.5643), (22.3000, -2.3914, -1.8114), (22.3000, -2.1992, -2.0405), (22.3000, -1.9851, -2.2493), (22.3000, -1.7512, -2.4358), (22.3000, -1.5000, -2.5981), (22.3000, -1.2339, -2.7345), (22.3000, -0.9555, -2.8438), (22.3000, -0.6676, -2.9248), (22.3000, -0.3730, -2.9767), (22.3000, -0.0748, -2.9991), (22.3000, 0.2242, -2.9916), (22.3000, 0.5209, -2.9544), (22.3000, 0.8125, -2.8879), (22.3000, 1.0960, -2.7926), (22.3000, 1.3686, -2.6696), (22.3000, 1.6276, -2.5201), (22.3000, 1.8705, -2.3455), (22.3000, 2.0947, -2.1476), (22.3000, 2.2981, -1.9284), (22.3000, 2.4787, -1.6900), (22.3000, 2.6347, -1.4348), (22.3000, 2.7644, -1.1653), (22.3000, 2.8667, -0.8843), (22.3000, 2.9405, -0.5944), (22.3000, 2.9851, -0.2987), (22.3000, 3.0000, 0.0000), (22.6333, 2.6667, 0.0000), (22.9667, 2.3333, 0.0000), (23.3000, 2.0000, 0.0000), (23.3000, 2.0000, 0.0000), (23.3000, 1.9901, 0.1991), (23.3000, 1.9603, 0.3963), (23.3000, 1.9111, 0.5895), (23.3000, 1.8430, 0.7769), (23.3000, 1.7564, 0.9565), (23.3000, 1.6525, 1.1266), (23.3000, 1.5321, 1.2856), (23.3000, 1.3965, 1.4317), (23.3000, 1.2470, 1.5637), (23.3000, 1.0851, 1.6801), (23.3000, 0.9124, 1.7797), (23.3000, 0.7307, 1.8617), (23.3000, 0.5417, 1.9252), (23.3000, 0.3473, 1.9696), (23.3000, 0.1495, 1.9944), (23.3000, -0.0499, 1.9994), (23.3000, -0.2487, 1.9845), (23.3000, -0.4450, 1.9499), (23.3000, -0.6370, 1.8959), (23.3000, -0.8226, 1.8230), (23.3000, -1.0000, 1.7321), (23.3000, -1.1675, 1.6239), (23.3000, -1.3234, 1.4996), (23.3000, -1.4661, 1.3603), (23.3000, -1.5943, 1.2076), (23.3000, -1.7066, 1.0429), (23.3000, -1.8019, 0.8678), (23.3000, -1.8794, 0.6840), (23.3000, -1.9382, 0.4935), (23.3000, -1.9777, 0.2981), (23.3000, -1.9975, 0.0997), (23.3000, -1.9975, -0.0997), (23.3000, -1.9777, -0.2981), (23.3000, -1.9382, -0.4935), (23.3000, -1.8794, -0.6840), (23.3000, -1.8019, -0.8678), (23.3000, -1.7066, -1.0429), (23.3000, -1.5943, -1.2076), (23.3000, -1.4661, -1.3603), (23.3000, -1.3234, -1.4996), (23.3000, -1.1675, -1.6239), (23.3000, -1.0000, -1.7321), (23.3000, -0.8226, -1.8230), (23.3000, -0.6370, -1.8959), (23.3000, -0.4450, -1.9499), (23.3000, -0.2487, -1.9845), (23.3000, -0.0499, -1.9994), (23.3000, 0.1495, -1.9944), (23.3000, 0.3473, -1.9696), (23.3000, 0.5417, -1.9252), (23.3000, 0.7307, -1.8617), (23.3000, 0.9124, -1.7797), (23.3000, 1.0851, -1.6801), (23.3000, 1.2470, -1.5637), (23.3000, 1.3965, -1.4317), (23.3000, 1.5321, -1.2856), (23.3000, 1.6525, -1.1266), (23.3000, 1.7564, -0.9565), (23.3000, 1.8430, -0.7769), (23.3000, 1.9111, -0.5895), (23.3000, 1.9603, -0.3963), (23.3000, 1.9901, -0.1991), (22.6333, 2.6667, 0.0000), (22.9667, 2.3333, 0.0000), (22.6333, 2.6154, 0.5202), (22.9667, 2.2885, 0.4552), (22.6333, 2.4637, 1.0205), (22.9667, 2.1557, 0.8929), (22.6333, 2.2173, 1.4815), (22.9667, 1.9401, 1.2963), (22.6333, 1.8856, 1.8856), (22.9667, 1.6499, 1.6499), (22.6333, 1.4815, 2.2173), (22.9667, 1.2963, 1.9401), (22.6333, 1.0205, 2.4637), (22.9667, 0.8929, 2.1557), (22.6333, 0.5202, 2.6154), (22.9667, 0.4552, 2.2885), (22.6333, 0.0000, 2.6667), (22.9667, 0.0000, 2.3333), (22.6333, -0.5202, 2.6154), (22.9667, -0.4552, 2.2885), (22.6333, -1.0205, 2.4637), (22.9667, -0.8929, 2.1557), (22.6333, -1.4815, 2.2173), (22.9667, -1.2963, 1.9401), (22.6333, -1.8856, 1.8856), (22.9667, -1.6499, 1.6499), (22.6333, -2.2173, 1.4815), (22.9667, -1.9401, 1.2963), (22.6333, -2.4637, 1.0205), (22.9667, -2.1557, 0.8929), (22.6333, -2.6154, 0.5202), (22.9667, -2.2885, 0.4552), (22.6333, -2.6667, -0.0000), (22.9667, -2.3333, -0.0000), (22.6333, -2.6154, -0.5202), (22.9667, -2.2885, -0.4552), (22.6333, -2.4637, -1.0205), (22.9667, -2.1557, -0.8929), (22.6333, -2.2173, -1.4815), (22.9667, -1.9401, -1.2963), (22.6333, -1.8856, -1.8856), (22.9667, -1.6499, -1.6499), (22.6333, -1.4815, -2.2173), (22.9667, -1.2963, -1.9401), (22.6333, -1.0205, -2.4637), (22.9667, -0.8929, -2.1557), (22.6333, -0.5202, -2.6154), (22.9667, -0.4552, -2.2885), (22.6333, 0.0000, -2.6667), (22.9667, 0.0000, -2.3333), (22.6333, 0.5202, -2.6154), (22.9667, 0.4552, -2.2885), (22.6333, 1.0205, -2.4637), (22.9667, 0.8929, -2.1557), (22.6333, 1.4815, -2.2173), (22.9667, 1.2963, -1.9401), (22.6333, 1.8856, -1.8856), (22.9667, 1.6499, -1.6499), (22.6333, 2.2173, -1.4815), (22.9667, 1.9401, -1.2963), (22.6333, 2.4637, -1.0205), (22.9667, 2.1557, -0.8929), (22.6333, 2.6154, -0.5202), (22.9667, 2.2885, -0.4552), (2.0000, 2.0000, 1.1547), (2.0000, 0.0000, 2.3094), (2.0000, -2.0000, 1.1547), (2.0000, -2.0000, -1.1547), (2.0000, -0.0000, -2.3094), (2.0000, 2.0000, -1.1547), (23.3000, 2.0000, 0.0000), (23.3000, 1.9901, 0.1991), (23.3000, 1.9603, 0.3963), (23.3000, 1.9111, 0.5895), (23.3000, 1.8430, 0.7769), (23.3000, 1.7564, 0.9565), (23.3000, 1.6525, 1.1266), (23.3000, 1.5321, 1.2856), (23.3000, 1.3965, 1.4317), (23.3000, 1.2470, 1.5637), (23.3000, 1.0851, 1.6801), (23.3000, 0.9124, 1.7797), (23.3000, 0.7307, 1.8617), (23.3000, 0.5417, 1.9252), (23.3000, 0.3473, 1.9696), (23.3000, 0.1495, 1.9944), (23.3000, -0.0499, 1.9994), (23.3000, -0.2487, 1.9845), (23.3000, -0.4450, 1.9499), (23.3000, -0.6370, 1.8959), (23.3000, -0.8226, 1.8230), (23.3000, -1.0000, 1.7321), (23.3000, -1.1675, 1.6239), (23.3000, -1.3234, 1.4996), (23.3000, -1.4661, 1.3603), (23.3000, -1.5943, 1.2076), (23.3000, -1.7066, 1.0429), (23.3000, -1.8019, 0.8678), (23.3000, -1.8794, 0.6840), (23.3000, -1.9382, 0.4935), (23.3000, -1.9777, 0.2981), (23.3000, -1.9975, 0.0997), (23.3000, -1.9975, -0.0997), (23.3000, -1.9777, -0.2981), (23.3000, -1.9382, -0.4935), (23.3000, -1.8794, -0.6840), (23.3000, -1.8019, -0.8678), (23.3000, -1.7066, -1.0429), (23.3000, -1.5943, -1.2076), (23.3000, -1.4661, -1.3603), (23.3000, -1.3234, -1.4996), (23.3000, -1.1675, -1.6239), (23.3000, -1.0000, -1.7321), (23.3000, -0.8226, -1.8230), (23.3000, -0.6370, -1.8959), (23.3000, -0.4450, -1.9499), (23.3000, -0.2487, -1.9845), (23.3000, -0.0499, -1.9994), (23.3000, 0.1495, -1.9944), (23.3000, 0.3473, -1.9696), (23.3000, 0.5417, -1.9252), (23.3000, 0.7307, -1.8617), (23.3000, 0.9124, -1.7797), (23.3000, 1.0851, -1.6801), (23.3000, 1.2470, -1.5637), (23.3000, 1.3965, -1.4317), (23.3000, 1.5321, -1.2856), (23.3000, 1.6525, -1.1266), (23.3000, 1.7564, -0.9565), (23.3000, 1.8430, -0.7769), (23.3000, 1.9111, -0.5895), (23.3000, 1.9603, -0.3963), (23.3000, 1.9901, -0.1991)]
        uniform token subdivisionScheme = "none"
        color3f[] primvars:displayColor = [(0.72, 0.74, 0.77)]
    }
}
