0
SECTION
2
HEADER
9
$ACADVER
1
AC1009
9
$INSUNITS
70
4
0
ENDSEC
0
SECTION
2
TABLES
0
TABLE
2
LTYPE
70
3
0
LTYPE
2
CONTINUOUS
70
0
3
Solid line
72
65
73
0
40
0
0
LTYPE
2
DASHED
70
0
3
Dashed __ __ __
72
65
73
2
40
4.5
49
3
49
-1.5
0
LTYPE
2
CENTER
70
0
3
Center ____ _ ____
72
65
73
4
40
11.5
49
8
49
-1.5
49
0.5
49
-1.5
0
ENDTAB
0
TABLE
2
LAYER
70
9
0
LAYER
2
OUTLINE
70
0
62
7
6
CONTINUOUS
0
LAYER
2
HIDDEN
70
0
62
8
6
DASHED
0
LAYER
2
CENTER
70
0
62
1
6
CENTER
0
LAYER
2
THIN
70
0
62
7
6
CONTINUOUS
0
LAYER
2
DIM
70
0
62
3
6
CONTINUOUS
0
LAYER
2
HATCH
70
0
62
8
6
CONTINUOUS
0
LAYER
2
FRAME
70
0
62
7
6
CONTINUOUS
0
LAYER
2
TEXT
70
0
62
7
6
CONTINUOUS
0
LAYER
2
CUT
70
0
62
5
6
DASHED
0
ENDTAB
0
ENDSEC
0
SECTION
2
ENTITIES
0
LINE
8
OUTLINE
10
136.5
20
143.8
30
0
11
137.5
21
144.8
31
0
0
LINE
8
OUTLINE
10
137.5
20
144.8
30
0
11
159.5
21
144.8
31
0
0
LINE
8
OUTLINE
10
159.5
20
144.8
30
0
11
160.5
21
143.8
31
0
0
LINE
8
OUTLINE
10
136.5
20
97.8
30
0
11
137.5
21
96.8
31
0
0
LINE
8
OUTLINE
10
137.5
20
96.8
30
0
11
159.5
21
96.8
31
0
0
LINE
8
OUTLINE
10
159.5
20
96.8
30
0
11
160.5
21
97.8
31
0
0
LINE
8
OUTLINE
10
136.5
20
137.8
30
0
11
136.5
21
143.8
31
0
0
LINE
8
OUTLINE
10
136.5
20
103.8
30
0
11
136.5
21
97.8
31
0
0
LINE
8
OUTLINE
10
160.5
20
137.8
30
0
11
160.5
21
143.8
31
0
0
LINE
8
OUTLINE
10
160.5
20
103.8
30
0
11
160.5
21
97.8
31
0
0
LINE
8
OUTLINE
10
137.5
20
136.8
30
0
11
137.5
21
144.8
31
0
0
LINE
8
OUTLINE
10
137.5
20
104.8
30
0
11
137.5
21
96.8
31
0
0
LINE
8
OUTLINE
10
159.5
20
136.8
30
0
11
159.5
21
144.8
31
0
0
LINE
8
OUTLINE
10
159.5
20
104.8
30
0
11
159.5
21
96.8
31
0
0
LINE
8
OUTLINE
10
159.5
20
136.8
30
0
11
159.5
21
144.8
31
0
0
LINE
8
OUTLINE
10
159.5
20
104.8
30
0
11
159.5
21
96.8
31
0
0
LINE
8
CENTER
10
128.5
20
120.8
30
0
11
168.5
21
120.8
31
0
0
LINE
8
OUTLINE
10
136.5
20
137.8
30
0
11
137.5
21
136.8
31
0
0
LINE
8
OUTLINE
10
137.5
20
136.8
30
0
11
159.5
21
136.8
31
0
0
LINE
8
OUTLINE
10
159.5
20
136.8
30
0
11
160.5
21
137.8
31
0
0
LINE
8
OUTLINE
10
136.5
20
103.8
30
0
11
137.5
21
104.8
31
0
0
LINE
8
OUTLINE
10
137.5
20
104.8
30
0
11
159.5
21
104.8
31
0
0
LINE
8
OUTLINE
10
159.5
20
104.8
30
0
11
160.5
21
103.8
31
0
0
LINE
8
HATCH
10
157.732
20
136.8
30
0
11
160.5
21
139.568
31
0
0
LINE
8
HATCH
10
154.197
20
136.8
30
0
11
160.5
21
143.103
31
0
0
LINE
8
HATCH
10
150.661
20
136.8
30
0
11
158.661
21
144.8
31
0
0
LINE
8
HATCH
10
147.126
20
136.8
30
0
11
155.126
21
144.8
31
0
0
LINE
8
HATCH
10
143.59
20
136.8
30
0
11
151.59
21
144.8
31
0
0
LINE
8
HATCH
10
140.055
20
136.8
30
0
11
148.055
21
144.8
31
0
0
LINE
8
HATCH
10
137.01
20
137.29
30
0
11
144.519
21
144.8
31
0
0
LINE
8
HATCH
10
136.5
20
140.317
30
0
11
140.983
21
144.8
31
0
0
LINE
8
HATCH
10
157.732
20
96.8
30
0
11
160.5
21
99.568
31
0
0
LINE
8
HATCH
10
154.197
20
96.8
30
0
11
160.5
21
103.103
31
0
0
LINE
8
HATCH
10
150.661
20
96.8
30
0
11
158.661
21
104.8
31
0
0
LINE
8
HATCH
10
147.126
20
96.8
30
0
11
155.126
21
104.8
31
0
0
LINE
8
HATCH
10
143.59
20
96.8
30
0
11
151.59
21
104.8
31
0
0
LINE
8
HATCH
10
140.055
20
96.8
30
0
11
148.055
21
104.8
31
0
0
LINE
8
HATCH
10
137.01
20
97.29
30
0
11
144.519
21
104.8
31
0
0
LINE
8
HATCH
10
136.5
20
100.317
30
0
11
140.983
21
104.8
31
0
0
LINE
8
DIM
10
136.5
20
95.8
30
0
11
136.5
21
79.8
31
0
0
LINE
8
DIM
10
160.5
20
95.8
30
0
11
160.5
21
79.8
31
0
0
LINE
8
DIM
10
136.5
20
81.8
30
0
11
160.5
21
81.8
31
0
0
SOLID
8
DIM
10
136.5
20
81.8
30
0
11
139.5
21
82.31
31
0
12
139.5
22
81.29
32
0
13
139.5
23
81.29
33
0
0
SOLID
8
DIM
10
160.5
20
81.8
30
0
11
157.5
21
81.29
31
0
12
157.5
22
82.31
32
0
13
157.5
23
82.31
33
0
0
TEXT
8
TEXT
10
148.5
20
83.6
30
0
40
3.5
1
12
50
0
72
1
11
148.5
21
83.6
31
0
0
LINE
8
DIM
10
148.5
20
96.8
30
0
11
148.5
21
154.8
31
0
0
SOLID
8
DIM
10
148.5
20
96.8
30
0
11
147.99
21
99.8
31
0
12
149.01
22
99.8
32
0
13
149.01
23
99.8
33
0
0
SOLID
8
DIM
10
148.5
20
144.8
30
0
11
149.01
21
141.8
31
0
12
147.99
22
141.8
32
0
13
147.99
23
141.8
33
0
0
TEXT
8
TEXT
10
148.5
20
156.4
30
0
40
3.5
1
%%c24
50
0
72
1
11
148.5
21
156.4
31
0
0
LINE
8
DIM
10
148.5
20
104.8
30
0
11
148.5
21
149.8
31
0
0
SOLID
8
DIM
10
148.5
20
104.8
30
0
11
147.99
21
107.8
31
0
12
149.01
22
107.8
32
0
13
149.01
23
107.8
33
0
0
SOLID
8
DIM
10
148.5
20
136.8
30
0
11
149.01
21
133.8
31
0
12
147.99
22
133.8
32
0
13
147.99
23
133.8
33
0
0
TEXT
8
TEXT
10
148.5
20
151.4
30
0
40
3.5
1
%%c16 H8
50
0
72
1
11
148.5
21
151.4
31
0
0
LINE
8
DIM
10
137
20
144.3
30
0
11
131
21
152.3
31
0
0
LINE
8
DIM
10
131
20
152.3
30
0
11
121.72
21
152.3
31
0
0
SOLID
8
DIM
10
137
20
144.3
30
0
11
139.208
21
142.206
31
0
12
138.392
22
141.594
32
0
13
138.392
23
141.594
33
0
0
TEXT
8
TEXT
10
130
20
153.7
30
0
40
3.5
1
C0.5
50
0
72
2
11
130
21
153.7
31
0
0
LINE
8
DIM
10
160
20
144.3
30
0
11
166
21
152.3
31
0
0
LINE
8
DIM
10
166
20
152.3
30
0
11
175.28
21
152.3
31
0
0
SOLID
8
DIM
10
160
20
144.3
30
0
11
158.608
21
141.594
31
0
12
157.792
22
142.206
32
0
13
157.792
23
142.206
33
0
0
TEXT
8
TEXT
10
167
20
153.7
30
0
40
3.5
1
C0.5
50
0
72
0
11
167
21
153.7
31
0
0
LINE
8
FRAME
10
10
20
10
30
0
11
287
21
10
31
0
0
LINE
8
FRAME
10
287
20
10
30
0
11
287
21
200
31
0
0
LINE
8
FRAME
10
287
20
200
30
0
11
10
21
200
31
0
0
LINE
8
FRAME
10
10
20
200
30
0
11
10
21
10
31
0
0
LINE
8
FRAME
10
177
20
10
30
0
11
287
21
10
31
0
0
LINE
8
FRAME
10
287
20
10
30
0
11
287
21
34
31
0
0
LINE
8
FRAME
10
287
20
34
30
0
11
177
21
34
31
0
0
LINE
8
FRAME
10
177
20
34
30
0
11
177
21
10
31
0
0
LINE
8
FRAME
10
177
20
18
30
0
11
287
21
18
31
0
0
LINE
8
FRAME
10
177
20
26
30
0
11
287
21
26
31
0
0
LINE
8
FRAME
10
232
20
10
30
0
11
232
21
26
31
0
0
LINE
8
FRAME
10
255
20
26
30
0
11
255
21
34
31
0
0
TEXT
8
TEXT
10
179
20
28.5
30
0
40
4.2
1
VRINGON
72
0
11
179
21
28.5
31
0
0
TEXT
8
TEXT
10
257
20
28.5
30
0
40
2.5
1
도번 VR-RB-001
72
0
11
257
21
28.5
31
0
0
TEXT
8
TEXT
10
179
20
20.5
30
0
40
2.8
1
품명 스페이서
72
0
11
179
21
20.5
31
0
0
TEXT
8
TEXT
10
234
20
20.5
30
0
40
2.8
1
재질 A6061
72
0
11
234
21
20.5
31
0
0
TEXT
8
TEXT
10
179
20
12.5
30
0
40
2.5
1
척도 2:1
72
0
11
179
21
12.5
31
0
0
TEXT
8
TEXT
10
234
20
12.5
30
0
40
2.5
1
3각법 · 단위 mm
72
0
11
234
21
12.5
31
0
0
CIRCLE
8
FRAME
10
269
20
16.5
30
0
40
2.4
0
CIRCLE
8
FRAME
10
269
20
16.5
30
0
40
1.2
0
LINE
8
FRAME
10
274.5
20
13.9
30
0
11
281
21
15.1
31
0
0
LINE
8
FRAME
10
281
20
15.1
30
0
11
281
21
17.9
31
0
0
LINE
8
FRAME
10
281
20
17.9
30
0
11
274.5
21
19.1
31
0
0
LINE
8
FRAME
10
274.5
20
19.1
30
0
11
274.5
21
13.9
31
0
0
TEXT
8
TEXT
10
14
20
18.2
30
0
40
2.6
1
1. 지시 없는 모따기 C0.5
72
0
11
14
21
18.2
31
0
0
TEXT
8
TEXT
10
14
20
14
30
0
40
2.6
1
2. 지시 없는 공차 KS B ISO 2768-m
72
0
11
14
21
14
31
0
0
ENDSEC
0
EOF
