0
SECTION
2
HEADER
9
$ACADVER
1
AC1009
9
$INSUNITS
70
4
0
ENDSEC
0
SECTION
2
TABLES
0
TABLE
2
LTYPE
70
3
0
LTYPE
2
CONTINUOUS
70
0
3
Solid line
72
65
73
0
40
0
0
LTYPE
2
DASHED
70
0
3
Dashed __ __ __
72
65
73
2
40
4.5
49
3
49
-1.5
0
LTYPE
2
CENTER
70
0
3
Center ____ _ ____
72
65
73
4
40
11.5
49
8
49
-1.5
49
0.5
49
-1.5
0
ENDTAB
0
TABLE
2
LAYER
70
9
0
LAYER
2
OUTLINE
70
0
62
7
6
CONTINUOUS
0
LAYER
2
HIDDEN
70
0
62
8
6
DASHED
0
LAYER
2
CENTER
70
0
62
1
6
CENTER
0
LAYER
2
THIN
70
0
62
7
6
CONTINUOUS
0
LAYER
2
DIM
70
0
62
3
6
CONTINUOUS
0
LAYER
2
HATCH
70
0
62
8
6
CONTINUOUS
0
LAYER
2
FRAME
70
0
62
7
6
CONTINUOUS
0
LAYER
2
TEXT
70
0
62
7
6
CONTINUOUS
0
LAYER
2
CUT
70
0
62
5
6
DASHED
0
ENDTAB
0
ENDSEC
0
SECTION
2
ENTITIES
0
LINE
8
OUTLINE
10
79.585
20
125.7
30
0
11
80.085
21
126.2
31
0
0
LINE
8
OUTLINE
10
80.085
20
126.2
30
0
11
91.835
21
126.2
31
0
0
LINE
8
OUTLINE
10
91.835
20
126.2
30
0
11
91.868
21
126.202
31
0
0
LINE
8
OUTLINE
10
91.868
20
126.202
30
0
11
91.9
21
126.209
31
0
0
LINE
8
OUTLINE
10
91.9
20
126.209
30
0
11
91.931
21
126.219
31
0
0
LINE
8
OUTLINE
10
91.931
20
126.219
30
0
11
91.96
21
126.233
31
0
0
LINE
8
OUTLINE
10
91.96
20
126.233
30
0
11
91.987
21
126.252
31
0
0
LINE
8
OUTLINE
10
91.987
20
126.252
30
0
11
92.012
21
126.273
31
0
0
LINE
8
OUTLINE
10
92.012
20
126.273
30
0
11
92.033
21
126.298
31
0
0
LINE
8
OUTLINE
10
92.033
20
126.298
30
0
11
92.052
21
126.325
31
0
0
LINE
8
OUTLINE
10
92.052
20
126.325
30
0
11
92.066
21
126.354
31
0
0
LINE
8
OUTLINE
10
92.066
20
126.354
30
0
11
92.076
21
126.385
31
0
0
LINE
8
OUTLINE
10
92.076
20
126.385
30
0
11
92.083
21
126.417
31
0
0
LINE
8
OUTLINE
10
92.083
20
126.417
30
0
11
92.085
21
126.45
31
0
0
LINE
8
OUTLINE
10
92.085
20
126.45
30
0
11
92.085
21
126.7
31
0
0
LINE
8
OUTLINE
10
92.085
20
126.7
30
0
11
111.585
21
126.7
31
0
0
LINE
8
OUTLINE
10
111.585
20
126.7
30
0
11
111.65
21
126.704
31
0
0
LINE
8
OUTLINE
10
111.65
20
126.704
30
0
11
111.714
21
126.717
31
0
0
LINE
8
OUTLINE
10
111.714
20
126.717
30
0
11
111.776
21
126.738
31
0
0
LINE
8
OUTLINE
10
111.776
20
126.738
30
0
11
111.835
21
126.767
31
0
0
LINE
8
OUTLINE
10
111.835
20
126.767
30
0
11
111.889
21
126.803
31
0
0
LINE
8
OUTLINE
10
111.889
20
126.803
30
0
11
111.939
21
126.846
31
0
0
LINE
8
OUTLINE
10
111.939
20
126.846
30
0
11
111.982
21
126.896
31
0
0
LINE
8
OUTLINE
10
111.982
20
126.896
30
0
11
112.018
21
126.95
31
0
0
LINE
8
OUTLINE
10
112.018
20
126.95
30
0
11
112.047
21
127.009
31
0
0
LINE
8
OUTLINE
10
112.047
20
127.009
30
0
11
112.068
21
127.071
31
0
0
LINE
8
OUTLINE
10
112.068
20
127.071
30
0
11
112.081
21
127.135
31
0
0
LINE
8
OUTLINE
10
112.081
20
127.135
30
0
11
112.085
21
127.2
31
0
0
LINE
8
OUTLINE
10
112.085
20
127.2
30
0
11
112.085
21
127.45
31
0
0
LINE
8
OUTLINE
10
112.085
20
127.45
30
0
11
142.085
21
127.45
31
0
0
LINE
8
OUTLINE
10
142.085
20
127.45
30
0
11
142.085
21
127.2
31
0
0
LINE
8
OUTLINE
10
142.085
20
127.2
30
0
11
142.089
21
127.135
31
0
0
LINE
8
OUTLINE
10
142.089
20
127.135
30
0
11
142.102
21
127.071
31
0
0
LINE
8
OUTLINE
10
142.102
20
127.071
30
0
11
142.123
21
127.009
31
0
0
LINE
8
OUTLINE
10
142.123
20
127.009
30
0
11
142.152
21
126.95
31
0
0
LINE
8
OUTLINE
10
142.152
20
126.95
30
0
11
142.188
21
126.896
31
0
0
LINE
8
OUTLINE
10
142.188
20
126.896
30
0
11
142.231
21
126.846
31
0
0
LINE
8
OUTLINE
10
142.231
20
126.846
30
0
11
142.281
21
126.803
31
0
0
LINE
8
OUTLINE
10
142.281
20
126.803
30
0
11
142.335
21
126.767
31
0
0
LINE
8
OUTLINE
10
142.335
20
126.767
30
0
11
142.394
21
126.738
31
0
0
LINE
8
OUTLINE
10
142.394
20
126.738
30
0
11
142.456
21
126.717
31
0
0
LINE
8
OUTLINE
10
142.456
20
126.717
30
0
11
142.52
21
126.704
31
0
0
LINE
8
OUTLINE
10
142.52
20
126.704
30
0
11
142.585
21
126.7
31
0
0
LINE
8
OUTLINE
10
142.585
20
126.7
30
0
11
162.085
21
126.7
31
0
0
LINE
8
OUTLINE
10
162.085
20
126.7
30
0
11
162.085
21
126.45
31
0
0
LINE
8
OUTLINE
10
162.085
20
126.45
30
0
11
162.087
21
126.417
31
0
0
LINE
8
OUTLINE
10
162.087
20
126.417
30
0
11
162.094
21
126.385
31
0
0
LINE
8
OUTLINE
10
162.094
20
126.385
30
0
11
162.104
21
126.354
31
0
0
LINE
8
OUTLINE
10
162.104
20
126.354
30
0
11
162.118
21
126.325
31
0
0
LINE
8
OUTLINE
10
162.118
20
126.325
30
0
11
162.137
21
126.298
31
0
0
LINE
8
OUTLINE
10
162.137
20
126.298
30
0
11
162.158
21
126.273
31
0
0
LINE
8
OUTLINE
10
162.158
20
126.273
30
0
11
162.183
21
126.252
31
0
0
LINE
8
OUTLINE
10
162.183
20
126.252
30
0
11
162.21
21
126.233
31
0
0
LINE
8
OUTLINE
10
162.21
20
126.233
30
0
11
162.239
21
126.219
31
0
0
LINE
8
OUTLINE
10
162.239
20
126.219
30
0
11
162.27
21
126.209
31
0
0
LINE
8
OUTLINE
10
162.27
20
126.209
30
0
11
162.302
21
126.202
31
0
0
LINE
8
OUTLINE
10
162.302
20
126.202
30
0
11
162.335
21
126.2
31
0
0
LINE
8
OUTLINE
10
162.335
20
126.2
30
0
11
164.085
21
126.2
31
0
0
LINE
8
OUTLINE
10
164.085
20
126.2
30
0
11
164.085
21
126.025
31
0
0
LINE
8
OUTLINE
10
164.085
20
126.025
30
0
11
164.635
21
126.025
31
0
0
LINE
8
OUTLINE
10
164.635
20
126.025
30
0
11
164.635
21
126.2
31
0
0
LINE
8
OUTLINE
10
164.635
20
126.2
30
0
11
174.585
21
126.2
31
0
0
LINE
8
OUTLINE
10
174.585
20
126.2
30
0
11
174.585
21
125.7
31
0
0
LINE
8
OUTLINE
10
174.585
20
125.7
30
0
11
174.587
21
125.667
31
0
0
LINE
8
OUTLINE
10
174.587
20
125.667
30
0
11
174.594
21
125.635
31
0
0
LINE
8
OUTLINE
10
174.594
20
125.635
30
0
11
174.604
21
125.604
31
0
0
LINE
8
OUTLINE
10
174.604
20
125.604
30
0
11
174.618
21
125.575
31
0
0
LINE
8
OUTLINE
10
174.618
20
125.575
30
0
11
174.637
21
125.548
31
0
0
LINE
8
OUTLINE
10
174.637
20
125.548
30
0
11
174.658
21
125.523
31
0
0
LINE
8
OUTLINE
10
174.658
20
125.523
30
0
11
174.683
21
125.502
31
0
0
LINE
8
OUTLINE
10
174.683
20
125.502
30
0
11
174.71
21
125.483
31
0
0
LINE
8
OUTLINE
10
174.71
20
125.483
30
0
11
174.739
21
125.469
31
0
0
LINE
8
OUTLINE
10
174.739
20
125.469
30
0
11
174.77
21
125.459
31
0
0
LINE
8
OUTLINE
10
174.77
20
125.459
30
0
11
174.802
21
125.452
31
0
0
LINE
8
OUTLINE
10
174.802
20
125.452
30
0
11
174.835
21
125.45
31
0
0
LINE
8
OUTLINE
10
174.835
20
125.45
30
0
11
181.585
21
125.45
31
0
0
LINE
8
OUTLINE
10
181.585
20
125.45
30
0
11
182.085
21
124.95
31
0
0
LINE
8
OUTLINE
10
79.585
20
119.2
30
0
11
80.085
21
118.7
31
0
0
LINE
8
OUTLINE
10
80.085
20
118.7
30
0
11
91.835
21
118.7
31
0
0
LINE
8
OUTLINE
10
91.835
20
118.7
30
0
11
91.868
21
118.698
31
0
0
LINE
8
OUTLINE
10
91.868
20
118.698
30
0
11
91.9
21
118.691
31
0
0
LINE
8
OUTLINE
10
91.9
20
118.691
30
0
11
91.931
21
118.681
31
0
0
LINE
8
OUTLINE
10
91.931
20
118.681
30
0
11
91.96
21
118.667
31
0
0
LINE
8
OUTLINE
10
91.96
20
118.667
30
0
11
91.987
21
118.648
31
0
0
LINE
8
OUTLINE
10
91.987
20
118.648
30
0
11
92.012
21
118.627
31
0
0
LINE
8
OUTLINE
10
92.012
20
118.627
30
0
11
92.033
21
118.602
31
0
0
LINE
8
OUTLINE
10
92.033
20
118.602
30
0
11
92.052
21
118.575
31
0
0
LINE
8
OUTLINE
10
92.052
20
118.575
30
0
11
92.066
21
118.546
31
0
0
LINE
8
OUTLINE
10
92.066
20
118.546
30
0
11
92.076
21
118.515
31
0
0
LINE
8
OUTLINE
10
92.076
20
118.515
30
0
11
92.083
21
118.483
31
0
0
LINE
8
OUTLINE
10
92.083
20
118.483
30
0
11
92.085
21
118.45
31
0
0
LINE
8
OUTLINE
10
92.085
20
118.45
30
0
11
92.085
21
118.2
31
0
0
LINE
8
OUTLINE
10
92.085
20
118.2
30
0
11
111.585
21
118.2
31
0
0
LINE
8
OUTLINE
10
111.585
20
118.2
30
0
11
111.65
21
118.196
31
0
0
LINE
8
OUTLINE
10
111.65
20
118.196
30
0
11
111.714
21
118.183
31
0
0
LINE
8
OUTLINE
10
111.714
20
118.183
30
0
11
111.776
21
118.162
31
0
0
LINE
8
OUTLINE
10
111.776
20
118.162
30
0
11
111.835
21
118.133
31
0
0
LINE
8
OUTLINE
10
111.835
20
118.133
30
0
11
111.889
21
118.097
31
0
0
LINE
8
OUTLINE
10
111.889
20
118.097
30
0
11
111.939
21
118.054
31
0
0
LINE
8
OUTLINE
10
111.939
20
118.054
30
0
11
111.982
21
118.004
31
0
0
LINE
8
OUTLINE
10
111.982
20
118.004
30
0
11
112.018
21
117.95
31
0
0
LINE
8
OUTLINE
10
112.018
20
117.95
30
0
11
112.047
21
117.891
31
0
0
LINE
8
OUTLINE
10
112.047
20
117.891
30
0
11
112.068
21
117.829
31
0
0
LINE
8
OUTLINE
10
112.068
20
117.829
30
0
11
112.081
21
117.765
31
0
0
LINE
8
OUTLINE
10
112.081
20
117.765
30
0
11
112.085
21
117.7
31
0
0
LINE
8
OUTLINE
10
112.085
20
117.7
30
0
11
112.085
21
117.45
31
0
0
LINE
8
OUTLINE
10
112.085
20
117.45
30
0
11
142.085
21
117.45
31
0
0
LINE
8
OUTLINE
10
142.085
20
117.45
30
0
11
142.085
21
117.7
31
0
0
LINE
8
OUTLINE
10
142.085
20
117.7
30
0
11
142.089
21
117.765
31
0
0
LINE
8
OUTLINE
10
142.089
20
117.765
30
0
11
142.102
21
117.829
31
0
0
LINE
8
OUTLINE
10
142.102
20
117.829
30
0
11
142.123
21
117.891
31
0
0
LINE
8
OUTLINE
10
142.123
20
117.891
30
0
11
142.152
21
117.95
31
0
0
LINE
8
OUTLINE
10
142.152
20
117.95
30
0
11
142.188
21
118.004
31
0
0
LINE
8
OUTLINE
10
142.188
20
118.004
30
0
11
142.231
21
118.054
31
0
0
LINE
8
OUTLINE
10
142.231
20
118.054
30
0
11
142.281
21
118.097
31
0
0
LINE
8
OUTLINE
10
142.281
20
118.097
30
0
11
142.335
21
118.133
31
0
0
LINE
8
OUTLINE
10
142.335
20
118.133
30
0
11
142.394
21
118.162
31
0
0
LINE
8
OUTLINE
10
142.394
20
118.162
30
0
11
142.456
21
118.183
31
0
0
LINE
8
OUTLINE
10
142.456
20
118.183
30
0
11
142.52
21
118.196
31
0
0
LINE
8
OUTLINE
10
142.52
20
118.196
30
0
11
142.585
21
118.2
31
0
0
LINE
8
OUTLINE
10
142.585
20
118.2
30
0
11
162.085
21
118.2
31
0
0
LINE
8
OUTLINE
10
162.085
20
118.2
30
0
11
162.085
21
118.45
31
0
0
LINE
8
OUTLINE
10
162.085
20
118.45
30
0
11
162.087
21
118.483
31
0
0
LINE
8
OUTLINE
10
162.087
20
118.483
30
0
11
162.094
21
118.515
31
0
0
LINE
8
OUTLINE
10
162.094
20
118.515
30
0
11
162.104
21
118.546
31
0
0
LINE
8
OUTLINE
10
162.104
20
118.546
30
0
11
162.118
21
118.575
31
0
0
LINE
8
OUTLINE
10
162.118
20
118.575
30
0
11
162.137
21
118.602
31
0
0
LINE
8
OUTLINE
10
162.137
20
118.602
30
0
11
162.158
21
118.627
31
0
0
LINE
8
OUTLINE
10
162.158
20
118.627
30
0
11
162.183
21
118.648
31
0
0
LINE
8
OUTLINE
10
162.183
20
118.648
30
0
11
162.21
21
118.667
31
0
0
LINE
8
OUTLINE
10
162.21
20
118.667
30
0
11
162.239
21
118.681
31
0
0
LINE
8
OUTLINE
10
162.239
20
118.681
30
0
11
162.27
21
118.691
31
0
0
LINE
8
OUTLINE
10
162.27
20
118.691
30
0
11
162.302
21
118.698
31
0
0
LINE
8
OUTLINE
10
162.302
20
118.698
30
0
11
162.335
21
118.7
31
0
0
LINE
8
OUTLINE
10
162.335
20
118.7
30
0
11
164.085
21
118.7
31
0
0
LINE
8
OUTLINE
10
164.085
20
118.7
30
0
11
164.085
21
118.875
31
0
0
LINE
8
OUTLINE
10
164.085
20
118.875
30
0
11
164.635
21
118.875
31
0
0
LINE
8
OUTLINE
10
164.635
20
118.875
30
0
11
164.635
21
118.7
31
0
0
LINE
8
OUTLINE
10
164.635
20
118.7
30
0
11
174.585
21
118.7
31
0
0
LINE
8
OUTLINE
10
174.585
20
118.7
30
0
11
174.585
21
119.2
31
0
0
LINE
8
OUTLINE
10
174.585
20
119.2
30
0
11
174.587
21
119.233
31
0
0
LINE
8
OUTLINE
10
174.587
20
119.233
30
0
11
174.594
21
119.265
31
0
0
LINE
8
OUTLINE
10
174.594
20
119.265
30
0
11
174.604
21
119.296
31
0
0
LINE
8
OUTLINE
10
174.604
20
119.296
30
0
11
174.618
21
119.325
31
0
0
LINE
8
OUTLINE
10
174.618
20
119.325
30
0
11
174.637
21
119.352
31
0
0
LINE
8
OUTLINE
10
174.637
20
119.352
30
0
11
174.658
21
119.377
31
0
0
LINE
8
OUTLINE
10
174.658
20
119.377
30
0
11
174.683
21
119.398
31
0
0
LINE
8
OUTLINE
10
174.683
20
119.398
30
0
11
174.71
21
119.417
31
0
0
LINE
8
OUTLINE
10
174.71
20
119.417
30
0
11
174.739
21
119.431
31
0
0
LINE
8
OUTLINE
10
174.739
20
119.431
30
0
11
174.77
21
119.441
31
0
0
LINE
8
OUTLINE
10
174.77
20
119.441
30
0
11
174.802
21
119.448
31
0
0
LINE
8
OUTLINE
10
174.802
20
119.448
30
0
11
174.835
21
119.45
31
0
0
LINE
8
OUTLINE
10
174.835
20
119.45
30
0
11
181.585
21
119.45
31
0
0
LINE
8
OUTLINE
10
181.585
20
119.45
30
0
11
182.085
21
119.95
31
0
0
LINE
8
OUTLINE
10
79.585
20
119.2
30
0
11
79.585
21
125.7
31
0
0
LINE
8
OUTLINE
10
182.085
20
119.95
30
0
11
182.085
21
124.95
31
0
0
LINE
8
OUTLINE
10
80.085
20
118.7
30
0
11
80.085
21
126.2
31
0
0
LINE
8
OUTLINE
10
80.085
20
118.7
30
0
11
80.085
21
126.2
31
0
0
LINE
8
OUTLINE
10
92.085
20
118.45
30
0
11
92.085
21
126.45
31
0
0
LINE
8
OUTLINE
10
112.085
20
117.7
30
0
11
112.085
21
127.2
31
0
0
LINE
8
OUTLINE
10
142.085
20
117.7
30
0
11
142.085
21
127.2
31
0
0
LINE
8
OUTLINE
10
162.085
20
118.45
30
0
11
162.085
21
126.45
31
0
0
LINE
8
OUTLINE
10
164.085
20
118.875
30
0
11
164.085
21
126.025
31
0
0
LINE
8
OUTLINE
10
164.635
20
118.875
30
0
11
164.635
21
126.025
31
0
0
LINE
8
OUTLINE
10
174.585
20
119.2
30
0
11
174.585
21
125.7
31
0
0
LINE
8
OUTLINE
10
181.585
20
119.45
30
0
11
181.585
21
125.45
31
0
0
LINE
8
OUTLINE
10
181.585
20
119.45
30
0
11
181.585
21
125.45
31
0
0
LINE
8
CENTER
10
77.585
20
122.45
30
0
11
184.085
21
122.45
31
0
0
LINE
8
HIDDEN
10
79.585
20
123.513
30
0
11
80.56
21
122.95
31
0
0
LINE
8
HIDDEN
10
80.56
20
122.95
30
0
11
82.56
21
122.95
31
0
0
LINE
8
HIDDEN
10
82.56
20
122.95
30
0
11
82.86
21
122.45
31
0
0
LINE
8
HIDDEN
10
79.585
20
121.388
30
0
11
80.56
21
121.95
31
0
0
LINE
8
HIDDEN
10
80.56
20
121.95
30
0
11
82.56
21
121.95
31
0
0
LINE
8
HIDDEN
10
82.56
20
121.95
30
0
11
82.86
21
122.45
31
0
0
LINE
8
HIDDEN
10
80.56
20
121.95
30
0
11
80.56
21
122.95
31
0
0
LINE
8
HIDDEN
10
182.085
20
123.513
30
0
11
181.111
21
122.95
31
0
0
LINE
8
HIDDEN
10
181.111
20
122.95
30
0
11
179.111
21
122.95
31
0
0
LINE
8
HIDDEN
10
179.111
20
122.95
30
0
11
178.81
21
122.45
31
0
0
LINE
8
HIDDEN
10
182.085
20
121.388
30
0
11
181.111
21
121.95
31
0
0
LINE
8
HIDDEN
10
181.111
20
121.95
30
0
11
179.111
21
121.95
31
0
0
LINE
8
HIDDEN
10
179.111
20
121.95
30
0
11
178.81
21
122.45
31
0
0
LINE
8
HIDDEN
10
181.111
20
121.95
30
0
11
181.111
21
122.95
31
0
0
LINE
8
OUTLINE
10
121.085
20
123.95
30
0
11
133.085
21
123.95
31
0
0
LINE
8
OUTLINE
10
121.085
20
120.95
30
0
11
133.085
21
120.95
31
0
0
ARC
8
OUTLINE
10
121.085
20
122.45
30
0
40
1.5
50
90
51
270
0
ARC
8
OUTLINE
10
133.085
20
122.45
30
0
40
1.5
50
-90
51
90
0
LINE
8
CUT
10
127.085
20
129.95
30
0
11
127.085
21
134.95
31
0
0
LINE
8
CUT
10
127.085
20
134.95
30
0
11
124.085
21
134.95
31
0
0
SOLID
8
DIM
10
122.585
20
134.95
30
0
11
125.585
21
135.46
31
0
12
125.585
22
134.44
32
0
13
125.585
23
134.44
33
0
0
TEXT
8
TEXT
10
128.585
20
135.55
30
0
40
3.5
1
A
50
0
72
0
11
128.585
21
135.55
31
0
0
LINE
8
CUT
10
127.085
20
114.95
30
0
11
127.085
21
109.95
31
0
0
LINE
8
CUT
10
127.085
20
109.95
30
0
11
124.085
21
109.95
31
0
0
SOLID
8
DIM
10
122.585
20
109.95
30
0
11
125.585
21
110.46
31
0
12
125.585
22
109.44
32
0
13
125.585
23
109.44
33
0
0
TEXT
8
TEXT
10
128.585
20
106.75
30
0
40
3.5
1
A
50
0
72
0
11
128.585
21
106.75
31
0
0
LINE
8
OUTLINE
10
175.585
20
124.434
30
0
11
181.585
21
124.434
31
0
0
LINE
8
OUTLINE
10
175.585
20
120.466
30
0
11
181.585
21
120.466
31
0
0
LINE
8
OUTLINE
10
175.585
20
120.466
30
0
11
175.585
21
124.434
31
0
0
LINE
8
OUTLINE
10
181.585
20
120.466
30
0
11
181.585
21
124.434
31
0
0
LINE
8
CUT
10
178.585
20
127.95
30
0
11
178.585
21
132.95
31
0
0
LINE
8
CUT
10
178.585
20
132.95
30
0
11
175.585
21
132.95
31
0
0
SOLID
8
DIM
10
174.085
20
132.95
30
0
11
177.085
21
133.46
31
0
12
177.085
22
132.44
32
0
13
177.085
23
132.44
33
0
0
TEXT
8
TEXT
10
180.085
20
133.55
30
0
40
3.5
1
B
50
0
72
0
11
180.085
21
133.55
31
0
0
LINE
8
CUT
10
178.585
20
116.95
30
0
11
178.585
21
111.95
31
0
0
LINE
8
CUT
10
178.585
20
111.95
30
0
11
175.585
21
111.95
31
0
0
SOLID
8
DIM
10
174.085
20
111.95
30
0
11
177.085
21
112.46
31
0
12
177.085
22
111.44
32
0
13
177.085
23
111.44
33
0
0
TEXT
8
TEXT
10
180.085
20
108.75
30
0
40
3.5
1
B
50
0
72
0
11
180.085
21
108.75
31
0
0
LINE
8
DIM
10
79.585
20
117.7
30
0
11
79.585
21
100.45
31
0
0
LINE
8
DIM
10
92.085
20
117.7
30
0
11
92.085
21
100.45
31
0
0
LINE
8
DIM
10
79.585
20
102.45
30
0
11
92.085
21
102.45
31
0
0
SOLID
8
DIM
10
79.585
20
102.45
30
0
11
82.585
21
102.96
31
0
12
82.585
22
101.94
32
0
13
82.585
23
101.94
33
0
0
SOLID
8
DIM
10
92.085
20
102.45
30
0
11
89.085
21
101.94
31
0
12
89.085
22
102.96
32
0
13
89.085
23
102.96
33
0
0
TEXT
8
TEXT
10
85.835
20
102.9
30
0
40
3.5
1
25
50
0
72
1
11
85.835
21
102.9
31
0
0
LINE
8
DIM
10
92.085
20
117.2
30
0
11
92.085
21
100.45
31
0
0
LINE
8
DIM
10
112.085
20
117.2
30
0
11
112.085
21
100.45
31
0
0
LINE
8
DIM
10
92.085
20
102.45
30
0
11
112.085
21
102.45
31
0
0
SOLID
8
DIM
10
92.085
20
102.45
30
0
11
95.085
21
102.96
31
0
12
95.085
22
101.94
32
0
13
95.085
23
101.94
33
0
0
SOLID
8
DIM
10
112.085
20
102.45
30
0
11
109.085
21
101.94
31
0
12
109.085
22
102.96
32
0
13
109.085
23
102.96
33
0
0
TEXT
8
TEXT
10
102.085
20
102.9
30
0
40
3.5
1
40
50
0
72
1
11
102.085
21
102.9
31
0
0
LINE
8
DIM
10
142.085
20
117.2
30
0
11
142.085
21
100.45
31
0
0
LINE
8
DIM
10
162.085
20
117.2
30
0
11
162.085
21
100.45
31
0
0
LINE
8
DIM
10
142.085
20
102.45
30
0
11
162.085
21
102.45
31
0
0
SOLID
8
DIM
10
142.085
20
102.45
30
0
11
145.085
21
102.96
31
0
12
145.085
22
101.94
32
0
13
145.085
23
101.94
33
0
0
SOLID
8
DIM
10
162.085
20
102.45
30
0
11
159.085
21
101.94
31
0
12
159.085
22
102.96
32
0
13
159.085
23
102.96
33
0
0
TEXT
8
TEXT
10
152.085
20
102.9
30
0
40
3.5
1
40
50
0
72
1
11
152.085
21
102.9
31
0
0
LINE
8
DIM
10
162.085
20
117.7
30
0
11
162.085
21
100.45
31
0
0
LINE
8
DIM
10
174.585
20
117.7
30
0
11
174.585
21
100.45
31
0
0
LINE
8
DIM
10
162.085
20
102.45
30
0
11
174.585
21
102.45
31
0
0
SOLID
8
DIM
10
162.085
20
102.45
30
0
11
165.085
21
102.96
31
0
12
165.085
22
101.94
32
0
13
165.085
23
101.94
33
0
0
SOLID
8
DIM
10
174.585
20
102.45
30
0
11
171.585
21
101.94
31
0
12
171.585
22
102.96
32
0
13
171.585
23
102.96
33
0
0
TEXT
8
TEXT
10
168.335
20
102.9
30
0
40
3.5
1
25
50
0
72
1
11
168.335
21
102.9
31
0
0
LINE
8
DIM
10
174.585
20
118.45
30
0
11
174.585
21
100.45
31
0
0
LINE
8
DIM
10
182.085
20
118.45
30
0
11
182.085
21
100.45
31
0
0
LINE
8
DIM
10
167.985
20
102.45
30
0
11
188.685
21
102.45
31
0
0
SOLID
8
DIM
10
174.585
20
102.45
30
0
11
171.585
21
101.94
31
0
12
171.585
22
102.96
32
0
13
171.585
23
102.96
33
0
0
SOLID
8
DIM
10
182.085
20
102.45
30
0
11
185.085
21
102.96
31
0
12
185.085
22
101.94
32
0
13
185.085
23
101.94
33
0
0
TEXT
8
TEXT
10
165.425
20
107.8
30
0
40
3.5
1
15
50
0
72
1
11
165.425
21
107.8
31
0
0
LINE
8
DIM
10
79.585
20
116.45
30
0
11
79.585
21
91.45
31
0
0
LINE
8
DIM
10
182.085
20
116.45
30
0
11
182.085
21
91.45
31
0
0
LINE
8
DIM
10
79.585
20
93.45
30
0
11
182.085
21
93.45
31
0
0
SOLID
8
DIM
10
79.585
20
93.45
30
0
11
82.585
21
93.96
31
0
12
82.585
22
92.94
32
0
13
82.585
23
92.94
33
0
0
SOLID
8
DIM
10
182.085
20
93.45
30
0
11
179.085
21
92.94
31
0
12
179.085
22
93.96
32
0
13
179.085
23
93.96
33
0
0
TEXT
8
TEXT
10
130.835
20
93.9
30
0
40
3.5
1
205
50
0
72
1
11
130.835
21
93.9
31
0
0
LINE
8
DIM
10
85.835
20
112.1
30
0
11
85.835
21
128.7
31
0
0
SOLID
8
DIM
10
85.835
20
118.7
30
0
11
86.345
21
115.7
31
0
12
85.325
22
115.7
32
0
13
85.325
23
115.7
33
0
0
SOLID
8
DIM
10
85.835
20
126.2
30
0
11
85.325
21
129.2
31
0
12
86.345
22
129.2
32
0
13
86.345
23
129.2
33
0
0
TEXT
8
TEXT
10
85.835
20
129.1
30
0
40
3.5
1
%%c15 j6
50
0
72
1
11
85.835
21
129.1
31
0
0
LINE
8
DIM
10
102.085
20
118.2
30
0
11
102.085
21
129.2
31
0
0
SOLID
8
DIM
10
102.085
20
118.2
30
0
11
101.575
21
121.2
31
0
12
102.595
22
121.2
32
0
13
102.595
23
121.2
33
0
0
SOLID
8
DIM
10
102.085
20
126.7
30
0
11
102.595
21
123.7
31
0
12
101.575
22
123.7
32
0
13
101.575
23
123.7
33
0
0
TEXT
8
TEXT
10
102.085
20
129.6
30
0
40
3.5
1
%%c17
50
0
72
1
11
102.085
21
129.6
31
0
0
LINE
8
DIM
10
127.085
20
117.45
30
0
11
127.085
21
129.95
31
0
0
SOLID
8
DIM
10
127.085
20
117.45
30
0
11
126.575
21
120.45
31
0
12
127.595
22
120.45
32
0
13
127.595
23
120.45
33
0
0
SOLID
8
DIM
10
127.085
20
127.45
30
0
11
127.595
21
124.45
31
0
12
126.575
22
124.45
32
0
13
126.575
23
124.45
33
0
0
TEXT
8
TEXT
10
127.085
20
130.35
30
0
40
3.5
1
%%c20
50
0
72
1
11
127.085
21
130.35
31
0
0
LINE
8
DIM
10
152.085
20
118.2
30
0
11
152.085
21
129.2
31
0
0
SOLID
8
DIM
10
152.085
20
118.2
30
0
11
151.575
21
121.2
31
0
12
152.595
22
121.2
32
0
13
152.595
23
121.2
33
0
0
SOLID
8
DIM
10
152.085
20
126.7
30
0
11
152.595
21
123.7
31
0
12
151.575
22
123.7
32
0
13
151.575
23
123.7
33
0
0
TEXT
8
TEXT
10
152.085
20
129.6
30
0
40
3.5
1
%%c17
50
0
72
1
11
152.085
21
129.6
31
0
0
LINE
8
DIM
10
168.335
20
112.1
30
0
11
168.335
21
128.7
31
0
0
SOLID
8
DIM
10
168.335
20
118.7
30
0
11
168.845
21
115.7
31
0
12
167.825
22
115.7
32
0
13
167.825
23
115.7
33
0
0
SOLID
8
DIM
10
168.335
20
126.2
30
0
11
167.825
21
129.2
31
0
12
168.845
22
129.2
32
0
13
168.845
23
129.2
33
0
0
TEXT
8
TEXT
10
168.335
20
129.1
30
0
40
3.5
1
%%c15 j6
50
0
72
1
11
168.335
21
129.1
31
0
0
LINE
8
DIM
10
178.335
20
112.85
30
0
11
178.335
21
127.95
31
0
0
SOLID
8
DIM
10
178.335
20
119.45
30
0
11
178.845
21
116.45
31
0
12
177.825
22
116.45
32
0
13
177.825
23
116.45
33
0
0
SOLID
8
DIM
10
178.335
20
125.45
30
0
11
177.825
21
128.45
31
0
12
178.845
22
128.45
32
0
13
178.845
23
128.45
33
0
0
LINE
8
DIM
10
178.335
20
127.95
30
0
11
178.335
21
138
31
0
0
TEXT
8
TEXT
10
178.335
20
138.15
30
0
40
3.5
1
%%c12 h7
50
0
72
1
11
178.335
21
138.15
31
0
0
LINE
8
DIM
10
79.835
20
125.95
30
0
11
73.835
21
133.95
31
0
0
LINE
8
DIM
10
73.835
20
133.95
30
0
11
68.995
21
133.95
31
0
0
SOLID
8
DIM
10
79.835
20
125.95
30
0
11
82.043
21
123.856
31
0
12
81.227
22
123.244
32
0
13
81.227
23
123.244
33
0
0
TEXT
8
TEXT
10
73.585
20
134.3
30
0
40
3.5
1
C1
50
0
72
2
11
73.585
21
134.3
31
0
0
LINE
8
DIM
10
181.835
20
125.2
30
0
11
187.835
21
133.2
31
0
0
LINE
8
DIM
10
187.835
20
133.2
30
0
11
192.675
21
133.2
31
0
0
SOLID
8
DIM
10
181.835
20
125.2
30
0
11
180.443
21
122.494
31
0
12
179.627
22
123.106
32
0
13
179.627
23
123.106
33
0
0
TEXT
8
TEXT
10
188.085
20
133.55
30
0
40
3.5
1
C1
50
0
72
0
11
188.085
21
133.55
31
0
0
LINE
8
DIM
10
92.012
20
126.273
30
0
11
87.012
21
133.273
31
0
0
LINE
8
DIM
10
87.012
20
133.273
30
0
11
79.232
21
133.273
31
0
0
SOLID
8
DIM
10
92.012
20
126.273
30
0
11
94.171
21
124.128
31
0
12
93.341
22
123.535
32
0
13
93.341
23
123.535
33
0
0
TEXT
8
TEXT
10
86.762
20
133.623
30
0
40
3.5
1
R0.5
50
0
72
2
11
86.762
21
133.623
31
0
0
LINE
8
DIM
10
111.94
20
126.845
30
0
11
106.94
21
133.845
31
0
0
LINE
8
DIM
10
106.94
20
133.845
30
0
11
102.1
21
133.845
31
0
0
SOLID
8
DIM
10
111.94
20
126.845
30
0
11
114.099
21
124.7
31
0
12
113.269
22
124.107
32
0
13
113.269
23
124.107
33
0
0
TEXT
8
TEXT
10
106.69
20
134.195
30
0
40
3.5
1
R1
50
0
72
2
11
106.69
21
134.195
31
0
0
LINE
8
DIM
10
142.23
20
126.845
30
0
11
147.23
21
133.845
31
0
0
LINE
8
DIM
10
147.23
20
133.845
30
0
11
152.07
21
133.845
31
0
0
SOLID
8
DIM
10
142.23
20
126.845
30
0
11
140.901
21
124.107
31
0
12
140.071
22
124.7
32
0
13
140.071
23
124.7
33
0
0
TEXT
8
TEXT
10
147.48
20
134.195
30
0
40
3.5
1
R1
50
0
72
0
11
147.48
21
134.195
31
0
0
LINE
8
DIM
10
162.158
20
126.273
30
0
11
167.158
21
133.273
31
0
0
LINE
8
DIM
10
167.158
20
133.273
30
0
11
174.938
21
133.273
31
0
0
SOLID
8
DIM
10
162.158
20
126.273
30
0
11
160.829
21
123.535
31
0
12
159.999
22
124.128
32
0
13
159.999
23
124.128
33
0
0
TEXT
8
TEXT
10
167.408
20
133.623
30
0
40
3.5
1
R0.5
50
0
72
0
11
167.408
21
133.623
31
0
0
LINE
8
DIM
10
174.658
20
125.523
30
0
11
179.658
21
142.523
31
0
0
LINE
8
DIM
10
179.658
20
142.523
30
0
11
187.438
21
142.523
31
0
0
SOLID
8
DIM
10
174.658
20
125.523
30
0
11
174.3
21
122.5
31
0
12
173.322
22
122.788
32
0
13
173.322
23
122.788
33
0
0
TEXT
8
TEXT
10
179.908
20
142.873
30
0
40
3.5
1
R0.5
50
0
72
0
11
179.908
21
142.873
31
0
0
LINE
8
DIM
10
164.085
20
127.2
30
0
11
164.085
21
138.45
31
0
0
LINE
8
DIM
10
164.635
20
127.2
30
0
11
164.635
21
138.45
31
0
0
LINE
8
DIM
10
157.485
20
136.45
30
0
11
171.235
21
136.45
31
0
0
SOLID
8
DIM
10
164.085
20
136.45
30
0
11
161.085
21
135.94
31
0
12
161.085
22
136.96
32
0
13
161.085
23
136.96
33
0
0
SOLID
8
DIM
10
164.635
20
136.45
30
0
11
167.635
21
136.96
31
0
12
167.635
22
135.94
32
0
13
167.635
23
135.94
33
0
0
TEXT
8
TEXT
10
174.285
20
146.7
30
0
40
3.5
1
1.1
50
0
72
1
11
174.285
21
146.7
31
0
0
LINE
8
DIM
10
162.085
20
127.2
30
0
11
162.085
21
138.45
31
0
0
LINE
8
DIM
10
164.085
20
127.2
30
0
11
164.085
21
138.45
31
0
0
LINE
8
DIM
10
155.485
20
136.45
30
0
11
170.685
21
136.45
31
0
0
SOLID
8
DIM
10
162.085
20
136.45
30
0
11
159.085
21
135.94
31
0
12
159.085
22
136.96
32
0
13
159.085
23
136.96
33
0
0
SOLID
8
DIM
10
164.085
20
136.45
30
0
11
167.085
21
136.96
31
0
12
167.085
22
135.94
32
0
13
167.085
23
135.94
33
0
0
TEXT
8
TEXT
10
153.905
20
136.9
30
0
40
3.5
1
4
50
0
72
1
11
153.905
21
136.9
31
0
0
LINE
8
DIM
10
164.36
20
112.275
30
0
11
164.36
21
131.2
31
0
0
SOLID
8
DIM
10
164.36
20
118.875
30
0
11
164.87
21
115.875
31
0
12
163.85
22
115.875
32
0
13
163.85
23
115.875
33
0
0
SOLID
8
DIM
10
164.36
20
126.025
30
0
11
163.85
21
129.025
31
0
12
164.87
22
129.025
32
0
13
164.87
23
129.025
33
0
0
LINE
8
DIM
10
164.36
20
131.2
30
0
11
164.36
21
141.25
31
0
0
TEXT
8
TEXT
10
164.36
20
141.4
30
0
40
3.5
1
%%c14.3
50
0
72
1
11
164.36
21
141.4
31
0
0
LINE
8
DIM
10
119.585
20
128.45
30
0
11
119.585
21
141.45
31
0
0
LINE
8
DIM
10
134.585
20
128.45
30
0
11
134.585
21
141.45
31
0
0
LINE
8
DIM
10
119.585
20
139.45
30
0
11
134.585
21
139.45
31
0
0
SOLID
8
DIM
10
119.585
20
139.45
30
0
11
122.585
21
139.96
31
0
12
122.585
22
138.94
32
0
13
122.585
23
138.94
33
0
0
SOLID
8
DIM
10
134.585
20
139.45
30
0
11
131.585
21
138.94
31
0
12
131.585
22
139.96
32
0
13
131.585
23
139.96
33
0
0
TEXT
8
TEXT
10
127.085
20
139.9
30
0
40
3.5
1
30
50
0
72
1
11
127.085
21
139.9
31
0
0
LINE
8
DIM
10
112.085
20
128.45
30
0
11
112.085
21
141.45
31
0
0
LINE
8
DIM
10
119.585
20
128.45
30
0
11
119.585
21
141.45
31
0
0
LINE
8
DIM
10
105.485
20
139.45
30
0
11
126.185
21
139.45
31
0
0
SOLID
8
DIM
10
112.085
20
139.45
30
0
11
109.085
21
138.94
31
0
12
109.085
22
139.96
32
0
13
109.085
23
139.96
33
0
0
SOLID
8
DIM
10
119.585
20
139.45
30
0
11
122.585
21
139.96
31
0
12
122.585
22
138.94
32
0
13
122.585
23
138.94
33
0
0
TEXT
8
TEXT
10
102.925
20
139.9
30
0
40
3.5
1
15
50
0
72
1
11
102.925
21
139.9
31
0
0
LINE
8
DIM
10
175.585
20
126.45
30
0
11
175.585
21
139.45
31
0
0
LINE
8
DIM
10
181.585
20
126.45
30
0
11
181.585
21
139.45
31
0
0
LINE
8
DIM
10
168.985
20
137.45
30
0
11
188.185
21
137.45
31
0
0
SOLID
8
DIM
10
175.585
20
137.45
30
0
11
172.585
21
136.94
31
0
12
172.585
22
137.96
32
0
13
172.585
23
137.96
33
0
0
SOLID
8
DIM
10
181.585
20
137.45
30
0
11
184.585
21
137.96
31
0
12
184.585
22
136.94
32
0
13
184.585
23
136.94
33
0
0
TEXT
8
TEXT
10
190.745
20
137.9
30
0
40
3.5
1
12
50
0
72
1
11
190.745
21
137.9
31
0
0
LINE
8
DIM
10
182.085
20
126.45
30
0
11
182.085
21
139.45
31
0
0
LINE
8
DIM
10
181.585
20
126.45
30
0
11
181.585
21
139.45
31
0
0
LINE
8
DIM
10
174.985
20
137.45
30
0
11
188.685
21
137.45
31
0
0
SOLID
8
DIM
10
181.585
20
137.45
30
0
11
178.585
21
136.94
31
0
12
178.585
22
137.96
32
0
13
178.585
23
137.96
33
0
0
SOLID
8
DIM
10
182.085
20
137.45
30
0
11
185.085
21
137.96
31
0
12
185.085
22
136.94
32
0
13
185.085
23
136.94
33
0
0
TEXT
8
TEXT
10
190.265
20
142.8
30
0
40
3.5
1
1
50
0
72
1
11
190.265
21
142.8
31
0
0
LINE
8
DIM
10
79.585
20
123.588
30
0
11
74.585
21
139.7
31
0
0
LINE
8
DIM
10
74.585
20
139.7
30
0
11
46.935
21
139.7
31
0
0
SOLID
8
DIM
10
79.585
20
123.588
30
0
11
80.961
21
120.873
31
0
12
79.987
22
120.571
32
0
13
79.987
23
120.571
33
0
0
TEXT
8
TEXT
10
74.335
20
140.05
30
0
40
2.5
1
센터구멍 A2 (DIN 332)
50
0
72
2
11
74.335
21
140.05
31
0
0
LINE
8
DIM
10
182.085
20
123.325
30
0
11
187.085
21
146.95
31
0
0
LINE
8
DIM
10
187.085
20
146.95
30
0
11
214.735
21
146.95
31
0
0
SOLID
8
DIM
10
182.085
20
123.325
30
0
11
181.963
21
120.284
31
0
12
180.965
22
120.496
32
0
13
180.965
23
120.496
33
0
0
TEXT
8
TEXT
10
187.335
20
147.3
30
0
40
2.5
1
센터구멍 A2 (DIN 332)
50
0
72
0
11
187.335
21
147.3
31
0
0
TEXT
8
TEXT
10
201.085
20
139.45
30
0
40
4
1
A-A
50
0
72
1
11
201.085
21
139.45
31
0
0
LINE
8
CENTER
10
193.085
20
122.45
30
0
11
209.085
21
122.45
31
0
0
LINE
8
CENTER
10
201.085
20
114.45
30
0
11
201.085
21
130.45
31
0
0
ARC
8
OUTLINE
10
201.085
20
122.45
30
0
40
5
50
107.458
51
72.542
0
LINE
8
OUTLINE
10
199.585
20
125.7
30
0
11
199.585
21
127.22
31
0
0
LINE
8
OUTLINE
10
202.585
20
125.7
30
0
11
202.585
21
127.22
31
0
0
LINE
8
OUTLINE
10
199.585
20
125.7
30
0
11
202.585
21
125.7
31
0
0
LINE
8
DIM
10
199.585
20
128.22
30
0
11
199.585
21
135.45
31
0
0
LINE
8
DIM
10
202.585
20
128.22
30
0
11
202.585
21
135.45
31
0
0
LINE
8
DIM
10
192.985
20
133.45
30
0
11
209.185
21
133.45
31
0
0
SOLID
8
DIM
10
199.585
20
133.45
30
0
11
196.585
21
132.94
31
0
12
196.585
22
133.96
32
0
13
196.585
23
133.96
33
0
0
SOLID
8
DIM
10
202.585
20
133.45
30
0
11
205.585
21
133.96
31
0
12
205.585
22
132.94
32
0
13
205.585
23
132.94
33
0
0
TEXT
8
TEXT
10
210.765
20
133.9
30
0
40
3.5
1
6
50
0
72
1
11
210.765
21
133.9
31
0
0
LINE
8
DIM
10
203.585
20
125.7
30
0
11
215.085
21
125.7
31
0
0
LINE
8
DIM
10
202.085
20
117.45
30
0
11
215.085
21
117.45
31
0
0
LINE
8
DIM
10
213.085
20
117.45
30
0
11
213.085
21
125.7
31
0
0
SOLID
8
DIM
10
213.085
20
117.45
30
0
11
212.575
21
120.45
31
0
12
213.595
22
120.45
32
0
13
213.595
23
120.45
33
0
0
SOLID
8
DIM
10
213.085
20
125.7
30
0
11
213.595
21
122.7
31
0
12
212.575
22
122.7
32
0
13
212.575
23
122.7
33
0
0
TEXT
8
TEXT
10
212.635
20
121.575
30
0
40
3.5
1
16.5
50
90
72
1
11
212.635
21
121.575
31
0
0
LINE
8
HATCH
10
201.398
20
117.467
30
0
11
206.069
21
122.138
31
0
0
LINE
8
HATCH
10
198.545
20
118.148
30
0
11
205.39
21
124.993
31
0
0
LINE
8
HATCH
10
196.776
20
119.915
30
0
11
202.561
21
125.7
31
0
0
LINE
8
HATCH
10
202.585
20
125.724
30
0
11
203.618
21
126.757
31
0
0
LINE
8
HATCH
10
196.101
20
122.776
30
0
11
199.585
21
126.26
31
0
0
TEXT
8
TEXT
10
237.085
20
137.45
30
0
40
4
1
B-B
50
0
72
1
11
237.085
21
137.45
31
0
0
LINE
8
CENTER
10
231.085
20
122.45
30
0
11
243.085
21
122.45
31
0
0
LINE
8
CENTER
10
237.085
20
116.45
30
0
11
237.085
21
128.45
31
0
0
ARC
8
OUTLINE
10
237.085
20
122.45
30
0
40
3
50
131.41
51
48.59
0
LINE
8
OUTLINE
10
235.101
20
124.7
30
0
11
239.069
21
124.7
31
0
0
LINE
8
DIM
10
240.069
20
124.7
30
0
11
249.085
21
124.7
31
0
0
LINE
8
DIM
10
238.085
20
119.45
30
0
11
249.085
21
119.45
31
0
0
LINE
8
DIM
10
247.085
20
112.85
30
0
11
247.085
21
131.3
31
0
0
SOLID
8
DIM
10
247.085
20
119.45
30
0
11
247.595
21
116.45
31
0
12
246.575
22
116.45
32
0
13
246.575
23
116.45
33
0
0
SOLID
8
DIM
10
247.085
20
124.7
30
0
11
246.575
21
127.7
31
0
12
247.595
22
127.7
32
0
13
247.595
23
127.7
33
0
0
TEXT
8
TEXT
10
246.635
20
122.075
30
0
40
3.5
1
10.5
50
90
72
1
11
246.635
21
122.075
31
0
0
LINE
8
HATCH
10
236.599
20
119.493
30
0
11
240.041
21
122.935
31
0
0
LINE
8
HATCH
10
234.5
20
120.929
30
0
11
238.271
21
124.7
31
0
0
LINE
8
FRAME
10
10
20
10
30
0
11
287
21
10
31
0
0
LINE
8
FRAME
10
287
20
10
30
0
11
287
21
200
31
0
0
LINE
8
FRAME
10
287
20
200
30
0
11
10
21
200
31
0
0
LINE
8
FRAME
10
10
20
200
30
0
11
10
21
10
31
0
0
LINE
8
FRAME
10
177
20
10
30
0
11
287
21
10
31
0
0
LINE
8
FRAME
10
287
20
10
30
0
11
287
21
34
31
0
0
LINE
8
FRAME
10
287
20
34
30
0
11
177
21
34
31
0
0
LINE
8
FRAME
10
177
20
34
30
0
11
177
21
10
31
0
0
LINE
8
FRAME
10
177
20
18
30
0
11
287
21
18
31
0
0
LINE
8
FRAME
10
177
20
26
30
0
11
287
21
26
31
0
0
LINE
8
FRAME
10
232
20
10
30
0
11
232
21
26
31
0
0
LINE
8
FRAME
10
255
20
26
30
0
11
255
21
34
31
0
0
TEXT
8
TEXT
10
179
20
28.5
30
0
40
4.2
1
VRINGON
72
0
11
179
21
28.5
31
0
0
TEXT
8
TEXT
10
257
20
28.5
30
0
40
2.5
1
도번 VR-RB-010
72
0
11
257
21
28.5
31
0
0
TEXT
8
TEXT
10
179
20
20.5
30
0
40
2.8
1
품명 모터 축
72
0
11
179
21
20.5
31
0
0
TEXT
8
TEXT
10
234
20
20.5
30
0
40
2.8
1
재질 S45C
72
0
11
234
21
20.5
31
0
0
TEXT
8
TEXT
10
179
20
12.5
30
0
40
2.5
1
척도 1:2
72
0
11
179
21
12.5
31
0
0
TEXT
8
TEXT
10
234
20
12.5
30
0
40
2.5
1
3각법 · 단위 mm
72
0
11
234
21
12.5
31
0
0
CIRCLE
8
FRAME
10
269
20
16.5
30
0
40
2.4
0
CIRCLE
8
FRAME
10
269
20
16.5
30
0
40
1.2
0
LINE
8
FRAME
10
274.5
20
13.9
30
0
11
281
21
15.1
31
0
0
LINE
8
FRAME
10
281
20
15.1
30
0
11
281
21
17.9
31
0
0
LINE
8
FRAME
10
281
20
17.9
30
0
11
274.5
21
19.1
31
0
0
LINE
8
FRAME
10
274.5
20
19.1
30
0
11
274.5
21
13.9
31
0
0
TEXT
8
TEXT
10
14
20
18.2
30
0
40
2.6
1
1. 지시 없는 모따기 C0.5
72
0
11
14
21
18.2
31
0
0
TEXT
8
TEXT
10
14
20
14
30
0
40
2.6
1
2. 지시 없는 공차 KS B ISO 2768-m
72
0
11
14
21
14
31
0
0
ENDSEC
0
EOF
