0
SECTION
2
HEADER
9
$ACADVER
1
AC1009
9
$INSUNITS
70
4
0
ENDSEC
0
SECTION
2
TABLES
0
TABLE
2
LTYPE
70
3
0
LTYPE
2
CONTINUOUS
70
0
3
Solid line
72
65
73
0
40
0
0
LTYPE
2
DASHED
70
0
3
Dashed __ __ __
72
65
73
2
40
4.5
49
3
49
-1.5
0
LTYPE
2
CENTER
70
0
3
Center ____ _ ____
72
65
73
4
40
11.5
49
8
49
-1.5
49
0.5
49
-1.5
0
ENDTAB
0
TABLE
2
LAYER
70
9
0
LAYER
2
OUTLINE
70
0
62
7
6
CONTINUOUS
0
LAYER
2
HIDDEN
70
0
62
8
6
DASHED
0
LAYER
2
CENTER
70
0
62
1
6
CENTER
0
LAYER
2
THIN
70
0
62
7
6
CONTINUOUS
0
LAYER
2
DIM
70
0
62
3
6
CONTINUOUS
0
LAYER
2
HATCH
70
0
62
8
6
CONTINUOUS
0
LAYER
2
FRAME
70
0
62
7
6
CONTINUOUS
0
LAYER
2
TEXT
70
0
62
7
6
CONTINUOUS
0
LAYER
2
CUT
70
0
62
5
6
DASHED
0
ENDTAB
0
ENDSEC
0
SECTION
2
ENTITIES
0
LINE
8
OUTLINE
10
152.5
20
124.9
30
0
11
153.5
21
125.9
31
0
0
LINE
8
OUTLINE
10
153.5
20
125.9
30
0
11
174.5
21
125.9
31
0
0
LINE
8
OUTLINE
10
174.5
20
125.9
30
0
11
176.5
21
123.9
31
0
0
LINE
8
OUTLINE
10
152.5
20
114.9
30
0
11
153.5
21
113.9
31
0
0
LINE
8
OUTLINE
10
153.5
20
113.9
30
0
11
174.5
21
113.9
31
0
0
LINE
8
OUTLINE
10
174.5
20
113.9
30
0
11
176.5
21
115.9
31
0
0
LINE
8
OUTLINE
10
152.5
20
114.9
30
0
11
152.5
21
124.9
31
0
0
LINE
8
OUTLINE
10
176.5
20
115.9
30
0
11
176.5
21
123.9
31
0
0
LINE
8
OUTLINE
10
153.5
20
113.9
30
0
11
153.5
21
125.9
31
0
0
LINE
8
OUTLINE
10
174.5
20
113.9
30
0
11
174.5
21
125.9
31
0
0
LINE
8
OUTLINE
10
174.5
20
113.9
30
0
11
174.5
21
125.9
31
0
0
LINE
8
CENTER
10
144.5
20
119.9
30
0
11
184.5
21
119.9
31
0
0
LINE
8
THIN
10
153.5
20
124.673
30
0
11
176.5
21
124.673
31
0
0
LINE
8
THIN
10
153.5
20
115.127
30
0
11
176.5
21
115.127
31
0
0
LINE
8
HIDDEN
10
152.5
20
122.9
30
0
11
158.5
21
122.9
31
0
0
LINE
8
HIDDEN
10
152.5
20
116.9
30
0
11
158.5
21
116.9
31
0
0
LINE
8
HIDDEN
10
158.5
20
116.9
30
0
11
158.5
21
122.9
31
0
0
LINE
8
DIM
10
152.5
20
112.9
30
0
11
152.5
21
96.9
31
0
0
LINE
8
DIM
10
176.5
20
112.9
30
0
11
176.5
21
96.9
31
0
0
LINE
8
DIM
10
152.5
20
98.9
30
0
11
176.5
21
98.9
31
0
0
SOLID
8
DIM
10
152.5
20
98.9
30
0
11
155.5
21
99.41
31
0
12
155.5
22
98.39
32
0
13
155.5
23
98.39
33
0
0
SOLID
8
DIM
10
176.5
20
98.9
30
0
11
173.5
21
98.39
31
0
12
173.5
22
99.41
32
0
13
173.5
23
99.41
33
0
0
TEXT
8
TEXT
10
164.5
20
100.7
30
0
40
3.5
1
12
50
0
72
1
11
164.5
21
100.7
31
0
0
LINE
8
DIM
10
164.5
20
125.9
30
0
11
170.5
21
134.9
31
0
0
LINE
8
DIM
10
170.5
20
134.9
30
0
11
176.84
21
134.9
31
0
0
SOLID
8
DIM
10
164.5
20
125.9
30
0
11
163.26
21
123.121
31
0
12
162.412
22
123.687
32
0
13
162.412
23
123.687
33
0
0
TEXT
8
TEXT
10
171.5
20
136.3
30
0
40
3.5
1
M6
50
0
72
0
11
171.5
21
136.3
31
0
0
LINE
8
DIM
10
153
20
125.4
30
0
11
147
21
133.4
31
0
0
LINE
8
DIM
10
147
20
133.4
30
0
11
137.72
21
133.4
31
0
0
SOLID
8
DIM
10
153
20
125.4
30
0
11
155.208
21
123.306
31
0
12
154.392
22
122.694
32
0
13
154.392
23
122.694
33
0
0
TEXT
8
TEXT
10
146
20
134.8
30
0
40
3.5
1
C0.5
50
0
72
2
11
146
21
134.8
31
0
0
LINE
8
DIM
10
175.5
20
124.9
30
0
11
181.5
21
132.9
31
0
0
LINE
8
DIM
10
181.5
20
132.9
30
0
11
187.84
21
132.9
31
0
0
SOLID
8
DIM
10
175.5
20
124.9
30
0
11
174.108
21
122.194
31
0
12
173.292
22
122.806
32
0
13
173.292
23
122.806
33
0
0
TEXT
8
TEXT
10
182.5
20
134.3
30
0
40
3.5
1
C1
50
0
72
0
11
182.5
21
134.3
31
0
0
LINE
8
DIM
10
155.5
20
122.9
30
0
11
149.5
21
139.9
31
0
0
LINE
8
DIM
10
149.5
20
139.9
30
0
11
125.75
21
139.9
31
0
0
SOLID
8
DIM
10
155.5
20
122.9
30
0
11
156.979
21
120.241
31
0
12
156.018
22
119.901
32
0
13
156.018
23
119.901
33
0
0
TEXT
8
TEXT
10
148.5
20
141.3
30
0
40
2.5
1
육각 소켓 S3 깊이 3
50
0
72
2
11
148.5
21
141.3
31
0
0
LINE
8
FRAME
10
10
20
10
30
0
11
287
21
10
31
0
0
LINE
8
FRAME
10
287
20
10
30
0
11
287
21
200
31
0
0
LINE
8
FRAME
10
287
20
200
30
0
11
10
21
200
31
0
0
LINE
8
FRAME
10
10
20
200
30
0
11
10
21
10
31
0
0
LINE
8
FRAME
10
177
20
10
30
0
11
287
21
10
31
0
0
LINE
8
FRAME
10
287
20
10
30
0
11
287
21
34
31
0
0
LINE
8
FRAME
10
287
20
34
30
0
11
177
21
34
31
0
0
LINE
8
FRAME
10
177
20
34
30
0
11
177
21
10
31
0
0
LINE
8
FRAME
10
177
20
18
30
0
11
287
21
18
31
0
0
LINE
8
FRAME
10
177
20
26
30
0
11
287
21
26
31
0
0
LINE
8
FRAME
10
232
20
10
30
0
11
232
21
26
31
0
0
LINE
8
FRAME
10
255
20
26
30
0
11
255
21
34
31
0
0
TEXT
8
TEXT
10
179
20
28.5
30
0
40
4.2
1
VRINGON
72
0
11
179
21
28.5
31
0
0
TEXT
8
TEXT
10
257
20
28.5
30
0
40
2.5
1
도번 VR-RB-015
72
0
11
257
21
28.5
31
0
0
TEXT
8
TEXT
10
179
20
20.5
30
0
40
2.8
1
품명 세트 스크루 M6×12
72
0
11
179
21
20.5
31
0
0
TEXT
8
TEXT
10
234
20
20.5
30
0
40
2.8
1
재질 S45C
72
0
11
234
21
20.5
31
0
0
TEXT
8
TEXT
10
179
20
12.5
30
0
40
2.5
1
척도 2:1
72
0
11
179
21
12.5
31
0
0
TEXT
8
TEXT
10
234
20
12.5
30
0
40
2.5
1
3각법 · 단위 mm
72
0
11
234
21
12.5
31
0
0
CIRCLE
8
FRAME
10
269
20
16.5
30
0
40
2.4
0
CIRCLE
8
FRAME
10
269
20
16.5
30
0
40
1.2
0
LINE
8
FRAME
10
274.5
20
13.9
30
0
11
281
21
15.1
31
0
0
LINE
8
FRAME
10
281
20
15.1
30
0
11
281
21
17.9
31
0
0
LINE
8
FRAME
10
281
20
17.9
30
0
11
274.5
21
19.1
31
0
0
LINE
8
FRAME
10
274.5
20
19.1
30
0
11
274.5
21
13.9
31
0
0
TEXT
8
TEXT
10
14
20
18.2
30
0
40
2.6
1
1. 지시 없는 모따기 C0.5
72
0
11
14
21
18.2
31
0
0
TEXT
8
TEXT
10
14
20
14
30
0
40
2.6
1
2. 지시 없는 공차 KS B ISO 2768-m
72
0
11
14
21
14
31
0
0
ENDSEC
0
EOF
