#usda 1.0
(
    defaultPrim = "set_screw_m6"
    metersPerUnit = 0.001
    upAxis = "Y"
    doc = "VRINGON revolve part — CadQuery executor"
)

def Xform "set_screw_m6" (
    kind = "component"
)
{
    custom string vringon:dsl_version = "vringon-shaft/1.0"
    custom string vringon:dsl_json = "{\"dsl\":\"vringon-shaft/1.0\",\"id\":\"set-screw-m6\",\"name\":\"Socket set screw M6x12\",\"name_ko\":\"세트 스크루 M6×12\",\"part_class\":\"other\",\"units\":\"mm\",\"material\":\"S45C\",\"drawing\":{\"number\":\"VR-RB-015\",\"scale\":\"5:1\",\"projection\":\"third\"},\"segments\":[{\"type\":\"thread\",\"length\":12,\"diameter\":6,\"spec\":\"M6\",\"pitch\":1}],\"transitions\":[{\"at\":0,\"type\":\"chamfer\",\"size\":0.5},{\"at\":1,\"type\":\"chamfer\",\"size\":1}],\"grooves\":[],\"bore\":null,\"features\":[{\"type\":\"hex_socket\",\"end\":\"left\",\"across_flats\":3,\"depth\":3}],\"meta\":{\"source\":\"golden\",\"difficulty\":2}}"
    custom string vringon:name_ko = "세트 스크루 M6×12"
    custom string vringon:material = "S45C"
    custom double vringon:length_mm = 12.0
    custom double vringon:max_diameter_mm = 6
    custom double vringon:volume_mm3 = 305.306
    custom double[] vringon:segment_lengths_mm = [12]
    custom string[] vringon:segment_types = ["thread"]
    custom string[] vringon:threads = ["M6"]
    custom string[] vringon:features = ["hex_socket"]

    def Mesh "body"
    {
        float3[] extent = [(0.0000, -2.9963, -2.9991), (12.0000, 3.0000, 2.9991)]
        int[] faceVertexCounts = [3, 3, 3, 3, 3, 3, 3, 3, 3, 3, 3, 3, 3, 3, 3, 3, 3, 3, 3, 3, 3, 3, 3, 3, 3, 3, 3, 3, 3, 3, 3, 3, 3, 3, 3, 3, 3, 3, 3, 3, 3, 3, 3, 3, 3, 3, 3, 3, 3, 3, 3, 3, 3, 3, 3, 3, 3, 3, 3, 3, 3, 3, 3, 3, 3, 3, 3, 3, 3, 3, 3, 3, 3, 3, 3, 3, 3, 3, 3, 3, 3, 3, 3, 3, 3, 3, 3, 3, 3, 3, 3, 3, 3, 3, 3, 3, 3, 3, 3, 3, 3, 3, 3, 3, 3, 3, 3, 3, 3, 3, 3, 3, 3, 3, 3, 3, 3, 3, 3, 3, 3, 3, 3, 3, 3, 3, 3, 3, 3, 3, 3, 3, 3, 3, 3, 3, 3, 3, 3, 3, 3, 3, 3, 3, 3, 3, 3, 3, 3, 3, 3, 3, 3, 3, 3, 3, 3, 3, 3, 3, 3, 3, 3, 3, 3, 3, 3, 3, 3, 3, 3, 3, 3, 3, 3, 3, 3, 3, 3, 3, 3, 3, 3, 3, 3, 3, 3, 3, 3, 3, 3, 3, 3, 3, 3, 3, 3, 3, 3, 3, 3, 3, 3, 3, 3, 3, 3, 3, 3, 3, 3, 3, 3, 3, 3, 3, 3, 3, 3, 3, 3, 3, 3, 3, 3, 3, 3, 3, 3, 3, 3, 3, 3, 3, 3, 3, 3, 3, 3, 3, 3, 3, 3, 3, 3, 3, 3, 3, 3, 3, 3, 3, 3, 3, 3, 3, 3, 3, 3, 3, 3, 3, 3, 3, 3, 3, 3, 3, 3, 3, 3, 3, 3, 3, 3, 3, 3, 3, 3, 3, 3, 3, 3, 3, 3, 3, 3, 3, 3, 3, 3, 3, 3, 3, 3, 3, 3, 3, 3, 3, 3, 3, 3, 3, 3, 3, 3, 3, 3, 3, 3, 3, 3, 3, 3, 3, 3, 3, 3, 3, 3, 3, 3, 3, 3, 3, 3, 3, 3, 3, 3, 3, 3, 3, 3, 3, 3, 3, 3, 3, 3, 3, 3, 3, 3, 3, 3, 3, 3, 3, 3, 3, 3, 3, 3, 3, 3, 3, 3, 3, 3, 3, 3, 3, 3, 3, 3, 3, 3, 3, 3, 3, 3, 3, 3, 3, 3, 3, 3, 3, 3, 3, 3, 3, 3, 3, 3, 3, 3, 3, 3, 3, 3, 3, 3, 3, 3, 3, 3, 3, 3, 3, 3, 3, 3, 3, 3, 3, 3, 3, 3, 3, 3, 3, 3, 3, 3, 3, 3, 3, 3, 3, 3, 3, 3, 3, 3, 3, 3, 3, 3, 3, 3, 3, 3, 3, 3, 3, 3, 3, 3, 3, 3, 3, 3, 3, 3, 3, 3, 3, 3, 3, 3, 3, 3, 3, 3, 3, 3, 3, 3, 3, 3, 3, 3, 3, 3, 3, 3, 3, 3, 3, 3, 3, 3, 3, 3, 3, 3, 3, 3, 3, 3, 3, 3, 3, 3, 3, 3, 3, 3, 3, 3, 3, 3, 3, 3, 3, 3, 3, 3, 3, 3, 3, 3, 3, 3, 3, 3, 3, 3, 3, 3, 3, 3, 3, 3, 3, 3, 3, 3, 3, 3, 3, 3, 3, 3, 3, 3, 3, 3, 3, 3, 3, 3, 3, 3, 3, 3, 3, 3, 3, 3, 3, 3, 3, 3, 3, 3, 3, 3, 3, 3, 3, 3, 3, 3, 3, 3, 3, 3, 3, 3, 3, 3, 3, 3, 3, 3, 3, 3, 3, 3, 3, 3, 3, 3, 3, 3, 3, 3, 3, 3, 3, 3, 3, 3, 3, 3, 3, 3, 3, 3, 3, 3, 3, 3, 3, 3, 3, 3, 3, 3, 3, 3, 3, 3, 3, 3, 3, 3, 3, 3, 3, 3, 3, 3, 3, 3, 3, 3, 3, 3, 3, 3, 3, 3, 3, 3, 3, 3, 3, 3, 3, 3, 3, 3, 3, 3, 3, 3, 3, 3, 3, 3, 3, 3, 3, 3, 3, 3, 3, 3, 3, 3, 3, 3, 3, 3, 3, 3, 3, 3, 3, 3, 3, 3, 3, 3, 3, 3, 3, 3, 3, 3, 3, 3, 3, 3, 3, 3, 3, 3, 3, 3, 3, 3, 3, 3, 3, 3, 3, 3, 3, 3, 3, 3, 3, 3, 3, 3, 3, 3, 3, 3, 3, 3, 3, 3, 3, 3, 3, 3, 3, 3, 3]
        int[] faceVertexIndices = [129, 0, 1, 67, 66, 129, 64, 62, 63, 65, 128, 64, 130, 1, 2, 130, 2, 3, 130, 129, 1, 130, 67, 129, 130, 68, 67, 130, 69, 68, 131, 3, 4, 131, 4, 5, 131, 130, 3, 131, 69, 130, 131, 70, 69, 131, 71, 70, 132, 5, 6, 132, 6, 7, 132, 131, 5, 132, 72, 71, 132, 73, 72, 132, 71, 131, 133, 73, 132, 133, 7, 8, 133, 8, 9, 133, 74, 73, 133, 75, 74, 133, 132, 7, 134, 9, 10, 134, 10, 11, 134, 133, 9, 134, 75, 133, 134, 76, 75, 134, 77, 76, 135, 11, 12, 135, 12, 13, 135, 134, 11, 135, 77, 134, 135, 78, 77, 135, 79, 78, 136, 79, 135, 136, 13, 14, 136, 14, 15, 136, 80, 79, 136, 81, 80, 136, 135, 13, 137, 15, 16, 137, 16, 17, 137, 136, 15, 137, 81, 136, 137, 82, 81, 137, 83, 82, 138, 17, 18, 138, 18, 19, 138, 137, 17, 138, 83, 137, 138, 84, 83, 138, 85, 84, 139, 19, 20, 139, 20, 21, 139, 138, 19, 139, 85, 138, 139, 86, 85, 139, 87, 86, 140, 21, 22, 140, 22, 23, 140, 139, 21, 140, 87, 139, 140, 88, 87, 140, 89, 88, 141, 23, 24, 141, 24, 25, 141, 140, 23, 141, 89, 140, 141, 90, 89, 141, 91, 90, 142, 141, 25, 142, 91, 141, 142, 25, 26, 142, 26, 27, 142, 92, 91, 142, 93, 92, 143, 27, 28, 143, 28, 29, 143, 142, 27, 143, 93, 142, 143, 94, 93, 143, 95, 94, 144, 29, 30, 144, 30, 31, 144, 143, 29, 144, 95, 143, 144, 96, 95, 144, 97, 96, 145, 31, 32, 145, 144, 31, 145, 97, 144, 145, 98, 97, 146, 145, 32, 146, 98, 145, 146, 32, 33, 146, 33, 34, 146, 99, 98, 146, 100, 99, 147, 102, 101, 147, 34, 35, 147, 35, 36, 147, 146, 34, 147, 100, 146, 147, 101, 100, 148, 103, 102, 148, 104, 103, 148, 36, 37, 148, 37, 38, 148, 147, 36, 148, 102, 147, 149, 105, 104, 149, 106, 105, 149, 38, 39, 149, 39, 40, 149, 148, 38, 149, 104, 148, 150, 107, 106, 150, 108, 107, 150, 40, 41, 150, 41, 42, 150, 106, 149, 150, 149, 40, 151, 109, 108, 151, 110, 109, 151, 42, 43, 151, 150, 42, 151, 43, 44, 151, 108, 150, 152, 151, 44, 152, 111, 110, 152, 112, 111, 152, 44, 45, 152, 45, 46, 152, 110, 151, 153, 112, 152, 153, 113, 112, 153, 114, 113, 153, 152, 46, 153, 46, 47, 153, 47, 48, 154, 114, 153, 154, 115, 114, 154, 116, 115, 154, 153, 48, 154, 48, 49, 154, 49, 50, 155, 117, 116, 155, 118, 117, 155, 116, 154, 155, 50, 51, 155, 51, 52, 155, 154, 50, 156, 119, 118, 156, 120, 119, 156, 155, 52, 156, 118, 155, 156, 52, 53, 156, 53, 54, 157, 121, 120, 157, 122, 121, 157, 54, 55, 157, 55, 56, 157, 156, 54, 157, 120, 156, 158, 123, 122, 158, 124, 123, 158, 122, 157, 158, 56, 57, 158, 57, 58, 158, 157, 56, 159, 125, 124, 159, 126, 125, 159, 158, 58, 159, 58, 59, 159, 59, 60, 159, 124, 158, 160, 126, 159, 160, 159, 60, 160, 127, 126, 160, 128, 127, 160, 60, 61, 160, 61, 62, 160, 62, 64, 160, 64, 128, 224, 214, 213, 224, 215, 214, 224, 216, 215, 224, 217, 216, 224, 218, 217, 224, 219, 218, 224, 220, 219, 224, 221, 220, 224, 222, 221, 224, 223, 222, 224, 161, 223, 229, 207, 206, 229, 208, 207, 229, 209, 208, 229, 210, 209, 229, 211, 210, 229, 212, 211, 229, 213, 212, 229, 224, 213, 205, 229, 206, 204, 229, 205, 203, 229, 204, 225, 162, 161, 225, 163, 162, 225, 164, 163, 225, 165, 164, 225, 166, 165, 225, 167, 166, 225, 161, 224, 168, 167, 225, 169, 168, 225, 170, 169, 225, 228, 229, 203, 228, 200, 199, 228, 201, 200, 228, 202, 201, 228, 203, 202, 171, 170, 225, 198, 228, 199, 172, 171, 225, 197, 228, 198, 196, 228, 197, 226, 173, 172, 226, 174, 173, 226, 172, 225, 195, 228, 196, 175, 174, 226, 194, 228, 195, 176, 175, 226, 193, 228, 194, 177, 176, 226, 192, 227, 228, 192, 228, 193, 178, 177, 226, 191, 227, 192, 179, 178, 226, 190, 227, 191, 180, 179, 226, 189, 227, 190, 181, 180, 226, 188, 227, 189, 182, 226, 227, 182, 181, 226, 187, 227, 188, 183, 182, 227, 186, 227, 187, 184, 183, 227, 185, 184, 227, 185, 227, 186, 296, 230, 231, 296, 295, 230, 297, 231, 232, 297, 296, 231, 298, 232, 233, 298, 297, 232, 299, 233, 234, 299, 298, 233, 300, 234, 235, 300, 235, 236, 300, 299, 234, 301, 300, 236, 302, 236, 237, 302, 237, 238, 302, 301, 236, 303, 302, 238, 304, 238, 239, 304, 303, 238, 305, 239, 240, 305, 240, 241, 305, 304, 239, 306, 305, 241, 307, 241, 242, 307, 306, 241, 308, 242, 243, 308, 307, 242, 309, 243, 244, 309, 308, 243, 310, 244, 245, 310, 309, 244, 311, 245, 246, 311, 310, 245, 312, 246, 247, 312, 311, 246, 313, 247, 248, 313, 312, 247, 314, 313, 248, 314, 248, 249, 315, 314, 249, 315, 249, 250, 316, 315, 250, 316, 250, 251, 317, 316, 251, 317, 251, 252, 318, 252, 253, 318, 253, 254, 318, 317, 252, 319, 318, 254, 320, 254, 255, 320, 319, 254, 321, 255, 256, 321, 320, 255, 322, 256, 257, 322, 321, 256, 323, 257, 258, 323, 322, 257, 324, 258, 259, 324, 323, 258, 325, 259, 260, 325, 324, 259, 326, 260, 261, 326, 325, 260, 327, 261, 262, 327, 326, 261, 328, 262, 263, 328, 327, 262, 329, 263, 264, 329, 328, 263, 330, 264, 265, 330, 329, 264, 331, 265, 266, 331, 266, 267, 331, 330, 265, 332, 331, 267, 333, 267, 268, 333, 332, 267, 334, 268, 269, 334, 333, 268, 335, 269, 270, 335, 270, 271, 335, 334, 269, 336, 271, 272, 336, 335, 271, 337, 336, 272, 338, 337, 272, 338, 272, 273, 339, 338, 273, 339, 273, 274, 340, 339, 274, 340, 274, 275, 341, 340, 275, 341, 275, 276, 342, 341, 276, 342, 276, 277, 343, 342, 277, 343, 277, 278, 344, 343, 278, 344, 278, 279, 345, 344, 279, 345, 279, 280, 346, 345, 280, 346, 280, 281, 347, 346, 281, 347, 281, 282, 348, 347, 282, 348, 282, 283, 349, 348, 283, 349, 283, 284, 349, 284, 285, 350, 349, 285, 351, 285, 286, 351, 350, 285, 352, 286, 287, 352, 287, 288, 352, 351, 286, 353, 352, 288, 354, 288, 289, 354, 353, 288, 355, 289, 290, 355, 290, 291, 355, 354, 289, 356, 355, 291, 357, 291, 292, 357, 356, 291, 294, 292, 293, 294, 357, 292, 359, 358, 360, 359, 360, 361, 363, 362, 364, 363, 364, 365, 367, 366, 368, 367, 368, 369, 371, 370, 372, 371, 372, 373, 375, 374, 376, 375, 376, 377, 379, 378, 380, 379, 380, 381, 512, 382, 383, 450, 449, 513, 446, 444, 445, 448, 511, 447, 514, 383, 384, 514, 384, 385, 514, 512, 383, 515, 513, 512, 515, 512, 514, 515, 450, 513, 515, 451, 450, 515, 452, 451, 516, 385, 386, 516, 386, 387, 516, 514, 385, 517, 514, 516, 517, 453, 452, 517, 454, 453, 517, 515, 514, 517, 452, 515, 518, 387, 388, 518, 388, 389, 518, 516, 387, 519, 516, 518, 519, 517, 516, 519, 455, 454, 519, 456, 455, 519, 454, 517, 520, 518, 389, 520, 389, 390, 520, 390, 391, 521, 519, 518, 521, 456, 519, 521, 457, 456, 521, 458, 457, 521, 518, 520, 522, 391, 392, 522, 392, 393, 522, 520, 391, 523, 458, 521, 523, 520, 522, 523, 459, 458, 523, 460, 459, 523, 521, 520, 524, 393, 394, 524, 394, 395, 524, 522, 393, 524, 523, 522, 525, 523, 524, 525, 461, 460, 525, 462, 461, 525, 460, 523, 526, 524, 395, 526, 395, 396, 526, 396, 397, 527, 525, 524, 527, 462, 525, 527, 524, 526, 527, 463, 462, 527, 464, 463, 528, 397, 398, 528, 398, 399, 528, 526, 397, 529, 526, 528, 529, 527, 526, 529, 465, 464, 529, 466, 465, 529, 464, 527, 530, 399, 400, 530, 400, 401, 530, 529, 528, 530, 528, 399, 531, 529, 530, 531, 466, 529, 531, 467, 466, 531, 468, 467, 532, 401, 402, 532, 402, 403, 532, 530, 401, 533, 531, 530, 533, 530, 532, 533, 468, 531, 533, 469, 468, 533, 470, 469, 534, 403, 404, 534, 404, 405, 534, 532, 403, 535, 533, 532, 535, 532, 534, 535, 470, 533, 535, 471, 470, 535, 472, 471, 536, 405, 406, 536, 406, 407, 536, 534, 405, 537, 534, 536, 537, 535, 534, 537, 472, 535, 537, 473, 472, 537, 474, 473, 538, 407, 408, 538, 408, 409, 538, 536, 407, 539, 536, 538, 539, 537, 536, 539, 474, 537, 539, 475, 474, 539, 476, 475, 540, 538, 409, 540, 409, 410, 540, 410, 411, 540, 539, 538, 541, 476, 539, 541, 539, 540, 541, 477, 476, 541, 478, 477, 542, 541, 540, 542, 411, 412, 542, 412, 413, 542, 540, 411, 543, 541, 542, 543, 478, 541, 543, 479, 478, 543, 480, 479, 544, 542, 413, 544, 413, 414, 545, 543, 542, 545, 480, 543, 545, 542, 544, 545, 481, 480, 546, 544, 414, 546, 414, 415, 546, 415, 416, 547, 481, 545, 547, 544, 546, 547, 545, 544, 547, 482, 481, 547, 483, 482, 548, 416, 417, 548, 417, 418, 548, 546, 416, 549, 484, 483, 549, 485, 484, 549, 483, 547, 549, 547, 546, 549, 546, 548, 550, 548, 418, 550, 418, 419, 550, 419, 420, 550, 549, 548, 551, 486, 485, 551, 487, 486, 551, 485, 549, 551, 549, 550, 552, 420, 421, 552, 421, 422, 552, 550, 420, 553, 488, 487, 553, 489, 488, 553, 487, 551, 553, 550, 552, 553, 551, 550, 554, 422, 423, 554, 423, 424, 554, 552, 422, 555, 553, 552, 555, 490, 489, 555, 491, 490, 555, 489, 553, 555, 552, 554, 556, 554, 424, 556, 555, 554, 556, 424, 425, 556, 425, 426, 557, 492, 491, 557, 493, 492, 557, 555, 556, 557, 491, 555, 558, 556, 426, 558, 426, 427, 558, 427, 428, 559, 494, 493, 559, 495, 494, 559, 557, 556, 559, 493, 557, 559, 556, 558, 560, 559, 558, 560, 428, 429, 560, 429, 430, 560, 558, 428, 561, 496, 495, 561, 497, 496, 561, 495, 559, 561, 559, 560, 562, 561, 560, 562, 430, 431, 562, 431, 432, 562, 560, 430, 563, 561, 562, 563, 497, 561, 563, 498, 497, 563, 499, 498, 564, 562, 432, 564, 432, 433, 564, 433, 434, 565, 499, 563, 565, 562, 564, 565, 500, 499, 565, 501, 500, 565, 563, 562, 566, 565, 564, 566, 564, 434, 566, 434, 435, 566, 435, 436, 567, 501, 565, 567, 565, 566, 567, 502, 501, 567, 503, 502, 568, 566, 436, 568, 436, 437, 568, 437, 438, 569, 503, 567, 569, 566, 568, 569, 504, 503, 569, 505, 504, 569, 567, 566, 570, 568, 438, 570, 438, 439, 570, 439, 440, 571, 569, 568, 571, 505, 569, 571, 506, 505, 571, 568, 570, 571, 507, 506, 572, 571, 570, 572, 570, 440, 572, 440, 441, 572, 441, 442, 573, 507, 571, 573, 508, 507, 573, 509, 508, 573, 571, 572, 574, 572, 442, 574, 442, 443, 574, 443, 444, 574, 444, 446, 575, 510, 509, 575, 511, 510, 575, 509, 573, 575, 573, 572, 575, 572, 574, 575, 574, 446, 575, 446, 447, 575, 447, 511, 578, 577, 576, 578, 580, 579, 578, 581, 580, 578, 576, 581, 624, 621, 622, 624, 622, 623, 627, 625, 626, 628, 624, 625, 628, 625, 627, 611, 612, 613, 611, 613, 614, 632, 630, 631, 633, 630, 632, 634, 630, 633, 608, 611, 614, 608, 609, 610, 608, 610, 611, 608, 614, 615, 608, 615, 616, 608, 616, 617, 608, 617, 618, 608, 618, 619, 608, 619, 620, 608, 620, 621, 608, 628, 629, 608, 629, 630, 608, 621, 624, 608, 624, 628, 606, 607, 608, 604, 606, 608, 604, 605, 606, 639, 636, 637, 639, 637, 638, 640, 636, 639, 641, 636, 640, 641, 634, 635, 641, 635, 636, 643, 634, 641, 643, 641, 642, 599, 600, 601, 599, 601, 602, 582, 643, 644, 583, 630, 634, 583, 608, 630, 583, 602, 603, 583, 603, 604, 583, 604, 608, 583, 643, 582, 583, 634, 643, 596, 597, 598, 596, 598, 599, 595, 596, 599, 585, 583, 584, 594, 599, 602, 594, 595, 599, 587, 585, 586, 587, 583, 585, 588, 583, 587, 591, 592, 593, 591, 593, 594, 589, 583, 588, 590, 602, 583, 590, 594, 602, 590, 591, 594, 590, 583, 589]
        point3f[] points = [(0.0000, 2.5000, 0.0000), (0.0000, 2.4876, 0.2489), (0.0000, 2.4504, 0.4954), (0.0000, 2.3889, 0.7369), (0.0000, 2.3037, 0.9711), (0.0000, 2.1956, 1.1956), (0.0000, 2.0656, 1.4083), (0.0000, 1.9151, 1.6070), (0.0000, 1.7456, 1.7897), (0.0000, 1.5587, 1.9546), (0.0000, 1.3564, 2.1001), (0.0000, 1.1405, 2.2247), (0.0000, 0.9134, 2.3272), (0.0000, 0.6771, 2.4066), (0.0000, 0.4341, 2.4620), (0.0000, 0.1868, 2.4930), (0.0000, -0.0623, 2.4992), (0.0000, -0.3109, 2.4806), (0.0000, -0.5563, 2.4373), (0.0000, -0.7962, 2.3698), (0.0000, -1.0282, 2.2788), (0.0000, -1.2500, 2.1651), (0.0000, -1.4594, 2.0298), (0.0000, -1.6542, 1.8745), (0.0000, -1.8326, 1.7004), (0.0000, -1.9928, 1.5095), (0.0000, -2.1332, 1.3036), (0.0000, -2.2524, 1.0847), (0.0000, -2.3492, 0.8551), (0.0000, -2.4227, 0.6169), (0.0000, -2.4721, 0.3726), (0.0000, -2.4969, 0.1246), (0.0000, -2.4969, -0.1246), (0.0000, -2.4721, -0.3726), (0.0000, -2.4227, -0.6169), (0.0000, -2.3492, -0.8551), (0.0000, -2.2524, -1.0847), (0.0000, -2.1332, -1.3036), (0.0000, -1.9928, -1.5095), (0.0000, -1.8326, -1.7004), (0.0000, -1.6542, -1.8745), (0.0000, -1.4594, -2.0298), (0.0000, -1.2500, -2.1651), (0.0000, -1.0282, -2.2788), (0.0000, -0.7962, -2.3698), (0.0000, -0.5563, -2.4373), (0.0000, -0.3109, -2.4806), (0.0000, -0.0623, -2.4992), (0.0000, 0.1868, -2.4930), (0.0000, 0.4341, -2.4620), (0.0000, 0.6771, -2.4066), (0.0000, 0.9134, -2.3272), (0.0000, 1.1405, -2.2247), (0.0000, 1.3564, -2.1001), (0.0000, 1.5587, -1.9546), (0.0000, 1.7456, -1.7897), (0.0000, 1.9151, -1.6070), (0.0000, 2.0656, -1.4083), (0.0000, 2.1956, -1.1956), (0.0000, 2.3037, -0.9711), (0.0000, 2.3889, -0.7369), (0.0000, 2.4504, -0.4954), (0.0000, 2.4876, -0.2489), (0.0000, 2.5000, 0.0000), (0.2500, 2.7500, 0.0000), (0.5000, 3.0000, 0.0000), (0.5000, 3.0000, 0.0000), (0.5000, 2.9851, 0.2987), (0.5000, 2.9405, 0.5944), (0.5000, 2.8667, 0.8843), (0.5000, 2.7644, 1.1653), (0.5000, 2.6347, 1.4348), (0.5000, 2.4787, 1.6900), (0.5000, 2.2981, 1.9284), (0.5000, 2.0947, 2.1476), (0.5000, 1.8705, 2.3455), (0.5000, 1.6276, 2.5201), (0.5000, 1.3686, 2.6696), (0.5000, 1.0960, 2.7926), (0.5000, 0.8125, 2.8879), (0.5000, 0.5209, 2.9544), (0.5000, 0.2242, 2.9916), (0.5000, -0.0748, 2.9991), (0.5000, -0.3730, 2.9767), (0.5000, -0.6676, 2.9248), (0.5000, -0.9555, 2.8438), (0.5000, -1.2339, 2.7345), (0.5000, -1.5000, 2.5981), (0.5000, -1.7512, 2.4358), (0.5000, -1.9851, 2.2493), (0.5000, -2.1992, 2.0405), (0.5000, -2.3914, 1.8114), (0.5000, -2.5599, 1.5643), (0.5000, -2.7029, 1.3017), (0.5000, -2.8191, 1.0261), (0.5000, -2.9072, 0.7403), (0.5000, -2.9665, 0.4471), (0.5000, -2.9963, 0.1495), (0.5000, -2.9963, -0.1495), (0.5000, -2.9665, -0.4471), (0.5000, -2.9072, -0.7403), (0.5000, -2.8191, -1.0261), (0.5000, -2.7029, -1.3017), (0.5000, -2.5599, -1.5643), (0.5000, -2.3914, -1.8114), (0.5000, -2.1992, -2.0405), (0.5000, -1.9851, -2.2493), (0.5000, -1.7512, -2.4358), (0.5000, -1.5000, -2.5981), (0.5000, -1.2339, -2.7345), (0.5000, -0.9555, -2.8438), (0.5000, -0.6676, -2.9248), (0.5000, -0.3730, -2.9767), (0.5000, -0.0748, -2.9991), (0.5000, 0.2242, -2.9916), (0.5000, 0.5209, -2.9544), (0.5000, 0.8125, -2.8879), (0.5000, 1.0960, -2.7926), (0.5000, 1.3686, -2.6696), (0.5000, 1.6276, -2.5201), (0.5000, 1.8705, -2.3455), (0.5000, 2.0947, -2.1476), (0.5000, 2.2981, -1.9284), (0.5000, 2.4787, -1.6900), (0.5000, 2.6347, -1.4348), (0.5000, 2.7644, -1.1653), (0.5000, 2.8667, -0.8843), (0.5000, 2.9405, -0.5944), (0.5000, 2.9851, -0.2987), (0.2500, 2.7500, 0.0000), (0.2500, 2.6972, 0.5365), (0.2500, 2.5407, 1.0524), (0.2500, 2.2865, 1.5278), (0.2500, 1.9445, 1.9445), (0.2500, 1.5278, 2.2865), (0.2500, 1.0524, 2.5407), (0.2500, 0.5365, 2.6972), (0.2500, 0.0000, 2.7500), (0.2500, -0.5365, 2.6972), (0.2500, -1.0524, 2.5407), (0.2500, -1.5278, 2.2865), (0.2500, -1.9445, 1.9445), (0.2500, -2.2865, 1.5278), (0.2500, -2.5407, 1.0524), (0.2500, -2.6972, 0.5365), (0.2500, -2.7500, -0.0000), (0.2500, -2.6972, -0.5365), (0.2500, -2.5407, -1.0524), (0.2500, -2.2865, -1.5278), (0.2500, -1.9445, -1.9445), (0.2500, -1.5278, -2.2865), (0.2500, -1.0524, -2.5407), (0.2500, -0.5365, -2.6972), (0.2500, 0.0000, -2.7500), (0.2500, 0.5365, -2.6972), (0.2500, 1.0524, -2.5407), (0.2500, 1.5278, -2.2865), (0.2500, 1.9445, -1.9445), (0.2500, 2.2865, -1.5278), (0.2500, 2.5407, -1.0524), (0.2500, 2.6972, -0.5365), (0.0000, 2.5000, 0.0000), (0.0000, 2.4876, 0.2489), (0.0000, 2.4504, 0.4954), (0.0000, 2.3889, 0.7369), (0.0000, 2.3037, 0.9711), (0.0000, 2.1956, 1.1956), (0.0000, 2.0656, 1.4083), (0.0000, 1.9151, 1.6070), (0.0000, 1.7456, 1.7897), (0.0000, 1.5587, 1.9546), (0.0000, 1.3564, 2.1001), (0.0000, 1.1405, 2.2247), (0.0000, 0.9134, 2.3272), (0.0000, 0.6771, 2.4066), (0.0000, 0.4341, 2.4620), (0.0000, 0.1868, 2.4930), (0.0000, -0.0623, 2.4992), (0.0000, -0.3109, 2.4806), (0.0000, -0.5563, 2.4373), (0.0000, -0.7962, 2.3698), (0.0000, -1.0282, 2.2788), (0.0000, -1.2500, 2.1651), (0.0000, -1.4594, 2.0298), (0.0000, -1.6542, 1.8745), (0.0000, -1.8326, 1.7004), (0.0000, -1.9928, 1.5095), (0.0000, -2.1332, 1.3036), (0.0000, -2.2524, 1.0847), (0.0000, -2.3492, 0.8551), (0.0000, -2.4227, 0.6169), (0.0000, -2.4721, 0.3726), (0.0000, -2.4969, 0.1246), (0.0000, -2.4969, -0.1246), (0.0000, -2.4721, -0.3726), (0.0000, -2.4227, -0.6169), (0.0000, -2.3492, -0.8551), (0.0000, -2.2524, -1.0847), (0.0000, -2.1332, -1.3036), (0.0000, -1.9928, -1.5095), (0.0000, -1.8326, -1.7004), (0.0000, -1.6542, -1.8745), (0.0000, -1.4594, -2.0298), (0.0000, -1.2500, -2.1651), (0.0000, -1.0282, -2.2788), (0.0000, -0.7962, -2.3698), (0.0000, -0.5563, -2.4373), (0.0000, -0.3109, -2.4806), (0.0000, -0.0623, -2.4992), (0.0000, 0.1868, -2.4930), (0.0000, 0.4341, -2.4620), (0.0000, 0.6771, -2.4066), (0.0000, 0.9134, -2.3272), (0.0000, 1.1405, -2.2247), (0.0000, 1.3564, -2.1001), (0.0000, 1.5587, -1.9546), (0.0000, 1.7456, -1.7897), (0.0000, 1.9151, -1.6070), (0.0000, 2.0656, -1.4083), (0.0000, 2.1956, -1.1956), (0.0000, 2.3037, -0.9711), (0.0000, 2.3889, -0.7369), (0.0000, 2.4504, -0.4954), (0.0000, 2.4876, -0.2489), (0.0000, 1.5000, -0.8660), (0.0000, 1.5000, 0.8660), (0.0000, 0.0000, 1.7321), (0.0000, -1.5000, 0.8660), (0.0000, -1.5000, -0.8660), (0.0000, -0.0000, -1.7321), (0.5000, 3.0000, 0.0000), (0.5000, 2.9851, 0.2987), (0.5000, 2.9405, 0.5944), (0.5000, 2.8667, 0.8843), (0.5000, 2.7644, 1.1653), (0.5000, 2.6347, 1.4348), (0.5000, 2.4787, 1.6900), (0.5000, 2.2981, 1.9284), (0.5000, 2.0947, 2.1476), (0.5000, 1.8705, 2.3455), (0.5000, 1.6276, 2.5201), (0.5000, 1.3686, 2.6696), (0.5000, 1.0960, 2.7926), (0.5000, 0.8125, 2.8879), (0.5000, 0.5209, 2.9544), (0.5000, 0.2242, 2.9916), (0.5000, -0.0748, 2.9991), (0.5000, -0.3730, 2.9767), (0.5000, -0.6676, 2.9248), (0.5000, -0.9555, 2.8438), (0.5000, -1.2339, 2.7345), (0.5000, -1.5000, 2.5981), (0.5000, -1.7512, 2.4358), (0.5000, -1.9851, 2.2493), (0.5000, -2.1992, 2.0405), (0.5000, -2.3914, 1.8114), (0.5000, -2.5599, 1.5643), (0.5000, -2.7029, 1.3017), (0.5000, -2.8191, 1.0261), (0.5000, -2.9072, 0.7403), (0.5000, -2.9665, 0.4471), (0.5000, -2.9963, 0.1495), (0.5000, -2.9963, -0.1495), (0.5000, -2.9665, -0.4471), (0.5000, -2.9072, -0.7403), (0.5000, -2.8191, -1.0261), (0.5000, -2.7029, -1.3017), (0.5000, -2.5599, -1.5643), (0.5000, -2.3914, -1.8114), (0.5000, -2.1992, -2.0405), (0.5000, -1.9851, -2.2493), (0.5000, -1.7512, -2.4358), (0.5000, -1.5000, -2.5981), (0.5000, -1.2339, -2.7345), (0.5000, -0.9555, -2.8438), (0.5000, -0.6676, -2.9248), (0.5000, -0.3730, -2.9767), (0.5000, -0.0748, -2.9991), (0.5000, 0.2242, -2.9916), (0.5000, 0.5209, -2.9544), (0.5000, 0.8125, -2.8879), (0.5000, 1.0960, -2.7926), (0.5000, 1.3686, -2.6696), (0.5000, 1.6276, -2.5201), (0.5000, 1.8705, -2.3455), (0.5000, 2.0947, -2.1476), (0.5000, 2.2981, -1.9284), (0.5000, 2.4787, -1.6900), (0.5000, 2.6347, -1.4348), (0.5000, 2.7644, -1.1653), (0.5000, 2.8667, -0.8843), (0.5000, 2.9405, -0.5944), (0.5000, 2.9851, -0.2987), (0.5000, 3.0000, 0.0000), (11.0000, 3.0000, 0.0000), (11.0000, 3.0000, 0.0000), (11.0000, 2.9851, 0.2987), (11.0000, 2.9405, 0.5944), (11.0000, 2.8667, 0.8843), (11.0000, 2.7644, 1.1653), (11.0000, 2.6347, 1.4348), (11.0000, 2.4787, 1.6900), (11.0000, 2.2981, 1.9284), (11.0000, 2.0947, 2.1476), (11.0000, 1.8705, 2.3455), (11.0000, 1.6276, 2.5201), (11.0000, 1.3686, 2.6696), (11.0000, 1.0960, 2.7926), (11.0000, 0.8125, 2.8879), (11.0000, 0.5209, 2.9544), (11.0000, 0.2242, 2.9916), (11.0000, -0.0748, 2.9991), (11.0000, -0.3730, 2.9767), (11.0000, -0.6676, 2.9248), (11.0000, -0.9555, 2.8438), (11.0000, -1.2339, 2.7345), (11.0000, -1.5000, 2.5981), (11.0000, -1.7512, 2.4358), (11.0000, -1.9851, 2.2493), (11.0000, -2.1992, 2.0405), (11.0000, -2.3914, 1.8114), (11.0000, -2.5599, 1.5643), (11.0000, -2.7029, 1.3017), (11.0000, -2.8191, 1.0261), (11.0000, -2.9072, 0.7403), (11.0000, -2.9665, 0.4471), (11.0000, -2.9963, 0.1495), (11.0000, -2.9963, -0.1495), (11.0000, -2.9665, -0.4471), (11.0000, -2.9072, -0.7403), (11.0000, -2.8191, -1.0261), (11.0000, -2.7029, -1.3017), (11.0000, -2.5599, -1.5643), (11.0000, -2.3914, -1.8114), (11.0000, -2.1992, -2.0405), (11.0000, -1.9851, -2.2493), (11.0000, -1.7512, -2.4358), (11.0000, -1.5000, -2.5981), (11.0000, -1.2339, -2.7345), (11.0000, -0.9555, -2.8438), (11.0000, -0.6676, -2.9248), (11.0000, -0.3730, -2.9767), (11.0000, -0.0748, -2.9991), (11.0000, 0.2242, -2.9916), (11.0000, 0.5209, -2.9544), (11.0000, 0.8125, -2.8879), (11.0000, 1.0960, -2.7926), (11.0000, 1.3686, -2.6696), (11.0000, 1.6276, -2.5201), (11.0000, 1.8705, -2.3455), (11.0000, 2.0947, -2.1476), (11.0000, 2.2981, -1.9284), (11.0000, 2.4787, -1.6900), (11.0000, 2.6347, -1.4348), (11.0000, 2.7644, -1.1653), (11.0000, 2.8667, -0.8843), (11.0000, 2.9405, -0.5944), (11.0000, 2.9851, -0.2987), (0.0000, 1.5000, -0.8660), (0.0000, 1.5000, 0.8660), (3.0000, 1.5000, -0.8660), (3.0000, 1.5000, 0.8660), (0.0000, -0.0000, -1.7321), (0.0000, 1.5000, -0.8660), (3.0000, -0.0000, -1.7321), (3.0000, 1.5000, -0.8660), (0.0000, -1.5000, -0.8660), (0.0000, -0.0000, -1.7321), (3.0000, -1.5000, -0.8660), (3.0000, -0.0000, -1.7321), (0.0000, -1.5000, 0.8660), (0.0000, -1.5000, -0.8660), (3.0000, -1.5000, 0.8660), (3.0000, -1.5000, -0.8660), (0.0000, 0.0000, 1.7321), (0.0000, -1.5000, 0.8660), (3.0000, 0.0000, 1.7321), (3.0000, -1.5000, 0.8660), (0.0000, 1.5000, 0.8660), (0.0000, 0.0000, 1.7321), (3.0000, 1.5000, 0.8660), (3.0000, 0.0000, 1.7321), (11.0000, 3.0000, 0.0000), (11.0000, 2.9851, 0.2987), (11.0000, 2.9405, 0.5944), (11.0000, 2.8667, 0.8843), (11.0000, 2.7644, 1.1653), (11.0000, 2.6347, 1.4348), (11.0000, 2.4787, 1.6900), (11.0000, 2.2981, 1.9284), (11.0000, 2.0947, 2.1476), (11.0000, 1.8705, 2.3455), (11.0000, 1.6276, 2.5201), (11.0000, 1.3686, 2.6696), (11.0000, 1.0960, 2.7926), (11.0000, 0.8125, 2.8879), (11.0000, 0.5209, 2.9544), (11.0000, 0.2242, 2.9916), (11.0000, -0.0748, 2.9991), (11.0000, -0.3730, 2.9767), (11.0000, -0.6676, 2.9248), (11.0000, -0.9555, 2.8438), (11.0000, -1.2339, 2.7345), (11.0000, -1.5000, 2.5981), (11.0000, -1.7512, 2.4358), (11.0000, -1.9851, 2.2493), (11.0000, -2.1992, 2.0405), (11.0000, -2.3914, 1.8114), (11.0000, -2.5599, 1.5643), (11.0000, -2.7029, 1.3017), (11.0000, -2.8191, 1.0261), (11.0000, -2.9072, 0.7403), (11.0000, -2.9665, 0.4471), (11.0000, -2.9963, 0.1495), (11.0000, -2.9963, -0.1495), (11.0000, -2.9665, -0.4471), (11.0000, -2.9072, -0.7403), (11.0000, -2.8191, -1.0261), (11.0000, -2.7029, -1.3017), (11.0000, -2.5599, -1.5643), (11.0000, -2.3914, -1.8114), (11.0000, -2.1992, -2.0405), (11.0000, -1.9851, -2.2493), (11.0000, -1.7512, -2.4358), (11.0000, -1.5000, -2.5981), (11.0000, -1.2339, -2.7345), (11.0000, -0.9555, -2.8438), (11.0000, -0.6676, -2.9248), (11.0000, -0.3730, -2.9767), (11.0000, -0.0748, -2.9991), (11.0000, 0.2242, -2.9916), (11.0000, 0.5209, -2.9544), (11.0000, 0.8125, -2.8879), (11.0000, 1.0960, -2.7926), (11.0000, 1.3686, -2.6696), (11.0000, 1.6276, -2.5201), (11.0000, 1.8705, -2.3455), (11.0000, 2.0947, -2.1476), (11.0000, 2.2981, -1.9284), (11.0000, 2.4787, -1.6900), (11.0000, 2.6347, -1.4348), (11.0000, 2.7644, -1.1653), (11.0000, 2.8667, -0.8843), (11.0000, 2.9405, -0.5944), (11.0000, 2.9851, -0.2987), (11.0000, 3.0000, 0.0000), (11.3333, 2.6667, 0.0000), (11.6667, 2.3333, 0.0000), (12.0000, 2.0000, 0.0000), (12.0000, 2.0000, 0.0000), (12.0000, 1.9901, 0.1991), (12.0000, 1.9603, 0.3963), (12.0000, 1.9111, 0.5895), (12.0000, 1.8430, 0.7769), (12.0000, 1.7564, 0.9565), (12.0000, 1.6525, 1.1266), (12.0000, 1.5321, 1.2856), (12.0000, 1.3965, 1.4317), (12.0000, 1.2470, 1.5637), (12.0000, 1.0851, 1.6801), (12.0000, 0.9124, 1.7797), (12.0000, 0.7307, 1.8617), (12.0000, 0.5417, 1.9252), (12.0000, 0.3473, 1.9696), (12.0000, 0.1495, 1.9944), (12.0000, -0.0499, 1.9994), (12.0000, -0.2487, 1.9845), (12.0000, -0.4450, 1.9499), (12.0000, -0.6370, 1.8959), (12.0000, -0.8226, 1.8230), (12.0000, -1.0000, 1.7321), (12.0000, -1.1675, 1.6239), (12.0000, -1.3234, 1.4996), (12.0000, -1.4661, 1.3603), (12.0000, -1.5943, 1.2076), (12.0000, -1.7066, 1.0429), (12.0000, -1.8019, 0.8678), (12.0000, -1.8794, 0.6840), (12.0000, -1.9382, 0.4935), (12.0000, -1.9777, 0.2981), (12.0000, -1.9975, 0.0997), (12.0000, -1.9975, -0.0997), (12.0000, -1.9777, -0.2981), (12.0000, -1.9382, -0.4935), (12.0000, -1.8794, -0.6840), (12.0000, -1.8019, -0.8678), (12.0000, -1.7066, -1.0429), (12.0000, -1.5943, -1.2076), (12.0000, -1.4661, -1.3603), (12.0000, -1.3234, -1.4996), (12.0000, -1.1675, -1.6239), (12.0000, -1.0000, -1.7321), (12.0000, -0.8226, -1.8230), (12.0000, -0.6370, -1.8959), (12.0000, -0.4450, -1.9499), (12.0000, -0.2487, -1.9845), (12.0000, -0.0499, -1.9994), (12.0000, 0.1495, -1.9944), (12.0000, 0.3473, -1.9696), (12.0000, 0.5417, -1.9252), (12.0000, 0.7307, -1.8617), (12.0000, 0.9124, -1.7797), (12.0000, 1.0851, -1.6801), (12.0000, 1.2470, -1.5637), (12.0000, 1.3965, -1.4317), (12.0000, 1.5321, -1.2856), (12.0000, 1.6525, -1.1266), (12.0000, 1.7564, -0.9565), (12.0000, 1.8430, -0.7769), (12.0000, 1.9111, -0.5895), (12.0000, 1.9603, -0.3963), (12.0000, 1.9901, -0.1991), (11.3333, 2.6667, 0.0000), (11.6667, 2.3333, 0.0000), (11.3333, 2.6154, 0.5202), (11.6667, 2.2885, 0.4552), (11.3333, 2.4637, 1.0205), (11.6667, 2.1557, 0.8929), (11.3333, 2.2173, 1.4815), (11.6667, 1.9401, 1.2963), (11.3333, 1.8856, 1.8856), (11.6667, 1.6499, 1.6499), (11.3333, 1.4815, 2.2173), (11.6667, 1.2963, 1.9401), (11.3333, 1.0205, 2.4637), (11.6667, 0.8929, 2.1557), (11.3333, 0.5202, 2.6154), (11.6667, 0.4552, 2.2885), (11.3333, 0.0000, 2.6667), (11.6667, 0.0000, 2.3333), (11.3333, -0.5202, 2.6154), (11.6667, -0.4552, 2.2885), (11.3333, -1.0205, 2.4637), (11.6667, -0.8929, 2.1557), (11.3333, -1.4815, 2.2173), (11.6667, -1.2963, 1.9401), (11.3333, -1.8856, 1.8856), (11.6667, -1.6499, 1.6499), (11.3333, -2.2173, 1.4815), (11.6667, -1.9401, 1.2963), (11.3333, -2.4637, 1.0205), (11.6667, -2.1557, 0.8929), (11.3333, -2.6154, 0.5202), (11.6667, -2.2885, 0.4552), (11.3333, -2.6667, -0.0000), (11.6667, -2.3333, -0.0000), (11.3333, -2.6154, -0.5202), (11.6667, -2.2885, -0.4552), (11.3333, -2.4637, -1.0205), (11.6667, -2.1557, -0.8929), (11.3333, -2.2173, -1.4815), (11.6667, -1.9401, -1.2963), (11.3333, -1.8856, -1.8856), (11.6667, -1.6499, -1.6499), (11.3333, -1.4815, -2.2173), (11.6667, -1.2963, -1.9401), (11.3333, -1.0205, -2.4637), (11.6667, -0.8929, -2.1557), (11.3333, -0.5202, -2.6154), (11.6667, -0.4552, -2.2885), (11.3333, 0.0000, -2.6667), (11.6667, 0.0000, -2.3333), (11.3333, 0.5202, -2.6154), (11.6667, 0.4552, -2.2885), (11.3333, 1.0205, -2.4637), (11.6667, 0.8929, -2.1557), (11.3333, 1.4815, -2.2173), (11.6667, 1.2963, -1.9401), (11.3333, 1.8856, -1.8856), (11.6667, 1.6499, -1.6499), (11.3333, 2.2173, -1.4815), (11.6667, 1.9401, -1.2963), (11.3333, 2.4637, -1.0205), (11.6667, 2.1557, -0.8929), (11.3333, 2.6154, -0.5202), (11.6667, 2.2885, -0.4552), (3.0000, 1.5000, 0.8660), (3.0000, 0.0000, 1.7321), (3.0000, -1.5000, 0.8660), (3.0000, -1.5000, -0.8660), (3.0000, -0.0000, -1.7321), (3.0000, 1.5000, -0.8660), (12.0000, 2.0000, 0.0000), (12.0000, 1.9901, 0.1991), (12.0000, 1.9603, 0.3963), (12.0000, 1.9111, 0.5895), (12.0000, 1.8430, 0.7769), (12.0000, 1.7564, 0.9565), (12.0000, 1.6525, 1.1266), (12.0000, 1.5321, 1.2856), (12.0000, 1.3965, 1.4317), (12.0000, 1.2470, 1.5637), (12.0000, 1.0851, 1.6801), (12.0000, 0.9124, 1.7797), (12.0000, 0.7307, 1.8617), (12.0000, 0.5417, 1.9252), (12.0000, 0.3473, 1.9696), (12.0000, 0.1495, 1.9944), (12.0000, -0.0499, 1.9994), (12.0000, -0.2487, 1.9845), (12.0000, -0.4450, 1.9499), (12.0000, -0.6370, 1.8959), (12.0000, -0.8226, 1.8230), (12.0000, -1.0000, 1.7321), (12.0000, -1.1675, 1.6239), (12.0000, -1.3234, 1.4996), (12.0000, -1.4661, 1.3603), (12.0000, -1.5943, 1.2076), (12.0000, -1.7066, 1.0429), (12.0000, -1.8019, 0.8678), (12.0000, -1.8794, 0.6840), (12.0000, -1.9382, 0.4935), (12.0000, -1.9777, 0.2981), (12.0000, -1.9975, 0.0997), (12.0000, -1.9975, -0.0997), (12.0000, -1.9777, -0.2981), (12.0000, -1.9382, -0.4935), (12.0000, -1.8794, -0.6840), (12.0000, -1.8019, -0.8678), (12.0000, -1.7066, -1.0429), (12.0000, -1.5943, -1.2076), (12.0000, -1.4661, -1.3603), (12.0000, -1.3234, -1.4996), (12.0000, -1.1675, -1.6239), (12.0000, -1.0000, -1.7321), (12.0000, -0.8226, -1.8230), (12.0000, -0.6370, -1.8959), (12.0000, -0.4450, -1.9499), (12.0000, -0.2487, -1.9845), (12.0000, -0.0499, -1.9994), (12.0000, 0.1495, -1.9944), (12.0000, 0.3473, -1.9696), (12.0000, 0.5417, -1.9252), (12.0000, 0.7307, -1.8617), (12.0000, 0.9124, -1.7797), (12.0000, 1.0851, -1.6801), (12.0000, 1.2470, -1.5637), (12.0000, 1.3965, -1.4317), (12.0000, 1.5321, -1.2856), (12.0000, 1.6525, -1.1266), (12.0000, 1.7564, -0.9565), (12.0000, 1.8430, -0.7769), (12.0000, 1.9111, -0.5895), (12.0000, 1.9603, -0.3963), (12.0000, 1.9901, -0.1991)]
        uniform token subdivisionScheme = "none"
        color3f[] primvars:displayColor = [(0.72, 0.74, 0.77)]
    }
}
