0
SECTION
2
HEADER
9
$ACADVER
1
AC1009
9
$INSUNITS
70
4
0
ENDSEC
0
SECTION
2
TABLES
0
TABLE
2
LTYPE
70
3
0
LTYPE
2
CONTINUOUS
70
0
3
Solid line
72
65
73
0
40
0
0
LTYPE
2
DASHED
70
0
3
Dashed __ __ __
72
65
73
2
40
4.5
49
3
49
-1.5
0
LTYPE
2
CENTER
70
0
3
Center ____ _ ____
72
65
73
4
40
11.5
49
8
49
-1.5
49
0.5
49
-1.5
0
ENDTAB
0
TABLE
2
LAYER
70
9
0
LAYER
2
OUTLINE
70
0
62
7
6
CONTINUOUS
0
LAYER
2
HIDDEN
70
0
62
8
6
DASHED
0
LAYER
2
CENTER
70
0
62
1
6
CENTER
0
LAYER
2
THIN
70
0
62
7
6
CONTINUOUS
0
LAYER
2
DIM
70
0
62
3
6
CONTINUOUS
0
LAYER
2
HATCH
70
0
62
8
6
CONTINUOUS
0
LAYER
2
FRAME
70
0
62
7
6
CONTINUOUS
0
LAYER
2
TEXT
70
0
62
7
6
CONTINUOUS
0
LAYER
2
CUT
70
0
62
5
6
DASHED
0
ENDTAB
0
ENDSEC
0
SECTION
2
ENTITIES
0
LINE
8
OUTLINE
10
94.115
20
131.7
30
0
11
95.115
21
132.7
31
0
0
LINE
8
OUTLINE
10
95.115
20
132.7
30
0
11
129.115
21
132.7
31
0
0
LINE
8
OUTLINE
10
129.115
20
132.7
30
0
11
169.115
21
130.2
31
0
0
LINE
8
OUTLINE
10
169.115
20
130.2
30
0
11
169.115
21
127.1
31
0
0
LINE
8
OUTLINE
10
169.115
20
127.1
30
0
11
173.615
21
127.1
31
0
0
LINE
8
OUTLINE
10
173.615
20
127.1
30
0
11
173.615
21
128.2
31
0
0
LINE
8
OUTLINE
10
173.615
20
128.2
30
0
11
187.615
21
128.2
31
0
0
LINE
8
OUTLINE
10
187.615
20
128.2
30
0
11
189.115
21
126.7
31
0
0
LINE
8
OUTLINE
10
94.115
20
108.7
30
0
11
95.115
21
107.7
31
0
0
LINE
8
OUTLINE
10
95.115
20
107.7
30
0
11
129.115
21
107.7
31
0
0
LINE
8
OUTLINE
10
129.115
20
107.7
30
0
11
169.115
21
110.2
31
0
0
LINE
8
OUTLINE
10
169.115
20
110.2
30
0
11
169.115
21
113.3
31
0
0
LINE
8
OUTLINE
10
169.115
20
113.3
30
0
11
173.615
21
113.3
31
0
0
LINE
8
OUTLINE
10
173.615
20
113.3
30
0
11
173.615
21
112.2
31
0
0
LINE
8
OUTLINE
10
173.615
20
112.2
30
0
11
187.615
21
112.2
31
0
0
LINE
8
OUTLINE
10
187.615
20
112.2
30
0
11
189.115
21
113.7
31
0
0
LINE
8
OUTLINE
10
94.115
20
108.7
30
0
11
94.115
21
131.7
31
0
0
LINE
8
OUTLINE
10
189.115
20
113.7
30
0
11
189.115
21
126.7
31
0
0
LINE
8
OUTLINE
10
95.115
20
107.7
30
0
11
95.115
21
132.7
31
0
0
LINE
8
OUTLINE
10
95.115
20
107.7
30
0
11
95.115
21
132.7
31
0
0
LINE
8
OUTLINE
10
169.115
20
113.3
30
0
11
169.115
21
127.1
31
0
0
LINE
8
OUTLINE
10
173.615
20
113.3
30
0
11
173.615
21
127.1
31
0
0
LINE
8
OUTLINE
10
187.615
20
112.2
30
0
11
187.615
21
128.2
31
0
0
LINE
8
OUTLINE
10
187.615
20
112.2
30
0
11
187.615
21
128.2
31
0
0
LINE
8
CENTER
10
90.115
20
120.2
30
0
11
193.115
21
120.2
31
0
0
LINE
8
HIDDEN
10
94.115
20
122.85
30
0
11
96.54
21
121.45
31
0
0
LINE
8
HIDDEN
10
96.54
20
121.45
30
0
11
101.54
21
121.45
31
0
0
LINE
8
HIDDEN
10
101.54
20
121.45
30
0
11
102.291
21
120.2
31
0
0
LINE
8
HIDDEN
10
94.115
20
117.55
30
0
11
96.54
21
118.95
31
0
0
LINE
8
HIDDEN
10
96.54
20
118.95
30
0
11
101.54
21
118.95
31
0
0
LINE
8
HIDDEN
10
101.54
20
118.95
30
0
11
102.291
21
120.2
31
0
0
LINE
8
HIDDEN
10
96.54
20
118.95
30
0
11
96.54
21
121.45
31
0
0
LINE
8
THIN
10
169.115
20
127.28
30
0
11
187.615
21
127.28
31
0
0
LINE
8
THIN
10
169.115
20
113.12
30
0
11
187.615
21
113.12
31
0
0
LINE
8
OUTLINE
10
106.115
20
124.2
30
0
11
118.115
21
124.2
31
0
0
LINE
8
OUTLINE
10
106.115
20
116.2
30
0
11
118.115
21
116.2
31
0
0
ARC
8
OUTLINE
10
106.115
20
120.2
30
0
40
4
50
90
51
270
0
ARC
8
OUTLINE
10
118.115
20
120.2
30
0
40
4
50
-90
51
90
0
LINE
8
CUT
10
112.115
20
135.2
30
0
11
112.115
21
140.2
31
0
0
LINE
8
CUT
10
112.115
20
140.2
30
0
11
109.115
21
140.2
31
0
0
SOLID
8
DIM
10
107.615
20
140.2
30
0
11
110.615
21
140.71
31
0
12
110.615
22
139.69
32
0
13
110.615
23
139.69
33
0
0
TEXT
8
TEXT
10
113.615
20
140.8
30
0
40
3.5
1
A
50
0
72
0
11
113.615
21
140.8
31
0
0
LINE
8
CUT
10
112.115
20
105.2
30
0
11
112.115
21
100.2
31
0
0
LINE
8
CUT
10
112.115
20
100.2
30
0
11
109.115
21
100.2
31
0
0
SOLID
8
DIM
10
107.615
20
100.2
30
0
11
110.615
21
100.71
31
0
12
110.615
22
99.69
32
0
13
110.615
23
99.69
33
0
0
TEXT
8
TEXT
10
113.615
20
97
30
0
40
3.5
1
A
50
0
72
0
11
113.615
21
97
31
0
0
LINE
8
DIM
10
129.115
20
106.7
30
0
11
129.115
21
90.7
31
0
0
LINE
8
DIM
10
169.115
20
106.7
30
0
11
169.115
21
90.7
31
0
0
LINE
8
DIM
10
129.115
20
92.7
30
0
11
169.115
21
92.7
31
0
0
SOLID
8
DIM
10
129.115
20
92.7
30
0
11
132.115
21
93.21
31
0
12
132.115
22
92.19
32
0
13
132.115
23
92.19
33
0
0
SOLID
8
DIM
10
169.115
20
92.7
30
0
11
166.115
21
92.19
31
0
12
166.115
22
93.21
32
0
13
166.115
23
93.21
33
0
0
TEXT
8
TEXT
10
149.115
20
93.6
30
0
40
3.5
1
40
50
0
72
1
11
149.115
21
93.6
31
0
0
LINE
8
DIM
10
169.115
20
111.2
30
0
11
169.115
21
90.7
31
0
0
LINE
8
DIM
10
189.115
20
111.2
30
0
11
189.115
21
90.7
31
0
0
LINE
8
DIM
10
169.115
20
92.7
30
0
11
189.115
21
92.7
31
0
0
SOLID
8
DIM
10
169.115
20
92.7
30
0
11
172.115
21
93.21
31
0
12
172.115
22
92.19
32
0
13
172.115
23
92.19
33
0
0
SOLID
8
DIM
10
189.115
20
92.7
30
0
11
186.115
21
92.19
31
0
12
186.115
22
93.21
32
0
13
186.115
23
93.21
33
0
0
TEXT
8
TEXT
10
179.115
20
93.6
30
0
40
3.5
1
20
50
0
72
1
11
179.115
21
93.6
31
0
0
LINE
8
DIM
10
94.115
20
106.7
30
0
11
94.115
21
81.7
31
0
0
LINE
8
DIM
10
189.115
20
106.7
30
0
11
189.115
21
81.7
31
0
0
LINE
8
DIM
10
94.115
20
83.7
30
0
11
189.115
21
83.7
31
0
0
SOLID
8
DIM
10
94.115
20
83.7
30
0
11
97.115
21
84.21
31
0
12
97.115
22
83.19
32
0
13
97.115
23
83.19
33
0
0
SOLID
8
DIM
10
189.115
20
83.7
30
0
11
186.115
21
83.19
31
0
12
186.115
22
84.21
32
0
13
186.115
23
84.21
33
0
0
TEXT
8
TEXT
10
141.615
20
84.6
30
0
40
3.5
1
95
50
0
72
1
11
141.615
21
84.6
31
0
0
LINE
8
DIM
10
111.615
20
107.7
30
0
11
111.615
21
137.7
31
0
0
SOLID
8
DIM
10
111.615
20
107.7
30
0
11
111.105
21
110.7
31
0
12
112.125
22
110.7
32
0
13
112.125
23
110.7
33
0
0
SOLID
8
DIM
10
111.615
20
132.7
30
0
11
112.125
21
129.7
31
0
12
111.105
22
129.7
32
0
13
111.105
23
129.7
33
0
0
LINE
8
DIM
10
111.615
20
137.7
30
0
11
111.615
21
148
31
0
0
TEXT
8
TEXT
10
111.615
20
148.3
30
0
40
3.5
1
%%c25 k6
50
0
72
1
11
111.615
21
148.3
31
0
0
LINE
8
DIM
10
137.915
20
108.25
30
0
11
137.915
21
137.15
31
0
0
SOLID
8
DIM
10
137.915
20
108.25
30
0
11
137.405
21
111.25
31
0
12
138.425
22
111.25
32
0
13
138.425
23
111.25
33
0
0
SOLID
8
DIM
10
137.915
20
132.15
30
0
11
138.425
21
129.15
31
0
12
137.405
22
129.15
32
0
13
137.405
23
129.15
33
0
0
TEXT
8
TEXT
10
137.915
20
137.95
30
0
40
3.5
1
%%c25
50
0
72
1
11
137.915
21
137.95
31
0
0
LINE
8
DIM
10
160.315
20
109.65
30
0
11
160.315
21
135.75
31
0
0
SOLID
8
DIM
10
160.315
20
109.65
30
0
11
159.805
21
112.65
31
0
12
160.825
22
112.65
32
0
13
160.825
23
112.65
33
0
0
SOLID
8
DIM
10
160.315
20
130.75
30
0
11
160.825
21
127.75
31
0
12
159.805
22
127.75
32
0
13
159.805
23
127.75
33
0
0
TEXT
8
TEXT
10
160.315
20
136.55
30
0
40
3.5
1
%%c20
50
0
72
1
11
160.315
21
136.55
31
0
0
LINE
8
DIM
10
179.115
20
128.2
30
0
11
185.115
21
137.2
31
0
0
LINE
8
DIM
10
185.115
20
137.2
30
0
11
199.94
21
137.2
31
0
0
SOLID
8
DIM
10
179.115
20
128.2
30
0
11
177.875
21
125.421
31
0
12
177.027
22
125.987
32
0
13
177.027
23
125.987
33
0
0
TEXT
8
TEXT
10
185.615
20
137.9
30
0
40
3.5
1
M16×1.5
50
0
72
0
11
185.615
21
137.9
31
0
0
LINE
8
DIM
10
94.615
20
132.2
30
0
11
88.615
21
140.2
31
0
0
LINE
8
DIM
10
88.615
20
140.2
30
0
11
83.275
21
140.2
31
0
0
SOLID
8
DIM
10
94.615
20
132.2
30
0
11
96.823
21
130.106
31
0
12
96.007
22
129.494
32
0
13
96.007
23
129.494
33
0
0
TEXT
8
TEXT
10
88.115
20
140.9
30
0
40
3.5
1
C1
50
0
72
2
11
88.115
21
140.9
31
0
0
LINE
8
DIM
10
188.365
20
127.45
30
0
11
194.365
21
145.45
31
0
0
LINE
8
DIM
10
194.365
20
145.45
30
0
11
202.645
21
145.45
31
0
0
SOLID
8
DIM
10
188.365
20
127.45
30
0
11
187.9
21
124.443
31
0
12
186.932
22
124.765
32
0
13
186.932
23
124.765
33
0
0
TEXT
8
TEXT
10
194.865
20
146.15
30
0
40
3.5
1
C1.5
50
0
72
0
11
194.865
21
146.15
31
0
0
LINE
8
DIM
10
166.865
20
127.1
30
0
11
160.865
21
142.2
31
0
0
LINE
8
DIM
10
160.865
20
142.2
30
0
11
121.015
21
142.2
31
0
0
SOLID
8
DIM
10
166.865
20
127.1
30
0
11
168.447
21
124.5
31
0
12
167.499
22
124.124
32
0
13
167.499
23
124.124
33
0
0
TEXT
8
TEXT
10
160.365
20
142.9
30
0
40
3.5
1
4.5×%%c13.8 (DIN 76-A)
50
0
72
2
11
160.365
21
142.9
31
0
0
LINE
8
DIM
10
102.115
20
133.7
30
0
11
102.115
21
146.7
31
0
0
LINE
8
DIM
10
122.115
20
133.7
30
0
11
122.115
21
146.7
31
0
0
LINE
8
DIM
10
102.115
20
144.7
30
0
11
122.115
21
144.7
31
0
0
SOLID
8
DIM
10
102.115
20
144.7
30
0
11
105.115
21
145.21
31
0
12
105.115
22
144.19
32
0
13
105.115
23
144.19
33
0
0
SOLID
8
DIM
10
122.115
20
144.7
30
0
11
119.115
21
144.19
31
0
12
119.115
22
145.21
32
0
13
119.115
23
145.21
33
0
0
TEXT
8
TEXT
10
112.115
20
155.4
30
0
40
3.5
1
20
50
0
72
1
11
112.115
21
155.4
31
0
0
LINE
8
DIM
10
129.115
20
133.7
30
0
11
129.115
21
146.7
31
0
0
LINE
8
DIM
10
122.115
20
133.7
30
0
11
122.115
21
146.7
31
0
0
LINE
8
DIM
10
115.515
20
144.7
30
0
11
135.715
21
144.7
31
0
0
SOLID
8
DIM
10
122.115
20
144.7
30
0
11
119.115
21
144.19
31
0
12
119.115
22
145.21
32
0
13
119.115
23
145.21
33
0
0
SOLID
8
DIM
10
129.115
20
144.7
30
0
11
132.115
21
145.21
31
0
12
132.115
22
144.19
32
0
13
132.115
23
144.19
33
0
0
TEXT
8
TEXT
10
137.295
20
150.5
30
0
40
3.5
1
7
50
0
72
1
11
137.295
21
150.5
31
0
0
LINE
8
DIM
10
94.115
20
124.225
30
0
11
89.115
21
145.7
31
0
0
LINE
8
DIM
10
89.115
20
145.7
30
0
11
58.865
21
145.7
31
0
0
SOLID
8
DIM
10
94.115
20
124.225
30
0
11
95.292
21
121.419
31
0
12
94.299
22
121.188
32
0
13
94.299
23
121.188
33
0
0
TEXT
8
TEXT
10
88.615
20
146.4
30
0
40
2.5
1
센터구멍 A2.5 (DIN 332)
50
0
72
2
11
88.615
21
146.4
31
0
0
TEXT
8
TEXT
10
215.615
20
144.7
30
0
40
4
1
A-A
50
0
72
1
11
215.615
21
144.7
31
0
0
LINE
8
CENTER
10
200.115
20
120.2
30
0
11
231.115
21
120.2
31
0
0
LINE
8
CENTER
10
215.615
20
104.7
30
0
11
215.615
21
135.7
31
0
0
ARC
8
OUTLINE
10
215.615
20
120.2
30
0
40
12.5
50
108.663
51
71.337
0
LINE
8
OUTLINE
10
211.615
20
128.7
30
0
11
211.615
21
132.043
31
0
0
LINE
8
OUTLINE
10
219.615
20
128.7
30
0
11
219.615
21
132.043
31
0
0
LINE
8
OUTLINE
10
211.615
20
128.7
30
0
11
219.615
21
128.7
31
0
0
LINE
8
DIM
10
211.615
20
133.043
30
0
11
211.615
21
140.7
31
0
0
LINE
8
DIM
10
219.615
20
133.043
30
0
11
219.615
21
140.7
31
0
0
LINE
8
DIM
10
205.015
20
138.7
30
0
11
226.215
21
138.7
31
0
0
SOLID
8
DIM
10
211.615
20
138.7
30
0
11
208.615
21
138.19
31
0
12
208.615
22
139.21
32
0
13
208.615
23
139.21
33
0
0
SOLID
8
DIM
10
219.615
20
138.7
30
0
11
222.615
21
139.21
31
0
12
222.615
22
138.19
32
0
13
222.615
23
138.19
33
0
0
TEXT
8
TEXT
10
227.795
20
139.6
30
0
40
3.5
1
8
50
0
72
1
11
227.795
21
139.6
31
0
0
LINE
8
DIM
10
220.615
20
128.7
30
0
11
237.115
21
128.7
31
0
0
LINE
8
DIM
10
216.615
20
107.7
30
0
11
237.115
21
107.7
31
0
0
LINE
8
DIM
10
235.115
20
107.7
30
0
11
235.115
21
128.7
31
0
0
SOLID
8
DIM
10
235.115
20
107.7
30
0
11
234.605
21
110.7
31
0
12
235.625
22
110.7
32
0
13
235.625
23
110.7
33
0
0
SOLID
8
DIM
10
235.115
20
128.7
30
0
11
235.625
21
125.7
31
0
12
234.605
22
125.7
32
0
13
234.605
23
125.7
33
0
0
TEXT
8
TEXT
10
234.215
20
118.2
30
0
40
3.5
1
21
50
90
72
1
11
234.215
21
118.2
31
0
0
LINE
8
HATCH
10
219.718
20
108.408
30
0
11
227.423
21
116.113
31
0
0
LINE
8
HATCH
10
215.476
20
107.701
30
0
11
228.103
21
120.328
31
0
0
LINE
8
HATCH
10
212.381
20
108.142
30
0
11
227.673
21
123.434
31
0
0
LINE
8
HATCH
10
209.838
20
109.134
30
0
11
226.683
21
125.979
31
0
0
LINE
8
HATCH
10
207.708
20
110.54
30
0
11
225.276
21
128.108
31
0
0
LINE
8
HATCH
10
205.941
20
112.309
30
0
11
223.506
21
129.873
31
0
0
LINE
8
HATCH
10
204.537
20
114.44
30
0
11
218.797
21
128.7
31
0
0
LINE
8
HATCH
10
219.615
20
129.518
30
0
11
221.373
21
131.276
31
0
0
LINE
8
HATCH
10
203.551
20
116.99
30
0
11
215.261
21
128.7
31
0
0
LINE
8
HATCH
10
203.126
20
120.1
30
0
11
211.726
21
128.7
31
0
0
LINE
8
HATCH
10
203.826
20
124.336
30
0
11
211.465
21
131.975
31
0
0
LINE
8
FRAME
10
10
20
10
30
0
11
287
21
10
31
0
0
LINE
8
FRAME
10
287
20
10
30
0
11
287
21
200
31
0
0
LINE
8
FRAME
10
287
20
200
30
0
11
10
21
200
31
0
0
LINE
8
FRAME
10
10
20
200
30
0
11
10
21
10
31
0
0
LINE
8
FRAME
10
177
20
10
30
0
11
287
21
10
31
0
0
LINE
8
FRAME
10
287
20
10
30
0
11
287
21
34
31
0
0
LINE
8
FRAME
10
287
20
34
30
0
11
177
21
34
31
0
0
LINE
8
FRAME
10
177
20
34
30
0
11
177
21
10
31
0
0
LINE
8
FRAME
10
177
20
18
30
0
11
287
21
18
31
0
0
LINE
8
FRAME
10
177
20
26
30
0
11
287
21
26
31
0
0
LINE
8
FRAME
10
232
20
10
30
0
11
232
21
26
31
0
0
LINE
8
FRAME
10
255
20
26
30
0
11
255
21
34
31
0
0
TEXT
8
TEXT
10
179
20
28.5
30
0
40
4.2
1
VRINGON
72
0
11
179
21
28.5
31
0
0
TEXT
8
TEXT
10
257
20
28.5
30
0
40
2.5
1
도번 VR-RB-009
72
0
11
257
21
28.5
31
0
0
TEXT
8
TEXT
10
179
20
20.5
30
0
40
2.8
1
품명 테이퍼 축
72
0
11
179
21
20.5
31
0
0
TEXT
8
TEXT
10
234
20
20.5
30
0
40
2.8
1
재질 SCM440
72
0
11
234
21
20.5
31
0
0
TEXT
8
TEXT
10
179
20
12.5
30
0
40
2.5
1
척도 1:1
72
0
11
179
21
12.5
31
0
0
TEXT
8
TEXT
10
234
20
12.5
30
0
40
2.5
1
3각법 · 단위 mm
72
0
11
234
21
12.5
31
0
0
CIRCLE
8
FRAME
10
269
20
16.5
30
0
40
2.4
0
CIRCLE
8
FRAME
10
269
20
16.5
30
0
40
1.2
0
LINE
8
FRAME
10
274.5
20
13.9
30
0
11
281
21
15.1
31
0
0
LINE
8
FRAME
10
281
20
15.1
30
0
11
281
21
17.9
31
0
0
LINE
8
FRAME
10
281
20
17.9
30
0
11
274.5
21
19.1
31
0
0
LINE
8
FRAME
10
274.5
20
19.1
30
0
11
274.5
21
13.9
31
0
0
TEXT
8
TEXT
10
14
20
18.2
30
0
40
2.6
1
1. 지시 없는 모따기 C0.5
72
0
11
14
21
18.2
31
0
0
TEXT
8
TEXT
10
14
20
14
30
0
40
2.6
1
2. 지시 없는 공차 KS B ISO 2768-m
72
0
11
14
21
14
31
0
0
ENDSEC
0
EOF
