#usda 1.0
(
    defaultPrim = "sleeve"
    metersPerUnit = 0.001
    upAxis = "Y"
    doc = "VRINGON revolve part — CadQuery executor"
)

def Xform "sleeve" (
    kind = "component"
)
{
    custom string vringon:dsl_version = "vringon-shaft/1.0"
    custom string vringon:dsl_json = "{\"dsl\":\"vringon-shaft/1.0\",\"id\":\"sleeve\",\"name\":\"Stepped-bore sleeve\",\"name_ko\":\"슬리브\",\"part_class\":\"sleeve\",\"units\":\"mm\",\"material\":\"SUJ2\",\"drawing\":{\"number\":\"VR-RB-008\",\"scale\":\"1:1\",\"projection\":\"third\"},\"segments\":[{\"type\":\"cyl\",\"length\":60,\"diameter\":40,\"tolerance\":\"h6\"}],\"transitions\":[{\"at\":0,\"type\":\"chamfer\",\"size\":0.5},{\"at\":1,\"type\":\"chamfer\",\"size\":0.5}],\"grooves\":[{\"segment\":0,\"offset\":15,\"width\":2.4,\"depth\":1.9,\"kind\":\"o_ring\",\"corner_radius\":0.2}],\"bore\":{\"through\":true,\"segments\":[{\"length\":20,\"diameter\":30,\"tolerance\":\"H7\"},{\"length\":40,\"diameter\":28}],\"chamfer_left\":0.5,\"chamfer_right\":0.5},\"features\":[],\"meta\":{\"source\":\"golden\",\"difficulty\":3}}"
    custom string vringon:name_ko = "슬리브"
    custom string vringon:material = "SUJ2"
    custom double vringon:length_mm = 60.0
    custom double vringon:max_diameter_mm = 40
    custom double vringon:volume_mm3 = 36030.970
    custom double[] vringon:segment_lengths_mm = [60]
    custom string[] vringon:segment_types = ["cyl"]
    custom string[] vringon:threads = []
    custom string[] vringon:features = []

    def Mesh "body"
    {
        float3[] extent = [(0.0000, -19.9751, -19.9938), (60.0000, 20.0000, 19.9938)]
        int[] faceVertexCounts = [3, 3, 3, 3, 3, 3, 3, 3, 3, 3, 3, 3, 3, 3, 3, 3, 3, 3, 3, 3, 3, 3, 3, 3, 3, 3, 3, 3, 3, 3, 3, 3, 3, 3, 3, 3, 3, 3, 3, 3, 3, 3, 3, 3, 3, 3, 3, 3, 3, 3, 3, 3, 3, 3, 3, 3, 3, 3, 3, 3, 3, 3, 3, 3, 3, 3, 3, 3, 3, 3, 3, 3, 3, 3, 3, 3, 3, 3, 3, 3, 3, 3, 3, 3, 3, 3, 3, 3, 3, 3, 3, 3, 3, 3, 3, 3, 3, 3, 3, 3, 3, 3, 3, 3, 3, 3, 3, 3, 3, 3, 3, 3, 3, 3, 3, 3, 3, 3, 3, 3, 3, 3, 3, 3, 3, 3, 3, 3, 3, 3, 3, 3, 3, 3, 3, 3, 3, 3, 3, 3, 3, 3, 3, 3, 3, 3, 3, 3, 3, 3, 3, 3, 3, 3, 3, 3, 3, 3, 3, 3, 3, 3, 3, 3, 3, 3, 3, 3, 3, 3, 3, 3, 3, 3, 3, 3, 3, 3, 3, 3, 3, 3, 3, 3, 3, 3, 3, 3, 3, 3, 3, 3, 3, 3, 3, 3, 3, 3, 3, 3, 3, 3, 3, 3, 3, 3, 3, 3, 3, 3, 3, 3, 3, 3, 3, 3, 3, 3, 3, 3, 3, 3, 3, 3, 3, 3, 3, 3, 3, 3, 3, 3, 3, 3, 3, 3, 3, 3, 3, 3, 3, 3, 3, 3, 3, 3, 3, 3, 3, 3, 3, 3, 3, 3, 3, 3, 3, 3, 3, 3, 3, 3, 3, 3, 3, 3, 3, 3, 3, 3, 3, 3, 3, 3, 3, 3, 3, 3, 3, 3, 3, 3, 3, 3, 3, 3, 3, 3, 3, 3, 3, 3, 3, 3, 3, 3, 3, 3, 3, 3, 3, 3, 3, 3, 3, 3, 3, 3, 3, 3, 3, 3, 3, 3, 3, 3, 3, 3, 3, 3, 3, 3, 3, 3, 3, 3, 3, 3, 3, 3, 3, 3, 3, 3, 3, 3, 3, 3, 3, 3, 3, 3, 3, 3, 3, 3, 3, 3, 3, 3, 3, 3, 3, 3, 3, 3, 3, 3, 3, 3, 3, 3, 3, 3, 3, 3, 3, 3, 3, 3, 3, 3, 3, 3, 3, 3, 3, 3, 3, 3, 3, 3, 3, 3, 3, 3, 3, 3, 3, 3, 3, 3, 3, 3, 3, 3, 3, 3, 3, 3, 3, 3, 3, 3, 3, 3, 3, 3, 3, 3, 3, 3, 3, 3, 3, 3, 3, 3, 3, 3, 3, 3, 3, 3, 3, 3, 3, 3, 3, 3, 3, 3, 3, 3, 3, 3, 3, 3, 3, 3, 3, 3, 3, 3, 3, 3, 3, 3, 3, 3, 3, 3, 3, 3, 3, 3, 3, 3, 3, 3, 3, 3, 3, 3, 3, 3, 3, 3, 3, 3, 3, 3, 3, 3, 3, 3, 3, 3, 3, 3, 3, 3, 3, 3, 3, 3, 3, 3, 3, 3, 3, 3, 3, 3, 3, 3, 3, 3, 3, 3, 3, 3, 3, 3, 3, 3, 3, 3, 3, 3, 3, 3, 3, 3, 3, 3, 3, 3, 3, 3, 3, 3, 3, 3, 3, 3, 3, 3, 3, 3, 3, 3, 3, 3, 3, 3, 3, 3, 3, 3, 3, 3, 3, 3, 3, 3, 3, 3, 3, 3, 3, 3, 3, 3, 3, 3, 3, 3, 3, 3, 3, 3, 3, 3, 3, 3, 3, 3, 3, 3, 3, 3, 3, 3, 3, 3, 3, 3, 3, 3, 3, 3, 3, 3, 3, 3, 3, 3, 3, 3, 3, 3, 3, 3, 3, 3, 3, 3, 3, 3, 3, 3, 3, 3, 3, 3, 3, 3, 3, 3, 3, 3, 3, 3, 3, 3, 3, 3, 3, 3, 3, 3, 3, 3, 3, 3, 3, 3, 3, 3, 3, 3, 3, 3, 3, 3, 3, 3, 3, 3, 3, 3, 3, 3, 3, 3, 3, 3, 3, 3, 3, 3, 3, 3, 3, 3, 3, 3, 3, 3, 3, 3, 3, 3, 3, 3, 3, 3, 3, 3, 3, 3, 3, 3, 3, 3, 3, 3, 3, 3, 3, 3, 3, 3, 3, 3, 3, 3, 3, 3, 3, 3, 3, 3, 3, 3, 3, 3, 3, 3, 3, 3, 3, 3, 3, 3, 3, 3, 3, 3, 3, 3, 3, 3, 3, 3, 3, 3, 3, 3, 3, 3, 3, 3, 3, 3, 3, 3, 3, 3, 3, 3, 3, 3, 3, 3, 3, 3, 3, 3, 3, 3, 3, 3, 3, 3, 3, 3, 3, 3, 3, 3, 3, 3, 3, 3, 3, 3, 3, 3, 3, 3, 3, 3, 3, 3, 3, 3, 3, 3, 3, 3, 3, 3, 3, 3, 3, 3, 3, 3, 3, 3, 3, 3, 3, 3, 3, 3, 3, 3, 3, 3, 3, 3, 3, 3, 3, 3, 3, 3, 3, 3, 3, 3, 3, 3, 3, 3, 3, 3, 3, 3, 3, 3, 3, 3, 3, 3, 3, 3, 3, 3, 3, 3, 3, 3, 3, 3, 3, 3, 3, 3, 3, 3, 3, 3, 3, 3, 3, 3, 3, 3, 3, 3, 3, 3, 3, 3, 3, 3, 3, 3, 3, 3, 3, 3, 3, 3, 3, 3, 3, 3, 3, 3, 3, 3, 3, 3, 3, 3, 3, 3, 3, 3, 3, 3, 3, 3, 3, 3, 3, 3, 3, 3, 3, 3, 3, 3, 3, 3, 3, 3, 3, 3, 3, 3, 3, 3, 3, 3, 3, 3, 3, 3, 3, 3, 3, 3, 3, 3, 3, 3, 3, 3, 3, 3, 3, 3, 3, 3, 3, 3, 3, 3, 3, 3, 3, 3, 3, 3, 3, 3, 3, 3, 3, 3, 3, 3, 3, 3, 3, 3, 3, 3, 3, 3, 3, 3, 3, 3, 3, 3, 3, 3, 3, 3, 3, 3, 3, 3, 3, 3, 3, 3, 3, 3, 3, 3, 3, 3, 3, 3, 3, 3, 3, 3, 3, 3, 3, 3, 3, 3, 3, 3, 3, 3, 3, 3, 3, 3, 3, 3, 3, 3, 3, 3, 3, 3, 3, 3, 3, 3, 3, 3, 3, 3, 3, 3, 3, 3, 3, 3, 3, 3, 3, 3, 3, 3, 3, 3, 3, 3, 3, 3, 3, 3, 3, 3, 3, 3, 3, 3, 3, 3, 3, 3, 3, 3, 3, 3, 3, 3, 3, 3, 3, 3, 3, 3, 3, 3, 3, 3, 3, 3, 3, 3, 3, 3, 3, 3, 3, 3, 3, 3, 3, 3, 3, 3, 3, 3, 3, 3, 3, 3, 3, 3, 3, 3, 3, 3, 3, 3, 3, 3, 3, 3, 3, 3, 3, 3, 3, 3, 3, 3, 3, 3, 3, 3, 3, 3, 3, 3, 3, 3, 3, 3, 3, 3, 3, 3, 3, 3, 3, 3, 3, 3, 3, 3, 3, 3, 3, 3, 3, 3, 3, 3, 3, 3, 3, 3, 3, 3, 3, 3, 3, 3, 3, 3, 3, 3, 3, 3, 3, 3, 3, 3, 3, 3, 3, 3, 3, 3, 3, 3, 3, 3, 3, 3, 3, 3, 3, 3, 3, 3, 3, 3, 3, 3, 3, 3, 3, 3, 3, 3, 3, 3, 3, 3, 3, 3, 3, 3, 3, 3, 3, 3, 3, 3, 3, 3, 3, 3, 3, 3, 3, 3, 3, 3, 3, 3, 3, 3, 3, 3, 3, 3, 3, 3, 3, 3, 3, 3, 3, 3, 3, 3, 3, 3, 3, 3, 3, 3, 3, 3, 3, 3, 3, 3, 3, 3, 3, 3, 3, 3, 3, 3, 3, 3, 3, 3, 3, 3, 3, 3, 3, 3, 3, 3, 3, 3, 3, 3, 3, 3, 3, 3, 3, 3, 3, 3, 3, 3, 3, 3, 3, 3, 3, 3, 3, 3, 3, 3, 3, 3, 3, 3, 3, 3, 3, 3, 3, 3, 3, 3, 3, 3, 3, 3, 3, 3, 3, 3, 3, 3, 3, 3, 3, 3, 3, 3, 3, 3, 3, 3, 3, 3, 3, 3, 3, 3, 3, 3, 3, 3, 3, 3, 3, 3, 3, 3, 3, 3, 3, 3, 3, 3, 3, 3, 3, 3, 3, 3, 3, 3, 3, 3, 3, 3, 3, 3, 3, 3, 3, 3, 3, 3, 3, 3, 3, 3, 3, 3, 3, 3, 3, 3, 3, 3, 3, 3, 3, 3, 3, 3, 3, 3, 3, 3, 3, 3, 3, 3, 3, 3, 3, 3, 3, 3, 3, 3, 3, 3, 3, 3, 3, 3, 3, 3, 3, 3, 3, 3, 3, 3, 3, 3, 3, 3, 3, 3, 3, 3, 3, 3, 3, 3, 3, 3, 3, 3, 3, 3, 3, 3, 3, 3, 3, 3, 3, 3, 3, 3, 3, 3, 3, 3, 3, 3, 3, 3, 3, 3, 3, 3, 3, 3, 3, 3, 3, 3, 3, 3, 3, 3, 3, 3, 3, 3, 3, 3, 3, 3, 3, 3, 3, 3, 3, 3, 3, 3, 3, 3, 3, 3, 3, 3, 3, 3, 3, 3, 3, 3, 3, 3, 3, 3, 3, 3, 3, 3, 3, 3, 3, 3, 3, 3, 3, 3, 3, 3, 3, 3, 3, 3, 3, 3, 3, 3, 3, 3, 3, 3, 3, 3, 3, 3, 3, 3, 3, 3, 3, 3, 3, 3, 3, 3, 3, 3, 3, 3, 3, 3, 3, 3, 3, 3, 3, 3, 3, 3, 3, 3, 3, 3, 3, 3, 3, 3, 3, 3, 3, 3, 3, 3, 3, 3, 3, 3, 3, 3, 3, 3, 3, 3, 3, 3, 3, 3, 3, 3, 3, 3, 3, 3, 3, 3, 3, 3, 3, 3, 3, 3, 3, 3, 3, 3, 3, 3, 3, 3, 3, 3, 3, 3, 3, 3, 3, 3, 3, 3, 3, 3, 3, 3, 3, 3, 3, 3, 3, 3, 3, 3, 3, 3, 3, 3, 3, 3, 3, 3, 3, 3, 3, 3, 3, 3, 3, 3, 3, 3, 3, 3, 3, 3, 3, 3, 3, 3, 3, 3, 3, 3, 3, 3, 3, 3, 3, 3, 3, 3, 3, 3, 3, 3, 3, 3, 3, 3, 3, 3, 3, 3, 3, 3, 3, 3, 3, 3, 3, 3, 3, 3, 3, 3, 3, 3, 3, 3, 3, 3, 3, 3, 3, 3, 3, 3, 3, 3, 3, 3, 3, 3, 3, 3, 3, 3, 3, 3, 3, 3, 3, 3, 3, 3, 3, 3, 3, 3, 3, 3, 3, 3, 3, 3, 3, 3, 3, 3, 3, 3, 3, 3, 3, 3, 3, 3, 3, 3, 3, 3, 3, 3, 3, 3, 3, 3, 3, 3, 3, 3, 3, 3, 3, 3, 3, 3, 3, 3, 3, 3, 3, 3, 3, 3, 3, 3, 3, 3, 3, 3, 3, 3, 3, 3, 3, 3, 3, 3, 3, 3, 3, 3, 3, 3]
        int[] faceVertexIndices = [66, 0, 1, 66, 65, 0, 67, 1, 2, 67, 66, 1, 68, 2, 3, 68, 67, 2, 69, 3, 4, 69, 68, 3, 70, 4, 5, 70, 69, 4, 71, 5, 6, 71, 70, 5, 72, 6, 7, 72, 71, 6, 73, 7, 8, 73, 72, 7, 74, 8, 9, 74, 73, 8, 75, 9, 10, 75, 74, 9, 76, 10, 11, 76, 75, 10, 77, 11, 12, 77, 76, 11, 78, 12, 13, 78, 77, 12, 79, 13, 14, 79, 78, 13, 80, 14, 15, 80, 79, 14, 81, 15, 16, 81, 80, 15, 82, 16, 17, 82, 81, 16, 83, 17, 18, 83, 82, 17, 84, 83, 18, 84, 18, 19, 85, 84, 19, 85, 19, 20, 86, 85, 20, 86, 20, 21, 87, 86, 21, 87, 21, 22, 88, 87, 22, 88, 22, 23, 89, 23, 24, 89, 88, 23, 90, 24, 25, 90, 89, 24, 91, 25, 26, 91, 90, 25, 27, 91, 26, 92, 91, 27, 28, 92, 27, 93, 92, 28, 94, 28, 29, 94, 93, 28, 95, 29, 30, 95, 94, 29, 96, 30, 31, 96, 95, 30, 32, 96, 31, 97, 96, 32, 98, 32, 33, 98, 97, 32, 99, 33, 34, 99, 98, 33, 100, 34, 35, 100, 99, 34, 101, 35, 36, 101, 100, 35, 37, 101, 36, 102, 101, 37, 38, 102, 37, 103, 102, 38, 104, 38, 39, 104, 103, 38, 105, 39, 40, 105, 104, 39, 41, 105, 40, 106, 105, 41, 107, 41, 42, 107, 106, 41, 43, 107, 42, 108, 107, 43, 109, 108, 43, 109, 43, 44, 45, 109, 44, 110, 109, 45, 46, 110, 45, 111, 110, 46, 112, 111, 46, 112, 46, 47, 113, 112, 47, 113, 47, 48, 49, 113, 48, 114, 113, 49, 115, 114, 49, 115, 49, 50, 51, 115, 50, 116, 115, 51, 117, 116, 51, 117, 51, 52, 118, 117, 52, 118, 52, 53, 119, 118, 53, 119, 53, 54, 120, 119, 54, 120, 54, 55, 121, 120, 55, 121, 55, 56, 122, 121, 56, 122, 56, 57, 123, 57, 58, 123, 122, 57, 124, 58, 59, 124, 123, 58, 60, 124, 59, 125, 124, 60, 126, 60, 61, 126, 125, 60, 62, 126, 61, 127, 126, 62, 64, 62, 63, 64, 127, 62, 193, 128, 129, 194, 129, 130, 194, 193, 129, 195, 194, 130, 196, 130, 131, 196, 131, 132, 196, 195, 130, 197, 196, 132, 198, 132, 133, 198, 197, 132, 199, 133, 134, 199, 134, 135, 199, 198, 133, 200, 199, 135, 201, 135, 136, 201, 200, 135, 202, 136, 137, 202, 137, 138, 202, 201, 136, 203, 138, 139, 203, 202, 138, 204, 203, 139, 205, 139, 140, 205, 204, 139, 206, 140, 141, 206, 205, 140, 207, 141, 142, 207, 206, 141, 208, 142, 143, 208, 143, 144, 208, 207, 142, 209, 144, 145, 209, 208, 144, 210, 209, 145, 211, 210, 145, 211, 145, 146, 212, 211, 146, 212, 146, 147, 213, 212, 147, 213, 147, 148, 214, 213, 148, 214, 148, 149, 215, 214, 149, 215, 149, 150, 216, 150, 151, 216, 215, 150, 217, 151, 152, 217, 216, 151, 218, 152, 153, 218, 217, 152, 219, 153, 154, 219, 218, 153, 220, 154, 155, 220, 219, 154, 221, 155, 156, 221, 156, 157, 221, 220, 155, 222, 157, 158, 222, 221, 157, 223, 158, 159, 223, 222, 158, 224, 223, 159, 225, 159, 160, 225, 160, 161, 225, 224, 159, 226, 225, 161, 227, 161, 162, 227, 162, 163, 227, 226, 161, 228, 227, 163, 229, 163, 164, 229, 228, 163, 230, 164, 165, 230, 165, 166, 230, 229, 164, 231, 230, 166, 232, 166, 167, 232, 231, 166, 233, 167, 168, 233, 232, 167, 234, 168, 169, 234, 169, 170, 234, 233, 168, 235, 234, 170, 236, 235, 170, 236, 170, 171, 237, 236, 171, 237, 171, 172, 238, 237, 172, 238, 172, 173, 239, 238, 173, 239, 173, 174, 239, 174, 175, 240, 239, 175, 241, 240, 175, 241, 175, 176, 241, 176, 177, 242, 241, 177, 243, 242, 177, 243, 177, 178, 244, 243, 178, 244, 178, 179, 244, 179, 180, 245, 244, 180, 246, 245, 180, 246, 180, 181, 247, 246, 181, 247, 181, 182, 248, 247, 182, 248, 182, 183, 249, 183, 184, 249, 248, 183, 249, 184, 185, 250, 249, 185, 251, 250, 185, 251, 185, 186, 251, 186, 187, 252, 251, 187, 253, 187, 188, 253, 252, 187, 254, 188, 189, 254, 189, 190, 254, 253, 188, 255, 190, 191, 255, 254, 190, 192, 255, 191, 359, 295, 296, 359, 358, 295, 359, 296, 297, 357, 293, 294, 357, 294, 295, 357, 295, 358, 360, 297, 298, 360, 359, 297, 356, 292, 293, 356, 293, 357, 361, 360, 298, 355, 291, 292, 355, 292, 356, 362, 298, 299, 362, 361, 298, 354, 291, 355, 363, 299, 300, 363, 362, 299, 353, 289, 290, 353, 290, 291, 353, 291, 354, 364, 300, 301, 364, 363, 300, 352, 289, 353, 365, 301, 302, 365, 302, 303, 365, 364, 301, 351, 288, 289, 351, 289, 352, 366, 365, 303, 304, 366, 303, 350, 287, 288, 350, 288, 351, 367, 366, 304, 305, 367, 304, 349, 286, 287, 349, 287, 350, 368, 367, 305, 285, 286, 349, 348, 285, 349, 369, 305, 306, 369, 368, 305, 347, 284, 285, 347, 285, 348, 370, 369, 306, 370, 306, 307, 283, 284, 347, 308, 370, 307, 346, 283, 347, 371, 370, 308, 345, 282, 283, 345, 283, 346, 372, 371, 308, 372, 308, 309, 344, 282, 345, 344, 281, 282, 310, 372, 309, 373, 372, 310, 343, 280, 281, 343, 281, 344, 374, 373, 310, 374, 310, 311, 279, 280, 343, 279, 343, 342, 312, 375, 374, 312, 374, 311, 278, 279, 342, 278, 342, 341, 313, 376, 375, 313, 375, 312, 377, 376, 313, 277, 278, 341, 277, 341, 340, 314, 377, 313, 276, 277, 340, 276, 340, 339, 315, 378, 377, 315, 377, 314, 338, 276, 339, 379, 378, 315, 275, 276, 338, 316, 379, 315, 337, 275, 338, 274, 275, 337, 317, 380, 379, 317, 379, 316, 273, 337, 336, 273, 274, 337, 318, 381, 380, 318, 380, 317, 272, 336, 335, 272, 273, 336, 256, 381, 318, 256, 319, 381, 271, 272, 335, 271, 335, 334, 257, 320, 319, 257, 319, 256, 270, 271, 334, 270, 333, 332, 270, 334, 333, 258, 320, 257, 258, 321, 320, 269, 270, 332, 259, 321, 258, 259, 322, 321, 268, 332, 331, 268, 269, 332, 260, 322, 259, 260, 323, 322, 267, 268, 331, 267, 330, 329, 267, 331, 330, 261, 323, 260, 261, 324, 323, 266, 267, 329, 262, 324, 261, 262, 325, 324, 262, 326, 325, 265, 266, 329, 265, 329, 328, 263, 326, 262, 264, 327, 326, 264, 328, 327, 264, 265, 328, 264, 326, 263, 448, 382, 383, 448, 447, 382, 449, 383, 384, 449, 448, 383, 450, 384, 385, 450, 449, 384, 451, 385, 386, 451, 450, 385, 452, 386, 387, 452, 387, 388, 452, 451, 386, 453, 452, 388, 454, 388, 389, 454, 453, 388, 455, 389, 390, 455, 454, 389, 456, 390, 391, 456, 455, 390, 457, 391, 392, 457, 456, 391, 458, 392, 393, 458, 457, 392, 459, 393, 394, 459, 458, 393, 460, 394, 395, 460, 459, 394, 461, 395, 396, 461, 460, 395, 462, 396, 397, 462, 461, 396, 463, 397, 398, 463, 462, 397, 464, 398, 399, 464, 463, 398, 465, 399, 400, 465, 400, 401, 465, 464, 399, 466, 465, 401, 467, 466, 401, 467, 401, 402, 467, 402, 403, 468, 467, 403, 469, 468, 403, 469, 403, 404, 470, 404, 405, 470, 405, 406, 470, 469, 404, 471, 470, 406, 472, 406, 407, 472, 471, 406, 473, 407, 408, 473, 408, 409, 473, 472, 407, 474, 473, 409, 475, 409, 410, 475, 474, 409, 476, 410, 411, 476, 475, 410, 477, 411, 412, 477, 412, 413, 477, 476, 411, 478, 477, 413, 479, 413, 414, 479, 478, 413, 480, 414, 415, 480, 415, 416, 480, 479, 414, 481, 480, 416, 482, 416, 417, 482, 481, 416, 483, 417, 418, 483, 418, 419, 483, 482, 417, 484, 483, 419, 485, 419, 420, 485, 484, 419, 486, 420, 421, 486, 485, 420, 487, 421, 422, 487, 486, 421, 488, 422, 423, 488, 487, 422, 489, 423, 424, 489, 488, 423, 490, 489, 424, 490, 424, 425, 491, 490, 425, 491, 425, 426, 492, 491, 426, 492, 426, 427, 493, 492, 427, 493, 427, 428, 494, 493, 428, 494, 428, 429, 495, 494, 429, 495, 429, 430, 496, 495, 430, 496, 430, 431, 497, 496, 431, 497, 431, 432, 498, 497, 432, 498, 432, 433, 499, 498, 433, 499, 433, 434, 500, 499, 434, 500, 434, 435, 501, 500, 435, 501, 435, 436, 502, 501, 436, 502, 436, 437, 503, 437, 438, 503, 502, 437, 504, 438, 439, 504, 503, 438, 505, 439, 440, 505, 504, 439, 506, 440, 441, 506, 505, 440, 507, 441, 442, 507, 506, 441, 508, 442, 443, 508, 507, 442, 509, 443, 444, 509, 508, 443, 446, 444, 445, 446, 509, 444, 629, 565, 628, 629, 566, 565, 627, 628, 565, 627, 565, 564, 630, 566, 629, 630, 567, 566, 626, 563, 562, 626, 564, 563, 626, 627, 564, 631, 567, 630, 631, 568, 567, 631, 569, 568, 625, 562, 561, 625, 626, 562, 632, 569, 631, 624, 625, 561, 633, 570, 569, 633, 569, 632, 623, 560, 559, 623, 561, 560, 623, 624, 561, 634, 571, 570, 634, 570, 633, 622, 623, 559, 635, 572, 571, 635, 510, 572, 635, 571, 634, 621, 558, 557, 621, 559, 558, 621, 622, 559, 573, 510, 635, 620, 621, 557, 556, 620, 557, 574, 511, 510, 574, 510, 573, 619, 620, 556, 512, 511, 574, 575, 512, 574, 618, 556, 555, 618, 619, 556, 576, 513, 512, 576, 512, 575, 617, 555, 554, 617, 618, 555, 577, 513, 576, 577, 514, 513, 616, 617, 554, 616, 554, 553, 515, 514, 577, 578, 515, 577, 615, 616, 553, 615, 553, 552, 579, 516, 515, 579, 515, 578, 614, 615, 552, 614, 552, 551, 580, 517, 516, 580, 516, 579, 613, 551, 550, 613, 614, 551, 518, 517, 580, 518, 580, 581, 612, 613, 550, 549, 612, 550, 582, 518, 581, 519, 518, 582, 548, 611, 612, 548, 612, 549, 583, 519, 582, 520, 519, 583, 610, 611, 548, 547, 610, 548, 521, 520, 583, 521, 583, 584, 546, 610, 547, 546, 609, 610, 522, 584, 585, 522, 521, 584, 545, 609, 546, 545, 608, 609, 586, 522, 585, 607, 608, 545, 523, 522, 586, 544, 607, 545, 606, 607, 544, 524, 586, 587, 524, 523, 586, 543, 606, 544, 605, 606, 543, 525, 524, 587, 525, 587, 588, 542, 605, 543, 526, 525, 588, 526, 588, 589, 526, 589, 590, 541, 605, 542, 541, 603, 604, 541, 604, 605, 527, 526, 590, 540, 603, 541, 540, 602, 603, 528, 527, 590, 528, 590, 591, 528, 591, 592, 539, 602, 540, 529, 528, 592, 538, 602, 539, 538, 601, 602, 530, 529, 592, 530, 592, 593, 537, 601, 538, 537, 599, 600, 537, 600, 601, 531, 530, 593, 531, 593, 594, 531, 594, 595, 536, 599, 537, 532, 531, 595, 532, 595, 596, 535, 599, 536, 535, 598, 599, 533, 532, 596, 534, 598, 535, 534, 533, 596, 534, 596, 597, 534, 597, 598, 702, 636, 637, 702, 637, 638, 702, 701, 636, 703, 638, 639, 703, 702, 638, 704, 703, 639, 705, 639, 640, 705, 704, 639, 706, 640, 641, 706, 641, 642, 706, 705, 640, 707, 706, 642, 708, 642, 643, 708, 707, 642, 709, 643, 644, 709, 644, 645, 709, 708, 643, 710, 709, 645, 711, 645, 646, 711, 710, 645, 712, 646, 647, 712, 711, 646, 713, 647, 648, 713, 712, 647, 714, 648, 649, 714, 713, 648, 715, 649, 650, 715, 714, 649, 716, 650, 651, 716, 715, 650, 717, 651, 652, 717, 716, 651, 718, 652, 653, 718, 717, 652, 719, 653, 654, 719, 718, 653, 720, 719, 654, 720, 654, 655, 720, 655, 656, 721, 720, 656, 722, 721, 656, 722, 656, 657, 723, 722, 657, 723, 657, 658, 724, 658, 659, 724, 723, 658, 725, 659, 660, 725, 724, 659, 726, 660, 661, 726, 725, 660, 727, 661, 662, 727, 726, 661, 728, 662, 663, 728, 663, 664, 728, 727, 662, 729, 728, 664, 730, 664, 665, 730, 665, 666, 730, 729, 664, 731, 666, 667, 731, 730, 666, 732, 731, 667, 733, 667, 668, 733, 668, 669, 733, 732, 667, 734, 733, 669, 735, 669, 670, 735, 670, 671, 735, 734, 669, 736, 671, 672, 736, 735, 671, 737, 736, 672, 738, 672, 673, 738, 737, 672, 739, 673, 674, 739, 738, 673, 740, 674, 675, 740, 739, 674, 741, 675, 676, 741, 740, 675, 742, 676, 677, 742, 677, 678, 742, 741, 676, 743, 742, 678, 744, 743, 678, 744, 678, 679, 745, 744, 679, 745, 679, 680, 746, 745, 680, 746, 680, 681, 747, 746, 681, 747, 681, 682, 748, 747, 682, 748, 682, 683, 748, 683, 684, 749, 748, 684, 750, 749, 684, 750, 684, 685, 750, 685, 686, 751, 750, 686, 752, 751, 686, 752, 686, 687, 752, 687, 688, 753, 752, 688, 754, 753, 688, 754, 688, 689, 754, 689, 690, 755, 754, 690, 756, 755, 690, 756, 690, 691, 756, 691, 692, 757, 756, 692, 758, 692, 693, 758, 757, 692, 759, 693, 694, 759, 694, 695, 759, 758, 693, 760, 759, 695, 761, 695, 696, 761, 696, 697, 761, 760, 695, 762, 761, 697, 763, 697, 698, 763, 698, 699, 763, 762, 697, 700, 763, 699, 830, 764, 765, 830, 829, 764, 831, 765, 766, 831, 830, 765, 832, 766, 767, 832, 831, 766, 833, 767, 768, 833, 832, 767, 834, 768, 769, 834, 833, 768, 835, 769, 770, 835, 834, 769, 836, 770, 771, 836, 835, 770, 837, 771, 772, 837, 836, 771, 838, 772, 773, 838, 837, 772, 839, 773, 774, 839, 838, 773, 840, 774, 775, 840, 839, 774, 841, 775, 776, 841, 840, 775, 842, 776, 777, 842, 841, 776, 843, 777, 778, 843, 842, 777, 844, 778, 779, 844, 843, 778, 845, 779, 780, 845, 844, 779, 846, 780, 781, 846, 845, 780, 847, 781, 782, 847, 846, 781, 848, 847, 782, 848, 782, 783, 849, 848, 783, 849, 783, 784, 850, 849, 784, 850, 784, 785, 851, 850, 785, 851, 785, 786, 852, 851, 786, 852, 786, 787, 853, 787, 788, 853, 852, 787, 854, 788, 789, 854, 853, 788, 855, 789, 790, 855, 854, 789, 791, 855, 790, 856, 855, 791, 792, 856, 791, 857, 856, 792, 858, 792, 793, 858, 857, 792, 859, 793, 794, 859, 858, 793, 860, 794, 795, 860, 859, 794, 796, 860, 795, 861, 860, 796, 862, 796, 797, 862, 861, 796, 863, 797, 798, 863, 862, 797, 864, 798, 799, 864, 863, 798, 865, 799, 800, 865, 864, 799, 801, 865, 800, 866, 865, 801, 802, 866, 801, 867, 866, 802, 868, 802, 803, 868, 867, 802, 869, 803, 804, 869, 868, 803, 805, 869, 804, 870, 869, 805, 871, 805, 806, 871, 870, 805, 807, 871, 806, 872, 871, 807, 873, 872, 807, 873, 807, 808, 809, 873, 808, 874, 873, 809, 810, 874, 809, 875, 874, 810, 876, 875, 810, 876, 810, 811, 877, 876, 811, 877, 811, 812, 813, 877, 812, 878, 877, 813, 879, 878, 813, 879, 813, 814, 815, 879, 814, 880, 879, 815, 881, 880, 815, 881, 815, 816, 882, 881, 816, 882, 816, 817, 883, 882, 817, 883, 817, 818, 884, 883, 818, 884, 818, 819, 885, 884, 819, 885, 819, 820, 886, 885, 820, 886, 820, 821, 887, 821, 822, 887, 886, 821, 888, 822, 823, 888, 887, 822, 824, 888, 823, 889, 888, 824, 890, 824, 825, 890, 889, 824, 826, 890, 825, 891, 890, 826, 828, 826, 827, 828, 891, 826, 995, 931, 932, 995, 994, 931, 993, 930, 931, 993, 931, 994, 996, 932, 933, 996, 995, 932, 992, 929, 930, 992, 930, 993, 997, 933, 934, 997, 934, 935, 997, 996, 933, 991, 928, 929, 991, 929, 992, 998, 997, 935, 990, 926, 927, 990, 927, 928, 990, 928, 991, 999, 935, 936, 999, 998, 935, 989, 925, 926, 989, 926, 990, 1000, 999, 936, 1000, 936, 937, 988, 925, 989, 1001, 937, 938, 1001, 938, 939, 1001, 1000, 937, 987, 924, 925, 987, 925, 988, 1002, 1001, 939, 986, 922, 923, 986, 923, 924, 986, 924, 987, 1003, 939, 940, 1003, 1002, 939, 985, 922, 986, 1004, 940, 941, 1004, 1003, 940, 984, 922, 985, 984, 921, 922, 1005, 1004, 941, 1005, 941, 942, 983, 921, 984, 983, 920, 921, 1006, 1005, 942, 1006, 942, 943, 982, 920, 983, 982, 919, 920, 1007, 1006, 943, 1007, 943, 944, 945, 1007, 944, 981, 919, 982, 981, 918, 919, 1008, 1007, 945, 946, 1008, 945, 980, 917, 918, 980, 918, 981, 1009, 1008, 946, 979, 917, 980, 979, 916, 917, 947, 1009, 946, 1010, 1009, 947, 915, 916, 979, 915, 979, 978, 1011, 1010, 947, 948, 1011, 947, 914, 915, 978, 914, 978, 977, 949, 1012, 1011, 949, 1011, 948, 1013, 1012, 949, 913, 914, 977, 913, 977, 976, 975, 913, 976, 950, 1013, 949, 912, 913, 975, 951, 1014, 1013, 951, 1013, 950, 911, 975, 974, 911, 912, 975, 952, 1015, 1014, 952, 1016, 1015, 952, 1014, 951, 910, 973, 972, 910, 974, 973, 910, 911, 974, 953, 1017, 1016, 953, 1016, 952, 909, 910, 972, 954, 955, 1017, 954, 1017, 953, 908, 909, 972, 908, 971, 970, 908, 972, 971, 892, 955, 954, 907, 908, 970, 893, 955, 892, 893, 956, 955, 893, 957, 956, 906, 907, 970, 906, 969, 968, 906, 970, 969, 894, 957, 893, 894, 958, 957, 905, 906, 968, 895, 958, 894, 904, 905, 968, 904, 968, 967, 896, 958, 895, 896, 959, 958, 896, 960, 959, 903, 904, 967, 903, 966, 965, 903, 967, 966, 897, 960, 896, 902, 903, 965, 902, 965, 964, 898, 960, 897, 898, 961, 960, 901, 902, 964, 899, 961, 898, 899, 962, 961, 900, 901, 964, 900, 963, 962, 900, 964, 963, 900, 962, 899, 1084, 1018, 1019, 1084, 1083, 1018, 1085, 1019, 1020, 1085, 1084, 1019, 1086, 1020, 1021, 1086, 1085, 1020, 1087, 1021, 1022, 1087, 1086, 1021, 1088, 1022, 1023, 1088, 1087, 1022, 1089, 1023, 1024, 1089, 1088, 1023, 1090, 1024, 1025, 1090, 1089, 1024, 1091, 1025, 1026, 1091, 1090, 1025, 1027, 1091, 1026, 1092, 1091, 1027, 1093, 1027, 1028, 1093, 1092, 1027, 1029, 1093, 1028, 1094, 1093, 1029, 1095, 1029, 1030, 1095, 1094, 1029, 1096, 1030, 1031, 1096, 1095, 1030, 1032, 1096, 1031, 1097, 1096, 1032, 1033, 1097, 1032, 1098, 1097, 1033, 1099, 1033, 1034, 1099, 1098, 1033, 1035, 1099, 1034, 1100, 1099, 1035, 1101, 1035, 1036, 1101, 1100, 1035, 1102, 1101, 1036, 1102, 1036, 1037, 1103, 1102, 1037, 1103, 1037, 1038, 1104, 1103, 1038, 1104, 1038, 1039, 1040, 1104, 1039, 1105, 1104, 1040, 1106, 1105, 1040, 1106, 1040, 1041, 1042, 1106, 1041, 1107, 1106, 1042, 1043, 1107, 1042, 1108, 1107, 1043, 1109, 1043, 1044, 1109, 1108, 1043, 1045, 1109, 1044, 1110, 1109, 1045, 1111, 1045, 1046, 1111, 1110, 1045, 1047, 1111, 1046, 1112, 1111, 1047, 1048, 1112, 1047, 1113, 1112, 1048, 1114, 1048, 1049, 1114, 1113, 1048, 1115, 1049, 1050, 1115, 1114, 1049, 1051, 1115, 1050, 1116, 1115, 1051, 1117, 1051, 1052, 1117, 1116, 1051, 1118, 1052, 1053, 1118, 1117, 1052, 1054, 1118, 1053, 1119, 1118, 1054, 1055, 1119, 1054, 1120, 1119, 1055, 1121, 1055, 1056, 1121, 1120, 1055, 1057, 1121, 1056, 1122, 1121, 1057, 1123, 1057, 1058, 1123, 1122, 1057, 1059, 1123, 1058, 1124, 1123, 1059, 1060, 1124, 1059, 1125, 1124, 1060, 1126, 1125, 1060, 1126, 1060, 1061, 1062, 1126, 1061, 1127, 1126, 1062, 1063, 1127, 1062, 1128, 1127, 1063, 1129, 1128, 1063, 1129, 1063, 1064, 1065, 1129, 1064, 1130, 1129, 1065, 1066, 1130, 1065, 1131, 1130, 1066, 1067, 1131, 1066, 1132, 1131, 1067, 1133, 1132, 1067, 1133, 1067, 1068, 1069, 1133, 1068, 1134, 1133, 1069, 1135, 1134, 1069, 1135, 1069, 1070, 1071, 1135, 1070, 1136, 1135, 1071, 1137, 1136, 1071, 1137, 1071, 1072, 1138, 1137, 1072, 1138, 1072, 1073, 1139, 1138, 1073, 1139, 1073, 1074, 1075, 1139, 1074, 1140, 1139, 1075, 1141, 1075, 1076, 1141, 1140, 1075, 1142, 1076, 1077, 1142, 1141, 1076, 1143, 1077, 1078, 1143, 1142, 1077, 1144, 1078, 1079, 1144, 1143, 1078, 1145, 1079, 1080, 1145, 1144, 1079, 1082, 1080, 1081, 1082, 1145, 1080, 1211, 1146, 1147, 1212, 1211, 1147, 1213, 1147, 1148, 1213, 1212, 1147, 1214, 1148, 1149, 1214, 1149, 1150, 1214, 1213, 1148, 1215, 1214, 1150, 1216, 1150, 1151, 1216, 1215, 1150, 1217, 1151, 1152, 1217, 1216, 1151, 1218, 1152, 1153, 1218, 1217, 1152, 1219, 1153, 1154, 1219, 1218, 1153, 1220, 1154, 1155, 1220, 1219, 1154, 1221, 1155, 1156, 1221, 1220, 1155, 1222, 1156, 1157, 1222, 1221, 1156, 1223, 1157, 1158, 1223, 1222, 1157, 1224, 1158, 1159, 1224, 1159, 1160, 1224, 1223, 1158, 1225, 1224, 1160, 1226, 1160, 1161, 1226, 1161, 1162, 1226, 1225, 1160, 1227, 1226, 1162, 1228, 1227, 1162, 1228, 1162, 1163, 1229, 1163, 1164, 1229, 1228, 1163, 1230, 1229, 1164, 1230, 1164, 1165, 1231, 1230, 1165, 1231, 1165, 1166, 1231, 1166, 1167, 1232, 1231, 1167, 1233, 1232, 1167, 1233, 1167, 1168, 1234, 1233, 1168, 1234, 1168, 1169, 1235, 1169, 1170, 1235, 1234, 1169, 1235, 1170, 1171, 1236, 1171, 1172, 1236, 1235, 1171, 1237, 1236, 1172, 1238, 1172, 1173, 1238, 1173, 1174, 1238, 1237, 1172, 1239, 1238, 1174, 1240, 1174, 1175, 1240, 1175, 1176, 1240, 1239, 1174, 1241, 1240, 1176, 1242, 1176, 1177, 1242, 1177, 1178, 1242, 1241, 1176, 1243, 1242, 1178, 1244, 1178, 1179, 1244, 1179, 1180, 1244, 1243, 1178, 1245, 1244, 1180, 1246, 1180, 1181, 1246, 1181, 1182, 1246, 1245, 1180, 1247, 1246, 1182, 1248, 1182, 1183, 1248, 1183, 1184, 1248, 1247, 1182, 1249, 1248, 1184, 1250, 1184, 1185, 1250, 1185, 1186, 1250, 1249, 1184, 1251, 1250, 1186, 1252, 1186, 1187, 1252, 1187, 1188, 1252, 1251, 1186, 1253, 1252, 1188, 1254, 1253, 1188, 1254, 1188, 1189, 1254, 1189, 1190, 1255, 1254, 1190, 1255, 1190, 1191, 1256, 1255, 1191, 1256, 1191, 1192, 1257, 1256, 1192, 1258, 1257, 1192, 1258, 1192, 1193, 1259, 1258, 1193, 1259, 1193, 1194, 1259, 1194, 1195, 1260, 1259, 1195, 1261, 1260, 1195, 1261, 1195, 1196, 1261, 1196, 1197, 1262, 1261, 1197, 1263, 1262, 1197, 1263, 1197, 1198, 1263, 1198, 1199, 1264, 1263, 1199, 1265, 1264, 1199, 1265, 1199, 1200, 1265, 1200, 1201, 1266, 1265, 1201, 1267, 1201, 1202, 1267, 1266, 1201, 1267, 1202, 1203, 1268, 1267, 1203, 1269, 1268, 1203, 1269, 1203, 1204, 1270, 1204, 1205, 1270, 1205, 1206, 1270, 1269, 1204, 1271, 1270, 1206, 1272, 1206, 1207, 1272, 1207, 1208, 1272, 1271, 1206, 1273, 1208, 1209, 1273, 1272, 1208, 1210, 1273, 1209, 1392, 1330, 1329, 1393, 1330, 1392, 1391, 1392, 1329, 1391, 1329, 1328, 1394, 1330, 1393, 1394, 1331, 1330, 1394, 1332, 1331, 1390, 1391, 1328, 1390, 1327, 1326, 1390, 1328, 1327, 1395, 1332, 1394, 1389, 1390, 1326, 1396, 1333, 1332, 1396, 1332, 1395, 1388, 1326, 1325, 1388, 1389, 1326, 1397, 1334, 1333, 1397, 1333, 1396, 1387, 1388, 1325, 1387, 1325, 1324, 1398, 1335, 1334, 1398, 1334, 1397, 1336, 1335, 1398, 1386, 1324, 1323, 1386, 1387, 1324, 1399, 1336, 1398, 1385, 1323, 1322, 1385, 1386, 1323, 1337, 1274, 1336, 1337, 1336, 1399, 1384, 1322, 1321, 1384, 1385, 1322, 1320, 1384, 1321, 1338, 1275, 1274, 1338, 1274, 1337, 1383, 1384, 1320, 1339, 1276, 1275, 1339, 1275, 1338, 1382, 1320, 1319, 1382, 1383, 1320, 1277, 1276, 1339, 1318, 1382, 1319, 1340, 1277, 1339, 1381, 1382, 1318, 1278, 1277, 1340, 1341, 1278, 1340, 1380, 1381, 1318, 1380, 1318, 1317, 1342, 1279, 1278, 1342, 1278, 1341, 1379, 1380, 1317, 1379, 1317, 1316, 1280, 1279, 1342, 1343, 1280, 1342, 1315, 1379, 1316, 1378, 1379, 1315, 1281, 1280, 1343, 1344, 1281, 1343, 1377, 1315, 1314, 1377, 1378, 1315, 1282, 1281, 1344, 1282, 1344, 1345, 1313, 1376, 1377, 1313, 1377, 1314, 1346, 1282, 1345, 1283, 1282, 1346, 1375, 1376, 1313, 1312, 1375, 1313, 1347, 1283, 1346, 1284, 1283, 1347, 1311, 1374, 1375, 1311, 1375, 1312, 1285, 1284, 1347, 1285, 1347, 1348, 1373, 1374, 1311, 1310, 1373, 1311, 1286, 1348, 1349, 1286, 1285, 1348, 1309, 1373, 1310, 1309, 1372, 1373, 1287, 1349, 1350, 1287, 1286, 1349, 1308, 1372, 1309, 1308, 1371, 1372, 1351, 1287, 1350, 1370, 1371, 1308, 1288, 1287, 1351, 1307, 1370, 1308, 1369, 1370, 1307, 1289, 1288, 1351, 1289, 1351, 1352, 1306, 1369, 1307, 1290, 1352, 1353, 1290, 1289, 1352, 1305, 1369, 1306, 1305, 1368, 1369, 1291, 1290, 1353, 1291, 1353, 1354, 1304, 1368, 1305, 1304, 1366, 1367, 1304, 1367, 1368, 1292, 1291, 1354, 1292, 1354, 1355, 1303, 1366, 1304, 1293, 1292, 1355, 1293, 1355, 1356, 1302, 1366, 1303, 1302, 1365, 1366, 1294, 1293, 1356, 1294, 1356, 1357, 1294, 1357, 1358, 1301, 1365, 1302, 1301, 1364, 1365, 1295, 1294, 1358, 1300, 1364, 1301, 1300, 1363, 1364, 1296, 1295, 1358, 1296, 1358, 1359, 1296, 1359, 1360, 1299, 1363, 1300, 1299, 1362, 1363, 1297, 1296, 1360, 1298, 1362, 1299, 1298, 1297, 1360, 1298, 1360, 1361, 1298, 1361, 1362, 1466, 1400, 1401, 1466, 1401, 1402, 1466, 1465, 1400, 1467, 1402, 1403, 1467, 1466, 1402, 1468, 1467, 1403, 1469, 1403, 1404, 1469, 1468, 1403, 1470, 1404, 1405, 1470, 1405, 1406, 1470, 1469, 1404, 1471, 1470, 1406, 1472, 1406, 1407, 1472, 1407, 1408, 1472, 1471, 1406, 1473, 1472, 1408, 1474, 1408, 1409, 1474, 1473, 1408, 1475, 1409, 1410, 1475, 1474, 1409, 1476, 1410, 1411, 1476, 1475, 1410, 1477, 1411, 1412, 1477, 1476, 1411, 1478, 1412, 1413, 1478, 1477, 1412, 1479, 1413, 1414, 1479, 1414, 1415, 1479, 1478, 1413, 1480, 1479, 1415, 1481, 1415, 1416, 1481, 1480, 1415, 1482, 1416, 1417, 1482, 1417, 1418, 1482, 1481, 1416, 1483, 1482, 1418, 1484, 1483, 1418, 1484, 1418, 1419, 1485, 1484, 1419, 1485, 1419, 1420, 1485, 1420, 1421, 1486, 1485, 1421, 1487, 1486, 1421, 1487, 1421, 1422, 1488, 1422, 1423, 1488, 1487, 1422, 1489, 1423, 1424, 1489, 1424, 1425, 1489, 1488, 1423, 1490, 1425, 1426, 1490, 1489, 1425, 1491, 1490, 1426, 1492, 1426, 1427, 1492, 1491, 1426, 1493, 1427, 1428, 1493, 1492, 1427, 1494, 1428, 1429, 1494, 1493, 1428, 1495, 1429, 1430, 1495, 1430, 1431, 1495, 1494, 1429, 1496, 1495, 1431, 1497, 1431, 1432, 1497, 1432, 1433, 1497, 1496, 1431, 1498, 1497, 1433, 1499, 1433, 1434, 1499, 1498, 1433, 1500, 1434, 1435, 1500, 1499, 1434, 1501, 1435, 1436, 1501, 1500, 1435, 1502, 1436, 1437, 1502, 1501, 1436, 1503, 1437, 1438, 1503, 1438, 1439, 1503, 1502, 1437, 1504, 1503, 1439, 1505, 1439, 1440, 1505, 1440, 1441, 1505, 1504, 1439, 1506, 1505, 1441, 1507, 1441, 1442, 1507, 1506, 1441, 1508, 1507, 1442, 1508, 1442, 1443, 1509, 1508, 1443, 1509, 1443, 1444, 1510, 1509, 1444, 1510, 1444, 1445, 1511, 1510, 1445, 1511, 1445, 1446, 1512, 1511, 1446, 1512, 1446, 1447, 1512, 1447, 1448, 1513, 1512, 1448, 1513, 1448, 1449, 1514, 1513, 1449, 1515, 1514, 1449, 1515, 1449, 1450, 1516, 1515, 1450, 1516, 1450, 1451, 1517, 1516, 1451, 1517, 1451, 1452, 1518, 1517, 1452, 1518, 1452, 1453, 1519, 1518, 1453, 1519, 1453, 1454, 1519, 1454, 1455, 1520, 1519, 1455, 1521, 1455, 1456, 1521, 1520, 1455, 1522, 1456, 1457, 1522, 1521, 1456, 1523, 1457, 1458, 1523, 1458, 1459, 1523, 1522, 1457, 1524, 1523, 1459, 1525, 1459, 1460, 1525, 1524, 1459, 1526, 1460, 1461, 1526, 1461, 1462, 1526, 1525, 1460, 1527, 1526, 1462, 1464, 1462, 1463, 1464, 1527, 1462, 1594, 1528, 1529, 1594, 1593, 1528, 1595, 1529, 1530, 1595, 1594, 1529, 1596, 1530, 1531, 1596, 1595, 1530, 1532, 1596, 1531, 1597, 1596, 1532, 1598, 1532, 1533, 1598, 1597, 1532, 1599, 1533, 1534, 1599, 1598, 1533, 1600, 1534, 1535, 1600, 1599, 1534, 1601, 1535, 1536, 1601, 1600, 1535, 1602, 1536, 1537, 1602, 1601, 1536, 1603, 1537, 1538, 1603, 1602, 1537, 1604, 1538, 1539, 1604, 1603, 1538, 1605, 1539, 1540, 1605, 1604, 1539, 1606, 1540, 1541, 1606, 1605, 1540, 1542, 1606, 1541, 1607, 1606, 1542, 1608, 1542, 1543, 1608, 1607, 1542, 1609, 1543, 1544, 1609, 1608, 1543, 1610, 1544, 1545, 1610, 1609, 1544, 1611, 1545, 1546, 1611, 1610, 1545, 1547, 1611, 1546, 1612, 1611, 1547, 1548, 1612, 1547, 1613, 1612, 1548, 1614, 1613, 1548, 1614, 1548, 1549, 1615, 1614, 1549, 1615, 1549, 1550, 1551, 1615, 1550, 1616, 1615, 1551, 1617, 1551, 1552, 1617, 1616, 1551, 1553, 1617, 1552, 1618, 1617, 1553, 1619, 1553, 1554, 1619, 1618, 1553, 1620, 1554, 1555, 1620, 1619, 1554, 1621, 1555, 1556, 1621, 1620, 1555, 1622, 1556, 1557, 1622, 1621, 1556, 1623, 1557, 1558, 1623, 1622, 1557, 1624, 1558, 1559, 1624, 1623, 1558, 1625, 1559, 1560, 1625, 1624, 1559, 1561, 1625, 1560, 1626, 1625, 1561, 1627, 1561, 1562, 1627, 1626, 1561, 1628, 1562, 1563, 1628, 1627, 1562, 1629, 1563, 1564, 1629, 1628, 1563, 1630, 1564, 1565, 1630, 1629, 1564, 1631, 1565, 1566, 1631, 1630, 1565, 1632, 1566, 1567, 1632, 1631, 1566, 1633, 1567, 1568, 1633, 1632, 1567, 1634, 1568, 1569, 1634, 1633, 1568, 1635, 1569, 1570, 1635, 1634, 1569, 1636, 1635, 1570, 1636, 1570, 1571, 1637, 1571, 1572, 1637, 1636, 1571, 1638, 1637, 1572, 1638, 1572, 1573, 1639, 1638, 1573, 1639, 1573, 1574, 1640, 1639, 1574, 1640, 1574, 1575, 1641, 1640, 1575, 1641, 1575, 1576, 1642, 1641, 1576, 1642, 1576, 1577, 1643, 1642, 1577, 1643, 1577, 1578, 1644, 1643, 1578, 1644, 1578, 1579, 1645, 1644, 1579, 1645, 1579, 1580, 1646, 1645, 1580, 1646, 1580, 1581, 1647, 1646, 1581, 1647, 1581, 1582, 1648, 1647, 1582, 1648, 1582, 1583, 1649, 1648, 1583, 1649, 1583, 1584, 1650, 1649, 1584, 1650, 1584, 1585, 1651, 1585, 1586, 1651, 1650, 1585, 1652, 1586, 1587, 1652, 1651, 1586, 1653, 1587, 1588, 1653, 1652, 1587, 1654, 1588, 1589, 1654, 1653, 1588, 1655, 1589, 1590, 1655, 1654, 1589, 1592, 1590, 1591, 1592, 1655, 1590, 1775, 1711, 1774, 1775, 1712, 1711, 1773, 1774, 1711, 1773, 1711, 1710, 1776, 1712, 1775, 1776, 1713, 1712, 1772, 1710, 1709, 1772, 1773, 1710, 1777, 1713, 1776, 1777, 1714, 1713, 1771, 1709, 1708, 1771, 1772, 1709, 1778, 1714, 1777, 1778, 1715, 1714, 1770, 1771, 1708, 1770, 1708, 1707, 1779, 1715, 1778, 1779, 1716, 1715, 1769, 1707, 1706, 1769, 1770, 1707, 1780, 1717, 1716, 1780, 1716, 1779, 1768, 1769, 1706, 1768, 1706, 1705, 1781, 1718, 1717, 1781, 1717, 1780, 1767, 1705, 1704, 1767, 1768, 1705, 1719, 1657, 1656, 1719, 1656, 1718, 1719, 1718, 1781, 1766, 1704, 1703, 1766, 1767, 1704, 1720, 1657, 1719, 1765, 1703, 1702, 1765, 1766, 1703, 1721, 1658, 1657, 1721, 1659, 1658, 1721, 1657, 1720, 1764, 1765, 1702, 1764, 1702, 1701, 1722, 1659, 1721, 1763, 1764, 1701, 1763, 1701, 1700, 1723, 1660, 1659, 1723, 1659, 1722, 1762, 1700, 1699, 1762, 1763, 1700, 1698, 1762, 1699, 1724, 1661, 1660, 1724, 1660, 1723, 1761, 1762, 1698, 1697, 1761, 1698, 1725, 1662, 1661, 1725, 1661, 1724, 1760, 1761, 1697, 1726, 1663, 1662, 1726, 1662, 1725, 1759, 1760, 1697, 1759, 1697, 1696, 1727, 1663, 1726, 1664, 1663, 1727, 1758, 1759, 1696, 1695, 1758, 1696, 1665, 1664, 1727, 1665, 1727, 1728, 1694, 1757, 1758, 1694, 1758, 1695, 1756, 1757, 1694, 1666, 1665, 1728, 1666, 1728, 1729, 1693, 1756, 1694, 1667, 1729, 1730, 1667, 1666, 1729, 1731, 1667, 1730, 1692, 1756, 1693, 1692, 1755, 1756, 1754, 1755, 1692, 1668, 1667, 1731, 1691, 1754, 1692, 1669, 1731, 1732, 1669, 1732, 1733, 1669, 1668, 1731, 1690, 1754, 1691, 1690, 1753, 1754, 1670, 1669, 1733, 1689, 1753, 1690, 1689, 1751, 1752, 1689, 1752, 1753, 1671, 1670, 1733, 1671, 1733, 1734, 1688, 1751, 1689, 1672, 1671, 1734, 1672, 1734, 1735, 1687, 1751, 1688, 1687, 1750, 1751, 1673, 1672, 1735, 1673, 1735, 1736, 1686, 1750, 1687, 1686, 1749, 1750, 1674, 1673, 1736, 1674, 1736, 1737, 1685, 1749, 1686, 1685, 1748, 1749, 1675, 1674, 1737, 1675, 1737, 1738, 1675, 1738, 1739, 1684, 1748, 1685, 1684, 1747, 1748, 1676, 1675, 1739, 1676, 1739, 1740, 1683, 1747, 1684, 1683, 1746, 1747, 1677, 1676, 1740, 1682, 1746, 1683, 1682, 1744, 1745, 1682, 1745, 1746, 1678, 1677, 1740, 1678, 1740, 1741, 1681, 1744, 1682, 1681, 1743, 1744, 1679, 1678, 1741, 1679, 1741, 1742, 1679, 1742, 1743, 1680, 1743, 1681, 1680, 1679, 1743]
        point3f[] points = [(0.0000, 19.5000, 0.0000), (0.0000, 19.4031, 1.9416), (0.0000, 19.1134, 3.8638), (0.0000, 18.6337, 5.7477), (0.0000, 17.9688, 7.5745), (0.0000, 17.1253, 9.3260), (0.0000, 16.1117, 10.9847), (0.0000, 14.9379, 12.5344), (0.0000, 13.6156, 13.9594), (0.0000, 12.1581, 15.2457), (0.0000, 10.5797, 16.3805), (0.0000, 8.8961, 17.3525), (0.0000, 7.1241, 18.1520), (0.0000, 5.2814, 18.7712), (0.0000, 3.3861, 19.2038), (0.0000, 1.4572, 19.4455), (0.0000, -0.4861, 19.4939), (0.0000, -2.4247, 19.3487), (0.0000, -4.3392, 19.0111), (0.0000, -6.2105, 18.4846), (0.0000, -8.0201, 17.7744), (0.0000, -9.7500, 16.8875), (0.0000, -11.3830, 15.8328), (0.0000, -12.9029, 14.6207), (0.0000, -14.2945, 13.2634), (0.0000, -15.5441, 11.7742), (0.0000, -16.6392, 10.1680), (0.0000, -17.5689, 8.4607), (0.0000, -18.3240, 6.6694), (0.0000, -18.8970, 4.8118), (0.0000, -19.2822, 2.9063), (0.0000, -19.4758, 0.9720), (0.0000, -19.4758, -0.9720), (0.0000, -19.2822, -2.9063), (0.0000, -18.8970, -4.8118), (0.0000, -18.3240, -6.6694), (0.0000, -17.5689, -8.4607), (0.0000, -16.6392, -10.1680), (0.0000, -15.5441, -11.7742), (0.0000, -14.2945, -13.2634), (0.0000, -12.9029, -14.6207), (0.0000, -11.3830, -15.8328), (0.0000, -9.7500, -16.8875), (0.0000, -8.0201, -17.7744), (0.0000, -6.2105, -18.4846), (0.0000, -4.3392, -19.0111), (0.0000, -2.4247, -19.3487), (0.0000, -0.4861, -19.4939), (0.0000, 1.4572, -19.4455), (0.0000, 3.3861, -19.2038), (0.0000, 5.2814, -18.7712), (0.0000, 7.1241, -18.1520), (0.0000, 8.8961, -17.3525), (0.0000, 10.5797, -16.3805), (0.0000, 12.1581, -15.2457), (0.0000, 13.6156, -13.9594), (0.0000, 14.9379, -12.5344), (0.0000, 16.1117, -10.9847), (0.0000, 17.1253, -9.3260), (0.0000, 17.9688, -7.5745), (0.0000, 18.6337, -5.7477), (0.0000, 19.1134, -3.8638), (0.0000, 19.4031, -1.9416), (0.0000, 19.5000, 0.0000), (0.5000, 20.0000, 0.0000), (0.5000, 20.0000, 0.0000), (0.5000, 19.9006, 1.9914), (0.5000, 19.6034, 3.9629), (0.5000, 19.1115, 5.8951), (0.5000, 18.4295, 7.7687), (0.5000, 17.5644, 9.5651), (0.5000, 16.5248, 11.2664), (0.5000, 15.3209, 12.8558), (0.5000, 13.9647, 14.3173), (0.5000, 12.4698, 15.6366), (0.5000, 10.8509, 16.8005), (0.5000, 9.1242, 17.7974), (0.5000, 7.3068, 18.6175), (0.5000, 5.4168, 19.2525), (0.5000, 3.4730, 19.6962), (0.5000, 1.4946, 19.9441), (0.5000, -0.4986, 19.9938), (0.5000, -2.4869, 19.8448), (0.5000, -4.4504, 19.4986), (0.5000, -6.3697, 18.9585), (0.5000, -8.2257, 18.2301), (0.5000, -10.0000, 17.3205), (0.5000, -11.6749, 16.2388), (0.5000, -13.2337, 14.9956), (0.5000, -14.6610, 13.6035), (0.5000, -15.9427, 12.0761), (0.5000, -17.0658, 10.4287), (0.5000, -18.0194, 8.6777), (0.5000, -18.7939, 6.8404), (0.5000, -19.3815, 4.9351), (0.5000, -19.7766, 2.9808), (0.5000, -19.9751, 0.9969), (0.5000, -19.9751, -0.9969), (0.5000, -19.7766, -2.9808), (0.5000, -19.3815, -4.9351), (0.5000, -18.7939, -6.8404), (0.5000, -18.0194, -8.6777), (0.5000, -17.0658, -10.4287), (0.5000, -15.9427, -12.0761), (0.5000, -14.6610, -13.6035), (0.5000, -13.2337, -14.9956), (0.5000, -11.6749, -16.2388), (0.5000, -10.0000, -17.3205), (0.5000, -8.2257, -18.2301), (0.5000, -6.3697, -18.9585), (0.5000, -4.4504, -19.4986), (0.5000, -2.4869, -19.8448), (0.5000, -0.4986, -19.9938), (0.5000, 1.4946, -19.9441), (0.5000, 3.4730, -19.6962), (0.5000, 5.4168, -19.2525), (0.5000, 7.3068, -18.6175), (0.5000, 9.1242, -17.7974), (0.5000, 10.8509, -16.8005), (0.5000, 12.4698, -15.6366), (0.5000, 13.9647, -14.3173), (0.5000, 15.3209, -12.8558), (0.5000, 16.5248, -11.2664), (0.5000, 17.5644, -9.5651), (0.5000, 18.4295, -7.7687), (0.5000, 19.1115, -5.8951), (0.5000, 19.6034, -3.9629), (0.5000, 19.9006, -1.9914), (0.5000, 20.0000, 0.0000), (0.5000, 19.9006, 1.9914), (0.5000, 19.6034, 3.9629), (0.5000, 19.1115, 5.8951), (0.5000, 18.4295, 7.7687), (0.5000, 17.5644, 9.5651), (0.5000, 16.5248, 11.2664), (0.5000, 15.3209, 12.8558), (0.5000, 13.9647, 14.3173), (0.5000, 12.4698, 15.6366), (0.5000, 10.8509, 16.8005), (0.5000, 9.1242, 17.7974), (0.5000, 7.3068, 18.6175), (0.5000, 5.4168, 19.2525), (0.5000, 3.4730, 19.6962), (0.5000, 1.4946, 19.9441), (0.5000, -0.4986, 19.9938), (0.5000, -2.4869, 19.8448), (0.5000, -4.4504, 19.4986), (0.5000, -6.3697, 18.9585), (0.5000, -8.2257, 18.2301), (0.5000, -10.0000, 17.3205), (0.5000, -11.6749, 16.2388), (0.5000, -13.2337, 14.9956), (0.5000, -14.6610, 13.6035), (0.5000, -15.9427, 12.0761), (0.5000, -17.0658, 10.4287), (0.5000, -18.0194, 8.6777), (0.5000, -18.7939, 6.8404), (0.5000, -19.3815, 4.9351), (0.5000, -19.7766, 2.9808), (0.5000, -19.9751, 0.9969), (0.5000, -19.9751, -0.9969), (0.5000, -19.7766, -2.9808), (0.5000, -19.3815, -4.9351), (0.5000, -18.7939, -6.8404), (0.5000, -18.0194, -8.6777), (0.5000, -17.0658, -10.4287), (0.5000, -15.9427, -12.0761), (0.5000, -14.6610, -13.6035), (0.5000, -13.2337, -14.9956), (0.5000, -11.6749, -16.2388), (0.5000, -10.0000, -17.3205), (0.5000, -8.2257, -18.2301), (0.5000, -6.3697, -18.9585), (0.5000, -4.4504, -19.4986), (0.5000, -2.4869, -19.8448), (0.5000, -0.4986, -19.9938), (0.5000, 1.4946, -19.9441), (0.5000, 3.4730, -19.6962), (0.5000, 5.4168, -19.2525), (0.5000, 7.3068, -18.6175), (0.5000, 9.1242, -17.7974), (0.5000, 10.8509, -16.8005), (0.5000, 12.4698, -15.6366), (0.5000, 13.9647, -14.3173), (0.5000, 15.3209, -12.8558), (0.5000, 16.5248, -11.2664), (0.5000, 17.5644, -9.5651), (0.5000, 18.4295, -7.7687), (0.5000, 19.1115, -5.8951), (0.5000, 19.6034, -3.9629), (0.5000, 19.9006, -1.9914), (0.5000, 20.0000, 0.0000), (15.0000, 20.0000, 0.0000), (15.0000, 20.0000, 0.0000), (15.0000, 19.9006, 1.9914), (15.0000, 19.6034, 3.9629), (15.0000, 19.1115, 5.8951), (15.0000, 18.4295, 7.7687), (15.0000, 17.5644, 9.5651), (15.0000, 16.5248, 11.2664), (15.0000, 15.3209, 12.8558), (15.0000, 13.9647, 14.3173), (15.0000, 12.4698, 15.6366), (15.0000, 10.8509, 16.8005), (15.0000, 9.1242, 17.7974), (15.0000, 7.3068, 18.6175), (15.0000, 5.4168, 19.2525), (15.0000, 3.4730, 19.6962), (15.0000, 1.4946, 19.9441), (15.0000, -0.4986, 19.9938), (15.0000, -2.4869, 19.8448), (15.0000, -4.4504, 19.4986), (15.0000, -6.3697, 18.9585), (15.0000, -8.2257, 18.2301), (15.0000, -10.0000, 17.3205), (15.0000, -11.6749, 16.2388), (15.0000, -13.2337, 14.9956), (15.0000, -14.6610, 13.6035), (15.0000, -15.9427, 12.0761), (15.0000, -17.0658, 10.4287), (15.0000, -18.0194, 8.6777), (15.0000, -18.7939, 6.8404), (15.0000, -19.3815, 4.9351), (15.0000, -19.7766, 2.9808), (15.0000, -19.9751, 0.9969), (15.0000, -19.9751, -0.9969), (15.0000, -19.7766, -2.9808), (15.0000, -19.3815, -4.9351), (15.0000, -18.7939, -6.8404), (15.0000, -18.0194, -8.6777), (15.0000, -17.0658, -10.4287), (15.0000, -15.9427, -12.0761), (15.0000, -14.6610, -13.6035), (15.0000, -13.2337, -14.9956), (15.0000, -11.6749, -16.2388), (15.0000, -10.0000, -17.3205), (15.0000, -8.2257, -18.2301), (15.0000, -6.3697, -18.9585), (15.0000, -4.4504, -19.4986), (15.0000, -2.4869, -19.8448), (15.0000, -0.4986, -19.9938), (15.0000, 1.4946, -19.9441), (15.0000, 3.4730, -19.6962), (15.0000, 5.4168, -19.2525), (15.0000, 7.3068, -18.6175), (15.0000, 9.1242, -17.7974), (15.0000, 10.8509, -16.8005), (15.0000, 12.4698, -15.6366), (15.0000, 13.9647, -14.3173), (15.0000, 15.3209, -12.8558), (15.0000, 16.5248, -11.2664), (15.0000, 17.5644, -9.5651), (15.0000, 18.4295, -7.7687), (15.0000, 19.1115, -5.8951), (15.0000, 19.6034, -3.9629), (15.0000, 19.9006, -1.9914), (15.0000, 20.0000, 0.0000), (15.0000, 19.9006, 1.9914), (15.0000, 19.6034, 3.9629), (15.0000, 19.1115, 5.8951), (15.0000, 18.4295, 7.7687), (15.0000, 17.5644, 9.5651), (15.0000, 16.5248, 11.2664), (15.0000, 15.3209, 12.8558), (15.0000, 13.9647, 14.3173), (15.0000, 12.4698, 15.6366), (15.0000, 10.8509, 16.8005), (15.0000, 9.1242, 17.7974), (15.0000, 7.3068, 18.6175), (15.0000, 5.4168, 19.2525), (15.0000, 3.4730, 19.6962), (15.0000, 1.4946, 19.9441), (15.0000, -0.4986, 19.9938), (15.0000, -2.4869, 19.8448), (15.0000, -4.4504, 19.4986), (15.0000, -6.3697, 18.9585), (15.0000, -8.2257, 18.2301), (15.0000, -10.0000, 17.3205), (15.0000, -11.6749, 16.2388), (15.0000, -13.2337, 14.9956), (15.0000, -14.6610, 13.6035), (15.0000, -15.9427, 12.0761), (15.0000, -17.0658, 10.4287), (15.0000, -18.0194, 8.6777), (15.0000, -18.7939, 6.8404), (15.0000, -19.3815, 4.9351), (15.0000, -19.7766, 2.9808), (15.0000, -19.9751, 0.9969), (15.0000, -19.9751, -0.9969), (15.0000, -19.7766, -2.9808), (15.0000, -19.3815, -4.9351), (15.0000, -18.7939, -6.8404), (15.0000, -18.0194, -8.6777), (15.0000, -17.0658, -10.4287), (15.0000, -15.9427, -12.0761), (15.0000, -14.6610, -13.6035), (15.0000, -13.2337, -14.9956), (15.0000, -11.6749, -16.2388), (15.0000, -10.0000, -17.3205), (15.0000, -8.2257, -18.2301), (15.0000, -6.3697, -18.9585), (15.0000, -4.4504, -19.4986), (15.0000, -2.4869, -19.8448), (15.0000, -0.4986, -19.9938), (15.0000, 1.4946, -19.9441), (15.0000, 3.4730, -19.6962), (15.0000, 5.4168, -19.2525), (15.0000, 7.3068, -18.6175), (15.0000, 9.1242, -17.7974), (15.0000, 10.8509, -16.8005), (15.0000, 12.4698, -15.6366), (15.0000, 13.9647, -14.3173), (15.0000, 15.3209, -12.8558), (15.0000, 16.5248, -11.2664), (15.0000, 17.5644, -9.5651), (15.0000, 18.4295, -7.7687), (15.0000, 19.1115, -5.8951), (15.0000, 19.6034, -3.9629), (15.0000, 19.9006, -1.9914), (15.0000, 18.1000, 0.0000), (15.0000, 18.0101, 1.8022), (15.0000, 17.7411, 3.5864), (15.0000, 17.2959, 5.3351), (15.0000, 16.6787, 7.0307), (15.0000, 15.8958, 8.6564), (15.0000, 14.9549, 10.1961), (15.0000, 13.8654, 11.6345), (15.0000, 12.6381, 12.9572), (15.0000, 11.2852, 14.1511), (15.0000, 9.8201, 15.2045), (15.0000, 8.2574, 16.1067), (15.0000, 6.6127, 16.8488), (15.0000, 4.9022, 17.4235), (15.0000, 3.1430, 17.8250), (15.0000, 1.3526, 18.0494), (15.0000, -0.4512, 18.0944), (15.0000, -2.2506, 17.9595), (15.0000, -4.0276, 17.6462), (15.0000, -5.7646, 17.1575), (15.0000, -7.4443, 16.4983), (15.0000, -9.0500, 15.6751), (15.0000, -10.5658, 14.6961), (15.0000, -11.9765, 13.5710), (15.0000, -13.2682, 12.3111), (15.0000, -14.4281, 10.9289), (15.0000, -15.4446, 9.4380), (15.0000, -16.3075, 7.8533), (15.0000, -17.0084, 6.1906), (15.0000, -17.5403, 4.4663), (15.0000, -17.8978, 2.6977), (15.0000, -18.0775, 0.9022), (15.0000, -18.0775, -0.9022), (15.0000, -17.8978, -2.6977), (15.0000, -17.5403, -4.4663), (15.0000, -17.0084, -6.1906), (15.0000, -16.3075, -7.8533), (15.0000, -15.4446, -9.4380), (15.0000, -14.4281, -10.9289), (15.0000, -13.2682, -12.3111), (15.0000, -11.9765, -13.5710), (15.0000, -10.5658, -14.6961), (15.0000, -9.0500, -15.6751), (15.0000, -7.4443, -16.4983), (15.0000, -5.7646, -17.1575), (15.0000, -4.0276, -17.6462), (15.0000, -2.2506, -17.9595), (15.0000, -0.4512, -18.0944), (15.0000, 1.3526, -18.0494), (15.0000, 3.1430, -17.8250), (15.0000, 4.9022, -17.4235), (15.0000, 6.6127, -16.8488), (15.0000, 8.2574, -16.1067), (15.0000, 9.8201, -15.2045), (15.0000, 11.2852, -14.1511), (15.0000, 12.6381, -12.9572), (15.0000, 13.8654, -11.6345), (15.0000, 14.9549, -10.1961), (15.0000, 15.8958, -8.6564), (15.0000, 16.6787, -7.0307), (15.0000, 17.2959, -5.3351), (15.0000, 17.7411, -3.5864), (15.0000, 18.0101, -1.8022), (15.0000, 18.1000, 0.0000), (15.0000, 18.0101, 1.8022), (15.0000, 17.7411, 3.5864), (15.0000, 17.2959, 5.3351), (15.0000, 16.6787, 7.0307), (15.0000, 15.8958, 8.6564), (15.0000, 14.9549, 10.1961), (15.0000, 13.8654, 11.6345), (15.0000, 12.6381, 12.9572), (15.0000, 11.2852, 14.1511), (15.0000, 9.8201, 15.2045), (15.0000, 8.2574, 16.1067), (15.0000, 6.6127, 16.8488), (15.0000, 4.9022, 17.4235), (15.0000, 3.1430, 17.8250), (15.0000, 1.3526, 18.0494), (15.0000, -0.4512, 18.0944), (15.0000, -2.2506, 17.9595), (15.0000, -4.0276, 17.6462), (15.0000, -5.7646, 17.1575), (15.0000, -7.4443, 16.4983), (15.0000, -9.0500, 15.6751), (15.0000, -10.5658, 14.6961), (15.0000, -11.9765, 13.5710), (15.0000, -13.2682, 12.3111), (15.0000, -14.4281, 10.9289), (15.0000, -15.4446, 9.4380), (15.0000, -16.3075, 7.8533), (15.0000, -17.0084, 6.1906), (15.0000, -17.5403, 4.4663), (15.0000, -17.8978, 2.6977), (15.0000, -18.0775, 0.9022), (15.0000, -18.0775, -0.9022), (15.0000, -17.8978, -2.6977), (15.0000, -17.5403, -4.4663), (15.0000, -17.0084, -6.1906), (15.0000, -16.3075, -7.8533), (15.0000, -15.4446, -9.4380), (15.0000, -14.4281, -10.9289), (15.0000, -13.2682, -12.3111), (15.0000, -11.9765, -13.5710), (15.0000, -10.5658, -14.6961), (15.0000, -9.0500, -15.6751), (15.0000, -7.4443, -16.4983), (15.0000, -5.7646, -17.1575), (15.0000, -4.0276, -17.6462), (15.0000, -2.2506, -17.9595), (15.0000, -0.4512, -18.0944), (15.0000, 1.3526, -18.0494), (15.0000, 3.1430, -17.8250), (15.0000, 4.9022, -17.4235), (15.0000, 6.6127, -16.8488), (15.0000, 8.2574, -16.1067), (15.0000, 9.8201, -15.2045), (15.0000, 11.2852, -14.1511), (15.0000, 12.6381, -12.9572), (15.0000, 13.8654, -11.6345), (15.0000, 14.9549, -10.1961), (15.0000, 15.8958, -8.6564), (15.0000, 16.6787, -7.0307), (15.0000, 17.2959, -5.3351), (15.0000, 17.7411, -3.5864), (15.0000, 18.0101, -1.8022), (15.0000, 18.1000, 0.0000), (17.4000, 18.1000, 0.0000), (17.4000, 18.1000, 0.0000), (17.4000, 18.0101, 1.8022), (17.4000, 17.7411, 3.5864), (17.4000, 17.2959, 5.3351), (17.4000, 16.6787, 7.0307), (17.4000, 15.8958, 8.6564), (17.4000, 14.9549, 10.1961), (17.4000, 13.8654, 11.6345), (17.4000, 12.6381, 12.9572), (17.4000, 11.2852, 14.1511), (17.4000, 9.8201, 15.2045), (17.4000, 8.2574, 16.1067), (17.4000, 6.6127, 16.8488), (17.4000, 4.9022, 17.4235), (17.4000, 3.1430, 17.8250), (17.4000, 1.3526, 18.0494), (17.4000, -0.4512, 18.0944), (17.4000, -2.2506, 17.9595), (17.4000, -4.0276, 17.6462), (17.4000, -5.7646, 17.1575), (17.4000, -7.4443, 16.4983), (17.4000, -9.0500, 15.6751), (17.4000, -10.5658, 14.6961), (17.4000, -11.9765, 13.5710), (17.4000, -13.2682, 12.3111), (17.4000, -14.4281, 10.9289), (17.4000, -15.4446, 9.4380), (17.4000, -16.3075, 7.8533), (17.4000, -17.0084, 6.1906), (17.4000, -17.5403, 4.4663), (17.4000, -17.8978, 2.6977), (17.4000, -18.0775, 0.9022), (17.4000, -18.0775, -0.9022), (17.4000, -17.8978, -2.6977), (17.4000, -17.5403, -4.4663), (17.4000, -17.0084, -6.1906), (17.4000, -16.3075, -7.8533), (17.4000, -15.4446, -9.4380), (17.4000, -14.4281, -10.9289), (17.4000, -13.2682, -12.3111), (17.4000, -11.9765, -13.5710), (17.4000, -10.5658, -14.6961), (17.4000, -9.0500, -15.6751), (17.4000, -7.4443, -16.4983), (17.4000, -5.7646, -17.1575), (17.4000, -4.0276, -17.6462), (17.4000, -2.2506, -17.9595), (17.4000, -0.4512, -18.0944), (17.4000, 1.3526, -18.0494), (17.4000, 3.1430, -17.8250), (17.4000, 4.9022, -17.4235), (17.4000, 6.6127, -16.8488), (17.4000, 8.2574, -16.1067), (17.4000, 9.8201, -15.2045), (17.4000, 11.2852, -14.1511), (17.4000, 12.6381, -12.9572), (17.4000, 13.8654, -11.6345), (17.4000, 14.9549, -10.1961), (17.4000, 15.8958, -8.6564), (17.4000, 16.6787, -7.0307), (17.4000, 17.2959, -5.3351), (17.4000, 17.7411, -3.5864), (17.4000, 18.0101, -1.8022), (17.4000, 20.0000, 0.0000), (17.4000, 19.9006, 1.9914), (17.4000, 19.6034, 3.9629), (17.4000, 19.1115, 5.8951), (17.4000, 18.4295, 7.7687), (17.4000, 17.5644, 9.5651), (17.4000, 16.5248, 11.2664), (17.4000, 15.3209, 12.8558), (17.4000, 13.9647, 14.3173), (17.4000, 12.4698, 15.6366), (17.4000, 10.8509, 16.8005), (17.4000, 9.1242, 17.7974), (17.4000, 7.3068, 18.6175), (17.4000, 5.4168, 19.2525), (17.4000, 3.4730, 19.6962), (17.4000, 1.4946, 19.9441), (17.4000, -0.4986, 19.9938), (17.4000, -2.4869, 19.8448), (17.4000, -4.4504, 19.4986), (17.4000, -6.3697, 18.9585), (17.4000, -8.2257, 18.2301), (17.4000, -10.0000, 17.3205), (17.4000, -11.6749, 16.2388), (17.4000, -13.2337, 14.9956), (17.4000, -14.6610, 13.6035), (17.4000, -15.9427, 12.0761), (17.4000, -17.0658, 10.4287), (17.4000, -18.0194, 8.6777), (17.4000, -18.7939, 6.8404), (17.4000, -19.3815, 4.9351), (17.4000, -19.7766, 2.9808), (17.4000, -19.9751, 0.9969), (17.4000, -19.9751, -0.9969), (17.4000, -19.7766, -2.9808), (17.4000, -19.3815, -4.9351), (17.4000, -18.7939, -6.8404), (17.4000, -18.0194, -8.6777), (17.4000, -17.0658, -10.4287), (17.4000, -15.9427, -12.0761), (17.4000, -14.6610, -13.6035), (17.4000, -13.2337, -14.9956), (17.4000, -11.6749, -16.2388), (17.4000, -10.0000, -17.3205), (17.4000, -8.2257, -18.2301), (17.4000, -6.3697, -18.9585), (17.4000, -4.4504, -19.4986), (17.4000, -2.4869, -19.8448), (17.4000, -0.4986, -19.9938), (17.4000, 1.4946, -19.9441), (17.4000, 3.4730, -19.6962), (17.4000, 5.4168, -19.2525), (17.4000, 7.3068, -18.6175), (17.4000, 9.1242, -17.7974), (17.4000, 10.8509, -16.8005), (17.4000, 12.4698, -15.6366), (17.4000, 13.9647, -14.3173), (17.4000, 15.3209, -12.8558), (17.4000, 16.5248, -11.2664), (17.4000, 17.5644, -9.5651), (17.4000, 18.4295, -7.7687), (17.4000, 19.1115, -5.8951), (17.4000, 19.6034, -3.9629), (17.4000, 19.9006, -1.9914), (17.4000, 18.1000, 0.0000), (17.4000, 18.0101, 1.8022), (17.4000, 17.7411, 3.5864), (17.4000, 17.2959, 5.3351), (17.4000, 16.6787, 7.0307), (17.4000, 15.8958, 8.6564), (17.4000, 14.9549, 10.1961), (17.4000, 13.8654, 11.6345), (17.4000, 12.6381, 12.9572), (17.4000, 11.2852, 14.1511), (17.4000, 9.8201, 15.2045), (17.4000, 8.2574, 16.1067), (17.4000, 6.6127, 16.8488), (17.4000, 4.9022, 17.4235), (17.4000, 3.1430, 17.8250), (17.4000, 1.3526, 18.0494), (17.4000, -0.4512, 18.0944), (17.4000, -2.2506, 17.9595), (17.4000, -4.0276, 17.6462), (17.4000, -5.7646, 17.1575), (17.4000, -7.4443, 16.4983), (17.4000, -9.0500, 15.6751), (17.4000, -10.5658, 14.6961), (17.4000, -11.9765, 13.5710), (17.4000, -13.2682, 12.3111), (17.4000, -14.4281, 10.9289), (17.4000, -15.4446, 9.4380), (17.4000, -16.3075, 7.8533), (17.4000, -17.0084, 6.1906), (17.4000, -17.5403, 4.4663), (17.4000, -17.8978, 2.6977), (17.4000, -18.0775, 0.9022), (17.4000, -18.0775, -0.9022), (17.4000, -17.8978, -2.6977), (17.4000, -17.5403, -4.4663), (17.4000, -17.0084, -6.1906), (17.4000, -16.3075, -7.8533), (17.4000, -15.4446, -9.4380), (17.4000, -14.4281, -10.9289), (17.4000, -13.2682, -12.3111), (17.4000, -11.9765, -13.5710), (17.4000, -10.5658, -14.6961), (17.4000, -9.0500, -15.6751), (17.4000, -7.4443, -16.4983), (17.4000, -5.7646, -17.1575), (17.4000, -4.0276, -17.6462), (17.4000, -2.2506, -17.9595), (17.4000, -0.4512, -18.0944), (17.4000, 1.3526, -18.0494), (17.4000, 3.1430, -17.8250), (17.4000, 4.9022, -17.4235), (17.4000, 6.6127, -16.8488), (17.4000, 8.2574, -16.1067), (17.4000, 9.8201, -15.2045), (17.4000, 11.2852, -14.1511), (17.4000, 12.6381, -12.9572), (17.4000, 13.8654, -11.6345), (17.4000, 14.9549, -10.1961), (17.4000, 15.8958, -8.6564), (17.4000, 16.6787, -7.0307), (17.4000, 17.2959, -5.3351), (17.4000, 17.7411, -3.5864), (17.4000, 18.0101, -1.8022), (17.4000, 20.0000, 0.0000), (17.4000, 19.9006, 1.9914), (17.4000, 19.6034, 3.9629), (17.4000, 19.1115, 5.8951), (17.4000, 18.4295, 7.7687), (17.4000, 17.5644, 9.5651), (17.4000, 16.5248, 11.2664), (17.4000, 15.3209, 12.8558), (17.4000, 13.9647, 14.3173), (17.4000, 12.4698, 15.6366), (17.4000, 10.8509, 16.8005), (17.4000, 9.1242, 17.7974), (17.4000, 7.3068, 18.6175), (17.4000, 5.4168, 19.2525), (17.4000, 3.4730, 19.6962), (17.4000, 1.4946, 19.9441), (17.4000, -0.4986, 19.9938), (17.4000, -2.4869, 19.8448), (17.4000, -4.4504, 19.4986), (17.4000, -6.3697, 18.9585), (17.4000, -8.2257, 18.2301), (17.4000, -10.0000, 17.3205), (17.4000, -11.6749, 16.2388), (17.4000, -13.2337, 14.9956), (17.4000, -14.6610, 13.6035), (17.4000, -15.9427, 12.0761), (17.4000, -17.0658, 10.4287), (17.4000, -18.0194, 8.6777), (17.4000, -18.7939, 6.8404), (17.4000, -19.3815, 4.9351), (17.4000, -19.7766, 2.9808), (17.4000, -19.9751, 0.9969), (17.4000, -19.9751, -0.9969), (17.4000, -19.7766, -2.9808), (17.4000, -19.3815, -4.9351), (17.4000, -18.7939, -6.8404), (17.4000, -18.0194, -8.6777), (17.4000, -17.0658, -10.4287), (17.4000, -15.9427, -12.0761), (17.4000, -14.6610, -13.6035), (17.4000, -13.2337, -14.9956), (17.4000, -11.6749, -16.2388), (17.4000, -10.0000, -17.3205), (17.4000, -8.2257, -18.2301), (17.4000, -6.3697, -18.9585), (17.4000, -4.4504, -19.4986), (17.4000, -2.4869, -19.8448), (17.4000, -0.4986, -19.9938), (17.4000, 1.4946, -19.9441), (17.4000, 3.4730, -19.6962), (17.4000, 5.4168, -19.2525), (17.4000, 7.3068, -18.6175), (17.4000, 9.1242, -17.7974), (17.4000, 10.8509, -16.8005), (17.4000, 12.4698, -15.6366), (17.4000, 13.9647, -14.3173), (17.4000, 15.3209, -12.8558), (17.4000, 16.5248, -11.2664), (17.4000, 17.5644, -9.5651), (17.4000, 18.4295, -7.7687), (17.4000, 19.1115, -5.8951), (17.4000, 19.6034, -3.9629), (17.4000, 19.9006, -1.9914), (17.4000, 20.0000, 0.0000), (59.5000, 20.0000, 0.0000), (59.5000, 20.0000, 0.0000), (59.5000, 19.9006, 1.9914), (59.5000, 19.6034, 3.9629), (59.5000, 19.1115, 5.8951), (59.5000, 18.4295, 7.7687), (59.5000, 17.5644, 9.5651), (59.5000, 16.5248, 11.2664), (59.5000, 15.3209, 12.8558), (59.5000, 13.9647, 14.3173), (59.5000, 12.4698, 15.6366), (59.5000, 10.8509, 16.8005), (59.5000, 9.1242, 17.7974), (59.5000, 7.3068, 18.6175), (59.5000, 5.4168, 19.2525), (59.5000, 3.4730, 19.6962), (59.5000, 1.4946, 19.9441), (59.5000, -0.4986, 19.9938), (59.5000, -2.4869, 19.8448), (59.5000, -4.4504, 19.4986), (59.5000, -6.3697, 18.9585), (59.5000, -8.2257, 18.2301), (59.5000, -10.0000, 17.3205), (59.5000, -11.6749, 16.2388), (59.5000, -13.2337, 14.9956), (59.5000, -14.6610, 13.6035), (59.5000, -15.9427, 12.0761), (59.5000, -17.0658, 10.4287), (59.5000, -18.0194, 8.6777), (59.5000, -18.7939, 6.8404), (59.5000, -19.3815, 4.9351), (59.5000, -19.7766, 2.9808), (59.5000, -19.9751, 0.9969), (59.5000, -19.9751, -0.9969), (59.5000, -19.7766, -2.9808), (59.5000, -19.3815, -4.9351), (59.5000, -18.7939, -6.8404), (59.5000, -18.0194, -8.6777), (59.5000, -17.0658, -10.4287), (59.5000, -15.9427, -12.0761), (59.5000, -14.6610, -13.6035), (59.5000, -13.2337, -14.9956), (59.5000, -11.6749, -16.2388), (59.5000, -10.0000, -17.3205), (59.5000, -8.2257, -18.2301), (59.5000, -6.3697, -18.9585), (59.5000, -4.4504, -19.4986), (59.5000, -2.4869, -19.8448), (59.5000, -0.4986, -19.9938), (59.5000, 1.4946, -19.9441), (59.5000, 3.4730, -19.6962), (59.5000, 5.4168, -19.2525), (59.5000, 7.3068, -18.6175), (59.5000, 9.1242, -17.7974), (59.5000, 10.8509, -16.8005), (59.5000, 12.4698, -15.6366), (59.5000, 13.9647, -14.3173), (59.5000, 15.3209, -12.8558), (59.5000, 16.5248, -11.2664), (59.5000, 17.5644, -9.5651), (59.5000, 18.4295, -7.7687), (59.5000, 19.1115, -5.8951), (59.5000, 19.6034, -3.9629), (59.5000, 19.9006, -1.9914), (59.5000, 20.0000, 0.0000), (59.5000, 19.9006, 1.9914), (59.5000, 19.6034, 3.9629), (59.5000, 19.1115, 5.8951), (59.5000, 18.4295, 7.7687), (59.5000, 17.5644, 9.5651), (59.5000, 16.5248, 11.2664), (59.5000, 15.3209, 12.8558), (59.5000, 13.9647, 14.3173), (59.5000, 12.4698, 15.6366), (59.5000, 10.8509, 16.8005), (59.5000, 9.1242, 17.7974), (59.5000, 7.3068, 18.6175), (59.5000, 5.4168, 19.2525), (59.5000, 3.4730, 19.6962), (59.5000, 1.4946, 19.9441), (59.5000, -0.4986, 19.9938), (59.5000, -2.4869, 19.8448), (59.5000, -4.4504, 19.4986), (59.5000, -6.3697, 18.9585), (59.5000, -8.2257, 18.2301), (59.5000, -10.0000, 17.3205), (59.5000, -11.6749, 16.2388), (59.5000, -13.2337, 14.9956), (59.5000, -14.6610, 13.6035), (59.5000, -15.9427, 12.0761), (59.5000, -17.0658, 10.4287), (59.5000, -18.0194, 8.6777), (59.5000, -18.7939, 6.8404), (59.5000, -19.3815, 4.9351), (59.5000, -19.7766, 2.9808), (59.5000, -19.9751, 0.9969), (59.5000, -19.9751, -0.9969), (59.5000, -19.7766, -2.9808), (59.5000, -19.3815, -4.9351), (59.5000, -18.7939, -6.8404), (59.5000, -18.0194, -8.6777), (59.5000, -17.0658, -10.4287), (59.5000, -15.9427, -12.0761), (59.5000, -14.6610, -13.6035), (59.5000, -13.2337, -14.9956), (59.5000, -11.6749, -16.2388), (59.5000, -10.0000, -17.3205), (59.5000, -8.2257, -18.2301), (59.5000, -6.3697, -18.9585), (59.5000, -4.4504, -19.4986), (59.5000, -2.4869, -19.8448), (59.5000, -0.4986, -19.9938), (59.5000, 1.4946, -19.9441), (59.5000, 3.4730, -19.6962), (59.5000, 5.4168, -19.2525), (59.5000, 7.3068, -18.6175), (59.5000, 9.1242, -17.7974), (59.5000, 10.8509, -16.8005), (59.5000, 12.4698, -15.6366), (59.5000, 13.9647, -14.3173), (59.5000, 15.3209, -12.8558), (59.5000, 16.5248, -11.2664), (59.5000, 17.5644, -9.5651), (59.5000, 18.4295, -7.7687), (59.5000, 19.1115, -5.8951), (59.5000, 19.6034, -3.9629), (59.5000, 19.9006, -1.9914), (59.5000, 20.0000, 0.0000), (60.0000, 19.5000, 0.0000), (60.0000, 19.5000, 0.0000), (60.0000, 19.4031, 1.9416), (60.0000, 19.1134, 3.8638), (60.0000, 18.6337, 5.7477), (60.0000, 17.9688, 7.5745), (60.0000, 17.1253, 9.3260), (60.0000, 16.1117, 10.9847), (60.0000, 14.9379, 12.5344), (60.0000, 13.6156, 13.9594), (60.0000, 12.1581, 15.2457), (60.0000, 10.5797, 16.3805), (60.0000, 8.8961, 17.3525), (60.0000, 7.1241, 18.1520), (60.0000, 5.2814, 18.7712), (60.0000, 3.3861, 19.2038), (60.0000, 1.4572, 19.4455), (60.0000, -0.4861, 19.4939), (60.0000, -2.4247, 19.3487), (60.0000, -4.3392, 19.0111), (60.0000, -6.2105, 18.4846), (60.0000, -8.0201, 17.7744), (60.0000, -9.7500, 16.8875), (60.0000, -11.3830, 15.8328), (60.0000, -12.9029, 14.6207), (60.0000, -14.2945, 13.2634), (60.0000, -15.5441, 11.7742), (60.0000, -16.6392, 10.1680), (60.0000, -17.5689, 8.4607), (60.0000, -18.3240, 6.6694), (60.0000, -18.8970, 4.8118), (60.0000, -19.2822, 2.9063), (60.0000, -19.4758, 0.9720), (60.0000, -19.4758, -0.9720), (60.0000, -19.2822, -2.9063), (60.0000, -18.8970, -4.8118), (60.0000, -18.3240, -6.6694), (60.0000, -17.5689, -8.4607), (60.0000, -16.6392, -10.1680), (60.0000, -15.5441, -11.7742), (60.0000, -14.2945, -13.2634), (60.0000, -12.9029, -14.6207), (60.0000, -11.3830, -15.8328), (60.0000, -9.7500, -16.8875), (60.0000, -8.0201, -17.7744), (60.0000, -6.2105, -18.4846), (60.0000, -4.3392, -19.0111), (60.0000, -2.4247, -19.3487), (60.0000, -0.4861, -19.4939), (60.0000, 1.4572, -19.4455), (60.0000, 3.3861, -19.2038), (60.0000, 5.2814, -18.7712), (60.0000, 7.1241, -18.1520), (60.0000, 8.8961, -17.3525), (60.0000, 10.5797, -16.3805), (60.0000, 12.1581, -15.2457), (60.0000, 13.6156, -13.9594), (60.0000, 14.9379, -12.5344), (60.0000, 16.1117, -10.9847), (60.0000, 17.1253, -9.3260), (60.0000, 17.9688, -7.5745), (60.0000, 18.6337, -5.7477), (60.0000, 19.1134, -3.8638), (60.0000, 19.4031, -1.9416), (60.0000, 19.5000, 0.0000), (60.0000, 19.4031, 1.9416), (60.0000, 19.1134, 3.8638), (60.0000, 18.6337, 5.7477), (60.0000, 17.9688, 7.5745), (60.0000, 17.1253, 9.3260), (60.0000, 16.1117, 10.9847), (60.0000, 14.9379, 12.5344), (60.0000, 13.6156, 13.9594), (60.0000, 12.1581, 15.2457), (60.0000, 10.5797, 16.3805), (60.0000, 8.8961, 17.3525), (60.0000, 7.1241, 18.1520), (60.0000, 5.2814, 18.7712), (60.0000, 3.3861, 19.2038), (60.0000, 1.4572, 19.4455), (60.0000, -0.4861, 19.4939), (60.0000, -2.4247, 19.3487), (60.0000, -4.3392, 19.0111), (60.0000, -6.2105, 18.4846), (60.0000, -8.0201, 17.7744), (60.0000, -9.7500, 16.8875), (60.0000, -11.3830, 15.8328), (60.0000, -12.9029, 14.6207), (60.0000, -14.2945, 13.2634), (60.0000, -15.5441, 11.7742), (60.0000, -16.6392, 10.1680), (60.0000, -17.5689, 8.4607), (60.0000, -18.3240, 6.6694), (60.0000, -18.8970, 4.8118), (60.0000, -19.2822, 2.9063), (60.0000, -19.4758, 0.9720), (60.0000, -19.4758, -0.9720), (60.0000, -19.2822, -2.9063), (60.0000, -18.8970, -4.8118), (60.0000, -18.3240, -6.6694), (60.0000, -17.5689, -8.4607), (60.0000, -16.6392, -10.1680), (60.0000, -15.5441, -11.7742), (60.0000, -14.2945, -13.2634), (60.0000, -12.9029, -14.6207), (60.0000, -11.3830, -15.8328), (60.0000, -9.7500, -16.8875), (60.0000, -8.0201, -17.7744), (60.0000, -6.2105, -18.4846), (60.0000, -4.3392, -19.0111), (60.0000, -2.4247, -19.3487), (60.0000, -0.4861, -19.4939), (60.0000, 1.4572, -19.4455), (60.0000, 3.3861, -19.2038), (60.0000, 5.2814, -18.7712), (60.0000, 7.1241, -18.1520), (60.0000, 8.8961, -17.3525), (60.0000, 10.5797, -16.3805), (60.0000, 12.1581, -15.2457), (60.0000, 13.6156, -13.9594), (60.0000, 14.9379, -12.5344), (60.0000, 16.1117, -10.9847), (60.0000, 17.1253, -9.3260), (60.0000, 17.9688, -7.5745), (60.0000, 18.6337, -5.7477), (60.0000, 19.1134, -3.8638), (60.0000, 19.4031, -1.9416), (60.0000, 14.5000, 0.0000), (60.0000, 14.4279, 1.4437), (60.0000, 14.2125, 2.8731), (60.0000, 13.8558, 4.2740), (60.0000, 13.3614, 5.6323), (60.0000, 12.7342, 6.9347), (60.0000, 11.9805, 8.1681), (60.0000, 11.1076, 9.3204), (60.0000, 10.1244, 10.3801), (60.0000, 9.0406, 11.3366), (60.0000, 7.8669, 12.1804), (60.0000, 6.6151, 12.9031), (60.0000, 5.2974, 13.4977), (60.0000, 3.9272, 13.9581), (60.0000, 2.5179, 14.2797), (60.0000, 1.0836, 14.4595), (60.0000, -0.3615, 14.4955), (60.0000, -1.8030, 14.3875), (60.0000, -3.2266, 14.1365), (60.0000, -4.6181, 13.7449), (60.0000, -5.9637, 13.2168), (60.0000, -7.2500, 12.5574), (60.0000, -8.4643, 11.7731), (60.0000, -9.5944, 10.8718), (60.0000, -10.6293, 9.8625), (60.0000, -11.5584, 8.7552), (60.0000, -12.3727, 7.5608), (60.0000, -13.0640, 6.2913), (60.0000, -13.6255, 4.9593), (60.0000, -14.0516, 3.5780), (60.0000, -14.3380, 2.1611), (60.0000, -14.4820, 0.7228), (60.0000, -14.4820, -0.7228), (60.0000, -14.3380, -2.1611), (60.0000, -14.0516, -3.5780), (60.0000, -13.6255, -4.9593), (60.0000, -13.0640, -6.2913), (60.0000, -12.3727, -7.5608), (60.0000, -11.5584, -8.7552), (60.0000, -10.6293, -9.8625), (60.0000, -9.5944, -10.8718), (60.0000, -8.4643, -11.7731), (60.0000, -7.2500, -12.5574), (60.0000, -5.9637, -13.2168), (60.0000, -4.6181, -13.7449), (60.0000, -3.2266, -14.1365), (60.0000, -1.8030, -14.3875), (60.0000, -0.3615, -14.4955), (60.0000, 1.0836, -14.4595), (60.0000, 2.5179, -14.2797), (60.0000, 3.9272, -13.9581), (60.0000, 5.2974, -13.4977), (60.0000, 6.6151, -12.9031), (60.0000, 7.8669, -12.1804), (60.0000, 9.0406, -11.3366), (60.0000, 10.1244, -10.3801), (60.0000, 11.1076, -9.3204), (60.0000, 11.9805, -8.1681), (60.0000, 12.7342, -6.9347), (60.0000, 13.3614, -5.6323), (60.0000, 13.8558, -4.2740), (60.0000, 14.2125, -2.8731), (60.0000, 14.4279, -1.4437), (60.0000, 14.5000, 0.0000), (60.0000, 14.4279, 1.4437), (60.0000, 14.2125, 2.8731), (60.0000, 13.8558, 4.2740), (60.0000, 13.3614, 5.6323), (60.0000, 12.7342, 6.9347), (60.0000, 11.9805, 8.1681), (60.0000, 11.1076, 9.3204), (60.0000, 10.1244, 10.3801), (60.0000, 9.0406, 11.3366), (60.0000, 7.8669, 12.1804), (60.0000, 6.6151, 12.9031), (60.0000, 5.2974, 13.4977), (60.0000, 3.9272, 13.9581), (60.0000, 2.5179, 14.2797), (60.0000, 1.0836, 14.4595), (60.0000, -0.3615, 14.4955), (60.0000, -1.8030, 14.3875), (60.0000, -3.2266, 14.1365), (60.0000, -4.6181, 13.7449), (60.0000, -5.9637, 13.2168), (60.0000, -7.2500, 12.5574), (60.0000, -8.4643, 11.7731), (60.0000, -9.5944, 10.8718), (60.0000, -10.6293, 9.8625), (60.0000, -11.5584, 8.7552), (60.0000, -12.3727, 7.5608), (60.0000, -13.0640, 6.2913), (60.0000, -13.6255, 4.9593), (60.0000, -14.0516, 3.5780), (60.0000, -14.3380, 2.1611), (60.0000, -14.4820, 0.7228), (60.0000, -14.4820, -0.7228), (60.0000, -14.3380, -2.1611), (60.0000, -14.0516, -3.5780), (60.0000, -13.6255, -4.9593), (60.0000, -13.0640, -6.2913), (60.0000, -12.3727, -7.5608), (60.0000, -11.5584, -8.7552), (60.0000, -10.6293, -9.8625), (60.0000, -9.5944, -10.8718), (60.0000, -8.4643, -11.7731), (60.0000, -7.2500, -12.5574), (60.0000, -5.9637, -13.2168), (60.0000, -4.6181, -13.7449), (60.0000, -3.2266, -14.1365), (60.0000, -1.8030, -14.3875), (60.0000, -0.3615, -14.4955), (60.0000, 1.0836, -14.4595), (60.0000, 2.5179, -14.2797), (60.0000, 3.9272, -13.9581), (60.0000, 5.2974, -13.4977), (60.0000, 6.6151, -12.9031), (60.0000, 7.8669, -12.1804), (60.0000, 9.0406, -11.3366), (60.0000, 10.1244, -10.3801), (60.0000, 11.1076, -9.3204), (60.0000, 11.9805, -8.1681), (60.0000, 12.7342, -6.9347), (60.0000, 13.3614, -5.6323), (60.0000, 13.8558, -4.2740), (60.0000, 14.2125, -2.8731), (60.0000, 14.4279, -1.4437), (60.0000, 14.5000, 0.0000), (59.5000, 14.0000, 0.0000), (59.5000, 14.0000, 0.0000), (59.5000, 13.9304, 1.3939), (59.5000, 13.7224, 2.7740), (59.5000, 13.3780, 4.1266), (59.5000, 12.9007, 5.4381), (59.5000, 12.2951, 6.6956), (59.5000, 11.5673, 7.8865), (59.5000, 10.7246, 8.9990), (59.5000, 9.7753, 10.0221), (59.5000, 8.7289, 10.9456), (59.5000, 7.5956, 11.7604), (59.5000, 6.3869, 12.4582), (59.5000, 5.1148, 13.0322), (59.5000, 3.7918, 13.4767), (59.5000, 2.4311, 13.7873), (59.5000, 1.0462, 13.9609), (59.5000, -0.3490, 13.9956), (59.5000, -1.7408, 13.8913), (59.5000, -3.1153, 13.6490), (59.5000, -4.4588, 13.2710), (59.5000, -5.7580, 12.7611), (59.5000, -7.0000, 12.1244), (59.5000, -8.1724, 11.3671), (59.5000, -9.2636, 10.4969), (59.5000, -10.2627, 9.5224), (59.5000, -11.1599, 8.4533), (59.5000, -11.9461, 7.3001), (59.5000, -12.6136, 6.0744), (59.5000, -13.1557, 4.7883), (59.5000, -13.5671, 3.4546), (59.5000, -13.8436, 2.0866), (59.5000, -13.9826, 0.6978), (59.5000, -13.9826, -0.6978), (59.5000, -13.8436, -2.0866), (59.5000, -13.5671, -3.4546), (59.5000, -13.1557, -4.7883), (59.5000, -12.6136, -6.0744), (59.5000, -11.9461, -7.3001), (59.5000, -11.1599, -8.4533), (59.5000, -10.2627, -9.5224), (59.5000, -9.2636, -10.4969), (59.5000, -8.1724, -11.3671), (59.5000, -7.0000, -12.1244), (59.5000, -5.7580, -12.7611), (59.5000, -4.4588, -13.2710), (59.5000, -3.1153, -13.6490), (59.5000, -1.7408, -13.8913), (59.5000, -0.3490, -13.9956), (59.5000, 1.0462, -13.9609), (59.5000, 2.4311, -13.7873), (59.5000, 3.7918, -13.4767), (59.5000, 5.1148, -13.0322), (59.5000, 6.3869, -12.4582), (59.5000, 7.5956, -11.7604), (59.5000, 8.7289, -10.9456), (59.5000, 9.7753, -10.0221), (59.5000, 10.7246, -8.9990), (59.5000, 11.5673, -7.8865), (59.5000, 12.2951, -6.6956), (59.5000, 12.9007, -5.4381), (59.5000, 13.3780, -4.1266), (59.5000, 13.7224, -2.7740), (59.5000, 13.9304, -1.3939), (59.5000, 14.0000, 0.0000), (59.5000, 13.9304, 1.3939), (59.5000, 13.7224, 2.7740), (59.5000, 13.3780, 4.1266), (59.5000, 12.9007, 5.4381), (59.5000, 12.2951, 6.6956), (59.5000, 11.5673, 7.8865), (59.5000, 10.7246, 8.9990), (59.5000, 9.7753, 10.0221), (59.5000, 8.7289, 10.9456), (59.5000, 7.5956, 11.7604), (59.5000, 6.3869, 12.4582), (59.5000, 5.1148, 13.0322), (59.5000, 3.7918, 13.4767), (59.5000, 2.4311, 13.7873), (59.5000, 1.0462, 13.9609), (59.5000, -0.3490, 13.9956), (59.5000, -1.7408, 13.8913), (59.5000, -3.1153, 13.6490), (59.5000, -4.4588, 13.2710), (59.5000, -5.7580, 12.7611), (59.5000, -7.0000, 12.1244), (59.5000, -8.1724, 11.3671), (59.5000, -9.2636, 10.4969), (59.5000, -10.2627, 9.5224), (59.5000, -11.1599, 8.4533), (59.5000, -11.9461, 7.3001), (59.5000, -12.6136, 6.0744), (59.5000, -13.1557, 4.7883), (59.5000, -13.5671, 3.4546), (59.5000, -13.8436, 2.0866), (59.5000, -13.9826, 0.6978), (59.5000, -13.9826, -0.6978), (59.5000, -13.8436, -2.0866), (59.5000, -13.5671, -3.4546), (59.5000, -13.1557, -4.7883), (59.5000, -12.6136, -6.0744), (59.5000, -11.9461, -7.3001), (59.5000, -11.1599, -8.4533), (59.5000, -10.2627, -9.5224), (59.5000, -9.2636, -10.4969), (59.5000, -8.1724, -11.3671), (59.5000, -7.0000, -12.1244), (59.5000, -5.7580, -12.7611), (59.5000, -4.4588, -13.2710), (59.5000, -3.1153, -13.6490), (59.5000, -1.7408, -13.8913), (59.5000, -0.3490, -13.9956), (59.5000, 1.0462, -13.9609), (59.5000, 2.4311, -13.7873), (59.5000, 3.7918, -13.4767), (59.5000, 5.1148, -13.0322), (59.5000, 6.3869, -12.4582), (59.5000, 7.5956, -11.7604), (59.5000, 8.7289, -10.9456), (59.5000, 9.7753, -10.0221), (59.5000, 10.7246, -8.9990), (59.5000, 11.5673, -7.8865), (59.5000, 12.2951, -6.6956), (59.5000, 12.9007, -5.4381), (59.5000, 13.3780, -4.1266), (59.5000, 13.7224, -2.7740), (59.5000, 13.9304, -1.3939), (59.5000, 14.0000, 0.0000), (20.0000, 14.0000, 0.0000), (20.0000, 14.0000, 0.0000), (20.0000, 13.9304, 1.3939), (20.0000, 13.7224, 2.7740), (20.0000, 13.3780, 4.1266), (20.0000, 12.9007, 5.4381), (20.0000, 12.2951, 6.6956), (20.0000, 11.5673, 7.8865), (20.0000, 10.7246, 8.9990), (20.0000, 9.7753, 10.0221), (20.0000, 8.7289, 10.9456), (20.0000, 7.5956, 11.7604), (20.0000, 6.3869, 12.4582), (20.0000, 5.1148, 13.0322), (20.0000, 3.7918, 13.4767), (20.0000, 2.4311, 13.7873), (20.0000, 1.0462, 13.9609), (20.0000, -0.3490, 13.9956), (20.0000, -1.7408, 13.8913), (20.0000, -3.1153, 13.6490), (20.0000, -4.4588, 13.2710), (20.0000, -5.7580, 12.7611), (20.0000, -7.0000, 12.1244), (20.0000, -8.1724, 11.3671), (20.0000, -9.2636, 10.4969), (20.0000, -10.2627, 9.5224), (20.0000, -11.1599, 8.4533), (20.0000, -11.9461, 7.3001), (20.0000, -12.6136, 6.0744), (20.0000, -13.1557, 4.7883), (20.0000, -13.5671, 3.4546), (20.0000, -13.8436, 2.0866), (20.0000, -13.9826, 0.6978), (20.0000, -13.9826, -0.6978), (20.0000, -13.8436, -2.0866), (20.0000, -13.5671, -3.4546), (20.0000, -13.1557, -4.7883), (20.0000, -12.6136, -6.0744), (20.0000, -11.9461, -7.3001), (20.0000, -11.1599, -8.4533), (20.0000, -10.2627, -9.5224), (20.0000, -9.2636, -10.4969), (20.0000, -8.1724, -11.3671), (20.0000, -7.0000, -12.1244), (20.0000, -5.7580, -12.7611), (20.0000, -4.4588, -13.2710), (20.0000, -3.1153, -13.6490), (20.0000, -1.7408, -13.8913), (20.0000, -0.3490, -13.9956), (20.0000, 1.0462, -13.9609), (20.0000, 2.4311, -13.7873), (20.0000, 3.7918, -13.4767), (20.0000, 5.1148, -13.0322), (20.0000, 6.3869, -12.4582), (20.0000, 7.5956, -11.7604), (20.0000, 8.7289, -10.9456), (20.0000, 9.7753, -10.0221), (20.0000, 10.7246, -8.9990), (20.0000, 11.5673, -7.8865), (20.0000, 12.2951, -6.6956), (20.0000, 12.9007, -5.4381), (20.0000, 13.3780, -4.1266), (20.0000, 13.7224, -2.7740), (20.0000, 13.9304, -1.3939), (20.0000, 15.0000, 0.0000), (20.0000, 14.9255, 1.4935), (20.0000, 14.7026, 2.9722), (20.0000, 14.3336, 4.4213), (20.0000, 13.8221, 5.8265), (20.0000, 13.1733, 7.1738), (20.0000, 12.3936, 8.4498), (20.0000, 11.4907, 9.6418), (20.0000, 10.4736, 10.7380), (20.0000, 9.3523, 11.7275), (20.0000, 8.1382, 12.6004), (20.0000, 6.8432, 13.3481), (20.0000, 5.4801, 13.9631), (20.0000, 4.0626, 14.4394), (20.0000, 2.6047, 14.7721), (20.0000, 1.1210, 14.9581), (20.0000, -0.3740, 14.9953), (20.0000, -1.8652, 14.8836), (20.0000, -3.3378, 14.6239), (20.0000, -4.7773, 14.2189), (20.0000, -6.1693, 13.6726), (20.0000, -7.5000, 12.9904), (20.0000, -8.7562, 12.1791), (20.0000, -9.9253, 11.2467), (20.0000, -10.9958, 10.2026), (20.0000, -11.9570, 9.0571), (20.0000, -12.7994, 7.8215), (20.0000, -13.5145, 6.5083), (20.0000, -14.0954, 5.1303), (20.0000, -14.5362, 3.7014), (20.0000, -14.8325, 2.2356), (20.0000, -14.9814, 0.7477), (20.0000, -14.9814, -0.7477), (20.0000, -14.8325, -2.2356), (20.0000, -14.5362, -3.7014), (20.0000, -14.0954, -5.1303), (20.0000, -13.5145, -6.5083), (20.0000, -12.7994, -7.8215), (20.0000, -11.9570, -9.0571), (20.0000, -10.9958, -10.2026), (20.0000, -9.9253, -11.2467), (20.0000, -8.7562, -12.1791), (20.0000, -7.5000, -12.9904), (20.0000, -6.1693, -13.6726), (20.0000, -4.7773, -14.2189), (20.0000, -3.3378, -14.6239), (20.0000, -1.8652, -14.8836), (20.0000, -0.3740, -14.9953), (20.0000, 1.1210, -14.9581), (20.0000, 2.6047, -14.7721), (20.0000, 4.0626, -14.4394), (20.0000, 5.4801, -13.9631), (20.0000, 6.8432, -13.3481), (20.0000, 8.1382, -12.6004), (20.0000, 9.3523, -11.7275), (20.0000, 10.4736, -10.7380), (20.0000, 11.4907, -9.6418), (20.0000, 12.3936, -8.4498), (20.0000, 13.1733, -7.1738), (20.0000, 13.8221, -5.8265), (20.0000, 14.3336, -4.4213), (20.0000, 14.7026, -2.9722), (20.0000, 14.9255, -1.4935), (20.0000, 14.0000, 0.0000), (20.0000, 13.9304, 1.3939), (20.0000, 13.7224, 2.7740), (20.0000, 13.3780, 4.1266), (20.0000, 12.9007, 5.4381), (20.0000, 12.2951, 6.6956), (20.0000, 11.5673, 7.8865), (20.0000, 10.7246, 8.9990), (20.0000, 9.7753, 10.0221), (20.0000, 8.7289, 10.9456), (20.0000, 7.5956, 11.7604), (20.0000, 6.3869, 12.4582), (20.0000, 5.1148, 13.0322), (20.0000, 3.7918, 13.4767), (20.0000, 2.4311, 13.7873), (20.0000, 1.0462, 13.9609), (20.0000, -0.3490, 13.9956), (20.0000, -1.7408, 13.8913), (20.0000, -3.1153, 13.6490), (20.0000, -4.4588, 13.2710), (20.0000, -5.7580, 12.7611), (20.0000, -7.0000, 12.1244), (20.0000, -8.1724, 11.3671), (20.0000, -9.2636, 10.4969), (20.0000, -10.2627, 9.5224), (20.0000, -11.1599, 8.4533), (20.0000, -11.9461, 7.3001), (20.0000, -12.6136, 6.0744), (20.0000, -13.1557, 4.7883), (20.0000, -13.5671, 3.4546), (20.0000, -13.8436, 2.0866), (20.0000, -13.9826, 0.6978), (20.0000, -13.9826, -0.6978), (20.0000, -13.8436, -2.0866), (20.0000, -13.5671, -3.4546), (20.0000, -13.1557, -4.7883), (20.0000, -12.6136, -6.0744), (20.0000, -11.9461, -7.3001), (20.0000, -11.1599, -8.4533), (20.0000, -10.2627, -9.5224), (20.0000, -9.2636, -10.4969), (20.0000, -8.1724, -11.3671), (20.0000, -7.0000, -12.1244), (20.0000, -5.7580, -12.7611), (20.0000, -4.4588, -13.2710), (20.0000, -3.1153, -13.6490), (20.0000, -1.7408, -13.8913), (20.0000, -0.3490, -13.9956), (20.0000, 1.0462, -13.9609), (20.0000, 2.4311, -13.7873), (20.0000, 3.7918, -13.4767), (20.0000, 5.1148, -13.0322), (20.0000, 6.3869, -12.4582), (20.0000, 7.5956, -11.7604), (20.0000, 8.7289, -10.9456), (20.0000, 9.7753, -10.0221), (20.0000, 10.7246, -8.9990), (20.0000, 11.5673, -7.8865), (20.0000, 12.2951, -6.6956), (20.0000, 12.9007, -5.4381), (20.0000, 13.3780, -4.1266), (20.0000, 13.7224, -2.7740), (20.0000, 13.9304, -1.3939), (20.0000, 15.0000, 0.0000), (20.0000, 14.9255, 1.4935), (20.0000, 14.7026, 2.9722), (20.0000, 14.3336, 4.4213), (20.0000, 13.8221, 5.8265), (20.0000, 13.1733, 7.1738), (20.0000, 12.3936, 8.4498), (20.0000, 11.4907, 9.6418), (20.0000, 10.4736, 10.7380), (20.0000, 9.3523, 11.7275), (20.0000, 8.1382, 12.6004), (20.0000, 6.8432, 13.3481), (20.0000, 5.4801, 13.9631), (20.0000, 4.0626, 14.4394), (20.0000, 2.6047, 14.7721), (20.0000, 1.1210, 14.9581), (20.0000, -0.3740, 14.9953), (20.0000, -1.8652, 14.8836), (20.0000, -3.3378, 14.6239), (20.0000, -4.7773, 14.2189), (20.0000, -6.1693, 13.6726), (20.0000, -7.5000, 12.9904), (20.0000, -8.7562, 12.1791), (20.0000, -9.9253, 11.2467), (20.0000, -10.9958, 10.2026), (20.0000, -11.9570, 9.0571), (20.0000, -12.7994, 7.8215), (20.0000, -13.5145, 6.5083), (20.0000, -14.0954, 5.1303), (20.0000, -14.5362, 3.7014), (20.0000, -14.8325, 2.2356), (20.0000, -14.9814, 0.7477), (20.0000, -14.9814, -0.7477), (20.0000, -14.8325, -2.2356), (20.0000, -14.5362, -3.7014), (20.0000, -14.0954, -5.1303), (20.0000, -13.5145, -6.5083), (20.0000, -12.7994, -7.8215), (20.0000, -11.9570, -9.0571), (20.0000, -10.9958, -10.2026), (20.0000, -9.9253, -11.2467), (20.0000, -8.7562, -12.1791), (20.0000, -7.5000, -12.9904), (20.0000, -6.1693, -13.6726), (20.0000, -4.7773, -14.2189), (20.0000, -3.3378, -14.6239), (20.0000, -1.8652, -14.8836), (20.0000, -0.3740, -14.9953), (20.0000, 1.1210, -14.9581), (20.0000, 2.6047, -14.7721), (20.0000, 4.0626, -14.4394), (20.0000, 5.4801, -13.9631), (20.0000, 6.8432, -13.3481), (20.0000, 8.1382, -12.6004), (20.0000, 9.3523, -11.7275), (20.0000, 10.4736, -10.7380), (20.0000, 11.4907, -9.6418), (20.0000, 12.3936, -8.4498), (20.0000, 13.1733, -7.1738), (20.0000, 13.8221, -5.8265), (20.0000, 14.3336, -4.4213), (20.0000, 14.7026, -2.9722), (20.0000, 14.9255, -1.4935), (20.0000, 15.0000, 0.0000), (0.5000, 15.0000, 0.0000), (0.5000, 15.0000, 0.0000), (0.5000, 14.9255, 1.4935), (0.5000, 14.7026, 2.9722), (0.5000, 14.3336, 4.4213), (0.5000, 13.8221, 5.8265), (0.5000, 13.1733, 7.1738), (0.5000, 12.3936, 8.4498), (0.5000, 11.4907, 9.6418), (0.5000, 10.4736, 10.7380), (0.5000, 9.3523, 11.7275), (0.5000, 8.1382, 12.6004), (0.5000, 6.8432, 13.3481), (0.5000, 5.4801, 13.9631), (0.5000, 4.0626, 14.4394), (0.5000, 2.6047, 14.7721), (0.5000, 1.1210, 14.9581), (0.5000, -0.3740, 14.9953), (0.5000, -1.8652, 14.8836), (0.5000, -3.3378, 14.6239), (0.5000, -4.7773, 14.2189), (0.5000, -6.1693, 13.6726), (0.5000, -7.5000, 12.9904), (0.5000, -8.7562, 12.1791), (0.5000, -9.9253, 11.2467), (0.5000, -10.9958, 10.2026), (0.5000, -11.9570, 9.0571), (0.5000, -12.7994, 7.8215), (0.5000, -13.5145, 6.5083), (0.5000, -14.0954, 5.1303), (0.5000, -14.5362, 3.7014), (0.5000, -14.8325, 2.2356), (0.5000, -14.9814, 0.7477), (0.5000, -14.9814, -0.7477), (0.5000, -14.8325, -2.2356), (0.5000, -14.5362, -3.7014), (0.5000, -14.0954, -5.1303), (0.5000, -13.5145, -6.5083), (0.5000, -12.7994, -7.8215), (0.5000, -11.9570, -9.0571), (0.5000, -10.9958, -10.2026), (0.5000, -9.9253, -11.2467), (0.5000, -8.7562, -12.1791), (0.5000, -7.5000, -12.9904), (0.5000, -6.1693, -13.6726), (0.5000, -4.7773, -14.2189), (0.5000, -3.3378, -14.6239), (0.5000, -1.8652, -14.8836), (0.5000, -0.3740, -14.9953), (0.5000, 1.1210, -14.9581), (0.5000, 2.6047, -14.7721), (0.5000, 4.0626, -14.4394), (0.5000, 5.4801, -13.9631), (0.5000, 6.8432, -13.3481), (0.5000, 8.1382, -12.6004), (0.5000, 9.3523, -11.7275), (0.5000, 10.4736, -10.7380), (0.5000, 11.4907, -9.6418), (0.5000, 12.3936, -8.4498), (0.5000, 13.1733, -7.1738), (0.5000, 13.8221, -5.8265), (0.5000, 14.3336, -4.4213), (0.5000, 14.7026, -2.9722), (0.5000, 14.9255, -1.4935), (0.5000, 15.0000, 0.0000), (0.5000, 14.9255, 1.4935), (0.5000, 14.7026, 2.9722), (0.5000, 14.3336, 4.4213), (0.5000, 13.8221, 5.8265), (0.5000, 13.1733, 7.1738), (0.5000, 12.3936, 8.4498), (0.5000, 11.4907, 9.6418), (0.5000, 10.4736, 10.7380), (0.5000, 9.3523, 11.7275), (0.5000, 8.1382, 12.6004), (0.5000, 6.8432, 13.3481), (0.5000, 5.4801, 13.9631), (0.5000, 4.0626, 14.4394), (0.5000, 2.6047, 14.7721), (0.5000, 1.1210, 14.9581), (0.5000, -0.3740, 14.9953), (0.5000, -1.8652, 14.8836), (0.5000, -3.3378, 14.6239), (0.5000, -4.7773, 14.2189), (0.5000, -6.1693, 13.6726), (0.5000, -7.5000, 12.9904), (0.5000, -8.7562, 12.1791), (0.5000, -9.9253, 11.2467), (0.5000, -10.9958, 10.2026), (0.5000, -11.9570, 9.0571), (0.5000, -12.7994, 7.8215), (0.5000, -13.5145, 6.5083), (0.5000, -14.0954, 5.1303), (0.5000, -14.5362, 3.7014), (0.5000, -14.8325, 2.2356), (0.5000, -14.9814, 0.7477), (0.5000, -14.9814, -0.7477), (0.5000, -14.8325, -2.2356), (0.5000, -14.5362, -3.7014), (0.5000, -14.0954, -5.1303), (0.5000, -13.5145, -6.5083), (0.5000, -12.7994, -7.8215), (0.5000, -11.9570, -9.0571), (0.5000, -10.9958, -10.2026), (0.5000, -9.9253, -11.2467), (0.5000, -8.7562, -12.1791), (0.5000, -7.5000, -12.9904), (0.5000, -6.1693, -13.6726), (0.5000, -4.7773, -14.2189), (0.5000, -3.3378, -14.6239), (0.5000, -1.8652, -14.8836), (0.5000, -0.3740, -14.9953), (0.5000, 1.1210, -14.9581), (0.5000, 2.6047, -14.7721), (0.5000, 4.0626, -14.4394), (0.5000, 5.4801, -13.9631), (0.5000, 6.8432, -13.3481), (0.5000, 8.1382, -12.6004), (0.5000, 9.3523, -11.7275), (0.5000, 10.4736, -10.7380), (0.5000, 11.4907, -9.6418), (0.5000, 12.3936, -8.4498), (0.5000, 13.1733, -7.1738), (0.5000, 13.8221, -5.8265), (0.5000, 14.3336, -4.4213), (0.5000, 14.7026, -2.9722), (0.5000, 14.9255, -1.4935), (0.5000, 15.0000, 0.0000), (0.0000, 15.5000, 0.0000), (0.0000, 15.5000, 0.0000), (0.0000, 15.4230, 1.5433), (0.0000, 15.1927, 3.0713), (0.0000, 14.8114, 4.5687), (0.0000, 14.2829, 6.0207), (0.0000, 13.6124, 7.4129), (0.0000, 12.8067, 8.7315), (0.0000, 11.8737, 9.9632), (0.0000, 10.8227, 11.0959), (0.0000, 9.6641, 12.1184), (0.0000, 8.4095, 13.0204), (0.0000, 7.0713, 13.7930), (0.0000, 5.6628, 14.4285), (0.0000, 4.1980, 14.9207), (0.0000, 2.6915, 15.2645), (0.0000, 1.1583, 15.4567), (0.0000, -0.3864, 15.4952), (0.0000, -1.9273, 15.3797), (0.0000, -3.4491, 15.1114), (0.0000, -4.9365, 14.6929), (0.0000, -6.3750, 14.1283), (0.0000, -7.7500, 13.4234), (0.0000, -9.0480, 12.5850), (0.0000, -10.2561, 11.6216), (0.0000, -11.3623, 10.5427), (0.0000, -12.3556, 9.3590), (0.0000, -13.2260, 8.0822), (0.0000, -13.9650, 6.7252), (0.0000, -14.5652, 5.3013), (0.0000, -15.0207, 3.8247), (0.0000, -15.3269, 2.3102), (0.0000, -15.4807, 0.7726), (0.0000, -15.4807, -0.7726), (0.0000, -15.3269, -2.3102), (0.0000, -15.0207, -3.8247), (0.0000, -14.5652, -5.3013), (0.0000, -13.9650, -6.7252), (0.0000, -13.2260, -8.0822), (0.0000, -12.3556, -9.3590), (0.0000, -11.3623, -10.5427), (0.0000, -10.2561, -11.6216), (0.0000, -9.0480, -12.5850), (0.0000, -7.7500, -13.4234), (0.0000, -6.3750, -14.1283), (0.0000, -4.9365, -14.6929), (0.0000, -3.4491, -15.1114), (0.0000, -1.9273, -15.3797), (0.0000, -0.3864, -15.4952), (0.0000, 1.1583, -15.4567), (0.0000, 2.6915, -15.2645), (0.0000, 4.1980, -14.9207), (0.0000, 5.6628, -14.4285), (0.0000, 7.0713, -13.7930), (0.0000, 8.4095, -13.0204), (0.0000, 9.6641, -12.1184), (0.0000, 10.8227, -11.0959), (0.0000, 11.8737, -9.9632), (0.0000, 12.8067, -8.7315), (0.0000, 13.6124, -7.4129), (0.0000, 14.2829, -6.0207), (0.0000, 14.8114, -4.5687), (0.0000, 15.1927, -3.0713), (0.0000, 15.4230, -1.5433), (0.0000, 19.5000, 0.0000), (0.0000, 19.4031, 1.9416), (0.0000, 19.1134, 3.8638), (0.0000, 18.6337, 5.7477), (0.0000, 17.9688, 7.5745), (0.0000, 17.1253, 9.3260), (0.0000, 16.1117, 10.9847), (0.0000, 14.9379, 12.5344), (0.0000, 13.6156, 13.9594), (0.0000, 12.1581, 15.2457), (0.0000, 10.5797, 16.3805), (0.0000, 8.8961, 17.3525), (0.0000, 7.1241, 18.1520), (0.0000, 5.2814, 18.7712), (0.0000, 3.3861, 19.2038), (0.0000, 1.4572, 19.4455), (0.0000, -0.4861, 19.4939), (0.0000, -2.4247, 19.3487), (0.0000, -4.3392, 19.0111), (0.0000, -6.2105, 18.4846), (0.0000, -8.0201, 17.7744), (0.0000, -9.7500, 16.8875), (0.0000, -11.3830, 15.8328), (0.0000, -12.9029, 14.6207), (0.0000, -14.2945, 13.2634), (0.0000, -15.5441, 11.7742), (0.0000, -16.6392, 10.1680), (0.0000, -17.5689, 8.4607), (0.0000, -18.3240, 6.6694), (0.0000, -18.8970, 4.8118), (0.0000, -19.2822, 2.9063), (0.0000, -19.4758, 0.9720), (0.0000, -19.4758, -0.9720), (0.0000, -19.2822, -2.9063), (0.0000, -18.8970, -4.8118), (0.0000, -18.3240, -6.6694), (0.0000, -17.5689, -8.4607), (0.0000, -16.6392, -10.1680), (0.0000, -15.5441, -11.7742), (0.0000, -14.2945, -13.2634), (0.0000, -12.9029, -14.6207), (0.0000, -11.3830, -15.8328), (0.0000, -9.7500, -16.8875), (0.0000, -8.0201, -17.7744), (0.0000, -6.2105, -18.4846), (0.0000, -4.3392, -19.0111), (0.0000, -2.4247, -19.3487), (0.0000, -0.4861, -19.4939), (0.0000, 1.4572, -19.4455), (0.0000, 3.3861, -19.2038), (0.0000, 5.2814, -18.7712), (0.0000, 7.1241, -18.1520), (0.0000, 8.8961, -17.3525), (0.0000, 10.5797, -16.3805), (0.0000, 12.1581, -15.2457), (0.0000, 13.6156, -13.9594), (0.0000, 14.9379, -12.5344), (0.0000, 16.1117, -10.9847), (0.0000, 17.1253, -9.3260), (0.0000, 17.9688, -7.5745), (0.0000, 18.6337, -5.7477), (0.0000, 19.1134, -3.8638), (0.0000, 19.4031, -1.9416), (0.0000, 15.5000, 0.0000), (0.0000, 15.4230, 1.5433), (0.0000, 15.1927, 3.0713), (0.0000, 14.8114, 4.5687), (0.0000, 14.2829, 6.0207), (0.0000, 13.6124, 7.4129), (0.0000, 12.8067, 8.7315), (0.0000, 11.8737, 9.9632), (0.0000, 10.8227, 11.0959), (0.0000, 9.6641, 12.1184), (0.0000, 8.4095, 13.0204), (0.0000, 7.0713, 13.7930), (0.0000, 5.6628, 14.4285), (0.0000, 4.1980, 14.9207), (0.0000, 2.6915, 15.2645), (0.0000, 1.1583, 15.4567), (0.0000, -0.3864, 15.4952), (0.0000, -1.9273, 15.3797), (0.0000, -3.4491, 15.1114), (0.0000, -4.9365, 14.6929), (0.0000, -6.3750, 14.1283), (0.0000, -7.7500, 13.4234), (0.0000, -9.0480, 12.5850), (0.0000, -10.2561, 11.6216), (0.0000, -11.3623, 10.5427), (0.0000, -12.3556, 9.3590), (0.0000, -13.2260, 8.0822), (0.0000, -13.9650, 6.7252), (0.0000, -14.5652, 5.3013), (0.0000, -15.0207, 3.8247), (0.0000, -15.3269, 2.3102), (0.0000, -15.4807, 0.7726), (0.0000, -15.4807, -0.7726), (0.0000, -15.3269, -2.3102), (0.0000, -15.0207, -3.8247), (0.0000, -14.5652, -5.3013), (0.0000, -13.9650, -6.7252), (0.0000, -13.2260, -8.0822), (0.0000, -12.3556, -9.3590), (0.0000, -11.3623, -10.5427), (0.0000, -10.2561, -11.6216), (0.0000, -9.0480, -12.5850), (0.0000, -7.7500, -13.4234), (0.0000, -6.3750, -14.1283), (0.0000, -4.9365, -14.6929), (0.0000, -3.4491, -15.1114), (0.0000, -1.9273, -15.3797), (0.0000, -0.3864, -15.4952), (0.0000, 1.1583, -15.4567), (0.0000, 2.6915, -15.2645), (0.0000, 4.1980, -14.9207), (0.0000, 5.6628, -14.4285), (0.0000, 7.0713, -13.7930), (0.0000, 8.4095, -13.0204), (0.0000, 9.6641, -12.1184), (0.0000, 10.8227, -11.0959), (0.0000, 11.8737, -9.9632), (0.0000, 12.8067, -8.7315), (0.0000, 13.6124, -7.4129), (0.0000, 14.2829, -6.0207), (0.0000, 14.8114, -4.5687), (0.0000, 15.1927, -3.0713), (0.0000, 15.4230, -1.5433)]
        uniform token subdivisionScheme = "none"
        color3f[] primvars:displayColor = [(0.72, 0.74, 0.77)]
    }
}
