0
SECTION
2
HEADER
9
$ACADVER
1
AC1009
9
$INSUNITS
70
4
0
ENDSEC
0
SECTION
2
TABLES
0
TABLE
2
LTYPE
70
3
0
LTYPE
2
CONTINUOUS
70
0
3
Solid line
72
65
73
0
40
0
0
LTYPE
2
DASHED
70
0
3
Dashed __ __ __
72
65
73
2
40
4.5
49
3
49
-1.5
0
LTYPE
2
CENTER
70
0
3
Center ____ _ ____
72
65
73
4
40
11.5
49
8
49
-1.5
49
0.5
49
-1.5
0
ENDTAB
0
TABLE
2
LAYER
70
9
0
LAYER
2
OUTLINE
70
0
62
7
6
CONTINUOUS
0
LAYER
2
HIDDEN
70
0
62
8
6
DASHED
0
LAYER
2
CENTER
70
0
62
1
6
CENTER
0
LAYER
2
THIN
70
0
62
7
6
CONTINUOUS
0
LAYER
2
DIM
70
0
62
3
6
CONTINUOUS
0
LAYER
2
HATCH
70
0
62
8
6
CONTINUOUS
0
LAYER
2
FRAME
70
0
62
7
6
CONTINUOUS
0
LAYER
2
TEXT
70
0
62
7
6
CONTINUOUS
0
LAYER
2
CUT
70
0
62
5
6
DASHED
0
ENDTAB
0
ENDSEC
0
SECTION
2
ENTITIES
0
LINE
8
OUTLINE
10
83.705
20
140.175
30
0
11
85.705
21
141.33
31
0
0
LINE
8
OUTLINE
10
85.705
20
141.33
30
0
11
96.505
21
141.33
31
0
0
LINE
8
OUTLINE
10
96.505
20
141.33
30
0
11
96.505
21
134.05
31
0
0
LINE
8
OUTLINE
10
96.505
20
134.05
30
0
11
96.515
21
133.893
31
0
0
LINE
8
OUTLINE
10
96.515
20
133.893
30
0
11
96.546
21
133.739
31
0
0
LINE
8
OUTLINE
10
96.546
20
133.739
30
0
11
96.596
21
133.591
31
0
0
LINE
8
OUTLINE
10
96.596
20
133.591
30
0
11
96.666
21
133.45
31
0
0
LINE
8
OUTLINE
10
96.666
20
133.45
30
0
11
96.753
21
133.319
31
0
0
LINE
8
OUTLINE
10
96.753
20
133.319
30
0
11
96.856
21
133.201
31
0
0
LINE
8
OUTLINE
10
96.856
20
133.201
30
0
11
96.974
21
133.098
31
0
0
LINE
8
OUTLINE
10
96.974
20
133.098
30
0
11
97.105
21
133.011
31
0
0
LINE
8
OUTLINE
10
97.105
20
133.011
30
0
11
97.246
21
132.941
31
0
0
LINE
8
OUTLINE
10
97.246
20
132.941
30
0
11
97.394
21
132.891
31
0
0
LINE
8
OUTLINE
10
97.394
20
132.891
30
0
11
97.548
21
132.86
31
0
0
LINE
8
OUTLINE
10
97.548
20
132.86
30
0
11
97.705
21
132.85
31
0
0
LINE
8
OUTLINE
10
97.705
20
132.85
30
0
11
124.505
21
132.85
31
0
0
LINE
8
OUTLINE
10
124.505
20
132.85
30
0
11
173.505
21
132.85
31
0
0
LINE
8
OUTLINE
10
173.505
20
132.85
30
0
11
176.505
21
129.85
31
0
0
LINE
8
OUTLINE
10
83.705
20
105.525
30
0
11
85.705
21
104.37
31
0
0
LINE
8
OUTLINE
10
85.705
20
104.37
30
0
11
96.505
21
104.37
31
0
0
LINE
8
OUTLINE
10
96.505
20
104.37
30
0
11
96.505
21
111.65
31
0
0
LINE
8
OUTLINE
10
96.505
20
111.65
30
0
11
96.515
21
111.807
31
0
0
LINE
8
OUTLINE
10
96.515
20
111.807
30
0
11
96.546
21
111.961
31
0
0
LINE
8
OUTLINE
10
96.546
20
111.961
30
0
11
96.596
21
112.109
31
0
0
LINE
8
OUTLINE
10
96.596
20
112.109
30
0
11
96.666
21
112.25
31
0
0
LINE
8
OUTLINE
10
96.666
20
112.25
30
0
11
96.753
21
112.381
31
0
0
LINE
8
OUTLINE
10
96.753
20
112.381
30
0
11
96.856
21
112.499
31
0
0
LINE
8
OUTLINE
10
96.856
20
112.499
30
0
11
96.974
21
112.602
31
0
0
LINE
8
OUTLINE
10
96.974
20
112.602
30
0
11
97.105
21
112.689
31
0
0
LINE
8
OUTLINE
10
97.105
20
112.689
30
0
11
97.246
21
112.759
31
0
0
LINE
8
OUTLINE
10
97.246
20
112.759
30
0
11
97.394
21
112.809
31
0
0
LINE
8
OUTLINE
10
97.394
20
112.809
30
0
11
97.548
21
112.84
31
0
0
LINE
8
OUTLINE
10
97.548
20
112.84
30
0
11
97.705
21
112.85
31
0
0
LINE
8
OUTLINE
10
97.705
20
112.85
30
0
11
124.505
21
112.85
31
0
0
LINE
8
OUTLINE
10
124.505
20
112.85
30
0
11
173.505
21
112.85
31
0
0
LINE
8
OUTLINE
10
173.505
20
112.85
30
0
11
176.505
21
115.85
31
0
0
LINE
8
OUTLINE
10
83.705
20
105.525
30
0
11
83.705
21
140.175
31
0
0
LINE
8
OUTLINE
10
176.505
20
115.85
30
0
11
176.505
21
129.85
31
0
0
LINE
8
OUTLINE
10
85.705
20
104.37
30
0
11
85.705
21
141.33
31
0
0
LINE
8
OUTLINE
10
85.705
20
104.37
30
0
11
85.705
21
141.33
31
0
0
LINE
8
OUTLINE
10
96.505
20
111.65
30
0
11
96.505
21
134.05
31
0
0
LINE
8
OUTLINE
10
173.505
20
112.85
30
0
11
173.505
21
132.85
31
0
0
LINE
8
OUTLINE
10
173.505
20
112.85
30
0
11
173.505
21
132.85
31
0
0
LINE
8
CENTER
10
75.705
20
122.85
30
0
11
184.505
21
122.85
31
0
0
LINE
8
THIN
10
124.505
20
131.01
30
0
11
173.505
21
131.01
31
0
0
LINE
8
THIN
10
124.505
20
114.69
30
0
11
173.505
21
114.69
31
0
0
LINE
8
OUTLINE
10
83.705
20
132.088
30
0
11
96.505
21
132.088
31
0
0
LINE
8
OUTLINE
10
83.705
20
113.612
30
0
11
96.505
21
113.612
31
0
0
LINE
8
CUT
10
90.105
20
143.83
30
0
11
90.105
21
148.83
31
0
0
LINE
8
CUT
10
90.105
20
148.83
30
0
11
87.105
21
148.83
31
0
0
SOLID
8
DIM
10
85.605
20
148.83
30
0
11
88.605
21
149.34
31
0
12
88.605
22
148.32
32
0
13
88.605
23
148.32
33
0
0
TEXT
8
TEXT
10
91.605
20
149.43
30
0
40
3.5
1
A
50
0
72
0
11
91.605
21
149.43
31
0
0
LINE
8
CUT
10
90.105
20
101.87
30
0
11
90.105
21
96.87
31
0
0
LINE
8
CUT
10
90.105
20
96.87
30
0
11
87.105
21
96.87
31
0
0
SOLID
8
DIM
10
85.605
20
96.87
30
0
11
88.605
21
97.38
31
0
12
88.605
22
96.36
32
0
13
88.605
23
96.36
33
0
0
TEXT
8
TEXT
10
91.605
20
93.67
30
0
40
3.5
1
A
50
0
72
0
11
91.605
21
93.67
31
0
0
LINE
8
DIM
10
83.705
20
103.37
30
0
11
83.705
21
87.37
31
0
0
LINE
8
DIM
10
96.505
20
103.37
30
0
11
96.505
21
87.37
31
0
0
LINE
8
DIM
10
83.705
20
89.37
30
0
11
96.505
21
89.37
31
0
0
SOLID
8
DIM
10
83.705
20
89.37
30
0
11
86.705
21
89.88
31
0
12
86.705
22
88.86
32
0
13
86.705
23
88.86
33
0
0
SOLID
8
DIM
10
96.505
20
89.37
30
0
11
93.505
21
88.86
31
0
12
93.505
22
89.88
32
0
13
93.505
23
89.88
33
0
0
TEXT
8
TEXT
10
90.105
20
100.97
30
0
40
3.5
1
6.4
50
0
72
1
11
90.105
21
100.97
31
0
0
LINE
8
DIM
10
124.505
20
111.85
30
0
11
124.505
21
87.37
31
0
0
LINE
8
DIM
10
176.505
20
111.85
30
0
11
176.505
21
87.37
31
0
0
LINE
8
DIM
10
124.505
20
89.37
30
0
11
176.505
21
89.37
31
0
0
SOLID
8
DIM
10
124.505
20
89.37
30
0
11
127.505
21
89.88
31
0
12
127.505
22
88.86
32
0
13
127.505
23
88.86
33
0
0
SOLID
8
DIM
10
176.505
20
89.37
30
0
11
173.505
21
88.86
31
0
12
173.505
22
89.88
32
0
13
173.505
23
89.88
33
0
0
TEXT
8
TEXT
10
150.505
20
91.17
30
0
40
3.5
1
26
50
0
72
1
11
150.505
21
91.17
31
0
0
LINE
8
DIM
10
83.705
20
103.37
30
0
11
83.705
21
78.37
31
0
0
LINE
8
DIM
10
176.505
20
103.37
30
0
11
176.505
21
78.37
31
0
0
LINE
8
DIM
10
83.705
20
80.37
30
0
11
176.505
21
80.37
31
0
0
SOLID
8
DIM
10
83.705
20
80.37
30
0
11
86.705
21
80.88
31
0
12
86.705
22
79.86
32
0
13
86.705
23
79.86
33
0
0
SOLID
8
DIM
10
176.505
20
80.37
30
0
11
173.505
21
79.86
31
0
12
173.505
22
80.88
32
0
13
173.505
23
80.88
33
0
0
TEXT
8
TEXT
10
130.105
20
82.17
30
0
40
3.5
1
46.4
50
0
72
1
11
130.105
21
82.17
31
0
0
LINE
8
DIM
10
90.105
20
104.37
30
0
11
90.105
21
151.33
31
0
0
SOLID
8
DIM
10
90.105
20
104.37
30
0
11
89.595
21
107.37
31
0
12
90.615
22
107.37
32
0
13
90.615
23
107.37
33
0
0
SOLID
8
DIM
10
90.105
20
141.33
30
0
11
90.615
21
138.33
31
0
12
89.595
22
138.33
32
0
13
89.595
23
138.33
33
0
0
LINE
8
DIM
10
90.105
20
151.33
30
0
11
90.105
21
157.23
31
0
0
TEXT
8
TEXT
10
90.105
20
157.83
30
0
40
3.5
1
%%c18.48
50
0
72
1
11
90.105
21
157.83
31
0
0
LINE
8
DIM
10
110.505
20
112.85
30
0
11
110.505
21
142.85
31
0
0
SOLID
8
DIM
10
110.505
20
112.85
30
0
11
109.995
21
115.85
31
0
12
111.015
22
115.85
32
0
13
111.015
23
115.85
33
0
0
SOLID
8
DIM
10
110.505
20
132.85
30
0
11
111.015
21
129.85
31
0
12
109.995
22
129.85
32
0
13
109.995
23
129.85
33
0
0
TEXT
8
TEXT
10
110.505
20
144.45
30
0
40
3.5
1
%%c10
50
0
72
1
11
110.505
21
144.45
31
0
0
LINE
8
DIM
10
150.505
20
132.85
30
0
11
156.505
21
141.85
31
0
0
LINE
8
DIM
10
156.505
20
141.85
30
0
11
164.805
21
141.85
31
0
0
SOLID
8
DIM
10
150.505
20
132.85
30
0
11
149.265
21
130.071
31
0
12
148.417
22
130.637
32
0
13
148.417
23
130.637
33
0
0
TEXT
8
TEXT
10
157.505
20
143.25
30
0
40
3.5
1
M10
50
0
72
0
11
157.505
21
143.25
31
0
0
LINE
8
DIM
10
84.705
20
140.753
30
0
11
78.705
21
148.753
31
0
0
LINE
8
DIM
10
78.705
20
148.753
30
0
11
66.1
21
148.753
31
0
0
SOLID
8
DIM
10
84.705
20
140.753
30
0
11
86.913
21
138.659
31
0
12
86.097
22
138.047
32
0
13
86.097
23
138.047
33
0
0
TEXT
8
TEXT
10
77.705
20
150.153
30
0
40
3.5
1
1×30°
50
0
72
2
11
77.705
21
150.153
31
0
0
LINE
8
DIM
10
96.853
20
133.198
30
0
11
101.853
21
140.198
31
0
0
LINE
8
DIM
10
101.853
20
140.198
30
0
11
111.133
21
140.198
31
0
0
SOLID
8
DIM
10
96.853
20
133.198
30
0
11
95.524
21
130.46
31
0
12
94.694
22
131.053
32
0
13
94.694
23
131.053
33
0
0
TEXT
8
TEXT
10
102.853
20
141.598
30
0
40
3.5
1
R0.6
50
0
72
0
11
102.853
21
141.598
31
0
0
LINE
8
DIM
10
175.005
20
131.35
30
0
11
181.005
21
139.35
31
0
0
LINE
8
DIM
10
181.005
20
139.35
30
0
11
190.285
21
139.35
31
0
0
SOLID
8
DIM
10
175.005
20
131.35
30
0
11
173.613
21
128.644
31
0
12
172.797
22
129.256
32
0
13
172.797
23
129.256
33
0
0
TEXT
8
TEXT
10
182.005
20
140.75
30
0
40
3.5
1
C1.5
50
0
72
0
11
182.005
21
140.75
31
0
0
TEXT
8
TEXT
10
208.985
20
153.33
30
0
40
4
1
A-A
50
0
72
1
11
208.985
21
153.33
31
0
0
LINE
8
CENTER
10
187.505
20
122.85
30
0
11
230.465
21
122.85
31
0
0
LINE
8
CENTER
10
208.985
20
101.37
30
0
11
208.985
21
144.33
31
0
0
LINE
8
OUTLINE
10
218.223
20
138.85
30
0
11
199.747
21
138.85
31
0
0
LINE
8
OUTLINE
10
199.747
20
138.85
30
0
11
190.51
21
122.85
31
0
0
LINE
8
OUTLINE
10
190.51
20
122.85
30
0
11
199.747
21
106.85
31
0
0
LINE
8
OUTLINE
10
199.747
20
106.85
30
0
11
218.223
21
106.85
31
0
0
LINE
8
OUTLINE
10
218.223
20
106.85
30
0
11
227.46
21
122.85
31
0
0
LINE
8
OUTLINE
10
227.46
20
122.85
30
0
11
218.223
21
138.85
31
0
0
LINE
8
DIM
10
219.223
20
138.85
30
0
11
236.465
21
138.85
31
0
0
LINE
8
DIM
10
219.223
20
106.85
30
0
11
236.465
21
106.85
31
0
0
LINE
8
DIM
10
234.465
20
106.85
30
0
11
234.465
21
138.85
31
0
0
SOLID
8
DIM
10
234.465
20
106.85
30
0
11
233.955
21
109.85
31
0
12
234.975
22
109.85
32
0
13
234.975
23
109.85
33
0
0
SOLID
8
DIM
10
234.465
20
138.85
30
0
11
234.975
21
135.85
31
0
12
233.955
22
135.85
32
0
13
233.955
23
135.85
33
0
0
TEXT
8
TEXT
10
232.665
20
122.85
30
0
40
3.5
1
16
50
90
72
1
11
232.665
21
122.85
31
0
0
LINE
8
HATCH
10
216.455
20
106.85
30
0
11
220.637
21
111.033
31
0
0
LINE
8
HATCH
10
212.919
20
106.85
30
0
11
225.467
21
119.398
31
0
0
LINE
8
HATCH
10
209.384
20
106.85
30
0
11
226.7
21
124.166
31
0
0
LINE
8
HATCH
10
205.848
20
106.85
30
0
11
225.406
21
126.408
31
0
0
LINE
8
HATCH
10
202.313
20
106.85
30
0
11
224.112
21
128.649
31
0
0
LINE
8
HATCH
10
199.392
20
107.465
30
0
11
222.818
21
130.891
31
0
0
LINE
8
HATCH
10
198.098
20
109.707
30
0
11
221.524
21
133.132
31
0
0
LINE
8
HATCH
10
196.804
20
111.948
30
0
11
220.23
21
135.374
31
0
0
LINE
8
HATCH
10
195.51
20
114.189
30
0
11
218.936
21
137.615
31
0
0
LINE
8
HATCH
10
194.216
20
116.431
30
0
11
216.635
21
138.85
31
0
0
LINE
8
HATCH
10
192.922
20
118.672
30
0
11
213.099
21
138.85
31
0
0
LINE
8
HATCH
10
191.628
20
120.914
30
0
11
209.564
21
138.85
31
0
0
LINE
8
HATCH
10
191.167
20
123.989
30
0
11
206.028
21
138.85
31
0
0
LINE
8
HATCH
10
195.997
20
132.354
30
0
11
202.493
21
138.85
31
0
0
LINE
8
FRAME
10
10
20
10
30
0
11
287
21
10
31
0
0
LINE
8
FRAME
10
287
20
10
30
0
11
287
21
200
31
0
0
LINE
8
FRAME
10
287
20
200
30
0
11
10
21
200
31
0
0
LINE
8
FRAME
10
10
20
200
30
0
11
10
21
10
31
0
0
LINE
8
FRAME
10
177
20
10
30
0
11
287
21
10
31
0
0
LINE
8
FRAME
10
287
20
10
30
0
11
287
21
34
31
0
0
LINE
8
FRAME
10
287
20
34
30
0
11
177
21
34
31
0
0
LINE
8
FRAME
10
177
20
34
30
0
11
177
21
10
31
0
0
LINE
8
FRAME
10
177
20
18
30
0
11
287
21
18
31
0
0
LINE
8
FRAME
10
177
20
26
30
0
11
287
21
26
31
0
0
LINE
8
FRAME
10
232
20
10
30
0
11
232
21
26
31
0
0
LINE
8
FRAME
10
255
20
26
30
0
11
255
21
34
31
0
0
TEXT
8
TEXT
10
179
20
28.5
30
0
40
4.2
1
VRINGON
72
0
11
179
21
28.5
31
0
0
TEXT
8
TEXT
10
257
20
28.5
30
0
40
2.5
1
도번 VR-RB-013
72
0
11
257
21
28.5
31
0
0
TEXT
8
TEXT
10
179
20
20.5
30
0
40
2.8
1
품명 육각 볼트 M10×40
72
0
11
179
21
20.5
31
0
0
TEXT
8
TEXT
10
234
20
20.5
30
0
40
2.8
1
재질 SCM435
72
0
11
234
21
20.5
31
0
0
TEXT
8
TEXT
10
179
20
12.5
30
0
40
2.5
1
척도 2:1
72
0
11
179
21
12.5
31
0
0
TEXT
8
TEXT
10
234
20
12.5
30
0
40
2.5
1
3각법 · 단위 mm
72
0
11
234
21
12.5
31
0
0
CIRCLE
8
FRAME
10
269
20
16.5
30
0
40
2.4
0
CIRCLE
8
FRAME
10
269
20
16.5
30
0
40
1.2
0
LINE
8
FRAME
10
274.5
20
13.9
30
0
11
281
21
15.1
31
0
0
LINE
8
FRAME
10
281
20
15.1
30
0
11
281
21
17.9
31
0
0
LINE
8
FRAME
10
281
20
17.9
30
0
11
274.5
21
19.1
31
0
0
LINE
8
FRAME
10
274.5
20
19.1
30
0
11
274.5
21
13.9
31
0
0
TEXT
8
TEXT
10
14
20
18.2
30
0
40
2.6
1
1. 지시 없는 모따기 C0.5
72
0
11
14
21
18.2
31
0
0
TEXT
8
TEXT
10
14
20
14
30
0
40
2.6
1
2. 지시 없는 공차 KS B ISO 2768-m
72
0
11
14
21
14
31
0
0
ENDSEC
0
EOF
