#usda 1.0
(
    defaultPrim = "hex_bolt_m10"
    metersPerUnit = 0.001
    upAxis = "Y"
    doc = "VRINGON revolve part — CadQuery executor"
)

def Xform "hex_bolt_m10" (
    kind = "component"
)
{
    custom string vringon:dsl_version = "vringon-shaft/1.0"
    custom string vringon:dsl_json = "{\"dsl\":\"vringon-shaft/1.0\",\"id\":\"hex-bolt-m10\",\"name\":\"Hex bolt M10x40\",\"name_ko\":\"육각 볼트 M10×40\",\"part_class\":\"other\",\"units\":\"mm\",\"material\":\"SCM435\",\"drawing\":{\"number\":\"VR-RB-013\",\"scale\":\"2:1\",\"projection\":\"third\"},\"segments\":[{\"type\":\"cyl\",\"length\":6.4,\"diameter\":18.48,\"label\":\"육각 머리\"},{\"type\":\"cyl\",\"length\":14,\"diameter\":10},{\"type\":\"thread\",\"length\":26,\"diameter\":10,\"spec\":\"M10\",\"pitch\":1.5}],\"transitions\":[{\"at\":0,\"type\":\"chamfer\",\"size\":1,\"angle\":30},{\"at\":1,\"type\":\"fillet\",\"radius\":0.6},{\"at\":3,\"type\":\"chamfer\",\"size\":1.5}],\"grooves\":[],\"bore\":null,\"features\":[{\"type\":\"hex\",\"segment\":0,\"across_flats\":16}],\"meta\":{\"source\":\"golden\",\"difficulty\":3}}"
    custom string vringon:name_ko = "육각 볼트 M10×40"
    custom string vringon:material = "SCM435"
    custom double vringon:length_mm = 46.4
    custom double vringon:max_diameter_mm = 18.48
    custom double vringon:volume_mm3 = 4530.006
    custom double[] vringon:segment_lengths_mm = [6.4, 14, 26]
    custom string[] vringon:segment_types = ["cyl", "cyl", "thread"]
    custom string[] vringon:threads = ["M10"]
    custom string[] vringon:features = ["hex"]

    def Mesh "body"
    {
        float3[] extent = [(0.0000, -8.0000, -9.2376), (46.4000, 8.0000, 9.2376)]
        int[] faceVertexCounts = [3, 3, 3, 3, 3, 3, 3, 3, 3, 3, 3, 3, 3, 3, 3, 3, 3, 3, 3, 3, 3, 3, 3, 3, 3, 3, 3, 3, 3, 3, 3, 3, 3, 3, 3, 3, 3, 3, 3, 3, 3, 3, 3, 3, 3, 3, 3, 3, 3, 3, 3, 3, 3, 3, 3, 3, 3, 3, 3, 3, 3, 3, 3, 3, 3, 3, 3, 3, 3, 3, 3, 3, 3, 3, 3, 3, 3, 3, 3, 3, 3, 3, 3, 3, 3, 3, 3, 3, 3, 3, 3, 3, 3, 3, 3, 3, 3, 3, 3, 3, 3, 3, 3, 3, 3, 3, 3, 3, 3, 3, 3, 3, 3, 3, 3, 3, 3, 3, 3, 3, 3, 3, 3, 3, 3, 3, 3, 3, 3, 3, 3, 3, 3, 3, 3, 3, 3, 3, 3, 3, 3, 3, 3, 3, 3, 3, 3, 3, 3, 3, 3, 3, 3, 3, 3, 3, 3, 3, 3, 3, 3, 3, 3, 3, 3, 3, 3, 3, 3, 3, 3, 3, 3, 3, 3, 3, 3, 3, 3, 3, 3, 3, 3, 3, 3, 3, 3, 3, 3, 3, 3, 3, 3, 3, 3, 3, 3, 3, 3, 3, 3, 3, 3, 3, 3, 3, 3, 3, 3, 3, 3, 3, 3, 3, 3, 3, 3, 3, 3, 3, 3, 3, 3, 3, 3, 3, 3, 3, 3, 3, 3, 3, 3, 3, 3, 3, 3, 3, 3, 3, 3, 3, 3, 3, 3, 3, 3, 3, 3, 3, 3, 3, 3, 3, 3, 3, 3, 3, 3, 3, 3, 3, 3, 3, 3, 3, 3, 3, 3, 3, 3, 3, 3, 3, 3, 3, 3, 3, 3, 3, 3, 3, 3, 3, 3, 3, 3, 3, 3, 3, 3, 3, 3, 3, 3, 3, 3, 3, 3, 3, 3, 3, 3, 3, 3, 3, 3, 3, 3, 3, 3, 3, 3, 3, 3, 3, 3, 3, 3, 3, 3, 3, 3, 3, 3, 3, 3, 3, 3, 3, 3, 3, 3, 3, 3, 3, 3, 3, 3, 3, 3, 3, 3, 3, 3, 3, 3, 3, 3, 3, 3, 3, 3, 3, 3, 3, 3, 3, 3, 3, 3, 3, 3, 3, 3, 3, 3, 3, 3, 3, 3, 3, 3, 3, 3, 3, 3, 3, 3, 3, 3, 3, 3, 3, 3, 3, 3, 3, 3, 3, 3, 3, 3, 3, 3, 3, 3, 3, 3, 3, 3, 3, 3, 3, 3, 3, 3, 3, 3, 3, 3, 3, 3, 3, 3, 3, 3, 3, 3, 3, 3, 3, 3, 3, 3, 3, 3, 3, 3, 3, 3, 3, 3, 3, 3, 3, 3, 3, 3, 3, 3, 3, 3, 3, 3, 3, 3, 3, 3, 3, 3, 3, 3, 3, 3, 3, 3, 3, 3, 3, 3, 3, 3, 3, 3, 3, 3, 3, 3, 3, 3, 3, 3, 3, 3, 3, 3, 3, 3, 3, 3, 3, 3, 3, 3, 3, 3, 3, 3, 3, 3, 3, 3, 3, 3, 3, 3, 3, 3, 3, 3, 3, 3, 3, 3, 3, 3, 3, 3, 3, 3, 3, 3, 3, 3, 3, 3, 3, 3, 3, 3, 3, 3, 3, 3, 3, 3, 3, 3, 3, 3, 3, 3, 3, 3, 3, 3, 3, 3, 3, 3, 3, 3, 3, 3, 3, 3, 3, 3, 3, 3, 3, 3, 3, 3, 3, 3, 3, 3, 3, 3, 3, 3, 3, 3, 3, 3, 3, 3, 3, 3, 3, 3, 3, 3, 3, 3, 3, 3, 3, 3, 3, 3, 3, 3, 3, 3, 3, 3, 3, 3, 3, 3, 3, 3, 3, 3, 3, 3, 3, 3, 3, 3, 3, 3, 3, 3, 3, 3, 3, 3, 3, 3, 3, 3, 3, 3, 3, 3, 3, 3, 3, 3, 3, 3, 3, 3, 3, 3, 3, 3, 3, 3, 3, 3, 3, 3, 3, 3, 3, 3, 3, 3, 3, 3, 3, 3, 3, 3, 3, 3, 3, 3, 3, 3, 3, 3, 3, 3, 3, 3, 3, 3, 3, 3, 3, 3, 3, 3, 3, 3, 3, 3, 3, 3, 3, 3, 3, 3, 3, 3, 3, 3, 3, 3, 3, 3, 3, 3, 3, 3, 3, 3, 3, 3, 3, 3, 3, 3, 3, 3, 3, 3, 3, 3, 3, 3, 3, 3, 3, 3, 3, 3, 3, 3, 3, 3, 3, 3, 3, 3, 3, 3, 3, 3, 3, 3, 3, 3, 3, 3, 3, 3, 3, 3, 3, 3, 3, 3, 3, 3, 3, 3, 3, 3, 3, 3, 3, 3, 3, 3, 3, 3, 3, 3, 3, 3, 3, 3, 3, 3, 3, 3, 3, 3, 3, 3, 3, 3, 3, 3, 3, 3, 3, 3, 3, 3, 3, 3, 3, 3, 3, 3, 3, 3, 3, 3, 3, 3, 3, 3, 3, 3, 3, 3, 3, 3, 3, 3, 3, 3, 3, 3, 3, 3, 3, 3, 3, 3, 3, 3, 3, 3, 3, 3, 3, 3, 3, 3, 3, 3, 3, 3, 3, 3, 3, 3, 3, 3, 3, 3, 3, 3, 3, 3, 3, 3, 3, 3, 3, 3, 3, 3, 3, 3, 3, 3, 3, 3, 3, 3, 3, 3, 3, 3, 3, 3, 3, 3, 3, 3, 3, 3, 3, 3, 3, 3, 3, 3, 3, 3, 3, 3, 3, 3, 3, 3, 3, 3, 3, 3, 3, 3, 3, 3, 3, 3, 3, 3, 3, 3, 3, 3, 3, 3, 3, 3, 3, 3, 3, 3, 3, 3, 3, 3, 3, 3, 3, 3, 3, 3, 3, 3, 3, 3, 3, 3, 3, 3, 3, 3, 3, 3, 3, 3, 3, 3, 3, 3, 3, 3, 3, 3, 3, 3, 3, 3, 3, 3, 3, 3, 3, 3, 3, 3, 3, 3, 3, 3, 3, 3, 3, 3, 3, 3, 3, 3, 3, 3, 3, 3, 3, 3, 3, 3, 3, 3, 3, 3, 3, 3, 3, 3, 3, 3, 3, 3, 3, 3, 3, 3, 3, 3, 3, 3, 3, 3, 3, 3, 3, 3, 3, 3, 3, 3, 3, 3, 3, 3, 3, 3, 3, 3, 3, 3, 3, 3, 3, 3, 3, 3, 3, 3, 3, 3, 3, 3, 3, 3, 3, 3, 3, 3, 3, 3, 3, 3, 3, 3, 3, 3, 3, 3, 3, 3, 3, 3, 3, 3, 3, 3, 3, 3, 3, 3, 3, 3, 3, 3, 3, 3, 3, 3, 3, 3, 3, 3, 3, 3, 3, 3, 3, 3, 3, 3, 3, 3, 3, 3, 3, 3, 3, 3, 3, 3, 3, 3, 3, 3, 3, 3, 3, 3, 3, 3, 3, 3, 3, 3, 3, 3, 3, 3, 3, 3, 3, 3, 3, 3, 3, 3, 3, 3, 3, 3, 3, 3, 3, 3, 3, 3, 3, 3, 3, 3, 3, 3, 3, 3, 3, 3, 3, 3, 3, 3, 3, 3, 3, 3, 3, 3, 3, 3, 3, 3, 3, 3, 3, 3, 3, 3, 3, 3, 3, 3, 3, 3, 3, 3, 3, 3, 3, 3, 3, 3, 3, 3, 3, 3, 3, 3, 3, 3, 3, 3, 3, 3, 3, 3, 3, 3, 3, 3, 3, 3, 3, 3, 3, 3, 3, 3, 3, 3, 3, 3, 3, 3, 3, 3, 3, 3, 3, 3, 3, 3, 3, 3, 3, 3, 3, 3, 3, 3, 3, 3, 3, 3, 3, 3, 3, 3, 3, 3, 3, 3, 3, 3, 3, 3, 3, 3, 3, 3, 3, 3, 3, 3, 3, 3, 3, 3, 3, 3, 3, 3, 3, 3, 3, 3, 3, 3, 3, 3, 3, 3, 3, 3, 3, 3, 3, 3, 3, 3, 3, 3, 3, 3, 3, 3, 3, 3, 3, 3, 3, 3, 3, 3, 3, 3, 3, 3, 3, 3, 3, 3, 3, 3, 3, 3, 3, 3, 3, 3, 3, 3, 3, 3, 3, 3, 3, 3, 3, 3, 3, 3, 3, 3, 3, 3, 3, 3, 3, 3, 3, 3, 3, 3, 3, 3, 3, 3, 3, 3, 3, 3, 3, 3, 3, 3, 3, 3, 3, 3, 3, 3, 3, 3, 3, 3, 3, 3, 3, 3, 3, 3, 3, 3, 3, 3, 3, 3, 3, 3, 3, 3, 3, 3, 3, 3, 3, 3, 3, 3, 3, 3, 3, 3, 3, 3, 3, 3, 3, 3, 3, 3, 3, 3, 3, 3, 3, 3, 3, 3, 3, 3, 3, 3, 3, 3, 3, 3, 3, 3, 3, 3, 3, 3, 3, 3, 3, 3, 3, 3, 3, 3, 3, 3, 3, 3, 3, 3, 3, 3, 3, 3, 3, 3, 3, 3, 3, 3, 3, 3, 3, 3, 3, 3, 3, 3, 3, 3, 3, 3, 3, 3, 3, 3, 3, 3, 3, 3, 3, 3, 3, 3, 3, 3, 3, 3, 3, 3, 3, 3, 3, 3, 3, 3, 3, 3, 3, 3, 3, 3, 3, 3, 3, 3, 3, 3, 3, 3, 3, 3, 3, 3, 3, 3, 3, 3, 3, 3, 3, 3, 3, 3, 3, 3, 3, 3, 3, 3, 3, 3, 3, 3, 3, 3, 3, 3, 3, 3, 3, 3, 3, 3, 3, 3, 3, 3, 3, 3, 3, 3, 3, 3, 3, 3, 3, 3, 3, 3, 3, 3, 3, 3, 3, 3, 3, 3, 3, 3, 3, 3, 3, 3, 3, 3, 3, 3, 3, 3, 3, 3, 3, 3, 3, 3, 3, 3, 3, 3, 3, 3, 3, 3, 3, 3, 3, 3, 3, 3, 3, 3, 3, 3, 3, 3, 3, 3, 3, 3, 3, 3, 3, 3, 3, 3, 3, 3, 3, 3, 3, 3, 3, 3, 3, 3, 3, 3, 3, 3, 3, 3, 3, 3, 3, 3, 3, 3, 3, 3, 3, 3, 3, 3, 3, 3, 3, 3, 3, 3, 3, 3, 3, 3, 3, 3, 3, 3, 3, 3, 3, 3, 3, 3, 3, 3, 3, 3, 3, 3, 3, 3, 3, 3, 3, 3, 3, 3, 3, 3, 3, 3, 3, 3, 3, 3, 3, 3, 3, 3, 3, 3, 3, 3, 3, 3, 3, 3, 3, 3, 3, 3, 3, 3, 3, 3, 3, 3, 3, 3, 3, 3, 3, 3, 3, 3, 3, 3, 3, 3, 3, 3, 3, 3, 3, 3, 3, 3, 3, 3, 3, 3, 3, 3, 3, 3, 3, 3, 3, 3, 3, 3, 3, 3, 3, 3, 3, 3, 3, 3, 3, 3, 3, 3, 3, 3, 3, 3, 3, 3, 3, 3, 3, 3, 3, 3, 3, 3, 3, 3, 3, 3, 3, 3, 3, 3, 3, 3, 3, 3, 3, 3, 3, 3, 3, 3, 3, 3, 3, 3, 3, 3, 3, 3, 3, 3, 3, 3, 3, 3, 3, 3, 3, 3, 3, 3, 3, 3, 3, 3, 3, 3, 3, 3, 3, 3, 3, 3, 3, 3, 3, 3, 3, 3, 3, 3, 3, 3, 3, 3, 3, 3, 3, 3, 3, 3, 3, 3, 3, 3, 3, 3, 3, 3, 3, 3, 3, 3, 3, 3, 3, 3, 3, 3, 3, 3, 3, 3, 3, 3, 3, 3, 3, 3, 3, 3, 3, 3, 3, 3, 3, 3, 3, 3, 3, 3, 3, 3, 3, 3, 3, 3, 3, 3, 3, 3, 3, 3, 3, 3, 3, 3, 3, 3, 3, 3, 3, 3, 3, 3, 3, 3, 3, 3, 3, 3, 3, 3, 3, 3, 3, 3, 3, 3, 3, 3, 3, 3, 3, 3, 3, 3, 3, 3, 3, 3, 3, 3, 3, 3, 3, 3, 3, 3, 3, 3, 3, 3, 3, 3, 3, 3, 3, 3, 3, 3, 3, 3, 3, 3, 3, 3, 3, 3, 3]
        int[] faceVertexIndices = [66, 0, 1, 66, 65, 0, 67, 1, 2, 67, 66, 1, 68, 2, 3, 68, 67, 2, 69, 3, 4, 69, 68, 3, 70, 4, 5, 70, 69, 4, 6, 70, 5, 71, 70, 6, 72, 6, 7, 72, 71, 6, 73, 7, 8, 73, 72, 7, 74, 8, 9, 74, 73, 8, 10, 74, 9, 75, 74, 10, 76, 10, 11, 76, 75, 10, 77, 11, 12, 77, 76, 11, 13, 77, 12, 78, 77, 13, 79, 13, 14, 79, 78, 13, 80, 14, 15, 80, 79, 14, 81, 15, 16, 81, 80, 15, 82, 16, 17, 82, 81, 16, 83, 17, 18, 83, 82, 17, 84, 83, 18, 84, 18, 19, 85, 84, 19, 85, 19, 20, 86, 85, 20, 86, 20, 21, 87, 86, 21, 87, 21, 22, 88, 87, 22, 88, 22, 23, 89, 23, 24, 89, 88, 23, 90, 24, 25, 90, 89, 24, 91, 25, 26, 91, 90, 25, 92, 26, 27, 92, 91, 26, 93, 27, 28, 93, 92, 27, 94, 28, 29, 94, 93, 28, 95, 29, 30, 95, 94, 29, 96, 30, 31, 96, 95, 30, 32, 96, 31, 97, 96, 32, 98, 32, 33, 98, 97, 32, 99, 33, 34, 99, 98, 33, 35, 99, 34, 100, 99, 35, 101, 35, 36, 101, 100, 35, 102, 36, 37, 102, 101, 36, 103, 37, 38, 103, 102, 37, 104, 38, 39, 104, 103, 38, 40, 104, 39, 105, 104, 40, 106, 40, 41, 106, 105, 40, 107, 41, 42, 107, 106, 41, 108, 107, 42, 108, 42, 43, 109, 43, 44, 109, 108, 43, 110, 109, 44, 110, 44, 45, 111, 110, 45, 111, 45, 46, 112, 111, 46, 112, 46, 47, 113, 112, 47, 113, 47, 48, 114, 113, 48, 114, 48, 49, 50, 114, 49, 115, 114, 50, 116, 115, 50, 116, 50, 51, 117, 116, 51, 117, 51, 52, 118, 117, 52, 118, 52, 53, 119, 118, 53, 119, 53, 54, 120, 119, 54, 120, 54, 55, 121, 120, 55, 121, 55, 56, 122, 121, 56, 122, 56, 57, 123, 57, 58, 123, 122, 57, 124, 58, 59, 124, 123, 58, 125, 59, 60, 125, 124, 59, 126, 60, 61, 126, 125, 60, 62, 126, 61, 127, 126, 62, 63, 127, 62, 64, 127, 63, 194, 128, 129, 194, 193, 128, 195, 129, 130, 195, 194, 129, 196, 130, 131, 196, 195, 130, 197, 131, 132, 197, 196, 131, 198, 132, 133, 198, 197, 132, 199, 133, 134, 199, 198, 133, 200, 134, 135, 200, 199, 134, 136, 200, 135, 201, 200, 136, 202, 136, 137, 202, 201, 136, 203, 137, 138, 203, 202, 137, 139, 203, 138, 204, 203, 139, 205, 139, 140, 205, 204, 139, 206, 140, 141, 206, 205, 140, 142, 206, 141, 207, 206, 142, 208, 142, 143, 208, 207, 142, 209, 143, 144, 209, 208, 143, 210, 144, 145, 210, 209, 144, 211, 145, 146, 211, 210, 145, 212, 211, 146, 212, 146, 147, 213, 212, 147, 213, 147, 148, 214, 213, 148, 214, 148, 149, 215, 214, 149, 215, 149, 150, 216, 215, 150, 216, 150, 151, 217, 151, 152, 217, 216, 151, 218, 152, 153, 218, 217, 152, 154, 218, 153, 219, 218, 154, 155, 219, 154, 220, 219, 155, 221, 155, 156, 221, 220, 155, 222, 156, 157, 222, 221, 156, 223, 157, 158, 223, 222, 157, 159, 223, 158, 224, 223, 159, 225, 159, 160, 225, 224, 159, 226, 160, 161, 226, 225, 160, 162, 226, 161, 227, 226, 162, 228, 162, 163, 228, 227, 162, 164, 228, 163, 229, 228, 164, 165, 229, 164, 230, 229, 165, 231, 165, 166, 231, 230, 165, 232, 166, 167, 232, 231, 166, 168, 232, 167, 233, 232, 168, 234, 168, 169, 234, 233, 168, 170, 234, 169, 235, 234, 170, 236, 235, 170, 236, 170, 171, 237, 236, 171, 237, 171, 172, 238, 237, 172, 238, 172, 173, 239, 238, 173, 239, 173, 174, 240, 239, 174, 240, 174, 175, 241, 240, 175, 241, 175, 176, 242, 241, 176, 242, 176, 177, 243, 242, 177, 243, 177, 178, 244, 243, 178, 244, 178, 179, 245, 244, 179, 245, 179, 180, 246, 245, 180, 246, 180, 181, 247, 246, 181, 247, 181, 182, 248, 247, 182, 248, 182, 183, 249, 248, 183, 249, 183, 184, 250, 249, 184, 250, 184, 185, 251, 185, 186, 251, 250, 185, 252, 186, 187, 252, 251, 186, 253, 187, 188, 253, 252, 187, 254, 188, 189, 254, 253, 188, 255, 189, 190, 255, 254, 189, 192, 190, 191, 192, 255, 190, 322, 256, 257, 322, 321, 256, 323, 257, 258, 323, 322, 257, 324, 258, 259, 324, 323, 258, 325, 259, 260, 325, 324, 259, 326, 260, 261, 326, 325, 260, 327, 261, 262, 327, 326, 261, 328, 262, 263, 328, 327, 262, 329, 263, 264, 329, 328, 263, 265, 329, 264, 330, 329, 265, 331, 265, 266, 331, 330, 265, 332, 266, 267, 332, 331, 266, 333, 267, 268, 333, 332, 267, 269, 333, 268, 334, 333, 269, 335, 269, 270, 335, 334, 269, 271, 335, 270, 336, 335, 271, 337, 271, 272, 337, 336, 271, 338, 272, 273, 338, 337, 272, 339, 273, 274, 339, 338, 273, 340, 339, 274, 340, 274, 275, 341, 340, 275, 341, 275, 276, 342, 341, 276, 342, 276, 277, 343, 342, 277, 343, 277, 278, 344, 343, 278, 344, 278, 279, 345, 279, 280, 345, 344, 279, 346, 280, 281, 346, 345, 280, 347, 281, 282, 347, 346, 281, 348, 282, 283, 348, 347, 282, 284, 348, 283, 349, 348, 284, 350, 284, 285, 350, 349, 284, 351, 285, 286, 351, 350, 285, 287, 351, 286, 352, 351, 287, 353, 287, 288, 353, 352, 287, 289, 353, 288, 354, 353, 289, 290, 354, 289, 355, 354, 290, 356, 290, 291, 356, 355, 290, 357, 291, 292, 357, 356, 291, 293, 357, 292, 358, 357, 293, 294, 358, 293, 359, 358, 294, 360, 294, 295, 360, 359, 294, 361, 295, 296, 361, 360, 295, 297, 361, 296, 362, 361, 297, 298, 362, 297, 363, 362, 298, 299, 363, 298, 364, 363, 299, 365, 364, 299, 365, 299, 300, 366, 365, 300, 366, 300, 301, 367, 366, 301, 367, 301, 302, 368, 367, 302, 368, 302, 303, 369, 368, 303, 369, 303, 304, 370, 369, 304, 370, 304, 305, 371, 370, 305, 371, 305, 306, 372, 371, 306, 372, 306, 307, 373, 372, 307, 373, 307, 308, 374, 373, 308, 374, 308, 309, 375, 374, 309, 375, 309, 310, 376, 375, 310, 376, 310, 311, 377, 376, 311, 377, 311, 312, 378, 377, 312, 378, 312, 313, 379, 313, 314, 379, 378, 313, 380, 314, 315, 380, 379, 314, 381, 315, 316, 381, 380, 315, 382, 316, 317, 382, 381, 316, 383, 317, 318, 383, 382, 317, 320, 318, 319, 320, 383, 318, 450, 384, 385, 450, 449, 384, 451, 385, 386, 451, 450, 385, 452, 386, 387, 452, 451, 386, 453, 387, 388, 453, 452, 387, 454, 388, 389, 454, 453, 388, 455, 389, 390, 455, 454, 389, 456, 390, 391, 456, 455, 390, 457, 391, 392, 457, 456, 391, 393, 457, 392, 458, 457, 393, 459, 393, 394, 459, 458, 393, 460, 394, 395, 460, 459, 394, 396, 460, 395, 461, 460, 396, 397, 461, 396, 462, 461, 397, 463, 397, 398, 463, 462, 397, 464, 398, 399, 464, 463, 398, 400, 464, 399, 465, 464, 400, 466, 400, 401, 466, 465, 400, 467, 401, 402, 467, 466, 401, 468, 467, 402, 468, 402, 403, 469, 468, 403, 469, 403, 404, 470, 469, 404, 470, 404, 405, 471, 470, 405, 471, 405, 406, 472, 471, 406, 472, 406, 407, 473, 407, 408, 473, 472, 407, 474, 408, 409, 474, 473, 408, 475, 409, 410, 475, 474, 409, 476, 410, 411, 476, 475, 410, 477, 411, 412, 477, 476, 411, 478, 412, 413, 478, 477, 412, 479, 413, 414, 479, 478, 413, 480, 414, 415, 480, 479, 414, 481, 415, 416, 481, 480, 415, 482, 416, 417, 482, 481, 416, 483, 417, 418, 483, 482, 417, 419, 483, 418, 484, 483, 419, 420, 484, 419, 485, 484, 420, 486, 420, 421, 486, 485, 420, 422, 486, 421, 487, 486, 422, 488, 422, 423, 488, 487, 422, 489, 423, 424, 489, 488, 423, 425, 489, 424, 490, 489, 425, 491, 425, 426, 491, 490, 425, 492, 491, 426, 492, 426, 427, 493, 427, 428, 493, 492, 427, 494, 493, 428, 494, 428, 429, 495, 494, 429, 495, 429, 430, 496, 495, 430, 496, 430, 431, 497, 496, 431, 497, 431, 432, 498, 497, 432, 498, 432, 433, 499, 498, 433, 499, 433, 434, 500, 499, 434, 500, 434, 435, 501, 500, 435, 501, 435, 436, 502, 501, 436, 502, 436, 437, 503, 502, 437, 503, 437, 438, 504, 503, 438, 504, 438, 439, 505, 504, 439, 505, 439, 440, 506, 505, 440, 506, 440, 441, 507, 441, 442, 507, 506, 441, 508, 442, 443, 508, 507, 442, 509, 443, 444, 509, 508, 443, 510, 444, 445, 510, 509, 444, 511, 445, 446, 511, 510, 445, 448, 446, 447, 448, 511, 446, 578, 512, 513, 578, 577, 512, 579, 513, 514, 579, 578, 513, 580, 514, 515, 580, 579, 514, 581, 515, 516, 581, 580, 515, 582, 516, 517, 582, 581, 516, 518, 582, 517, 583, 582, 518, 584, 518, 519, 584, 583, 518, 585, 519, 520, 585, 584, 519, 586, 520, 521, 586, 585, 520, 587, 521, 522, 587, 586, 521, 588, 522, 523, 588, 587, 522, 589, 523, 524, 589, 588, 523, 590, 524, 525, 590, 589, 524, 591, 525, 526, 591, 590, 525, 592, 526, 527, 592, 591, 526, 593, 527, 528, 593, 592, 527, 594, 528, 529, 594, 593, 528, 530, 594, 529, 595, 594, 530, 596, 595, 530, 596, 530, 531, 597, 596, 531, 597, 531, 532, 598, 597, 532, 598, 532, 533, 599, 598, 533, 599, 533, 534, 600, 599, 534, 600, 534, 535, 601, 535, 536, 601, 600, 535, 602, 536, 537, 602, 601, 536, 603, 537, 538, 603, 602, 537, 604, 538, 539, 604, 603, 538, 605, 539, 540, 605, 604, 539, 606, 540, 541, 606, 605, 540, 607, 541, 542, 607, 606, 541, 543, 607, 542, 608, 607, 543, 609, 543, 544, 609, 608, 543, 610, 544, 545, 610, 609, 544, 611, 545, 546, 611, 610, 545, 612, 546, 547, 612, 611, 546, 613, 547, 548, 613, 612, 547, 614, 548, 549, 614, 613, 548, 550, 614, 549, 615, 614, 550, 616, 550, 551, 616, 615, 550, 617, 551, 552, 617, 616, 551, 618, 552, 553, 618, 617, 552, 619, 553, 554, 619, 618, 553, 620, 619, 554, 620, 554, 555, 621, 555, 556, 621, 620, 555, 622, 621, 556, 622, 556, 557, 623, 622, 557, 623, 557, 558, 624, 623, 558, 624, 558, 559, 625, 624, 559, 625, 559, 560, 626, 625, 560, 626, 560, 561, 627, 626, 561, 627, 561, 562, 628, 627, 562, 628, 562, 563, 629, 628, 563, 629, 563, 564, 630, 629, 564, 630, 564, 565, 631, 630, 565, 631, 565, 566, 632, 631, 566, 632, 566, 567, 633, 632, 567, 633, 567, 568, 634, 633, 568, 634, 568, 569, 635, 569, 570, 635, 634, 569, 636, 570, 571, 636, 635, 570, 637, 571, 572, 637, 636, 571, 638, 572, 573, 638, 637, 572, 639, 573, 574, 639, 638, 573, 576, 574, 575, 576, 639, 574, 706, 640, 641, 706, 705, 640, 707, 641, 642, 707, 706, 641, 708, 642, 643, 708, 707, 642, 709, 643, 644, 709, 708, 643, 710, 644, 645, 710, 709, 644, 711, 645, 646, 711, 710, 645, 712, 646, 647, 712, 711, 646, 713, 647, 648, 713, 712, 647, 649, 713, 648, 714, 713, 649, 650, 714, 649, 715, 714, 650, 716, 650, 651, 716, 715, 650, 717, 651, 652, 717, 716, 651, 718, 652, 653, 718, 717, 652, 719, 653, 654, 719, 718, 653, 720, 654, 655, 720, 719, 654, 721, 655, 656, 721, 720, 655, 722, 656, 657, 722, 721, 656, 658, 722, 657, 723, 722, 658, 724, 723, 658, 724, 658, 659, 725, 724, 659, 725, 659, 660, 661, 725, 660, 726, 725, 661, 727, 726, 661, 727, 661, 662, 728, 727, 662, 728, 662, 663, 664, 728, 663, 729, 728, 664, 730, 664, 665, 730, 729, 664, 666, 730, 665, 731, 730, 666, 667, 731, 666, 732, 731, 667, 733, 667, 668, 733, 732, 667, 734, 668, 669, 734, 733, 668, 670, 734, 669, 735, 734, 670, 736, 670, 671, 736, 735, 670, 737, 671, 672, 737, 736, 671, 673, 737, 672, 738, 737, 673, 674, 738, 673, 739, 738, 674, 740, 674, 675, 740, 739, 674, 676, 740, 675, 741, 740, 676, 742, 676, 677, 742, 741, 676, 678, 742, 677, 743, 742, 678, 744, 678, 679, 744, 743, 678, 680, 744, 679, 745, 744, 680, 746, 680, 681, 746, 745, 680, 682, 746, 681, 747, 746, 682, 748, 747, 682, 748, 682, 683, 684, 748, 683, 749, 748, 684, 750, 749, 684, 750, 684, 685, 751, 750, 685, 751, 685, 686, 752, 751, 686, 752, 686, 687, 753, 752, 687, 753, 687, 688, 754, 753, 688, 754, 688, 689, 755, 754, 689, 755, 689, 690, 756, 755, 690, 756, 690, 691, 757, 756, 691, 757, 691, 692, 758, 757, 692, 758, 692, 693, 759, 758, 693, 759, 693, 694, 760, 759, 694, 760, 694, 695, 761, 760, 695, 761, 695, 696, 762, 761, 696, 762, 696, 697, 763, 697, 698, 763, 762, 697, 764, 698, 699, 764, 763, 698, 765, 699, 700, 765, 764, 699, 701, 765, 700, 766, 765, 701, 767, 701, 702, 767, 766, 701, 703, 767, 702, 704, 767, 703, 834, 768, 769, 834, 833, 768, 835, 769, 770, 835, 834, 769, 836, 770, 771, 836, 835, 770, 837, 771, 772, 837, 836, 771, 838, 772, 773, 838, 837, 772, 839, 773, 774, 839, 838, 773, 840, 774, 775, 840, 839, 774, 841, 775, 776, 841, 840, 775, 842, 776, 777, 842, 841, 776, 843, 777, 778, 843, 842, 777, 844, 778, 779, 844, 843, 778, 780, 844, 779, 845, 844, 780, 846, 780, 781, 846, 845, 780, 847, 781, 782, 847, 846, 781, 848, 782, 783, 848, 847, 782, 849, 783, 784, 849, 848, 783, 850, 784, 785, 850, 849, 784, 786, 850, 785, 851, 850, 786, 852, 851, 786, 852, 786, 787, 853, 852, 787, 853, 787, 788, 854, 853, 788, 854, 788, 789, 790, 854, 789, 855, 854, 790, 856, 855, 790, 856, 790, 791, 857, 791, 792, 857, 856, 791, 858, 792, 793, 858, 857, 792, 859, 793, 794, 859, 858, 793, 860, 794, 795, 860, 859, 794, 861, 795, 796, 861, 860, 795, 862, 796, 797, 862, 861, 796, 863, 797, 798, 863, 862, 797, 864, 798, 799, 864, 863, 798, 800, 864, 799, 865, 864, 800, 801, 865, 800, 866, 865, 801, 802, 866, 801, 867, 866, 802, 868, 802, 803, 868, 867, 802, 869, 803, 804, 869, 868, 803, 870, 804, 805, 870, 869, 804, 806, 870, 805, 871, 870, 806, 872, 806, 807, 872, 871, 806, 873, 807, 808, 873, 872, 807, 809, 873, 808, 874, 873, 809, 875, 809, 810, 875, 874, 809, 811, 875, 810, 876, 875, 811, 877, 876, 811, 877, 811, 812, 813, 877, 812, 878, 877, 813, 879, 878, 813, 879, 813, 814, 880, 879, 814, 880, 814, 815, 881, 880, 815, 881, 815, 816, 882, 881, 816, 882, 816, 817, 883, 882, 817, 883, 817, 818, 884, 883, 818, 884, 818, 819, 885, 884, 819, 885, 819, 820, 886, 885, 820, 886, 820, 821, 887, 886, 821, 887, 821, 822, 823, 887, 822, 888, 887, 823, 889, 888, 823, 889, 823, 824, 890, 889, 824, 890, 824, 825, 891, 825, 826, 891, 890, 825, 827, 891, 826, 892, 891, 827, 828, 892, 827, 893, 892, 828, 894, 828, 829, 894, 893, 828, 895, 829, 830, 895, 894, 829, 832, 830, 831, 832, 895, 830, 962, 896, 897, 962, 961, 896, 963, 897, 898, 963, 962, 897, 964, 898, 899, 964, 963, 898, 965, 899, 900, 965, 964, 899, 966, 900, 901, 966, 965, 900, 967, 901, 902, 967, 966, 901, 968, 902, 903, 968, 967, 902, 969, 903, 904, 969, 968, 903, 970, 904, 905, 970, 969, 904, 906, 970, 905, 971, 970, 906, 972, 906, 907, 972, 971, 906, 973, 907, 908, 973, 972, 907, 974, 908, 909, 974, 973, 908, 975, 909, 910, 975, 974, 909, 976, 910, 911, 976, 975, 910, 977, 911, 912, 977, 976, 911, 978, 912, 913, 978, 977, 912, 979, 913, 914, 979, 978, 913, 980, 979, 914, 980, 914, 915, 981, 980, 915, 981, 915, 916, 982, 981, 916, 982, 916, 917, 983, 982, 917, 983, 917, 918, 984, 983, 918, 984, 918, 919, 985, 919, 920, 985, 984, 919, 921, 985, 920, 986, 985, 921, 987, 921, 922, 987, 986, 921, 923, 987, 922, 988, 987, 923, 924, 988, 923, 989, 988, 924, 990, 924, 925, 990, 989, 924, 926, 990, 925, 991, 990, 926, 992, 926, 927, 992, 991, 926, 993, 927, 928, 993, 992, 927, 994, 928, 929, 994, 993, 928, 995, 929, 930, 995, 994, 929, 996, 930, 931, 996, 995, 930, 932, 996, 931, 997, 996, 932, 998, 932, 933, 998, 997, 932, 934, 998, 933, 999, 998, 934, 1000, 934, 935, 1000, 999, 934, 1001, 935, 936, 1001, 1000, 935, 1002, 936, 937, 1002, 1001, 936, 1003, 937, 938, 1003, 1002, 937, 1004, 1003, 938, 1004, 938, 939, 940, 1004, 939, 1005, 1004, 940, 1006, 1005, 940, 1006, 940, 941, 942, 1006, 941, 1007, 1006, 942, 1008, 1007, 942, 1008, 942, 943, 1009, 1008, 943, 1009, 943, 944, 1010, 1009, 944, 1010, 944, 945, 1011, 1010, 945, 1011, 945, 946, 1012, 1011, 946, 1012, 946, 947, 1013, 1012, 947, 1013, 947, 948, 1014, 1013, 948, 1014, 948, 949, 1015, 1014, 949, 1015, 949, 950, 1016, 1015, 950, 1016, 950, 951, 1017, 1016, 951, 1017, 951, 952, 1018, 1017, 952, 1018, 952, 953, 1019, 953, 954, 1019, 1018, 953, 1020, 954, 955, 1020, 1019, 954, 1021, 955, 956, 1021, 1020, 955, 1022, 956, 957, 1022, 1021, 956, 1023, 957, 958, 1023, 1022, 957, 960, 958, 959, 960, 1023, 958, 1090, 1024, 1025, 1090, 1089, 1024, 1091, 1025, 1026, 1091, 1090, 1025, 1092, 1026, 1027, 1092, 1091, 1026, 1093, 1027, 1028, 1093, 1092, 1027, 1094, 1028, 1029, 1094, 1093, 1028, 1095, 1029, 1030, 1095, 1094, 1029, 1096, 1030, 1031, 1096, 1095, 1030, 1097, 1031, 1032, 1097, 1096, 1031, 1098, 1032, 1033, 1098, 1097, 1032, 1099, 1033, 1034, 1099, 1098, 1033, 1035, 1099, 1034, 1100, 1099, 1035, 1101, 1035, 1036, 1101, 1100, 1035, 1102, 1036, 1037, 1102, 1101, 1036, 1038, 1102, 1037, 1103, 1102, 1038, 1104, 1038, 1039, 1104, 1103, 1038, 1105, 1039, 1040, 1105, 1104, 1039, 1106, 1040, 1041, 1106, 1105, 1040, 1042, 1106, 1041, 1107, 1106, 1042, 1108, 1107, 1042, 1108, 1042, 1043, 1109, 1108, 1043, 1109, 1043, 1044, 1110, 1109, 1044, 1110, 1044, 1045, 1111, 1110, 1045, 1111, 1045, 1046, 1112, 1111, 1046, 1112, 1046, 1047, 1048, 1112, 1047, 1113, 1112, 1048, 1114, 1048, 1049, 1114, 1113, 1048, 1115, 1049, 1050, 1115, 1114, 1049, 1116, 1050, 1051, 1116, 1115, 1050, 1117, 1051, 1052, 1117, 1116, 1051, 1118, 1052, 1053, 1118, 1117, 1052, 1119, 1053, 1054, 1119, 1118, 1053, 1120, 1054, 1055, 1120, 1119, 1054, 1121, 1055, 1056, 1121, 1120, 1055, 1122, 1056, 1057, 1122, 1121, 1056, 1123, 1057, 1058, 1123, 1122, 1057, 1059, 1123, 1058, 1124, 1123, 1059, 1125, 1059, 1060, 1125, 1124, 1059, 1061, 1125, 1060, 1126, 1125, 1061, 1127, 1061, 1062, 1127, 1126, 1061, 1128, 1062, 1063, 1128, 1127, 1062, 1064, 1128, 1063, 1129, 1128, 1064, 1065, 1129, 1064, 1130, 1129, 1065, 1131, 1065, 1066, 1131, 1130, 1065, 1132, 1131, 1066, 1132, 1066, 1067, 1133, 1067, 1068, 1133, 1132, 1067, 1069, 1133, 1068, 1134, 1133, 1069, 1135, 1134, 1069, 1135, 1069, 1070, 1071, 1135, 1070, 1136, 1135, 1071, 1072, 1136, 1071, 1137, 1136, 1072, 1138, 1137, 1072, 1138, 1072, 1073, 1139, 1138, 1073, 1139, 1073, 1074, 1140, 1139, 1074, 1140, 1074, 1075, 1141, 1140, 1075, 1141, 1075, 1076, 1142, 1141, 1076, 1142, 1076, 1077, 1143, 1142, 1077, 1143, 1077, 1078, 1144, 1143, 1078, 1144, 1078, 1079, 1145, 1144, 1079, 1145, 1079, 1080, 1081, 1145, 1080, 1146, 1145, 1081, 1147, 1081, 1082, 1147, 1146, 1081, 1148, 1082, 1083, 1148, 1147, 1082, 1149, 1083, 1084, 1149, 1148, 1083, 1150, 1084, 1085, 1150, 1149, 1084, 1086, 1150, 1085, 1151, 1150, 1086, 1088, 1086, 1087, 1088, 1151, 1086, 1218, 1152, 1153, 1218, 1217, 1152, 1219, 1153, 1154, 1219, 1218, 1153, 1220, 1154, 1155, 1220, 1219, 1154, 1156, 1220, 1155, 1221, 1220, 1156, 1222, 1156, 1157, 1222, 1221, 1156, 1223, 1157, 1158, 1223, 1222, 1157, 1224, 1158, 1159, 1224, 1223, 1158, 1225, 1159, 1160, 1225, 1224, 1159, 1226, 1160, 1161, 1226, 1225, 1160, 1227, 1161, 1162, 1227, 1226, 1161, 1228, 1162, 1163, 1228, 1227, 1162, 1229, 1163, 1164, 1229, 1228, 1163, 1165, 1229, 1164, 1230, 1229, 1165, 1231, 1165, 1166, 1231, 1230, 1165, 1232, 1166, 1167, 1232, 1231, 1166, 1233, 1167, 1168, 1233, 1232, 1167, 1169, 1233, 1168, 1234, 1233, 1169, 1235, 1169, 1170, 1235, 1234, 1169, 1236, 1235, 1170, 1236, 1170, 1171, 1237, 1236, 1171, 1237, 1171, 1172, 1238, 1237, 1172, 1238, 1172, 1173, 1239, 1238, 1173, 1239, 1173, 1174, 1240, 1239, 1174, 1240, 1174, 1175, 1241, 1175, 1176, 1241, 1240, 1175, 1242, 1176, 1177, 1242, 1241, 1176, 1243, 1177, 1178, 1243, 1242, 1177, 1244, 1178, 1179, 1244, 1243, 1178, 1245, 1179, 1180, 1245, 1244, 1179, 1246, 1180, 1181, 1246, 1245, 1180, 1247, 1181, 1182, 1247, 1246, 1181, 1183, 1247, 1182, 1248, 1247, 1183, 1249, 1183, 1184, 1249, 1248, 1183, 1250, 1184, 1185, 1250, 1249, 1184, 1186, 1250, 1185, 1251, 1250, 1186, 1252, 1186, 1187, 1252, 1251, 1186, 1253, 1187, 1188, 1253, 1252, 1187, 1254, 1188, 1189, 1254, 1253, 1188, 1255, 1189, 1190, 1255, 1254, 1189, 1256, 1190, 1191, 1256, 1255, 1190, 1257, 1191, 1192, 1257, 1256, 1191, 1258, 1192, 1193, 1258, 1257, 1192, 1259, 1193, 1194, 1259, 1258, 1193, 1195, 1259, 1194, 1260, 1259, 1195, 1261, 1260, 1195, 1261, 1195, 1196, 1262, 1261, 1196, 1262, 1196, 1197, 1198, 1262, 1197, 1263, 1262, 1198, 1264, 1263, 1198, 1264, 1198, 1199, 1265, 1264, 1199, 1265, 1199, 1200, 1266, 1265, 1200, 1266, 1200, 1201, 1267, 1266, 1201, 1267, 1201, 1202, 1268, 1267, 1202, 1268, 1202, 1203, 1204, 1268, 1203, 1269, 1268, 1204, 1270, 1269, 1204, 1270, 1204, 1205, 1271, 1270, 1205, 1271, 1205, 1206, 1272, 1271, 1206, 1272, 1206, 1207, 1208, 1272, 1207, 1273, 1272, 1208, 1274, 1208, 1209, 1274, 1273, 1208, 1275, 1209, 1210, 1275, 1274, 1209, 1276, 1210, 1211, 1276, 1275, 1210, 1277, 1211, 1212, 1277, 1276, 1211, 1278, 1212, 1213, 1278, 1277, 1212, 1279, 1213, 1214, 1279, 1278, 1213, 1216, 1214, 1215, 1216, 1279, 1214, 1346, 1280, 1281, 1346, 1281, 1282, 1346, 1345, 1280, 1347, 1282, 1283, 1347, 1346, 1282, 1348, 1347, 1283, 1349, 1283, 1284, 1349, 1284, 1285, 1349, 1348, 1283, 1350, 1349, 1285, 1351, 1285, 1286, 1351, 1350, 1285, 1352, 1286, 1287, 1352, 1351, 1286, 1353, 1287, 1288, 1353, 1352, 1287, 1354, 1288, 1289, 1354, 1353, 1288, 1355, 1289, 1290, 1355, 1354, 1289, 1356, 1290, 1291, 1356, 1355, 1290, 1357, 1291, 1292, 1357, 1292, 1293, 1357, 1356, 1291, 1358, 1357, 1293, 1359, 1293, 1294, 1359, 1358, 1293, 1360, 1294, 1295, 1360, 1359, 1294, 1361, 1295, 1296, 1361, 1360, 1295, 1362, 1296, 1297, 1362, 1361, 1296, 1363, 1297, 1298, 1363, 1362, 1297, 1364, 1363, 1298, 1364, 1298, 1299, 1365, 1364, 1299, 1365, 1299, 1300, 1366, 1365, 1300, 1366, 1300, 1301, 1367, 1366, 1301, 1367, 1301, 1302, 1368, 1302, 1303, 1368, 1303, 1304, 1368, 1367, 1302, 1369, 1368, 1304, 1370, 1304, 1305, 1370, 1369, 1304, 1371, 1305, 1306, 1371, 1306, 1307, 1371, 1370, 1305, 1372, 1371, 1307, 1373, 1307, 1308, 1373, 1372, 1307, 1374, 1308, 1309, 1374, 1309, 1310, 1374, 1373, 1308, 1375, 1310, 1311, 1375, 1374, 1310, 1376, 1311, 1312, 1376, 1375, 1311, 1377, 1312, 1313, 1377, 1376, 1312, 1378, 1377, 1313, 1379, 1313, 1314, 1379, 1314, 1315, 1379, 1378, 1313, 1380, 1315, 1316, 1380, 1379, 1315, 1381, 1316, 1317, 1381, 1380, 1316, 1382, 1381, 1317, 1383, 1317, 1318, 1383, 1382, 1317, 1384, 1318, 1319, 1384, 1319, 1320, 1384, 1383, 1318, 1385, 1384, 1320, 1386, 1320, 1321, 1386, 1385, 1320, 1387, 1321, 1322, 1387, 1322, 1323, 1387, 1386, 1321, 1388, 1387, 1323, 1389, 1388, 1323, 1389, 1323, 1324, 1390, 1389, 1324, 1390, 1324, 1325, 1391, 1390, 1325, 1391, 1325, 1326, 1392, 1391, 1326, 1392, 1326, 1327, 1393, 1392, 1327, 1393, 1327, 1328, 1393, 1328, 1329, 1394, 1393, 1329, 1395, 1394, 1329, 1395, 1329, 1330, 1396, 1395, 1330, 1396, 1330, 1331, 1397, 1396, 1331, 1397, 1331, 1332, 1398, 1397, 1332, 1398, 1332, 1333, 1399, 1398, 1333, 1399, 1333, 1334, 1400, 1399, 1334, 1400, 1334, 1335, 1400, 1335, 1336, 1401, 1336, 1337, 1401, 1400, 1336, 1402, 1401, 1337, 1403, 1402, 1337, 1403, 1337, 1338, 1404, 1338, 1339, 1404, 1339, 1340, 1404, 1403, 1338, 1405, 1404, 1340, 1406, 1340, 1341, 1406, 1405, 1340, 1407, 1341, 1342, 1407, 1342, 1343, 1407, 1406, 1341, 1344, 1407, 1343, 1538, 1408, 1409, 1476, 1475, 1539, 1472, 1470, 1471, 1474, 1537, 1473, 1540, 1409, 1410, 1540, 1410, 1411, 1540, 1538, 1409, 1541, 1539, 1538, 1541, 1538, 1540, 1541, 1476, 1539, 1541, 1477, 1476, 1541, 1478, 1477, 1542, 1411, 1412, 1542, 1412, 1413, 1542, 1540, 1411, 1543, 1540, 1542, 1543, 1479, 1478, 1543, 1480, 1479, 1543, 1541, 1540, 1543, 1478, 1541, 1544, 1413, 1414, 1544, 1414, 1415, 1544, 1542, 1413, 1545, 1543, 1542, 1545, 1480, 1543, 1545, 1481, 1480, 1545, 1482, 1481, 1545, 1542, 1544, 1546, 1415, 1416, 1546, 1416, 1417, 1546, 1544, 1415, 1547, 1482, 1545, 1547, 1545, 1544, 1547, 1544, 1546, 1547, 1483, 1482, 1547, 1484, 1483, 1548, 1417, 1418, 1548, 1418, 1419, 1548, 1546, 1417, 1549, 1484, 1547, 1549, 1485, 1484, 1549, 1486, 1485, 1549, 1546, 1548, 1549, 1547, 1546, 1550, 1419, 1420, 1550, 1420, 1421, 1550, 1548, 1419, 1551, 1486, 1549, 1551, 1549, 1548, 1551, 1548, 1550, 1551, 1487, 1486, 1551, 1488, 1487, 1552, 1421, 1422, 1552, 1422, 1423, 1552, 1550, 1421, 1553, 1550, 1552, 1553, 1489, 1488, 1553, 1490, 1489, 1553, 1551, 1550, 1553, 1488, 1551, 1554, 1423, 1424, 1554, 1424, 1425, 1554, 1552, 1423, 1554, 1553, 1552, 1555, 1490, 1553, 1555, 1491, 1490, 1555, 1492, 1491, 1555, 1553, 1554, 1556, 1425, 1426, 1556, 1426, 1427, 1556, 1554, 1425, 1557, 1555, 1554, 1557, 1492, 1555, 1557, 1554, 1556, 1557, 1493, 1492, 1557, 1494, 1493, 1558, 1427, 1428, 1558, 1428, 1429, 1558, 1556, 1427, 1559, 1556, 1558, 1559, 1494, 1557, 1559, 1557, 1556, 1559, 1495, 1494, 1559, 1496, 1495, 1560, 1429, 1430, 1560, 1430, 1431, 1560, 1558, 1429, 1561, 1496, 1559, 1561, 1559, 1558, 1561, 1497, 1496, 1561, 1498, 1497, 1561, 1558, 1560, 1562, 1431, 1432, 1562, 1432, 1433, 1562, 1560, 1431, 1562, 1561, 1560, 1563, 1561, 1562, 1563, 1499, 1498, 1563, 1500, 1499, 1563, 1498, 1561, 1564, 1433, 1434, 1564, 1434, 1435, 1564, 1562, 1433, 1565, 1500, 1563, 1565, 1562, 1564, 1565, 1563, 1562, 1565, 1501, 1500, 1565, 1502, 1501, 1566, 1564, 1435, 1566, 1435, 1436, 1566, 1436, 1437, 1567, 1565, 1564, 1567, 1502, 1565, 1567, 1564, 1566, 1567, 1503, 1502, 1567, 1504, 1503, 1568, 1566, 1437, 1568, 1437, 1438, 1568, 1438, 1439, 1569, 1504, 1567, 1569, 1566, 1568, 1569, 1567, 1566, 1569, 1505, 1504, 1569, 1506, 1505, 1570, 1568, 1439, 1570, 1439, 1440, 1571, 1569, 1568, 1571, 1506, 1569, 1571, 1568, 1570, 1571, 1507, 1506, 1572, 1440, 1441, 1572, 1441, 1442, 1572, 1570, 1440, 1573, 1571, 1570, 1573, 1507, 1571, 1573, 1570, 1572, 1573, 1508, 1507, 1573, 1509, 1508, 1574, 1572, 1442, 1574, 1442, 1443, 1574, 1443, 1444, 1575, 1510, 1509, 1575, 1511, 1510, 1575, 1573, 1572, 1575, 1509, 1573, 1575, 1572, 1574, 1576, 1444, 1445, 1576, 1574, 1444, 1576, 1445, 1446, 1577, 1512, 1511, 1577, 1513, 1512, 1577, 1574, 1576, 1577, 1575, 1574, 1577, 1511, 1575, 1578, 1446, 1447, 1578, 1447, 1448, 1578, 1576, 1446, 1579, 1577, 1576, 1579, 1514, 1513, 1579, 1515, 1514, 1579, 1513, 1577, 1579, 1576, 1578, 1580, 1448, 1449, 1580, 1449, 1450, 1580, 1578, 1448, 1580, 1579, 1578, 1581, 1515, 1579, 1581, 1516, 1515, 1581, 1517, 1516, 1581, 1579, 1580, 1582, 1450, 1451, 1582, 1451, 1452, 1582, 1580, 1450, 1583, 1518, 1517, 1583, 1519, 1518, 1583, 1580, 1582, 1583, 1581, 1580, 1583, 1517, 1581, 1584, 1583, 1582, 1584, 1582, 1452, 1584, 1452, 1453, 1584, 1453, 1454, 1585, 1520, 1519, 1585, 1521, 1520, 1585, 1583, 1584, 1585, 1519, 1583, 1586, 1454, 1455, 1586, 1455, 1456, 1586, 1584, 1454, 1587, 1522, 1521, 1587, 1523, 1522, 1587, 1585, 1584, 1587, 1584, 1586, 1587, 1521, 1585, 1588, 1456, 1457, 1588, 1457, 1458, 1588, 1586, 1456, 1589, 1587, 1586, 1589, 1524, 1523, 1589, 1525, 1524, 1589, 1586, 1588, 1589, 1523, 1587, 1590, 1588, 1458, 1590, 1589, 1588, 1590, 1458, 1459, 1590, 1459, 1460, 1591, 1589, 1590, 1591, 1525, 1589, 1591, 1526, 1525, 1591, 1527, 1526, 1592, 1590, 1460, 1592, 1460, 1461, 1592, 1461, 1462, 1592, 1591, 1590, 1593, 1591, 1592, 1593, 1527, 1591, 1593, 1528, 1527, 1593, 1529, 1528, 1594, 1592, 1462, 1594, 1462, 1463, 1594, 1463, 1464, 1595, 1529, 1593, 1595, 1530, 1529, 1595, 1531, 1530, 1595, 1592, 1594, 1595, 1593, 1592, 1596, 1595, 1594, 1596, 1594, 1464, 1596, 1464, 1465, 1596, 1465, 1466, 1597, 1531, 1595, 1597, 1532, 1531, 1597, 1533, 1532, 1597, 1595, 1596, 1598, 1596, 1466, 1598, 1466, 1467, 1598, 1467, 1468, 1599, 1533, 1597, 1599, 1597, 1596, 1599, 1534, 1533, 1599, 1535, 1534, 1599, 1596, 1598, 1600, 1468, 1469, 1600, 1469, 1470, 1600, 1470, 1472, 1600, 1598, 1468, 1601, 1536, 1535, 1601, 1537, 1536, 1601, 1535, 1599, 1601, 1598, 1600, 1601, 1599, 1598, 1601, 1600, 1472, 1601, 1472, 1473, 1601, 1473, 1537, 1643, 1641, 1642, 1637, 1638, 1639, 1637, 1639, 1640, 1646, 1643, 1644, 1646, 1644, 1645, 1633, 1634, 1635, 1633, 1635, 1636, 1651, 1640, 1641, 1651, 1646, 1647, 1651, 1647, 1648, 1651, 1648, 1649, 1651, 1649, 1650, 1651, 1641, 1643, 1651, 1643, 1646, 1630, 1631, 1632, 1630, 1632, 1633, 1655, 1651, 1652, 1655, 1652, 1653, 1655, 1653, 1654, 1627, 1628, 1629, 1625, 1627, 1629, 1625, 1626, 1627, 1625, 1629, 1630, 1658, 1655, 1656, 1658, 1656, 1657, 1659, 1655, 1658, 1660, 1655, 1659, 1622, 1623, 1624, 1622, 1624, 1625, 1662, 1660, 1661, 1619, 1620, 1621, 1619, 1621, 1622, 1619, 1622, 1625, 1664, 1662, 1663, 1603, 1651, 1655, 1603, 1655, 1660, 1603, 1660, 1662, 1603, 1662, 1664, 1603, 1664, 1602, 1615, 1616, 1617, 1615, 1617, 1618, 1615, 1618, 1619, 1614, 1615, 1619, 1606, 1603, 1604, 1606, 1604, 1605, 1606, 1651, 1603, 1612, 1630, 1633, 1612, 1613, 1614, 1612, 1625, 1630, 1612, 1636, 1637, 1612, 1619, 1625, 1612, 1614, 1619, 1612, 1633, 1636, 1608, 1606, 1607, 1609, 1606, 1608, 1610, 1611, 1612, 1610, 1612, 1637, 1610, 1651, 1606, 1610, 1637, 1640, 1610, 1606, 1609, 1610, 1640, 1651, 1711, 1710, 1668, 1709, 1668, 1710, 1712, 1711, 1668, 1708, 1668, 1709, 1713, 1668, 1669, 1713, 1712, 1668, 1707, 1668, 1708, 1714, 1713, 1669, 1706, 1668, 1707, 1715, 1714, 1669, 1705, 1668, 1706, 1716, 1715, 1669, 1704, 1668, 1705, 1717, 1716, 1669, 1703, 1668, 1704, 1718, 1717, 1669, 1719, 1718, 1669, 1720, 1719, 1669, 1721, 1720, 1669, 1667, 1668, 1703, 1667, 1701, 1700, 1667, 1702, 1701, 1667, 1703, 1702, 1699, 1667, 1700, 1722, 1721, 1669, 1698, 1667, 1699, 1723, 1722, 1669, 1697, 1667, 1698, 1696, 1667, 1697, 1695, 1667, 1696, 1694, 1667, 1695, 1693, 1667, 1694, 1692, 1667, 1693, 1670, 1723, 1669, 1670, 1724, 1723, 1670, 1725, 1724, 1670, 1726, 1725, 1670, 1727, 1726, 1670, 1728, 1727, 1670, 1729, 1728, 1670, 1730, 1729, 1731, 1730, 1670, 1732, 1731, 1670, 1733, 1732, 1670, 1671, 1733, 1670, 1665, 1682, 1681, 1665, 1683, 1682, 1665, 1684, 1683, 1665, 1685, 1684, 1665, 1686, 1685, 1665, 1687, 1686, 1665, 1688, 1687, 1665, 1689, 1688, 1665, 1690, 1689, 1665, 1691, 1690, 1665, 1692, 1691, 1665, 1667, 1692, 1666, 1672, 1671, 1666, 1673, 1672, 1666, 1674, 1673, 1666, 1675, 1674, 1666, 1676, 1675, 1666, 1677, 1676, 1666, 1678, 1677, 1666, 1679, 1678, 1666, 1680, 1679, 1666, 1681, 1680, 1666, 1671, 1670, 1666, 1665, 1681, 1735, 1739, 1734, 1736, 1739, 1735, 1737, 1739, 1736, 1738, 1739, 1737, 1742, 1740, 1739, 1742, 1739, 1738, 1743, 1740, 1742, 1744, 1740, 1743, 1745, 1740, 1744, 1741, 1740, 1745, 1751, 1747, 1746, 1748, 1747, 1751, 1749, 1751, 1752, 1749, 1748, 1751, 1754, 1749, 1752, 1754, 1752, 1755, 1756, 1755, 1752, 1750, 1749, 1754, 1753, 1756, 1752, 1764, 1763, 1762, 1761, 1764, 1762, 1766, 1762, 1765, 1766, 1768, 1767, 1766, 1765, 1768, 1759, 1758, 1757, 1759, 1757, 1761, 1772, 1766, 1769, 1772, 1762, 1766, 1770, 1772, 1771, 1770, 1762, 1772, 1779, 1778, 1760, 1773, 1761, 1762, 1773, 1759, 1761, 1773, 1762, 1770, 1775, 1773, 1776, 1775, 1759, 1773, 1774, 1760, 1759, 1774, 1780, 1779, 1774, 1777, 1780, 1774, 1759, 1775, 1774, 1779, 1760, 1782, 1789, 1781, 1790, 1789, 1782, 1791, 1782, 1783, 1791, 1790, 1782, 1786, 1791, 1783, 1786, 1783, 1787, 1788, 1787, 1783, 1785, 1791, 1786, 1784, 1788, 1783, 1793, 1800, 1792, 1801, 1800, 1793, 1802, 1793, 1794, 1802, 1801, 1793, 1797, 1802, 1794, 1797, 1794, 1798, 1799, 1798, 1794, 1796, 1802, 1797, 1795, 1799, 1794, 1804, 1811, 1803, 1812, 1811, 1804, 1813, 1812, 1804, 1808, 1804, 1805, 1808, 1813, 1804, 1808, 1805, 1809, 1810, 1809, 1805, 1807, 1813, 1808, 1806, 1810, 1805, 1819, 1815, 1814, 1816, 1815, 1819, 1817, 1819, 1820, 1817, 1816, 1819, 1822, 1817, 1820, 1822, 1820, 1823, 1824, 1823, 1820, 1818, 1817, 1822, 1821, 1824, 1820, 1830, 1826, 1825, 1827, 1826, 1830, 1828, 1830, 1831, 1828, 1827, 1830, 1833, 1828, 1831, 1833, 1831, 1834, 1835, 1834, 1831, 1829, 1828, 1833, 1832, 1835, 1831, 1837, 1841, 1836, 1838, 1841, 1837, 1839, 1841, 1838, 1840, 1841, 1839, 1844, 1842, 1841, 1844, 1841, 1840, 1845, 1842, 1844, 1846, 1842, 1845, 1847, 1842, 1846, 1843, 1842, 1847, 1849, 1853, 1848, 1850, 1853, 1849, 1851, 1853, 1850, 1852, 1853, 1851, 1856, 1854, 1853, 1856, 1853, 1852, 1857, 1854, 1856, 1858, 1854, 1857, 1859, 1854, 1858, 1855, 1854, 1859, 1861, 1865, 1860, 1862, 1865, 1861, 1863, 1865, 1862, 1864, 1865, 1863, 1868, 1866, 1865, 1868, 1865, 1864, 1869, 1866, 1868, 1870, 1866, 1869, 1871, 1866, 1870, 1867, 1866, 1871, 1873, 1877, 1872, 1874, 1877, 1873, 1875, 1877, 1874, 1876, 1877, 1875, 1880, 1878, 1877, 1880, 1877, 1876, 1881, 1878, 1880, 1882, 1878, 1881, 1883, 1878, 1882, 1879, 1878, 1883, 1885, 1889, 1884, 1886, 1889, 1885, 1887, 1889, 1886, 1888, 1889, 1887, 1892, 1890, 1889, 1892, 1889, 1888, 1893, 1890, 1892, 1894, 1890, 1893, 1895, 1890, 1894, 1891, 1890, 1895]
        point3f[] points = [(6.4000, 5.6000, 0.0000), (6.4000, 5.5722, 0.5576), (6.4000, 5.4890, 1.1096), (6.4000, 5.3512, 1.6506), (6.4000, 5.1603, 2.1752), (6.4000, 4.9180, 2.6782), (6.4000, 4.6269, 3.1546), (6.4000, 4.2898, 3.5996), (6.4000, 3.9101, 4.0089), (6.4000, 3.4915, 4.3783), (6.4000, 3.0383, 4.7041), (6.4000, 2.5548, 4.9833), (6.4000, 2.0459, 5.2129), (6.4000, 1.5167, 5.3907), (6.4000, 0.9724, 5.5149), (6.4000, 0.4185, 5.5843), (6.4000, -0.1396, 5.5983), (6.4000, -0.6963, 5.5565), (6.4000, -1.2461, 5.4596), (6.4000, -1.7835, 5.3084), (6.4000, -2.3032, 5.1044), (6.4000, -2.8000, 4.8497), (6.4000, -3.2690, 4.5469), (6.4000, -3.7054, 4.1988), (6.4000, -4.1051, 3.8090), (6.4000, -4.4639, 3.3813), (6.4000, -4.7784, 2.9200), (6.4000, -5.0454, 2.4297), (6.4000, -5.2623, 1.9153), (6.4000, -5.4268, 1.3818), (6.4000, -5.5375, 0.8346), (6.4000, -5.5930, 0.2791), (6.4000, -5.5930, -0.2791), (6.4000, -5.5375, -0.8346), (6.4000, -5.4268, -1.3818), (6.4000, -5.2623, -1.9153), (6.4000, -5.0454, -2.4297), (6.4000, -4.7784, -2.9200), (6.4000, -4.4639, -3.3813), (6.4000, -4.1051, -3.8090), (6.4000, -3.7054, -4.1988), (6.4000, -3.2690, -4.5469), (6.4000, -2.8000, -4.8497), (6.4000, -2.3032, -5.1044), (6.4000, -1.7835, -5.3084), (6.4000, -1.2461, -5.4596), (6.4000, -0.6963, -5.5565), (6.4000, -0.1396, -5.5983), (6.4000, 0.4185, -5.5843), (6.4000, 0.9724, -5.5149), (6.4000, 1.5167, -5.3907), (6.4000, 2.0459, -5.2129), (6.4000, 2.5548, -4.9833), (6.4000, 3.0383, -4.7041), (6.4000, 3.4915, -4.3783), (6.4000, 3.9101, -4.0089), (6.4000, 4.2898, -3.5996), (6.4000, 4.6269, -3.1546), (6.4000, 4.9180, -2.6782), (6.4000, 5.1603, -2.1752), (6.4000, 5.3512, -1.6506), (6.4000, 5.4890, -1.1096), (6.4000, 5.5722, -0.5576), (6.4000, 5.6000, 0.0000), (6.4074, 5.5061, 0.0000), (6.4074, 5.5061, 0.0000), (6.4074, 5.4788, 0.5482), (6.4074, 5.3970, 1.0910), (6.4074, 5.2615, 1.6230), (6.4074, 5.0738, 2.1388), (6.4074, 4.8356, 2.6333), (6.4074, 4.5494, 3.1017), (6.4074, 4.2179, 3.5393), (6.4074, 3.8446, 3.9417), (6.4074, 3.4330, 4.3049), (6.4074, 2.9873, 4.6253), (6.4074, 2.5120, 4.8998), (6.4074, 2.0116, 5.1255), (6.4074, 1.4913, 5.3003), (6.4074, 0.9561, 5.4225), (6.4074, 0.4115, 5.4907), (6.4074, -0.1373, 5.5044), (6.4074, -0.6847, 5.4634), (6.4074, -1.2252, 5.3681), (6.4074, -1.7536, 5.2194), (6.4074, -2.2646, 5.0189), (6.4074, -2.7531, 4.7685), (6.4074, -3.2142, 4.4706), (6.4074, -3.6433, 4.1284), (6.4074, -4.0363, 3.7451), (6.4074, -4.3891, 3.3246), (6.4074, -4.6983, 2.8711), (6.4074, -4.9609, 2.3890), (6.4074, -5.1741, 1.8832), (6.4074, -5.3359, 1.3587), (6.4074, -5.4446, 0.8206), (6.4074, -5.4993, 0.2745), (6.4074, -5.4993, -0.2745), (6.4074, -5.4446, -0.8206), (6.4074, -5.3359, -1.3587), (6.4074, -5.1741, -1.8832), (6.4074, -4.9609, -2.3890), (6.4074, -4.6983, -2.8711), (6.4074, -4.3891, -3.3246), (6.4074, -4.0363, -3.7451), (6.4074, -3.6433, -4.1284), (6.4074, -3.2142, -4.4706), (6.4074, -2.7531, -4.7685), (6.4074, -2.2646, -5.0189), (6.4074, -1.7536, -5.2194), (6.4074, -1.2252, -5.3681), (6.4074, -0.6847, -5.4634), (6.4074, -0.1373, -5.5044), (6.4074, 0.4115, -5.4907), (6.4074, 0.9561, -5.4225), (6.4074, 1.4913, -5.3003), (6.4074, 2.0116, -5.1255), (6.4074, 2.5120, -4.8998), (6.4074, 2.9873, -4.6253), (6.4074, 3.4330, -4.3049), (6.4074, 3.8446, -3.9417), (6.4074, 4.2179, -3.5393), (6.4074, 4.5494, -3.1017), (6.4074, 4.8356, -2.6333), (6.4074, 5.0738, -2.1388), (6.4074, 5.2615, -1.6230), (6.4074, 5.3970, -1.0910), (6.4074, 5.4788, -0.5482), (6.4074, 5.5061, 0.0000), (6.4074, 5.4788, 0.5482), (6.4074, 5.3970, 1.0910), (6.4074, 5.2615, 1.6230), (6.4074, 5.0738, 2.1388), (6.4074, 4.8356, 2.6333), (6.4074, 4.5494, 3.1017), (6.4074, 4.2179, 3.5393), (6.4074, 3.8446, 3.9417), (6.4074, 3.4330, 4.3049), (6.4074, 2.9873, 4.6253), (6.4074, 2.5120, 4.8998), (6.4074, 2.0116, 5.1255), (6.4074, 1.4913, 5.3003), (6.4074, 0.9561, 5.4225), (6.4074, 0.4115, 5.4907), (6.4074, -0.1373, 5.5044), (6.4074, -0.6847, 5.4634), (6.4074, -1.2252, 5.3681), (6.4074, -1.7536, 5.2194), (6.4074, -2.2646, 5.0189), (6.4074, -2.7531, 4.7685), (6.4074, -3.2142, 4.4706), (6.4074, -3.6433, 4.1284), (6.4074, -4.0363, 3.7451), (6.4074, -4.3891, 3.3246), (6.4074, -4.6983, 2.8711), (6.4074, -4.9609, 2.3890), (6.4074, -5.1741, 1.8832), (6.4074, -5.3359, 1.3587), (6.4074, -5.4446, 0.8206), (6.4074, -5.4993, 0.2745), (6.4074, -5.4993, -0.2745), (6.4074, -5.4446, -0.8206), (6.4074, -5.3359, -1.3587), (6.4074, -5.1741, -1.8832), (6.4074, -4.9609, -2.3890), (6.4074, -4.6983, -2.8711), (6.4074, -4.3891, -3.3246), (6.4074, -4.0363, -3.7451), (6.4074, -3.6433, -4.1284), (6.4074, -3.2142, -4.4706), (6.4074, -2.7531, -4.7685), (6.4074, -2.2646, -5.0189), (6.4074, -1.7536, -5.2194), (6.4074, -1.2252, -5.3681), (6.4074, -0.6847, -5.4634), (6.4074, -0.1373, -5.5044), (6.4074, 0.4115, -5.4907), (6.4074, 0.9561, -5.4225), (6.4074, 1.4913, -5.3003), (6.4074, 2.0116, -5.1255), (6.4074, 2.5120, -4.8998), (6.4074, 2.9873, -4.6253), (6.4074, 3.4330, -4.3049), (6.4074, 3.8446, -3.9417), (6.4074, 4.2179, -3.5393), (6.4074, 4.5494, -3.1017), (6.4074, 4.8356, -2.6333), (6.4074, 5.0738, -2.1388), (6.4074, 5.2615, -1.6230), (6.4074, 5.3970, -1.0910), (6.4074, 5.4788, -0.5482), (6.4074, 5.5061, 0.0000), (6.4294, 5.4146, 0.0000), (6.4294, 5.4146, 0.0000), (6.4294, 5.3877, 0.5391), (6.4294, 5.3072, 1.0729), (6.4294, 5.1740, 1.5960), (6.4294, 4.9894, 2.1032), (6.4294, 4.7552, 2.5895), (6.4294, 4.4737, 3.0501), (6.4294, 4.1478, 3.4804), (6.4294, 3.7807, 3.8761), (6.4294, 3.3759, 4.2333), (6.4294, 2.9377, 4.5484), (6.4294, 2.4702, 4.8183), (6.4294, 1.9782, 5.0403), (6.4294, 1.4665, 5.2122), (6.4294, 0.9402, 5.3323), (6.4294, 0.4046, 5.3994), (6.4294, -0.1350, 5.4129), (6.4294, -0.6733, 5.3726), (6.4294, -1.2049, 5.2788), (6.4294, -1.7245, 5.1326), (6.4294, -2.2270, 4.9354), (6.4294, -2.7073, 4.6892), (6.4294, -3.1607, 4.3963), (6.4294, -3.5828, 4.0598), (6.4294, -3.9692, 3.6829), (6.4294, -4.3161, 3.2694), (6.4294, -4.6202, 2.8234), (6.4294, -4.8784, 2.3493), (6.4294, -5.0881, 1.8519), (6.4294, -5.2472, 1.3361), (6.4294, -5.3541, 0.8070), (6.4294, -5.4079, 0.2699), (6.4294, -5.4079, -0.2699), (6.4294, -5.3541, -0.8070), (6.4294, -5.2472, -1.3361), (6.4294, -5.0881, -1.8519), (6.4294, -4.8784, -2.3493), (6.4294, -4.6202, -2.8234), (6.4294, -4.3161, -3.2694), (6.4294, -3.9692, -3.6829), (6.4294, -3.5828, -4.0598), (6.4294, -3.1607, -4.3963), (6.4294, -2.7073, -4.6892), (6.4294, -2.2270, -4.9354), (6.4294, -1.7245, -5.1326), (6.4294, -1.2049, -5.2788), (6.4294, -0.6733, -5.3726), (6.4294, -0.1350, -5.4129), (6.4294, 0.4046, -5.3994), (6.4294, 0.9402, -5.3323), (6.4294, 1.4665, -5.2122), (6.4294, 1.9782, -5.0403), (6.4294, 2.4702, -4.8183), (6.4294, 2.9377, -4.5484), (6.4294, 3.3759, -4.2333), (6.4294, 3.7807, -3.8761), (6.4294, 4.1478, -3.4804), (6.4294, 4.4737, -3.0501), (6.4294, 4.7552, -2.5895), (6.4294, 4.9894, -2.1032), (6.4294, 5.1740, -1.5960), (6.4294, 5.3072, -1.0729), (6.4294, 5.3877, -0.5391), (6.4294, 5.4146, 0.0000), (6.4294, 5.3877, 0.5391), (6.4294, 5.3072, 1.0729), (6.4294, 5.1740, 1.5960), (6.4294, 4.9894, 2.1032), (6.4294, 4.7552, 2.5895), (6.4294, 4.4737, 3.0501), (6.4294, 4.1478, 3.4804), (6.4294, 3.7807, 3.8761), (6.4294, 3.3759, 4.2333), (6.4294, 2.9377, 4.5484), (6.4294, 2.4702, 4.8183), (6.4294, 1.9782, 5.0403), (6.4294, 1.4665, 5.2122), (6.4294, 0.9402, 5.3323), (6.4294, 0.4046, 5.3994), (6.4294, -0.1350, 5.4129), (6.4294, -0.6733, 5.3726), (6.4294, -1.2049, 5.2788), (6.4294, -1.7245, 5.1326), (6.4294, -2.2270, 4.9354), (6.4294, -2.7073, 4.6892), (6.4294, -3.1607, 4.3963), (6.4294, -3.5828, 4.0598), (6.4294, -3.9692, 3.6829), (6.4294, -4.3161, 3.2694), (6.4294, -4.6202, 2.8234), (6.4294, -4.8784, 2.3493), (6.4294, -5.0881, 1.8519), (6.4294, -5.2472, 1.3361), (6.4294, -5.3541, 0.8070), (6.4294, -5.4079, 0.2699), (6.4294, -5.4079, -0.2699), (6.4294, -5.3541, -0.8070), (6.4294, -5.2472, -1.3361), (6.4294, -5.0881, -1.8519), (6.4294, -4.8784, -2.3493), (6.4294, -4.6202, -2.8234), (6.4294, -4.3161, -3.2694), (6.4294, -3.9692, -3.6829), (6.4294, -3.5828, -4.0598), (6.4294, -3.1607, -4.3963), (6.4294, -2.7073, -4.6892), (6.4294, -2.2270, -4.9354), (6.4294, -1.7245, -5.1326), (6.4294, -1.2049, -5.2788), (6.4294, -0.6733, -5.3726), (6.4294, -0.1350, -5.4129), (6.4294, 0.4046, -5.3994), (6.4294, 0.9402, -5.3323), (6.4294, 1.4665, -5.2122), (6.4294, 1.9782, -5.0403), (6.4294, 2.4702, -4.8183), (6.4294, 2.9377, -4.5484), (6.4294, 3.3759, -4.2333), (6.4294, 3.7807, -3.8761), (6.4294, 4.1478, -3.4804), (6.4294, 4.4737, -3.0501), (6.4294, 4.7552, -2.5895), (6.4294, 4.9894, -2.1032), (6.4294, 5.1740, -1.5960), (6.4294, 5.3072, -1.0729), (6.4294, 5.3877, -0.5391), (6.4294, 5.4146, 0.0000), (6.4654, 5.3276, 0.0000), (6.4654, 5.3276, 0.0000), (6.4654, 5.3011, 0.5305), (6.4654, 5.2220, 1.0556), (6.4654, 5.0909, 1.5703), (6.4654, 4.9093, 2.0694), (6.4654, 4.6788, 2.5479), (6.4654, 4.4019, 3.0011), (6.4654, 4.0812, 3.4245), (6.4654, 3.7199, 3.8139), (6.4654, 3.3217, 4.1653), (6.4654, 2.8905, 4.4753), (6.4654, 2.4305, 4.7409), (6.4654, 1.9464, 4.9593), (6.4654, 1.4429, 5.1285), (6.4654, 0.9251, 5.2467), (6.4654, 0.3981, 5.3127), (6.4654, -0.1328, 5.3259), (6.4654, -0.6625, 5.2863), (6.4654, -1.1855, 5.1940), (6.4654, -1.6968, 5.0502), (6.4654, -2.1912, 4.8561), (6.4654, -2.6638, 4.6138), (6.4654, -3.1100, 4.3257), (6.4654, -3.5252, 3.9945), (6.4654, -3.9054, 3.6237), (6.4654, -4.2468, 3.2168), (6.4654, -4.5460, 2.7780), (6.4654, -4.8000, 2.3116), (6.4654, -5.0063, 1.8221), (6.4654, -5.1629, 1.3146), (6.4654, -5.2681, 0.7940), (6.4654, -5.3210, 0.2656), (6.4654, -5.3210, -0.2656), (6.4654, -5.2681, -0.7940), (6.4654, -5.1629, -1.3146), (6.4654, -5.0063, -1.8221), (6.4654, -4.8000, -2.3116), (6.4654, -4.5460, -2.7780), (6.4654, -4.2468, -3.2168), (6.4654, -3.9054, -3.6237), (6.4654, -3.5252, -3.9945), (6.4654, -3.1100, -4.3257), (6.4654, -2.6638, -4.6138), (6.4654, -2.1912, -4.8561), (6.4654, -1.6968, -5.0502), (6.4654, -1.1855, -5.1940), (6.4654, -0.6625, -5.2863), (6.4654, -0.1328, -5.3259), (6.4654, 0.3981, -5.3127), (6.4654, 0.9251, -5.2467), (6.4654, 1.4429, -5.1285), (6.4654, 1.9464, -4.9593), (6.4654, 2.4305, -4.7409), (6.4654, 2.8905, -4.4753), (6.4654, 3.3217, -4.1653), (6.4654, 3.7199, -3.8139), (6.4654, 4.0812, -3.4245), (6.4654, 4.4019, -3.0011), (6.4654, 4.6788, -2.5479), (6.4654, 4.9093, -2.0694), (6.4654, 5.0909, -1.5703), (6.4654, 5.2220, -1.0556), (6.4654, 5.3011, -0.5305), (6.4654, 5.3276, 0.0000), (6.4654, 5.3011, 0.5305), (6.4654, 5.2220, 1.0556), (6.4654, 5.0909, 1.5703), (6.4654, 4.9093, 2.0694), (6.4654, 4.6788, 2.5479), (6.4654, 4.4019, 3.0011), (6.4654, 4.0812, 3.4245), (6.4654, 3.7199, 3.8139), (6.4654, 3.3217, 4.1653), (6.4654, 2.8905, 4.4753), (6.4654, 2.4305, 4.7409), (6.4654, 1.9464, 4.9593), (6.4654, 1.4429, 5.1285), (6.4654, 0.9251, 5.2467), (6.4654, 0.3981, 5.3127), (6.4654, -0.1328, 5.3259), (6.4654, -0.6625, 5.2863), (6.4654, -1.1855, 5.1940), (6.4654, -1.6968, 5.0502), (6.4654, -2.1912, 4.8561), (6.4654, -2.6638, 4.6138), (6.4654, -3.1100, 4.3257), (6.4654, -3.5252, 3.9945), (6.4654, -3.9054, 3.6237), (6.4654, -4.2468, 3.2168), (6.4654, -4.5460, 2.7780), (6.4654, -4.8000, 2.3116), (6.4654, -5.0063, 1.8221), (6.4654, -5.1629, 1.3146), (6.4654, -5.2681, 0.7940), (6.4654, -5.3210, 0.2656), (6.4654, -5.3210, -0.2656), (6.4654, -5.2681, -0.7940), (6.4654, -5.1629, -1.3146), (6.4654, -5.0063, -1.8221), (6.4654, -4.8000, -2.3116), (6.4654, -4.5460, -2.7780), (6.4654, -4.2468, -3.2168), (6.4654, -3.9054, -3.6237), (6.4654, -3.5252, -3.9945), (6.4654, -3.1100, -4.3257), (6.4654, -2.6638, -4.6138), (6.4654, -2.1912, -4.8561), (6.4654, -1.6968, -5.0502), (6.4654, -1.1855, -5.1940), (6.4654, -0.6625, -5.2863), (6.4654, -0.1328, -5.3259), (6.4654, 0.3981, -5.3127), (6.4654, 0.9251, -5.2467), (6.4654, 1.4429, -5.1285), (6.4654, 1.9464, -4.9593), (6.4654, 2.4305, -4.7409), (6.4654, 2.8905, -4.4753), (6.4654, 3.3217, -4.1653), (6.4654, 3.7199, -3.8139), (6.4654, 4.0812, -3.4245), (6.4654, 4.4019, -3.0011), (6.4654, 4.6788, -2.5479), (6.4654, 4.9093, -2.0694), (6.4654, 5.0909, -1.5703), (6.4654, 5.2220, -1.0556), (6.4654, 5.3011, -0.5305), (6.4654, 5.3276, 0.0000), (6.5146, 5.2473, 0.0000), (6.5146, 5.2473, 0.0000), (6.5146, 5.2213, 0.5225), (6.5146, 5.1433, 1.0397), (6.5146, 5.0142, 1.5467), (6.5146, 4.8353, 2.0382), (6.5146, 4.6083, 2.5096), (6.5146, 4.3355, 2.9559), (6.5146, 4.0197, 3.3729), (6.5146, 3.6639, 3.7564), (6.5146, 3.2717, 4.1025), (6.5146, 2.8469, 4.4079), (6.5146, 2.3939, 4.6695), (6.5146, 1.9171, 4.8846), (6.5146, 1.4212, 5.0512), (6.5146, 0.9112, 5.1676), (6.5146, 0.3921, 5.2327), (6.5146, -0.1308, 5.2457), (6.5146, -0.6525, 5.2066), (6.5146, -1.1676, 5.1158), (6.5146, -1.6712, 4.9741), (6.5146, -2.1582, 4.7830), (6.5146, -2.6237, 4.5443), (6.5146, -3.0631, 4.2605), (6.5146, -3.4721, 3.9343), (6.5146, -3.8466, 3.5691), (6.5146, -4.1828, 3.1684), (6.5146, -4.4775, 2.7361), (6.5146, -4.7277, 2.2767), (6.5146, -4.9309, 1.7947), (6.5146, -5.0851, 1.2948), (6.5146, -5.1887, 0.7821), (6.5146, -5.2408, 0.2616), (6.5146, -5.2408, -0.2616), (6.5146, -5.1887, -0.7821), (6.5146, -5.0851, -1.2948), (6.5146, -4.9309, -1.7947), (6.5146, -4.7277, -2.2767), (6.5146, -4.4775, -2.7361), (6.5146, -4.1828, -3.1684), (6.5146, -3.8466, -3.5691), (6.5146, -3.4721, -3.9343), (6.5146, -3.0631, -4.2605), (6.5146, -2.6237, -4.5443), (6.5146, -2.1582, -4.7830), (6.5146, -1.6712, -4.9741), (6.5146, -1.1676, -5.1158), (6.5146, -0.6525, -5.2066), (6.5146, -0.1308, -5.2457), (6.5146, 0.3921, -5.2327), (6.5146, 0.9112, -5.1676), (6.5146, 1.4212, -5.0512), (6.5146, 1.9171, -4.8846), (6.5146, 2.3939, -4.6695), (6.5146, 2.8469, -4.4079), (6.5146, 3.2717, -4.1025), (6.5146, 3.6639, -3.7564), (6.5146, 4.0197, -3.3729), (6.5146, 4.3355, -2.9559), (6.5146, 4.6083, -2.5096), (6.5146, 4.8353, -2.0382), (6.5146, 5.0142, -1.5467), (6.5146, 5.1433, -1.0397), (6.5146, 5.2213, -0.5225), (6.5146, 5.2473, 0.0000), (6.5146, 5.2213, 0.5225), (6.5146, 5.1433, 1.0397), (6.5146, 5.0142, 1.5467), (6.5146, 4.8353, 2.0382), (6.5146, 4.6083, 2.5096), (6.5146, 4.3355, 2.9559), (6.5146, 4.0197, 3.3729), (6.5146, 3.6639, 3.7564), (6.5146, 3.2717, 4.1025), (6.5146, 2.8469, 4.4079), (6.5146, 2.3939, 4.6695), (6.5146, 1.9171, 4.8846), (6.5146, 1.4212, 5.0512), (6.5146, 0.9112, 5.1676), (6.5146, 0.3921, 5.2327), (6.5146, -0.1308, 5.2457), (6.5146, -0.6525, 5.2066), (6.5146, -1.1676, 5.1158), (6.5146, -1.6712, 4.9741), (6.5146, -2.1582, 4.7830), (6.5146, -2.6237, 4.5443), (6.5146, -3.0631, 4.2605), (6.5146, -3.4721, 3.9343), (6.5146, -3.8466, 3.5691), (6.5146, -4.1828, 3.1684), (6.5146, -4.4775, 2.7361), (6.5146, -4.7277, 2.2767), (6.5146, -4.9309, 1.7947), (6.5146, -5.0851, 1.2948), (6.5146, -5.1887, 0.7821), (6.5146, -5.2408, 0.2616), (6.5146, -5.2408, -0.2616), (6.5146, -5.1887, -0.7821), (6.5146, -5.0851, -1.2948), (6.5146, -4.9309, -1.7947), (6.5146, -4.7277, -2.2767), (6.5146, -4.4775, -2.7361), (6.5146, -4.1828, -3.1684), (6.5146, -3.8466, -3.5691), (6.5146, -3.4721, -3.9343), (6.5146, -3.0631, -4.2605), (6.5146, -2.6237, -4.5443), (6.5146, -2.1582, -4.7830), (6.5146, -1.6712, -4.9741), (6.5146, -1.1676, -5.1158), (6.5146, -0.6525, -5.2066), (6.5146, -0.1308, -5.2457), (6.5146, 0.3921, -5.2327), (6.5146, 0.9112, -5.1676), (6.5146, 1.4212, -5.0512), (6.5146, 1.9171, -4.8846), (6.5146, 2.3939, -4.6695), (6.5146, 2.8469, -4.4079), (6.5146, 3.2717, -4.1025), (6.5146, 3.6639, -3.7564), (6.5146, 4.0197, -3.3729), (6.5146, 4.3355, -2.9559), (6.5146, 4.6083, -2.5096), (6.5146, 4.8353, -2.0382), (6.5146, 5.0142, -1.5467), (6.5146, 5.1433, -1.0397), (6.5146, 5.2213, -0.5225), (6.5146, 5.2473, 0.0000), (6.5757, 5.1757, 0.0000), (6.5757, 5.1757, 0.0000), (6.5757, 5.1500, 0.5153), (6.5757, 5.0731, 1.0256), (6.5757, 4.9458, 1.5256), (6.5757, 4.7693, 2.0104), (6.5757, 4.5454, 2.4753), (6.5757, 4.2764, 2.9156), (6.5757, 3.9648, 3.3269), (6.5757, 3.6139, 3.7051), (6.5757, 3.2270, 4.0466), (6.5757, 2.8081, 4.3478), (6.5757, 2.3612, 4.6057), (6.5757, 1.8909, 4.8180), (6.5757, 1.4018, 4.9823), (6.5757, 0.8988, 5.0971), (6.5757, 0.3868, 5.1613), (6.5757, -0.1290, 5.1741), (6.5757, -0.6436, 5.1356), (6.5757, -1.1517, 5.0460), (6.5757, -1.6484, 4.9062), (6.5757, -2.1287, 4.7177), (6.5757, -2.5879, 4.4823), (6.5757, -3.0213, 4.2024), (6.5757, -3.4247, 3.8807), (6.5757, -3.7941, 3.5204), (6.5757, -4.1257, 3.1251), (6.5757, -4.4164, 2.6988), (6.5757, -4.6632, 2.2457), (6.5757, -4.8636, 1.7702), (6.5757, -5.0157, 1.2772), (6.5757, -5.1179, 0.7714), (6.5757, -5.1693, 0.2580), (6.5757, -5.1693, -0.2580), (6.5757, -5.1179, -0.7714), (6.5757, -5.0157, -1.2772), (6.5757, -4.8636, -1.7702), (6.5757, -4.6632, -2.2457), (6.5757, -4.4164, -2.6988), (6.5757, -4.1257, -3.1251), (6.5757, -3.7941, -3.5204), (6.5757, -3.4247, -3.8807), (6.5757, -3.0213, -4.2024), (6.5757, -2.5879, -4.4823), (6.5757, -2.1287, -4.7177), (6.5757, -1.6484, -4.9062), (6.5757, -1.1517, -5.0460), (6.5757, -0.6436, -5.1356), (6.5757, -0.1290, -5.1741), (6.5757, 0.3868, -5.1613), (6.5757, 0.8988, -5.0971), (6.5757, 1.4018, -4.9823), (6.5757, 1.8909, -4.8180), (6.5757, 2.3612, -4.6057), (6.5757, 2.8081, -4.3478), (6.5757, 3.2270, -4.0466), (6.5757, 3.6139, -3.7051), (6.5757, 3.9648, -3.3269), (6.5757, 4.2764, -2.9156), (6.5757, 4.5454, -2.4753), (6.5757, 4.7693, -2.0104), (6.5757, 4.9458, -1.5256), (6.5757, 5.0731, -1.0256), (6.5757, 5.1500, -0.5153), (6.5757, 5.1757, 0.0000), (6.5757, 5.1500, 0.5153), (6.5757, 5.0731, 1.0256), (6.5757, 4.9458, 1.5256), (6.5757, 4.7693, 2.0104), (6.5757, 4.5454, 2.4753), (6.5757, 4.2764, 2.9156), (6.5757, 3.9648, 3.3269), (6.5757, 3.6139, 3.7051), (6.5757, 3.2270, 4.0466), (6.5757, 2.8081, 4.3478), (6.5757, 2.3612, 4.6057), (6.5757, 1.8909, 4.8180), (6.5757, 1.4018, 4.9823), (6.5757, 0.8988, 5.0971), (6.5757, 0.3868, 5.1613), (6.5757, -0.1290, 5.1741), (6.5757, -0.6436, 5.1356), (6.5757, -1.1517, 5.0460), (6.5757, -1.6484, 4.9062), (6.5757, -2.1287, 4.7177), (6.5757, -2.5879, 4.4823), (6.5757, -3.0213, 4.2024), (6.5757, -3.4247, 3.8807), (6.5757, -3.7941, 3.5204), (6.5757, -4.1257, 3.1251), (6.5757, -4.4164, 2.6988), (6.5757, -4.6632, 2.2457), (6.5757, -4.8636, 1.7702), (6.5757, -5.0157, 1.2772), (6.5757, -5.1179, 0.7714), (6.5757, -5.1693, 0.2580), (6.5757, -5.1693, -0.2580), (6.5757, -5.1179, -0.7714), (6.5757, -5.0157, -1.2772), (6.5757, -4.8636, -1.7702), (6.5757, -4.6632, -2.2457), (6.5757, -4.4164, -2.6988), (6.5757, -4.1257, -3.1251), (6.5757, -3.7941, -3.5204), (6.5757, -3.4247, -3.8807), (6.5757, -3.0213, -4.2024), (6.5757, -2.5879, -4.4823), (6.5757, -2.1287, -4.7177), (6.5757, -1.6484, -4.9062), (6.5757, -1.1517, -5.0460), (6.5757, -0.6436, -5.1356), (6.5757, -0.1290, -5.1741), (6.5757, 0.3868, -5.1613), (6.5757, 0.8988, -5.0971), (6.5757, 1.4018, -4.9823), (6.5757, 1.8909, -4.8180), (6.5757, 2.3612, -4.6057), (6.5757, 2.8081, -4.3478), (6.5757, 3.2270, -4.0466), (6.5757, 3.6139, -3.7051), (6.5757, 3.9648, -3.3269), (6.5757, 4.2764, -2.9156), (6.5757, 4.5454, -2.4753), (6.5757, 4.7693, -2.0104), (6.5757, 4.9458, -1.5256), (6.5757, 5.0731, -1.0256), (6.5757, 5.1500, -0.5153), (6.5757, 5.1757, 0.0000), (6.6473, 5.1146, 0.0000), (6.6473, 5.1146, 0.0000), (6.6473, 5.0892, 0.5092), (6.6473, 5.0132, 1.0134), (6.6473, 4.8874, 1.5076), (6.6473, 4.7130, 1.9867), (6.6473, 4.4917, 2.4461), (6.6473, 4.2259, 2.8812), (6.6473, 3.9180, 3.2876), (6.6473, 3.5712, 3.6614), (6.6473, 3.1889, 3.9987), (6.6473, 2.7749, 4.2964), (6.6473, 2.3333, 4.5513), (6.6473, 1.8686, 4.7610), (6.6473, 1.3852, 4.9234), (6.6473, 0.8881, 5.0369), (6.6473, 0.3822, 5.1003), (6.6473, -0.1275, 5.1130), (6.6473, -0.6360, 5.0749), (6.6473, -1.1381, 4.9864), (6.6473, -1.6289, 4.8483), (6.6473, -2.1036, 4.6620), (6.6473, -2.5573, 4.4294), (6.6473, -2.9856, 4.1527), (6.6473, -3.3843, 3.8348), (6.6473, -3.7493, 3.4788), (6.6473, -4.0770, 3.0882), (6.6473, -4.3642, 2.6669), (6.6473, -4.6081, 2.2191), (6.6473, -4.8061, 1.7493), (6.6473, -4.9564, 1.2621), (6.6473, -5.0575, 0.7623), (6.6473, -5.1082, 0.2549), (6.6473, -5.1082, -0.2549), (6.6473, -5.0575, -0.7623), (6.6473, -4.9564, -1.2621), (6.6473, -4.8061, -1.7493), (6.6473, -4.6081, -2.2191), (6.6473, -4.3642, -2.6669), (6.6473, -4.0770, -3.0882), (6.6473, -3.7493, -3.4788), (6.6473, -3.3843, -3.8348), (6.6473, -2.9856, -4.1527), (6.6473, -2.5573, -4.4294), (6.6473, -2.1036, -4.6620), (6.6473, -1.6289, -4.8483), (6.6473, -1.1381, -4.9864), (6.6473, -0.6360, -5.0749), (6.6473, -0.1275, -5.1130), (6.6473, 0.3822, -5.1003), (6.6473, 0.8881, -5.0369), (6.6473, 1.3852, -4.9234), (6.6473, 1.8686, -4.7610), (6.6473, 2.3333, -4.5513), (6.6473, 2.7749, -4.2964), (6.6473, 3.1889, -3.9987), (6.6473, 3.5712, -3.6614), (6.6473, 3.9180, -3.2876), (6.6473, 4.2259, -2.8812), (6.6473, 4.4917, -2.4461), (6.6473, 4.7130, -1.9867), (6.6473, 4.8874, -1.5076), (6.6473, 5.0132, -1.0134), (6.6473, 5.0892, -0.5092), (6.6473, 5.1146, 0.0000), (6.6473, 5.0892, 0.5092), (6.6473, 5.0132, 1.0134), (6.6473, 4.8874, 1.5076), (6.6473, 4.7130, 1.9867), (6.6473, 4.4917, 2.4461), (6.6473, 4.2259, 2.8812), (6.6473, 3.9180, 3.2876), (6.6473, 3.5712, 3.6614), (6.6473, 3.1889, 3.9987), (6.6473, 2.7749, 4.2964), (6.6473, 2.3333, 4.5513), (6.6473, 1.8686, 4.7610), (6.6473, 1.3852, 4.9234), (6.6473, 0.8881, 5.0369), (6.6473, 0.3822, 5.1003), (6.6473, -0.1275, 5.1130), (6.6473, -0.6360, 5.0749), (6.6473, -1.1381, 4.9864), (6.6473, -1.6289, 4.8483), (6.6473, -2.1036, 4.6620), (6.6473, -2.5573, 4.4294), (6.6473, -2.9856, 4.1527), (6.6473, -3.3843, 3.8348), (6.6473, -3.7493, 3.4788), (6.6473, -4.0770, 3.0882), (6.6473, -4.3642, 2.6669), (6.6473, -4.6081, 2.2191), (6.6473, -4.8061, 1.7493), (6.6473, -4.9564, 1.2621), (6.6473, -5.0575, 0.7623), (6.6473, -5.1082, 0.2549), (6.6473, -5.1082, -0.2549), (6.6473, -5.0575, -0.7623), (6.6473, -4.9564, -1.2621), (6.6473, -4.8061, -1.7493), (6.6473, -4.6081, -2.2191), (6.6473, -4.3642, -2.6669), (6.6473, -4.0770, -3.0882), (6.6473, -3.7493, -3.4788), (6.6473, -3.3843, -3.8348), (6.6473, -2.9856, -4.1527), (6.6473, -2.5573, -4.4294), (6.6473, -2.1036, -4.6620), (6.6473, -1.6289, -4.8483), (6.6473, -1.1381, -4.9864), (6.6473, -0.6360, -5.0749), (6.6473, -0.1275, -5.1130), (6.6473, 0.3822, -5.1003), (6.6473, 0.8881, -5.0369), (6.6473, 1.3852, -4.9234), (6.6473, 1.8686, -4.7610), (6.6473, 2.3333, -4.5513), (6.6473, 2.7749, -4.2964), (6.6473, 3.1889, -3.9987), (6.6473, 3.5712, -3.6614), (6.6473, 3.9180, -3.2876), (6.6473, 4.2259, -2.8812), (6.6473, 4.4917, -2.4461), (6.6473, 4.7130, -1.9867), (6.6473, 4.8874, -1.5076), (6.6473, 5.0132, -1.0134), (6.6473, 5.0892, -0.5092), (6.6473, 5.1146, 0.0000), (6.7276, 5.0654, 0.0000), (6.7276, 5.0654, 0.0000), (6.7276, 5.0402, 0.5044), (6.7276, 4.9650, 1.0037), (6.7276, 4.8404, 1.4931), (6.7276, 4.6676, 1.9676), (6.7276, 4.4485, 2.4225), (6.7276, 4.1852, 2.8534), (6.7276, 3.8803, 3.2560), (6.7276, 3.5368, 3.6261), (6.7276, 3.1582, 3.9603), (6.7276, 2.7482, 4.2551), (6.7276, 2.3109, 4.5076), (6.7276, 1.8506, 4.7152), (6.7276, 1.3719, 4.8761), (6.7276, 0.8796, 4.9884), (6.7276, 0.3785, 5.0512), (6.7276, -0.1263, 5.0638), (6.7276, -0.6299, 5.0261), (6.7276, -1.1272, 4.9384), (6.7276, -1.6133, 4.8016), (6.7276, -2.0833, 4.6171), (6.7276, -2.5327, 4.3868), (6.7276, -2.9569, 4.1128), (6.7276, -3.3517, 3.7979), (6.7276, -3.7132, 3.4453), (6.7276, -4.0378, 3.0585), (6.7276, -4.3223, 2.6413), (6.7276, -4.5638, 2.1978), (6.7276, -4.7599, 1.7325), (6.7276, -4.9088, 1.2499), (6.7276, -5.0088, 0.7550), (6.7276, -5.0591, 0.2525), (6.7276, -5.0591, -0.2525), (6.7276, -5.0088, -0.7550), (6.7276, -4.9088, -1.2499), (6.7276, -4.7599, -1.7325), (6.7276, -4.5638, -2.1978), (6.7276, -4.3223, -2.6413), (6.7276, -4.0378, -3.0585), (6.7276, -3.7132, -3.4453), (6.7276, -3.3517, -3.7979), (6.7276, -2.9569, -4.1128), (6.7276, -2.5327, -4.3868), (6.7276, -2.0833, -4.6171), (6.7276, -1.6133, -4.8016), (6.7276, -1.1272, -4.9384), (6.7276, -0.6299, -5.0261), (6.7276, -0.1263, -5.0638), (6.7276, 0.3785, -5.0512), (6.7276, 0.8796, -4.9884), (6.7276, 1.3719, -4.8761), (6.7276, 1.8506, -4.7152), (6.7276, 2.3109, -4.5076), (6.7276, 2.7482, -4.2551), (6.7276, 3.1582, -3.9603), (6.7276, 3.5368, -3.6261), (6.7276, 3.8803, -3.2560), (6.7276, 4.1852, -2.8534), (6.7276, 4.4485, -2.4225), (6.7276, 4.6676, -1.9676), (6.7276, 4.8404, -1.4931), (6.7276, 4.9650, -1.0037), (6.7276, 5.0402, -0.5044), (6.7276, 5.0654, 0.0000), (6.7276, 5.0402, 0.5044), (6.7276, 4.9650, 1.0037), (6.7276, 4.8404, 1.4931), (6.7276, 4.6676, 1.9676), (6.7276, 4.4485, 2.4225), (6.7276, 4.1852, 2.8534), (6.7276, 3.8803, 3.2560), (6.7276, 3.5368, 3.6261), (6.7276, 3.1582, 3.9603), (6.7276, 2.7482, 4.2551), (6.7276, 2.3109, 4.5076), (6.7276, 1.8506, 4.7152), (6.7276, 1.3719, 4.8761), (6.7276, 0.8796, 4.9884), (6.7276, 0.3785, 5.0512), (6.7276, -0.1263, 5.0638), (6.7276, -0.6299, 5.0261), (6.7276, -1.1272, 4.9384), (6.7276, -1.6133, 4.8016), (6.7276, -2.0833, 4.6171), (6.7276, -2.5327, 4.3868), (6.7276, -2.9569, 4.1128), (6.7276, -3.3517, 3.7979), (6.7276, -3.7132, 3.4453), (6.7276, -4.0378, 3.0585), (6.7276, -4.3223, 2.6413), (6.7276, -4.5638, 2.1978), (6.7276, -4.7599, 1.7325), (6.7276, -4.9088, 1.2499), (6.7276, -5.0088, 0.7550), (6.7276, -5.0591, 0.2525), (6.7276, -5.0591, -0.2525), (6.7276, -5.0088, -0.7550), (6.7276, -4.9088, -1.2499), (6.7276, -4.7599, -1.7325), (6.7276, -4.5638, -2.1978), (6.7276, -4.3223, -2.6413), (6.7276, -4.0378, -3.0585), (6.7276, -3.7132, -3.4453), (6.7276, -3.3517, -3.7979), (6.7276, -2.9569, -4.1128), (6.7276, -2.5327, -4.3868), (6.7276, -2.0833, -4.6171), (6.7276, -1.6133, -4.8016), (6.7276, -1.1272, -4.9384), (6.7276, -0.6299, -5.0261), (6.7276, -0.1263, -5.0638), (6.7276, 0.3785, -5.0512), (6.7276, 0.8796, -4.9884), (6.7276, 1.3719, -4.8761), (6.7276, 1.8506, -4.7152), (6.7276, 2.3109, -4.5076), (6.7276, 2.7482, -4.2551), (6.7276, 3.1582, -3.9603), (6.7276, 3.5368, -3.6261), (6.7276, 3.8803, -3.2560), (6.7276, 4.1852, -2.8534), (6.7276, 4.4485, -2.4225), (6.7276, 4.6676, -1.9676), (6.7276, 4.8404, -1.4931), (6.7276, 4.9650, -1.0037), (6.7276, 5.0402, -0.5044), (6.7276, 5.0654, 0.0000), (6.8146, 5.0294, 0.0000), (6.8146, 5.0294, 0.0000), (6.8146, 5.0044, 0.5008), (6.8146, 4.9296, 0.9965), (6.8146, 4.8059, 1.4824), (6.8146, 4.6344, 1.9536), (6.8146, 4.4169, 2.4053), (6.8146, 4.1555, 2.8331), (6.8146, 3.8527, 3.2328), (6.8146, 3.5117, 3.6004), (6.8146, 3.1358, 3.9321), (6.8146, 2.7287, 4.2248), (6.8146, 2.2945, 4.4755), (6.8146, 1.8374, 4.6817), (6.8146, 1.3622, 4.8414), (6.8146, 0.8733, 4.9530), (6.8146, 0.3758, 5.0153), (6.8146, -0.1254, 5.0278), (6.8146, -0.6254, 4.9903), (6.8146, -1.1191, 4.9033), (6.8146, -1.6018, 4.7675), (6.8146, -2.0685, 4.5843), (6.8146, -2.5147, 4.3556), (6.8146, -2.9359, 4.0835), (6.8146, -3.3279, 3.7709), (6.8146, -3.6868, 3.4208), (6.8146, -4.0091, 3.0368), (6.8146, -4.2915, 2.6225), (6.8146, -4.5313, 2.1822), (6.8146, -4.7261, 1.7201), (6.8146, -4.8738, 1.2410), (6.8146, -4.9732, 0.7496), (6.8146, -5.0231, 0.2507), (6.8146, -5.0231, -0.2507), (6.8146, -4.9732, -0.7496), (6.8146, -4.8738, -1.2410), (6.8146, -4.7261, -1.7201), (6.8146, -4.5313, -2.1822), (6.8146, -4.2915, -2.6225), (6.8146, -4.0091, -3.0368), (6.8146, -3.6868, -3.4208), (6.8146, -3.3279, -3.7709), (6.8146, -2.9359, -4.0835), (6.8146, -2.5147, -4.3556), (6.8146, -2.0685, -4.5843), (6.8146, -1.6018, -4.7675), (6.8146, -1.1191, -4.9033), (6.8146, -0.6254, -4.9903), (6.8146, -0.1254, -5.0278), (6.8146, 0.3758, -5.0153), (6.8146, 0.8733, -4.9530), (6.8146, 1.3622, -4.8414), (6.8146, 1.8374, -4.6817), (6.8146, 2.2945, -4.4755), (6.8146, 2.7287, -4.2248), (6.8146, 3.1358, -3.9321), (6.8146, 3.5117, -3.6004), (6.8146, 3.8527, -3.2328), (6.8146, 4.1555, -2.8331), (6.8146, 4.4169, -2.4053), (6.8146, 4.6344, -1.9536), (6.8146, 4.8059, -1.4824), (6.8146, 4.9296, -0.9965), (6.8146, 5.0044, -0.5008), (6.8146, 5.0294, 0.0000), (6.8146, 5.0044, 0.5008), (6.8146, 4.9296, 0.9965), (6.8146, 4.8059, 1.4824), (6.8146, 4.6344, 1.9536), (6.8146, 4.4169, 2.4053), (6.8146, 4.1555, 2.8331), (6.8146, 3.8527, 3.2328), (6.8146, 3.5117, 3.6004), (6.8146, 3.1358, 3.9321), (6.8146, 2.7287, 4.2248), (6.8146, 2.2945, 4.4755), (6.8146, 1.8374, 4.6817), (6.8146, 1.3622, 4.8414), (6.8146, 0.8733, 4.9530), (6.8146, 0.3758, 5.0153), (6.8146, -0.1254, 5.0278), (6.8146, -0.6254, 4.9903), (6.8146, -1.1191, 4.9033), (6.8146, -1.6018, 4.7675), (6.8146, -2.0685, 4.5843), (6.8146, -2.5147, 4.3556), (6.8146, -2.9359, 4.0835), (6.8146, -3.3279, 3.7709), (6.8146, -3.6868, 3.4208), (6.8146, -4.0091, 3.0368), (6.8146, -4.2915, 2.6225), (6.8146, -4.5313, 2.1822), (6.8146, -4.7261, 1.7201), (6.8146, -4.8738, 1.2410), (6.8146, -4.9732, 0.7496), (6.8146, -5.0231, 0.2507), (6.8146, -5.0231, -0.2507), (6.8146, -4.9732, -0.7496), (6.8146, -4.8738, -1.2410), (6.8146, -4.7261, -1.7201), (6.8146, -4.5313, -2.1822), (6.8146, -4.2915, -2.6225), (6.8146, -4.0091, -3.0368), (6.8146, -3.6868, -3.4208), (6.8146, -3.3279, -3.7709), (6.8146, -2.9359, -4.0835), (6.8146, -2.5147, -4.3556), (6.8146, -2.0685, -4.5843), (6.8146, -1.6018, -4.7675), (6.8146, -1.1191, -4.9033), (6.8146, -0.6254, -4.9903), (6.8146, -0.1254, -5.0278), (6.8146, 0.3758, -5.0153), (6.8146, 0.8733, -4.9530), (6.8146, 1.3622, -4.8414), (6.8146, 1.8374, -4.6817), (6.8146, 2.2945, -4.4755), (6.8146, 2.7287, -4.2248), (6.8146, 3.1358, -3.9321), (6.8146, 3.5117, -3.6004), (6.8146, 3.8527, -3.2328), (6.8146, 4.1555, -2.8331), (6.8146, 4.4169, -2.4053), (6.8146, 4.6344, -1.9536), (6.8146, 4.8059, -1.4824), (6.8146, 4.9296, -0.9965), (6.8146, 5.0044, -0.5008), (6.8146, 5.0294, 0.0000), (6.9061, 5.0074, 0.0000), (6.9061, 5.0074, 0.0000), (6.9061, 4.9825, 0.4986), (6.9061, 4.9081, 0.9922), (6.9061, 4.7849, 1.4760), (6.9061, 4.6142, 1.9450), (6.9061, 4.3976, 2.3948), (6.9061, 4.1373, 2.8208), (6.9061, 3.8359, 3.2187), (6.9061, 3.4963, 3.5846), (6.9061, 3.1221, 3.9149), (6.9061, 2.7167, 4.2063), (6.9061, 2.2844, 4.4559), (6.9061, 1.8294, 4.6612), (6.9061, 1.3562, 4.8202), (6.9061, 0.8695, 4.9313), (6.9061, 0.3742, 4.9934), (6.9061, -0.1248, 5.0058), (6.9061, -0.6226, 4.9685), (6.9061, -1.1142, 4.8818), (6.9061, -1.5948, 4.7466), (6.9061, -2.0595, 4.5643), (6.9061, -2.5037, 4.3365), (6.9061, -2.9230, 4.0657), (6.9061, -3.3133, 3.7544), (6.9061, -3.6707, 3.4059), (6.9061, -3.9916, 3.0235), (6.9061, -4.2728, 2.6110), (6.9061, -4.5115, 2.1726), (6.9061, -4.7054, 1.7126), (6.9061, -4.8525, 1.2356), (6.9061, -4.9515, 0.7463), (6.9061, -5.0012, 0.2496), (6.9061, -5.0012, -0.2496), (6.9061, -4.9515, -0.7463), (6.9061, -4.8525, -1.2356), (6.9061, -4.7054, -1.7126), (6.9061, -4.5115, -2.1726), (6.9061, -4.2728, -2.6110), (6.9061, -3.9916, -3.0235), (6.9061, -3.6707, -3.4059), (6.9061, -3.3133, -3.7544), (6.9061, -2.9230, -4.0657), (6.9061, -2.5037, -4.3365), (6.9061, -2.0595, -4.5643), (6.9061, -1.5948, -4.7466), (6.9061, -1.1142, -4.8818), (6.9061, -0.6226, -4.9685), (6.9061, -0.1248, -5.0058), (6.9061, 0.3742, -4.9934), (6.9061, 0.8695, -4.9313), (6.9061, 1.3562, -4.8202), (6.9061, 1.8294, -4.6612), (6.9061, 2.2844, -4.4559), (6.9061, 2.7167, -4.2063), (6.9061, 3.1221, -3.9149), (6.9061, 3.4963, -3.5846), (6.9061, 3.8359, -3.2187), (6.9061, 4.1373, -2.8208), (6.9061, 4.3976, -2.3948), (6.9061, 4.6142, -1.9450), (6.9061, 4.7849, -1.4760), (6.9061, 4.9081, -0.9922), (6.9061, 4.9825, -0.4986), (6.9061, 5.0074, 0.0000), (6.9061, 4.9825, 0.4986), (6.9061, 4.9081, 0.9922), (6.9061, 4.7849, 1.4760), (6.9061, 4.6142, 1.9450), (6.9061, 4.3976, 2.3948), (6.9061, 4.1373, 2.8208), (6.9061, 3.8359, 3.2187), (6.9061, 3.4963, 3.5846), (6.9061, 3.1221, 3.9149), (6.9061, 2.7167, 4.2063), (6.9061, 2.2844, 4.4559), (6.9061, 1.8294, 4.6612), (6.9061, 1.3562, 4.8202), (6.9061, 0.8695, 4.9313), (6.9061, 0.3742, 4.9934), (6.9061, -0.1248, 5.0058), (6.9061, -0.6226, 4.9685), (6.9061, -1.1142, 4.8818), (6.9061, -1.5948, 4.7466), (6.9061, -2.0595, 4.5643), (6.9061, -2.5037, 4.3365), (6.9061, -2.9230, 4.0657), (6.9061, -3.3133, 3.7544), (6.9061, -3.6707, 3.4059), (6.9061, -3.9916, 3.0235), (6.9061, -4.2728, 2.6110), (6.9061, -4.5115, 2.1726), (6.9061, -4.7054, 1.7126), (6.9061, -4.8525, 1.2356), (6.9061, -4.9515, 0.7463), (6.9061, -5.0012, 0.2496), (6.9061, -5.0012, -0.2496), (6.9061, -4.9515, -0.7463), (6.9061, -4.8525, -1.2356), (6.9061, -4.7054, -1.7126), (6.9061, -4.5115, -2.1726), (6.9061, -4.2728, -2.6110), (6.9061, -3.9916, -3.0235), (6.9061, -3.6707, -3.4059), (6.9061, -3.3133, -3.7544), (6.9061, -2.9230, -4.0657), (6.9061, -2.5037, -4.3365), (6.9061, -2.0595, -4.5643), (6.9061, -1.5948, -4.7466), (6.9061, -1.1142, -4.8818), (6.9061, -0.6226, -4.9685), (6.9061, -0.1248, -5.0058), (6.9061, 0.3742, -4.9934), (6.9061, 0.8695, -4.9313), (6.9061, 1.3562, -4.8202), (6.9061, 1.8294, -4.6612), (6.9061, 2.2844, -4.4559), (6.9061, 2.7167, -4.2063), (6.9061, 3.1221, -3.9149), (6.9061, 3.4963, -3.5846), (6.9061, 3.8359, -3.2187), (6.9061, 4.1373, -2.8208), (6.9061, 4.3976, -2.3948), (6.9061, 4.6142, -1.9450), (6.9061, 4.7849, -1.4760), (6.9061, 4.9081, -0.9922), (6.9061, 4.9825, -0.4986), (6.9061, 5.0074, 0.0000), (7.0000, 5.0000, 0.0000), (7.0000, 5.0000, 0.0000), (7.0000, 4.9752, 0.4978), (7.0000, 4.9009, 0.9907), (7.0000, 4.7779, 1.4738), (7.0000, 4.6074, 1.9422), (7.0000, 4.3911, 2.3913), (7.0000, 4.1312, 2.8166), (7.0000, 3.8302, 3.2139), (7.0000, 3.4912, 3.5793), (7.0000, 3.1174, 3.9092), (7.0000, 2.7127, 4.2001), (7.0000, 2.2811, 4.4494), (7.0000, 1.8267, 4.6544), (7.0000, 1.3542, 4.8131), (7.0000, 0.8682, 4.9240), (7.0000, 0.3737, 4.9860), (7.0000, -0.1247, 4.9984), (7.0000, -0.6217, 4.9612), (7.0000, -1.1126, 4.8746), (7.0000, -1.5924, 4.7396), (7.0000, -2.0564, 4.5575), (7.0000, -2.5000, 4.3301), (7.0000, -2.9187, 4.0597), (7.0000, -3.3084, 3.7489), (7.0000, -3.6653, 3.4009), (7.0000, -3.9857, 3.0190), (7.0000, -4.2665, 2.6072), (7.0000, -4.5048, 2.1694), (7.0000, -4.6985, 1.7101), (7.0000, -4.8454, 1.2338), (7.0000, -4.9442, 0.7452), (7.0000, -4.9938, 0.2492), (7.0000, -4.9938, -0.2492), (7.0000, -4.9442, -0.7452), (7.0000, -4.8454, -1.2338), (7.0000, -4.6985, -1.7101), (7.0000, -4.5048, -2.1694), (7.0000, -4.2665, -2.6072), (7.0000, -3.9857, -3.0190), (7.0000, -3.6653, -3.4009), (7.0000, -3.3084, -3.7489), (7.0000, -2.9187, -4.0597), (7.0000, -2.5000, -4.3301), (7.0000, -2.0564, -4.5575), (7.0000, -1.5924, -4.7396), (7.0000, -1.1126, -4.8746), (7.0000, -0.6217, -4.9612), (7.0000, -0.1247, -4.9984), (7.0000, 0.3737, -4.9860), (7.0000, 0.8682, -4.9240), (7.0000, 1.3542, -4.8131), (7.0000, 1.8267, -4.6544), (7.0000, 2.2811, -4.4494), (7.0000, 2.7127, -4.2001), (7.0000, 3.1174, -3.9092), (7.0000, 3.4912, -3.5793), (7.0000, 3.8302, -3.2139), (7.0000, 4.1312, -2.8166), (7.0000, 4.3911, -2.3913), (7.0000, 4.6074, -1.9422), (7.0000, 4.7779, -1.4738), (7.0000, 4.9009, -0.9907), (7.0000, 4.9752, -0.4978), (7.0000, 5.0000, 0.0000), (7.0000, 4.9752, 0.4978), (7.0000, 4.9009, 0.9907), (7.0000, 4.7779, 1.4738), (7.0000, 4.6074, 1.9422), (7.0000, 4.3911, 2.3913), (7.0000, 4.1312, 2.8166), (7.0000, 3.8302, 3.2139), (7.0000, 3.4912, 3.5793), (7.0000, 3.1174, 3.9092), (7.0000, 2.7127, 4.2001), (7.0000, 2.2811, 4.4494), (7.0000, 1.8267, 4.6544), (7.0000, 1.3542, 4.8131), (7.0000, 0.8682, 4.9240), (7.0000, 0.3737, 4.9860), (7.0000, -0.1247, 4.9984), (7.0000, -0.6217, 4.9612), (7.0000, -1.1126, 4.8746), (7.0000, -1.5924, 4.7396), (7.0000, -2.0564, 4.5575), (7.0000, -2.5000, 4.3301), (7.0000, -2.9187, 4.0597), (7.0000, -3.3084, 3.7489), (7.0000, -3.6653, 3.4009), (7.0000, -3.9857, 3.0190), (7.0000, -4.2665, 2.6072), (7.0000, -4.5048, 2.1694), (7.0000, -4.6985, 1.7101), (7.0000, -4.8454, 1.2338), (7.0000, -4.9442, 0.7452), (7.0000, -4.9938, 0.2492), (7.0000, -4.9938, -0.2492), (7.0000, -4.9442, -0.7452), (7.0000, -4.8454, -1.2338), (7.0000, -4.6985, -1.7101), (7.0000, -4.5048, -2.1694), (7.0000, -4.2665, -2.6072), (7.0000, -3.9857, -3.0190), (7.0000, -3.6653, -3.4009), (7.0000, -3.3084, -3.7489), (7.0000, -2.9187, -4.0597), (7.0000, -2.5000, -4.3301), (7.0000, -2.0564, -4.5575), (7.0000, -1.5924, -4.7396), (7.0000, -1.1126, -4.8746), (7.0000, -0.6217, -4.9612), (7.0000, -0.1247, -4.9984), (7.0000, 0.3737, -4.9860), (7.0000, 0.8682, -4.9240), (7.0000, 1.3542, -4.8131), (7.0000, 1.8267, -4.6544), (7.0000, 2.2811, -4.4494), (7.0000, 2.7127, -4.2001), (7.0000, 3.1174, -3.9092), (7.0000, 3.4912, -3.5793), (7.0000, 3.8302, -3.2139), (7.0000, 4.1312, -2.8166), (7.0000, 4.3911, -2.3913), (7.0000, 4.6074, -1.9422), (7.0000, 4.7779, -1.4738), (7.0000, 4.9009, -0.9907), (7.0000, 4.9752, -0.4978), (7.0000, 5.0000, 0.0000), (44.9000, 5.0000, 0.0000), (44.9000, 5.0000, 0.0000), (44.9000, 4.9752, 0.4978), (44.9000, 4.9009, 0.9907), (44.9000, 4.7779, 1.4738), (44.9000, 4.6074, 1.9422), (44.9000, 4.3911, 2.3913), (44.9000, 4.1312, 2.8166), (44.9000, 3.8302, 3.2139), (44.9000, 3.4912, 3.5793), (44.9000, 3.1174, 3.9092), (44.9000, 2.7127, 4.2001), (44.9000, 2.2811, 4.4494), (44.9000, 1.8267, 4.6544), (44.9000, 1.3542, 4.8131), (44.9000, 0.8682, 4.9240), (44.9000, 0.3737, 4.9860), (44.9000, -0.1247, 4.9984), (44.9000, -0.6217, 4.9612), (44.9000, -1.1126, 4.8746), (44.9000, -1.5924, 4.7396), (44.9000, -2.0564, 4.5575), (44.9000, -2.5000, 4.3301), (44.9000, -2.9187, 4.0597), (44.9000, -3.3084, 3.7489), (44.9000, -3.6653, 3.4009), (44.9000, -3.9857, 3.0190), (44.9000, -4.2665, 2.6072), (44.9000, -4.5048, 2.1694), (44.9000, -4.6985, 1.7101), (44.9000, -4.8454, 1.2338), (44.9000, -4.9442, 0.7452), (44.9000, -4.9938, 0.2492), (44.9000, -4.9938, -0.2492), (44.9000, -4.9442, -0.7452), (44.9000, -4.8454, -1.2338), (44.9000, -4.6985, -1.7101), (44.9000, -4.5048, -2.1694), (44.9000, -4.2665, -2.6072), (44.9000, -3.9857, -3.0190), (44.9000, -3.6653, -3.4009), (44.9000, -3.3084, -3.7489), (44.9000, -2.9187, -4.0597), (44.9000, -2.5000, -4.3301), (44.9000, -2.0564, -4.5575), (44.9000, -1.5924, -4.7396), (44.9000, -1.1126, -4.8746), (44.9000, -0.6217, -4.9612), (44.9000, -0.1247, -4.9984), (44.9000, 0.3737, -4.9860), (44.9000, 0.8682, -4.9240), (44.9000, 1.3542, -4.8131), (44.9000, 1.8267, -4.6544), (44.9000, 2.2811, -4.4494), (44.9000, 2.7127, -4.2001), (44.9000, 3.1174, -3.9092), (44.9000, 3.4912, -3.5793), (44.9000, 3.8302, -3.2139), (44.9000, 4.1312, -2.8166), (44.9000, 4.3911, -2.3913), (44.9000, 4.6074, -1.9422), (44.9000, 4.7779, -1.4738), (44.9000, 4.9009, -0.9907), (44.9000, 4.9752, -0.4978), (44.9000, 5.0000, 0.0000), (44.9000, 4.9752, 0.4978), (44.9000, 4.9009, 0.9907), (44.9000, 4.7779, 1.4738), (44.9000, 4.6074, 1.9422), (44.9000, 4.3911, 2.3913), (44.9000, 4.1312, 2.8166), (44.9000, 3.8302, 3.2139), (44.9000, 3.4912, 3.5793), (44.9000, 3.1174, 3.9092), (44.9000, 2.7127, 4.2001), (44.9000, 2.2811, 4.4494), (44.9000, 1.8267, 4.6544), (44.9000, 1.3542, 4.8131), (44.9000, 0.8682, 4.9240), (44.9000, 0.3737, 4.9860), (44.9000, -0.1247, 4.9984), (44.9000, -0.6217, 4.9612), (44.9000, -1.1126, 4.8746), (44.9000, -1.5924, 4.7396), (44.9000, -2.0564, 4.5575), (44.9000, -2.5000, 4.3301), (44.9000, -2.9187, 4.0597), (44.9000, -3.3084, 3.7489), (44.9000, -3.6653, 3.4009), (44.9000, -3.9857, 3.0190), (44.9000, -4.2665, 2.6072), (44.9000, -4.5048, 2.1694), (44.9000, -4.6985, 1.7101), (44.9000, -4.8454, 1.2338), (44.9000, -4.9442, 0.7452), (44.9000, -4.9938, 0.2492), (44.9000, -4.9938, -0.2492), (44.9000, -4.9442, -0.7452), (44.9000, -4.8454, -1.2338), (44.9000, -4.6985, -1.7101), (44.9000, -4.5048, -2.1694), (44.9000, -4.2665, -2.6072), (44.9000, -3.9857, -3.0190), (44.9000, -3.6653, -3.4009), (44.9000, -3.3084, -3.7489), (44.9000, -2.9187, -4.0597), (44.9000, -2.5000, -4.3301), (44.9000, -2.0564, -4.5575), (44.9000, -1.5924, -4.7396), (44.9000, -1.1126, -4.8746), (44.9000, -0.6217, -4.9612), (44.9000, -0.1247, -4.9984), (44.9000, 0.3737, -4.9860), (44.9000, 0.8682, -4.9240), (44.9000, 1.3542, -4.8131), (44.9000, 1.8267, -4.6544), (44.9000, 2.2811, -4.4494), (44.9000, 2.7127, -4.2001), (44.9000, 3.1174, -3.9092), (44.9000, 3.4912, -3.5793), (44.9000, 3.8302, -3.2139), (44.9000, 4.1312, -2.8166), (44.9000, 4.3911, -2.3913), (44.9000, 4.6074, -1.9422), (44.9000, 4.7779, -1.4738), (44.9000, 4.9009, -0.9907), (44.9000, 4.9752, -0.4978), (44.9000, 5.0000, 0.0000), (45.4000, 4.5000, 0.0000), (45.9000, 4.0000, 0.0000), (46.4000, 3.5000, 0.0000), (46.4000, 3.5000, 0.0000), (46.4000, 3.4826, 0.3485), (46.4000, 3.4306, 0.6935), (46.4000, 3.3445, 1.0316), (46.4000, 3.2252, 1.3595), (46.4000, 3.0738, 1.6739), (46.4000, 2.8918, 1.9716), (46.4000, 2.6812, 2.2498), (46.4000, 2.4438, 2.5055), (46.4000, 2.1822, 2.7364), (46.4000, 1.8989, 2.9401), (46.4000, 1.5967, 3.1146), (46.4000, 1.2787, 3.2581), (46.4000, 0.9479, 3.3692), (46.4000, 0.6078, 3.4468), (46.4000, 0.2616, 3.4902), (46.4000, -0.0873, 3.4989), (46.4000, -0.4352, 3.4728), (46.4000, -0.7788, 3.4122), (46.4000, -1.1147, 3.3177), (46.4000, -1.4395, 3.1903), (46.4000, -1.7500, 3.0311), (46.4000, -2.0431, 2.8418), (46.4000, -2.3159, 2.6242), (46.4000, -2.5657, 2.3806), (46.4000, -2.7900, 2.1133), (46.4000, -2.9865, 1.8250), (46.4000, -3.1534, 1.5186), (46.4000, -3.2889, 1.1971), (46.4000, -3.3918, 0.8637), (46.4000, -3.4609, 0.5216), (46.4000, -3.4956, 0.1745), (46.4000, -3.4956, -0.1745), (46.4000, -3.4609, -0.5216), (46.4000, -3.3918, -0.8637), (46.4000, -3.2889, -1.1971), (46.4000, -3.1534, -1.5186), (46.4000, -2.9865, -1.8250), (46.4000, -2.7900, -2.1133), (46.4000, -2.5657, -2.3806), (46.4000, -2.3159, -2.6242), (46.4000, -2.0431, -2.8418), (46.4000, -1.7500, -3.0311), (46.4000, -1.4395, -3.1903), (46.4000, -1.1147, -3.3177), (46.4000, -0.7788, -3.4122), (46.4000, -0.4352, -3.4728), (46.4000, -0.0873, -3.4989), (46.4000, 0.2616, -3.4902), (46.4000, 0.6078, -3.4468), (46.4000, 0.9479, -3.3692), (46.4000, 1.2787, -3.2581), (46.4000, 1.5967, -3.1146), (46.4000, 1.8989, -2.9401), (46.4000, 2.1822, -2.7364), (46.4000, 2.4438, -2.5055), (46.4000, 2.6812, -2.2498), (46.4000, 2.8918, -1.9716), (46.4000, 3.0738, -1.6739), (46.4000, 3.2252, -1.3595), (46.4000, 3.3445, -1.0316), (46.4000, 3.4306, -0.6935), (46.4000, 3.4826, -0.3485), (45.4000, 4.5000, 0.0000), (45.9000, 4.0000, 0.0000), (45.4000, 4.4135, 0.8779), (45.9000, 3.9231, 0.7804), (45.4000, 4.1575, 1.7221), (45.9000, 3.6955, 1.5307), (45.4000, 3.7416, 2.5001), (45.9000, 3.3259, 2.2223), (45.4000, 3.1820, 3.1820), (45.9000, 2.8284, 2.8284), (45.4000, 2.5001, 3.7416), (45.9000, 2.2223, 3.3259), (45.4000, 1.7221, 4.1575), (45.9000, 1.5307, 3.6955), (45.4000, 0.8779, 4.4135), (45.9000, 0.7804, 3.9231), (45.4000, 0.0000, 4.5000), (45.9000, 0.0000, 4.0000), (45.4000, -0.8779, 4.4135), (45.9000, -0.7804, 3.9231), (45.4000, -1.7221, 4.1575), (45.9000, -1.5307, 3.6955), (45.4000, -2.5001, 3.7416), (45.9000, -2.2223, 3.3259), (45.4000, -3.1820, 3.1820), (45.9000, -2.8284, 2.8284), (45.4000, -3.7416, 2.5001), (45.9000, -3.3259, 2.2223), (45.4000, -4.1575, 1.7221), (45.9000, -3.6955, 1.5307), (45.4000, -4.4135, 0.8779), (45.9000, -3.9231, 0.7804), (45.4000, -4.5000, -0.0000), (45.9000, -4.0000, -0.0000), (45.4000, -4.4135, -0.8779), (45.9000, -3.9231, -0.7804), (45.4000, -4.1575, -1.7221), (45.9000, -3.6955, -1.5307), (45.4000, -3.7416, -2.5001), (45.9000, -3.3259, -2.2223), (45.4000, -3.1820, -3.1820), (45.9000, -2.8284, -2.8284), (45.4000, -2.5001, -3.7416), (45.9000, -2.2223, -3.3259), (45.4000, -1.7221, -4.1575), (45.9000, -1.5307, -3.6955), (45.4000, -0.8779, -4.4135), (45.9000, -0.7804, -3.9231), (45.4000, 0.0000, -4.5000), (45.9000, 0.0000, -4.0000), (45.4000, 0.8779, -4.4135), (45.9000, 0.7804, -3.9231), (45.4000, 1.7221, -4.1575), (45.9000, 1.5307, -3.6955), (45.4000, 2.5001, -3.7416), (45.9000, 2.2223, -3.3259), (45.4000, 3.1820, -3.1820), (45.9000, 2.8284, -2.8284), (45.4000, 3.7416, -2.5001), (45.9000, 3.3259, -2.2223), (45.4000, 4.1575, -1.7221), (45.9000, 3.6955, -1.5307), (45.4000, 4.4135, -0.8779), (45.9000, 3.9231, -0.7804), (46.4000, 3.5000, 0.0000), (46.4000, 3.4826, 0.3485), (46.4000, 3.4306, 0.6935), (46.4000, 3.3445, 1.0316), (46.4000, 3.2252, 1.3595), (46.4000, 3.0738, 1.6739), (46.4000, 2.8918, 1.9716), (46.4000, 2.6812, 2.2498), (46.4000, 2.4438, 2.5055), (46.4000, 2.1822, 2.7364), (46.4000, 1.8989, 2.9401), (46.4000, 1.5967, 3.1146), (46.4000, 1.2787, 3.2581), (46.4000, 0.9479, 3.3692), (46.4000, 0.6078, 3.4468), (46.4000, 0.2616, 3.4902), (46.4000, -0.0873, 3.4989), (46.4000, -0.4352, 3.4728), (46.4000, -0.7788, 3.4122), (46.4000, -1.1147, 3.3177), (46.4000, -1.4395, 3.1903), (46.4000, -1.7500, 3.0311), (46.4000, -2.0431, 2.8418), (46.4000, -2.3159, 2.6242), (46.4000, -2.5657, 2.3806), (46.4000, -2.7900, 2.1133), (46.4000, -2.9865, 1.8250), (46.4000, -3.1534, 1.5186), (46.4000, -3.2889, 1.1971), (46.4000, -3.3918, 0.8637), (46.4000, -3.4609, 0.5216), (46.4000, -3.4956, 0.1745), (46.4000, -3.4956, -0.1745), (46.4000, -3.4609, -0.5216), (46.4000, -3.3918, -0.8637), (46.4000, -3.2889, -1.1971), (46.4000, -3.1534, -1.5186), (46.4000, -2.9865, -1.8250), (46.4000, -2.7900, -2.1133), (46.4000, -2.5657, -2.3806), (46.4000, -2.3159, -2.6242), (46.4000, -2.0431, -2.8418), (46.4000, -1.7500, -3.0311), (46.4000, -1.4395, -3.1903), (46.4000, -1.1147, -3.3177), (46.4000, -0.7788, -3.4122), (46.4000, -0.4352, -3.4728), (46.4000, -0.0873, -3.4989), (46.4000, 0.2616, -3.4902), (46.4000, 0.6078, -3.4468), (46.4000, 0.9479, -3.3692), (46.4000, 1.2787, -3.2581), (46.4000, 1.5967, -3.1146), (46.4000, 1.8989, -2.9401), (46.4000, 2.1822, -2.7364), (46.4000, 2.4438, -2.5055), (46.4000, 2.6812, -2.2498), (46.4000, 2.8918, -1.9716), (46.4000, 3.0738, -1.6739), (46.4000, 3.2252, -1.3595), (46.4000, 3.3445, -1.0316), (46.4000, 3.4306, -0.6935), (46.4000, 3.4826, -0.3485), (6.4000, 0.0000, 9.2376), (6.4000, 8.0000, 4.6188), (6.4000, -8.0000, 4.6188), (6.4000, -8.0000, -4.6188), (6.4000, -0.0000, -9.2376), (6.4000, 8.0000, -4.6188), (6.4000, 5.6000, 0.0000), (6.4000, 5.5722, 0.5576), (6.4000, 5.4890, 1.1096), (6.4000, 5.3512, 1.6506), (6.4000, 5.1603, 2.1752), (6.4000, 4.9180, 2.6782), (6.4000, 4.6269, 3.1546), (6.4000, 4.2898, 3.5996), (6.4000, 3.9101, 4.0089), (6.4000, 3.4915, 4.3783), (6.4000, 3.0383, 4.7041), (6.4000, 2.5548, 4.9833), (6.4000, 2.0459, 5.2129), (6.4000, 1.5167, 5.3907), (6.4000, 0.9724, 5.5149), (6.4000, 0.4185, 5.5843), (6.4000, -0.1396, 5.5983), (6.4000, -0.6963, 5.5565), (6.4000, -1.2461, 5.4596), (6.4000, -1.7835, 5.3084), (6.4000, -2.3032, 5.1044), (6.4000, -2.8000, 4.8497), (6.4000, -3.2690, 4.5469), (6.4000, -3.7054, 4.1988), (6.4000, -4.1051, 3.8090), (6.4000, -4.4639, 3.3813), (6.4000, -4.7784, 2.9200), (6.4000, -5.0454, 2.4297), (6.4000, -5.2623, 1.9153), (6.4000, -5.4268, 1.3818), (6.4000, -5.5375, 0.8346), (6.4000, -5.5930, 0.2791), (6.4000, -5.5930, -0.2791), (6.4000, -5.5375, -0.8346), (6.4000, -5.4268, -1.3818), (6.4000, -5.2623, -1.9153), (6.4000, -5.0454, -2.4297), (6.4000, -4.7784, -2.9200), (6.4000, -4.4639, -3.3813), (6.4000, -4.1051, -3.8090), (6.4000, -3.7054, -4.1988), (6.4000, -3.2690, -4.5469), (6.4000, -2.8000, -4.8497), (6.4000, -2.3032, -5.1044), (6.4000, -1.7835, -5.3084), (6.4000, -1.2461, -5.4596), (6.4000, -0.6963, -5.5565), (6.4000, -0.1396, -5.5983), (6.4000, 0.4185, -5.5843), (6.4000, 0.9724, -5.5149), (6.4000, 1.5167, -5.3907), (6.4000, 2.0459, -5.2129), (6.4000, 2.5548, -4.9833), (6.4000, 3.0383, -4.7041), (6.4000, 3.4915, -4.3783), (6.4000, 3.9101, -4.0089), (6.4000, 4.2898, -3.5996), (6.4000, 4.6269, -3.1546), (6.4000, 4.9180, -2.6782), (6.4000, 5.1603, -2.1752), (6.4000, 5.3512, -1.6506), (6.4000, 5.4890, -1.1096), (6.4000, 5.5722, -0.5576), (0.9959, 0.0000, 9.2376), (0.7162, -0.2875, 9.0716), (0.4572, -0.5702, 8.9084), (0.2186, -0.8483, 8.7478), (0.0000, -1.1223, 8.5896), (6.4000, 0.0000, 9.2376), (6.4000, -8.0000, 4.6188), (0.9959, -8.0000, 4.6188), (0.0000, -6.8777, 5.2668), (0.2186, -7.1517, 5.1086), (0.4572, -7.4298, 4.9480), (0.7162, -7.7125, 4.7848), (0.0000, -6.8777, 5.2668), (0.2186, -7.1517, 5.1086), (0.4572, -7.4298, 4.9480), (0.7162, -7.7125, 4.7848), (0.9959, -8.0000, 4.6188), (0.0000, -7.3075, 4.6521), (0.0000, -7.6826, 4.0025), (0.0000, -8.0000, 3.3229), (0.7162, -8.0000, 4.2868), (0.4572, -8.0000, 3.9604), (0.2186, -8.0000, 3.6393), (0.0000, 8.0000, 3.3229), (0.0000, 7.6826, 4.0025), (0.0000, 7.3075, 4.6521), (0.0000, 6.8777, 5.2668), (0.0000, 8.0000, -3.3229), (0.0000, 6.8777, -5.2668), (0.0000, 7.3075, -4.6521), (0.0000, 7.6826, -4.0025), (0.0000, 1.1223, -8.5896), (0.0000, -1.1223, -8.5896), (0.0000, -0.3750, -8.6545), (0.0000, 0.3750, -8.6545), (0.0000, -6.8777, -5.2668), (0.0000, -8.0000, -3.3229), (0.0000, -7.6826, -4.0025), (0.0000, -7.3075, -4.6521), (0.0000, -8.0000, 3.3229), (0.0000, -6.8777, 5.2668), (0.0000, -7.3075, 4.6521), (0.0000, -7.6826, 4.0025), (0.0000, -1.1223, 8.5896), (0.0000, 1.1223, 8.5896), (0.0000, 0.3750, 8.6545), (0.0000, -0.3750, 8.6545), (0.0000, 6.8777, -5.2668), (0.0000, 7.3075, -4.6521), (0.0000, 7.6826, -4.0025), (0.0000, 8.0000, -3.3229), (0.9959, 8.0000, -4.6188), (0.7162, 8.0000, -4.2868), (0.4572, 8.0000, -3.9604), (0.2186, 8.0000, -3.6393), (0.2186, 7.1517, -5.1086), (0.4572, 7.4298, -4.9480), (0.7162, 7.7125, -4.7848), (0.0000, -1.1223, -8.5896), (0.0000, -0.3750, -8.6545), (0.0000, 0.3750, -8.6545), (0.0000, 1.1223, -8.5896), (0.9959, -0.0000, -9.2376), (0.7162, 0.2875, -9.0716), (0.4572, 0.5702, -8.9084), (0.2186, 0.8483, -8.7478), (0.2186, -0.8483, -8.7478), (0.4572, -0.5702, -8.9084), (0.7162, -0.2875, -9.0716), (0.0000, -8.0000, -3.3229), (0.0000, -7.6826, -4.0025), (0.0000, -7.3075, -4.6521), (0.0000, -6.8777, -5.2668), (0.9959, -8.0000, -4.6188), (0.7162, -7.7125, -4.7848), (0.4572, -7.4298, -4.9480), (0.2186, -7.1517, -5.1086), (0.2186, -8.0000, -3.6393), (0.4572, -8.0000, -3.9604), (0.7162, -8.0000, -4.2868), (0.0000, 8.0000, 3.3229), (0.2186, 8.0000, 3.6393), (0.4572, 8.0000, 3.9604), (0.7162, 8.0000, 4.2868), (0.9959, 8.0000, 4.6188), (0.0000, 7.6826, 4.0025), (0.0000, 7.3075, 4.6521), (0.0000, 6.8777, 5.2668), (0.7162, 7.7125, 4.7848), (0.4572, 7.4298, 4.9480), (0.2186, 7.1517, 5.1086), (0.0000, 1.1223, 8.5896), (0.2186, 0.8483, 8.7478), (0.4572, 0.5702, 8.9084), (0.7162, 0.2875, 9.0716), (0.9959, 0.0000, 9.2376), (0.0000, 0.3750, 8.6545), (0.0000, -0.3750, 8.6545), (0.0000, -1.1223, 8.5896), (0.7162, -0.2875, 9.0716), (0.4572, -0.5702, 8.9084), (0.2186, -0.8483, 8.7478), (0.9959, -8.0000, 4.6188), (0.7162, -8.0000, 4.2868), (0.4572, -8.0000, 3.9604), (0.2186, -8.0000, 3.6393), (0.0000, -8.0000, 3.3229), (6.4000, -8.0000, 4.6188), (6.4000, -8.0000, -4.6188), (0.9959, -8.0000, -4.6188), (0.0000, -8.0000, -3.3229), (0.2186, -8.0000, -3.6393), (0.4572, -8.0000, -3.9604), (0.7162, -8.0000, -4.2868), (0.9959, -8.0000, -4.6188), (0.7162, -7.7125, -4.7848), (0.4572, -7.4298, -4.9480), (0.2186, -7.1517, -5.1086), (0.0000, -6.8777, -5.2668), (6.4000, -8.0000, -4.6188), (6.4000, -0.0000, -9.2376), (0.9959, -0.0000, -9.2376), (0.0000, -1.1223, -8.5896), (0.2186, -0.8483, -8.7478), (0.4572, -0.5702, -8.9084), (0.7162, -0.2875, -9.0716), (0.9959, -0.0000, -9.2376), (0.7162, 0.2875, -9.0716), (0.4572, 0.5702, -8.9084), (0.2186, 0.8483, -8.7478), (0.0000, 1.1223, -8.5896), (6.4000, -0.0000, -9.2376), (6.4000, 8.0000, -4.6188), (0.9959, 8.0000, -4.6188), (0.0000, 6.8777, -5.2668), (0.2186, 7.1517, -5.1086), (0.4572, 7.4298, -4.9480), (0.7162, 7.7125, -4.7848), (0.9959, 8.0000, -4.6188), (0.7162, 8.0000, -4.2868), (0.4572, 8.0000, -3.9604), (0.2186, 8.0000, -3.6393), (0.0000, 8.0000, -3.3229), (6.4000, 8.0000, -4.6188), (6.4000, 8.0000, 4.6188), (0.9959, 8.0000, 4.6188), (0.0000, 8.0000, 3.3229), (0.2186, 8.0000, 3.6393), (0.4572, 8.0000, 3.9604), (0.7162, 8.0000, 4.2868), (0.9959, 8.0000, 4.6188), (0.7162, 7.7125, 4.7848), (0.4572, 7.4298, 4.9480), (0.2186, 7.1517, 5.1086), (0.0000, 6.8777, 5.2668), (6.4000, 8.0000, 4.6188), (6.4000, 0.0000, 9.2376), (0.9959, 0.0000, 9.2376), (0.0000, 1.1223, 8.5896), (0.2186, 0.8483, 8.7478), (0.4572, 0.5702, 8.9084), (0.7162, 0.2875, 9.0716)]
        uniform token subdivisionScheme = "none"
        color3f[] primvars:displayColor = [(0.72, 0.74, 0.77)]
    }
}
