0
SECTION
2
HEADER
9
$ACADVER
1
AC1009
9
$INSUNITS
70
4
0
ENDSEC
0
SECTION
2
TABLES
0
TABLE
2
LTYPE
70
3
0
LTYPE
2
CONTINUOUS
70
0
3
Solid line
72
65
73
0
40
0
0
LTYPE
2
DASHED
70
0
3
Dashed __ __ __
72
65
73
2
40
4.5
49
3
49
-1.5
0
LTYPE
2
CENTER
70
0
3
Center ____ _ ____
72
65
73
4
40
11.5
49
8
49
-1.5
49
0.5
49
-1.5
0
ENDTAB
0
TABLE
2
LAYER
70
9
0
LAYER
2
OUTLINE
70
0
62
7
6
CONTINUOUS
0
LAYER
2
HIDDEN
70
0
62
8
6
DASHED
0
LAYER
2
CENTER
70
0
62
1
6
CENTER
0
LAYER
2
THIN
70
0
62
7
6
CONTINUOUS
0
LAYER
2
DIM
70
0
62
3
6
CONTINUOUS
0
LAYER
2
HATCH
70
0
62
8
6
CONTINUOUS
0
LAYER
2
FRAME
70
0
62
7
6
CONTINUOUS
0
LAYER
2
TEXT
70
0
62
7
6
CONTINUOUS
0
LAYER
2
CUT
70
0
62
5
6
DASHED
0
ENDTAB
0
ENDSEC
0
SECTION
2
ENTITIES
0
LINE
8
OUTLINE
10
94.91
20
159.15
30
0
11
95.91
21
160.15
31
0
0
LINE
8
OUTLINE
10
95.91
20
160.15
30
0
11
104.91
21
160.15
31
0
0
LINE
8
OUTLINE
10
104.91
20
160.15
30
0
11
104.91
21
149.15
31
0
0
LINE
8
OUTLINE
10
104.91
20
149.15
30
0
11
104.927
21
148.889
31
0
0
LINE
8
OUTLINE
10
104.927
20
148.889
30
0
11
104.978
21
148.632
31
0
0
LINE
8
OUTLINE
10
104.978
20
148.632
30
0
11
105.062
21
148.385
31
0
0
LINE
8
OUTLINE
10
105.062
20
148.385
30
0
11
105.178
21
148.15
31
0
0
LINE
8
OUTLINE
10
105.178
20
148.15
30
0
11
105.323
21
147.932
31
0
0
LINE
8
OUTLINE
10
105.323
20
147.932
30
0
11
105.496
21
147.736
31
0
0
LINE
8
OUTLINE
10
105.496
20
147.736
30
0
11
105.692
21
147.563
31
0
0
LINE
8
OUTLINE
10
105.692
20
147.563
30
0
11
105.91
21
147.418
31
0
0
LINE
8
OUTLINE
10
105.91
20
147.418
30
0
11
106.145
21
147.302
31
0
0
LINE
8
OUTLINE
10
106.145
20
147.302
30
0
11
106.392
21
147.218
31
0
0
LINE
8
OUTLINE
10
106.392
20
147.218
30
0
11
106.649
21
147.167
31
0
0
LINE
8
OUTLINE
10
106.649
20
147.167
30
0
11
106.91
21
147.15
31
0
0
LINE
8
OUTLINE
10
106.91
20
147.15
30
0
11
110.91
21
147.15
31
0
0
LINE
8
OUTLINE
10
110.91
20
147.15
30
0
11
110.91
21
145.65
31
0
0
LINE
8
OUTLINE
10
110.91
20
145.65
30
0
11
110.923
21
145.454
31
0
0
LINE
8
OUTLINE
10
110.923
20
145.454
30
0
11
110.961
21
145.262
31
0
0
LINE
8
OUTLINE
10
110.961
20
145.262
30
0
11
111.024
21
145.076
31
0
0
LINE
8
OUTLINE
10
111.024
20
145.076
30
0
11
111.111
21
144.9
31
0
0
LINE
8
OUTLINE
10
111.111
20
144.9
30
0
11
111.22
21
144.737
31
0
0
LINE
8
OUTLINE
10
111.22
20
144.737
30
0
11
111.349
21
144.589
31
0
0
LINE
8
OUTLINE
10
111.349
20
144.589
30
0
11
111.497
21
144.46
31
0
0
LINE
8
OUTLINE
10
111.497
20
144.46
30
0
11
111.66
21
144.351
31
0
0
LINE
8
OUTLINE
10
111.66
20
144.351
30
0
11
111.836
21
144.264
31
0
0
LINE
8
OUTLINE
10
111.836
20
144.264
30
0
11
112.022
21
144.201
31
0
0
LINE
8
OUTLINE
10
112.022
20
144.201
30
0
11
112.214
21
144.163
31
0
0
LINE
8
OUTLINE
10
112.214
20
144.163
30
0
11
112.41
21
144.15
31
0
0
LINE
8
OUTLINE
10
112.41
20
144.15
30
0
11
124.91
21
144.15
31
0
0
LINE
8
OUTLINE
10
124.91
20
144.15
30
0
11
124.91
21
143.4
31
0
0
LINE
8
OUTLINE
10
124.91
20
143.4
30
0
11
126.66
21
143.4
31
0
0
LINE
8
OUTLINE
10
126.66
20
143.4
30
0
11
126.66
21
144.15
31
0
0
LINE
8
OUTLINE
10
126.66
20
144.15
30
0
11
131.91
21
144.15
31
0
0
LINE
8
OUTLINE
10
131.91
20
144.15
30
0
11
132.91
21
143.15
31
0
0
LINE
8
OUTLINE
10
94.91
20
89.15
30
0
11
95.91
21
88.15
31
0
0
LINE
8
OUTLINE
10
95.91
20
88.15
30
0
11
104.91
21
88.15
31
0
0
LINE
8
OUTLINE
10
104.91
20
88.15
30
0
11
104.91
21
99.15
31
0
0
LINE
8
OUTLINE
10
104.91
20
99.15
30
0
11
104.927
21
99.411
31
0
0
LINE
8
OUTLINE
10
104.927
20
99.411
30
0
11
104.978
21
99.668
31
0
0
LINE
8
OUTLINE
10
104.978
20
99.668
30
0
11
105.062
21
99.915
31
0
0
LINE
8
OUTLINE
10
105.062
20
99.915
30
0
11
105.178
21
100.15
31
0
0
LINE
8
OUTLINE
10
105.178
20
100.15
30
0
11
105.323
21
100.368
31
0
0
LINE
8
OUTLINE
10
105.323
20
100.368
30
0
11
105.496
21
100.564
31
0
0
LINE
8
OUTLINE
10
105.496
20
100.564
30
0
11
105.692
21
100.737
31
0
0
LINE
8
OUTLINE
10
105.692
20
100.737
30
0
11
105.91
21
100.882
31
0
0
LINE
8
OUTLINE
10
105.91
20
100.882
30
0
11
106.145
21
100.998
31
0
0
LINE
8
OUTLINE
10
106.145
20
100.998
30
0
11
106.392
21
101.082
31
0
0
LINE
8
OUTLINE
10
106.392
20
101.082
30
0
11
106.649
21
101.133
31
0
0
LINE
8
OUTLINE
10
106.649
20
101.133
30
0
11
106.91
21
101.15
31
0
0
LINE
8
OUTLINE
10
106.91
20
101.15
30
0
11
110.91
21
101.15
31
0
0
LINE
8
OUTLINE
10
110.91
20
101.15
30
0
11
110.91
21
102.65
31
0
0
LINE
8
OUTLINE
10
110.91
20
102.65
30
0
11
110.923
21
102.846
31
0
0
LINE
8
OUTLINE
10
110.923
20
102.846
30
0
11
110.961
21
103.038
31
0
0
LINE
8
OUTLINE
10
110.961
20
103.038
30
0
11
111.024
21
103.224
31
0
0
LINE
8
OUTLINE
10
111.024
20
103.224
30
0
11
111.111
21
103.4
31
0
0
LINE
8
OUTLINE
10
111.111
20
103.4
30
0
11
111.22
21
103.563
31
0
0
LINE
8
OUTLINE
10
111.22
20
103.563
30
0
11
111.349
21
103.711
31
0
0
LINE
8
OUTLINE
10
111.349
20
103.711
30
0
11
111.497
21
103.84
31
0
0
LINE
8
OUTLINE
10
111.497
20
103.84
30
0
11
111.66
21
103.949
31
0
0
LINE
8
OUTLINE
10
111.66
20
103.949
30
0
11
111.836
21
104.036
31
0
0
LINE
8
OUTLINE
10
111.836
20
104.036
30
0
11
112.022
21
104.099
31
0
0
LINE
8
OUTLINE
10
112.022
20
104.099
30
0
11
112.214
21
104.137
31
0
0
LINE
8
OUTLINE
10
112.214
20
104.137
30
0
11
112.41
21
104.15
31
0
0
LINE
8
OUTLINE
10
112.41
20
104.15
30
0
11
124.91
21
104.15
31
0
0
LINE
8
OUTLINE
10
124.91
20
104.15
30
0
11
124.91
21
104.9
31
0
0
LINE
8
OUTLINE
10
124.91
20
104.9
30
0
11
126.66
21
104.9
31
0
0
LINE
8
OUTLINE
10
126.66
20
104.9
30
0
11
126.66
21
104.15
31
0
0
LINE
8
OUTLINE
10
126.66
20
104.15
30
0
11
131.91
21
104.15
31
0
0
LINE
8
OUTLINE
10
131.91
20
104.15
30
0
11
132.91
21
105.15
31
0
0
LINE
8
OUTLINE
10
94.91
20
135.15
30
0
11
94.91
21
159.15
31
0
0
LINE
8
OUTLINE
10
94.91
20
113.15
30
0
11
94.91
21
89.15
31
0
0
LINE
8
OUTLINE
10
132.91
20
135.15
30
0
11
132.91
21
143.15
31
0
0
LINE
8
OUTLINE
10
132.91
20
113.15
30
0
11
132.91
21
105.15
31
0
0
LINE
8
OUTLINE
10
95.91
20
134.15
30
0
11
95.91
21
160.15
31
0
0
LINE
8
OUTLINE
10
95.91
20
114.15
30
0
11
95.91
21
88.15
31
0
0
LINE
8
OUTLINE
10
95.91
20
134.15
30
0
11
95.91
21
160.15
31
0
0
LINE
8
OUTLINE
10
95.91
20
114.15
30
0
11
95.91
21
88.15
31
0
0
LINE
8
OUTLINE
10
104.91
20
134.15
30
0
11
104.91
21
149.15
31
0
0
LINE
8
OUTLINE
10
104.91
20
114.15
30
0
11
104.91
21
99.15
31
0
0
LINE
8
OUTLINE
10
110.91
20
134.15
30
0
11
110.91
21
145.65
31
0
0
LINE
8
OUTLINE
10
110.91
20
114.15
30
0
11
110.91
21
102.65
31
0
0
LINE
8
OUTLINE
10
124.91
20
134.15
30
0
11
124.91
21
143.4
31
0
0
LINE
8
OUTLINE
10
124.91
20
114.15
30
0
11
124.91
21
104.9
31
0
0
LINE
8
OUTLINE
10
126.66
20
134.15
30
0
11
126.66
21
143.4
31
0
0
LINE
8
OUTLINE
10
126.66
20
114.15
30
0
11
126.66
21
104.9
31
0
0
LINE
8
OUTLINE
10
131.91
20
134.15
30
0
11
131.91
21
144.15
31
0
0
LINE
8
OUTLINE
10
131.91
20
114.15
30
0
11
131.91
21
104.15
31
0
0
LINE
8
OUTLINE
10
131.91
20
134.15
30
0
11
131.91
21
144.15
31
0
0
LINE
8
OUTLINE
10
131.91
20
114.15
30
0
11
131.91
21
104.15
31
0
0
LINE
8
CENTER
10
90.91
20
124.15
30
0
11
136.91
21
124.15
31
0
0
LINE
8
OUTLINE
10
94.91
20
135.15
30
0
11
95.91
21
134.15
31
0
0
LINE
8
OUTLINE
10
95.91
20
134.15
30
0
11
131.91
21
134.15
31
0
0
LINE
8
OUTLINE
10
131.91
20
134.15
30
0
11
132.91
21
135.15
31
0
0
LINE
8
OUTLINE
10
94.91
20
113.15
30
0
11
95.91
21
114.15
31
0
0
LINE
8
OUTLINE
10
95.91
20
114.15
30
0
11
131.91
21
114.15
31
0
0
LINE
8
OUTLINE
10
131.91
20
114.15
30
0
11
132.91
21
113.15
31
0
0
LINE
8
HATCH
10
130.142
20
134.15
30
0
11
132.91
21
136.918
31
0
0
LINE
8
HATCH
10
126.607
20
134.15
30
0
11
132.91
21
140.453
31
0
0
LINE
8
HATCH
10
123.071
20
134.15
30
0
11
132.491
21
143.569
31
0
0
LINE
8
HATCH
10
119.536
20
134.15
30
0
11
129.536
21
144.15
31
0
0
LINE
8
HATCH
10
116
20
134.15
30
0
11
125.25
21
143.4
31
0
0
LINE
8
HATCH
10
112.465
20
134.15
30
0
11
122.465
21
144.15
31
0
0
LINE
8
HATCH
10
108.929
20
134.15
30
0
11
118.929
21
144.15
31
0
0
LINE
8
HATCH
10
105.393
20
134.15
30
0
11
115.393
21
144.15
31
0
0
LINE
8
HATCH
10
101.858
20
134.15
30
0
11
111.938
21
144.23
31
0
0
LINE
8
HATCH
10
98.322
20
134.15
30
0
11
110.91
21
146.738
31
0
0
LINE
8
HATCH
10
95.348
20
134.712
30
0
11
107.787
21
147.15
31
0
0
LINE
8
HATCH
10
94.91
20
137.809
30
0
11
105.207
21
148.106
31
0
0
LINE
8
HATCH
10
94.91
20
141.344
30
0
11
104.91
21
151.344
31
0
0
LINE
8
HATCH
10
94.91
20
144.88
30
0
11
104.91
21
154.88
31
0
0
LINE
8
HATCH
10
94.91
20
148.415
30
0
11
104.91
21
158.415
31
0
0
LINE
8
HATCH
10
94.91
20
151.951
30
0
11
103.109
21
160.15
31
0
0
LINE
8
HATCH
10
94.91
20
155.486
30
0
11
99.574
21
160.15
31
0
0
LINE
8
HATCH
10
94.91
20
159.022
30
0
11
96.038
21
160.15
31
0
0
LINE
8
HATCH
10
130.142
20
104.15
30
0
11
132.91
21
106.918
31
0
0
LINE
8
HATCH
10
126.66
20
104.203
30
0
11
132.91
21
110.453
31
0
0
LINE
8
HATCH
10
123.071
20
104.15
30
0
11
132.491
21
113.569
31
0
0
LINE
8
HATCH
10
103.536
20
88.15
30
0
11
104.91
21
89.524
31
0
0
LINE
8
HATCH
10
119.536
20
104.15
30
0
11
129.536
21
114.15
31
0
0
LINE
8
HATCH
10
100
20
88.15
30
0
11
104.91
21
93.06
31
0
0
LINE
8
HATCH
10
116
20
104.15
30
0
11
126
21
114.15
31
0
0
LINE
8
HATCH
10
96.465
20
88.15
30
0
11
104.91
21
96.595
31
0
0
LINE
8
HATCH
10
109.465
20
101.15
30
0
11
110.91
21
102.595
31
0
0
LINE
8
HATCH
10
112.465
20
104.15
30
0
11
122.465
21
114.15
31
0
0
LINE
8
HATCH
10
94.91
20
90.131
30
0
11
118.929
21
114.15
31
0
0
LINE
8
HATCH
10
94.91
20
93.667
30
0
11
115.393
21
114.15
31
0
0
LINE
8
HATCH
10
94.91
20
97.202
30
0
11
111.858
21
114.15
31
0
0
LINE
8
HATCH
10
94.91
20
100.738
30
0
11
108.322
21
114.15
31
0
0
LINE
8
HATCH
10
94.91
20
104.273
30
0
11
104.787
21
114.15
31
0
0
LINE
8
HATCH
10
94.91
20
107.809
30
0
11
101.251
21
114.15
31
0
0
LINE
8
HATCH
10
94.91
20
111.344
30
0
11
97.716
21
114.15
31
0
0
LINE
8
OUTLINE
10
118.91
20
128.15
30
0
11
126.91
21
128.15
31
0
0
LINE
8
OUTLINE
10
118.91
20
120.15
30
0
11
126.91
21
120.15
31
0
0
ARC
8
OUTLINE
10
118.91
20
124.15
30
0
40
4
50
90
51
270
0
ARC
8
OUTLINE
10
126.91
20
124.15
30
0
40
4
50
-90
51
90
0
LINE
8
CUT
10
122.91
20
146.65
30
0
11
122.91
21
151.65
31
0
0
LINE
8
CUT
10
122.91
20
151.65
30
0
11
119.91
21
151.65
31
0
0
SOLID
8
DIM
10
118.41
20
151.65
30
0
11
121.41
21
152.16
31
0
12
121.41
22
151.14
32
0
13
121.41
23
151.14
33
0
0
TEXT
8
TEXT
10
124.41
20
152.25
30
0
40
3.5
1
A
50
0
72
0
11
124.41
21
152.25
31
0
0
LINE
8
CUT
10
122.91
20
101.65
30
0
11
122.91
21
96.65
31
0
0
LINE
8
CUT
10
122.91
20
96.65
30
0
11
119.91
21
96.65
31
0
0
SOLID
8
DIM
10
118.41
20
96.65
30
0
11
121.41
21
97.16
31
0
12
121.41
22
96.14
32
0
13
121.41
23
96.14
33
0
0
TEXT
8
TEXT
10
124.41
20
93.45
30
0
40
3.5
1
A
50
0
72
0
11
124.41
21
93.45
31
0
0
LINE
8
DIM
10
94.91
20
87.15
30
0
11
94.91
21
71.15
31
0
0
LINE
8
DIM
10
104.91
20
87.15
30
0
11
104.91
21
71.15
31
0
0
LINE
8
DIM
10
94.91
20
73.15
30
0
11
104.91
21
73.15
31
0
0
SOLID
8
DIM
10
94.91
20
73.15
30
0
11
97.91
21
73.66
31
0
12
97.91
22
72.64
32
0
13
97.91
23
72.64
33
0
0
SOLID
8
DIM
10
104.91
20
73.15
30
0
11
101.91
21
72.64
31
0
12
101.91
22
73.66
32
0
13
101.91
23
73.66
33
0
0
TEXT
8
TEXT
10
99.91
20
74.05
30
0
40
3.5
1
10
50
0
72
1
11
99.91
21
74.05
31
0
0
LINE
8
DIM
10
104.91
20
100.15
30
0
11
104.91
21
71.15
31
0
0
LINE
8
DIM
10
110.91
20
100.15
30
0
11
110.91
21
71.15
31
0
0
LINE
8
DIM
10
98.31
20
73.15
30
0
11
117.51
21
73.15
31
0
0
SOLID
8
DIM
10
104.91
20
73.15
30
0
11
101.91
21
72.64
31
0
12
101.91
22
73.66
32
0
13
101.91
23
73.66
33
0
0
SOLID
8
DIM
10
110.91
20
73.15
30
0
11
113.91
21
73.66
31
0
12
113.91
22
72.64
32
0
13
113.91
23
72.64
33
0
0
TEXT
8
TEXT
10
119.09
20
74.05
30
0
40
3.5
1
6
50
0
72
1
11
119.09
21
74.05
31
0
0
LINE
8
DIM
10
94.91
20
87.15
30
0
11
94.91
21
62.15
31
0
0
LINE
8
DIM
10
132.91
20
87.15
30
0
11
132.91
21
62.15
31
0
0
LINE
8
DIM
10
94.91
20
64.15
30
0
11
132.91
21
64.15
31
0
0
SOLID
8
DIM
10
94.91
20
64.15
30
0
11
97.91
21
64.66
31
0
12
97.91
22
63.64
32
0
13
97.91
23
63.64
33
0
0
SOLID
8
DIM
10
132.91
20
64.15
30
0
11
129.91
21
63.64
31
0
12
129.91
22
64.66
32
0
13
129.91
23
64.66
33
0
0
TEXT
8
TEXT
10
113.91
20
65.05
30
0
40
3.5
1
38
50
0
72
1
11
113.91
21
65.05
31
0
0
LINE
8
DIM
10
99.91
20
88.15
30
0
11
99.91
21
165.15
31
0
0
SOLID
8
DIM
10
99.91
20
88.15
30
0
11
99.4
21
91.15
31
0
12
100.42
22
91.15
32
0
13
100.42
23
91.15
33
0
0
SOLID
8
DIM
10
99.91
20
160.15
30
0
11
100.42
21
157.15
31
0
12
99.4
22
157.15
32
0
13
99.4
23
157.15
33
0
0
TEXT
8
TEXT
10
99.91
20
165.95
30
0
40
3.5
1
%%c72
50
0
72
1
11
99.91
21
165.95
31
0
0
LINE
8
DIM
10
107.91
20
101.15
30
0
11
107.91
21
152.15
31
0
0
SOLID
8
DIM
10
107.91
20
101.15
30
0
11
107.4
21
104.15
31
0
12
108.42
22
104.15
32
0
13
108.42
23
104.15
33
0
0
SOLID
8
DIM
10
107.91
20
147.15
30
0
11
108.42
21
144.15
31
0
12
107.4
22
144.15
32
0
13
107.4
23
144.15
33
0
0
TEXT
8
TEXT
10
107.91
20
152.95
30
0
40
3.5
1
%%c46
50
0
72
1
11
107.91
21
152.95
31
0
0
LINE
8
DIM
10
121.91
20
104.15
30
0
11
121.91
21
149.15
31
0
0
SOLID
8
DIM
10
121.91
20
104.15
30
0
11
121.4
21
107.15
31
0
12
122.42
22
107.15
32
0
13
122.42
23
107.15
33
0
0
SOLID
8
DIM
10
121.91
20
144.15
30
0
11
122.42
21
141.15
31
0
12
121.4
22
141.15
32
0
13
121.4
23
141.15
33
0
0
LINE
8
DIM
10
121.91
20
149.15
30
0
11
121.91
21
159.45
31
0
0
TEXT
8
TEXT
10
121.91
20
159.75
30
0
40
3.5
1
%%c40 h7
50
0
72
1
11
121.91
21
159.75
31
0
0
LINE
8
DIM
10
113.91
20
114.15
30
0
11
113.91
21
165.15
31
0
0
SOLID
8
DIM
10
113.91
20
114.15
30
0
11
113.4
21
117.15
31
0
12
114.42
22
117.15
32
0
13
114.42
23
117.15
33
0
0
SOLID
8
DIM
10
113.91
20
134.15
30
0
11
114.42
21
131.15
31
0
12
113.4
22
131.15
32
0
13
113.4
23
131.15
33
0
0
TEXT
8
TEXT
10
113.91
20
165.95
30
0
40
3.5
1
%%c20 H7
50
0
72
1
11
113.91
21
165.95
31
0
0
LINE
8
DIM
10
95.41
20
159.65
30
0
11
89.41
21
167.65
31
0
0
LINE
8
DIM
10
89.41
20
167.65
30
0
11
84.07
21
167.65
31
0
0
SOLID
8
DIM
10
95.41
20
159.65
30
0
11
97.618
21
157.556
31
0
12
96.802
22
156.944
32
0
13
96.802
23
156.944
33
0
0
TEXT
8
TEXT
10
88.91
20
168.35
30
0
40
3.5
1
C1
50
0
72
2
11
88.91
21
168.35
31
0
0
LINE
8
DIM
10
105.49
20
147.73
30
0
11
110.49
21
159.73
31
0
0
LINE
8
DIM
10
110.49
20
159.73
30
0
11
115.83
21
159.73
31
0
0
SOLID
8
DIM
10
105.49
20
147.73
30
0
11
104.807
21
144.765
31
0
12
103.865
22
145.157
32
0
13
103.865
23
145.157
33
0
0
TEXT
8
TEXT
10
110.99
20
160.43
30
0
40
3.5
1
R2
50
0
72
0
11
110.99
21
160.43
31
0
0
LINE
8
DIM
10
111.345
20
144.585
30
0
11
116.345
21
151.585
31
0
0
LINE
8
DIM
10
116.345
20
151.585
30
0
11
124.625
21
151.585
31
0
0
SOLID
8
DIM
10
111.345
20
144.585
30
0
11
110.016
21
141.847
31
0
12
109.186
22
142.44
32
0
13
109.186
23
142.44
33
0
0
TEXT
8
TEXT
10
116.845
20
152.285
30
0
40
3.5
1
R1.5
50
0
72
0
11
116.845
21
152.285
31
0
0
LINE
8
DIM
10
132.41
20
143.65
30
0
11
138.41
21
151.65
31
0
0
LINE
8
DIM
10
138.41
20
151.65
30
0
11
143.75
21
151.65
31
0
0
SOLID
8
DIM
10
132.41
20
143.65
30
0
11
131.018
21
140.944
31
0
12
130.202
22
141.556
32
0
13
130.202
23
141.556
33
0
0
TEXT
8
TEXT
10
138.91
20
152.35
30
0
40
3.5
1
C1
50
0
72
0
11
138.91
21
152.35
31
0
0
LINE
8
DIM
10
124.91
20
145.15
30
0
11
124.91
21
171.15
31
0
0
LINE
8
DIM
10
126.66
20
145.15
30
0
11
126.66
21
171.15
31
0
0
LINE
8
DIM
10
118.31
20
169.15
30
0
11
133.26
21
169.15
31
0
0
SOLID
8
DIM
10
124.91
20
169.15
30
0
11
121.91
21
168.64
31
0
12
121.91
22
169.66
32
0
13
121.91
23
169.66
33
0
0
SOLID
8
DIM
10
126.66
20
169.15
30
0
11
129.66
21
169.66
31
0
12
129.66
22
168.64
32
0
13
129.66
23
168.64
33
0
0
TEXT
8
TEXT
10
137.29
20
170.05
30
0
40
3.5
1
1.75
50
0
72
1
11
137.29
21
170.05
31
0
0
LINE
8
DIM
10
132.91
20
145.15
30
0
11
132.91
21
171.15
31
0
0
LINE
8
DIM
10
126.66
20
145.15
30
0
11
126.66
21
171.15
31
0
0
LINE
8
DIM
10
120.06
20
169.15
30
0
11
139.51
21
169.15
31
0
0
SOLID
8
DIM
10
126.66
20
169.15
30
0
11
123.66
21
168.64
31
0
12
123.66
22
169.66
32
0
13
123.66
23
169.66
33
0
0
SOLID
8
DIM
10
132.91
20
169.15
30
0
11
135.91
21
169.66
31
0
12
135.91
22
168.64
32
0
13
135.91
23
168.64
33
0
0
TEXT
8
TEXT
10
143.54
20
174.95
30
0
40
3.5
1
6.25
50
0
72
1
11
143.54
21
174.95
31
0
0
LINE
8
DIM
10
125.785
20
104.9
30
0
11
125.785
21
149.15
31
0
0
SOLID
8
DIM
10
125.785
20
104.9
30
0
11
125.275
21
107.9
31
0
12
126.295
22
107.9
32
0
13
126.295
23
107.9
33
0
0
SOLID
8
DIM
10
125.785
20
143.4
30
0
11
126.295
21
140.4
31
0
12
125.275
22
140.4
32
0
13
125.275
23
140.4
33
0
0
LINE
8
DIM
10
125.785
20
149.15
30
0
11
125.785
21
164.35
31
0
0
TEXT
8
TEXT
10
125.785
20
164.65
30
0
40
3.5
1
%%c38.5
50
0
72
1
11
125.785
21
164.65
31
0
0
LINE
8
DIM
10
114.91
20
145.15
30
0
11
114.91
21
158.15
31
0
0
LINE
8
DIM
10
130.91
20
145.15
30
0
11
130.91
21
158.15
31
0
0
LINE
8
DIM
10
114.91
20
156.15
30
0
11
130.91
21
156.15
31
0
0
SOLID
8
DIM
10
114.91
20
156.15
30
0
11
117.91
21
156.66
31
0
12
117.91
22
155.64
32
0
13
117.91
23
155.64
33
0
0
SOLID
8
DIM
10
130.91
20
156.15
30
0
11
127.91
21
155.64
31
0
12
127.91
22
156.66
32
0
13
127.91
23
156.66
33
0
0
TEXT
8
TEXT
10
122.91
20
171.75
30
0
40
3.5
1
16
50
0
72
1
11
122.91
21
171.75
31
0
0
LINE
8
DIM
10
132.91
20
145.15
30
0
11
132.91
21
158.15
31
0
0
LINE
8
DIM
10
130.91
20
145.15
30
0
11
130.91
21
158.15
31
0
0
LINE
8
DIM
10
124.31
20
156.15
30
0
11
139.51
21
156.15
31
0
0
SOLID
8
DIM
10
130.91
20
156.15
30
0
11
127.91
21
155.64
31
0
12
127.91
22
156.66
32
0
13
127.91
23
156.66
33
0
0
SOLID
8
DIM
10
132.91
20
156.15
30
0
11
135.91
21
156.66
31
0
12
135.91
22
155.64
32
0
13
135.91
23
155.64
33
0
0
TEXT
8
TEXT
10
141.09
20
157.05
30
0
40
3.5
1
2
50
0
72
1
11
141.09
21
157.05
31
0
0
TEXT
8
TEXT
10
182.91
20
156.15
30
0
40
4
1
A-A
50
0
72
1
11
182.91
21
156.15
31
0
0
LINE
8
CENTER
10
159.91
20
124.15
30
0
11
205.91
21
124.15
31
0
0
LINE
8
CENTER
10
182.91
20
101.15
30
0
11
182.91
21
147.15
31
0
0
CIRCLE
8
OUTLINE
10
182.91
20
124.15
30
0
40
10
0
ARC
8
OUTLINE
10
182.91
20
124.15
30
0
40
20
50
101.537
51
78.463
0
LINE
8
OUTLINE
10
178.91
20
140.15
30
0
11
178.91
21
143.746
31
0
0
LINE
8
OUTLINE
10
186.91
20
140.15
30
0
11
186.91
21
143.746
31
0
0
LINE
8
OUTLINE
10
178.91
20
140.15
30
0
11
186.91
21
140.15
31
0
0
LINE
8
DIM
10
178.91
20
144.746
30
0
11
178.91
21
152.15
31
0
0
LINE
8
DIM
10
186.91
20
144.746
30
0
11
186.91
21
152.15
31
0
0
LINE
8
DIM
10
172.31
20
150.15
30
0
11
193.51
21
150.15
31
0
0
SOLID
8
DIM
10
178.91
20
150.15
30
0
11
175.91
21
149.64
31
0
12
175.91
22
150.66
32
0
13
175.91
23
150.66
33
0
0
SOLID
8
DIM
10
186.91
20
150.15
30
0
11
189.91
21
150.66
31
0
12
189.91
22
149.64
32
0
13
189.91
23
149.64
33
0
0
TEXT
8
TEXT
10
195.09
20
151.05
30
0
40
3.5
1
8
50
0
72
1
11
195.09
21
151.05
31
0
0
LINE
8
DIM
10
187.91
20
140.15
30
0
11
211.91
21
140.15
31
0
0
LINE
8
DIM
10
183.91
20
104.15
30
0
11
211.91
21
104.15
31
0
0
LINE
8
DIM
10
209.91
20
104.15
30
0
11
209.91
21
140.15
31
0
0
SOLID
8
DIM
10
209.91
20
104.15
30
0
11
209.4
21
107.15
31
0
12
210.42
22
107.15
32
0
13
210.42
23
107.15
33
0
0
SOLID
8
DIM
10
209.91
20
140.15
30
0
11
210.42
21
137.15
31
0
12
209.4
22
137.15
32
0
13
209.4
23
137.15
33
0
0
TEXT
8
TEXT
10
209.01
20
122.15
30
0
40
3.5
1
36
50
90
72
1
11
209.01
21
122.15
31
0
0
LINE
8
HATCH
10
191.196
20
105.948
30
0
11
201.081
21
115.832
31
0
0
LINE
8
HATCH
10
186.156
20
104.443
30
0
11
202.619
21
120.906
31
0
0
LINE
8
HATCH
10
182.36
20
104.182
30
0
11
202.885
21
124.708
31
0
0
LINE
8
HATCH
10
179.159
20
104.517
30
0
11
202.534
21
127.892
31
0
0
LINE
8
HATCH
10
176.376
20
105.27
30
0
11
185.648
21
114.542
31
0
0
LINE
8
HATCH
10
192.518
20
121.412
30
0
11
201.799
21
130.692
31
0
0
LINE
8
HATCH
10
173.897
20
106.326
30
0
11
181.794
21
114.223
31
0
0
LINE
8
HATCH
10
192.837
20
125.266
30
0
11
200.734
21
133.163
31
0
0
LINE
8
HATCH
10
171.667
20
107.632
30
0
11
178.992
21
114.956
31
0
0
LINE
8
HATCH
10
192.104
20
128.068
30
0
11
199.423
21
135.388
31
0
0
LINE
8
HATCH
10
169.665
20
109.165
30
0
11
176.766
21
116.266
31
0
0
LINE
8
HATCH
10
190.794
20
130.294
30
0
11
197.885
21
137.385
31
0
0
LINE
8
HATCH
10
167.91
20
110.946
30
0
11
175
21
118.036
31
0
0
LINE
8
HATCH
10
189.024
20
132.06
30
0
11
196.124
21
139.159
31
0
0
LINE
8
HATCH
10
166.375
20
112.946
30
0
11
173.698
21
120.269
31
0
0
LINE
8
HATCH
10
186.791
20
133.362
30
0
11
194.119
21
140.69
31
0
0
LINE
8
HATCH
10
165.067
20
115.173
30
0
11
172.98
21
123.086
31
0
0
LINE
8
HATCH
10
183.974
20
134.08
30
0
11
191.886
21
141.992
31
0
0
LINE
8
HATCH
10
164.006
20
117.648
30
0
11
173.33
21
126.972
31
0
0
LINE
8
HATCH
10
180.088
20
133.73
30
0
11
186.508
21
140.15
31
0
0
LINE
8
HATCH
10
186.91
20
140.552
30
0
11
189.403
21
143.046
31
0
0
LINE
8
HATCH
10
163.278
20
120.455
30
0
11
182.972
21
140.15
31
0
0
LINE
8
HATCH
10
162.931
20
123.645
30
0
11
179.437
21
140.15
31
0
0
LINE
8
HATCH
10
163.21
20
127.459
30
0
11
178.91
21
143.159
31
0
0
LINE
8
HATCH
10
179.597
20
143.846
30
0
11
179.608
21
143.856
31
0
0
LINE
8
HATCH
10
164.795
20
132.579
30
0
11
174.508
21
142.292
31
0
0
LINE
8
FRAME
10
10
20
10
30
0
11
287
21
10
31
0
0
LINE
8
FRAME
10
287
20
10
30
0
11
287
21
200
31
0
0
LINE
8
FRAME
10
287
20
200
30
0
11
10
21
200
31
0
0
LINE
8
FRAME
10
10
20
200
30
0
11
10
21
10
31
0
0
LINE
8
FRAME
10
177
20
10
30
0
11
287
21
10
31
0
0
LINE
8
FRAME
10
287
20
10
30
0
11
287
21
34
31
0
0
LINE
8
FRAME
10
287
20
34
30
0
11
177
21
34
31
0
0
LINE
8
FRAME
10
177
20
34
30
0
11
177
21
10
31
0
0
LINE
8
FRAME
10
177
20
18
30
0
11
287
21
18
31
0
0
LINE
8
FRAME
10
177
20
26
30
0
11
287
21
26
31
0
0
LINE
8
FRAME
10
232
20
10
30
0
11
232
21
26
31
0
0
LINE
8
FRAME
10
255
20
26
30
0
11
255
21
34
31
0
0
TEXT
8
TEXT
10
179
20
28.5
30
0
40
4.2
1
VRINGON
72
0
11
179
21
28.5
31
0
0
TEXT
8
TEXT
10
257
20
28.5
30
0
40
2.5
1
도번 VR-RB-018
72
0
11
257
21
28.5
31
0
0
TEXT
8
TEXT
10
179
20
20.5
30
0
40
2.8
1
품명 허브 플랜지
72
0
11
179
21
20.5
31
0
0
TEXT
8
TEXT
10
234
20
20.5
30
0
40
2.8
1
재질 S45C
72
0
11
234
21
20.5
31
0
0
TEXT
8
TEXT
10
179
20
12.5
30
0
40
2.5
1
척도 1:1
72
0
11
179
21
12.5
31
0
0
TEXT
8
TEXT
10
234
20
12.5
30
0
40
2.5
1
3각법 · 단위 mm
72
0
11
234
21
12.5
31
0
0
CIRCLE
8
FRAME
10
269
20
16.5
30
0
40
2.4
0
CIRCLE
8
FRAME
10
269
20
16.5
30
0
40
1.2
0
LINE
8
FRAME
10
274.5
20
13.9
30
0
11
281
21
15.1
31
0
0
LINE
8
FRAME
10
281
20
15.1
30
0
11
281
21
17.9
31
0
0
LINE
8
FRAME
10
281
20
17.9
30
0
11
274.5
21
19.1
31
0
0
LINE
8
FRAME
10
274.5
20
19.1
30
0
11
274.5
21
13.9
31
0
0
TEXT
8
TEXT
10
14
20
18.2
30
0
40
2.6
1
1. 지시 없는 모따기 C0.5
72
0
11
14
21
18.2
31
0
0
TEXT
8
TEXT
10
14
20
14
30
0
40
2.6
1
2. 지시 없는 공차 KS B ISO 2768-m
72
0
11
14
21
14
31
0
0
ENDSEC
0
EOF
