0
SECTION
2
HEADER
9
$ACADVER
1
AC1009
9
$INSUNITS
70
4
0
ENDSEC
0
SECTION
2
TABLES
0
TABLE
2
LTYPE
70
3
0
LTYPE
2
CONTINUOUS
70
0
3
Solid line
72
65
73
0
40
0
0
LTYPE
2
DASHED
70
0
3
Dashed __ __ __
72
65
73
2
40
4.5
49
3
49
-1.5
0
LTYPE
2
CENTER
70
0
3
Center ____ _ ____
72
65
73
4
40
11.5
49
8
49
-1.5
49
0.5
49
-1.5
0
ENDTAB
0
TABLE
2
LAYER
70
9
0
LAYER
2
OUTLINE
70
0
62
7
6
CONTINUOUS
0
LAYER
2
HIDDEN
70
0
62
8
6
DASHED
0
LAYER
2
CENTER
70
0
62
1
6
CENTER
0
LAYER
2
THIN
70
0
62
7
6
CONTINUOUS
0
LAYER
2
DIM
70
0
62
3
6
CONTINUOUS
0
LAYER
2
HATCH
70
0
62
8
6
CONTINUOUS
0
LAYER
2
FRAME
70
0
62
7
6
CONTINUOUS
0
LAYER
2
TEXT
70
0
62
7
6
CONTINUOUS
0
LAYER
2
CUT
70
0
62
5
6
DASHED
0
ENDTAB
0
ENDSEC
0
SECTION
2
ENTITIES
0
LINE
8
OUTLINE
10
106.498
20
127.299
30
0
11
106.512
21
127.508
31
0
0
LINE
8
OUTLINE
10
106.512
20
127.508
30
0
11
106.553
21
127.713
31
0
0
LINE
8
OUTLINE
10
106.553
20
127.713
30
0
11
106.62
21
127.911
31
0
0
LINE
8
OUTLINE
10
106.62
20
127.911
30
0
11
106.712
21
128.099
31
0
0
LINE
8
OUTLINE
10
106.712
20
128.099
30
0
11
106.829
21
128.273
31
0
0
LINE
8
OUTLINE
10
106.829
20
128.273
30
0
11
106.967
21
128.43
31
0
0
LINE
8
OUTLINE
10
106.967
20
128.43
30
0
11
107.124
21
128.568
31
0
0
LINE
8
OUTLINE
10
107.124
20
128.568
30
0
11
107.298
21
128.685
31
0
0
LINE
8
OUTLINE
10
107.298
20
128.685
30
0
11
107.486
21
128.777
31
0
0
LINE
8
OUTLINE
10
107.486
20
128.777
30
0
11
107.684
21
128.844
31
0
0
LINE
8
OUTLINE
10
107.684
20
128.844
30
0
11
107.889
21
128.885
31
0
0
LINE
8
OUTLINE
10
107.889
20
128.885
30
0
11
108.098
21
128.899
31
0
0
LINE
8
OUTLINE
10
108.098
20
128.899
30
0
11
194.498
21
129.799
31
0
0
LINE
8
OUTLINE
10
194.498
20
129.799
30
0
11
194.759
21
129.782
31
0
0
LINE
8
OUTLINE
10
194.759
20
129.782
30
0
11
195.016
21
129.731
31
0
0
LINE
8
OUTLINE
10
195.016
20
129.731
30
0
11
195.263
21
129.647
31
0
0
LINE
8
OUTLINE
10
195.263
20
129.647
30
0
11
195.498
21
129.531
31
0
0
LINE
8
OUTLINE
10
195.498
20
129.531
30
0
11
195.716
21
129.386
31
0
0
LINE
8
OUTLINE
10
195.716
20
129.386
30
0
11
195.912
21
129.213
31
0
0
LINE
8
OUTLINE
10
195.912
20
129.213
30
0
11
196.085
21
129.017
31
0
0
LINE
8
OUTLINE
10
196.085
20
129.017
30
0
11
196.23
21
128.799
31
0
0
LINE
8
OUTLINE
10
196.23
20
128.799
30
0
11
196.346
21
128.564
31
0
0
LINE
8
OUTLINE
10
196.346
20
128.564
30
0
11
196.43
21
128.317
31
0
0
LINE
8
OUTLINE
10
196.43
20
128.317
30
0
11
196.481
21
128.06
31
0
0
LINE
8
OUTLINE
10
196.481
20
128.06
30
0
11
196.498
21
127.799
31
0
0
LINE
8
OUTLINE
10
106.498
20
114.499
30
0
11
106.512
21
114.29
31
0
0
LINE
8
OUTLINE
10
106.512
20
114.29
30
0
11
106.553
21
114.085
31
0
0
LINE
8
OUTLINE
10
106.553
20
114.085
30
0
11
106.62
21
113.887
31
0
0
LINE
8
OUTLINE
10
106.62
20
113.887
30
0
11
106.712
21
113.699
31
0
0
LINE
8
OUTLINE
10
106.712
20
113.699
30
0
11
106.829
21
113.525
31
0
0
LINE
8
OUTLINE
10
106.829
20
113.525
30
0
11
106.967
21
113.368
31
0
0
LINE
8
OUTLINE
10
106.967
20
113.368
30
0
11
107.124
21
113.23
31
0
0
LINE
8
OUTLINE
10
107.124
20
113.23
30
0
11
107.298
21
113.113
31
0
0
LINE
8
OUTLINE
10
107.298
20
113.113
30
0
11
107.486
21
113.021
31
0
0
LINE
8
OUTLINE
10
107.486
20
113.021
30
0
11
107.684
21
112.954
31
0
0
LINE
8
OUTLINE
10
107.684
20
112.954
30
0
11
107.889
21
112.913
31
0
0
LINE
8
OUTLINE
10
107.889
20
112.913
30
0
11
108.098
21
112.899
31
0
0
LINE
8
OUTLINE
10
108.098
20
112.899
30
0
11
194.498
21
111.999
31
0
0
LINE
8
OUTLINE
10
194.498
20
111.999
30
0
11
194.759
21
112.016
31
0
0
LINE
8
OUTLINE
10
194.759
20
112.016
30
0
11
195.016
21
112.067
31
0
0
LINE
8
OUTLINE
10
195.016
20
112.067
30
0
11
195.263
21
112.151
31
0
0
LINE
8
OUTLINE
10
195.263
20
112.151
30
0
11
195.498
21
112.267
31
0
0
LINE
8
OUTLINE
10
195.498
20
112.267
30
0
11
195.716
21
112.412
31
0
0
LINE
8
OUTLINE
10
195.716
20
112.412
30
0
11
195.912
21
112.585
31
0
0
LINE
8
OUTLINE
10
195.912
20
112.585
30
0
11
196.085
21
112.781
31
0
0
LINE
8
OUTLINE
10
196.085
20
112.781
30
0
11
196.23
21
112.999
31
0
0
LINE
8
OUTLINE
10
196.23
20
112.999
30
0
11
196.346
21
113.234
31
0
0
LINE
8
OUTLINE
10
196.346
20
113.234
30
0
11
196.43
21
113.481
31
0
0
LINE
8
OUTLINE
10
196.43
20
113.481
30
0
11
196.481
21
113.738
31
0
0
LINE
8
OUTLINE
10
196.481
20
113.738
30
0
11
196.498
21
113.999
31
0
0
LINE
8
OUTLINE
10
106.498
20
114.499
30
0
11
106.498
21
127.299
31
0
0
LINE
8
OUTLINE
10
196.498
20
113.999
30
0
11
196.498
21
127.799
31
0
0
LINE
8
CENTER
10
98.498
20
120.899
30
0
11
204.498
21
120.899
31
0
0
LINE
8
DIM
10
106.498
20
110.999
30
0
11
106.498
21
94.999
31
0
0
LINE
8
DIM
10
196.498
20
110.999
30
0
11
196.498
21
94.999
31
0
0
LINE
8
DIM
10
106.498
20
96.999
30
0
11
196.498
21
96.999
31
0
0
SOLID
8
DIM
10
106.498
20
96.999
30
0
11
109.498
21
97.509
31
0
12
109.498
22
96.489
32
0
13
109.498
23
96.489
33
0
0
SOLID
8
DIM
10
196.498
20
96.999
30
0
11
193.498
21
96.489
31
0
12
193.498
22
97.509
32
0
13
193.498
23
97.509
33
0
0
TEXT
8
TEXT
10
151.498
20
98.799
30
0
40
3.5
1
45
50
0
72
1
11
151.498
21
98.799
31
0
0
LINE
8
DIM
10
126.298
20
112.701
30
0
11
126.298
21
139.097
31
0
0
SOLID
8
DIM
10
126.298
20
112.701
30
0
11
125.788
21
115.701
31
0
12
126.808
22
115.701
32
0
13
126.808
23
115.701
33
0
0
SOLID
8
DIM
10
126.298
20
129.097
30
0
11
126.808
21
126.097
31
0
12
125.788
22
126.097
32
0
13
125.788
23
126.097
33
0
0
TEXT
8
TEXT
10
126.298
20
140.697
30
0
40
3.5
1
%%c8
50
0
72
1
11
126.298
21
140.697
31
0
0
LINE
8
DIM
10
176.698
20
112.197
30
0
11
176.698
21
139.601
31
0
0
SOLID
8
DIM
10
176.698
20
112.197
30
0
11
176.188
21
115.197
31
0
12
177.208
22
115.197
32
0
13
177.208
23
115.197
33
0
0
SOLID
8
DIM
10
176.698
20
129.601
30
0
11
177.208
21
126.601
31
0
12
176.188
22
126.601
32
0
13
176.188
23
126.601
33
0
0
TEXT
8
TEXT
10
176.698
20
141.201
30
0
40
3.5
1
%%c8.9
50
0
72
1
11
176.698
21
141.201
31
0
0
LINE
8
DIM
10
106.962
20
128.435
30
0
11
101.962
21
135.435
31
0
0
LINE
8
DIM
10
101.962
20
135.435
30
0
11
92.682
21
135.435
31
0
0
SOLID
8
DIM
10
106.962
20
128.435
30
0
11
109.121
21
126.29
31
0
12
108.291
22
125.697
32
0
13
108.291
23
125.697
33
0
0
TEXT
8
TEXT
10
100.962
20
136.835
30
0
40
3.5
1
R0.8
50
0
72
2
11
100.962
21
136.835
31
0
0
LINE
8
DIM
10
195.918
20
129.219
30
0
11
200.918
21
136.219
31
0
0
LINE
8
DIM
10
200.918
20
136.219
30
0
11
207.258
21
136.219
31
0
0
SOLID
8
DIM
10
195.918
20
129.219
30
0
11
194.589
21
126.481
31
0
12
193.759
22
127.074
32
0
13
193.759
23
127.074
33
0
0
TEXT
8
TEXT
10
201.918
20
137.619
30
0
40
3.5
1
R1
50
0
72
0
11
201.918
21
137.619
31
0
0
LINE
8
FRAME
10
10
20
10
30
0
11
287
21
10
31
0
0
LINE
8
FRAME
10
287
20
10
30
0
11
287
21
200
31
0
0
LINE
8
FRAME
10
287
20
200
30
0
11
10
21
200
31
0
0
LINE
8
FRAME
10
10
20
200
30
0
11
10
21
10
31
0
0
LINE
8
FRAME
10
177
20
10
30
0
11
287
21
10
31
0
0
LINE
8
FRAME
10
287
20
10
30
0
11
287
21
34
31
0
0
LINE
8
FRAME
10
287
20
34
30
0
11
177
21
34
31
0
0
LINE
8
FRAME
10
177
20
34
30
0
11
177
21
10
31
0
0
LINE
8
FRAME
10
177
20
18
30
0
11
287
21
18
31
0
0
LINE
8
FRAME
10
177
20
26
30
0
11
287
21
26
31
0
0
LINE
8
FRAME
10
232
20
10
30
0
11
232
21
26
31
0
0
LINE
8
FRAME
10
255
20
26
30
0
11
255
21
34
31
0
0
TEXT
8
TEXT
10
179
20
28.5
30
0
40
4.2
1
VRINGON
72
0
11
179
21
28.5
31
0
0
TEXT
8
TEXT
10
257
20
28.5
30
0
40
2.5
1
도번 VR-RB-020
72
0
11
257
21
28.5
31
0
0
TEXT
8
TEXT
10
179
20
20.5
30
0
40
2.8
1
품명 테이퍼 핀
72
0
11
179
21
20.5
31
0
0
TEXT
8
TEXT
10
234
20
20.5
30
0
40
2.8
1
재질 S45C
72
0
11
234
21
20.5
31
0
0
TEXT
8
TEXT
10
179
20
12.5
30
0
40
2.5
1
척도 2:1
72
0
11
179
21
12.5
31
0
0
TEXT
8
TEXT
10
234
20
12.5
30
0
40
2.5
1
3각법 · 단위 mm
72
0
11
234
21
12.5
31
0
0
CIRCLE
8
FRAME
10
269
20
16.5
30
0
40
2.4
0
CIRCLE
8
FRAME
10
269
20
16.5
30
0
40
1.2
0
LINE
8
FRAME
10
274.5
20
13.9
30
0
11
281
21
15.1
31
0
0
LINE
8
FRAME
10
281
20
15.1
30
0
11
281
21
17.9
31
0
0
LINE
8
FRAME
10
281
20
17.9
30
0
11
274.5
21
19.1
31
0
0
LINE
8
FRAME
10
274.5
20
19.1
30
0
11
274.5
21
13.9
31
0
0
TEXT
8
TEXT
10
14
20
18.2
30
0
40
2.6
1
1. 지시 없는 모따기 C0.5
72
0
11
14
21
18.2
31
0
0
TEXT
8
TEXT
10
14
20
14
30
0
40
2.6
1
2. 지시 없는 공차 KS B ISO 2768-m
72
0
11
14
21
14
31
0
0
ENDSEC
0
EOF
