0
SECTION
2
HEADER
9
$ACADVER
1
AC1009
9
$INSUNITS
70
4
0
ENDSEC
0
SECTION
2
TABLES
0
TABLE
2
LTYPE
70
3
0
LTYPE
2
CONTINUOUS
70
0
3
Solid line
72
65
73
0
40
0
0
LTYPE
2
DASHED
70
0
3
Dashed __ __ __
72
65
73
2
40
4.5
49
3
49
-1.5
0
LTYPE
2
CENTER
70
0
3
Center ____ _ ____
72
65
73
4
40
11.5
49
8
49
-1.5
49
0.5
49
-1.5
0
ENDTAB
0
TABLE
2
LAYER
70
9
0
LAYER
2
OUTLINE
70
0
62
7
6
CONTINUOUS
0
LAYER
2
HIDDEN
70
0
62
8
6
DASHED
0
LAYER
2
CENTER
70
0
62
1
6
CENTER
0
LAYER
2
THIN
70
0
62
7
6
CONTINUOUS
0
LAYER
2
DIM
70
0
62
3
6
CONTINUOUS
0
LAYER
2
HATCH
70
0
62
8
6
CONTINUOUS
0
LAYER
2
FRAME
70
0
62
7
6
CONTINUOUS
0
LAYER
2
TEXT
70
0
62
7
6
CONTINUOUS
0
LAYER
2
CUT
70
0
62
5
6
DASHED
0
ENDTAB
0
ENDSEC
0
SECTION
2
ENTITIES
0
LINE
8
OUTLINE
10
126.41
20
136.4
30
0
11
127.41
21
137.4
31
0
0
LINE
8
OUTLINE
10
127.41
20
137.4
30
0
11
142.41
21
137.4
31
0
0
LINE
8
OUTLINE
10
142.41
20
137.4
30
0
11
142.41
21
133.4
31
0
0
LINE
8
OUTLINE
10
142.41
20
133.4
30
0
11
142.419
21
133.269
31
0
0
LINE
8
OUTLINE
10
142.419
20
133.269
30
0
11
142.444
21
133.141
31
0
0
LINE
8
OUTLINE
10
142.444
20
133.141
30
0
11
142.486
21
133.017
31
0
0
LINE
8
OUTLINE
10
142.486
20
133.017
30
0
11
142.544
21
132.9
31
0
0
LINE
8
OUTLINE
10
142.544
20
132.9
30
0
11
142.617
21
132.791
31
0
0
LINE
8
OUTLINE
10
142.617
20
132.791
30
0
11
142.703
21
132.693
31
0
0
LINE
8
OUTLINE
10
142.703
20
132.693
30
0
11
142.801
21
132.607
31
0
0
LINE
8
OUTLINE
10
142.801
20
132.607
30
0
11
142.91
21
132.534
31
0
0
LINE
8
OUTLINE
10
142.91
20
132.534
30
0
11
143.027
21
132.476
31
0
0
LINE
8
OUTLINE
10
143.027
20
132.476
30
0
11
143.151
21
132.434
31
0
0
LINE
8
OUTLINE
10
143.151
20
132.434
30
0
11
143.279
21
132.409
31
0
0
LINE
8
OUTLINE
10
143.279
20
132.409
30
0
11
143.41
21
132.4
31
0
0
LINE
8
OUTLINE
10
143.41
20
132.4
30
0
11
158.41
21
132.4
31
0
0
LINE
8
OUTLINE
10
158.41
20
132.4
30
0
11
200.41
21
132.4
31
0
0
LINE
8
OUTLINE
10
200.41
20
132.4
30
0
11
202.41
21
130.4
31
0
0
LINE
8
OUTLINE
10
126.41
20
112.4
30
0
11
127.41
21
111.4
31
0
0
LINE
8
OUTLINE
10
127.41
20
111.4
30
0
11
142.41
21
111.4
31
0
0
LINE
8
OUTLINE
10
142.41
20
111.4
30
0
11
142.41
21
115.4
31
0
0
LINE
8
OUTLINE
10
142.41
20
115.4
30
0
11
142.419
21
115.531
31
0
0
LINE
8
OUTLINE
10
142.419
20
115.531
30
0
11
142.444
21
115.659
31
0
0
LINE
8
OUTLINE
10
142.444
20
115.659
30
0
11
142.486
21
115.783
31
0
0
LINE
8
OUTLINE
10
142.486
20
115.783
30
0
11
142.544
21
115.9
31
0
0
LINE
8
OUTLINE
10
142.544
20
115.9
30
0
11
142.617
21
116.009
31
0
0
LINE
8
OUTLINE
10
142.617
20
116.009
30
0
11
142.703
21
116.107
31
0
0
LINE
8
OUTLINE
10
142.703
20
116.107
30
0
11
142.801
21
116.193
31
0
0
LINE
8
OUTLINE
10
142.801
20
116.193
30
0
11
142.91
21
116.266
31
0
0
LINE
8
OUTLINE
10
142.91
20
116.266
30
0
11
143.027
21
116.324
31
0
0
LINE
8
OUTLINE
10
143.027
20
116.324
30
0
11
143.151
21
116.366
31
0
0
LINE
8
OUTLINE
10
143.151
20
116.366
30
0
11
143.279
21
116.391
31
0
0
LINE
8
OUTLINE
10
143.279
20
116.391
30
0
11
143.41
21
116.4
31
0
0
LINE
8
OUTLINE
10
143.41
20
116.4
30
0
11
158.41
21
116.4
31
0
0
LINE
8
OUTLINE
10
158.41
20
116.4
30
0
11
200.41
21
116.4
31
0
0
LINE
8
OUTLINE
10
200.41
20
116.4
30
0
11
202.41
21
118.4
31
0
0
LINE
8
OUTLINE
10
126.41
20
112.4
30
0
11
126.41
21
136.4
31
0
0
LINE
8
OUTLINE
10
202.41
20
118.4
30
0
11
202.41
21
130.4
31
0
0
LINE
8
OUTLINE
10
127.41
20
111.4
30
0
11
127.41
21
137.4
31
0
0
LINE
8
OUTLINE
10
127.41
20
111.4
30
0
11
127.41
21
137.4
31
0
0
LINE
8
OUTLINE
10
142.41
20
115.4
30
0
11
142.41
21
133.4
31
0
0
LINE
8
OUTLINE
10
200.41
20
116.4
30
0
11
200.41
21
132.4
31
0
0
LINE
8
OUTLINE
10
200.41
20
116.4
30
0
11
200.41
21
132.4
31
0
0
LINE
8
CENTER
10
118.41
20
124.4
30
0
11
210.41
21
124.4
31
0
0
LINE
8
THIN
10
158.41
20
130.866
30
0
11
200.41
21
130.866
31
0
0
LINE
8
THIN
10
158.41
20
117.934
30
0
11
200.41
21
117.934
31
0
0
LINE
8
HIDDEN
10
126.41
20
130.4
30
0
11
134.41
21
130.4
31
0
0
LINE
8
HIDDEN
10
126.41
20
118.4
30
0
11
134.41
21
118.4
31
0
0
LINE
8
HIDDEN
10
134.41
20
118.4
30
0
11
134.41
21
130.4
31
0
0
LINE
8
DIM
10
142.41
20
115.4
30
0
11
142.41
21
94.4
31
0
0
LINE
8
DIM
10
158.41
20
115.4
30
0
11
158.41
21
94.4
31
0
0
LINE
8
DIM
10
142.41
20
96.4
30
0
11
158.41
21
96.4
31
0
0
SOLID
8
DIM
10
142.41
20
96.4
30
0
11
145.41
21
96.91
31
0
12
145.41
22
95.89
32
0
13
145.41
23
95.89
33
0
0
SOLID
8
DIM
10
158.41
20
96.4
30
0
11
155.41
21
95.89
31
0
12
155.41
22
96.91
32
0
13
155.41
23
96.91
33
0
0
TEXT
8
TEXT
10
150.41
20
98.2
30
0
40
3.5
1
8
50
0
72
1
11
150.41
21
98.2
31
0
0
LINE
8
DIM
10
158.41
20
115.4
30
0
11
158.41
21
94.4
31
0
0
LINE
8
DIM
10
202.41
20
115.4
30
0
11
202.41
21
94.4
31
0
0
LINE
8
DIM
10
158.41
20
96.4
30
0
11
202.41
21
96.4
31
0
0
SOLID
8
DIM
10
158.41
20
96.4
30
0
11
161.41
21
96.91
31
0
12
161.41
22
95.89
32
0
13
161.41
23
95.89
33
0
0
SOLID
8
DIM
10
202.41
20
96.4
30
0
11
199.41
21
95.89
31
0
12
199.41
22
96.91
32
0
13
199.41
23
96.91
33
0
0
TEXT
8
TEXT
10
180.41
20
98.2
30
0
40
3.5
1
22
50
0
72
1
11
180.41
21
98.2
31
0
0
LINE
8
DIM
10
126.41
20
110.4
30
0
11
126.41
21
85.4
31
0
0
LINE
8
DIM
10
202.41
20
110.4
30
0
11
202.41
21
85.4
31
0
0
LINE
8
DIM
10
126.41
20
87.4
30
0
11
202.41
21
87.4
31
0
0
SOLID
8
DIM
10
126.41
20
87.4
30
0
11
129.41
21
87.91
31
0
12
129.41
22
86.89
32
0
13
129.41
23
86.89
33
0
0
SOLID
8
DIM
10
202.41
20
87.4
30
0
11
199.41
21
86.89
31
0
12
199.41
22
87.91
32
0
13
199.41
23
87.91
33
0
0
TEXT
8
TEXT
10
164.41
20
89.2
30
0
40
3.5
1
38
50
0
72
1
11
164.41
21
89.2
31
0
0
LINE
8
DIM
10
134.41
20
111.4
30
0
11
134.41
21
147.4
31
0
0
SOLID
8
DIM
10
134.41
20
111.4
30
0
11
133.9
21
114.4
31
0
12
134.92
22
114.4
32
0
13
134.92
23
114.4
33
0
0
SOLID
8
DIM
10
134.41
20
137.4
30
0
11
134.92
21
134.4
31
0
12
133.9
22
134.4
32
0
13
133.9
23
134.4
33
0
0
TEXT
8
TEXT
10
134.41
20
149
30
0
40
3.5
1
%%c13
50
0
72
1
11
134.41
21
149
31
0
0
LINE
8
DIM
10
150.41
20
116.4
30
0
11
150.41
21
142.4
31
0
0
SOLID
8
DIM
10
150.41
20
116.4
30
0
11
149.9
21
119.4
31
0
12
150.92
22
119.4
32
0
13
150.92
23
119.4
33
0
0
SOLID
8
DIM
10
150.41
20
132.4
30
0
11
150.92
21
129.4
31
0
12
149.9
22
129.4
32
0
13
149.9
23
129.4
33
0
0
TEXT
8
TEXT
10
150.41
20
144
30
0
40
3.5
1
%%c8
50
0
72
1
11
150.41
21
144
31
0
0
LINE
8
DIM
10
180.41
20
132.4
30
0
11
186.41
21
141.4
31
0
0
LINE
8
DIM
10
186.41
20
141.4
30
0
11
192.75
21
141.4
31
0
0
SOLID
8
DIM
10
180.41
20
132.4
30
0
11
179.17
21
129.621
31
0
12
178.322
22
130.187
32
0
13
178.322
23
130.187
33
0
0
TEXT
8
TEXT
10
187.41
20
142.8
30
0
40
3.5
1
M8
50
0
72
0
11
187.41
21
142.8
31
0
0
LINE
8
DIM
10
126.91
20
136.9
30
0
11
120.91
21
144.9
31
0
0
LINE
8
DIM
10
120.91
20
144.9
30
0
11
111.63
21
144.9
31
0
0
SOLID
8
DIM
10
126.91
20
136.9
30
0
11
129.118
21
134.806
31
0
12
128.302
22
134.194
32
0
13
128.302
23
134.194
33
0
0
TEXT
8
TEXT
10
119.91
20
146.3
30
0
40
3.5
1
C0.5
50
0
72
2
11
119.91
21
146.3
31
0
0
LINE
8
DIM
10
142.7
20
132.69
30
0
11
147.7
21
139.69
31
0
0
LINE
8
DIM
10
147.7
20
139.69
30
0
11
156.98
21
139.69
31
0
0
SOLID
8
DIM
10
142.7
20
132.69
30
0
11
141.371
21
129.952
31
0
12
140.541
22
130.545
32
0
13
140.541
23
130.545
33
0
0
TEXT
8
TEXT
10
148.7
20
141.09
30
0
40
3.5
1
R0.5
50
0
72
0
11
148.7
21
141.09
31
0
0
LINE
8
DIM
10
201.41
20
131.4
30
0
11
207.41
21
139.4
31
0
0
LINE
8
DIM
10
207.41
20
139.4
30
0
11
213.75
21
139.4
31
0
0
SOLID
8
DIM
10
201.41
20
131.4
30
0
11
200.018
21
128.694
31
0
12
199.202
22
129.306
32
0
13
199.202
23
129.306
33
0
0
TEXT
8
TEXT
10
208.41
20
140.8
30
0
40
3.5
1
C1
50
0
72
0
11
208.41
21
140.8
31
0
0
LINE
8
DIM
10
130.41
20
130.4
30
0
11
124.41
21
151.4
31
0
0
LINE
8
DIM
10
124.41
20
151.4
30
0
11
100.66
21
151.4
31
0
0
SOLID
8
DIM
10
130.41
20
130.4
30
0
11
131.725
21
127.656
31
0
12
130.744
22
127.375
32
0
13
130.744
23
127.375
33
0
0
TEXT
8
TEXT
10
123.41
20
152.8
30
0
40
2.5
1
육각 소켓 S6 깊이 4
50
0
72
2
11
123.41
21
152.8
31
0
0
LINE
8
FRAME
10
10
20
10
30
0
11
287
21
10
31
0
0
LINE
8
FRAME
10
287
20
10
30
0
11
287
21
200
31
0
0
LINE
8
FRAME
10
287
20
200
30
0
11
10
21
200
31
0
0
LINE
8
FRAME
10
10
20
200
30
0
11
10
21
10
31
0
0
LINE
8
FRAME
10
177
20
10
30
0
11
287
21
10
31
0
0
LINE
8
FRAME
10
287
20
10
30
0
11
287
21
34
31
0
0
LINE
8
FRAME
10
287
20
34
30
0
11
177
21
34
31
0
0
LINE
8
FRAME
10
177
20
34
30
0
11
177
21
10
31
0
0
LINE
8
FRAME
10
177
20
18
30
0
11
287
21
18
31
0
0
LINE
8
FRAME
10
177
20
26
30
0
11
287
21
26
31
0
0
LINE
8
FRAME
10
232
20
10
30
0
11
232
21
26
31
0
0
LINE
8
FRAME
10
255
20
26
30
0
11
255
21
34
31
0
0
TEXT
8
TEXT
10
179
20
28.5
30
0
40
4.2
1
VRINGON
72
0
11
179
21
28.5
31
0
0
TEXT
8
TEXT
10
257
20
28.5
30
0
40
2.5
1
도번 VR-RB-014
72
0
11
257
21
28.5
31
0
0
TEXT
8
TEXT
10
179
20
20.5
30
0
40
2.8
1
품명 육각구멍붙이 볼트 M8×30
72
0
11
179
21
20.5
31
0
0
TEXT
8
TEXT
10
234
20
20.5
30
0
40
2.8
1
재질 SCM435
72
0
11
234
21
20.5
31
0
0
TEXT
8
TEXT
10
179
20
12.5
30
0
40
2.5
1
척도 2:1
72
0
11
179
21
12.5
31
0
0
TEXT
8
TEXT
10
234
20
12.5
30
0
40
2.5
1
3각법 · 단위 mm
72
0
11
234
21
12.5
31
0
0
CIRCLE
8
FRAME
10
269
20
16.5
30
0
40
2.4
0
CIRCLE
8
FRAME
10
269
20
16.5
30
0
40
1.2
0
LINE
8
FRAME
10
274.5
20
13.9
30
0
11
281
21
15.1
31
0
0
LINE
8
FRAME
10
281
20
15.1
30
0
11
281
21
17.9
31
0
0
LINE
8
FRAME
10
281
20
17.9
30
0
11
274.5
21
19.1
31
0
0
LINE
8
FRAME
10
274.5
20
19.1
30
0
11
274.5
21
13.9
31
0
0
TEXT
8
TEXT
10
14
20
18.2
30
0
40
2.6
1
1. 지시 없는 모따기 C0.5
72
0
11
14
21
18.2
31
0
0
TEXT
8
TEXT
10
14
20
14
30
0
40
2.6
1
2. 지시 없는 공차 KS B ISO 2768-m
72
0
11
14
21
14
31
0
0
ENDSEC
0
EOF
