0
SECTION
2
HEADER
9
$ACADVER
1
AC1009
9
$INSUNITS
70
4
0
ENDSEC
0
SECTION
2
TABLES
0
TABLE
2
LTYPE
70
3
0
LTYPE
2
CONTINUOUS
70
0
3
Solid line
72
65
73
0
40
0
0
LTYPE
2
DASHED
70
0
3
Dashed __ __ __
72
65
73
2
40
4.5
49
3
49
-1.5
0
LTYPE
2
CENTER
70
0
3
Center ____ _ ____
72
65
73
4
40
11.5
49
8
49
-1.5
49
0.5
49
-1.5
0
ENDTAB
0
TABLE
2
LAYER
70
9
0
LAYER
2
OUTLINE
70
0
62
7
6
CONTINUOUS
0
LAYER
2
HIDDEN
70
0
62
8
6
DASHED
0
LAYER
2
CENTER
70
0
62
1
6
CENTER
0
LAYER
2
THIN
70
0
62
7
6
CONTINUOUS
0
LAYER
2
DIM
70
0
62
3
6
CONTINUOUS
0
LAYER
2
HATCH
70
0
62
8
6
CONTINUOUS
0
LAYER
2
FRAME
70
0
62
7
6
CONTINUOUS
0
LAYER
2
TEXT
70
0
62
7
6
CONTINUOUS
0
LAYER
2
CUT
70
0
62
5
6
DASHED
0
ENDTAB
0
ENDSEC
0
SECTION
2
ENTITIES
0
LINE
8
OUTLINE
10
102.56
20
139.2
30
0
11
103.76
21
140.4
31
0
0
LINE
8
OUTLINE
10
103.76
20
140.4
30
0
11
115.36
21
140.4
31
0
0
LINE
8
OUTLINE
10
115.36
20
140.4
30
0
11
116.56
21
139.2
31
0
0
LINE
8
OUTLINE
10
116.56
20
139.2
30
0
11
116.56
21
136.4
31
0
0
LINE
8
OUTLINE
10
116.56
20
136.4
30
0
11
176.56
21
136.4
31
0
0
LINE
8
OUTLINE
10
176.56
20
136.4
30
0
11
176.56
21
131.2
31
0
0
LINE
8
OUTLINE
10
176.56
20
131.2
30
0
11
181.36
21
131.2
31
0
0
LINE
8
OUTLINE
10
181.36
20
131.2
30
0
11
181.36
21
132.4
31
0
0
LINE
8
OUTLINE
10
181.36
20
132.4
30
0
11
198.56
21
132.4
31
0
0
LINE
8
OUTLINE
10
198.56
20
132.4
30
0
11
200.56
21
130.4
31
0
0
LINE
8
OUTLINE
10
102.56
20
109.6
30
0
11
103.76
21
108.4
31
0
0
LINE
8
OUTLINE
10
103.76
20
108.4
30
0
11
115.36
21
108.4
31
0
0
LINE
8
OUTLINE
10
115.36
20
108.4
30
0
11
116.56
21
109.6
31
0
0
LINE
8
OUTLINE
10
116.56
20
109.6
30
0
11
116.56
21
112.4
31
0
0
LINE
8
OUTLINE
10
116.56
20
112.4
30
0
11
176.56
21
112.4
31
0
0
LINE
8
OUTLINE
10
176.56
20
112.4
30
0
11
176.56
21
117.6
31
0
0
LINE
8
OUTLINE
10
176.56
20
117.6
30
0
11
181.36
21
117.6
31
0
0
LINE
8
OUTLINE
10
181.36
20
117.6
30
0
11
181.36
21
116.4
31
0
0
LINE
8
OUTLINE
10
181.36
20
116.4
30
0
11
198.56
21
116.4
31
0
0
LINE
8
OUTLINE
10
198.56
20
116.4
30
0
11
200.56
21
118.4
31
0
0
LINE
8
OUTLINE
10
102.56
20
109.6
30
0
11
102.56
21
139.2
31
0
0
LINE
8
OUTLINE
10
200.56
20
118.4
30
0
11
200.56
21
130.4
31
0
0
LINE
8
OUTLINE
10
103.76
20
108.4
30
0
11
103.76
21
140.4
31
0
0
LINE
8
OUTLINE
10
115.36
20
108.4
30
0
11
115.36
21
140.4
31
0
0
LINE
8
OUTLINE
10
115.36
20
108.4
30
0
11
115.36
21
140.4
31
0
0
LINE
8
OUTLINE
10
116.56
20
112.4
30
0
11
116.56
21
136.4
31
0
0
LINE
8
OUTLINE
10
176.56
20
117.6
30
0
11
176.56
21
131.2
31
0
0
LINE
8
OUTLINE
10
181.36
20
117.6
30
0
11
181.36
21
131.2
31
0
0
LINE
8
OUTLINE
10
198.56
20
116.4
30
0
11
198.56
21
132.4
31
0
0
LINE
8
OUTLINE
10
198.56
20
116.4
30
0
11
198.56
21
132.4
31
0
0
LINE
8
CENTER
10
94.56
20
124.4
30
0
11
208.56
21
124.4
31
0
0
LINE
8
THIN
10
176.56
20
130.866
30
0
11
198.56
21
130.866
31
0
0
LINE
8
THIN
10
176.56
20
117.934
30
0
11
198.56
21
117.934
31
0
0
LINE
8
HIDDEN
10
102.56
20
132.4
30
0
11
110.56
21
132.4
31
0
0
LINE
8
HIDDEN
10
102.56
20
116.4
30
0
11
110.56
21
116.4
31
0
0
LINE
8
HIDDEN
10
110.56
20
116.4
30
0
11
110.56
21
132.4
31
0
0
LINE
8
DIM
10
102.56
20
107.4
30
0
11
102.56
21
91.4
31
0
0
LINE
8
DIM
10
116.56
20
107.4
30
0
11
116.56
21
91.4
31
0
0
LINE
8
DIM
10
102.56
20
93.4
30
0
11
116.56
21
93.4
31
0
0
SOLID
8
DIM
10
102.56
20
93.4
30
0
11
105.56
21
93.91
31
0
12
105.56
22
92.89
32
0
13
105.56
23
92.89
33
0
0
SOLID
8
DIM
10
116.56
20
93.4
30
0
11
113.56
21
92.89
31
0
12
113.56
22
93.91
32
0
13
113.56
23
93.91
33
0
0
TEXT
8
TEXT
10
109.56
20
95.2
30
0
40
3.5
1
7
50
0
72
1
11
109.56
21
95.2
31
0
0
LINE
8
DIM
10
176.56
20
115.4
30
0
11
176.56
21
91.4
31
0
0
LINE
8
DIM
10
200.56
20
115.4
30
0
11
200.56
21
91.4
31
0
0
LINE
8
DIM
10
176.56
20
93.4
30
0
11
200.56
21
93.4
31
0
0
SOLID
8
DIM
10
176.56
20
93.4
30
0
11
179.56
21
93.91
31
0
12
179.56
22
92.89
32
0
13
179.56
23
92.89
33
0
0
SOLID
8
DIM
10
200.56
20
93.4
30
0
11
197.56
21
92.89
31
0
12
197.56
22
93.91
32
0
13
197.56
23
93.91
33
0
0
TEXT
8
TEXT
10
188.56
20
95.2
30
0
40
3.5
1
12
50
0
72
1
11
188.56
21
95.2
31
0
0
LINE
8
DIM
10
102.56
20
107.4
30
0
11
102.56
21
82.4
31
0
0
LINE
8
DIM
10
200.56
20
107.4
30
0
11
200.56
21
82.4
31
0
0
LINE
8
DIM
10
102.56
20
84.4
30
0
11
200.56
21
84.4
31
0
0
SOLID
8
DIM
10
102.56
20
84.4
30
0
11
105.56
21
84.91
31
0
12
105.56
22
83.89
32
0
13
105.56
23
83.89
33
0
0
SOLID
8
DIM
10
200.56
20
84.4
30
0
11
197.56
21
83.89
31
0
12
197.56
22
84.91
32
0
13
197.56
23
84.91
33
0
0
TEXT
8
TEXT
10
151.56
20
86.2
30
0
40
3.5
1
49
50
0
72
1
11
151.56
21
86.2
31
0
0
LINE
8
DIM
10
109.56
20
108.4
30
0
11
109.56
21
150.4
31
0
0
SOLID
8
DIM
10
109.56
20
108.4
30
0
11
109.05
21
111.4
31
0
12
110.07
22
111.4
32
0
13
110.07
23
111.4
33
0
0
SOLID
8
DIM
10
109.56
20
140.4
30
0
11
110.07
21
137.4
31
0
12
109.05
22
137.4
32
0
13
109.05
23
137.4
33
0
0
TEXT
8
TEXT
10
109.56
20
152
30
0
40
3.5
1
%%c16
50
0
72
1
11
109.56
21
152
31
0
0
LINE
8
DIM
10
146.56
20
112.4
30
0
11
146.56
21
146.4
31
0
0
SOLID
8
DIM
10
146.56
20
112.4
30
0
11
146.05
21
115.4
31
0
12
147.07
22
115.4
32
0
13
147.07
23
115.4
33
0
0
SOLID
8
DIM
10
146.56
20
136.4
30
0
11
147.07
21
133.4
31
0
12
146.05
22
133.4
32
0
13
146.05
23
133.4
33
0
0
TEXT
8
TEXT
10
146.56
20
148
30
0
40
3.5
1
%%c12 h8
50
0
72
1
11
146.56
21
148
31
0
0
LINE
8
DIM
10
188.56
20
132.4
30
0
11
194.56
21
141.4
31
0
0
LINE
8
DIM
10
194.56
20
141.4
30
0
11
200.9
21
141.4
31
0
0
SOLID
8
DIM
10
188.56
20
132.4
30
0
11
187.32
21
129.621
31
0
12
186.472
22
130.187
32
0
13
186.472
23
130.187
33
0
0
TEXT
8
TEXT
10
195.56
20
142.8
30
0
40
3.5
1
M8
50
0
72
0
11
195.56
21
142.8
31
0
0
LINE
8
DIM
10
103.16
20
139.8
30
0
11
97.16
21
147.8
31
0
0
LINE
8
DIM
10
97.16
20
147.8
30
0
11
87.88
21
147.8
31
0
0
SOLID
8
DIM
10
103.16
20
139.8
30
0
11
105.368
21
137.706
31
0
12
104.552
22
137.094
32
0
13
104.552
23
137.094
33
0
0
TEXT
8
TEXT
10
96.16
20
149.2
30
0
40
3.5
1
C0.6
50
0
72
2
11
96.16
21
149.2
31
0
0
LINE
8
DIM
10
117.16
20
139.8
30
0
11
111.16
21
147.8
31
0
0
LINE
8
DIM
10
111.16
20
147.8
30
0
11
101.88
21
147.8
31
0
0
SOLID
8
DIM
10
117.16
20
139.8
30
0
11
119.368
21
137.706
31
0
12
118.552
22
137.094
32
0
13
118.552
23
137.094
33
0
0
TEXT
8
TEXT
10
110.16
20
149.2
30
0
40
3.5
1
C0.6
50
0
72
2
11
110.16
21
149.2
31
0
0
LINE
8
DIM
10
174.16
20
131.2
30
0
11
168.16
21
141.4
31
0
0
LINE
8
DIM
10
168.16
20
141.4
30
0
11
129.27
21
141.4
31
0
0
SOLID
8
DIM
10
174.16
20
131.2
30
0
11
176.121
21
128.873
31
0
12
175.241
22
128.356
32
0
13
175.241
23
128.356
33
0
0
TEXT
8
TEXT
10
167.16
20
142.8
30
0
40
3.5
1
2.4×%%c6.8 (DIN 76-A)
50
0
72
2
11
167.16
21
142.8
31
0
0
LINE
8
DIM
10
199.56
20
131.4
30
0
11
205.56
21
139.4
31
0
0
LINE
8
DIM
10
205.56
20
139.4
30
0
11
211.9
21
139.4
31
0
0
SOLID
8
DIM
10
199.56
20
131.4
30
0
11
198.168
21
128.694
31
0
12
197.352
22
129.306
32
0
13
197.352
23
129.306
33
0
0
TEXT
8
TEXT
10
206.56
20
140.8
30
0
40
3.5
1
C1
50
0
72
0
11
206.56
21
140.8
31
0
0
LINE
8
DIM
10
106.56
20
132.4
30
0
11
100.56
21
154.4
31
0
0
LINE
8
DIM
10
100.56
20
154.4
30
0
11
76.81
21
154.4
31
0
0
SOLID
8
DIM
10
106.56
20
132.4
30
0
11
107.841
21
129.64
31
0
12
106.857
22
129.372
32
0
13
106.857
23
129.372
33
0
0
TEXT
8
TEXT
10
99.56
20
155.8
30
0
40
2.5
1
육각 소켓 S8 깊이 4
50
0
72
2
11
99.56
21
155.8
31
0
0
LINE
8
FRAME
10
10
20
10
30
0
11
287
21
10
31
0
0
LINE
8
FRAME
10
287
20
10
30
0
11
287
21
200
31
0
0
LINE
8
FRAME
10
287
20
200
30
0
11
10
21
200
31
0
0
LINE
8
FRAME
10
10
20
200
30
0
11
10
21
10
31
0
0
LINE
8
FRAME
10
177
20
10
30
0
11
287
21
10
31
0
0
LINE
8
FRAME
10
287
20
10
30
0
11
287
21
34
31
0
0
LINE
8
FRAME
10
287
20
34
30
0
11
177
21
34
31
0
0
LINE
8
FRAME
10
177
20
34
30
0
11
177
21
10
31
0
0
LINE
8
FRAME
10
177
20
18
30
0
11
287
21
18
31
0
0
LINE
8
FRAME
10
177
20
26
30
0
11
287
21
26
31
0
0
LINE
8
FRAME
10
232
20
10
30
0
11
232
21
26
31
0
0
LINE
8
FRAME
10
255
20
26
30
0
11
255
21
34
31
0
0
TEXT
8
TEXT
10
179
20
28.5
30
0
40
4.2
1
VRINGON
72
0
11
179
21
28.5
31
0
0
TEXT
8
TEXT
10
257
20
28.5
30
0
40
2.5
1
도번 VR-RB-021
72
0
11
257
21
28.5
31
0
0
TEXT
8
TEXT
10
179
20
20.5
30
0
40
2.8
1
품명 숄더 볼트 M8
72
0
11
179
21
20.5
31
0
0
TEXT
8
TEXT
10
234
20
20.5
30
0
40
2.8
1
재질 SCM435
72
0
11
234
21
20.5
31
0
0
TEXT
8
TEXT
10
179
20
12.5
30
0
40
2.5
1
척도 2:1
72
0
11
179
21
12.5
31
0
0
TEXT
8
TEXT
10
234
20
12.5
30
0
40
2.5
1
3각법 · 단위 mm
72
0
11
234
21
12.5
31
0
0
CIRCLE
8
FRAME
10
269
20
16.5
30
0
40
2.4
0
CIRCLE
8
FRAME
10
269
20
16.5
30
0
40
1.2
0
LINE
8
FRAME
10
274.5
20
13.9
30
0
11
281
21
15.1
31
0
0
LINE
8
FRAME
10
281
20
15.1
30
0
11
281
21
17.9
31
0
0
LINE
8
FRAME
10
281
20
17.9
30
0
11
274.5
21
19.1
31
0
0
LINE
8
FRAME
10
274.5
20
19.1
30
0
11
274.5
21
13.9
31
0
0
TEXT
8
TEXT
10
14
20
18.2
30
0
40
2.6
1
1. 지시 없는 모따기 C0.5
72
0
11
14
21
18.2
31
0
0
TEXT
8
TEXT
10
14
20
14
30
0
40
2.6
1
2. 지시 없는 공차 KS B ISO 2768-m
72
0
11
14
21
14
31
0
0
ENDSEC
0
EOF
