<svg xmlns="http://www.w3.org/2000/svg" viewBox="0 0 297 210" width="1188" height="840" font-family="Pretendard, 'Segoe UI', Arial, sans-serif" data-vringon-dsl="dowel-pin" data-scale="2">
<rect width="297" height="210" fill="#FFFFFF"/>
<g id="center" stroke="#111111" stroke-width="0.18" fill="none" stroke-linecap="round" stroke-linejoin="round" stroke-dasharray="8 1.5 0.5 1.5">
<line x1="100.5" y1="89.2" x2="196.5" y2="89.2"/>
</g>
<g id="dim" stroke="#111111" stroke-width="0.18" fill="none" stroke-linecap="round" stroke-linejoin="round">
<line x1="108.5" y1="98.2" x2="108.5" y2="114.2"/>
<line x1="188.5" y1="98.2" x2="188.5" y2="114.2"/>
<line x1="108.5" y1="112.2" x2="188.5" y2="112.2"/>
<polygon points="108.5,112.2 111.5,111.69 111.5,112.71" fill="#111111" stroke="none"/>
<polygon points="188.5,112.2 185.5,112.71 185.5,111.69" fill="#111111" stroke="none"/>
<line x1="148.5" y1="97.2" x2="148.5" y2="71.2"/>
<polygon points="148.5,97.2 147.99,94.2 149.01,94.2" fill="#111111" stroke="none"/>
<polygon points="148.5,81.2 149.01,84.2 147.99,84.2" fill="#111111" stroke="none"/>
<line x1="109.3" y1="82" x2="103.3" y2="74"/>
<line x1="103.3" y1="74" x2="94.02" y2="74"/>
<polygon points="109.3,82 111.508,84.094 110.692,84.706" fill="#111111" stroke="none"/>
<line x1="187.7" y1="82" x2="193.7" y2="74"/>
<line x1="193.7" y1="74" x2="202.98" y2="74"/>
<polygon points="187.7,82 186.308,84.706 185.492,84.094" fill="#111111" stroke="none"/>
</g>
<g id="outline" stroke="#111111" stroke-width="0.5" fill="none" stroke-linecap="round" stroke-linejoin="round">
<polyline points="108.5,82.8 110.1,81.2 186.9,81.2 188.5,82.8"/>
<polyline points="108.5,95.6 110.1,97.2 186.9,97.2 188.5,95.6"/>
<line x1="108.5" y1="95.6" x2="108.5" y2="82.8"/>
<line x1="188.5" y1="95.6" x2="188.5" y2="82.8"/>
<line x1="110.1" y1="97.2" x2="110.1" y2="81.2"/>
<line x1="186.9" y1="97.2" x2="186.9" y2="81.2"/>
<line x1="186.9" y1="97.2" x2="186.9" y2="81.2"/>
</g>
<g id="text" fill="#111111">
<text x="148.5" y="110.4" font-size="3.5" text-anchor="middle" fill="#111111" data-role="dim">40</text>
<text x="148.5" y="69.6" font-size="3.5" text-anchor="middle" fill="#111111" data-role="dim">⌀8 m6</text>
<text x="102.3" y="72.6" font-size="3.5" text-anchor="end" fill="#111111" data-role="dim">C0.8</text>
<text x="194.7" y="72.6" font-size="3.5" text-anchor="start" fill="#111111" data-role="dim">C0.8</text>
</g>
<g id="frame" stroke="#111111" stroke-width="0.5" fill="none" stroke-linecap="round" stroke-linejoin="round">
<rect x="10" y="10" width="277" height="190"/>
<rect x="177" y="176" width="110" height="24"/>
<line x1="177" y1="192" x2="287" y2="192"/>
<line x1="177" y1="184" x2="287" y2="184"/>
<line x1="232" y1="200" x2="232" y2="184"/>
<line x1="255" y1="184" x2="255" y2="176"/>
<circle cx="269" cy="193.5" r="2.4"/>
<circle cx="269" cy="193.5" r="1.2"/>
<polyline points="274.5,196.1 281,194.9 281,192.1 274.5,190.9"/>
</g><g id="sheet-text" fill="#111111">
<text x="179" y="181.5" font-size="4.2" text-anchor="start" font-weight="700" data-role="title">VRINGON</text>
<text x="257" y="181.5" font-size="2.5" text-anchor="start" font-weight="700" data-role="title">도번 VR-RB-019</text>
<text x="179" y="189.5" font-size="2.8" text-anchor="start" font-weight="700" data-role="title">품명 평행핀</text>
<text x="234" y="189.5" font-size="2.8" text-anchor="start" font-weight="700" data-role="title">재질 SUJ2</text>
<text x="179" y="197.5" font-size="2.5" text-anchor="start" font-weight="700" data-role="title">척도 2:1</text>
<text x="234" y="197.5" font-size="2.5" text-anchor="start" font-weight="700" data-role="title">3각법 · 단위 mm</text>
<text x="14" y="191.8" font-size="2.6" text-anchor="start" font-weight="400" data-role="note">1. 지시 없는 모따기 C0.5</text>
<text x="14" y="196" font-size="2.6" text-anchor="start" font-weight="400" data-role="note">2. 지시 없는 공차 KS B ISO 2768-m</text>
</g></svg>