0
SECTION
2
HEADER
9
$ACADVER
1
AC1009
9
$INSUNITS
70
4
0
ENDSEC
0
SECTION
2
TABLES
0
TABLE
2
LTYPE
70
3
0
LTYPE
2
CONTINUOUS
70
0
3
Solid line
72
65
73
0
40
0
0
LTYPE
2
DASHED
70
0
3
Dashed __ __ __
72
65
73
2
40
4.5
49
3
49
-1.5
0
LTYPE
2
CENTER
70
0
3
Center ____ _ ____
72
65
73
4
40
11.5
49
8
49
-1.5
49
0.5
49
-1.5
0
ENDTAB
0
TABLE
2
LAYER
70
9
0
LAYER
2
OUTLINE
70
0
62
7
6
CONTINUOUS
0
LAYER
2
HIDDEN
70
0
62
8
6
DASHED
0
LAYER
2
CENTER
70
0
62
1
6
CENTER
0
LAYER
2
THIN
70
0
62
7
6
CONTINUOUS
0
LAYER
2
DIM
70
0
62
3
6
CONTINUOUS
0
LAYER
2
HATCH
70
0
62
8
6
CONTINUOUS
0
LAYER
2
FRAME
70
0
62
7
6
CONTINUOUS
0
LAYER
2
TEXT
70
0
62
7
6
CONTINUOUS
0
LAYER
2
CUT
70
0
62
5
6
DASHED
0
ENDTAB
0
ENDSEC
0
SECTION
2
ENTITIES
0
LINE
8
OUTLINE
10
108.5
20
127.2
30
0
11
110.1
21
128.8
31
0
0
LINE
8
OUTLINE
10
110.1
20
128.8
30
0
11
186.9
21
128.8
31
0
0
LINE
8
OUTLINE
10
186.9
20
128.8
30
0
11
188.5
21
127.2
31
0
0
LINE
8
OUTLINE
10
108.5
20
114.4
30
0
11
110.1
21
112.8
31
0
0
LINE
8
OUTLINE
10
110.1
20
112.8
30
0
11
186.9
21
112.8
31
0
0
LINE
8
OUTLINE
10
186.9
20
112.8
30
0
11
188.5
21
114.4
31
0
0
LINE
8
OUTLINE
10
108.5
20
114.4
30
0
11
108.5
21
127.2
31
0
0
LINE
8
OUTLINE
10
188.5
20
114.4
30
0
11
188.5
21
127.2
31
0
0
LINE
8
OUTLINE
10
110.1
20
112.8
30
0
11
110.1
21
128.8
31
0
0
LINE
8
OUTLINE
10
186.9
20
112.8
30
0
11
186.9
21
128.8
31
0
0
LINE
8
OUTLINE
10
186.9
20
112.8
30
0
11
186.9
21
128.8
31
0
0
LINE
8
CENTER
10
100.5
20
120.8
30
0
11
196.5
21
120.8
31
0
0
LINE
8
DIM
10
108.5
20
111.8
30
0
11
108.5
21
95.8
31
0
0
LINE
8
DIM
10
188.5
20
111.8
30
0
11
188.5
21
95.8
31
0
0
LINE
8
DIM
10
108.5
20
97.8
30
0
11
188.5
21
97.8
31
0
0
SOLID
8
DIM
10
108.5
20
97.8
30
0
11
111.5
21
98.31
31
0
12
111.5
22
97.29
32
0
13
111.5
23
97.29
33
0
0
SOLID
8
DIM
10
188.5
20
97.8
30
0
11
185.5
21
97.29
31
0
12
185.5
22
98.31
32
0
13
185.5
23
98.31
33
0
0
TEXT
8
TEXT
10
148.5
20
99.6
30
0
40
3.5
1
40
50
0
72
1
11
148.5
21
99.6
31
0
0
LINE
8
DIM
10
148.5
20
112.8
30
0
11
148.5
21
138.8
31
0
0
SOLID
8
DIM
10
148.5
20
112.8
30
0
11
147.99
21
115.8
31
0
12
149.01
22
115.8
32
0
13
149.01
23
115.8
33
0
0
SOLID
8
DIM
10
148.5
20
128.8
30
0
11
149.01
21
125.8
31
0
12
147.99
22
125.8
32
0
13
147.99
23
125.8
33
0
0
TEXT
8
TEXT
10
148.5
20
140.4
30
0
40
3.5
1
%%c8 m6
50
0
72
1
11
148.5
21
140.4
31
0
0
LINE
8
DIM
10
109.3
20
128
30
0
11
103.3
21
136
31
0
0
LINE
8
DIM
10
103.3
20
136
30
0
11
94.02
21
136
31
0
0
SOLID
8
DIM
10
109.3
20
128
30
0
11
111.508
21
125.906
31
0
12
110.692
22
125.294
32
0
13
110.692
23
125.294
33
0
0
TEXT
8
TEXT
10
102.3
20
137.4
30
0
40
3.5
1
C0.8
50
0
72
2
11
102.3
21
137.4
31
0
0
LINE
8
DIM
10
187.7
20
128
30
0
11
193.7
21
136
31
0
0
LINE
8
DIM
10
193.7
20
136
30
0
11
202.98
21
136
31
0
0
SOLID
8
DIM
10
187.7
20
128
30
0
11
186.308
21
125.294
31
0
12
185.492
22
125.906
32
0
13
185.492
23
125.906
33
0
0
TEXT
8
TEXT
10
194.7
20
137.4
30
0
40
3.5
1
C0.8
50
0
72
0
11
194.7
21
137.4
31
0
0
LINE
8
FRAME
10
10
20
10
30
0
11
287
21
10
31
0
0
LINE
8
FRAME
10
287
20
10
30
0
11
287
21
200
31
0
0
LINE
8
FRAME
10
287
20
200
30
0
11
10
21
200
31
0
0
LINE
8
FRAME
10
10
20
200
30
0
11
10
21
10
31
0
0
LINE
8
FRAME
10
177
20
10
30
0
11
287
21
10
31
0
0
LINE
8
FRAME
10
287
20
10
30
0
11
287
21
34
31
0
0
LINE
8
FRAME
10
287
20
34
30
0
11
177
21
34
31
0
0
LINE
8
FRAME
10
177
20
34
30
0
11
177
21
10
31
0
0
LINE
8
FRAME
10
177
20
18
30
0
11
287
21
18
31
0
0
LINE
8
FRAME
10
177
20
26
30
0
11
287
21
26
31
0
0
LINE
8
FRAME
10
232
20
10
30
0
11
232
21
26
31
0
0
LINE
8
FRAME
10
255
20
26
30
0
11
255
21
34
31
0
0
TEXT
8
TEXT
10
179
20
28.5
30
0
40
4.2
1
VRINGON
72
0
11
179
21
28.5
31
0
0
TEXT
8
TEXT
10
257
20
28.5
30
0
40
2.5
1
도번 VR-RB-019
72
0
11
257
21
28.5
31
0
0
TEXT
8
TEXT
10
179
20
20.5
30
0
40
2.8
1
품명 평행핀
72
0
11
179
21
20.5
31
0
0
TEXT
8
TEXT
10
234
20
20.5
30
0
40
2.8
1
재질 SUJ2
72
0
11
234
21
20.5
31
0
0
TEXT
8
TEXT
10
179
20
12.5
30
0
40
2.5
1
척도 2:1
72
0
11
179
21
12.5
31
0
0
TEXT
8
TEXT
10
234
20
12.5
30
0
40
2.5
1
3각법 · 단위 mm
72
0
11
234
21
12.5
31
0
0
CIRCLE
8
FRAME
10
269
20
16.5
30
0
40
2.4
0
CIRCLE
8
FRAME
10
269
20
16.5
30
0
40
1.2
0
LINE
8
FRAME
10
274.5
20
13.9
30
0
11
281
21
15.1
31
0
0
LINE
8
FRAME
10
281
20
15.1
30
0
11
281
21
17.9
31
0
0
LINE
8
FRAME
10
281
20
17.9
30
0
11
274.5
21
19.1
31
0
0
LINE
8
FRAME
10
274.5
20
19.1
30
0
11
274.5
21
13.9
31
0
0
TEXT
8
TEXT
10
14
20
18.2
30
0
40
2.6
1
1. 지시 없는 모따기 C0.5
72
0
11
14
21
18.2
31
0
0
TEXT
8
TEXT
10
14
20
14
30
0
40
2.6
1
2. 지시 없는 공차 KS B ISO 2768-m
72
0
11
14
21
14
31
0
0
ENDSEC
0
EOF
