0
SECTION
2
HEADER
9
$ACADVER
1
AC1009
9
$INSUNITS
70
4
0
ENDSEC
0
SECTION
2
TABLES
0
TABLE
2
LTYPE
70
3
0
LTYPE
2
CONTINUOUS
70
0
3
Solid line
72
65
73
0
40
0
0
LTYPE
2
DASHED
70
0
3
Dashed __ __ __
72
65
73
2
40
4.5
49
3
49
-1.5
0
LTYPE
2
CENTER
70
0
3
Center ____ _ ____
72
65
73
4
40
11.5
49
8
49
-1.5
49
0.5
49
-1.5
0
ENDTAB
0
TABLE
2
LAYER
70
9
0
LAYER
2
OUTLINE
70
0
62
7
6
CONTINUOUS
0
LAYER
2
HIDDEN
70
0
62
8
6
DASHED
0
LAYER
2
CENTER
70
0
62
1
6
CENTER
0
LAYER
2
THIN
70
0
62
7
6
CONTINUOUS
0
LAYER
2
DIM
70
0
62
3
6
CONTINUOUS
0
LAYER
2
HATCH
70
0
62
8
6
CONTINUOUS
0
LAYER
2
FRAME
70
0
62
7
6
CONTINUOUS
0
LAYER
2
TEXT
70
0
62
7
6
CONTINUOUS
0
LAYER
2
CUT
70
0
62
5
6
DASHED
0
ENDTAB
0
ENDSEC
0
SECTION
2
ENTITIES
0
LINE
8
OUTLINE
10
89.115
20
126.75
30
0
11
90.115
21
127.75
31
0
0
LINE
8
OUTLINE
10
90.115
20
127.75
30
0
11
117.615
21
127.75
31
0
0
LINE
8
OUTLINE
10
117.615
20
127.75
30
0
11
117.811
21
127.763
31
0
0
LINE
8
OUTLINE
10
117.811
20
127.763
30
0
11
118.003
21
127.801
31
0
0
LINE
8
OUTLINE
10
118.003
20
127.801
30
0
11
118.189
21
127.864
31
0
0
LINE
8
OUTLINE
10
118.189
20
127.864
30
0
11
118.365
21
127.951
31
0
0
LINE
8
OUTLINE
10
118.365
20
127.951
30
0
11
118.528
21
128.06
31
0
0
LINE
8
OUTLINE
10
118.528
20
128.06
30
0
11
118.676
21
128.189
31
0
0
LINE
8
OUTLINE
10
118.676
20
128.189
30
0
11
118.805
21
128.337
31
0
0
LINE
8
OUTLINE
10
118.805
20
128.337
30
0
11
118.914
21
128.5
31
0
0
LINE
8
OUTLINE
10
118.914
20
128.5
30
0
11
119.001
21
128.676
31
0
0
LINE
8
OUTLINE
10
119.001
20
128.676
30
0
11
119.064
21
128.862
31
0
0
LINE
8
OUTLINE
10
119.064
20
128.862
30
0
11
119.102
21
129.054
31
0
0
LINE
8
OUTLINE
10
119.102
20
129.054
30
0
11
119.115
21
129.25
31
0
0
LINE
8
OUTLINE
10
119.115
20
129.25
30
0
11
119.115
21
131.75
31
0
0
LINE
8
OUTLINE
10
119.115
20
131.75
30
0
11
120.115
21
132.75
31
0
0
LINE
8
OUTLINE
10
120.115
20
132.75
30
0
11
129.115
21
132.75
31
0
0
LINE
8
OUTLINE
10
129.115
20
132.75
30
0
11
129.115
21
132.05
31
0
0
LINE
8
OUTLINE
10
129.115
20
132.05
30
0
11
130.715
21
132.05
31
0
0
LINE
8
OUTLINE
10
130.715
20
132.05
30
0
11
130.715
21
132.75
31
0
0
LINE
8
OUTLINE
10
130.715
20
132.75
30
0
11
159.115
21
132.75
31
0
0
LINE
8
OUTLINE
10
159.115
20
132.75
30
0
11
169.115
21
130.25
31
0
0
LINE
8
OUTLINE
10
169.115
20
130.25
30
0
11
169.115
21
126.65
31
0
0
LINE
8
OUTLINE
10
169.115
20
126.65
30
0
11
173.615
21
126.65
31
0
0
LINE
8
OUTLINE
10
173.615
20
126.65
30
0
11
173.615
21
127.75
31
0
0
LINE
8
OUTLINE
10
173.615
20
127.75
30
0
11
187.615
21
127.75
31
0
0
LINE
8
OUTLINE
10
187.615
20
127.75
30
0
11
189.115
21
126.25
31
0
0
LINE
8
OUTLINE
10
89.115
20
108.75
30
0
11
90.115
21
107.75
31
0
0
LINE
8
OUTLINE
10
90.115
20
107.75
30
0
11
117.615
21
107.75
31
0
0
LINE
8
OUTLINE
10
117.615
20
107.75
30
0
11
117.811
21
107.737
31
0
0
LINE
8
OUTLINE
10
117.811
20
107.737
30
0
11
118.003
21
107.699
31
0
0
LINE
8
OUTLINE
10
118.003
20
107.699
30
0
11
118.189
21
107.636
31
0
0
LINE
8
OUTLINE
10
118.189
20
107.636
30
0
11
118.365
21
107.549
31
0
0
LINE
8
OUTLINE
10
118.365
20
107.549
30
0
11
118.528
21
107.44
31
0
0
LINE
8
OUTLINE
10
118.528
20
107.44
30
0
11
118.676
21
107.311
31
0
0
LINE
8
OUTLINE
10
118.676
20
107.311
30
0
11
118.805
21
107.163
31
0
0
LINE
8
OUTLINE
10
118.805
20
107.163
30
0
11
118.914
21
107
31
0
0
LINE
8
OUTLINE
10
118.914
20
107
30
0
11
119.001
21
106.824
31
0
0
LINE
8
OUTLINE
10
119.001
20
106.824
30
0
11
119.064
21
106.638
31
0
0
LINE
8
OUTLINE
10
119.064
20
106.638
30
0
11
119.102
21
106.446
31
0
0
LINE
8
OUTLINE
10
119.102
20
106.446
30
0
11
119.115
21
106.25
31
0
0
LINE
8
OUTLINE
10
119.115
20
106.25
30
0
11
119.115
21
103.75
31
0
0
LINE
8
OUTLINE
10
119.115
20
103.75
30
0
11
120.115
21
102.75
31
0
0
LINE
8
OUTLINE
10
120.115
20
102.75
30
0
11
129.115
21
102.75
31
0
0
LINE
8
OUTLINE
10
129.115
20
102.75
30
0
11
129.115
21
103.45
31
0
0
LINE
8
OUTLINE
10
129.115
20
103.45
30
0
11
130.715
21
103.45
31
0
0
LINE
8
OUTLINE
10
130.715
20
103.45
30
0
11
130.715
21
102.75
31
0
0
LINE
8
OUTLINE
10
130.715
20
102.75
30
0
11
159.115
21
102.75
31
0
0
LINE
8
OUTLINE
10
159.115
20
102.75
30
0
11
169.115
21
105.25
31
0
0
LINE
8
OUTLINE
10
169.115
20
105.25
30
0
11
169.115
21
108.85
31
0
0
LINE
8
OUTLINE
10
169.115
20
108.85
30
0
11
173.615
21
108.85
31
0
0
LINE
8
OUTLINE
10
173.615
20
108.85
30
0
11
173.615
21
107.75
31
0
0
LINE
8
OUTLINE
10
173.615
20
107.75
30
0
11
187.615
21
107.75
31
0
0
LINE
8
OUTLINE
10
187.615
20
107.75
30
0
11
189.115
21
109.25
31
0
0
LINE
8
OUTLINE
10
89.115
20
108.75
30
0
11
89.115
21
126.75
31
0
0
LINE
8
OUTLINE
10
189.115
20
109.25
30
0
11
189.115
21
126.25
31
0
0
LINE
8
OUTLINE
10
90.115
20
107.75
30
0
11
90.115
21
127.75
31
0
0
LINE
8
OUTLINE
10
90.115
20
107.75
30
0
11
90.115
21
127.75
31
0
0
LINE
8
OUTLINE
10
119.115
20
106.25
30
0
11
119.115
21
129.25
31
0
0
LINE
8
OUTLINE
10
120.115
20
102.75
30
0
11
120.115
21
132.75
31
0
0
LINE
8
OUTLINE
10
120.115
20
102.75
30
0
11
120.115
21
132.75
31
0
0
LINE
8
OUTLINE
10
129.115
20
103.45
30
0
11
129.115
21
132.05
31
0
0
LINE
8
OUTLINE
10
130.715
20
103.45
30
0
11
130.715
21
132.05
31
0
0
LINE
8
OUTLINE
10
169.115
20
108.85
30
0
11
169.115
21
126.65
31
0
0
LINE
8
OUTLINE
10
173.615
20
108.85
30
0
11
173.615
21
126.65
31
0
0
LINE
8
OUTLINE
10
187.615
20
107.75
30
0
11
187.615
21
127.75
31
0
0
LINE
8
OUTLINE
10
187.615
20
107.75
30
0
11
187.615
21
127.75
31
0
0
LINE
8
CENTER
10
85.115
20
117.75
30
0
11
193.115
21
117.75
31
0
0
LINE
8
HIDDEN
10
89.115
20
120.4
30
0
11
91.54
21
119
31
0
0
LINE
8
HIDDEN
10
91.54
20
119
30
0
11
96.54
21
119
31
0
0
LINE
8
HIDDEN
10
96.54
20
119
30
0
11
97.291
21
117.75
31
0
0
LINE
8
HIDDEN
10
89.115
20
115.1
30
0
11
91.54
21
116.5
31
0
0
LINE
8
HIDDEN
10
91.54
20
116.5
30
0
11
96.54
21
116.5
31
0
0
LINE
8
HIDDEN
10
96.54
20
116.5
30
0
11
97.291
21
117.75
31
0
0
LINE
8
HIDDEN
10
91.54
20
116.5
30
0
11
91.54
21
119
31
0
0
LINE
8
HIDDEN
10
189.115
20
119.875
30
0
11
187.166
21
118.75
31
0
0
LINE
8
HIDDEN
10
187.166
20
118.75
30
0
11
183.166
21
118.75
31
0
0
LINE
8
HIDDEN
10
183.166
20
118.75
30
0
11
182.565
21
117.75
31
0
0
LINE
8
HIDDEN
10
189.115
20
115.625
30
0
11
187.166
21
116.75
31
0
0
LINE
8
HIDDEN
10
187.166
20
116.75
30
0
11
183.166
21
116.75
31
0
0
LINE
8
HIDDEN
10
183.166
20
116.75
30
0
11
182.565
21
117.75
31
0
0
LINE
8
HIDDEN
10
187.166
20
116.75
30
0
11
187.166
21
118.75
31
0
0
LINE
8
THIN
10
169.115
20
126.83
30
0
11
187.615
21
126.83
31
0
0
LINE
8
THIN
10
169.115
20
108.67
30
0
11
187.615
21
108.67
31
0
0
LINE
8
OUTLINE
10
138.115
20
121.75
30
0
11
150.115
21
121.75
31
0
0
LINE
8
OUTLINE
10
138.115
20
113.75
30
0
11
150.115
21
113.75
31
0
0
ARC
8
OUTLINE
10
138.115
20
117.75
30
0
40
4
50
90
51
270
0
ARC
8
OUTLINE
10
150.115
20
117.75
30
0
40
4
50
-90
51
90
0
LINE
8
CUT
10
144.115
20
135.25
30
0
11
144.115
21
140.25
31
0
0
LINE
8
CUT
10
144.115
20
140.25
30
0
11
141.115
21
140.25
31
0
0
SOLID
8
DIM
10
139.615
20
140.25
30
0
11
142.615
21
140.76
31
0
12
142.615
22
139.74
32
0
13
142.615
23
139.74
33
0
0
TEXT
8
TEXT
10
145.615
20
140.85
30
0
40
3.5
1
A
50
0
72
0
11
145.615
21
140.85
31
0
0
LINE
8
CUT
10
144.115
20
100.25
30
0
11
144.115
21
95.25
31
0
0
LINE
8
CUT
10
144.115
20
95.25
30
0
11
141.115
21
95.25
31
0
0
SOLID
8
DIM
10
139.615
20
95.25
30
0
11
142.615
21
95.76
31
0
12
142.615
22
94.74
32
0
13
142.615
23
94.74
33
0
0
TEXT
8
TEXT
10
145.615
20
92.05
30
0
40
3.5
1
A
50
0
72
0
11
145.615
21
92.05
31
0
0
CIRCLE
8
OUTLINE
10
139.115
20
117.75
30
0
40
2
0
LINE
8
CENTER
10
135.115
20
117.75
30
0
11
143.115
21
117.75
31
0
0
LINE
8
CENTER
10
139.115
20
113.75
30
0
11
139.115
21
121.75
31
0
0
LINE
8
DIM
10
89.115
20
106.75
30
0
11
89.115
21
85.75
31
0
0
LINE
8
DIM
10
119.115
20
106.75
30
0
11
119.115
21
85.75
31
0
0
LINE
8
DIM
10
89.115
20
87.75
30
0
11
119.115
21
87.75
31
0
0
SOLID
8
DIM
10
89.115
20
87.75
30
0
11
92.115
21
88.26
31
0
12
92.115
22
87.24
32
0
13
92.115
23
87.24
33
0
0
SOLID
8
DIM
10
119.115
20
87.75
30
0
11
116.115
21
87.24
31
0
12
116.115
22
88.26
32
0
13
116.115
23
88.26
33
0
0
TEXT
8
TEXT
10
104.115
20
88.65
30
0
40
3.5
1
30
50
0
72
1
11
104.115
21
88.65
31
0
0
LINE
8
DIM
10
159.115
20
101.75
30
0
11
159.115
21
85.75
31
0
0
LINE
8
DIM
10
169.115
20
101.75
30
0
11
169.115
21
85.75
31
0
0
LINE
8
DIM
10
159.115
20
87.75
30
0
11
169.115
21
87.75
31
0
0
SOLID
8
DIM
10
159.115
20
87.75
30
0
11
162.115
21
88.26
31
0
12
162.115
22
87.24
32
0
13
162.115
23
87.24
33
0
0
SOLID
8
DIM
10
169.115
20
87.75
30
0
11
166.115
21
87.24
31
0
12
166.115
22
88.26
32
0
13
166.115
23
88.26
33
0
0
TEXT
8
TEXT
10
164.115
20
88.65
30
0
40
3.5
1
10
50
0
72
1
11
164.115
21
88.65
31
0
0
LINE
8
DIM
10
169.115
20
106.75
30
0
11
169.115
21
85.75
31
0
0
LINE
8
DIM
10
189.115
20
106.75
30
0
11
189.115
21
85.75
31
0
0
LINE
8
DIM
10
169.115
20
87.75
30
0
11
189.115
21
87.75
31
0
0
SOLID
8
DIM
10
169.115
20
87.75
30
0
11
172.115
21
88.26
31
0
12
172.115
22
87.24
32
0
13
172.115
23
87.24
33
0
0
SOLID
8
DIM
10
189.115
20
87.75
30
0
11
186.115
21
87.24
31
0
12
186.115
22
88.26
32
0
13
186.115
23
88.26
33
0
0
TEXT
8
TEXT
10
179.115
20
88.65
30
0
40
3.5
1
20
50
0
72
1
11
179.115
21
88.65
31
0
0
LINE
8
DIM
10
89.115
20
101.75
30
0
11
89.115
21
76.75
31
0
0
LINE
8
DIM
10
189.115
20
101.75
30
0
11
189.115
21
76.75
31
0
0
LINE
8
DIM
10
89.115
20
78.75
30
0
11
189.115
21
78.75
31
0
0
SOLID
8
DIM
10
89.115
20
78.75
30
0
11
92.115
21
79.26
31
0
12
92.115
22
78.24
32
0
13
92.115
23
78.24
33
0
0
SOLID
8
DIM
10
189.115
20
78.75
30
0
11
186.115
21
78.24
31
0
12
186.115
22
79.26
32
0
13
186.115
23
79.26
33
0
0
TEXT
8
TEXT
10
139.115
20
79.65
30
0
40
3.5
1
100
50
0
72
1
11
139.115
21
79.65
31
0
0
LINE
8
DIM
10
104.115
20
107.75
30
0
11
104.115
21
132.75
31
0
0
SOLID
8
DIM
10
104.115
20
107.75
30
0
11
103.605
21
110.75
31
0
12
104.625
22
110.75
32
0
13
104.625
23
110.75
33
0
0
SOLID
8
DIM
10
104.115
20
127.75
30
0
11
104.625
21
124.75
31
0
12
103.605
22
124.75
32
0
13
103.605
23
124.75
33
0
0
TEXT
8
TEXT
10
104.115
20
133.55
30
0
40
3.5
1
%%c20 h6
50
0
72
1
11
104.115
21
133.55
31
0
0
LINE
8
DIM
10
139.115
20
102.75
30
0
11
139.115
21
137.75
31
0
0
SOLID
8
DIM
10
139.115
20
102.75
30
0
11
138.605
21
105.75
31
0
12
139.625
22
105.75
32
0
13
139.625
23
105.75
33
0
0
SOLID
8
DIM
10
139.115
20
132.75
30
0
11
139.625
21
129.75
31
0
12
138.605
22
129.75
32
0
13
138.605
23
129.75
33
0
0
TEXT
8
TEXT
10
139.115
20
138.55
30
0
40
3.5
1
%%c30
50
0
72
1
11
139.115
21
138.55
31
0
0
LINE
8
DIM
10
161.315
20
103.3
30
0
11
161.315
21
137.2
31
0
0
SOLID
8
DIM
10
161.315
20
103.3
30
0
11
160.805
21
106.3
31
0
12
161.825
22
106.3
32
0
13
161.825
23
106.3
33
0
0
SOLID
8
DIM
10
161.315
20
132.2
30
0
11
161.825
21
129.2
31
0
12
160.805
22
129.2
32
0
13
160.805
23
129.2
33
0
0
TEXT
8
TEXT
10
161.315
20
138
30
0
40
3.5
1
%%c30
50
0
72
1
11
161.315
21
138
31
0
0
LINE
8
DIM
10
166.915
20
104.7
30
0
11
166.915
21
135.8
31
0
0
SOLID
8
DIM
10
166.915
20
104.7
30
0
11
166.405
21
107.7
31
0
12
167.425
22
107.7
32
0
13
167.425
23
107.7
33
0
0
SOLID
8
DIM
10
166.915
20
130.8
30
0
11
167.425
21
127.8
31
0
12
166.405
22
127.8
32
0
13
166.405
23
127.8
33
0
0
LINE
8
DIM
10
166.915
20
135.8
30
0
11
166.915
21
146.1
31
0
0
TEXT
8
TEXT
10
166.915
20
146.4
30
0
40
3.5
1
%%c25
50
0
72
1
11
166.915
21
146.4
31
0
0
LINE
8
DIM
10
179.115
20
127.75
30
0
11
185.115
21
136.75
31
0
0
LINE
8
DIM
10
185.115
20
136.75
30
0
11
199.94
21
136.75
31
0
0
SOLID
8
DIM
10
179.115
20
127.75
30
0
11
177.875
21
124.971
31
0
12
177.027
22
125.537
32
0
13
177.027
23
125.537
33
0
0
TEXT
8
TEXT
10
185.615
20
137.45
30
0
40
3.5
1
M20×1.5
50
0
72
0
11
185.615
21
137.45
31
0
0
LINE
8
DIM
10
89.615
20
127.25
30
0
11
83.615
21
135.25
31
0
0
LINE
8
DIM
10
83.615
20
135.25
30
0
11
78.275
21
135.25
31
0
0
SOLID
8
DIM
10
89.615
20
127.25
30
0
11
91.823
21
125.156
31
0
12
91.007
22
124.544
32
0
13
91.007
23
124.544
33
0
0
TEXT
8
TEXT
10
83.115
20
135.95
30
0
40
3.5
1
C1
50
0
72
2
11
83.115
21
135.95
31
0
0
LINE
8
DIM
10
118.68
20
128.185
30
0
11
113.68
21
140.185
31
0
0
LINE
8
DIM
10
113.68
20
140.185
30
0
11
105.4
21
140.185
31
0
0
SOLID
8
DIM
10
118.68
20
128.185
30
0
11
120.305
21
125.612
31
0
12
119.363
22
125.22
32
0
13
119.363
23
125.22
33
0
0
TEXT
8
TEXT
10
113.18
20
140.885
30
0
40
3.5
1
R1.5
50
0
72
2
11
113.18
21
140.885
31
0
0
LINE
8
DIM
10
118.615
20
132.25
30
0
11
124.615
21
140.25
31
0
0
LINE
8
DIM
10
124.615
20
140.25
30
0
11
129.955
21
140.25
31
0
0
SOLID
8
DIM
10
118.615
20
132.25
30
0
11
117.223
21
129.544
31
0
12
116.407
22
130.156
32
0
13
116.407
23
130.156
33
0
0
TEXT
8
TEXT
10
125.115
20
140.95
30
0
40
3.5
1
C1
50
0
72
0
11
125.115
21
140.95
31
0
0
LINE
8
DIM
10
166.865
20
126.65
30
0
11
160.865
21
151.75
31
0
0
LINE
8
DIM
10
160.865
20
151.75
30
0
11
121.015
21
151.75
31
0
0
SOLID
8
DIM
10
166.865
20
126.65
30
0
11
168.059
21
123.851
31
0
12
167.066
22
123.614
32
0
13
167.066
23
123.614
33
0
0
TEXT
8
TEXT
10
160.365
20
152.45
30
0
40
3.5
1
4.5×%%c17.8 (DIN 76-A)
50
0
72
2
11
160.365
21
152.45
31
0
0
LINE
8
DIM
10
188.365
20
127
30
0
11
194.365
21
145
31
0
0
LINE
8
DIM
10
194.365
20
145
30
0
11
202.645
21
145
31
0
0
SOLID
8
DIM
10
188.365
20
127
30
0
11
187.9
21
123.993
31
0
12
186.932
22
124.315
32
0
13
186.932
23
124.315
33
0
0
TEXT
8
TEXT
10
194.865
20
145.7
30
0
40
3.5
1
C1.5
50
0
72
0
11
194.865
21
145.7
31
0
0
LINE
8
DIM
10
129.115
20
133.75
30
0
11
129.115
21
143.75
31
0
0
LINE
8
DIM
10
130.715
20
133.75
30
0
11
130.715
21
143.75
31
0
0
LINE
8
DIM
10
122.515
20
141.75
30
0
11
137.315
21
141.75
31
0
0
SOLID
8
DIM
10
129.115
20
141.75
30
0
11
126.115
21
141.24
31
0
12
126.115
22
142.26
32
0
13
126.115
23
142.26
33
0
0
SOLID
8
DIM
10
130.715
20
141.75
30
0
11
133.715
21
142.26
31
0
12
133.715
22
141.24
32
0
13
133.715
23
141.24
33
0
0
TEXT
8
TEXT
10
140.365
20
142.65
30
0
40
3.5
1
1.6
50
0
72
1
11
140.365
21
142.65
31
0
0
LINE
8
DIM
10
119.115
20
133.75
30
0
11
119.115
21
143.75
31
0
0
LINE
8
DIM
10
129.115
20
133.75
30
0
11
129.115
21
143.75
31
0
0
LINE
8
DIM
10
119.115
20
141.75
30
0
11
129.115
21
141.75
31
0
0
SOLID
8
DIM
10
119.115
20
141.75
30
0
11
122.115
21
142.26
31
0
12
122.115
22
141.24
32
0
13
122.115
23
141.24
33
0
0
SOLID
8
DIM
10
129.115
20
141.75
30
0
11
126.115
21
141.24
31
0
12
126.115
22
142.26
32
0
13
126.115
23
142.26
33
0
0
TEXT
8
TEXT
10
124.115
20
147.55
30
0
40
3.5
1
10
50
0
72
1
11
124.115
21
147.55
31
0
0
LINE
8
DIM
10
129.915
20
103.45
30
0
11
129.915
21
137.75
31
0
0
SOLID
8
DIM
10
129.915
20
103.45
30
0
11
129.405
21
106.45
31
0
12
130.425
22
106.45
32
0
13
130.425
23
106.45
33
0
0
SOLID
8
DIM
10
129.915
20
132.05
30
0
11
130.425
21
129.05
31
0
12
129.405
22
129.05
32
0
13
129.405
23
129.05
33
0
0
LINE
8
DIM
10
129.915
20
137.75
30
0
11
129.915
21
157.85
31
0
0
TEXT
8
TEXT
10
129.915
20
158.15
30
0
40
3.5
1
%%c28.6
50
0
72
1
11
129.915
21
158.15
31
0
0
LINE
8
DIM
10
134.115
20
133.75
30
0
11
134.115
21
146.75
31
0
0
LINE
8
DIM
10
154.115
20
133.75
30
0
11
154.115
21
146.75
31
0
0
LINE
8
DIM
10
134.115
20
144.75
30
0
11
154.115
21
144.75
31
0
0
SOLID
8
DIM
10
134.115
20
144.75
30
0
11
137.115
21
145.26
31
0
12
137.115
22
144.24
32
0
13
137.115
23
144.24
33
0
0
SOLID
8
DIM
10
154.115
20
144.75
30
0
11
151.115
21
144.24
31
0
12
151.115
22
145.26
32
0
13
151.115
23
145.26
33
0
0
TEXT
8
TEXT
10
144.115
20
160.35
30
0
40
3.5
1
20
50
0
72
1
11
144.115
21
160.35
31
0
0
LINE
8
DIM
10
159.115
20
133.75
30
0
11
159.115
21
146.75
31
0
0
LINE
8
DIM
10
154.115
20
133.75
30
0
11
154.115
21
146.75
31
0
0
LINE
8
DIM
10
147.515
20
144.75
30
0
11
165.715
21
144.75
31
0
0
SOLID
8
DIM
10
154.115
20
144.75
30
0
11
151.115
21
144.24
31
0
12
151.115
22
145.26
32
0
13
151.115
23
145.26
33
0
0
SOLID
8
DIM
10
159.115
20
144.75
30
0
11
162.115
21
145.26
31
0
12
162.115
22
144.24
32
0
13
162.115
23
144.24
33
0
0
TEXT
8
TEXT
10
167.295
20
150.55
30
0
40
3.5
1
5
50
0
72
1
11
167.295
21
150.55
31
0
0
LINE
8
DIM
10
140.515
20
119.15
30
0
11
146.115
21
148.75
31
0
0
LINE
8
DIM
10
146.115
20
148.75
30
0
11
159.4
21
148.75
31
0
0
SOLID
8
DIM
10
140.515
20
119.15
30
0
11
140.458
21
116.107
31
0
12
139.456
22
116.297
32
0
13
139.456
23
116.297
33
0
0
TEXT
8
TEXT
10
146.615
20
149.45
30
0
40
3.5
1
%%c4 관통
50
0
72
0
11
146.615
21
149.45
31
0
0
LINE
8
DIM
10
89.115
20
133.75
30
0
11
89.115
21
143.75
31
0
0
LINE
8
DIM
10
139.115
20
133.75
30
0
11
139.115
21
143.75
31
0
0
LINE
8
DIM
10
89.115
20
141.75
30
0
11
139.115
21
141.75
31
0
0
SOLID
8
DIM
10
89.115
20
141.75
30
0
11
92.115
21
142.26
31
0
12
92.115
22
141.24
32
0
13
92.115
23
141.24
33
0
0
SOLID
8
DIM
10
139.115
20
141.75
30
0
11
136.115
21
141.24
31
0
12
136.115
22
142.26
32
0
13
136.115
23
142.26
33
0
0
TEXT
8
TEXT
10
114.115
20
147.55
30
0
40
3.5
1
50
50
0
72
1
11
114.115
21
147.55
31
0
0
LINE
8
DIM
10
89.115
20
120.9
30
0
11
84.115
21
140.75
31
0
0
LINE
8
DIM
10
84.115
20
140.75
30
0
11
53.865
21
140.75
31
0
0
SOLID
8
DIM
10
89.115
20
120.9
30
0
11
90.342
21
118.115
31
0
12
89.353
22
117.866
32
0
13
89.353
23
117.866
33
0
0
TEXT
8
TEXT
10
83.615
20
141.45
30
0
40
2.5
1
센터구멍 A2.5 (DIN 332)
50
0
72
2
11
83.615
21
141.45
31
0
0
LINE
8
DIM
10
189.115
20
120.725
30
0
11
194.115
21
152.25
31
0
0
LINE
8
DIM
10
194.115
20
152.25
30
0
11
222.265
21
152.25
31
0
0
SOLID
8
DIM
10
189.115
20
120.725
30
0
11
189.149
21
117.682
31
0
12
188.141
22
117.842
32
0
13
188.141
23
117.842
33
0
0
TEXT
8
TEXT
10
194.615
20
152.95
30
0
40
2.5
1
센터구멍 A2 (DIN 332)
50
0
72
0
11
194.615
21
152.95
31
0
0
TEXT
8
TEXT
10
218.115
20
144.75
30
0
40
4
1
A-A
50
0
72
1
11
218.115
21
144.75
31
0
0
LINE
8
CENTER
10
200.115
20
117.75
30
0
11
236.115
21
117.75
31
0
0
LINE
8
CENTER
10
218.115
20
99.75
30
0
11
218.115
21
135.75
31
0
0
ARC
8
OUTLINE
10
218.115
20
117.75
30
0
40
15
50
105.466
51
74.534
0
LINE
8
OUTLINE
10
214.115
20
128.75
30
0
11
214.115
21
132.207
31
0
0
LINE
8
OUTLINE
10
222.115
20
128.75
30
0
11
222.115
21
132.207
31
0
0
LINE
8
OUTLINE
10
214.115
20
128.75
30
0
11
222.115
21
128.75
31
0
0
LINE
8
DIM
10
214.115
20
133.207
30
0
11
214.115
21
140.75
31
0
0
LINE
8
DIM
10
222.115
20
133.207
30
0
11
222.115
21
140.75
31
0
0
LINE
8
DIM
10
207.515
20
138.75
30
0
11
228.715
21
138.75
31
0
0
SOLID
8
DIM
10
214.115
20
138.75
30
0
11
211.115
21
138.24
31
0
12
211.115
22
139.26
32
0
13
211.115
23
139.26
33
0
0
SOLID
8
DIM
10
222.115
20
138.75
30
0
11
225.115
21
139.26
31
0
12
225.115
22
138.24
32
0
13
225.115
23
138.24
33
0
0
TEXT
8
TEXT
10
230.295
20
139.65
30
0
40
3.5
1
8
50
0
72
1
11
230.295
21
139.65
31
0
0
LINE
8
DIM
10
223.115
20
128.75
30
0
11
242.115
21
128.75
31
0
0
LINE
8
DIM
10
219.115
20
102.75
30
0
11
242.115
21
102.75
31
0
0
LINE
8
DIM
10
240.115
20
102.75
30
0
11
240.115
21
128.75
31
0
0
SOLID
8
DIM
10
240.115
20
102.75
30
0
11
239.605
21
105.75
31
0
12
240.625
22
105.75
32
0
13
240.625
23
105.75
33
0
0
SOLID
8
DIM
10
240.115
20
128.75
30
0
11
240.625
21
125.75
31
0
12
239.605
22
125.75
32
0
13
239.605
23
125.75
33
0
0
TEXT
8
TEXT
10
239.215
20
115.75
30
0
40
3.5
1
26
50
90
72
1
11
239.215
21
115.75
31
0
0
LINE
8
HATCH
10
223.618
20
103.808
30
0
11
232.077
21
112.267
31
0
0
LINE
8
HATCH
10
219.067
20
102.793
30
0
11
233.084
21
116.81
31
0
0
LINE
8
HATCH
10
215.688
20
102.95
30
0
11
232.909
21
120.171
31
0
0
LINE
8
HATCH
10
212.902
20
103.698
30
0
11
232.175
21
122.971
31
0
0
LINE
8
HATCH
10
210.511
20
104.844
30
0
11
231.023
21
125.355
31
0
0
LINE
8
HATCH
10
208.435
20
106.303
30
0
11
229.556
21
127.424
31
0
0
LINE
8
HATCH
10
206.673
20
108.076
30
0
11
227.794
21
129.198
31
0
0
LINE
8
HATCH
10
205.207
20
110.146
30
0
11
225.718
21
130.657
31
0
0
LINE
8
HATCH
10
204.055
20
112.53
30
0
11
220.275
21
128.75
31
0
0
LINE
8
HATCH
10
222.115
20
130.59
30
0
11
223.327
21
131.802
31
0
0
LINE
8
HATCH
10
203.321
20
115.331
30
0
11
216.74
21
128.75
31
0
0
LINE
8
HATCH
10
203.146
20
118.692
30
0
11
214.115
21
129.661
31
0
0
LINE
8
HATCH
10
204.154
20
123.235
30
0
11
212.61
21
131.691
31
0
0
LINE
8
FRAME
10
10
20
10
30
0
11
287
21
10
31
0
0
LINE
8
FRAME
10
287
20
10
30
0
11
287
21
200
31
0
0
LINE
8
FRAME
10
287
20
200
30
0
11
10
21
200
31
0
0
LINE
8
FRAME
10
10
20
200
30
0
11
10
21
10
31
0
0
LINE
8
FRAME
10
177
20
10
30
0
11
287
21
10
31
0
0
LINE
8
FRAME
10
287
20
10
30
0
11
287
21
34
31
0
0
LINE
8
FRAME
10
287
20
34
30
0
11
177
21
34
31
0
0
LINE
8
FRAME
10
177
20
34
30
0
11
177
21
10
31
0
0
LINE
8
FRAME
10
177
20
18
30
0
11
287
21
18
31
0
0
LINE
8
FRAME
10
177
20
26
30
0
11
287
21
26
31
0
0
LINE
8
FRAME
10
232
20
10
30
0
11
232
21
26
31
0
0
LINE
8
FRAME
10
255
20
26
30
0
11
255
21
34
31
0
0
TEXT
8
TEXT
10
179
20
28.5
30
0
40
4.2
1
VRINGON
72
0
11
179
21
28.5
31
0
0
TEXT
8
TEXT
10
257
20
28.5
30
0
40
2.5
1
도번 VR-RB-011
72
0
11
257
21
28.5
31
0
0
TEXT
8
TEXT
10
179
20
20.5
30
0
40
2.8
1
품명 단붙이 축
72
0
11
179
21
20.5
31
0
0
TEXT
8
TEXT
10
234
20
20.5
30
0
40
2.8
1
재질 S45C
72
0
11
234
21
20.5
31
0
0
TEXT
8
TEXT
10
179
20
12.5
30
0
40
2.5
1
척도 1:1
72
0
11
179
21
12.5
31
0
0
TEXT
8
TEXT
10
234
20
12.5
30
0
40
2.5
1
3각법 · 단위 mm
72
0
11
234
21
12.5
31
0
0
CIRCLE
8
FRAME
10
269
20
16.5
30
0
40
2.4
0
CIRCLE
8
FRAME
10
269
20
16.5
30
0
40
1.2
0
LINE
8
FRAME
10
274.5
20
13.9
30
0
11
281
21
15.1
31
0
0
LINE
8
FRAME
10
281
20
15.1
30
0
11
281
21
17.9
31
0
0
LINE
8
FRAME
10
281
20
17.9
30
0
11
274.5
21
19.1
31
0
0
LINE
8
FRAME
10
274.5
20
19.1
30
0
11
274.5
21
13.9
31
0
0
TEXT
8
TEXT
10
14
20
18.2
30
0
40
2.6
1
1. 지시 없는 모따기 C0.5
72
0
11
14
21
18.2
31
0
0
TEXT
8
TEXT
10
14
20
14
30
0
40
2.6
1
2. 지시 없는 공차 KS B ISO 2768-m
72
0
11
14
21
14
31
0
0
ENDSEC
0
EOF
