0
SECTION
2
HEADER
9
$ACADVER
1
AC1009
9
$INSUNITS
70
4
0
ENDSEC
0
SECTION
2
TABLES
0
TABLE
2
LTYPE
70
3
0
LTYPE
2
CONTINUOUS
70
0
3
Solid line
72
65
73
0
40
0
0
LTYPE
2
DASHED
70
0
3
Dashed __ __ __
72
65
73
2
40
4.5
49
3
49
-1.5
0
LTYPE
2
CENTER
70
0
3
Center ____ _ ____
72
65
73
4
40
11.5
49
8
49
-1.5
49
0.5
49
-1.5
0
ENDTAB
0
TABLE
2
LAYER
70
9
0
LAYER
2
OUTLINE
70
0
62
7
6
CONTINUOUS
0
LAYER
2
HIDDEN
70
0
62
8
6
DASHED
0
LAYER
2
CENTER
70
0
62
1
6
CENTER
0
LAYER
2
THIN
70
0
62
7
6
CONTINUOUS
0
LAYER
2
DIM
70
0
62
3
6
CONTINUOUS
0
LAYER
2
HATCH
70
0
62
8
6
CONTINUOUS
0
LAYER
2
FRAME
70
0
62
7
6
CONTINUOUS
0
LAYER
2
TEXT
70
0
62
7
6
CONTINUOUS
0
LAYER
2
CUT
70
0
62
5
6
DASHED
0
ENDTAB
0
ENDSEC
0
SECTION
2
ENTITIES
0
LINE
8
OUTLINE
10
128.545
20
147.9
30
0
11
130.545
21
149.9
31
0
0
LINE
8
OUTLINE
10
130.545
20
149.9
30
0
11
158.545
21
149.9
31
0
0
LINE
8
OUTLINE
10
158.545
20
149.9
30
0
11
160.545
21
147.9
31
0
0
LINE
8
OUTLINE
10
128.545
20
87.9
30
0
11
130.545
21
85.9
31
0
0
LINE
8
OUTLINE
10
130.545
20
85.9
30
0
11
158.545
21
85.9
31
0
0
LINE
8
OUTLINE
10
158.545
20
85.9
30
0
11
160.545
21
87.9
31
0
0
LINE
8
OUTLINE
10
128.545
20
139.1
30
0
11
128.545
21
147.9
31
0
0
LINE
8
OUTLINE
10
128.545
20
96.7
30
0
11
128.545
21
87.9
31
0
0
LINE
8
OUTLINE
10
160.545
20
139.1
30
0
11
160.545
21
147.9
31
0
0
LINE
8
OUTLINE
10
160.545
20
96.7
30
0
11
160.545
21
87.9
31
0
0
LINE
8
OUTLINE
10
130.545
20
137.9
30
0
11
130.545
21
149.9
31
0
0
LINE
8
OUTLINE
10
130.545
20
97.9
30
0
11
130.545
21
85.9
31
0
0
LINE
8
OUTLINE
10
158.545
20
137.9
30
0
11
158.545
21
149.9
31
0
0
LINE
8
OUTLINE
10
158.545
20
97.9
30
0
11
158.545
21
85.9
31
0
0
LINE
8
OUTLINE
10
158.545
20
137.9
30
0
11
158.545
21
149.9
31
0
0
LINE
8
OUTLINE
10
158.545
20
97.9
30
0
11
158.545
21
85.9
31
0
0
LINE
8
CENTER
10
120.545
20
117.9
30
0
11
168.545
21
117.9
31
0
0
LINE
8
OUTLINE
10
128.545
20
139.1
30
0
11
129.745
21
137.9
31
0
0
LINE
8
OUTLINE
10
129.745
20
137.9
30
0
11
159.345
21
137.9
31
0
0
LINE
8
OUTLINE
10
159.345
20
137.9
30
0
11
160.545
21
139.1
31
0
0
LINE
8
OUTLINE
10
128.545
20
96.7
30
0
11
129.745
21
97.9
31
0
0
LINE
8
OUTLINE
10
129.745
20
97.9
30
0
11
159.345
21
97.9
31
0
0
LINE
8
OUTLINE
10
159.345
20
97.9
30
0
11
160.545
21
96.7
31
0
0
LINE
8
HATCH
10
157.577
20
137.9
30
0
11
160.545
21
140.868
31
0
0
LINE
8
HATCH
10
154.042
20
137.9
30
0
11
160.545
21
144.403
31
0
0
LINE
8
HATCH
10
150.506
20
137.9
30
0
11
160.526
21
147.919
31
0
0
LINE
8
HATCH
10
146.971
20
137.9
30
0
11
158.758
21
149.687
31
0
0
LINE
8
HATCH
10
143.435
20
137.9
30
0
11
155.435
21
149.9
31
0
0
LINE
8
HATCH
10
139.9
20
137.9
30
0
11
151.9
21
149.9
31
0
0
LINE
8
HATCH
10
136.364
20
137.9
30
0
11
148.364
21
149.9
31
0
0
LINE
8
HATCH
10
132.828
20
137.9
30
0
11
144.828
21
149.9
31
0
0
LINE
8
HATCH
10
129.519
20
138.126
30
0
11
141.293
21
149.9
31
0
0
LINE
8
HATCH
10
128.545
20
140.688
30
0
11
137.757
21
149.9
31
0
0
LINE
8
HATCH
10
128.545
20
144.223
30
0
11
134.222
21
149.9
31
0
0
LINE
8
HATCH
10
128.545
20
147.759
30
0
11
130.686
21
149.9
31
0
0
LINE
8
HATCH
10
156.777
20
85.9
30
0
11
160.545
21
89.668
31
0
0
LINE
8
HATCH
10
153.242
20
85.9
30
0
11
160.545
21
93.203
31
0
0
LINE
8
HATCH
10
149.706
20
85.9
30
0
11
160.526
21
96.719
31
0
0
LINE
8
HATCH
10
146.171
20
85.9
30
0
11
158.171
21
97.9
31
0
0
LINE
8
HATCH
10
142.635
20
85.9
30
0
11
154.635
21
97.9
31
0
0
LINE
8
HATCH
10
139.1
20
85.9
30
0
11
151.1
21
97.9
31
0
0
LINE
8
HATCH
10
135.564
20
85.9
30
0
11
147.564
21
97.9
31
0
0
LINE
8
HATCH
10
132.028
20
85.9
30
0
11
144.028
21
97.9
31
0
0
LINE
8
HATCH
10
129.519
20
86.926
30
0
11
140.493
21
97.9
31
0
0
LINE
8
HATCH
10
128.545
20
89.488
30
0
11
136.957
21
97.9
31
0
0
LINE
8
HATCH
10
128.545
20
93.023
30
0
11
133.422
21
97.9
31
0
0
LINE
8
HATCH
10
128.545
20
96.559
30
0
11
129.886
21
97.9
31
0
0
LINE
8
HIDDEN
10
138.545
20
137.9
30
0
11
138.545
21
149.9
31
0
0
LINE
8
HIDDEN
10
150.545
20
137.9
30
0
11
150.545
21
149.9
31
0
0
LINE
8
HIDDEN
10
138.545
20
137.9
30
0
11
150.545
21
137.9
31
0
0
LINE
8
DIM
10
128.545
20
84.9
30
0
11
128.545
21
68.9
31
0
0
LINE
8
DIM
10
160.545
20
84.9
30
0
11
160.545
21
68.9
31
0
0
LINE
8
DIM
10
128.545
20
70.9
30
0
11
160.545
21
70.9
31
0
0
SOLID
8
DIM
10
128.545
20
70.9
30
0
11
131.545
21
71.41
31
0
12
131.545
22
70.39
32
0
13
131.545
23
70.39
33
0
0
SOLID
8
DIM
10
160.545
20
70.9
30
0
11
157.545
21
70.39
31
0
12
157.545
22
71.41
32
0
13
157.545
23
71.41
33
0
0
TEXT
8
TEXT
10
144.545
20
72.7
30
0
40
3.5
1
16
50
0
72
1
11
144.545
21
72.7
31
0
0
LINE
8
DIM
10
144.545
20
85.9
30
0
11
144.545
21
159.9
31
0
0
SOLID
8
DIM
10
144.545
20
85.9
30
0
11
144.035
21
88.9
31
0
12
145.055
22
88.9
32
0
13
145.055
23
88.9
33
0
0
SOLID
8
DIM
10
144.545
20
149.9
30
0
11
145.055
21
146.9
31
0
12
144.035
22
146.9
32
0
13
144.035
23
146.9
33
0
0
TEXT
8
TEXT
10
144.545
20
161.5
30
0
40
3.5
1
%%c32
50
0
72
1
11
144.545
21
161.5
31
0
0
LINE
8
DIM
10
144.545
20
97.9
30
0
11
144.545
21
154.9
31
0
0
SOLID
8
DIM
10
144.545
20
97.9
30
0
11
144.035
21
100.9
31
0
12
145.055
22
100.9
32
0
13
145.055
23
100.9
33
0
0
SOLID
8
DIM
10
144.545
20
137.9
30
0
11
145.055
21
134.9
31
0
12
144.035
22
134.9
32
0
13
144.035
23
134.9
33
0
0
TEXT
8
TEXT
10
144.545
20
156.5
30
0
40
3.5
1
%%c20 H8
50
0
72
1
11
144.545
21
156.5
31
0
0
LINE
8
DIM
10
129.545
20
148.9
30
0
11
123.545
21
156.9
31
0
0
LINE
8
DIM
10
123.545
20
156.9
30
0
11
117.205
21
156.9
31
0
0
SOLID
8
DIM
10
129.545
20
148.9
30
0
11
131.753
21
146.806
31
0
12
130.937
22
146.194
32
0
13
130.937
23
146.194
33
0
0
TEXT
8
TEXT
10
122.545
20
158.3
30
0
40
3.5
1
C1
50
0
72
2
11
122.545
21
158.3
31
0
0
LINE
8
DIM
10
159.545
20
148.9
30
0
11
165.545
21
156.9
31
0
0
LINE
8
DIM
10
165.545
20
156.9
30
0
11
171.885
21
156.9
31
0
0
SOLID
8
DIM
10
159.545
20
148.9
30
0
11
158.153
21
146.194
31
0
12
157.337
22
146.806
32
0
13
157.337
23
146.806
33
0
0
TEXT
8
TEXT
10
166.545
20
158.3
30
0
40
3.5
1
C1
50
0
72
0
11
166.545
21
158.3
31
0
0
LINE
8
DIM
10
148.745
20
149.9
30
0
11
151.545
21
165.9
31
0
0
LINE
8
DIM
10
151.545
20
165.9
30
0
11
168.84
21
165.9
31
0
0
SOLID
8
DIM
10
148.745
20
149.9
30
0
11
148.73
21
146.857
31
0
12
147.725
22
147.033
32
0
13
147.725
23
147.033
33
0
0
TEXT
8
TEXT
10
152.545
20
167.3
30
0
40
3.5
1
%%c6 깊이 6
50
0
72
0
11
152.545
21
167.3
31
0
0
LINE
8
DIM
10
128.545
20
150.9
30
0
11
128.545
21
160.9
31
0
0
LINE
8
DIM
10
144.545
20
150.9
30
0
11
144.545
21
160.9
31
0
0
LINE
8
DIM
10
128.545
20
158.9
30
0
11
144.545
21
158.9
31
0
0
SOLID
8
DIM
10
128.545
20
158.9
30
0
11
131.545
21
159.41
31
0
12
131.545
22
158.39
32
0
13
131.545
23
158.39
33
0
0
SOLID
8
DIM
10
144.545
20
158.9
30
0
11
141.545
21
158.39
31
0
12
141.545
22
159.41
32
0
13
141.545
23
159.41
33
0
0
TEXT
8
TEXT
10
136.545
20
160.7
30
0
40
3.5
1
8
50
0
72
1
11
136.545
21
160.7
31
0
0
LINE
8
FRAME
10
10
20
10
30
0
11
287
21
10
31
0
0
LINE
8
FRAME
10
287
20
10
30
0
11
287
21
200
31
0
0
LINE
8
FRAME
10
287
20
200
30
0
11
10
21
200
31
0
0
LINE
8
FRAME
10
10
20
200
30
0
11
10
21
10
31
0
0
LINE
8
FRAME
10
177
20
10
30
0
11
287
21
10
31
0
0
LINE
8
FRAME
10
287
20
10
30
0
11
287
21
34
31
0
0
LINE
8
FRAME
10
287
20
34
30
0
11
177
21
34
31
0
0
LINE
8
FRAME
10
177
20
34
30
0
11
177
21
10
31
0
0
LINE
8
FRAME
10
177
20
18
30
0
11
287
21
18
31
0
0
LINE
8
FRAME
10
177
20
26
30
0
11
287
21
26
31
0
0
LINE
8
FRAME
10
232
20
10
30
0
11
232
21
26
31
0
0
LINE
8
FRAME
10
255
20
26
30
0
11
255
21
34
31
0
0
TEXT
8
TEXT
10
179
20
28.5
30
0
40
4.2
1
VRINGON
72
0
11
179
21
28.5
31
0
0
TEXT
8
TEXT
10
257
20
28.5
30
0
40
2.5
1
도번 VR-RB-025
72
0
11
257
21
28.5
31
0
0
TEXT
8
TEXT
10
179
20
20.5
30
0
40
2.8
1
품명 세트 스크루 칼라
72
0
11
179
21
20.5
31
0
0
TEXT
8
TEXT
10
234
20
20.5
30
0
40
2.8
1
재질 S45C
72
0
11
234
21
20.5
31
0
0
TEXT
8
TEXT
10
179
20
12.5
30
0
40
2.5
1
척도 2:1
72
0
11
179
21
12.5
31
0
0
TEXT
8
TEXT
10
234
20
12.5
30
0
40
2.5
1
3각법 · 단위 mm
72
0
11
234
21
12.5
31
0
0
CIRCLE
8
FRAME
10
269
20
16.5
30
0
40
2.4
0
CIRCLE
8
FRAME
10
269
20
16.5
30
0
40
1.2
0
LINE
8
FRAME
10
274.5
20
13.9
30
0
11
281
21
15.1
31
0
0
LINE
8
FRAME
10
281
20
15.1
30
0
11
281
21
17.9
31
0
0
LINE
8
FRAME
10
281
20
17.9
30
0
11
274.5
21
19.1
31
0
0
LINE
8
FRAME
10
274.5
20
19.1
30
0
11
274.5
21
13.9
31
0
0
TEXT
8
TEXT
10
14
20
18.2
30
0
40
2.6
1
1. 지시 없는 모따기 C0.5
72
0
11
14
21
18.2
31
0
0
TEXT
8
TEXT
10
14
20
14
30
0
40
2.6
1
2. 지시 없는 공차 KS B ISO 2768-m
72
0
11
14
21
14
31
0
0
ENDSEC
0
EOF
