0
SECTION
2
HEADER
9
$ACADVER
1
AC1009
9
$INSUNITS
70
4
0
ENDSEC
0
SECTION
2
TABLES
0
TABLE
2
LTYPE
70
3
0
LTYPE
2
CONTINUOUS
70
0
3
Solid line
72
65
73
0
40
0
0
LTYPE
2
DASHED
70
0
3
Dashed __ __ __
72
65
73
2
40
4.5
49
3
49
-1.5
0
LTYPE
2
CENTER
70
0
3
Center ____ _ ____
72
65
73
4
40
11.5
49
8
49
-1.5
49
0.5
49
-1.5
0
ENDTAB
0
TABLE
2
LAYER
70
9
0
LAYER
2
OUTLINE
70
0
62
7
6
CONTINUOUS
0
LAYER
2
HIDDEN
70
0
62
8
6
DASHED
0
LAYER
2
CENTER
70
0
62
1
6
CENTER
0
LAYER
2
THIN
70
0
62
7
6
CONTINUOUS
0
LAYER
2
DIM
70
0
62
3
6
CONTINUOUS
0
LAYER
2
HATCH
70
0
62
8
6
CONTINUOUS
0
LAYER
2
FRAME
70
0
62
7
6
CONTINUOUS
0
LAYER
2
TEXT
70
0
62
7
6
CONTINUOUS
0
LAYER
2
CUT
70
0
62
5
6
DASHED
0
ENDTAB
0
ENDSEC
0
SECTION
2
ENTITIES
0
LINE
8
OUTLINE
10
88.5
20
134.3
30
0
11
91.5
21
137.3
31
0
0
LINE
8
OUTLINE
10
91.5
20
137.3
30
0
11
118.5
21
137.3
31
0
0
LINE
8
OUTLINE
10
118.5
20
137.3
30
0
11
164.5
21
137.3
31
0
0
LINE
8
OUTLINE
10
164.5
20
137.3
30
0
11
205.5
21
137.3
31
0
0
LINE
8
OUTLINE
10
205.5
20
137.3
30
0
11
208.5
21
134.3
31
0
0
LINE
8
OUTLINE
10
88.5
20
116.3
30
0
11
91.5
21
113.3
31
0
0
LINE
8
OUTLINE
10
91.5
20
113.3
30
0
11
118.5
21
113.3
31
0
0
LINE
8
OUTLINE
10
118.5
20
113.3
30
0
11
164.5
21
113.3
31
0
0
LINE
8
OUTLINE
10
164.5
20
113.3
30
0
11
205.5
21
113.3
31
0
0
LINE
8
OUTLINE
10
205.5
20
113.3
30
0
11
208.5
21
116.3
31
0
0
LINE
8
OUTLINE
10
88.5
20
116.3
30
0
11
88.5
21
134.3
31
0
0
LINE
8
OUTLINE
10
208.5
20
116.3
30
0
11
208.5
21
134.3
31
0
0
LINE
8
OUTLINE
10
91.5
20
113.3
30
0
11
91.5
21
137.3
31
0
0
LINE
8
OUTLINE
10
91.5
20
113.3
30
0
11
91.5
21
137.3
31
0
0
LINE
8
OUTLINE
10
205.5
20
113.3
30
0
11
205.5
21
137.3
31
0
0
LINE
8
OUTLINE
10
205.5
20
113.3
30
0
11
205.5
21
137.3
31
0
0
LINE
8
CENTER
10
80.5
20
125.3
30
0
11
216.5
21
125.3
31
0
0
LINE
8
THIN
10
91.5
20
135.153
30
0
11
118.5
21
135.153
31
0
0
LINE
8
THIN
10
91.5
20
115.447
30
0
11
118.5
21
115.447
31
0
0
LINE
8
OUTLINE
10
118.5
20
113.3
30
0
11
118.5
21
137.3
31
0
0
LINE
8
THIN
10
164.5
20
135.153
30
0
11
205.5
21
135.153
31
0
0
LINE
8
THIN
10
164.5
20
115.447
30
0
11
205.5
21
115.447
31
0
0
LINE
8
DIM
10
88.5
20
112.3
30
0
11
88.5
21
96.3
31
0
0
LINE
8
DIM
10
118.5
20
112.3
30
0
11
118.5
21
96.3
31
0
0
LINE
8
DIM
10
88.5
20
98.3
30
0
11
118.5
21
98.3
31
0
0
SOLID
8
DIM
10
88.5
20
98.3
30
0
11
91.5
21
98.81
31
0
12
91.5
22
97.79
32
0
13
91.5
23
97.79
33
0
0
SOLID
8
DIM
10
118.5
20
98.3
30
0
11
115.5
21
97.79
31
0
12
115.5
22
98.81
32
0
13
115.5
23
98.81
33
0
0
TEXT
8
TEXT
10
103.5
20
100.1
30
0
40
3.5
1
15
50
0
72
1
11
103.5
21
100.1
31
0
0
LINE
8
DIM
10
164.5
20
112.3
30
0
11
164.5
21
96.3
31
0
0
LINE
8
DIM
10
208.5
20
112.3
30
0
11
208.5
21
96.3
31
0
0
LINE
8
DIM
10
164.5
20
98.3
30
0
11
208.5
21
98.3
31
0
0
SOLID
8
DIM
10
164.5
20
98.3
30
0
11
167.5
21
98.81
31
0
12
167.5
22
97.79
32
0
13
167.5
23
97.79
33
0
0
SOLID
8
DIM
10
208.5
20
98.3
30
0
11
205.5
21
97.79
31
0
12
205.5
22
98.81
32
0
13
205.5
23
98.81
33
0
0
TEXT
8
TEXT
10
186.5
20
100.1
30
0
40
3.5
1
22
50
0
72
1
11
186.5
21
100.1
31
0
0
LINE
8
DIM
10
88.5
20
112.3
30
0
11
88.5
21
87.3
31
0
0
LINE
8
DIM
10
208.5
20
112.3
30
0
11
208.5
21
87.3
31
0
0
LINE
8
DIM
10
88.5
20
89.3
30
0
11
208.5
21
89.3
31
0
0
SOLID
8
DIM
10
88.5
20
89.3
30
0
11
91.5
21
89.81
31
0
12
91.5
22
88.79
32
0
13
91.5
23
88.79
33
0
0
SOLID
8
DIM
10
208.5
20
89.3
30
0
11
205.5
21
88.79
31
0
12
205.5
22
89.81
32
0
13
205.5
23
89.81
33
0
0
TEXT
8
TEXT
10
148.5
20
91.1
30
0
40
3.5
1
60
50
0
72
1
11
148.5
21
91.1
31
0
0
LINE
8
DIM
10
103.5
20
137.3
30
0
11
109.5
21
146.3
31
0
0
LINE
8
DIM
10
109.5
20
146.3
30
0
11
117.8
21
146.3
31
0
0
SOLID
8
DIM
10
103.5
20
137.3
30
0
11
102.26
21
134.521
31
0
12
101.412
22
135.087
32
0
13
101.412
23
135.087
33
0
0
TEXT
8
TEXT
10
110.5
20
147.7
30
0
40
3.5
1
M12
50
0
72
0
11
110.5
21
147.7
31
0
0
LINE
8
DIM
10
141.5
20
113.3
30
0
11
141.5
21
147.3
31
0
0
SOLID
8
DIM
10
141.5
20
113.3
30
0
11
140.99
21
116.3
31
0
12
142.01
22
116.3
32
0
13
142.01
23
116.3
33
0
0
SOLID
8
DIM
10
141.5
20
137.3
30
0
11
142.01
21
134.3
31
0
12
140.99
22
134.3
32
0
13
140.99
23
134.3
33
0
0
TEXT
8
TEXT
10
141.5
20
148.9
30
0
40
3.5
1
%%c12
50
0
72
1
11
141.5
21
148.9
31
0
0
LINE
8
DIM
10
186.5
20
137.3
30
0
11
192.5
21
146.3
31
0
0
LINE
8
DIM
10
192.5
20
146.3
30
0
11
200.8
21
146.3
31
0
0
SOLID
8
DIM
10
186.5
20
137.3
30
0
11
185.26
21
134.521
31
0
12
184.412
22
135.087
32
0
13
184.412
23
135.087
33
0
0
TEXT
8
TEXT
10
193.5
20
147.7
30
0
40
3.5
1
M12
50
0
72
0
11
193.5
21
147.7
31
0
0
LINE
8
DIM
10
90
20
135.8
30
0
11
84
21
143.8
31
0
0
LINE
8
DIM
10
84
20
143.8
30
0
11
74.72
21
143.8
31
0
0
SOLID
8
DIM
10
90
20
135.8
30
0
11
92.208
21
133.706
31
0
12
91.392
22
133.094
32
0
13
91.392
23
133.094
33
0
0
TEXT
8
TEXT
10
83
20
145.2
30
0
40
3.5
1
C1.5
50
0
72
2
11
83
21
145.2
31
0
0
LINE
8
DIM
10
207
20
135.8
30
0
11
213
21
143.8
31
0
0
LINE
8
DIM
10
213
20
143.8
30
0
11
222.28
21
143.8
31
0
0
SOLID
8
DIM
10
207
20
135.8
30
0
11
205.608
21
133.094
31
0
12
204.792
22
133.706
32
0
13
204.792
23
133.706
33
0
0
TEXT
8
TEXT
10
214
20
145.2
30
0
40
3.5
1
C1.5
50
0
72
0
11
214
21
145.2
31
0
0
LINE
8
FRAME
10
10
20
10
30
0
11
287
21
10
31
0
0
LINE
8
FRAME
10
287
20
10
30
0
11
287
21
200
31
0
0
LINE
8
FRAME
10
287
20
200
30
0
11
10
21
200
31
0
0
LINE
8
FRAME
10
10
20
200
30
0
11
10
21
10
31
0
0
LINE
8
FRAME
10
177
20
10
30
0
11
287
21
10
31
0
0
LINE
8
FRAME
10
287
20
10
30
0
11
287
21
34
31
0
0
LINE
8
FRAME
10
287
20
34
30
0
11
177
21
34
31
0
0
LINE
8
FRAME
10
177
20
34
30
0
11
177
21
10
31
0
0
LINE
8
FRAME
10
177
20
18
30
0
11
287
21
18
31
0
0
LINE
8
FRAME
10
177
20
26
30
0
11
287
21
26
31
0
0
LINE
8
FRAME
10
232
20
10
30
0
11
232
21
26
31
0
0
LINE
8
FRAME
10
255
20
26
30
0
11
255
21
34
31
0
0
TEXT
8
TEXT
10
179
20
28.5
30
0
40
4.2
1
VRINGON
72
0
11
179
21
28.5
31
0
0
TEXT
8
TEXT
10
257
20
28.5
30
0
40
2.5
1
도번 VR-RB-017
72
0
11
257
21
28.5
31
0
0
TEXT
8
TEXT
10
179
20
20.5
30
0
40
2.8
1
품명 스터드 볼트 M12×60
72
0
11
179
21
20.5
31
0
0
TEXT
8
TEXT
10
234
20
20.5
30
0
40
2.8
1
재질 SCM435
72
0
11
234
21
20.5
31
0
0
TEXT
8
TEXT
10
179
20
12.5
30
0
40
2.5
1
척도 2:1
72
0
11
179
21
12.5
31
0
0
TEXT
8
TEXT
10
234
20
12.5
30
0
40
2.5
1
3각법 · 단위 mm
72
0
11
234
21
12.5
31
0
0
CIRCLE
8
FRAME
10
269
20
16.5
30
0
40
2.4
0
CIRCLE
8
FRAME
10
269
20
16.5
30
0
40
1.2
0
LINE
8
FRAME
10
274.5
20
13.9
30
0
11
281
21
15.1
31
0
0
LINE
8
FRAME
10
281
20
15.1
30
0
11
281
21
17.9
31
0
0
LINE
8
FRAME
10
281
20
17.9
30
0
11
274.5
21
19.1
31
0
0
LINE
8
FRAME
10
274.5
20
19.1
30
0
11
274.5
21
13.9
31
0
0
TEXT
8
TEXT
10
14
20
18.2
30
0
40
2.6
1
1. 지시 없는 모따기 C0.5
72
0
11
14
21
18.2
31
0
0
TEXT
8
TEXT
10
14
20
14
30
0
40
2.6
1
2. 지시 없는 공차 KS B ISO 2768-m
72
0
11
14
21
14
31
0
0
ENDSEC
0
EOF
