#usda 1.0
(
    defaultPrim = "stud_m12"
    metersPerUnit = 0.001
    upAxis = "Y"
    doc = "VRINGON revolve part — CadQuery executor"
)

def Xform "stud_m12" (
    kind = "component"
)
{
    custom string vringon:dsl_version = "vringon-shaft/1.0"
    custom string vringon:dsl_json = "{\"dsl\":\"vringon-shaft/1.0\",\"id\":\"stud-m12\",\"name\":\"Double-end stud M12x60\",\"name_ko\":\"스터드 볼트 M12×60\",\"part_class\":\"other\",\"units\":\"mm\",\"material\":\"SCM435\",\"drawing\":{\"number\":\"VR-RB-017\",\"scale\":\"1:1\",\"projection\":\"third\"},\"segments\":[{\"type\":\"thread\",\"length\":15,\"diameter\":12,\"spec\":\"M12\",\"pitch\":1.75,\"label\":\"식입측\"},{\"type\":\"cyl\",\"length\":23,\"diameter\":12},{\"type\":\"thread\",\"length\":22,\"diameter\":12,\"spec\":\"M12\",\"pitch\":1.75,\"label\":\"너트측\"}],\"transitions\":[{\"at\":0,\"type\":\"chamfer\",\"size\":1.5},{\"at\":3,\"type\":\"chamfer\",\"size\":1.5}],\"grooves\":[],\"bore\":null,\"features\":[],\"meta\":{\"source\":\"golden\",\"difficulty\":2}}"
    custom string vringon:name_ko = "스터드 볼트 M12×60"
    custom string vringon:material = "SCM435"
    custom double vringon:length_mm = 60.0
    custom double vringon:max_diameter_mm = 12
    custom double vringon:volume_mm3 = 6708.086
    custom double[] vringon:segment_lengths_mm = [15, 23, 22]
    custom string[] vringon:segment_types = ["thread", "cyl", "thread"]
    custom string[] vringon:threads = ["M12", "M12"]
    custom string[] vringon:features = []

    def Mesh "body"
    {
        float3[] extent = [(0.0000, -5.9925, -5.9981), (60.0000, 6.0000, 5.9981)]
        int[] faceVertexCounts = [3, 3, 3, 3, 3, 3, 3, 3, 3, 3, 3, 3, 3, 3, 3, 3, 3, 3, 3, 3, 3, 3, 3, 3, 3, 3, 3, 3, 3, 3, 3, 3, 3, 3, 3, 3, 3, 3, 3, 3, 3, 3, 3, 3, 3, 3, 3, 3, 3, 3, 3, 3, 3, 3, 3, 3, 3, 3, 3, 3, 3, 3, 3, 3, 3, 3, 3, 3, 3, 3, 3, 3, 3, 3, 3, 3, 3, 3, 3, 3, 3, 3, 3, 3, 3, 3, 3, 3, 3, 3, 3, 3, 3, 3, 3, 3, 3, 3, 3, 3, 3, 3, 3, 3, 3, 3, 3, 3, 3, 3, 3, 3, 3, 3, 3, 3, 3, 3, 3, 3, 3, 3, 3, 3, 3, 3, 3, 3, 3, 3, 3, 3, 3, 3, 3, 3, 3, 3, 3, 3, 3, 3, 3, 3, 3, 3, 3, 3, 3, 3, 3, 3, 3, 3, 3, 3, 3, 3, 3, 3, 3, 3, 3, 3, 3, 3, 3, 3, 3, 3, 3, 3, 3, 3, 3, 3, 3, 3, 3, 3, 3, 3, 3, 3, 3, 3, 3, 3, 3, 3, 3, 3, 3, 3, 3, 3, 3, 3, 3, 3, 3, 3, 3, 3, 3, 3, 3, 3, 3, 3, 3, 3, 3, 3, 3, 3, 3, 3, 3, 3, 3, 3, 3, 3, 3, 3, 3, 3, 3, 3, 3, 3, 3, 3, 3, 3, 3, 3, 3, 3, 3, 3, 3, 3, 3, 3, 3, 3, 3, 3, 3, 3, 3, 3, 3, 3, 3, 3, 3, 3, 3, 3, 3, 3, 3, 3, 3, 3, 3, 3, 3, 3, 3, 3, 3, 3, 3, 3, 3, 3, 3, 3, 3, 3, 3, 3, 3, 3, 3, 3, 3, 3, 3, 3, 3, 3, 3, 3, 3, 3, 3, 3, 3, 3, 3, 3, 3, 3, 3, 3, 3, 3, 3, 3, 3, 3, 3, 3, 3, 3, 3, 3, 3, 3, 3, 3, 3, 3, 3, 3, 3, 3, 3, 3, 3, 3, 3, 3, 3, 3, 3, 3, 3, 3, 3, 3, 3, 3, 3, 3, 3, 3, 3, 3, 3, 3, 3, 3, 3, 3, 3, 3, 3, 3, 3, 3, 3, 3, 3, 3, 3, 3, 3, 3, 3, 3, 3, 3, 3, 3, 3, 3, 3, 3, 3, 3, 3, 3, 3, 3, 3, 3, 3, 3, 3, 3, 3, 3, 3, 3, 3, 3, 3, 3, 3, 3, 3, 3, 3, 3, 3, 3, 3, 3, 3, 3, 3, 3, 3, 3, 3, 3, 3, 3, 3, 3, 3, 3, 3, 3, 3, 3, 3, 3, 3, 3, 3, 3, 3, 3, 3, 3, 3, 3, 3, 3, 3, 3, 3, 3, 3, 3, 3, 3, 3, 3, 3, 3, 3, 3, 3, 3, 3, 3, 3, 3, 3, 3, 3, 3, 3, 3, 3, 3, 3, 3, 3, 3, 3, 3, 3, 3, 3, 3, 3, 3, 3, 3, 3, 3, 3, 3, 3, 3, 3, 3, 3, 3, 3, 3, 3, 3, 3, 3, 3, 3, 3, 3, 3, 3, 3, 3, 3, 3, 3, 3, 3, 3, 3, 3, 3, 3, 3, 3, 3, 3, 3, 3, 3, 3, 3, 3, 3, 3, 3, 3, 3, 3, 3, 3, 3, 3, 3, 3, 3, 3, 3, 3, 3, 3, 3, 3, 3, 3, 3, 3, 3, 3, 3, 3, 3, 3, 3, 3, 3, 3, 3, 3, 3, 3, 3, 3, 3, 3, 3, 3, 3, 3, 3, 3, 3, 3, 3, 3, 3, 3, 3, 3, 3, 3, 3, 3, 3, 3, 3, 3, 3, 3, 3, 3, 3, 3, 3, 3, 3, 3, 3, 3, 3, 3, 3, 3, 3, 3, 3, 3, 3, 3, 3, 3, 3, 3, 3, 3, 3, 3, 3, 3]
        int[] faceVertexIndices = [129, 0, 1, 67, 66, 129, 64, 62, 63, 65, 128, 64, 130, 1, 2, 130, 2, 3, 130, 129, 1, 130, 67, 129, 130, 68, 67, 130, 69, 68, 131, 3, 4, 131, 4, 5, 131, 130, 3, 131, 69, 130, 131, 70, 69, 131, 71, 70, 132, 5, 6, 132, 6, 7, 132, 72, 71, 132, 73, 72, 132, 131, 5, 132, 71, 131, 133, 7, 8, 133, 8, 9, 133, 132, 7, 133, 73, 132, 133, 74, 73, 133, 75, 74, 134, 9, 10, 134, 10, 11, 134, 133, 9, 134, 75, 133, 134, 76, 75, 134, 77, 76, 135, 77, 134, 135, 11, 12, 135, 12, 13, 135, 78, 77, 135, 79, 78, 135, 134, 11, 136, 13, 14, 136, 14, 15, 136, 135, 13, 136, 79, 135, 136, 80, 79, 136, 81, 80, 137, 15, 16, 137, 16, 17, 137, 136, 15, 137, 81, 136, 137, 82, 81, 137, 83, 82, 138, 17, 18, 138, 18, 19, 138, 137, 17, 138, 83, 137, 138, 84, 83, 138, 85, 84, 139, 85, 138, 139, 19, 20, 139, 20, 21, 139, 86, 85, 139, 87, 86, 139, 138, 19, 140, 21, 22, 140, 22, 23, 140, 139, 21, 140, 87, 139, 140, 88, 87, 140, 89, 88, 141, 23, 24, 141, 24, 25, 141, 140, 23, 141, 90, 89, 141, 91, 90, 141, 89, 140, 142, 141, 25, 142, 91, 141, 142, 25, 26, 142, 26, 27, 142, 92, 91, 142, 93, 92, 143, 27, 28, 143, 28, 29, 143, 142, 27, 143, 93, 142, 143, 94, 93, 143, 95, 94, 144, 29, 30, 144, 30, 31, 144, 95, 143, 144, 143, 29, 144, 96, 95, 144, 97, 96, 145, 144, 31, 145, 31, 32, 145, 97, 144, 145, 98, 97, 146, 32, 33, 146, 33, 34, 146, 98, 145, 146, 145, 32, 146, 99, 98, 146, 100, 99, 147, 102, 101, 147, 100, 146, 147, 34, 35, 147, 35, 36, 147, 146, 34, 147, 101, 100, 148, 103, 102, 148, 104, 103, 148, 102, 147, 148, 36, 37, 148, 37, 38, 148, 147, 36, 149, 148, 38, 149, 105, 104, 149, 106, 105, 149, 38, 39, 149, 39, 40, 149, 104, 148, 150, 107, 106, 150, 106, 149, 150, 108, 107, 150, 40, 41, 150, 41, 42, 150, 149, 40, 151, 109, 108, 151, 110, 109, 151, 108, 150, 151, 150, 42, 151, 42, 43, 151, 43, 44, 152, 111, 110, 152, 112, 111, 152, 110, 151, 152, 44, 45, 152, 45, 46, 152, 151, 44, 153, 113, 112, 153, 114, 113, 153, 112, 152, 153, 46, 47, 153, 47, 48, 153, 152, 46, 154, 115, 114, 154, 116, 115, 154, 114, 153, 154, 48, 49, 154, 49, 50, 154, 153, 48, 155, 117, 116, 155, 118, 117, 155, 50, 51, 155, 51, 52, 155, 116, 154, 155, 154, 50, 156, 119, 118, 156, 120, 119, 156, 118, 155, 156, 52, 53, 156, 53, 54, 156, 155, 52, 157, 121, 120, 157, 122, 121, 157, 54, 55, 157, 55, 56, 157, 120, 156, 157, 156, 54, 158, 123, 122, 158, 124, 123, 158, 157, 56, 158, 56, 57, 158, 57, 58, 158, 122, 157, 159, 158, 58, 159, 125, 124, 159, 126, 125, 159, 58, 59, 159, 59, 60, 159, 124, 158, 160, 126, 159, 160, 159, 60, 160, 127, 126, 160, 128, 127, 160, 60, 61, 160, 61, 62, 160, 62, 64, 160, 64, 128, 227, 161, 162, 227, 226, 161, 228, 162, 163, 228, 227, 162, 229, 163, 164, 229, 164, 165, 229, 228, 163, 230, 229, 165, 231, 165, 166, 231, 230, 165, 232, 166, 167, 232, 167, 168, 232, 231, 166, 233, 232, 168, 234, 168, 169, 234, 233, 168, 235, 169, 170, 235, 234, 169, 236, 170, 171, 236, 235, 170, 237, 171, 172, 237, 172, 173, 237, 236, 171, 238, 237, 173, 239, 173, 174, 239, 238, 173, 240, 174, 175, 240, 175, 176, 240, 239, 174, 241, 240, 176, 242, 176, 177, 242, 177, 178, 242, 241, 176, 243, 242, 178, 244, 243, 178, 244, 178, 179, 245, 244, 179, 245, 179, 180, 246, 245, 180, 246, 180, 181, 246, 181, 182, 247, 246, 182, 248, 247, 182, 248, 182, 183, 249, 183, 184, 249, 248, 183, 250, 184, 185, 250, 249, 184, 251, 185, 186, 251, 186, 187, 251, 250, 185, 252, 187, 188, 252, 251, 187, 253, 252, 188, 254, 188, 189, 254, 189, 190, 254, 253, 188, 255, 254, 190, 256, 190, 191, 256, 191, 192, 256, 255, 190, 257, 256, 192, 258, 192, 193, 258, 193, 194, 258, 257, 192, 259, 194, 195, 259, 258, 194, 260, 259, 195, 261, 195, 196, 261, 260, 195, 262, 196, 197, 262, 197, 198, 262, 261, 196, 263, 262, 198, 264, 198, 199, 264, 199, 200, 264, 263, 198, 265, 264, 200, 266, 200, 201, 266, 265, 200, 267, 201, 202, 267, 266, 201, 268, 202, 203, 268, 267, 202, 269, 268, 203, 269, 203, 204, 270, 269, 204, 270, 204, 205, 271, 270, 205, 271, 205, 206, 272, 271, 206, 272, 206, 207, 273, 272, 207, 273, 207, 208, 274, 273, 208, 274, 208, 209, 274, 209, 210, 275, 274, 210, 276, 275, 210, 276, 210, 211, 277, 276, 211, 277, 211, 212, 278, 277, 212, 278, 212, 213, 278, 213, 214, 279, 278, 214, 280, 279, 214, 280, 214, 215, 281, 280, 215, 281, 215, 216, 282, 216, 217, 282, 281, 216, 283, 217, 218, 283, 282, 217, 284, 218, 219, 284, 283, 218, 285, 219, 220, 285, 284, 219, 286, 220, 221, 286, 285, 220, 287, 221, 222, 287, 286, 221, 288, 222, 223, 288, 223, 224, 288, 287, 222, 225, 288, 224, 418, 289, 290, 356, 355, 418, 353, 351, 352, 354, 417, 353, 419, 290, 291, 419, 291, 292, 419, 418, 290, 419, 356, 418, 419, 357, 356, 419, 358, 357, 420, 292, 293, 420, 293, 294, 420, 419, 292, 420, 358, 419, 420, 359, 358, 420, 360, 359, 421, 294, 295, 421, 295, 296, 421, 361, 360, 421, 362, 361, 421, 420, 294, 421, 360, 420, 422, 296, 297, 422, 297, 298, 422, 421, 296, 422, 362, 421, 422, 363, 362, 422, 364, 363, 423, 298, 299, 423, 299, 300, 423, 422, 298, 423, 364, 422, 423, 365, 364, 423, 366, 365, 424, 366, 423, 424, 300, 301, 424, 301, 302, 424, 367, 366, 424, 368, 367, 424, 423, 300, 425, 302, 303, 425, 303, 304, 425, 424, 302, 425, 368, 424, 425, 369, 368, 425, 370, 369, 426, 304, 305, 426, 305, 306, 426, 425, 304, 426, 370, 425, 426, 371, 370, 426, 372, 371, 427, 306, 307, 427, 307, 308, 427, 426, 306, 427, 372, 426, 427, 373, 372, 427, 374, 373, 428, 374, 427, 428, 308, 309, 428, 309, 310, 428, 375, 374, 428, 376, 375, 428, 427, 308, 429, 310, 311, 429, 311, 312, 429, 428, 310, 429, 376, 428, 429, 377, 376, 429, 378, 377, 430, 312, 313, 430, 313, 314, 430, 429, 312, 430, 379, 378, 430, 380, 379, 430, 378, 429, 431, 430, 314, 431, 380, 430, 431, 314, 315, 431, 315, 316, 431, 381, 380, 431, 382, 381, 432, 316, 317, 432, 317, 318, 432, 431, 316, 432, 382, 431, 432, 383, 382, 432, 384, 383, 433, 318, 319, 433, 319, 320, 433, 384, 432, 433, 432, 318, 433, 385, 384, 433, 386, 385, 434, 433, 320, 434, 320, 321, 434, 386, 433, 434, 387, 386, 435, 321, 322, 435, 322, 323, 435, 387, 434, 435, 434, 321, 435, 388, 387, 435, 389, 388, 436, 391, 390, 436, 389, 435, 436, 323, 324, 436, 324, 325, 436, 435, 323, 436, 390, 389, 437, 392, 391, 437, 393, 392, 437, 391, 436, 437, 325, 326, 437, 326, 327, 437, 436, 325, 438, 437, 327, 438, 394, 393, 438, 395, 394, 438, 327, 328, 438, 328, 329, 438, 393, 437, 439, 396, 395, 439, 395, 438, 439, 397, 396, 439, 329, 330, 439, 330, 331, 439, 438, 329, 440, 398, 397, 440, 399, 398, 440, 397, 439, 440, 439, 331, 440, 331, 332, 440, 332, 333, 441, 400, 399, 441, 401, 400, 441, 399, 440, 441, 333, 334, 441, 334, 335, 441, 440, 333, 442, 402, 401, 442, 403, 402, 442, 401, 441, 442, 335, 336, 442, 336, 337, 442, 441, 335, 443, 404, 403, 443, 405, 404, 443, 403, 442, 443, 337, 338, 443, 338, 339, 443, 442, 337, 444, 406, 405, 444, 407, 406, 444, 339, 340, 444, 340, 341, 444, 405, 443, 444, 443, 339, 445, 408, 407, 445, 409, 408, 445, 407, 444, 445, 341, 342, 445, 342, 343, 445, 444, 341, 446, 410, 409, 446, 411, 410, 446, 343, 344, 446, 344, 345, 446, 409, 445, 446, 445, 343, 447, 412, 411, 447, 413, 412, 447, 446, 345, 447, 345, 346, 447, 346, 347, 447, 411, 446, 448, 447, 347, 448, 414, 413, 448, 415, 414, 448, 347, 348, 448, 348, 349, 448, 413, 447, 449, 415, 448, 449, 448, 349, 449, 416, 415, 449, 417, 416, 449, 349, 350, 449, 350, 351, 449, 351, 353, 449, 353, 417, 492, 489, 490, 492, 490, 491, 486, 487, 488, 495, 492, 493, 495, 493, 494, 483, 484, 485, 483, 485, 486, 483, 488, 489, 483, 486, 488, 483, 489, 492, 496, 492, 495, 479, 480, 481, 500, 497, 498, 500, 498, 499, 478, 481, 482, 478, 479, 481, 501, 497, 500, 501, 496, 497, 477, 478, 482, 477, 482, 483, 504, 501, 502, 504, 502, 503, 473, 474, 475, 507, 496, 501, 507, 501, 504, 507, 504, 505, 507, 505, 506, 507, 492, 496, 470, 471, 472, 470, 472, 473, 470, 475, 476, 470, 476, 477, 470, 473, 475, 511, 492, 507, 511, 507, 508, 511, 508, 509, 511, 509, 510, 450, 511, 512, 465, 466, 467, 465, 467, 468, 465, 468, 469, 465, 469, 470, 451, 511, 450, 462, 463, 464, 462, 464, 465, 455, 451, 452, 455, 452, 453, 455, 453, 454, 460, 461, 462, 460, 462, 465, 456, 492, 511, 456, 511, 451, 456, 451, 455, 456, 483, 492, 458, 456, 457, 458, 459, 460, 458, 477, 483, 458, 465, 470, 458, 470, 477, 458, 483, 456, 458, 460, 465, 563, 565, 564, 574, 571, 570, 574, 572, 571, 574, 573, 572, 561, 563, 562, 561, 566, 565, 561, 567, 566, 561, 565, 563, 513, 575, 574, 515, 514, 513, 515, 513, 574, 558, 560, 559, 555, 557, 556, 554, 557, 555, 554, 558, 557, 554, 561, 560, 554, 560, 558, 521, 519, 518, 521, 520, 519, 552, 561, 554, 552, 554, 553, 552, 567, 561, 523, 522, 521, 550, 552, 551, 549, 552, 550, 525, 524, 523, 525, 523, 521, 548, 516, 515, 548, 517, 516, 548, 515, 574, 548, 552, 549, 548, 568, 567, 548, 569, 568, 548, 570, 569, 548, 574, 570, 548, 567, 552, 546, 548, 547, 528, 526, 525, 528, 527, 526, 528, 525, 521, 528, 521, 518, 544, 518, 517, 544, 517, 548, 544, 546, 545, 544, 548, 546, 530, 529, 528, 531, 530, 528, 541, 543, 542, 541, 544, 543, 533, 532, 531, 533, 531, 528, 540, 544, 541, 540, 518, 544, 535, 534, 533, 538, 540, 539, 536, 535, 533, 537, 528, 518, 537, 533, 528, 537, 518, 540, 537, 540, 538, 537, 536, 533]
        point3f[] points = [(0.0000, 4.5000, 0.0000), (0.0000, 4.4776, 0.4481), (0.0000, 4.4108, 0.8917), (0.0000, 4.3001, 1.3264), (0.0000, 4.1466, 1.7480), (0.0000, 3.9520, 2.1521), (0.0000, 3.7181, 2.5349), (0.0000, 3.4472, 2.8925), (0.0000, 3.1421, 3.2214), (0.0000, 2.8057, 3.5182), (0.0000, 2.4415, 3.7801), (0.0000, 2.0529, 4.0044), (0.0000, 1.6440, 4.1889), (0.0000, 1.2188, 4.3318), (0.0000, 0.7814, 4.4316), (0.0000, 0.3363, 4.4874), (0.0000, -0.1122, 4.4986), (0.0000, -0.5595, 4.4651), (0.0000, -1.0013, 4.3872), (0.0000, -1.4332, 4.2657), (0.0000, -1.8508, 4.1018), (0.0000, -2.2500, 3.8971), (0.0000, -2.6268, 3.6537), (0.0000, -2.9776, 3.3740), (0.0000, -3.2987, 3.0608), (0.0000, -3.5871, 2.7171), (0.0000, -3.8398, 2.3465), (0.0000, -4.0544, 1.9525), (0.0000, -4.2286, 1.5391), (0.0000, -4.3608, 1.1104), (0.0000, -4.4497, 0.6707), (0.0000, -4.4944, 0.2243), (0.0000, -4.4944, -0.2243), (0.0000, -4.4497, -0.6707), (0.0000, -4.3608, -1.1104), (0.0000, -4.2286, -1.5391), (0.0000, -4.0544, -1.9525), (0.0000, -3.8398, -2.3465), (0.0000, -3.5871, -2.7171), (0.0000, -3.2987, -3.0608), (0.0000, -2.9776, -3.3740), (0.0000, -2.6268, -3.6537), (0.0000, -2.2500, -3.8971), (0.0000, -1.8508, -4.1018), (0.0000, -1.4332, -4.2657), (0.0000, -1.0013, -4.3872), (0.0000, -0.5595, -4.4651), (0.0000, -0.1122, -4.4986), (0.0000, 0.3363, -4.4874), (0.0000, 0.7814, -4.4316), (0.0000, 1.2188, -4.3318), (0.0000, 1.6440, -4.1889), (0.0000, 2.0529, -4.0044), (0.0000, 2.4415, -3.7801), (0.0000, 2.8057, -3.5182), (0.0000, 3.1421, -3.2214), (0.0000, 3.4472, -2.8925), (0.0000, 3.7181, -2.5349), (0.0000, 3.9520, -2.1521), (0.0000, 4.1466, -1.7480), (0.0000, 4.3001, -1.3264), (0.0000, 4.4108, -0.8917), (0.0000, 4.4776, -0.4481), (0.0000, 4.5000, 0.0000), (0.7500, 5.2500, 0.0000), (1.5000, 6.0000, 0.0000), (1.5000, 6.0000, 0.0000), (1.5000, 5.9702, 0.5974), (1.5000, 5.8810, 1.1889), (1.5000, 5.7334, 1.7685), (1.5000, 5.5289, 2.3306), (1.5000, 5.2693, 2.8695), (1.5000, 4.9574, 3.3799), (1.5000, 4.5963, 3.8567), (1.5000, 4.1894, 4.2952), (1.5000, 3.7409, 4.6910), (1.5000, 3.2553, 5.0402), (1.5000, 2.7373, 5.3392), (1.5000, 2.1920, 5.5852), (1.5000, 1.6250, 5.7757), (1.5000, 1.0419, 5.9088), (1.5000, 0.4484, 5.9832), (1.5000, -0.1496, 5.9981), (1.5000, -0.7461, 5.9534), (1.5000, -1.3351, 5.8496), (1.5000, -1.9109, 5.6876), (1.5000, -2.4677, 5.4690), (1.5000, -3.0000, 5.1962), (1.5000, -3.5025, 4.8716), (1.5000, -3.9701, 4.4987), (1.5000, -4.3983, 4.0810), (1.5000, -4.7828, 3.6228), (1.5000, -5.1197, 3.1286), (1.5000, -5.4058, 2.6033), (1.5000, -5.6382, 2.0521), (1.5000, -5.8145, 1.4805), (1.5000, -5.9330, 0.8943), (1.5000, -5.9925, 0.2991), (1.5000, -5.9925, -0.2991), (1.5000, -5.9330, -0.8943), (1.5000, -5.8145, -1.4805), (1.5000, -5.6382, -2.0521), (1.5000, -5.4058, -2.6033), (1.5000, -5.1197, -3.1286), (1.5000, -4.7828, -3.6228), (1.5000, -4.3983, -4.0810), (1.5000, -3.9701, -4.4987), (1.5000, -3.5025, -4.8716), (1.5000, -3.0000, -5.1962), (1.5000, -2.4677, -5.4690), (1.5000, -1.9109, -5.6876), (1.5000, -1.3351, -5.8496), (1.5000, -0.7461, -5.9534), (1.5000, -0.1496, -5.9981), (1.5000, 0.4484, -5.9832), (1.5000, 1.0419, -5.9088), (1.5000, 1.6250, -5.7757), (1.5000, 2.1920, -5.5852), (1.5000, 2.7373, -5.3392), (1.5000, 3.2553, -5.0402), (1.5000, 3.7409, -4.6910), (1.5000, 4.1894, -4.2952), (1.5000, 4.5963, -3.8567), (1.5000, 4.9574, -3.3799), (1.5000, 5.2693, -2.8695), (1.5000, 5.5289, -2.3306), (1.5000, 5.7334, -1.7685), (1.5000, 5.8810, -1.1889), (1.5000, 5.9702, -0.5974), (0.7500, 5.2500, 0.0000), (0.7500, 5.1491, 1.0242), (0.7500, 4.8504, 2.0091), (0.7500, 4.3652, 2.9167), (0.7500, 3.7123, 3.7123), (0.7500, 2.9167, 4.3652), (0.7500, 2.0091, 4.8504), (0.7500, 1.0242, 5.1491), (0.7500, 0.0000, 5.2500), (0.7500, -1.0242, 5.1491), (0.7500, -2.0091, 4.8504), (0.7500, -2.9167, 4.3652), (0.7500, -3.7123, 3.7123), (0.7500, -4.3652, 2.9167), (0.7500, -4.8504, 2.0091), (0.7500, -5.1491, 1.0242), (0.7500, -5.2500, -0.0000), (0.7500, -5.1491, -1.0242), (0.7500, -4.8504, -2.0091), (0.7500, -4.3652, -2.9167), (0.7500, -3.7123, -3.7123), (0.7500, -2.9167, -4.3652), (0.7500, -2.0091, -4.8504), (0.7500, -1.0242, -5.1491), (0.7500, 0.0000, -5.2500), (0.7500, 1.0242, -5.1491), (0.7500, 2.0091, -4.8504), (0.7500, 2.9167, -4.3652), (0.7500, 3.7123, -3.7123), (0.7500, 4.3652, -2.9167), (0.7500, 4.8504, -2.0091), (0.7500, 5.1491, -1.0242), (1.5000, 6.0000, 0.0000), (1.5000, 5.9702, 0.5974), (1.5000, 5.8810, 1.1889), (1.5000, 5.7334, 1.7685), (1.5000, 5.5289, 2.3306), (1.5000, 5.2693, 2.8695), (1.5000, 4.9574, 3.3799), (1.5000, 4.5963, 3.8567), (1.5000, 4.1894, 4.2952), (1.5000, 3.7409, 4.6910), (1.5000, 3.2553, 5.0402), (1.5000, 2.7373, 5.3392), (1.5000, 2.1920, 5.5852), (1.5000, 1.6250, 5.7757), (1.5000, 1.0419, 5.9088), (1.5000, 0.4484, 5.9832), (1.5000, -0.1496, 5.9981), (1.5000, -0.7461, 5.9534), (1.5000, -1.3351, 5.8496), (1.5000, -1.9109, 5.6876), (1.5000, -2.4677, 5.4690), (1.5000, -3.0000, 5.1962), (1.5000, -3.5025, 4.8716), (1.5000, -3.9701, 4.4987), (1.5000, -4.3983, 4.0810), (1.5000, -4.7828, 3.6228), (1.5000, -5.1197, 3.1286), (1.5000, -5.4058, 2.6033), (1.5000, -5.6382, 2.0521), (1.5000, -5.8145, 1.4805), (1.5000, -5.9330, 0.8943), (1.5000, -5.9925, 0.2991), (1.5000, -5.9925, -0.2991), (1.5000, -5.9330, -0.8943), (1.5000, -5.8145, -1.4805), (1.5000, -5.6382, -2.0521), (1.5000, -5.4058, -2.6033), (1.5000, -5.1197, -3.1286), (1.5000, -4.7828, -3.6228), (1.5000, -4.3983, -4.0810), (1.5000, -3.9701, -4.4987), (1.5000, -3.5025, -4.8716), (1.5000, -3.0000, -5.1962), (1.5000, -2.4677, -5.4690), (1.5000, -1.9109, -5.6876), (1.5000, -1.3351, -5.8496), (1.5000, -0.7461, -5.9534), (1.5000, -0.1496, -5.9981), (1.5000, 0.4484, -5.9832), (1.5000, 1.0419, -5.9088), (1.5000, 1.6250, -5.7757), (1.5000, 2.1920, -5.5852), (1.5000, 2.7373, -5.3392), (1.5000, 3.2553, -5.0402), (1.5000, 3.7409, -4.6910), (1.5000, 4.1894, -4.2952), (1.5000, 4.5963, -3.8567), (1.5000, 4.9574, -3.3799), (1.5000, 5.2693, -2.8695), (1.5000, 5.5289, -2.3306), (1.5000, 5.7334, -1.7685), (1.5000, 5.8810, -1.1889), (1.5000, 5.9702, -0.5974), (1.5000, 6.0000, 0.0000), (58.5000, 6.0000, 0.0000), (58.5000, 6.0000, 0.0000), (58.5000, 5.9702, 0.5974), (58.5000, 5.8810, 1.1889), (58.5000, 5.7334, 1.7685), (58.5000, 5.5289, 2.3306), (58.5000, 5.2693, 2.8695), (58.5000, 4.9574, 3.3799), (58.5000, 4.5963, 3.8567), (58.5000, 4.1894, 4.2952), (58.5000, 3.7409, 4.6910), (58.5000, 3.2553, 5.0402), (58.5000, 2.7373, 5.3392), (58.5000, 2.1920, 5.5852), (58.5000, 1.6250, 5.7757), (58.5000, 1.0419, 5.9088), (58.5000, 0.4484, 5.9832), (58.5000, -0.1496, 5.9981), (58.5000, -0.7461, 5.9534), (58.5000, -1.3351, 5.8496), (58.5000, -1.9109, 5.6876), (58.5000, -2.4677, 5.4690), (58.5000, -3.0000, 5.1962), (58.5000, -3.5025, 4.8716), (58.5000, -3.9701, 4.4987), (58.5000, -4.3983, 4.0810), (58.5000, -4.7828, 3.6228), (58.5000, -5.1197, 3.1286), (58.5000, -5.4058, 2.6033), (58.5000, -5.6382, 2.0521), (58.5000, -5.8145, 1.4805), (58.5000, -5.9330, 0.8943), (58.5000, -5.9925, 0.2991), (58.5000, -5.9925, -0.2991), (58.5000, -5.9330, -0.8943), (58.5000, -5.8145, -1.4805), (58.5000, -5.6382, -2.0521), (58.5000, -5.4058, -2.6033), (58.5000, -5.1197, -3.1286), (58.5000, -4.7828, -3.6228), (58.5000, -4.3983, -4.0810), (58.5000, -3.9701, -4.4987), (58.5000, -3.5025, -4.8716), (58.5000, -3.0000, -5.1962), (58.5000, -2.4677, -5.4690), (58.5000, -1.9109, -5.6876), (58.5000, -1.3351, -5.8496), (58.5000, -0.7461, -5.9534), (58.5000, -0.1496, -5.9981), (58.5000, 0.4484, -5.9832), (58.5000, 1.0419, -5.9088), (58.5000, 1.6250, -5.7757), (58.5000, 2.1920, -5.5852), (58.5000, 2.7373, -5.3392), (58.5000, 3.2553, -5.0402), (58.5000, 3.7409, -4.6910), (58.5000, 4.1894, -4.2952), (58.5000, 4.5963, -3.8567), (58.5000, 4.9574, -3.3799), (58.5000, 5.2693, -2.8695), (58.5000, 5.5289, -2.3306), (58.5000, 5.7334, -1.7685), (58.5000, 5.8810, -1.1889), (58.5000, 5.9702, -0.5974), (58.5000, 6.0000, 0.0000), (58.5000, 5.9702, 0.5974), (58.5000, 5.8810, 1.1889), (58.5000, 5.7334, 1.7685), (58.5000, 5.5289, 2.3306), (58.5000, 5.2693, 2.8695), (58.5000, 4.9574, 3.3799), (58.5000, 4.5963, 3.8567), (58.5000, 4.1894, 4.2952), (58.5000, 3.7409, 4.6910), (58.5000, 3.2553, 5.0402), (58.5000, 2.7373, 5.3392), (58.5000, 2.1920, 5.5852), (58.5000, 1.6250, 5.7757), (58.5000, 1.0419, 5.9088), (58.5000, 0.4484, 5.9832), (58.5000, -0.1496, 5.9981), (58.5000, -0.7461, 5.9534), (58.5000, -1.3351, 5.8496), (58.5000, -1.9109, 5.6876), (58.5000, -2.4677, 5.4690), (58.5000, -3.0000, 5.1962), (58.5000, -3.5025, 4.8716), (58.5000, -3.9701, 4.4987), (58.5000, -4.3983, 4.0810), (58.5000, -4.7828, 3.6228), (58.5000, -5.1197, 3.1286), (58.5000, -5.4058, 2.6033), (58.5000, -5.6382, 2.0521), (58.5000, -5.8145, 1.4805), (58.5000, -5.9330, 0.8943), (58.5000, -5.9925, 0.2991), (58.5000, -5.9925, -0.2991), (58.5000, -5.9330, -0.8943), (58.5000, -5.8145, -1.4805), (58.5000, -5.6382, -2.0521), (58.5000, -5.4058, -2.6033), (58.5000, -5.1197, -3.1286), (58.5000, -4.7828, -3.6228), (58.5000, -4.3983, -4.0810), (58.5000, -3.9701, -4.4987), (58.5000, -3.5025, -4.8716), (58.5000, -3.0000, -5.1962), (58.5000, -2.4677, -5.4690), (58.5000, -1.9109, -5.6876), (58.5000, -1.3351, -5.8496), (58.5000, -0.7461, -5.9534), (58.5000, -0.1496, -5.9981), (58.5000, 0.4484, -5.9832), (58.5000, 1.0419, -5.9088), (58.5000, 1.6250, -5.7757), (58.5000, 2.1920, -5.5852), (58.5000, 2.7373, -5.3392), (58.5000, 3.2553, -5.0402), (58.5000, 3.7409, -4.6910), (58.5000, 4.1894, -4.2952), (58.5000, 4.5963, -3.8567), (58.5000, 4.9574, -3.3799), (58.5000, 5.2693, -2.8695), (58.5000, 5.5289, -2.3306), (58.5000, 5.7334, -1.7685), (58.5000, 5.8810, -1.1889), (58.5000, 5.9702, -0.5974), (58.5000, 6.0000, 0.0000), (59.2500, 5.2500, 0.0000), (60.0000, 4.5000, 0.0000), (60.0000, 4.5000, 0.0000), (60.0000, 4.4776, 0.4481), (60.0000, 4.4108, 0.8917), (60.0000, 4.3001, 1.3264), (60.0000, 4.1466, 1.7480), (60.0000, 3.9520, 2.1521), (60.0000, 3.7181, 2.5349), (60.0000, 3.4472, 2.8925), (60.0000, 3.1421, 3.2214), (60.0000, 2.8057, 3.5182), (60.0000, 2.4415, 3.7801), (60.0000, 2.0529, 4.0044), (60.0000, 1.6440, 4.1889), (60.0000, 1.2188, 4.3318), (60.0000, 0.7814, 4.4316), (60.0000, 0.3363, 4.4874), (60.0000, -0.1122, 4.4986), (60.0000, -0.5595, 4.4651), (60.0000, -1.0013, 4.3872), (60.0000, -1.4332, 4.2657), (60.0000, -1.8508, 4.1018), (60.0000, -2.2500, 3.8971), (60.0000, -2.6268, 3.6537), (60.0000, -2.9776, 3.3740), (60.0000, -3.2987, 3.0608), (60.0000, -3.5871, 2.7171), (60.0000, -3.8398, 2.3465), (60.0000, -4.0544, 1.9525), (60.0000, -4.2286, 1.5391), (60.0000, -4.3608, 1.1104), (60.0000, -4.4497, 0.6707), (60.0000, -4.4944, 0.2243), (60.0000, -4.4944, -0.2243), (60.0000, -4.4497, -0.6707), (60.0000, -4.3608, -1.1104), (60.0000, -4.2286, -1.5391), (60.0000, -4.0544, -1.9525), (60.0000, -3.8398, -2.3465), (60.0000, -3.5871, -2.7171), (60.0000, -3.2987, -3.0608), (60.0000, -2.9776, -3.3740), (60.0000, -2.6268, -3.6537), (60.0000, -2.2500, -3.8971), (60.0000, -1.8508, -4.1018), (60.0000, -1.4332, -4.2657), (60.0000, -1.0013, -4.3872), (60.0000, -0.5595, -4.4651), (60.0000, -0.1122, -4.4986), (60.0000, 0.3363, -4.4874), (60.0000, 0.7814, -4.4316), (60.0000, 1.2188, -4.3318), (60.0000, 1.6440, -4.1889), (60.0000, 2.0529, -4.0044), (60.0000, 2.4415, -3.7801), (60.0000, 2.8057, -3.5182), (60.0000, 3.1421, -3.2214), (60.0000, 3.4472, -2.8925), (60.0000, 3.7181, -2.5349), (60.0000, 3.9520, -2.1521), (60.0000, 4.1466, -1.7480), (60.0000, 4.3001, -1.3264), (60.0000, 4.4108, -0.8917), (60.0000, 4.4776, -0.4481), (59.2500, 5.2500, 0.0000), (59.2500, 5.1491, 1.0242), (59.2500, 4.8504, 2.0091), (59.2500, 4.3652, 2.9167), (59.2500, 3.7123, 3.7123), (59.2500, 2.9167, 4.3652), (59.2500, 2.0091, 4.8504), (59.2500, 1.0242, 5.1491), (59.2500, 0.0000, 5.2500), (59.2500, -1.0242, 5.1491), (59.2500, -2.0091, 4.8504), (59.2500, -2.9167, 4.3652), (59.2500, -3.7123, 3.7123), (59.2500, -4.3652, 2.9167), (59.2500, -4.8504, 2.0091), (59.2500, -5.1491, 1.0242), (59.2500, -5.2500, -0.0000), (59.2500, -5.1491, -1.0242), (59.2500, -4.8504, -2.0091), (59.2500, -4.3652, -2.9167), (59.2500, -3.7123, -3.7123), (59.2500, -2.9167, -4.3652), (59.2500, -2.0091, -4.8504), (59.2500, -1.0242, -5.1491), (59.2500, 0.0000, -5.2500), (59.2500, 1.0242, -5.1491), (59.2500, 2.0091, -4.8504), (59.2500, 2.9167, -4.3652), (59.2500, 3.7123, -3.7123), (59.2500, 4.3652, -2.9167), (59.2500, 4.8504, -2.0091), (59.2500, 5.1491, -1.0242), (60.0000, 4.5000, 0.0000), (60.0000, 4.4776, 0.4481), (60.0000, 4.4108, 0.8917), (60.0000, 4.3001, 1.3264), (60.0000, 4.1466, 1.7480), (60.0000, 3.9520, 2.1521), (60.0000, 3.7181, 2.5349), (60.0000, 3.4472, 2.8925), (60.0000, 3.1421, 3.2214), (60.0000, 2.8057, 3.5182), (60.0000, 2.4415, 3.7801), (60.0000, 2.0529, 4.0044), (60.0000, 1.6440, 4.1889), (60.0000, 1.2188, 4.3318), (60.0000, 0.7814, 4.4316), (60.0000, 0.3363, 4.4874), (60.0000, -0.1122, 4.4986), (60.0000, -0.5595, 4.4651), (60.0000, -1.0013, 4.3872), (60.0000, -1.4332, 4.2657), (60.0000, -1.8508, 4.1018), (60.0000, -2.2500, 3.8971), (60.0000, -2.6268, 3.6537), (60.0000, -2.9776, 3.3740), (60.0000, -3.2987, 3.0608), (60.0000, -3.5871, 2.7171), (60.0000, -3.8398, 2.3465), (60.0000, -4.0544, 1.9525), (60.0000, -4.2286, 1.5391), (60.0000, -4.3608, 1.1104), (60.0000, -4.4497, 0.6707), (60.0000, -4.4944, 0.2243), (60.0000, -4.4944, -0.2243), (60.0000, -4.4497, -0.6707), (60.0000, -4.3608, -1.1104), (60.0000, -4.2286, -1.5391), (60.0000, -4.0544, -1.9525), (60.0000, -3.8398, -2.3465), (60.0000, -3.5871, -2.7171), (60.0000, -3.2987, -3.0608), (60.0000, -2.9776, -3.3740), (60.0000, -2.6268, -3.6537), (60.0000, -2.2500, -3.8971), (60.0000, -1.8508, -4.1018), (60.0000, -1.4332, -4.2657), (60.0000, -1.0013, -4.3872), (60.0000, -0.5595, -4.4651), (60.0000, -0.1122, -4.4986), (60.0000, 0.3363, -4.4874), (60.0000, 0.7814, -4.4316), (60.0000, 1.2188, -4.3318), (60.0000, 1.6440, -4.1889), (60.0000, 2.0529, -4.0044), (60.0000, 2.4415, -3.7801), (60.0000, 2.8057, -3.5182), (60.0000, 3.1421, -3.2214), (60.0000, 3.4472, -2.8925), (60.0000, 3.7181, -2.5349), (60.0000, 3.9520, -2.1521), (60.0000, 4.1466, -1.7480), (60.0000, 4.3001, -1.3264), (60.0000, 4.4108, -0.8917), (60.0000, 4.4776, -0.4481), (0.0000, 4.5000, 0.0000), (0.0000, 4.4776, 0.4481), (0.0000, 4.4108, 0.8917), (0.0000, 4.3001, 1.3264), (0.0000, 4.1466, 1.7480), (0.0000, 3.9520, 2.1521), (0.0000, 3.7181, 2.5349), (0.0000, 3.4472, 2.8925), (0.0000, 3.1421, 3.2214), (0.0000, 2.8057, 3.5182), (0.0000, 2.4415, 3.7801), (0.0000, 2.0529, 4.0044), (0.0000, 1.6440, 4.1889), (0.0000, 1.2188, 4.3318), (0.0000, 0.7814, 4.4316), (0.0000, 0.3363, 4.4874), (0.0000, -0.1122, 4.4986), (0.0000, -0.5595, 4.4651), (0.0000, -1.0013, 4.3872), (0.0000, -1.4332, 4.2657), (0.0000, -1.8508, 4.1018), (0.0000, -2.2500, 3.8971), (0.0000, -2.6268, 3.6537), (0.0000, -2.9776, 3.3740), (0.0000, -3.2987, 3.0608), (0.0000, -3.5871, 2.7171), (0.0000, -3.8398, 2.3465), (0.0000, -4.0544, 1.9525), (0.0000, -4.2286, 1.5391), (0.0000, -4.3608, 1.1104), (0.0000, -4.4497, 0.6707), (0.0000, -4.4944, 0.2243), (0.0000, -4.4944, -0.2243), (0.0000, -4.4497, -0.6707), (0.0000, -4.3608, -1.1104), (0.0000, -4.2286, -1.5391), (0.0000, -4.0544, -1.9525), (0.0000, -3.8398, -2.3465), (0.0000, -3.5871, -2.7171), (0.0000, -3.2987, -3.0608), (0.0000, -2.9776, -3.3740), (0.0000, -2.6268, -3.6537), (0.0000, -2.2500, -3.8971), (0.0000, -1.8508, -4.1018), (0.0000, -1.4332, -4.2657), (0.0000, -1.0013, -4.3872), (0.0000, -0.5595, -4.4651), (0.0000, -0.1122, -4.4986), (0.0000, 0.3363, -4.4874), (0.0000, 0.7814, -4.4316), (0.0000, 1.2188, -4.3318), (0.0000, 1.6440, -4.1889), (0.0000, 2.0529, -4.0044), (0.0000, 2.4415, -3.7801), (0.0000, 2.8057, -3.5182), (0.0000, 3.1421, -3.2214), (0.0000, 3.4472, -2.8925), (0.0000, 3.7181, -2.5349), (0.0000, 3.9520, -2.1521), (0.0000, 4.1466, -1.7480), (0.0000, 4.3001, -1.3264), (0.0000, 4.4108, -0.8917), (0.0000, 4.4776, -0.4481)]
        uniform token subdivisionScheme = "none"
        color3f[] primvars:displayColor = [(0.72, 0.74, 0.77)]
    }
}
