0
SECTION
2
HEADER
9
$ACADVER
1
AC1009
9
$INSUNITS
70
4
0
ENDSEC
0
SECTION
2
TABLES
0
TABLE
2
LTYPE
70
3
0
LTYPE
2
CONTINUOUS
70
0
3
Solid line
72
65
73
0
40
0
0
LTYPE
2
DASHED
70
0
3
Dashed __ __ __
72
65
73
2
40
4.5
49
3
49
-1.5
0
LTYPE
2
CENTER
70
0
3
Center ____ _ ____
72
65
73
4
40
11.5
49
8
49
-1.5
49
0.5
49
-1.5
0
ENDTAB
0
TABLE
2
LAYER
70
9
0
LAYER
2
OUTLINE
70
0
62
7
6
CONTINUOUS
0
LAYER
2
HIDDEN
70
0
62
8
6
DASHED
0
LAYER
2
CENTER
70
0
62
1
6
CENTER
0
LAYER
2
THIN
70
0
62
7
6
CONTINUOUS
0
LAYER
2
DIM
70
0
62
3
6
CONTINUOUS
0
LAYER
2
HATCH
70
0
62
8
6
CONTINUOUS
0
LAYER
2
FRAME
70
0
62
7
6
CONTINUOUS
0
LAYER
2
TEXT
70
0
62
7
6
CONTINUOUS
0
LAYER
2
CUT
70
0
62
5
6
DASHED
0
ENDTAB
0
ENDSEC
0
SECTION
2
ENTITIES
0
LINE
8
OUTLINE
10
133.5
20
144.325
30
0
11
134
21
144.825
31
0
0
LINE
8
OUTLINE
10
134
20
144.825
30
0
11
138
21
144.825
31
0
0
LINE
8
OUTLINE
10
138
20
144.825
30
0
11
138.5
21
144.325
31
0
0
LINE
8
OUTLINE
10
138.5
20
144.325
30
0
11
138.5
21
139.825
31
0
0
LINE
8
OUTLINE
10
138.5
20
139.825
30
0
11
163
21
139.825
31
0
0
LINE
8
OUTLINE
10
163
20
139.825
30
0
11
163.5
21
139.325
31
0
0
LINE
8
OUTLINE
10
133.5
20
105.325
30
0
11
134
21
104.825
31
0
0
LINE
8
OUTLINE
10
134
20
104.825
30
0
11
138
21
104.825
31
0
0
LINE
8
OUTLINE
10
138
20
104.825
30
0
11
138.5
21
105.325
31
0
0
LINE
8
OUTLINE
10
138.5
20
105.325
30
0
11
138.5
21
109.825
31
0
0
LINE
8
OUTLINE
10
138.5
20
109.825
30
0
11
163
21
109.825
31
0
0
LINE
8
OUTLINE
10
163
20
109.825
30
0
11
163.5
21
110.325
31
0
0
LINE
8
OUTLINE
10
133.5
20
136.325
30
0
11
133.5
21
144.325
31
0
0
LINE
8
OUTLINE
10
133.5
20
113.325
30
0
11
133.5
21
105.325
31
0
0
LINE
8
OUTLINE
10
163.5
20
136.325
30
0
11
163.5
21
139.325
31
0
0
LINE
8
OUTLINE
10
163.5
20
113.325
30
0
11
163.5
21
110.325
31
0
0
LINE
8
OUTLINE
10
134
20
135.825
30
0
11
134
21
144.825
31
0
0
LINE
8
OUTLINE
10
134
20
113.825
30
0
11
134
21
104.825
31
0
0
LINE
8
OUTLINE
10
138
20
135.825
30
0
11
138
21
144.825
31
0
0
LINE
8
OUTLINE
10
138
20
113.825
30
0
11
138
21
104.825
31
0
0
LINE
8
OUTLINE
10
138
20
135.825
30
0
11
138
21
144.825
31
0
0
LINE
8
OUTLINE
10
138
20
113.825
30
0
11
138
21
104.825
31
0
0
LINE
8
OUTLINE
10
138.5
20
135.825
30
0
11
138.5
21
139.825
31
0
0
LINE
8
OUTLINE
10
138.5
20
113.825
30
0
11
138.5
21
109.825
31
0
0
LINE
8
OUTLINE
10
163
20
135.825
30
0
11
163
21
139.825
31
0
0
LINE
8
OUTLINE
10
163
20
113.825
30
0
11
163
21
109.825
31
0
0
LINE
8
OUTLINE
10
163
20
135.825
30
0
11
163
21
139.825
31
0
0
LINE
8
OUTLINE
10
163
20
113.825
30
0
11
163
21
109.825
31
0
0
LINE
8
CENTER
10
129.5
20
124.825
30
0
11
167.5
21
124.825
31
0
0
LINE
8
OUTLINE
10
133.5
20
136.325
30
0
11
134
21
135.825
31
0
0
LINE
8
OUTLINE
10
134
20
135.825
30
0
11
163
21
135.825
31
0
0
LINE
8
OUTLINE
10
163
20
135.825
30
0
11
163.5
21
136.325
31
0
0
LINE
8
OUTLINE
10
133.5
20
113.325
30
0
11
134
21
113.825
31
0
0
LINE
8
OUTLINE
10
134
20
113.825
30
0
11
163
21
113.825
31
0
0
LINE
8
OUTLINE
10
163
20
113.825
30
0
11
163.5
21
113.325
31
0
0
LINE
8
HATCH
10
161.232
20
135.825
30
0
11
163.5
21
138.093
31
0
0
LINE
8
HATCH
10
157.697
20
135.825
30
0
11
161.697
21
139.825
31
0
0
LINE
8
HATCH
10
154.161
20
135.825
30
0
11
158.161
21
139.825
31
0
0
LINE
8
HATCH
10
150.626
20
135.825
30
0
11
154.626
21
139.825
31
0
0
LINE
8
HATCH
10
147.09
20
135.825
30
0
11
151.09
21
139.825
31
0
0
LINE
8
HATCH
10
143.555
20
135.825
30
0
11
147.555
21
139.825
31
0
0
LINE
8
HATCH
10
140.019
20
135.825
30
0
11
144.019
21
139.825
31
0
0
LINE
8
HATCH
10
136.483
20
135.825
30
0
11
140.483
21
139.825
31
0
0
LINE
8
HATCH
10
133.5
20
136.377
30
0
11
138.5
21
141.377
31
0
0
LINE
8
HATCH
10
133.5
20
139.913
30
0
11
138.206
21
144.619
31
0
0
LINE
8
HATCH
10
133.5
20
143.448
30
0
11
134.877
21
144.825
31
0
0
LINE
8
HATCH
10
161.232
20
109.825
30
0
11
163.5
21
112.093
31
0
0
LINE
8
HATCH
10
157.697
20
109.825
30
0
11
161.697
21
113.825
31
0
0
LINE
8
HATCH
10
154.161
20
109.825
30
0
11
158.161
21
113.825
31
0
0
LINE
8
HATCH
10
150.626
20
109.825
30
0
11
154.626
21
113.825
31
0
0
LINE
8
HATCH
10
147.09
20
109.825
30
0
11
151.09
21
113.825
31
0
0
LINE
8
HATCH
10
143.555
20
109.825
30
0
11
147.555
21
113.825
31
0
0
LINE
8
HATCH
10
135.019
20
104.825
30
0
11
138.5
21
108.306
31
0
0
LINE
8
HATCH
10
140.019
20
109.825
30
0
11
144.019
21
113.825
31
0
0
LINE
8
HATCH
10
133.5
20
106.842
30
0
11
140.483
21
113.825
31
0
0
LINE
8
HATCH
10
133.5
20
110.377
30
0
11
136.948
21
113.825
31
0
0
LINE
8
DIM
10
133.5
20
103.825
30
0
11
133.5
21
87.825
31
0
0
LINE
8
DIM
10
138.5
20
103.825
30
0
11
138.5
21
87.825
31
0
0
LINE
8
DIM
10
126.9
20
89.825
30
0
11
145.1
21
89.825
31
0
0
SOLID
8
DIM
10
133.5
20
89.825
30
0
11
130.5
21
89.315
31
0
12
130.5
22
90.335
32
0
13
130.5
23
90.335
33
0
0
SOLID
8
DIM
10
138.5
20
89.825
30
0
11
141.5
21
90.335
31
0
12
141.5
22
89.315
32
0
13
141.5
23
89.315
33
0
0
TEXT
8
TEXT
10
146.68
20
90.725
30
0
40
3.5
1
5
50
0
72
1
11
146.68
21
90.725
31
0
0
LINE
8
DIM
10
133.5
20
103.825
30
0
11
133.5
21
78.825
31
0
0
LINE
8
DIM
10
163.5
20
103.825
30
0
11
163.5
21
78.825
31
0
0
LINE
8
DIM
10
133.5
20
80.825
30
0
11
163.5
21
80.825
31
0
0
SOLID
8
DIM
10
133.5
20
80.825
30
0
11
136.5
21
81.335
31
0
12
136.5
22
80.315
32
0
13
136.5
23
80.315
33
0
0
SOLID
8
DIM
10
163.5
20
80.825
30
0
11
160.5
21
80.315
31
0
12
160.5
22
81.335
32
0
13
160.5
23
81.335
33
0
0
TEXT
8
TEXT
10
148.5
20
81.725
30
0
40
3.5
1
30
50
0
72
1
11
148.5
21
81.725
31
0
0
LINE
8
DIM
10
136
20
104.825
30
0
11
136
21
149.825
31
0
0
SOLID
8
DIM
10
136
20
104.825
30
0
11
135.49
21
107.825
31
0
12
136.51
22
107.825
32
0
13
136.51
23
107.825
33
0
0
SOLID
8
DIM
10
136
20
144.825
30
0
11
136.51
21
141.825
31
0
12
135.49
22
141.825
32
0
13
135.49
23
141.825
33
0
0
TEXT
8
TEXT
10
136
20
150.625
30
0
40
3.5
1
%%c40
50
0
72
1
11
136
21
150.625
31
0
0
LINE
8
DIM
10
151
20
109.825
30
0
11
151
21
144.825
31
0
0
SOLID
8
DIM
10
151
20
109.825
30
0
11
150.49
21
112.825
31
0
12
151.51
22
112.825
32
0
13
151.51
23
112.825
33
0
0
SOLID
8
DIM
10
151
20
139.825
30
0
11
151.51
21
136.825
31
0
12
150.49
22
136.825
32
0
13
150.49
23
136.825
33
0
0
TEXT
8
TEXT
10
151
20
145.625
30
0
40
3.5
1
%%c30 n6
50
0
72
1
11
151
21
145.625
31
0
0
LINE
8
DIM
10
148.5
20
113.825
30
0
11
148.5
21
149.825
31
0
0
SOLID
8
DIM
10
148.5
20
113.825
30
0
11
147.99
21
116.825
31
0
12
149.01
22
116.825
32
0
13
149.01
23
116.825
33
0
0
SOLID
8
DIM
10
148.5
20
135.825
30
0
11
149.01
21
132.825
31
0
12
147.99
22
132.825
32
0
13
147.99
23
132.825
33
0
0
TEXT
8
TEXT
10
148.5
20
150.625
30
0
40
3.5
1
%%c22 H7
50
0
72
1
11
148.5
21
150.625
31
0
0
LINE
8
DIM
10
133.75
20
144.575
30
0
11
127.75
21
152.575
31
0
0
LINE
8
DIM
10
127.75
20
152.575
30
0
11
119.47
21
152.575
31
0
0
SOLID
8
DIM
10
133.75
20
144.575
30
0
11
135.958
21
142.481
31
0
12
135.142
22
141.869
32
0
13
135.142
23
141.869
33
0
0
TEXT
8
TEXT
10
127.25
20
153.275
30
0
40
3.5
1
C0.5
50
0
72
2
11
127.25
21
153.275
31
0
0
LINE
8
DIM
10
138.75
20
144.575
30
0
11
132.75
21
157.575
31
0
0
LINE
8
DIM
10
132.75
20
157.575
30
0
11
124.47
21
157.575
31
0
0
SOLID
8
DIM
10
138.75
20
144.575
30
0
11
140.47
21
142.065
31
0
12
139.544
22
141.637
32
0
13
139.544
23
141.637
33
0
0
TEXT
8
TEXT
10
132.25
20
158.275
30
0
40
3.5
1
C0.5
50
0
72
2
11
132.25
21
158.275
31
0
0
LINE
8
DIM
10
163.25
20
139.575
30
0
11
169.25
21
147.575
31
0
0
LINE
8
DIM
10
169.25
20
147.575
30
0
11
177.53
21
147.575
31
0
0
SOLID
8
DIM
10
163.25
20
139.575
30
0
11
161.858
21
136.869
31
0
12
161.042
22
137.481
32
0
13
161.042
23
137.481
33
0
0
TEXT
8
TEXT
10
169.75
20
148.275
30
0
40
3.5
1
C0.5
50
0
72
0
11
169.75
21
148.275
31
0
0
LINE
8
FRAME
10
10
20
10
30
0
11
287
21
10
31
0
0
LINE
8
FRAME
10
287
20
10
30
0
11
287
21
200
31
0
0
LINE
8
FRAME
10
287
20
200
30
0
11
10
21
200
31
0
0
LINE
8
FRAME
10
10
20
200
30
0
11
10
21
10
31
0
0
LINE
8
FRAME
10
177
20
10
30
0
11
287
21
10
31
0
0
LINE
8
FRAME
10
287
20
10
30
0
11
287
21
34
31
0
0
LINE
8
FRAME
10
287
20
34
30
0
11
177
21
34
31
0
0
LINE
8
FRAME
10
177
20
34
30
0
11
177
21
10
31
0
0
LINE
8
FRAME
10
177
20
18
30
0
11
287
21
18
31
0
0
LINE
8
FRAME
10
177
20
26
30
0
11
287
21
26
31
0
0
LINE
8
FRAME
10
232
20
10
30
0
11
232
21
26
31
0
0
LINE
8
FRAME
10
255
20
26
30
0
11
255
21
34
31
0
0
TEXT
8
TEXT
10
179
20
28.5
30
0
40
4.2
1
VRINGON
72
0
11
179
21
28.5
31
0
0
TEXT
8
TEXT
10
257
20
28.5
30
0
40
2.5
1
도번 VR-RB-004
72
0
11
257
21
28.5
31
0
0
TEXT
8
TEXT
10
179
20
20.5
30
0
40
2.8
1
품명 플랜지 부시
72
0
11
179
21
20.5
31
0
0
TEXT
8
TEXT
10
234
20
20.5
30
0
40
2.8
1
재질 PBC2
72
0
11
234
21
20.5
31
0
0
TEXT
8
TEXT
10
179
20
12.5
30
0
40
2.5
1
척도 1:1
72
0
11
179
21
12.5
31
0
0
TEXT
8
TEXT
10
234
20
12.5
30
0
40
2.5
1
3각법 · 단위 mm
72
0
11
234
21
12.5
31
0
0
CIRCLE
8
FRAME
10
269
20
16.5
30
0
40
2.4
0
CIRCLE
8
FRAME
10
269
20
16.5
30
0
40
1.2
0
LINE
8
FRAME
10
274.5
20
13.9
30
0
11
281
21
15.1
31
0
0
LINE
8
FRAME
10
281
20
15.1
30
0
11
281
21
17.9
31
0
0
LINE
8
FRAME
10
281
20
17.9
30
0
11
274.5
21
19.1
31
0
0
LINE
8
FRAME
10
274.5
20
19.1
30
0
11
274.5
21
13.9
31
0
0
TEXT
8
TEXT
10
14
20
18.2
30
0
40
2.6
1
1. 지시 없는 모따기 C0.5
72
0
11
14
21
18.2
31
0
0
TEXT
8
TEXT
10
14
20
14
30
0
40
2.6
1
2. 지시 없는 공차 KS B ISO 2768-m
72
0
11
14
21
14
31
0
0
ENDSEC
0
EOF
