#usda 1.0
(
    defaultPrim = "flanged_bushing"
    metersPerUnit = 0.001
    upAxis = "Y"
    doc = "VRINGON revolve part — CadQuery executor"
)

def Xform "flanged_bushing" (
    kind = "component"
)
{
    custom string vringon:dsl_version = "vringon-shaft/1.0"
    custom string vringon:dsl_json = "{\"dsl\":\"vringon-shaft/1.0\",\"id\":\"flanged-bushing\",\"name\":\"Flanged bushing\",\"name_ko\":\"플랜지 부시\",\"part_class\":\"bushing\",\"units\":\"mm\",\"material\":\"PBC2\",\"drawing\":{\"number\":\"VR-RB-004\",\"scale\":\"2:1\",\"projection\":\"third\"},\"segments\":[{\"type\":\"cyl\",\"length\":5,\"diameter\":40},{\"type\":\"cyl\",\"length\":25,\"diameter\":30,\"tolerance\":\"n6\"}],\"transitions\":[{\"at\":0,\"type\":\"chamfer\",\"size\":0.5},{\"at\":1,\"type\":\"chamfer\",\"size\":0.5},{\"at\":2,\"type\":\"chamfer\",\"size\":0.5}],\"grooves\":[],\"bore\":{\"through\":true,\"segments\":[{\"length\":30,\"diameter\":22,\"tolerance\":\"H7\"}],\"chamfer_left\":0.5,\"chamfer_right\":0.5},\"features\":[],\"meta\":{\"source\":\"golden\",\"difficulty\":2}}"
    custom string vringon:name_ko = "플랜지 부시"
    custom string vringon:material = "PBC2"
    custom double vringon:length_mm = 30.0
    custom double vringon:max_diameter_mm = 40
    custom double vringon:volume_mm3 = 12490.318
    custom double[] vringon:segment_lengths_mm = [5, 25]
    custom string[] vringon:segment_types = ["cyl", "cyl"]
    custom string[] vringon:threads = []
    custom string[] vringon:features = []

    def Mesh "body"
    {
        float3[] extent = [(0.0000, -19.9751, -19.9938), (30.0000, 20.0000, 19.9938)]
        int[] faceVertexCounts = [3, 3, 3, 3, 3, 3, 3, 3, 3, 3, 3, 3, 3, 3, 3, 3, 3, 3, 3, 3, 3, 3, 3, 3, 3, 3, 3, 3, 3, 3, 3, 3, 3, 3, 3, 3, 3, 3, 3, 3, 3, 3, 3, 3, 3, 3, 3, 3, 3, 3, 3, 3, 3, 3, 3, 3, 3, 3, 3, 3, 3, 3, 3, 3, 3, 3, 3, 3, 3, 3, 3, 3, 3, 3, 3, 3, 3, 3, 3, 3, 3, 3, 3, 3, 3, 3, 3, 3, 3, 3, 3, 3, 3, 3, 3, 3, 3, 3, 3, 3, 3, 3, 3, 3, 3, 3, 3, 3, 3, 3, 3, 3, 3, 3, 3, 3, 3, 3, 3, 3, 3, 3, 3, 3, 3, 3, 3, 3, 3, 3, 3, 3, 3, 3, 3, 3, 3, 3, 3, 3, 3, 3, 3, 3, 3, 3, 3, 3, 3, 3, 3, 3, 3, 3, 3, 3, 3, 3, 3, 3, 3, 3, 3, 3, 3, 3, 3, 3, 3, 3, 3, 3, 3, 3, 3, 3, 3, 3, 3, 3, 3, 3, 3, 3, 3, 3, 3, 3, 3, 3, 3, 3, 3, 3, 3, 3, 3, 3, 3, 3, 3, 3, 3, 3, 3, 3, 3, 3, 3, 3, 3, 3, 3, 3, 3, 3, 3, 3, 3, 3, 3, 3, 3, 3, 3, 3, 3, 3, 3, 3, 3, 3, 3, 3, 3, 3, 3, 3, 3, 3, 3, 3, 3, 3, 3, 3, 3, 3, 3, 3, 3, 3, 3, 3, 3, 3, 3, 3, 3, 3, 3, 3, 3, 3, 3, 3, 3, 3, 3, 3, 3, 3, 3, 3, 3, 3, 3, 3, 3, 3, 3, 3, 3, 3, 3, 3, 3, 3, 3, 3, 3, 3, 3, 3, 3, 3, 3, 3, 3, 3, 3, 3, 3, 3, 3, 3, 3, 3, 3, 3, 3, 3, 3, 3, 3, 3, 3, 3, 3, 3, 3, 3, 3, 3, 3, 3, 3, 3, 3, 3, 3, 3, 3, 3, 3, 3, 3, 3, 3, 3, 3, 3, 3, 3, 3, 3, 3, 3, 3, 3, 3, 3, 3, 3, 3, 3, 3, 3, 3, 3, 3, 3, 3, 3, 3, 3, 3, 3, 3, 3, 3, 3, 3, 3, 3, 3, 3, 3, 3, 3, 3, 3, 3, 3, 3, 3, 3, 3, 3, 3, 3, 3, 3, 3, 3, 3, 3, 3, 3, 3, 3, 3, 3, 3, 3, 3, 3, 3, 3, 3, 3, 3, 3, 3, 3, 3, 3, 3, 3, 3, 3, 3, 3, 3, 3, 3, 3, 3, 3, 3, 3, 3, 3, 3, 3, 3, 3, 3, 3, 3, 3, 3, 3, 3, 3, 3, 3, 3, 3, 3, 3, 3, 3, 3, 3, 3, 3, 3, 3, 3, 3, 3, 3, 3, 3, 3, 3, 3, 3, 3, 3, 3, 3, 3, 3, 3, 3, 3, 3, 3, 3, 3, 3, 3, 3, 3, 3, 3, 3, 3, 3, 3, 3, 3, 3, 3, 3, 3, 3, 3, 3, 3, 3, 3, 3, 3, 3, 3, 3, 3, 3, 3, 3, 3, 3, 3, 3, 3, 3, 3, 3, 3, 3, 3, 3, 3, 3, 3, 3, 3, 3, 3, 3, 3, 3, 3, 3, 3, 3, 3, 3, 3, 3, 3, 3, 3, 3, 3, 3, 3, 3, 3, 3, 3, 3, 3, 3, 3, 3, 3, 3, 3, 3, 3, 3, 3, 3, 3, 3, 3, 3, 3, 3, 3, 3, 3, 3, 3, 3, 3, 3, 3, 3, 3, 3, 3, 3, 3, 3, 3, 3, 3, 3, 3, 3, 3, 3, 3, 3, 3, 3, 3, 3, 3, 3, 3, 3, 3, 3, 3, 3, 3, 3, 3, 3, 3, 3, 3, 3, 3, 3, 3, 3, 3, 3, 3, 3, 3, 3, 3, 3, 3, 3, 3, 3, 3, 3, 3, 3, 3, 3, 3, 3, 3, 3, 3, 3, 3, 3, 3, 3, 3, 3, 3, 3, 3, 3, 3, 3, 3, 3, 3, 3, 3, 3, 3, 3, 3, 3, 3, 3, 3, 3, 3, 3, 3, 3, 3, 3, 3, 3, 3, 3, 3, 3, 3, 3, 3, 3, 3, 3, 3, 3, 3, 3, 3, 3, 3, 3, 3, 3, 3, 3, 3, 3, 3, 3, 3, 3, 3, 3, 3, 3, 3, 3, 3, 3, 3, 3, 3, 3, 3, 3, 3, 3, 3, 3, 3, 3, 3, 3, 3, 3, 3, 3, 3, 3, 3, 3, 3, 3, 3, 3, 3, 3, 3, 3, 3, 3, 3, 3, 3, 3, 3, 3, 3, 3, 3, 3, 3, 3, 3, 3, 3, 3, 3, 3, 3, 3, 3, 3, 3, 3, 3, 3, 3, 3, 3, 3, 3, 3, 3, 3, 3, 3, 3, 3, 3, 3, 3, 3, 3, 3, 3, 3, 3, 3, 3, 3, 3, 3, 3, 3, 3, 3, 3, 3, 3, 3, 3, 3, 3, 3, 3, 3, 3, 3, 3, 3, 3, 3, 3, 3, 3, 3, 3, 3, 3, 3, 3, 3, 3, 3, 3, 3, 3, 3, 3, 3, 3, 3, 3, 3, 3, 3, 3, 3, 3, 3, 3, 3, 3, 3, 3, 3, 3, 3, 3, 3, 3, 3, 3, 3, 3, 3, 3, 3, 3, 3, 3, 3, 3, 3, 3, 3, 3, 3, 3, 3, 3, 3, 3, 3, 3, 3, 3, 3, 3, 3, 3, 3, 3, 3, 3, 3, 3, 3, 3, 3, 3, 3, 3, 3, 3, 3, 3, 3, 3, 3, 3, 3, 3, 3, 3, 3, 3, 3, 3, 3, 3, 3, 3, 3, 3, 3, 3, 3, 3, 3, 3, 3, 3, 3, 3, 3, 3, 3, 3, 3, 3, 3, 3, 3, 3, 3, 3, 3, 3, 3, 3, 3, 3, 3, 3, 3, 3, 3, 3, 3, 3, 3, 3, 3, 3, 3, 3, 3, 3, 3, 3, 3, 3, 3, 3, 3, 3, 3, 3, 3, 3, 3, 3, 3, 3, 3, 3, 3, 3, 3, 3, 3, 3, 3, 3, 3, 3, 3, 3, 3, 3, 3, 3, 3, 3, 3, 3, 3, 3, 3, 3, 3, 3, 3, 3, 3, 3, 3, 3, 3, 3, 3, 3, 3, 3, 3, 3, 3, 3, 3, 3, 3, 3, 3, 3, 3, 3, 3, 3, 3, 3, 3, 3, 3, 3, 3, 3, 3, 3, 3, 3, 3, 3, 3, 3, 3, 3, 3, 3, 3, 3, 3, 3, 3, 3, 3, 3, 3, 3, 3, 3, 3, 3, 3, 3, 3, 3, 3, 3, 3, 3, 3, 3, 3, 3, 3, 3, 3, 3, 3, 3, 3, 3, 3, 3, 3, 3, 3, 3, 3, 3, 3, 3, 3, 3, 3, 3, 3, 3, 3, 3, 3, 3, 3, 3, 3, 3, 3, 3, 3, 3, 3, 3, 3, 3, 3, 3, 3, 3, 3, 3, 3, 3, 3, 3, 3, 3, 3, 3, 3, 3, 3, 3, 3, 3, 3, 3, 3, 3, 3, 3, 3, 3, 3, 3, 3, 3, 3, 3, 3, 3, 3, 3, 3, 3, 3, 3, 3, 3, 3, 3, 3, 3, 3, 3, 3, 3, 3, 3, 3, 3, 3, 3, 3, 3, 3, 3, 3, 3, 3, 3, 3, 3, 3, 3, 3, 3, 3, 3, 3, 3, 3, 3, 3, 3, 3, 3, 3, 3, 3, 3, 3, 3, 3, 3, 3, 3, 3, 3, 3, 3, 3, 3, 3, 3, 3, 3, 3, 3, 3, 3, 3, 3, 3, 3, 3, 3, 3, 3, 3, 3, 3, 3, 3, 3, 3, 3, 3, 3, 3, 3, 3, 3, 3, 3, 3, 3, 3, 3, 3, 3, 3, 3, 3, 3, 3, 3, 3, 3, 3, 3, 3, 3, 3, 3, 3, 3, 3, 3, 3, 3, 3, 3, 3, 3, 3, 3, 3, 3, 3, 3, 3, 3, 3, 3, 3, 3, 3, 3, 3, 3, 3, 3, 3, 3, 3, 3, 3, 3, 3, 3, 3, 3, 3, 3, 3, 3, 3, 3, 3, 3, 3, 3, 3, 3, 3, 3, 3, 3, 3, 3, 3, 3, 3, 3, 3, 3, 3, 3, 3, 3, 3, 3, 3, 3, 3, 3, 3, 3, 3, 3, 3, 3, 3, 3, 3, 3, 3, 3, 3, 3, 3, 3, 3, 3, 3, 3, 3, 3, 3, 3, 3, 3, 3, 3, 3, 3, 3, 3, 3, 3, 3, 3, 3, 3, 3, 3]
        int[] faceVertexIndices = [66, 0, 1, 66, 65, 0, 67, 1, 2, 67, 66, 1, 68, 2, 3, 68, 67, 2, 69, 3, 4, 69, 68, 3, 70, 4, 5, 70, 69, 4, 71, 5, 6, 71, 70, 5, 72, 6, 7, 72, 71, 6, 73, 7, 8, 73, 72, 7, 74, 8, 9, 74, 73, 8, 75, 9, 10, 75, 74, 9, 76, 10, 11, 76, 75, 10, 77, 11, 12, 77, 76, 11, 78, 12, 13, 78, 77, 12, 79, 13, 14, 79, 78, 13, 80, 14, 15, 80, 79, 14, 81, 15, 16, 81, 80, 15, 82, 16, 17, 82, 81, 16, 83, 17, 18, 83, 82, 17, 84, 83, 18, 84, 18, 19, 85, 84, 19, 85, 19, 20, 86, 85, 20, 86, 20, 21, 87, 86, 21, 87, 21, 22, 88, 87, 22, 88, 22, 23, 89, 23, 24, 89, 88, 23, 90, 24, 25, 90, 89, 24, 91, 25, 26, 91, 90, 25, 27, 91, 26, 92, 91, 27, 28, 92, 27, 93, 92, 28, 94, 28, 29, 94, 93, 28, 95, 29, 30, 95, 94, 29, 96, 30, 31, 96, 95, 30, 32, 96, 31, 97, 96, 32, 98, 32, 33, 98, 97, 32, 99, 33, 34, 99, 98, 33, 100, 34, 35, 100, 99, 34, 101, 35, 36, 101, 100, 35, 37, 101, 36, 102, 101, 37, 38, 102, 37, 103, 102, 38, 104, 38, 39, 104, 103, 38, 105, 39, 40, 105, 104, 39, 41, 105, 40, 106, 105, 41, 107, 41, 42, 107, 106, 41, 43, 107, 42, 108, 107, 43, 109, 108, 43, 109, 43, 44, 45, 109, 44, 110, 109, 45, 46, 110, 45, 111, 110, 46, 112, 111, 46, 112, 46, 47, 113, 112, 47, 113, 47, 48, 49, 113, 48, 114, 113, 49, 115, 114, 49, 115, 49, 50, 51, 115, 50, 116, 115, 51, 117, 116, 51, 117, 51, 52, 118, 117, 52, 118, 52, 53, 119, 118, 53, 119, 53, 54, 120, 119, 54, 120, 54, 55, 121, 120, 55, 121, 55, 56, 122, 121, 56, 122, 56, 57, 123, 57, 58, 123, 122, 57, 124, 58, 59, 124, 123, 58, 60, 124, 59, 125, 124, 60, 126, 60, 61, 126, 125, 60, 62, 126, 61, 127, 126, 62, 64, 62, 63, 64, 127, 62, 194, 128, 129, 194, 193, 128, 195, 129, 130, 195, 194, 129, 196, 130, 131, 196, 195, 130, 197, 131, 132, 197, 196, 131, 198, 132, 133, 198, 197, 132, 199, 133, 134, 199, 134, 135, 199, 198, 133, 200, 199, 135, 201, 135, 136, 201, 200, 135, 202, 136, 137, 202, 201, 136, 203, 137, 138, 203, 202, 137, 204, 138, 139, 204, 203, 138, 205, 139, 140, 205, 204, 139, 206, 140, 141, 206, 141, 142, 206, 205, 140, 207, 142, 143, 207, 206, 142, 208, 207, 143, 209, 143, 144, 209, 144, 145, 209, 208, 143, 210, 209, 145, 211, 210, 145, 211, 145, 146, 212, 211, 146, 212, 146, 147, 213, 212, 147, 213, 147, 148, 214, 213, 148, 214, 148, 149, 215, 214, 149, 215, 149, 150, 216, 150, 151, 216, 215, 150, 217, 151, 152, 217, 216, 151, 218, 152, 153, 218, 217, 152, 219, 153, 154, 219, 218, 153, 220, 154, 155, 220, 219, 154, 221, 155, 156, 221, 220, 155, 222, 156, 157, 222, 221, 156, 223, 157, 158, 223, 222, 157, 224, 158, 159, 224, 223, 158, 225, 159, 160, 225, 224, 159, 226, 160, 161, 226, 161, 162, 226, 225, 160, 227, 226, 162, 228, 162, 163, 228, 227, 162, 229, 163, 164, 229, 228, 163, 230, 164, 165, 230, 229, 164, 231, 165, 166, 231, 166, 167, 231, 230, 165, 232, 231, 167, 233, 167, 168, 233, 232, 167, 234, 168, 169, 234, 233, 168, 235, 169, 170, 235, 234, 169, 236, 235, 170, 236, 170, 171, 237, 236, 171, 237, 171, 172, 238, 237, 172, 238, 172, 173, 239, 238, 173, 239, 173, 174, 240, 239, 174, 240, 174, 175, 241, 240, 175, 241, 175, 176, 242, 241, 176, 242, 176, 177, 243, 242, 177, 243, 177, 178, 244, 243, 178, 244, 178, 179, 245, 244, 179, 245, 179, 180, 245, 180, 181, 246, 245, 181, 247, 246, 181, 247, 181, 182, 248, 247, 182, 248, 182, 183, 249, 183, 184, 249, 248, 183, 250, 184, 185, 250, 249, 184, 251, 185, 186, 251, 250, 185, 252, 186, 187, 252, 251, 186, 253, 187, 188, 253, 252, 187, 254, 188, 189, 254, 253, 188, 255, 189, 190, 255, 254, 189, 192, 190, 191, 192, 255, 190, 322, 256, 257, 322, 321, 256, 323, 257, 258, 323, 322, 257, 324, 258, 259, 324, 323, 258, 325, 259, 260, 325, 324, 259, 326, 260, 261, 326, 325, 260, 327, 261, 262, 327, 326, 261, 328, 262, 263, 328, 327, 262, 329, 263, 264, 329, 328, 263, 330, 264, 265, 330, 329, 264, 331, 265, 266, 331, 330, 265, 332, 266, 267, 332, 331, 266, 333, 267, 268, 333, 332, 267, 334, 268, 269, 334, 333, 268, 335, 269, 270, 335, 334, 269, 336, 270, 271, 336, 335, 270, 337, 271, 272, 337, 336, 271, 338, 272, 273, 338, 337, 272, 339, 273, 274, 339, 338, 273, 340, 339, 274, 340, 274, 275, 341, 340, 275, 341, 275, 276, 342, 341, 276, 342, 276, 277, 343, 342, 277, 343, 277, 278, 344, 343, 278, 344, 278, 279, 345, 279, 280, 345, 344, 279, 346, 280, 281, 346, 345, 280, 347, 281, 282, 347, 346, 281, 348, 282, 283, 348, 347, 282, 284, 348, 283, 349, 348, 284, 350, 284, 285, 350, 349, 284, 351, 285, 286, 351, 350, 285, 352, 286, 287, 352, 351, 286, 288, 352, 287, 353, 352, 288, 354, 288, 289, 354, 353, 288, 355, 289, 290, 355, 354, 289, 356, 290, 291, 356, 355, 290, 357, 291, 292, 357, 356, 291, 293, 357, 292, 358, 357, 293, 294, 358, 293, 359, 358, 294, 360, 294, 295, 360, 359, 294, 361, 295, 296, 361, 360, 295, 362, 296, 297, 362, 361, 296, 363, 297, 298, 363, 362, 297, 299, 363, 298, 364, 363, 299, 365, 364, 299, 365, 299, 300, 301, 365, 300, 366, 365, 301, 302, 366, 301, 367, 366, 302, 368, 367, 302, 368, 302, 303, 369, 368, 303, 369, 303, 304, 305, 369, 304, 370, 369, 305, 371, 370, 305, 371, 305, 306, 307, 371, 306, 372, 371, 307, 373, 372, 307, 373, 307, 308, 374, 373, 308, 374, 308, 309, 375, 374, 309, 375, 309, 310, 376, 375, 310, 376, 310, 311, 312, 376, 311, 377, 376, 312, 378, 312, 313, 378, 377, 312, 379, 313, 314, 379, 378, 313, 315, 379, 314, 380, 379, 315, 316, 380, 315, 381, 380, 316, 382, 316, 317, 382, 381, 316, 318, 382, 317, 383, 382, 318, 320, 318, 319, 320, 383, 318, 487, 423, 424, 487, 424, 425, 487, 486, 423, 485, 422, 423, 485, 423, 486, 488, 487, 425, 484, 421, 422, 484, 422, 485, 489, 425, 426, 489, 426, 427, 489, 488, 425, 483, 420, 421, 483, 421, 484, 490, 489, 427, 482, 419, 420, 482, 420, 483, 491, 427, 428, 491, 490, 427, 481, 418, 419, 481, 419, 482, 492, 491, 428, 492, 428, 429, 492, 429, 430, 480, 417, 418, 480, 418, 481, 493, 492, 430, 479, 415, 416, 479, 416, 417, 479, 417, 480, 494, 430, 431, 494, 431, 432, 494, 493, 430, 478, 414, 415, 478, 415, 479, 495, 494, 432, 477, 414, 478, 496, 432, 433, 496, 495, 432, 476, 414, 477, 476, 413, 414, 497, 496, 433, 497, 433, 434, 475, 413, 476, 475, 412, 413, 498, 497, 434, 498, 434, 435, 436, 498, 435, 474, 412, 475, 474, 411, 412, 499, 498, 436, 410, 411, 474, 473, 410, 474, 500, 499, 436, 500, 436, 437, 472, 409, 410, 472, 410, 473, 501, 500, 437, 501, 437, 438, 471, 409, 472, 471, 408, 409, 502, 501, 438, 502, 438, 439, 407, 408, 471, 407, 471, 470, 440, 503, 502, 440, 502, 439, 406, 407, 470, 406, 470, 469, 441, 504, 503, 441, 503, 440, 468, 406, 469, 505, 504, 441, 405, 406, 468, 442, 505, 441, 404, 405, 468, 404, 467, 466, 404, 468, 467, 443, 506, 505, 443, 507, 506, 443, 505, 442, 403, 466, 465, 403, 404, 466, 444, 508, 507, 444, 507, 443, 402, 403, 465, 445, 508, 444, 401, 402, 465, 401, 465, 464, 446, 508, 445, 446, 509, 508, 400, 401, 464, 400, 464, 463, 384, 509, 446, 384, 447, 509, 399, 400, 463, 399, 463, 462, 385, 447, 384, 385, 448, 447, 385, 449, 448, 398, 399, 462, 398, 462, 461, 386, 449, 385, 397, 398, 461, 397, 461, 460, 387, 449, 386, 387, 450, 449, 396, 397, 460, 396, 460, 459, 388, 450, 387, 388, 451, 450, 395, 396, 459, 395, 458, 457, 395, 459, 458, 389, 451, 388, 389, 452, 451, 394, 395, 457, 390, 452, 389, 390, 453, 452, 393, 394, 457, 393, 456, 455, 393, 457, 456, 391, 454, 453, 391, 455, 454, 391, 453, 390, 392, 393, 455, 392, 455, 391, 576, 510, 511, 576, 575, 510, 577, 511, 512, 577, 576, 511, 578, 512, 513, 578, 577, 512, 579, 513, 514, 579, 578, 513, 580, 514, 515, 580, 579, 514, 581, 515, 516, 581, 580, 515, 582, 516, 517, 582, 517, 518, 582, 581, 516, 583, 582, 518, 584, 518, 519, 584, 583, 518, 585, 519, 520, 585, 584, 519, 586, 520, 521, 586, 521, 522, 586, 585, 520, 587, 586, 522, 588, 522, 523, 588, 587, 522, 589, 523, 524, 589, 588, 523, 590, 524, 525, 590, 525, 526, 590, 589, 524, 591, 526, 527, 591, 590, 526, 592, 591, 527, 593, 592, 527, 593, 527, 528, 593, 528, 529, 594, 593, 529, 595, 594, 529, 595, 529, 530, 596, 595, 530, 596, 530, 531, 597, 596, 531, 597, 531, 532, 598, 532, 533, 598, 597, 532, 599, 533, 534, 599, 534, 535, 599, 598, 533, 600, 599, 535, 601, 535, 536, 601, 600, 535, 602, 536, 537, 602, 601, 536, 603, 537, 538, 603, 602, 537, 604, 538, 539, 604, 539, 540, 604, 603, 538, 605, 604, 540, 606, 540, 541, 606, 541, 542, 606, 605, 540, 607, 606, 542, 608, 542, 543, 608, 543, 544, 608, 607, 542, 609, 608, 544, 610, 544, 545, 610, 545, 546, 610, 609, 544, 611, 610, 546, 612, 546, 547, 612, 547, 548, 612, 611, 546, 613, 612, 548, 614, 548, 549, 614, 549, 550, 614, 613, 548, 615, 614, 550, 616, 550, 551, 616, 551, 552, 616, 615, 550, 617, 616, 552, 618, 617, 552, 618, 552, 553, 619, 618, 553, 619, 553, 554, 620, 619, 554, 620, 554, 555, 620, 555, 556, 621, 620, 556, 622, 621, 556, 622, 556, 557, 623, 622, 557, 623, 557, 558, 624, 623, 558, 624, 558, 559, 624, 559, 560, 625, 624, 560, 626, 625, 560, 626, 560, 561, 626, 561, 562, 627, 626, 562, 628, 627, 562, 628, 562, 563, 628, 563, 564, 629, 628, 564, 630, 629, 564, 630, 564, 565, 630, 565, 566, 631, 566, 567, 631, 630, 566, 632, 631, 567, 633, 632, 567, 633, 567, 568, 634, 568, 569, 634, 633, 568, 635, 569, 570, 635, 634, 569, 636, 570, 571, 636, 635, 570, 637, 571, 572, 637, 572, 573, 637, 636, 571, 574, 637, 573, 704, 638, 639, 704, 703, 638, 705, 639, 640, 705, 704, 639, 706, 640, 641, 706, 705, 640, 707, 641, 642, 707, 706, 641, 708, 642, 643, 708, 707, 642, 709, 643, 644, 709, 708, 643, 710, 644, 645, 710, 709, 644, 711, 645, 646, 711, 710, 645, 712, 646, 647, 712, 711, 646, 713, 647, 648, 713, 712, 647, 649, 713, 648, 714, 713, 649, 715, 649, 650, 715, 714, 649, 651, 715, 650, 716, 715, 651, 717, 651, 652, 717, 716, 651, 718, 652, 653, 718, 717, 652, 654, 718, 653, 719, 718, 654, 720, 654, 655, 720, 719, 654, 656, 720, 655, 721, 720, 656, 722, 721, 656, 722, 656, 657, 723, 722, 657, 723, 657, 658, 724, 723, 658, 724, 658, 659, 725, 724, 659, 725, 659, 660, 726, 725, 660, 726, 660, 661, 727, 661, 662, 727, 726, 661, 663, 727, 662, 728, 727, 663, 729, 663, 664, 729, 728, 663, 730, 664, 665, 730, 729, 664, 731, 665, 666, 731, 730, 665, 732, 666, 667, 732, 731, 666, 733, 667, 668, 733, 732, 667, 734, 668, 669, 734, 733, 668, 735, 669, 670, 735, 734, 669, 736, 670, 671, 736, 735, 670, 737, 671, 672, 737, 736, 671, 738, 672, 673, 738, 737, 672, 739, 673, 674, 739, 738, 673, 740, 674, 675, 740, 739, 674, 741, 675, 676, 741, 740, 675, 677, 741, 676, 742, 741, 677, 743, 677, 678, 743, 742, 677, 679, 743, 678, 744, 743, 679, 745, 679, 680, 745, 744, 679, 746, 745, 680, 746, 680, 681, 682, 746, 681, 747, 746, 682, 683, 747, 682, 748, 747, 683, 749, 748, 683, 749, 683, 684, 685, 749, 684, 750, 749, 685, 751, 750, 685, 751, 685, 686, 752, 751, 686, 752, 686, 687, 688, 752, 687, 753, 752, 688, 754, 753, 688, 754, 688, 689, 755, 754, 689, 755, 689, 690, 691, 755, 690, 756, 755, 691, 757, 756, 691, 757, 691, 692, 758, 757, 692, 758, 692, 693, 694, 758, 693, 759, 758, 694, 695, 759, 694, 760, 759, 695, 761, 695, 696, 761, 760, 695, 762, 696, 697, 762, 761, 696, 763, 697, 698, 763, 762, 697, 764, 698, 699, 764, 763, 698, 765, 699, 700, 765, 764, 699, 701, 765, 700, 702, 765, 701, 869, 805, 806, 869, 868, 805, 867, 804, 805, 867, 805, 868, 870, 806, 807, 870, 807, 808, 870, 869, 806, 866, 803, 804, 866, 804, 867, 871, 870, 808, 865, 802, 803, 865, 803, 866, 872, 808, 809, 872, 871, 808, 864, 801, 802, 864, 802, 865, 873, 809, 810, 873, 810, 811, 873, 872, 809, 863, 800, 801, 863, 801, 864, 874, 811, 812, 874, 873, 811, 862, 799, 800, 862, 800, 863, 875, 874, 812, 861, 798, 799, 861, 799, 862, 876, 812, 813, 876, 813, 814, 876, 875, 812, 860, 797, 798, 860, 798, 861, 877, 814, 815, 877, 876, 814, 859, 795, 796, 859, 796, 797, 859, 797, 860, 878, 877, 815, 858, 795, 859, 879, 878, 815, 879, 815, 816, 857, 794, 795, 857, 795, 858, 880, 879, 816, 880, 816, 817, 856, 794, 857, 856, 793, 794, 881, 880, 817, 881, 817, 818, 819, 881, 818, 855, 792, 793, 855, 793, 856, 882, 881, 819, 854, 792, 855, 854, 791, 792, 883, 882, 819, 883, 819, 820, 853, 790, 791, 853, 791, 854, 884, 883, 820, 884, 820, 821, 789, 790, 853, 789, 853, 852, 822, 885, 884, 822, 884, 821, 886, 885, 822, 788, 789, 852, 788, 852, 851, 823, 886, 822, 887, 886, 823, 787, 788, 851, 787, 851, 850, 849, 787, 850, 824, 887, 823, 786, 787, 849, 825, 888, 887, 825, 889, 888, 825, 887, 824, 785, 849, 848, 785, 786, 849, 826, 889, 825, 784, 848, 847, 784, 785, 848, 827, 890, 889, 827, 889, 826, 783, 784, 847, 783, 846, 845, 783, 847, 846, 828, 891, 890, 828, 890, 827, 782, 783, 845, 766, 829, 891, 766, 891, 828, 781, 782, 845, 781, 845, 844, 767, 829, 766, 767, 830, 829, 780, 781, 844, 780, 844, 843, 768, 830, 767, 768, 831, 830, 768, 832, 831, 779, 780, 843, 779, 842, 841, 779, 843, 842, 769, 832, 768, 778, 779, 841, 778, 841, 840, 770, 832, 769, 770, 833, 832, 777, 778, 840, 771, 833, 770, 771, 834, 833, 776, 777, 840, 776, 840, 839, 772, 834, 771, 772, 835, 834, 775, 776, 839, 775, 839, 838, 773, 836, 835, 773, 837, 836, 773, 835, 772, 774, 838, 837, 774, 775, 838, 774, 837, 773, 958, 892, 893, 958, 957, 892, 959, 893, 894, 959, 958, 893, 960, 894, 895, 960, 959, 894, 961, 895, 896, 961, 960, 895, 897, 961, 896, 962, 961, 897, 963, 897, 898, 963, 962, 897, 964, 898, 899, 964, 963, 898, 900, 964, 899, 965, 964, 900, 901, 965, 900, 966, 965, 901, 967, 901, 902, 967, 966, 901, 903, 967, 902, 968, 967, 903, 969, 903, 904, 969, 968, 903, 970, 904, 905, 970, 969, 904, 971, 905, 906, 971, 970, 905, 972, 906, 907, 972, 971, 906, 973, 907, 908, 973, 972, 907, 974, 908, 909, 974, 973, 908, 975, 909, 910, 975, 974, 909, 976, 975, 910, 976, 910, 911, 977, 976, 911, 977, 911, 912, 978, 977, 912, 978, 912, 913, 979, 978, 913, 979, 913, 914, 980, 979, 914, 980, 914, 915, 981, 915, 916, 981, 980, 915, 982, 916, 917, 982, 981, 916, 983, 917, 918, 983, 982, 917, 984, 918, 919, 984, 983, 918, 985, 919, 920, 985, 984, 919, 921, 985, 920, 986, 985, 921, 987, 921, 922, 987, 986, 921, 923, 987, 922, 988, 987, 923, 989, 923, 924, 989, 988, 923, 990, 924, 925, 990, 989, 924, 991, 925, 926, 991, 990, 925, 992, 926, 927, 992, 991, 926, 928, 992, 927, 993, 992, 928, 994, 928, 929, 994, 993, 928, 995, 929, 930, 995, 994, 929, 996, 930, 931, 996, 995, 930, 932, 996, 931, 997, 996, 932, 998, 932, 933, 998, 997, 932, 999, 933, 934, 999, 998, 933, 1000, 999, 934, 1000, 934, 935, 936, 1000, 935, 1001, 1000, 936, 1002, 1001, 936, 1002, 936, 937, 938, 1002, 937, 1003, 1002, 938, 1004, 1003, 938, 1004, 938, 939, 940, 1004, 939, 1005, 1004, 940, 1006, 1005, 940, 1006, 940, 941, 942, 1006, 941, 1007, 1006, 942, 943, 1007, 942, 1008, 1007, 943, 944, 1008, 943, 1009, 1008, 944, 1010, 1009, 944, 1010, 944, 945, 1011, 1010, 945, 1011, 945, 946, 1012, 1011, 946, 1012, 946, 947, 1013, 1012, 947, 1013, 947, 948, 1014, 1013, 948, 1014, 948, 949, 1015, 949, 950, 1015, 1014, 949, 1016, 950, 951, 1016, 1015, 950, 1017, 951, 952, 1017, 1016, 951, 1018, 952, 953, 1018, 1017, 952, 1019, 953, 954, 1019, 1018, 953, 955, 1019, 954, 956, 1019, 955, 1085, 1020, 1021, 1086, 1021, 1022, 1086, 1085, 1021, 1087, 1086, 1022, 1088, 1022, 1023, 1088, 1023, 1024, 1088, 1087, 1022, 1089, 1088, 1024, 1090, 1024, 1025, 1090, 1089, 1024, 1091, 1025, 1026, 1091, 1026, 1027, 1091, 1090, 1025, 1092, 1091, 1027, 1093, 1027, 1028, 1093, 1092, 1027, 1094, 1028, 1029, 1094, 1029, 1030, 1094, 1093, 1028, 1095, 1030, 1031, 1095, 1094, 1030, 1096, 1095, 1031, 1097, 1031, 1032, 1097, 1096, 1031, 1098, 1032, 1033, 1098, 1097, 1032, 1099, 1033, 1034, 1099, 1098, 1033, 1100, 1034, 1035, 1100, 1035, 1036, 1100, 1099, 1034, 1101, 1036, 1037, 1101, 1100, 1036, 1102, 1101, 1037, 1103, 1102, 1037, 1103, 1037, 1038, 1104, 1103, 1038, 1104, 1038, 1039, 1105, 1104, 1039, 1105, 1039, 1040, 1106, 1105, 1040, 1106, 1040, 1041, 1107, 1106, 1041, 1107, 1041, 1042, 1108, 1042, 1043, 1108, 1107, 1042, 1109, 1043, 1044, 1109, 1108, 1043, 1110, 1044, 1045, 1110, 1109, 1044, 1111, 1045, 1046, 1111, 1110, 1045, 1112, 1046, 1047, 1112, 1111, 1046, 1113, 1047, 1048, 1113, 1048, 1049, 1113, 1112, 1047, 1114, 1049, 1050, 1114, 1113, 1049, 1115, 1050, 1051, 1115, 1114, 1050, 1116, 1115, 1051, 1117, 1051, 1052, 1117, 1052, 1053, 1117, 1116, 1051, 1118, 1117, 1053, 1119, 1053, 1054, 1119, 1054, 1055, 1119, 1118, 1053, 1120, 1119, 1055, 1121, 1055, 1056, 1121, 1120, 1055, 1122, 1056, 1057, 1122, 1057, 1058, 1122, 1121, 1056, 1123, 1122, 1058, 1124, 1058, 1059, 1124, 1123, 1058, 1125, 1059, 1060, 1125, 1124, 1059, 1126, 1060, 1061, 1126, 1061, 1062, 1126, 1125, 1060, 1127, 1126, 1062, 1128, 1127, 1062, 1128, 1062, 1063, 1129, 1128, 1063, 1129, 1063, 1064, 1130, 1129, 1064, 1130, 1064, 1065, 1131, 1130, 1065, 1131, 1065, 1066, 1131, 1066, 1067, 1132, 1131, 1067, 1133, 1132, 1067, 1133, 1067, 1068, 1133, 1068, 1069, 1134, 1133, 1069, 1135, 1134, 1069, 1135, 1069, 1070, 1136, 1135, 1070, 1136, 1070, 1071, 1136, 1071, 1072, 1137, 1136, 1072, 1138, 1137, 1072, 1138, 1072, 1073, 1139, 1138, 1073, 1139, 1073, 1074, 1140, 1139, 1074, 1140, 1074, 1075, 1141, 1075, 1076, 1141, 1140, 1075, 1141, 1076, 1077, 1142, 1141, 1077, 1143, 1142, 1077, 1143, 1077, 1078, 1143, 1078, 1079, 1144, 1143, 1079, 1145, 1079, 1080, 1145, 1144, 1079, 1146, 1080, 1081, 1146, 1081, 1082, 1146, 1145, 1080, 1147, 1082, 1083, 1147, 1146, 1082, 1084, 1147, 1083, 1214, 1148, 1149, 1214, 1213, 1148, 1215, 1149, 1150, 1215, 1214, 1149, 1216, 1150, 1151, 1216, 1215, 1150, 1217, 1151, 1152, 1217, 1216, 1151, 1218, 1152, 1153, 1218, 1217, 1152, 1219, 1153, 1154, 1219, 1218, 1153, 1220, 1154, 1155, 1220, 1219, 1154, 1221, 1155, 1156, 1221, 1220, 1155, 1222, 1156, 1157, 1222, 1221, 1156, 1158, 1222, 1157, 1223, 1222, 1158, 1159, 1223, 1158, 1224, 1223, 1159, 1225, 1159, 1160, 1225, 1224, 1159, 1161, 1225, 1160, 1226, 1225, 1161, 1227, 1161, 1162, 1227, 1226, 1161, 1228, 1162, 1163, 1228, 1227, 1162, 1229, 1163, 1164, 1229, 1228, 1163, 1230, 1164, 1165, 1230, 1229, 1164, 1231, 1165, 1166, 1231, 1230, 1165, 1232, 1231, 1166, 1232, 1166, 1167, 1233, 1232, 1167, 1233, 1167, 1168, 1234, 1233, 1168, 1234, 1168, 1169, 1235, 1234, 1169, 1235, 1169, 1170, 1236, 1235, 1170, 1236, 1170, 1171, 1237, 1171, 1172, 1237, 1236, 1171, 1238, 1172, 1173, 1238, 1237, 1172, 1239, 1173, 1174, 1239, 1238, 1173, 1240, 1174, 1175, 1240, 1239, 1174, 1241, 1175, 1176, 1241, 1240, 1175, 1177, 1241, 1176, 1242, 1241, 1177, 1243, 1177, 1178, 1243, 1242, 1177, 1244, 1178, 1179, 1244, 1243, 1178, 1245, 1179, 1180, 1245, 1244, 1179, 1246, 1180, 1181, 1246, 1245, 1180, 1247, 1181, 1182, 1247, 1246, 1181, 1248, 1182, 1183, 1248, 1247, 1182, 1249, 1183, 1184, 1249, 1248, 1183, 1250, 1184, 1185, 1250, 1249, 1184, 1251, 1185, 1186, 1251, 1250, 1185, 1187, 1251, 1186, 1252, 1251, 1187, 1188, 1252, 1187, 1253, 1252, 1188, 1189, 1253, 1188, 1254, 1253, 1189, 1255, 1189, 1190, 1255, 1254, 1189, 1191, 1255, 1190, 1256, 1255, 1191, 1192, 1256, 1191, 1257, 1256, 1192, 1258, 1257, 1192, 1258, 1192, 1193, 1194, 1258, 1193, 1259, 1258, 1194, 1195, 1259, 1194, 1260, 1259, 1195, 1261, 1260, 1195, 1261, 1195, 1196, 1197, 1261, 1196, 1262, 1261, 1197, 1198, 1262, 1197, 1263, 1262, 1198, 1264, 1263, 1198, 1264, 1198, 1199, 1265, 1264, 1199, 1265, 1199, 1200, 1201, 1265, 1200, 1266, 1265, 1201, 1267, 1266, 1201, 1267, 1201, 1202, 1268, 1267, 1202, 1268, 1202, 1203, 1269, 1268, 1203, 1269, 1203, 1204, 1270, 1269, 1204, 1270, 1204, 1205, 1271, 1205, 1206, 1271, 1270, 1205, 1272, 1206, 1207, 1272, 1271, 1206, 1273, 1207, 1208, 1273, 1272, 1207, 1274, 1208, 1209, 1274, 1273, 1208, 1275, 1209, 1210, 1275, 1274, 1209, 1211, 1275, 1210, 1212, 1275, 1211, 1395, 1331, 1394, 1395, 1332, 1331, 1393, 1331, 1330, 1393, 1394, 1331, 1396, 1333, 1332, 1396, 1332, 1395, 1392, 1330, 1329, 1392, 1393, 1330, 1397, 1334, 1333, 1397, 1333, 1396, 1391, 1328, 1327, 1391, 1329, 1328, 1391, 1392, 1329, 1398, 1335, 1334, 1398, 1334, 1397, 1390, 1391, 1327, 1399, 1336, 1335, 1399, 1335, 1398, 1389, 1327, 1326, 1389, 1390, 1327, 1400, 1337, 1336, 1400, 1338, 1337, 1400, 1336, 1399, 1388, 1326, 1325, 1388, 1389, 1326, 1401, 1338, 1400, 1387, 1325, 1324, 1387, 1388, 1325, 1339, 1338, 1401, 1339, 1276, 1338, 1386, 1324, 1323, 1386, 1387, 1324, 1340, 1277, 1276, 1340, 1276, 1339, 1385, 1386, 1323, 1385, 1323, 1322, 1341, 1278, 1277, 1341, 1277, 1340, 1384, 1385, 1322, 1384, 1322, 1321, 1342, 1279, 1278, 1342, 1278, 1341, 1383, 1384, 1321, 1383, 1321, 1320, 1343, 1280, 1279, 1343, 1279, 1342, 1382, 1383, 1320, 1382, 1320, 1319, 1344, 1281, 1280, 1344, 1280, 1343, 1381, 1382, 1319, 1381, 1319, 1318, 1345, 1282, 1281, 1345, 1281, 1344, 1380, 1381, 1318, 1380, 1318, 1317, 1283, 1282, 1345, 1346, 1283, 1345, 1379, 1380, 1317, 1379, 1317, 1316, 1347, 1283, 1346, 1284, 1283, 1347, 1315, 1378, 1379, 1315, 1379, 1316, 1348, 1284, 1347, 1285, 1284, 1348, 1314, 1377, 1378, 1314, 1378, 1315, 1286, 1285, 1348, 1286, 1348, 1349, 1313, 1376, 1377, 1313, 1377, 1314, 1313, 1375, 1376, 1287, 1349, 1350, 1287, 1350, 1351, 1287, 1286, 1349, 1312, 1375, 1313, 1312, 1374, 1375, 1288, 1351, 1352, 1288, 1287, 1351, 1311, 1374, 1312, 1289, 1352, 1353, 1289, 1288, 1352, 1310, 1374, 1311, 1310, 1372, 1373, 1310, 1373, 1374, 1290, 1289, 1353, 1309, 1372, 1310, 1291, 1290, 1353, 1291, 1353, 1354, 1308, 1372, 1309, 1308, 1370, 1371, 1308, 1371, 1372, 1292, 1291, 1354, 1292, 1354, 1355, 1307, 1370, 1308, 1293, 1292, 1355, 1293, 1355, 1356, 1306, 1370, 1307, 1306, 1369, 1370, 1294, 1293, 1356, 1294, 1356, 1357, 1294, 1357, 1358, 1305, 1369, 1306, 1305, 1368, 1369, 1295, 1294, 1358, 1304, 1368, 1305, 1304, 1367, 1368, 1296, 1295, 1358, 1296, 1358, 1359, 1303, 1367, 1304, 1303, 1365, 1366, 1303, 1366, 1367, 1297, 1359, 1360, 1297, 1296, 1359, 1302, 1365, 1303, 1298, 1297, 1360, 1298, 1360, 1361, 1301, 1365, 1302, 1301, 1363, 1364, 1301, 1364, 1365, 1299, 1298, 1361, 1299, 1361, 1362, 1300, 1363, 1301, 1300, 1299, 1362, 1300, 1362, 1363]
        point3f[] points = [(0.0000, 19.5000, 0.0000), (0.0000, 19.4031, 1.9416), (0.0000, 19.1134, 3.8638), (0.0000, 18.6337, 5.7477), (0.0000, 17.9688, 7.5745), (0.0000, 17.1253, 9.3260), (0.0000, 16.1117, 10.9847), (0.0000, 14.9379, 12.5344), (0.0000, 13.6156, 13.9594), (0.0000, 12.1581, 15.2457), (0.0000, 10.5797, 16.3805), (0.0000, 8.8961, 17.3525), (0.0000, 7.1241, 18.1520), (0.0000, 5.2814, 18.7712), (0.0000, 3.3861, 19.2038), (0.0000, 1.4572, 19.4455), (0.0000, -0.4861, 19.4939), (0.0000, -2.4247, 19.3487), (0.0000, -4.3392, 19.0111), (0.0000, -6.2105, 18.4846), (0.0000, -8.0201, 17.7744), (0.0000, -9.7500, 16.8875), (0.0000, -11.3830, 15.8328), (0.0000, -12.9029, 14.6207), (0.0000, -14.2945, 13.2634), (0.0000, -15.5441, 11.7742), (0.0000, -16.6392, 10.1680), (0.0000, -17.5689, 8.4607), (0.0000, -18.3240, 6.6694), (0.0000, -18.8970, 4.8118), (0.0000, -19.2822, 2.9063), (0.0000, -19.4758, 0.9720), (0.0000, -19.4758, -0.9720), (0.0000, -19.2822, -2.9063), (0.0000, -18.8970, -4.8118), (0.0000, -18.3240, -6.6694), (0.0000, -17.5689, -8.4607), (0.0000, -16.6392, -10.1680), (0.0000, -15.5441, -11.7742), (0.0000, -14.2945, -13.2634), (0.0000, -12.9029, -14.6207), (0.0000, -11.3830, -15.8328), (0.0000, -9.7500, -16.8875), (0.0000, -8.0201, -17.7744), (0.0000, -6.2105, -18.4846), (0.0000, -4.3392, -19.0111), (0.0000, -2.4247, -19.3487), (0.0000, -0.4861, -19.4939), (0.0000, 1.4572, -19.4455), (0.0000, 3.3861, -19.2038), (0.0000, 5.2814, -18.7712), (0.0000, 7.1241, -18.1520), (0.0000, 8.8961, -17.3525), (0.0000, 10.5797, -16.3805), (0.0000, 12.1581, -15.2457), (0.0000, 13.6156, -13.9594), (0.0000, 14.9379, -12.5344), (0.0000, 16.1117, -10.9847), (0.0000, 17.1253, -9.3260), (0.0000, 17.9688, -7.5745), (0.0000, 18.6337, -5.7477), (0.0000, 19.1134, -3.8638), (0.0000, 19.4031, -1.9416), (0.0000, 19.5000, 0.0000), (0.5000, 20.0000, 0.0000), (0.5000, 20.0000, 0.0000), (0.5000, 19.9006, 1.9914), (0.5000, 19.6034, 3.9629), (0.5000, 19.1115, 5.8951), (0.5000, 18.4295, 7.7687), (0.5000, 17.5644, 9.5651), (0.5000, 16.5248, 11.2664), (0.5000, 15.3209, 12.8558), (0.5000, 13.9647, 14.3173), (0.5000, 12.4698, 15.6366), (0.5000, 10.8509, 16.8005), (0.5000, 9.1242, 17.7974), (0.5000, 7.3068, 18.6175), (0.5000, 5.4168, 19.2525), (0.5000, 3.4730, 19.6962), (0.5000, 1.4946, 19.9441), (0.5000, -0.4986, 19.9938), (0.5000, -2.4869, 19.8448), (0.5000, -4.4504, 19.4986), (0.5000, -6.3697, 18.9585), (0.5000, -8.2257, 18.2301), (0.5000, -10.0000, 17.3205), (0.5000, -11.6749, 16.2388), (0.5000, -13.2337, 14.9956), (0.5000, -14.6610, 13.6035), (0.5000, -15.9427, 12.0761), (0.5000, -17.0658, 10.4287), (0.5000, -18.0194, 8.6777), (0.5000, -18.7939, 6.8404), (0.5000, -19.3815, 4.9351), (0.5000, -19.7766, 2.9808), (0.5000, -19.9751, 0.9969), (0.5000, -19.9751, -0.9969), (0.5000, -19.7766, -2.9808), (0.5000, -19.3815, -4.9351), (0.5000, -18.7939, -6.8404), (0.5000, -18.0194, -8.6777), (0.5000, -17.0658, -10.4287), (0.5000, -15.9427, -12.0761), (0.5000, -14.6610, -13.6035), (0.5000, -13.2337, -14.9956), (0.5000, -11.6749, -16.2388), (0.5000, -10.0000, -17.3205), (0.5000, -8.2257, -18.2301), (0.5000, -6.3697, -18.9585), (0.5000, -4.4504, -19.4986), (0.5000, -2.4869, -19.8448), (0.5000, -0.4986, -19.9938), (0.5000, 1.4946, -19.9441), (0.5000, 3.4730, -19.6962), (0.5000, 5.4168, -19.2525), (0.5000, 7.3068, -18.6175), (0.5000, 9.1242, -17.7974), (0.5000, 10.8509, -16.8005), (0.5000, 12.4698, -15.6366), (0.5000, 13.9647, -14.3173), (0.5000, 15.3209, -12.8558), (0.5000, 16.5248, -11.2664), (0.5000, 17.5644, -9.5651), (0.5000, 18.4295, -7.7687), (0.5000, 19.1115, -5.8951), (0.5000, 19.6034, -3.9629), (0.5000, 19.9006, -1.9914), (0.5000, 20.0000, 0.0000), (0.5000, 19.9006, 1.9914), (0.5000, 19.6034, 3.9629), (0.5000, 19.1115, 5.8951), (0.5000, 18.4295, 7.7687), (0.5000, 17.5644, 9.5651), (0.5000, 16.5248, 11.2664), (0.5000, 15.3209, 12.8558), (0.5000, 13.9647, 14.3173), (0.5000, 12.4698, 15.6366), (0.5000, 10.8509, 16.8005), (0.5000, 9.1242, 17.7974), (0.5000, 7.3068, 18.6175), (0.5000, 5.4168, 19.2525), (0.5000, 3.4730, 19.6962), (0.5000, 1.4946, 19.9441), (0.5000, -0.4986, 19.9938), (0.5000, -2.4869, 19.8448), (0.5000, -4.4504, 19.4986), (0.5000, -6.3697, 18.9585), (0.5000, -8.2257, 18.2301), (0.5000, -10.0000, 17.3205), (0.5000, -11.6749, 16.2388), (0.5000, -13.2337, 14.9956), (0.5000, -14.6610, 13.6035), (0.5000, -15.9427, 12.0761), (0.5000, -17.0658, 10.4287), (0.5000, -18.0194, 8.6777), (0.5000, -18.7939, 6.8404), (0.5000, -19.3815, 4.9351), (0.5000, -19.7766, 2.9808), (0.5000, -19.9751, 0.9969), (0.5000, -19.9751, -0.9969), (0.5000, -19.7766, -2.9808), (0.5000, -19.3815, -4.9351), (0.5000, -18.7939, -6.8404), (0.5000, -18.0194, -8.6777), (0.5000, -17.0658, -10.4287), (0.5000, -15.9427, -12.0761), (0.5000, -14.6610, -13.6035), (0.5000, -13.2337, -14.9956), (0.5000, -11.6749, -16.2388), (0.5000, -10.0000, -17.3205), (0.5000, -8.2257, -18.2301), (0.5000, -6.3697, -18.9585), (0.5000, -4.4504, -19.4986), (0.5000, -2.4869, -19.8448), (0.5000, -0.4986, -19.9938), (0.5000, 1.4946, -19.9441), (0.5000, 3.4730, -19.6962), (0.5000, 5.4168, -19.2525), (0.5000, 7.3068, -18.6175), (0.5000, 9.1242, -17.7974), (0.5000, 10.8509, -16.8005), (0.5000, 12.4698, -15.6366), (0.5000, 13.9647, -14.3173), (0.5000, 15.3209, -12.8558), (0.5000, 16.5248, -11.2664), (0.5000, 17.5644, -9.5651), (0.5000, 18.4295, -7.7687), (0.5000, 19.1115, -5.8951), (0.5000, 19.6034, -3.9629), (0.5000, 19.9006, -1.9914), (0.5000, 20.0000, 0.0000), (4.5000, 20.0000, 0.0000), (4.5000, 20.0000, 0.0000), (4.5000, 19.9006, 1.9914), (4.5000, 19.6034, 3.9629), (4.5000, 19.1115, 5.8951), (4.5000, 18.4295, 7.7687), (4.5000, 17.5644, 9.5651), (4.5000, 16.5248, 11.2664), (4.5000, 15.3209, 12.8558), (4.5000, 13.9647, 14.3173), (4.5000, 12.4698, 15.6366), (4.5000, 10.8509, 16.8005), (4.5000, 9.1242, 17.7974), (4.5000, 7.3068, 18.6175), (4.5000, 5.4168, 19.2525), (4.5000, 3.4730, 19.6962), (4.5000, 1.4946, 19.9441), (4.5000, -0.4986, 19.9938), (4.5000, -2.4869, 19.8448), (4.5000, -4.4504, 19.4986), (4.5000, -6.3697, 18.9585), (4.5000, -8.2257, 18.2301), (4.5000, -10.0000, 17.3205), (4.5000, -11.6749, 16.2388), (4.5000, -13.2337, 14.9956), (4.5000, -14.6610, 13.6035), (4.5000, -15.9427, 12.0761), (4.5000, -17.0658, 10.4287), (4.5000, -18.0194, 8.6777), (4.5000, -18.7939, 6.8404), (4.5000, -19.3815, 4.9351), (4.5000, -19.7766, 2.9808), (4.5000, -19.9751, 0.9969), (4.5000, -19.9751, -0.9969), (4.5000, -19.7766, -2.9808), (4.5000, -19.3815, -4.9351), (4.5000, -18.7939, -6.8404), (4.5000, -18.0194, -8.6777), (4.5000, -17.0658, -10.4287), (4.5000, -15.9427, -12.0761), (4.5000, -14.6610, -13.6035), (4.5000, -13.2337, -14.9956), (4.5000, -11.6749, -16.2388), (4.5000, -10.0000, -17.3205), (4.5000, -8.2257, -18.2301), (4.5000, -6.3697, -18.9585), (4.5000, -4.4504, -19.4986), (4.5000, -2.4869, -19.8448), (4.5000, -0.4986, -19.9938), (4.5000, 1.4946, -19.9441), (4.5000, 3.4730, -19.6962), (4.5000, 5.4168, -19.2525), (4.5000, 7.3068, -18.6175), (4.5000, 9.1242, -17.7974), (4.5000, 10.8509, -16.8005), (4.5000, 12.4698, -15.6366), (4.5000, 13.9647, -14.3173), (4.5000, 15.3209, -12.8558), (4.5000, 16.5248, -11.2664), (4.5000, 17.5644, -9.5651), (4.5000, 18.4295, -7.7687), (4.5000, 19.1115, -5.8951), (4.5000, 19.6034, -3.9629), (4.5000, 19.9006, -1.9914), (4.5000, 20.0000, 0.0000), (4.5000, 19.9006, 1.9914), (4.5000, 19.6034, 3.9629), (4.5000, 19.1115, 5.8951), (4.5000, 18.4295, 7.7687), (4.5000, 17.5644, 9.5651), (4.5000, 16.5248, 11.2664), (4.5000, 15.3209, 12.8558), (4.5000, 13.9647, 14.3173), (4.5000, 12.4698, 15.6366), (4.5000, 10.8509, 16.8005), (4.5000, 9.1242, 17.7974), (4.5000, 7.3068, 18.6175), (4.5000, 5.4168, 19.2525), (4.5000, 3.4730, 19.6962), (4.5000, 1.4946, 19.9441), (4.5000, -0.4986, 19.9938), (4.5000, -2.4869, 19.8448), (4.5000, -4.4504, 19.4986), (4.5000, -6.3697, 18.9585), (4.5000, -8.2257, 18.2301), (4.5000, -10.0000, 17.3205), (4.5000, -11.6749, 16.2388), (4.5000, -13.2337, 14.9956), (4.5000, -14.6610, 13.6035), (4.5000, -15.9427, 12.0761), (4.5000, -17.0658, 10.4287), (4.5000, -18.0194, 8.6777), (4.5000, -18.7939, 6.8404), (4.5000, -19.3815, 4.9351), (4.5000, -19.7766, 2.9808), (4.5000, -19.9751, 0.9969), (4.5000, -19.9751, -0.9969), (4.5000, -19.7766, -2.9808), (4.5000, -19.3815, -4.9351), (4.5000, -18.7939, -6.8404), (4.5000, -18.0194, -8.6777), (4.5000, -17.0658, -10.4287), (4.5000, -15.9427, -12.0761), (4.5000, -14.6610, -13.6035), (4.5000, -13.2337, -14.9956), (4.5000, -11.6749, -16.2388), (4.5000, -10.0000, -17.3205), (4.5000, -8.2257, -18.2301), (4.5000, -6.3697, -18.9585), (4.5000, -4.4504, -19.4986), (4.5000, -2.4869, -19.8448), (4.5000, -0.4986, -19.9938), (4.5000, 1.4946, -19.9441), (4.5000, 3.4730, -19.6962), (4.5000, 5.4168, -19.2525), (4.5000, 7.3068, -18.6175), (4.5000, 9.1242, -17.7974), (4.5000, 10.8509, -16.8005), (4.5000, 12.4698, -15.6366), (4.5000, 13.9647, -14.3173), (4.5000, 15.3209, -12.8558), (4.5000, 16.5248, -11.2664), (4.5000, 17.5644, -9.5651), (4.5000, 18.4295, -7.7687), (4.5000, 19.1115, -5.8951), (4.5000, 19.6034, -3.9629), (4.5000, 19.9006, -1.9914), (4.5000, 20.0000, 0.0000), (5.0000, 19.5000, 0.0000), (5.0000, 19.5000, 0.0000), (5.0000, 19.4031, 1.9416), (5.0000, 19.1134, 3.8638), (5.0000, 18.6337, 5.7477), (5.0000, 17.9688, 7.5745), (5.0000, 17.1253, 9.3260), (5.0000, 16.1117, 10.9847), (5.0000, 14.9379, 12.5344), (5.0000, 13.6156, 13.9594), (5.0000, 12.1581, 15.2457), (5.0000, 10.5797, 16.3805), (5.0000, 8.8961, 17.3525), (5.0000, 7.1241, 18.1520), (5.0000, 5.2814, 18.7712), (5.0000, 3.3861, 19.2038), (5.0000, 1.4572, 19.4455), (5.0000, -0.4861, 19.4939), (5.0000, -2.4247, 19.3487), (5.0000, -4.3392, 19.0111), (5.0000, -6.2105, 18.4846), (5.0000, -8.0201, 17.7744), (5.0000, -9.7500, 16.8875), (5.0000, -11.3830, 15.8328), (5.0000, -12.9029, 14.6207), (5.0000, -14.2945, 13.2634), (5.0000, -15.5441, 11.7742), (5.0000, -16.6392, 10.1680), (5.0000, -17.5689, 8.4607), (5.0000, -18.3240, 6.6694), (5.0000, -18.8970, 4.8118), (5.0000, -19.2822, 2.9063), (5.0000, -19.4758, 0.9720), (5.0000, -19.4758, -0.9720), (5.0000, -19.2822, -2.9063), (5.0000, -18.8970, -4.8118), (5.0000, -18.3240, -6.6694), (5.0000, -17.5689, -8.4607), (5.0000, -16.6392, -10.1680), (5.0000, -15.5441, -11.7742), (5.0000, -14.2945, -13.2634), (5.0000, -12.9029, -14.6207), (5.0000, -11.3830, -15.8328), (5.0000, -9.7500, -16.8875), (5.0000, -8.0201, -17.7744), (5.0000, -6.2105, -18.4846), (5.0000, -4.3392, -19.0111), (5.0000, -2.4247, -19.3487), (5.0000, -0.4861, -19.4939), (5.0000, 1.4572, -19.4455), (5.0000, 3.3861, -19.2038), (5.0000, 5.2814, -18.7712), (5.0000, 7.1241, -18.1520), (5.0000, 8.8961, -17.3525), (5.0000, 10.5797, -16.3805), (5.0000, 12.1581, -15.2457), (5.0000, 13.6156, -13.9594), (5.0000, 14.9379, -12.5344), (5.0000, 16.1117, -10.9847), (5.0000, 17.1253, -9.3260), (5.0000, 17.9688, -7.5745), (5.0000, 18.6337, -5.7477), (5.0000, 19.1134, -3.8638), (5.0000, 19.4031, -1.9416), (5.0000, 19.5000, 0.0000), (5.0000, 19.4031, 1.9416), (5.0000, 19.1134, 3.8638), (5.0000, 18.6337, 5.7477), (5.0000, 17.9688, 7.5745), (5.0000, 17.1253, 9.3260), (5.0000, 16.1117, 10.9847), (5.0000, 14.9379, 12.5344), (5.0000, 13.6156, 13.9594), (5.0000, 12.1581, 15.2457), (5.0000, 10.5797, 16.3805), (5.0000, 8.8961, 17.3525), (5.0000, 7.1241, 18.1520), (5.0000, 5.2814, 18.7712), (5.0000, 3.3861, 19.2038), (5.0000, 1.4572, 19.4455), (5.0000, -0.4861, 19.4939), (5.0000, -2.4247, 19.3487), (5.0000, -4.3392, 19.0111), (5.0000, -6.2105, 18.4846), (5.0000, -8.0201, 17.7744), (5.0000, -9.7500, 16.8875), (5.0000, -11.3830, 15.8328), (5.0000, -12.9029, 14.6207), (5.0000, -14.2945, 13.2634), (5.0000, -15.5441, 11.7742), (5.0000, -16.6392, 10.1680), (5.0000, -17.5689, 8.4607), (5.0000, -18.3240, 6.6694), (5.0000, -18.8970, 4.8118), (5.0000, -19.2822, 2.9063), (5.0000, -19.4758, 0.9720), (5.0000, -19.4758, -0.9720), (5.0000, -19.2822, -2.9063), (5.0000, -18.8970, -4.8118), (5.0000, -18.3240, -6.6694), (5.0000, -17.5689, -8.4607), (5.0000, -16.6392, -10.1680), (5.0000, -15.5441, -11.7742), (5.0000, -14.2945, -13.2634), (5.0000, -12.9029, -14.6207), (5.0000, -11.3830, -15.8328), (5.0000, -9.7500, -16.8875), (5.0000, -8.0201, -17.7744), (5.0000, -6.2105, -18.4846), (5.0000, -4.3392, -19.0111), (5.0000, -2.4247, -19.3487), (5.0000, -0.4861, -19.4939), (5.0000, 1.4572, -19.4455), (5.0000, 3.3861, -19.2038), (5.0000, 5.2814, -18.7712), (5.0000, 7.1241, -18.1520), (5.0000, 8.8961, -17.3525), (5.0000, 10.5797, -16.3805), (5.0000, 12.1581, -15.2457), (5.0000, 13.6156, -13.9594), (5.0000, 14.9379, -12.5344), (5.0000, 16.1117, -10.9847), (5.0000, 17.1253, -9.3260), (5.0000, 17.9688, -7.5745), (5.0000, 18.6337, -5.7477), (5.0000, 19.1134, -3.8638), (5.0000, 19.4031, -1.9416), (5.0000, 15.0000, 0.0000), (5.0000, 14.9255, 1.4935), (5.0000, 14.7026, 2.9722), (5.0000, 14.3336, 4.4213), (5.0000, 13.8221, 5.8265), (5.0000, 13.1733, 7.1738), (5.0000, 12.3936, 8.4498), (5.0000, 11.4907, 9.6418), (5.0000, 10.4736, 10.7380), (5.0000, 9.3523, 11.7275), (5.0000, 8.1382, 12.6004), (5.0000, 6.8432, 13.3481), (5.0000, 5.4801, 13.9631), (5.0000, 4.0626, 14.4394), (5.0000, 2.6047, 14.7721), (5.0000, 1.1210, 14.9581), (5.0000, -0.3740, 14.9953), (5.0000, -1.8652, 14.8836), (5.0000, -3.3378, 14.6239), (5.0000, -4.7773, 14.2189), (5.0000, -6.1693, 13.6726), (5.0000, -7.5000, 12.9904), (5.0000, -8.7562, 12.1791), (5.0000, -9.9253, 11.2467), (5.0000, -10.9958, 10.2026), (5.0000, -11.9570, 9.0571), (5.0000, -12.7994, 7.8215), (5.0000, -13.5145, 6.5083), (5.0000, -14.0954, 5.1303), (5.0000, -14.5362, 3.7014), (5.0000, -14.8325, 2.2356), (5.0000, -14.9814, 0.7477), (5.0000, -14.9814, -0.7477), (5.0000, -14.8325, -2.2356), (5.0000, -14.5362, -3.7014), (5.0000, -14.0954, -5.1303), (5.0000, -13.5145, -6.5083), (5.0000, -12.7994, -7.8215), (5.0000, -11.9570, -9.0571), (5.0000, -10.9958, -10.2026), (5.0000, -9.9253, -11.2467), (5.0000, -8.7562, -12.1791), (5.0000, -7.5000, -12.9904), (5.0000, -6.1693, -13.6726), (5.0000, -4.7773, -14.2189), (5.0000, -3.3378, -14.6239), (5.0000, -1.8652, -14.8836), (5.0000, -0.3740, -14.9953), (5.0000, 1.1210, -14.9581), (5.0000, 2.6047, -14.7721), (5.0000, 4.0626, -14.4394), (5.0000, 5.4801, -13.9631), (5.0000, 6.8432, -13.3481), (5.0000, 8.1382, -12.6004), (5.0000, 9.3523, -11.7275), (5.0000, 10.4736, -10.7380), (5.0000, 11.4907, -9.6418), (5.0000, 12.3936, -8.4498), (5.0000, 13.1733, -7.1738), (5.0000, 13.8221, -5.8265), (5.0000, 14.3336, -4.4213), (5.0000, 14.7026, -2.9722), (5.0000, 14.9255, -1.4935), (5.0000, 15.0000, 0.0000), (5.0000, 14.9255, 1.4935), (5.0000, 14.7026, 2.9722), (5.0000, 14.3336, 4.4213), (5.0000, 13.8221, 5.8265), (5.0000, 13.1733, 7.1738), (5.0000, 12.3936, 8.4498), (5.0000, 11.4907, 9.6418), (5.0000, 10.4736, 10.7380), (5.0000, 9.3523, 11.7275), (5.0000, 8.1382, 12.6004), (5.0000, 6.8432, 13.3481), (5.0000, 5.4801, 13.9631), (5.0000, 4.0626, 14.4394), (5.0000, 2.6047, 14.7721), (5.0000, 1.1210, 14.9581), (5.0000, -0.3740, 14.9953), (5.0000, -1.8652, 14.8836), (5.0000, -3.3378, 14.6239), (5.0000, -4.7773, 14.2189), (5.0000, -6.1693, 13.6726), (5.0000, -7.5000, 12.9904), (5.0000, -8.7562, 12.1791), (5.0000, -9.9253, 11.2467), (5.0000, -10.9958, 10.2026), (5.0000, -11.9570, 9.0571), (5.0000, -12.7994, 7.8215), (5.0000, -13.5145, 6.5083), (5.0000, -14.0954, 5.1303), (5.0000, -14.5362, 3.7014), (5.0000, -14.8325, 2.2356), (5.0000, -14.9814, 0.7477), (5.0000, -14.9814, -0.7477), (5.0000, -14.8325, -2.2356), (5.0000, -14.5362, -3.7014), (5.0000, -14.0954, -5.1303), (5.0000, -13.5145, -6.5083), (5.0000, -12.7994, -7.8215), (5.0000, -11.9570, -9.0571), (5.0000, -10.9958, -10.2026), (5.0000, -9.9253, -11.2467), (5.0000, -8.7562, -12.1791), (5.0000, -7.5000, -12.9904), (5.0000, -6.1693, -13.6726), (5.0000, -4.7773, -14.2189), (5.0000, -3.3378, -14.6239), (5.0000, -1.8652, -14.8836), (5.0000, -0.3740, -14.9953), (5.0000, 1.1210, -14.9581), (5.0000, 2.6047, -14.7721), (5.0000, 4.0626, -14.4394), (5.0000, 5.4801, -13.9631), (5.0000, 6.8432, -13.3481), (5.0000, 8.1382, -12.6004), (5.0000, 9.3523, -11.7275), (5.0000, 10.4736, -10.7380), (5.0000, 11.4907, -9.6418), (5.0000, 12.3936, -8.4498), (5.0000, 13.1733, -7.1738), (5.0000, 13.8221, -5.8265), (5.0000, 14.3336, -4.4213), (5.0000, 14.7026, -2.9722), (5.0000, 14.9255, -1.4935), (5.0000, 15.0000, 0.0000), (29.5000, 15.0000, 0.0000), (29.5000, 15.0000, 0.0000), (29.5000, 14.9255, 1.4935), (29.5000, 14.7026, 2.9722), (29.5000, 14.3336, 4.4213), (29.5000, 13.8221, 5.8265), (29.5000, 13.1733, 7.1738), (29.5000, 12.3936, 8.4498), (29.5000, 11.4907, 9.6418), (29.5000, 10.4736, 10.7380), (29.5000, 9.3523, 11.7275), (29.5000, 8.1382, 12.6004), (29.5000, 6.8432, 13.3481), (29.5000, 5.4801, 13.9631), (29.5000, 4.0626, 14.4394), (29.5000, 2.6047, 14.7721), (29.5000, 1.1210, 14.9581), (29.5000, -0.3740, 14.9953), (29.5000, -1.8652, 14.8836), (29.5000, -3.3378, 14.6239), (29.5000, -4.7773, 14.2189), (29.5000, -6.1693, 13.6726), (29.5000, -7.5000, 12.9904), (29.5000, -8.7562, 12.1791), (29.5000, -9.9253, 11.2467), (29.5000, -10.9958, 10.2026), (29.5000, -11.9570, 9.0571), (29.5000, -12.7994, 7.8215), (29.5000, -13.5145, 6.5083), (29.5000, -14.0954, 5.1303), (29.5000, -14.5362, 3.7014), (29.5000, -14.8325, 2.2356), (29.5000, -14.9814, 0.7477), (29.5000, -14.9814, -0.7477), (29.5000, -14.8325, -2.2356), (29.5000, -14.5362, -3.7014), (29.5000, -14.0954, -5.1303), (29.5000, -13.5145, -6.5083), (29.5000, -12.7994, -7.8215), (29.5000, -11.9570, -9.0571), (29.5000, -10.9958, -10.2026), (29.5000, -9.9253, -11.2467), (29.5000, -8.7562, -12.1791), (29.5000, -7.5000, -12.9904), (29.5000, -6.1693, -13.6726), (29.5000, -4.7773, -14.2189), (29.5000, -3.3378, -14.6239), (29.5000, -1.8652, -14.8836), (29.5000, -0.3740, -14.9953), (29.5000, 1.1210, -14.9581), (29.5000, 2.6047, -14.7721), (29.5000, 4.0626, -14.4394), (29.5000, 5.4801, -13.9631), (29.5000, 6.8432, -13.3481), (29.5000, 8.1382, -12.6004), (29.5000, 9.3523, -11.7275), (29.5000, 10.4736, -10.7380), (29.5000, 11.4907, -9.6418), (29.5000, 12.3936, -8.4498), (29.5000, 13.1733, -7.1738), (29.5000, 13.8221, -5.8265), (29.5000, 14.3336, -4.4213), (29.5000, 14.7026, -2.9722), (29.5000, 14.9255, -1.4935), (29.5000, 15.0000, 0.0000), (29.5000, 14.9255, 1.4935), (29.5000, 14.7026, 2.9722), (29.5000, 14.3336, 4.4213), (29.5000, 13.8221, 5.8265), (29.5000, 13.1733, 7.1738), (29.5000, 12.3936, 8.4498), (29.5000, 11.4907, 9.6418), (29.5000, 10.4736, 10.7380), (29.5000, 9.3523, 11.7275), (29.5000, 8.1382, 12.6004), (29.5000, 6.8432, 13.3481), (29.5000, 5.4801, 13.9631), (29.5000, 4.0626, 14.4394), (29.5000, 2.6047, 14.7721), (29.5000, 1.1210, 14.9581), (29.5000, -0.3740, 14.9953), (29.5000, -1.8652, 14.8836), (29.5000, -3.3378, 14.6239), (29.5000, -4.7773, 14.2189), (29.5000, -6.1693, 13.6726), (29.5000, -7.5000, 12.9904), (29.5000, -8.7562, 12.1791), (29.5000, -9.9253, 11.2467), (29.5000, -10.9958, 10.2026), (29.5000, -11.9570, 9.0571), (29.5000, -12.7994, 7.8215), (29.5000, -13.5145, 6.5083), (29.5000, -14.0954, 5.1303), (29.5000, -14.5362, 3.7014), (29.5000, -14.8325, 2.2356), (29.5000, -14.9814, 0.7477), (29.5000, -14.9814, -0.7477), (29.5000, -14.8325, -2.2356), (29.5000, -14.5362, -3.7014), (29.5000, -14.0954, -5.1303), (29.5000, -13.5145, -6.5083), (29.5000, -12.7994, -7.8215), (29.5000, -11.9570, -9.0571), (29.5000, -10.9958, -10.2026), (29.5000, -9.9253, -11.2467), (29.5000, -8.7562, -12.1791), (29.5000, -7.5000, -12.9904), (29.5000, -6.1693, -13.6726), (29.5000, -4.7773, -14.2189), (29.5000, -3.3378, -14.6239), (29.5000, -1.8652, -14.8836), (29.5000, -0.3740, -14.9953), (29.5000, 1.1210, -14.9581), (29.5000, 2.6047, -14.7721), (29.5000, 4.0626, -14.4394), (29.5000, 5.4801, -13.9631), (29.5000, 6.8432, -13.3481), (29.5000, 8.1382, -12.6004), (29.5000, 9.3523, -11.7275), (29.5000, 10.4736, -10.7380), (29.5000, 11.4907, -9.6418), (29.5000, 12.3936, -8.4498), (29.5000, 13.1733, -7.1738), (29.5000, 13.8221, -5.8265), (29.5000, 14.3336, -4.4213), (29.5000, 14.7026, -2.9722), (29.5000, 14.9255, -1.4935), (29.5000, 15.0000, 0.0000), (30.0000, 14.5000, 0.0000), (30.0000, 14.5000, 0.0000), (30.0000, 14.4279, 1.4437), (30.0000, 14.2125, 2.8731), (30.0000, 13.8558, 4.2740), (30.0000, 13.3614, 5.6323), (30.0000, 12.7342, 6.9347), (30.0000, 11.9805, 8.1681), (30.0000, 11.1076, 9.3204), (30.0000, 10.1244, 10.3801), (30.0000, 9.0406, 11.3366), (30.0000, 7.8669, 12.1804), (30.0000, 6.6151, 12.9031), (30.0000, 5.2974, 13.4977), (30.0000, 3.9272, 13.9581), (30.0000, 2.5179, 14.2797), (30.0000, 1.0836, 14.4595), (30.0000, -0.3615, 14.4955), (30.0000, -1.8030, 14.3875), (30.0000, -3.2266, 14.1365), (30.0000, -4.6181, 13.7449), (30.0000, -5.9637, 13.2168), (30.0000, -7.2500, 12.5574), (30.0000, -8.4643, 11.7731), (30.0000, -9.5944, 10.8718), (30.0000, -10.6293, 9.8625), (30.0000, -11.5584, 8.7552), (30.0000, -12.3727, 7.5608), (30.0000, -13.0640, 6.2913), (30.0000, -13.6255, 4.9593), (30.0000, -14.0516, 3.5780), (30.0000, -14.3380, 2.1611), (30.0000, -14.4820, 0.7228), (30.0000, -14.4820, -0.7228), (30.0000, -14.3380, -2.1611), (30.0000, -14.0516, -3.5780), (30.0000, -13.6255, -4.9593), (30.0000, -13.0640, -6.2913), (30.0000, -12.3727, -7.5608), (30.0000, -11.5584, -8.7552), (30.0000, -10.6293, -9.8625), (30.0000, -9.5944, -10.8718), (30.0000, -8.4643, -11.7731), (30.0000, -7.2500, -12.5574), (30.0000, -5.9637, -13.2168), (30.0000, -4.6181, -13.7449), (30.0000, -3.2266, -14.1365), (30.0000, -1.8030, -14.3875), (30.0000, -0.3615, -14.4955), (30.0000, 1.0836, -14.4595), (30.0000, 2.5179, -14.2797), (30.0000, 3.9272, -13.9581), (30.0000, 5.2974, -13.4977), (30.0000, 6.6151, -12.9031), (30.0000, 7.8669, -12.1804), (30.0000, 9.0406, -11.3366), (30.0000, 10.1244, -10.3801), (30.0000, 11.1076, -9.3204), (30.0000, 11.9805, -8.1681), (30.0000, 12.7342, -6.9347), (30.0000, 13.3614, -5.6323), (30.0000, 13.8558, -4.2740), (30.0000, 14.2125, -2.8731), (30.0000, 14.4279, -1.4437), (30.0000, 14.5000, 0.0000), (30.0000, 14.4279, 1.4437), (30.0000, 14.2125, 2.8731), (30.0000, 13.8558, 4.2740), (30.0000, 13.3614, 5.6323), (30.0000, 12.7342, 6.9347), (30.0000, 11.9805, 8.1681), (30.0000, 11.1076, 9.3204), (30.0000, 10.1244, 10.3801), (30.0000, 9.0406, 11.3366), (30.0000, 7.8669, 12.1804), (30.0000, 6.6151, 12.9031), (30.0000, 5.2974, 13.4977), (30.0000, 3.9272, 13.9581), (30.0000, 2.5179, 14.2797), (30.0000, 1.0836, 14.4595), (30.0000, -0.3615, 14.4955), (30.0000, -1.8030, 14.3875), (30.0000, -3.2266, 14.1365), (30.0000, -4.6181, 13.7449), (30.0000, -5.9637, 13.2168), (30.0000, -7.2500, 12.5574), (30.0000, -8.4643, 11.7731), (30.0000, -9.5944, 10.8718), (30.0000, -10.6293, 9.8625), (30.0000, -11.5584, 8.7552), (30.0000, -12.3727, 7.5608), (30.0000, -13.0640, 6.2913), (30.0000, -13.6255, 4.9593), (30.0000, -14.0516, 3.5780), (30.0000, -14.3380, 2.1611), (30.0000, -14.4820, 0.7228), (30.0000, -14.4820, -0.7228), (30.0000, -14.3380, -2.1611), (30.0000, -14.0516, -3.5780), (30.0000, -13.6255, -4.9593), (30.0000, -13.0640, -6.2913), (30.0000, -12.3727, -7.5608), (30.0000, -11.5584, -8.7552), (30.0000, -10.6293, -9.8625), (30.0000, -9.5944, -10.8718), (30.0000, -8.4643, -11.7731), (30.0000, -7.2500, -12.5574), (30.0000, -5.9637, -13.2168), (30.0000, -4.6181, -13.7449), (30.0000, -3.2266, -14.1365), (30.0000, -1.8030, -14.3875), (30.0000, -0.3615, -14.4955), (30.0000, 1.0836, -14.4595), (30.0000, 2.5179, -14.2797), (30.0000, 3.9272, -13.9581), (30.0000, 5.2974, -13.4977), (30.0000, 6.6151, -12.9031), (30.0000, 7.8669, -12.1804), (30.0000, 9.0406, -11.3366), (30.0000, 10.1244, -10.3801), (30.0000, 11.1076, -9.3204), (30.0000, 11.9805, -8.1681), (30.0000, 12.7342, -6.9347), (30.0000, 13.3614, -5.6323), (30.0000, 13.8558, -4.2740), (30.0000, 14.2125, -2.8731), (30.0000, 14.4279, -1.4437), (30.0000, 11.5000, 0.0000), (30.0000, 11.4429, 1.1450), (30.0000, 11.2720, 2.2787), (30.0000, 10.9891, 3.3897), (30.0000, 10.5970, 4.4670), (30.0000, 10.0995, 5.4999), (30.0000, 9.5017, 6.4782), (30.0000, 8.8095, 7.3921), (30.0000, 8.0297, 8.2325), (30.0000, 7.1701, 8.9911), (30.0000, 6.2393, 9.6603), (30.0000, 5.2464, 10.2335), (30.0000, 4.2014, 10.7050), (30.0000, 3.1147, 11.0702), (30.0000, 1.9970, 11.3253), (30.0000, 0.8594, 11.4678), (30.0000, -0.2867, 11.4964), (30.0000, -1.4300, 11.4108), (30.0000, -2.5590, 11.2117), (30.0000, -3.6626, 10.9012), (30.0000, -4.7298, 10.4823), (30.0000, -5.7500, 9.9593), (30.0000, -6.7131, 9.3373), (30.0000, -7.6094, 8.6225), (30.0000, -8.4301, 7.8220), (30.0000, -9.1670, 6.9438), (30.0000, -9.8128, 5.9965), (30.0000, -10.3611, 4.9897), (30.0000, -10.8065, 3.9332), (30.0000, -11.1444, 2.8377), (30.0000, -11.3716, 1.7140), (30.0000, -11.4857, 0.5732), (30.0000, -11.4857, -0.5732), (30.0000, -11.3716, -1.7140), (30.0000, -11.1444, -2.8377), (30.0000, -10.8065, -3.9332), (30.0000, -10.3611, -4.9897), (30.0000, -9.8128, -5.9965), (30.0000, -9.1670, -6.9438), (30.0000, -8.4301, -7.8220), (30.0000, -7.6094, -8.6225), (30.0000, -6.7131, -9.3373), (30.0000, -5.7500, -9.9593), (30.0000, -4.7298, -10.4823), (30.0000, -3.6626, -10.9012), (30.0000, -2.5590, -11.2117), (30.0000, -1.4300, -11.4108), (30.0000, -0.2867, -11.4964), (30.0000, 0.8594, -11.4678), (30.0000, 1.9970, -11.3253), (30.0000, 3.1147, -11.0702), (30.0000, 4.2014, -10.7050), (30.0000, 5.2464, -10.2335), (30.0000, 6.2393, -9.6603), (30.0000, 7.1701, -8.9911), (30.0000, 8.0297, -8.2325), (30.0000, 8.8095, -7.3921), (30.0000, 9.5017, -6.4782), (30.0000, 10.0995, -5.4999), (30.0000, 10.5970, -4.4670), (30.0000, 10.9891, -3.3897), (30.0000, 11.2720, -2.2787), (30.0000, 11.4429, -1.1450), (30.0000, 11.5000, 0.0000), (30.0000, 11.4429, 1.1450), (30.0000, 11.2720, 2.2787), (30.0000, 10.9891, 3.3897), (30.0000, 10.5970, 4.4670), (30.0000, 10.0995, 5.4999), (30.0000, 9.5017, 6.4782), (30.0000, 8.8095, 7.3921), (30.0000, 8.0297, 8.2325), (30.0000, 7.1701, 8.9911), (30.0000, 6.2393, 9.6603), (30.0000, 5.2464, 10.2335), (30.0000, 4.2014, 10.7050), (30.0000, 3.1147, 11.0702), (30.0000, 1.9970, 11.3253), (30.0000, 0.8594, 11.4678), (30.0000, -0.2867, 11.4964), (30.0000, -1.4300, 11.4108), (30.0000, -2.5590, 11.2117), (30.0000, -3.6626, 10.9012), (30.0000, -4.7298, 10.4823), (30.0000, -5.7500, 9.9593), (30.0000, -6.7131, 9.3373), (30.0000, -7.6094, 8.6225), (30.0000, -8.4301, 7.8220), (30.0000, -9.1670, 6.9438), (30.0000, -9.8128, 5.9965), (30.0000, -10.3611, 4.9897), (30.0000, -10.8065, 3.9332), (30.0000, -11.1444, 2.8377), (30.0000, -11.3716, 1.7140), (30.0000, -11.4857, 0.5732), (30.0000, -11.4857, -0.5732), (30.0000, -11.3716, -1.7140), (30.0000, -11.1444, -2.8377), (30.0000, -10.8065, -3.9332), (30.0000, -10.3611, -4.9897), (30.0000, -9.8128, -5.9965), (30.0000, -9.1670, -6.9438), (30.0000, -8.4301, -7.8220), (30.0000, -7.6094, -8.6225), (30.0000, -6.7131, -9.3373), (30.0000, -5.7500, -9.9593), (30.0000, -4.7298, -10.4823), (30.0000, -3.6626, -10.9012), (30.0000, -2.5590, -11.2117), (30.0000, -1.4300, -11.4108), (30.0000, -0.2867, -11.4964), (30.0000, 0.8594, -11.4678), (30.0000, 1.9970, -11.3253), (30.0000, 3.1147, -11.0702), (30.0000, 4.2014, -10.7050), (30.0000, 5.2464, -10.2335), (30.0000, 6.2393, -9.6603), (30.0000, 7.1701, -8.9911), (30.0000, 8.0297, -8.2325), (30.0000, 8.8095, -7.3921), (30.0000, 9.5017, -6.4782), (30.0000, 10.0995, -5.4999), (30.0000, 10.5970, -4.4670), (30.0000, 10.9891, -3.3897), (30.0000, 11.2720, -2.2787), (30.0000, 11.4429, -1.1450), (30.0000, 11.5000, 0.0000), (29.5000, 11.0000, 0.0000), (29.5000, 11.0000, 0.0000), (29.5000, 10.9453, 1.0952), (29.5000, 10.7819, 2.1796), (29.5000, 10.5113, 3.2423), (29.5000, 10.1362, 4.2728), (29.5000, 9.6604, 5.2608), (29.5000, 9.0886, 6.1965), (29.5000, 8.4265, 7.0707), (29.5000, 7.6806, 7.8745), (29.5000, 6.8584, 8.6001), (29.5000, 5.9680, 9.2403), (29.5000, 5.0183, 9.7886), (29.5000, 4.0188, 10.2396), (29.5000, 2.9792, 10.5889), (29.5000, 1.9101, 10.8329), (29.5000, 0.8220, 10.9692), (29.5000, -0.2742, 10.9966), (29.5000, -1.3678, 10.9146), (29.5000, -2.4477, 10.7242), (29.5000, -3.5034, 10.4272), (29.5000, -4.5242, 10.0266), (29.5000, -5.5000, 9.5263), (29.5000, -6.4212, 8.9313), (29.5000, -7.2785, 8.2476), (29.5000, -8.0636, 7.4819), (29.5000, -8.7685, 6.6418), (29.5000, -9.3862, 5.7358), (29.5000, -9.9107, 4.7727), (29.5000, -10.3366, 3.7622), (29.5000, -10.6599, 2.7143), (29.5000, -10.8771, 1.6395), (29.5000, -10.9863, 0.5483), (29.5000, -10.9863, -0.5483), (29.5000, -10.8771, -1.6395), (29.5000, -10.6599, -2.7143), (29.5000, -10.3366, -3.7622), (29.5000, -9.9107, -4.7727), (29.5000, -9.3862, -5.7358), (29.5000, -8.7685, -6.6418), (29.5000, -8.0636, -7.4819), (29.5000, -7.2785, -8.2476), (29.5000, -6.4212, -8.9313), (29.5000, -5.5000, -9.5263), (29.5000, -4.5242, -10.0266), (29.5000, -3.5034, -10.4272), (29.5000, -2.4477, -10.7242), (29.5000, -1.3678, -10.9146), (29.5000, -0.2742, -10.9966), (29.5000, 0.8220, -10.9692), (29.5000, 1.9101, -10.8329), (29.5000, 2.9792, -10.5889), (29.5000, 4.0188, -10.2396), (29.5000, 5.0183, -9.7886), (29.5000, 5.9680, -9.2403), (29.5000, 6.8584, -8.6001), (29.5000, 7.6806, -7.8745), (29.5000, 8.4265, -7.0707), (29.5000, 9.0886, -6.1965), (29.5000, 9.6604, -5.2608), (29.5000, 10.1362, -4.2728), (29.5000, 10.5113, -3.2423), (29.5000, 10.7819, -2.1796), (29.5000, 10.9453, -1.0952), (29.5000, 11.0000, 0.0000), (29.5000, 10.9453, 1.0952), (29.5000, 10.7819, 2.1796), (29.5000, 10.5113, 3.2423), (29.5000, 10.1362, 4.2728), (29.5000, 9.6604, 5.2608), (29.5000, 9.0886, 6.1965), (29.5000, 8.4265, 7.0707), (29.5000, 7.6806, 7.8745), (29.5000, 6.8584, 8.6001), (29.5000, 5.9680, 9.2403), (29.5000, 5.0183, 9.7886), (29.5000, 4.0188, 10.2396), (29.5000, 2.9792, 10.5889), (29.5000, 1.9101, 10.8329), (29.5000, 0.8220, 10.9692), (29.5000, -0.2742, 10.9966), (29.5000, -1.3678, 10.9146), (29.5000, -2.4477, 10.7242), (29.5000, -3.5034, 10.4272), (29.5000, -4.5242, 10.0266), (29.5000, -5.5000, 9.5263), (29.5000, -6.4212, 8.9313), (29.5000, -7.2785, 8.2476), (29.5000, -8.0636, 7.4819), (29.5000, -8.7685, 6.6418), (29.5000, -9.3862, 5.7358), (29.5000, -9.9107, 4.7727), (29.5000, -10.3366, 3.7622), (29.5000, -10.6599, 2.7143), (29.5000, -10.8771, 1.6395), (29.5000, -10.9863, 0.5483), (29.5000, -10.9863, -0.5483), (29.5000, -10.8771, -1.6395), (29.5000, -10.6599, -2.7143), (29.5000, -10.3366, -3.7622), (29.5000, -9.9107, -4.7727), (29.5000, -9.3862, -5.7358), (29.5000, -8.7685, -6.6418), (29.5000, -8.0636, -7.4819), (29.5000, -7.2785, -8.2476), (29.5000, -6.4212, -8.9313), (29.5000, -5.5000, -9.5263), (29.5000, -4.5242, -10.0266), (29.5000, -3.5034, -10.4272), (29.5000, -2.4477, -10.7242), (29.5000, -1.3678, -10.9146), (29.5000, -0.2742, -10.9966), (29.5000, 0.8220, -10.9692), (29.5000, 1.9101, -10.8329), (29.5000, 2.9792, -10.5889), (29.5000, 4.0188, -10.2396), (29.5000, 5.0183, -9.7886), (29.5000, 5.9680, -9.2403), (29.5000, 6.8584, -8.6001), (29.5000, 7.6806, -7.8745), (29.5000, 8.4265, -7.0707), (29.5000, 9.0886, -6.1965), (29.5000, 9.6604, -5.2608), (29.5000, 10.1362, -4.2728), (29.5000, 10.5113, -3.2423), (29.5000, 10.7819, -2.1796), (29.5000, 10.9453, -1.0952), (29.5000, 11.0000, 0.0000), (0.5000, 11.0000, 0.0000), (0.5000, 11.0000, 0.0000), (0.5000, 10.9453, 1.0952), (0.5000, 10.7819, 2.1796), (0.5000, 10.5113, 3.2423), (0.5000, 10.1362, 4.2728), (0.5000, 9.6604, 5.2608), (0.5000, 9.0886, 6.1965), (0.5000, 8.4265, 7.0707), (0.5000, 7.6806, 7.8745), (0.5000, 6.8584, 8.6001), (0.5000, 5.9680, 9.2403), (0.5000, 5.0183, 9.7886), (0.5000, 4.0188, 10.2396), (0.5000, 2.9792, 10.5889), (0.5000, 1.9101, 10.8329), (0.5000, 0.8220, 10.9692), (0.5000, -0.2742, 10.9966), (0.5000, -1.3678, 10.9146), (0.5000, -2.4477, 10.7242), (0.5000, -3.5034, 10.4272), (0.5000, -4.5242, 10.0266), (0.5000, -5.5000, 9.5263), (0.5000, -6.4212, 8.9313), (0.5000, -7.2785, 8.2476), (0.5000, -8.0636, 7.4819), (0.5000, -8.7685, 6.6418), (0.5000, -9.3862, 5.7358), (0.5000, -9.9107, 4.7727), (0.5000, -10.3366, 3.7622), (0.5000, -10.6599, 2.7143), (0.5000, -10.8771, 1.6395), (0.5000, -10.9863, 0.5483), (0.5000, -10.9863, -0.5483), (0.5000, -10.8771, -1.6395), (0.5000, -10.6599, -2.7143), (0.5000, -10.3366, -3.7622), (0.5000, -9.9107, -4.7727), (0.5000, -9.3862, -5.7358), (0.5000, -8.7685, -6.6418), (0.5000, -8.0636, -7.4819), (0.5000, -7.2785, -8.2476), (0.5000, -6.4212, -8.9313), (0.5000, -5.5000, -9.5263), (0.5000, -4.5242, -10.0266), (0.5000, -3.5034, -10.4272), (0.5000, -2.4477, -10.7242), (0.5000, -1.3678, -10.9146), (0.5000, -0.2742, -10.9966), (0.5000, 0.8220, -10.9692), (0.5000, 1.9101, -10.8329), (0.5000, 2.9792, -10.5889), (0.5000, 4.0188, -10.2396), (0.5000, 5.0183, -9.7886), (0.5000, 5.9680, -9.2403), (0.5000, 6.8584, -8.6001), (0.5000, 7.6806, -7.8745), (0.5000, 8.4265, -7.0707), (0.5000, 9.0886, -6.1965), (0.5000, 9.6604, -5.2608), (0.5000, 10.1362, -4.2728), (0.5000, 10.5113, -3.2423), (0.5000, 10.7819, -2.1796), (0.5000, 10.9453, -1.0952), (0.5000, 11.0000, 0.0000), (0.5000, 10.9453, 1.0952), (0.5000, 10.7819, 2.1796), (0.5000, 10.5113, 3.2423), (0.5000, 10.1362, 4.2728), (0.5000, 9.6604, 5.2608), (0.5000, 9.0886, 6.1965), (0.5000, 8.4265, 7.0707), (0.5000, 7.6806, 7.8745), (0.5000, 6.8584, 8.6001), (0.5000, 5.9680, 9.2403), (0.5000, 5.0183, 9.7886), (0.5000, 4.0188, 10.2396), (0.5000, 2.9792, 10.5889), (0.5000, 1.9101, 10.8329), (0.5000, 0.8220, 10.9692), (0.5000, -0.2742, 10.9966), (0.5000, -1.3678, 10.9146), (0.5000, -2.4477, 10.7242), (0.5000, -3.5034, 10.4272), (0.5000, -4.5242, 10.0266), (0.5000, -5.5000, 9.5263), (0.5000, -6.4212, 8.9313), (0.5000, -7.2785, 8.2476), (0.5000, -8.0636, 7.4819), (0.5000, -8.7685, 6.6418), (0.5000, -9.3862, 5.7358), (0.5000, -9.9107, 4.7727), (0.5000, -10.3366, 3.7622), (0.5000, -10.6599, 2.7143), (0.5000, -10.8771, 1.6395), (0.5000, -10.9863, 0.5483), (0.5000, -10.9863, -0.5483), (0.5000, -10.8771, -1.6395), (0.5000, -10.6599, -2.7143), (0.5000, -10.3366, -3.7622), (0.5000, -9.9107, -4.7727), (0.5000, -9.3862, -5.7358), (0.5000, -8.7685, -6.6418), (0.5000, -8.0636, -7.4819), (0.5000, -7.2785, -8.2476), (0.5000, -6.4212, -8.9313), (0.5000, -5.5000, -9.5263), (0.5000, -4.5242, -10.0266), (0.5000, -3.5034, -10.4272), (0.5000, -2.4477, -10.7242), (0.5000, -1.3678, -10.9146), (0.5000, -0.2742, -10.9966), (0.5000, 0.8220, -10.9692), (0.5000, 1.9101, -10.8329), (0.5000, 2.9792, -10.5889), (0.5000, 4.0188, -10.2396), (0.5000, 5.0183, -9.7886), (0.5000, 5.9680, -9.2403), (0.5000, 6.8584, -8.6001), (0.5000, 7.6806, -7.8745), (0.5000, 8.4265, -7.0707), (0.5000, 9.0886, -6.1965), (0.5000, 9.6604, -5.2608), (0.5000, 10.1362, -4.2728), (0.5000, 10.5113, -3.2423), (0.5000, 10.7819, -2.1796), (0.5000, 10.9453, -1.0952), (0.5000, 11.0000, 0.0000), (0.0000, 11.5000, 0.0000), (0.0000, 11.5000, 0.0000), (0.0000, 11.4429, 1.1450), (0.0000, 11.2720, 2.2787), (0.0000, 10.9891, 3.3897), (0.0000, 10.5970, 4.4670), (0.0000, 10.0995, 5.4999), (0.0000, 9.5017, 6.4782), (0.0000, 8.8095, 7.3921), (0.0000, 8.0297, 8.2325), (0.0000, 7.1701, 8.9911), (0.0000, 6.2393, 9.6603), (0.0000, 5.2464, 10.2335), (0.0000, 4.2014, 10.7050), (0.0000, 3.1147, 11.0702), (0.0000, 1.9970, 11.3253), (0.0000, 0.8594, 11.4678), (0.0000, -0.2867, 11.4964), (0.0000, -1.4300, 11.4108), (0.0000, -2.5590, 11.2117), (0.0000, -3.6626, 10.9012), (0.0000, -4.7298, 10.4823), (0.0000, -5.7500, 9.9593), (0.0000, -6.7131, 9.3373), (0.0000, -7.6094, 8.6225), (0.0000, -8.4301, 7.8220), (0.0000, -9.1670, 6.9438), (0.0000, -9.8128, 5.9965), (0.0000, -10.3611, 4.9897), (0.0000, -10.8065, 3.9332), (0.0000, -11.1444, 2.8377), (0.0000, -11.3716, 1.7140), (0.0000, -11.4857, 0.5732), (0.0000, -11.4857, -0.5732), (0.0000, -11.3716, -1.7140), (0.0000, -11.1444, -2.8377), (0.0000, -10.8065, -3.9332), (0.0000, -10.3611, -4.9897), (0.0000, -9.8128, -5.9965), (0.0000, -9.1670, -6.9438), (0.0000, -8.4301, -7.8220), (0.0000, -7.6094, -8.6225), (0.0000, -6.7131, -9.3373), (0.0000, -5.7500, -9.9593), (0.0000, -4.7298, -10.4823), (0.0000, -3.6626, -10.9012), (0.0000, -2.5590, -11.2117), (0.0000, -1.4300, -11.4108), (0.0000, -0.2867, -11.4964), (0.0000, 0.8594, -11.4678), (0.0000, 1.9970, -11.3253), (0.0000, 3.1147, -11.0702), (0.0000, 4.2014, -10.7050), (0.0000, 5.2464, -10.2335), (0.0000, 6.2393, -9.6603), (0.0000, 7.1701, -8.9911), (0.0000, 8.0297, -8.2325), (0.0000, 8.8095, -7.3921), (0.0000, 9.5017, -6.4782), (0.0000, 10.0995, -5.4999), (0.0000, 10.5970, -4.4670), (0.0000, 10.9891, -3.3897), (0.0000, 11.2720, -2.2787), (0.0000, 11.4429, -1.1450), (0.0000, 19.5000, 0.0000), (0.0000, 19.4031, 1.9416), (0.0000, 19.1134, 3.8638), (0.0000, 18.6337, 5.7477), (0.0000, 17.9688, 7.5745), (0.0000, 17.1253, 9.3260), (0.0000, 16.1117, 10.9847), (0.0000, 14.9379, 12.5344), (0.0000, 13.6156, 13.9594), (0.0000, 12.1581, 15.2457), (0.0000, 10.5797, 16.3805), (0.0000, 8.8961, 17.3525), (0.0000, 7.1241, 18.1520), (0.0000, 5.2814, 18.7712), (0.0000, 3.3861, 19.2038), (0.0000, 1.4572, 19.4455), (0.0000, -0.4861, 19.4939), (0.0000, -2.4247, 19.3487), (0.0000, -4.3392, 19.0111), (0.0000, -6.2105, 18.4846), (0.0000, -8.0201, 17.7744), (0.0000, -9.7500, 16.8875), (0.0000, -11.3830, 15.8328), (0.0000, -12.9029, 14.6207), (0.0000, -14.2945, 13.2634), (0.0000, -15.5441, 11.7742), (0.0000, -16.6392, 10.1680), (0.0000, -17.5689, 8.4607), (0.0000, -18.3240, 6.6694), (0.0000, -18.8970, 4.8118), (0.0000, -19.2822, 2.9063), (0.0000, -19.4758, 0.9720), (0.0000, -19.4758, -0.9720), (0.0000, -19.2822, -2.9063), (0.0000, -18.8970, -4.8118), (0.0000, -18.3240, -6.6694), (0.0000, -17.5689, -8.4607), (0.0000, -16.6392, -10.1680), (0.0000, -15.5441, -11.7742), (0.0000, -14.2945, -13.2634), (0.0000, -12.9029, -14.6207), (0.0000, -11.3830, -15.8328), (0.0000, -9.7500, -16.8875), (0.0000, -8.0201, -17.7744), (0.0000, -6.2105, -18.4846), (0.0000, -4.3392, -19.0111), (0.0000, -2.4247, -19.3487), (0.0000, -0.4861, -19.4939), (0.0000, 1.4572, -19.4455), (0.0000, 3.3861, -19.2038), (0.0000, 5.2814, -18.7712), (0.0000, 7.1241, -18.1520), (0.0000, 8.8961, -17.3525), (0.0000, 10.5797, -16.3805), (0.0000, 12.1581, -15.2457), (0.0000, 13.6156, -13.9594), (0.0000, 14.9379, -12.5344), (0.0000, 16.1117, -10.9847), (0.0000, 17.1253, -9.3260), (0.0000, 17.9688, -7.5745), (0.0000, 18.6337, -5.7477), (0.0000, 19.1134, -3.8638), (0.0000, 19.4031, -1.9416), (0.0000, 11.5000, 0.0000), (0.0000, 11.4429, 1.1450), (0.0000, 11.2720, 2.2787), (0.0000, 10.9891, 3.3897), (0.0000, 10.5970, 4.4670), (0.0000, 10.0995, 5.4999), (0.0000, 9.5017, 6.4782), (0.0000, 8.8095, 7.3921), (0.0000, 8.0297, 8.2325), (0.0000, 7.1701, 8.9911), (0.0000, 6.2393, 9.6603), (0.0000, 5.2464, 10.2335), (0.0000, 4.2014, 10.7050), (0.0000, 3.1147, 11.0702), (0.0000, 1.9970, 11.3253), (0.0000, 0.8594, 11.4678), (0.0000, -0.2867, 11.4964), (0.0000, -1.4300, 11.4108), (0.0000, -2.5590, 11.2117), (0.0000, -3.6626, 10.9012), (0.0000, -4.7298, 10.4823), (0.0000, -5.7500, 9.9593), (0.0000, -6.7131, 9.3373), (0.0000, -7.6094, 8.6225), (0.0000, -8.4301, 7.8220), (0.0000, -9.1670, 6.9438), (0.0000, -9.8128, 5.9965), (0.0000, -10.3611, 4.9897), (0.0000, -10.8065, 3.9332), (0.0000, -11.1444, 2.8377), (0.0000, -11.3716, 1.7140), (0.0000, -11.4857, 0.5732), (0.0000, -11.4857, -0.5732), (0.0000, -11.3716, -1.7140), (0.0000, -11.1444, -2.8377), (0.0000, -10.8065, -3.9332), (0.0000, -10.3611, -4.9897), (0.0000, -9.8128, -5.9965), (0.0000, -9.1670, -6.9438), (0.0000, -8.4301, -7.8220), (0.0000, -7.6094, -8.6225), (0.0000, -6.7131, -9.3373), (0.0000, -5.7500, -9.9593), (0.0000, -4.7298, -10.4823), (0.0000, -3.6626, -10.9012), (0.0000, -2.5590, -11.2117), (0.0000, -1.4300, -11.4108), (0.0000, -0.2867, -11.4964), (0.0000, 0.8594, -11.4678), (0.0000, 1.9970, -11.3253), (0.0000, 3.1147, -11.0702), (0.0000, 4.2014, -10.7050), (0.0000, 5.2464, -10.2335), (0.0000, 6.2393, -9.6603), (0.0000, 7.1701, -8.9911), (0.0000, 8.0297, -8.2325), (0.0000, 8.8095, -7.3921), (0.0000, 9.5017, -6.4782), (0.0000, 10.0995, -5.4999), (0.0000, 10.5970, -4.4670), (0.0000, 10.9891, -3.3897), (0.0000, 11.2720, -2.2787), (0.0000, 11.4429, -1.1450)]
        uniform token subdivisionScheme = "none"
        color3f[] primvars:displayColor = [(0.72, 0.74, 0.77)]
    }
}
