<svg xmlns="http://www.w3.org/2000/svg" viewBox="0 0 297 210" width="1188" height="840" font-family="Pretendard, 'Segoe UI', Arial, sans-serif" data-vringon-dsl="bushing" data-scale="2">
<rect width="297" height="210" fill="#FFFFFF"/>
<g id="hatch" stroke="#111111" stroke-width="0.18" fill="none" stroke-linecap="round" stroke-linejoin="round">
<line x1="168.587" y1="67.1" x2="171.355" y2="64.332"/>
<line x1="165.052" y1="67.1" x2="170.052" y2="62.1"/>
<line x1="161.516" y1="67.1" x2="166.516" y2="62.1"/>
<line x1="157.981" y1="67.1" x2="162.981" y2="62.1"/>
<line x1="154.445" y1="67.1" x2="159.445" y2="62.1"/>
<line x1="150.91" y1="67.1" x2="155.91" y2="62.1"/>
<line x1="147.374" y1="67.1" x2="152.374" y2="62.1"/>
<line x1="143.838" y1="67.1" x2="148.838" y2="62.1"/>
<line x1="140.303" y1="67.1" x2="145.303" y2="62.1"/>
<line x1="136.767" y1="67.1" x2="141.767" y2="62.1"/>
<line x1="133.232" y1="67.1" x2="138.232" y2="62.1"/>
<line x1="129.696" y1="67.1" x2="134.696" y2="62.1"/>
<line x1="126.161" y1="67.1" x2="131.161" y2="62.1"/>
<line x1="122.625" y1="67.1" x2="127.625" y2="62.1"/>
<line x1="121.355" y1="64.835" x2="124.09" y2="62.1"/>
<line x1="168.587" y1="122.1" x2="171.355" y2="119.332"/>
<line x1="165.052" y1="122.1" x2="170.052" y2="117.1"/>
<line x1="161.516" y1="122.1" x2="166.516" y2="117.1"/>
<line x1="157.981" y1="122.1" x2="162.981" y2="117.1"/>
<line x1="154.445" y1="122.1" x2="159.445" y2="117.1"/>
<line x1="150.91" y1="122.1" x2="155.91" y2="117.1"/>
<line x1="147.374" y1="122.1" x2="152.374" y2="117.1"/>
<line x1="143.838" y1="122.1" x2="148.838" y2="117.1"/>
<line x1="140.303" y1="122.1" x2="145.303" y2="117.1"/>
<line x1="136.767" y1="122.1" x2="141.767" y2="117.1"/>
<line x1="133.232" y1="122.1" x2="138.232" y2="117.1"/>
<line x1="129.696" y1="122.1" x2="134.696" y2="117.1"/>
<line x1="126.161" y1="122.1" x2="131.161" y2="117.1"/>
<line x1="122.625" y1="122.1" x2="127.625" y2="117.1"/>
<line x1="121.355" y1="119.835" x2="124.09" y2="117.1"/>
</g>
<g id="center" stroke="#111111" stroke-width="0.18" fill="none" stroke-linecap="round" stroke-linejoin="round" stroke-dasharray="8 1.5 0.5 1.5">
<line x1="113.355" y1="92.1" x2="179.355" y2="92.1"/>
</g>
<g id="hidden" stroke="#111111" stroke-width="0.25" fill="none" stroke-linecap="round" stroke-linejoin="round" stroke-dasharray="3 1.5">
<line x1="143.855" y1="69.1" x2="143.855" y2="62.1"/>
<line x1="148.855" y1="69.1" x2="148.855" y2="62.1"/>
<line x1="143.855" y1="69.1" x2="148.855" y2="69.1"/>
</g>
<g id="dim" stroke="#111111" stroke-width="0.18" fill="none" stroke-linecap="round" stroke-linejoin="round">
<line x1="121.355" y1="123.1" x2="121.355" y2="139.1"/>
<line x1="171.355" y1="123.1" x2="171.355" y2="139.1"/>
<line x1="121.355" y1="137.1" x2="171.355" y2="137.1"/>
<polygon points="121.355,137.1 124.355,136.59 124.355,137.61" fill="#111111" stroke="none"/>
<polygon points="171.355,137.1 168.355,137.61 168.355,136.59" fill="#111111" stroke="none"/>
<line x1="146.355" y1="122.1" x2="146.355" y2="52.1"/>
<polygon points="146.355,122.1 145.845,119.1 146.865,119.1" fill="#111111" stroke="none"/>
<polygon points="146.355,62.1 146.865,65.1 145.845,65.1" fill="#111111" stroke="none"/>
<line x1="146.355" y1="117.1" x2="146.355" y2="57.1"/>
<polygon points="146.355,117.1 145.845,114.1 146.865,114.1" fill="#111111" stroke="none"/>
<polygon points="146.355,67.1 146.865,70.1 145.845,70.1" fill="#111111" stroke="none"/>
<line x1="121.855" y1="62.6" x2="115.855" y2="54.6"/>
<line x1="115.855" y1="54.6" x2="106.575" y2="54.6"/>
<polygon points="121.855,62.6 124.063,64.694 123.247,65.306" fill="#111111" stroke="none"/>
<line x1="170.855" y1="62.6" x2="176.855" y2="54.6"/>
<line x1="176.855" y1="54.6" x2="186.135" y2="54.6"/>
<polygon points="170.855,62.6 169.463,65.306 168.647,64.694" fill="#111111" stroke="none"/>
<line x1="148.105" y1="62.1" x2="153.355" y2="46.1"/>
<line x1="153.355" y1="46.1" x2="176.53" y2="46.1"/>
<polygon points="148.105,62.1 147.654,65.109 146.685,64.791" fill="#111111" stroke="none"/>
<line x1="121.355" y1="61.1" x2="121.355" y2="51.1"/>
<line x1="146.355" y1="61.1" x2="146.355" y2="51.1"/>
<line x1="121.355" y1="53.1" x2="146.355" y2="53.1"/>
<polygon points="121.355,53.1 124.355,52.59 124.355,53.61" fill="#111111" stroke="none"/>
<polygon points="146.355,53.1 143.355,53.61 143.355,52.59" fill="#111111" stroke="none"/>
</g>
<g id="outline" stroke="#111111" stroke-width="0.5" fill="none" stroke-linecap="round" stroke-linejoin="round">
<polyline points="121.355,63.1 122.355,62.1 170.355,62.1 171.355,63.1"/>
<polyline points="121.355,121.1 122.355,122.1 170.355,122.1 171.355,121.1"/>
<line x1="121.355" y1="66.1" x2="121.355" y2="63.1"/>
<line x1="121.355" y1="118.1" x2="121.355" y2="121.1"/>
<line x1="171.355" y1="66.1" x2="171.355" y2="63.1"/>
<line x1="171.355" y1="118.1" x2="171.355" y2="121.1"/>
<line x1="122.355" y1="67.1" x2="122.355" y2="62.1"/>
<line x1="122.355" y1="117.1" x2="122.355" y2="122.1"/>
<line x1="170.355" y1="67.1" x2="170.355" y2="62.1"/>
<line x1="170.355" y1="117.1" x2="170.355" y2="122.1"/>
<line x1="170.355" y1="67.1" x2="170.355" y2="62.1"/>
<line x1="170.355" y1="117.1" x2="170.355" y2="122.1"/>
<polyline points="121.355,66.1 122.355,67.1 170.355,67.1 171.355,66.1"/>
<polyline points="121.355,118.1 122.355,117.1 170.355,117.1 171.355,118.1"/>
</g>
<g id="text" fill="#111111">
<text x="146.355" y="135.3" font-size="3.5" text-anchor="middle" fill="#111111" data-role="dim">25</text>
<text x="146.355" y="50.5" font-size="3.5" text-anchor="middle" fill="#111111" data-role="dim">⌀30 m6</text>
<text x="146.355" y="55.5" font-size="3.5" text-anchor="middle" fill="#111111" data-role="dim">⌀25 H7</text>
<text x="114.855" y="53.2" font-size="3.5" text-anchor="end" fill="#111111" data-role="dim">C0.5</text>
<text x="177.855" y="53.2" font-size="3.5" text-anchor="start" fill="#111111" data-role="dim">C0.5</text>
<text x="154.355" y="44.7" font-size="3.5" text-anchor="start" fill="#111111" data-role="dim">⌀2.5 깊이 3.5</text>
<text x="133.855" y="51.3" font-size="3.5" text-anchor="middle" fill="#111111" data-role="dim">12.5</text>
</g>
<g id="frame" stroke="#111111" stroke-width="0.5" fill="none" stroke-linecap="round" stroke-linejoin="round">
<rect x="10" y="10" width="277" height="190"/>
<rect x="177" y="176" width="110" height="24"/>
<line x1="177" y1="192" x2="287" y2="192"/>
<line x1="177" y1="184" x2="287" y2="184"/>
<line x1="232" y1="200" x2="232" y2="184"/>
<line x1="255" y1="184" x2="255" y2="176"/>
<circle cx="269" cy="193.5" r="2.4"/>
<circle cx="269" cy="193.5" r="1.2"/>
<polyline points="274.5,196.1 281,194.9 281,192.1 274.5,190.9"/>
</g><g id="sheet-text" fill="#111111">
<text x="179" y="181.5" font-size="4.2" text-anchor="start" font-weight="700" data-role="title">VRINGON</text>
<text x="257" y="181.5" font-size="2.5" text-anchor="start" font-weight="700" data-role="title">도번 VR-RB-003</text>
<text x="179" y="189.5" font-size="2.8" text-anchor="start" font-weight="700" data-role="title">품명 부시</text>
<text x="234" y="189.5" font-size="2.8" text-anchor="start" font-weight="700" data-role="title">재질 C3604</text>
<text x="179" y="197.5" font-size="2.5" text-anchor="start" font-weight="700" data-role="title">척도 2:1</text>
<text x="234" y="197.5" font-size="2.5" text-anchor="start" font-weight="700" data-role="title">3각법 · 단위 mm</text>
<text x="14" y="191.8" font-size="2.6" text-anchor="start" font-weight="400" data-role="note">1. 지시 없는 모따기 C0.5</text>
<text x="14" y="196" font-size="2.6" text-anchor="start" font-weight="400" data-role="note">2. 지시 없는 공차 KS B ISO 2768-m</text>
</g></svg>