#usda 1.0
(
    defaultPrim = "bushing"
    metersPerUnit = 0.001
    upAxis = "Y"
    doc = "VRINGON revolve part — CadQuery executor"
)

def Xform "bushing" (
    kind = "component"
)
{
    custom string vringon:dsl_version = "vringon-shaft/1.0"
    custom string vringon:dsl_json = "{\"dsl\":\"vringon-shaft/1.0\",\"id\":\"bushing\",\"name\":\"Plain bushing\",\"name_ko\":\"부시\",\"part_class\":\"bushing\",\"units\":\"mm\",\"material\":\"C3604\",\"drawing\":{\"number\":\"VR-RB-003\",\"scale\":\"2:1\",\"projection\":\"third\"},\"segments\":[{\"type\":\"cyl\",\"length\":25,\"diameter\":30,\"tolerance\":\"m6\"}],\"transitions\":[{\"at\":0,\"type\":\"chamfer\",\"size\":0.5},{\"at\":1,\"type\":\"chamfer\",\"size\":0.5}],\"grooves\":[],\"bore\":{\"through\":true,\"segments\":[{\"length\":25,\"diameter\":25,\"tolerance\":\"H7\"}],\"chamfer_left\":0.5,\"chamfer_right\":0.5},\"features\":[{\"type\":\"cross_hole\",\"position\":12.5,\"diameter\":2.5,\"through\":false,\"depth\":3.5,\"angle\":90}],\"meta\":{\"source\":\"golden\",\"difficulty\":2}}"
    custom string vringon:name_ko = "부시"
    custom string vringon:material = "C3604"
    custom double vringon:length_mm = 25.0
    custom double vringon:max_diameter_mm = 30
    custom double vringon:volume_mm3 = 5344.134
    custom double[] vringon:segment_lengths_mm = [25]
    custom string[] vringon:segment_types = ["cyl"]
    custom string[] vringon:threads = []
    custom string[] vringon:features = ["cross_hole"]

    def Mesh "body"
    {
        float3[] extent = [(0.0000, -14.9814, -14.9953), (25.0000, 15.0000, 14.9953)]
        int[] faceVertexCounts = [3, 3, 3, 3, 3, 3, 3, 3, 3, 3, 3, 3, 3, 3, 3, 3, 3, 3, 3, 3, 3, 3, 3, 3, 3, 3, 3, 3, 3, 3, 3, 3, 3, 3, 3, 3, 3, 3, 3, 3, 3, 3, 3, 3, 3, 3, 3, 3, 3, 3, 3, 3, 3, 3, 3, 3, 3, 3, 3, 3, 3, 3, 3, 3, 3, 3, 3, 3, 3, 3, 3, 3, 3, 3, 3, 3, 3, 3, 3, 3, 3, 3, 3, 3, 3, 3, 3, 3, 3, 3, 3, 3, 3, 3, 3, 3, 3, 3, 3, 3, 3, 3, 3, 3, 3, 3, 3, 3, 3, 3, 3, 3, 3, 3, 3, 3, 3, 3, 3, 3, 3, 3, 3, 3, 3, 3, 3, 3, 3, 3, 3, 3, 3, 3, 3, 3, 3, 3, 3, 3, 3, 3, 3, 3, 3, 3, 3, 3, 3, 3, 3, 3, 3, 3, 3, 3, 3, 3, 3, 3, 3, 3, 3, 3, 3, 3, 3, 3, 3, 3, 3, 3, 3, 3, 3, 3, 3, 3, 3, 3, 3, 3, 3, 3, 3, 3, 3, 3, 3, 3, 3, 3, 3, 3, 3, 3, 3, 3, 3, 3, 3, 3, 3, 3, 3, 3, 3, 3, 3, 3, 3, 3, 3, 3, 3, 3, 3, 3, 3, 3, 3, 3, 3, 3, 3, 3, 3, 3, 3, 3, 3, 3, 3, 3, 3, 3, 3, 3, 3, 3, 3, 3, 3, 3, 3, 3, 3, 3, 3, 3, 3, 3, 3, 3, 3, 3, 3, 3, 3, 3, 3, 3, 3, 3, 3, 3, 3, 3, 3, 3, 3, 3, 3, 3, 3, 3, 3, 3, 3, 3, 3, 3, 3, 3, 3, 3, 3, 3, 3, 3, 3, 3, 3, 3, 3, 3, 3, 3, 3, 3, 3, 3, 3, 3, 3, 3, 3, 3, 3, 3, 3, 3, 3, 3, 3, 3, 3, 3, 3, 3, 3, 3, 3, 3, 3, 3, 3, 3, 3, 3, 3, 3, 3, 3, 3, 3, 3, 3, 3, 3, 3, 3, 3, 3, 3, 3, 3, 3, 3, 3, 3, 3, 3, 3, 3, 3, 3, 3, 3, 3, 3, 3, 3, 3, 3, 3, 3, 3, 3, 3, 3, 3, 3, 3, 3, 3, 3, 3, 3, 3, 3, 3, 3, 3, 3, 3, 3, 3, 3, 3, 3, 3, 3, 3, 3, 3, 3, 3, 3, 3, 3, 3, 3, 3, 3, 3, 3, 3, 3, 3, 3, 3, 3, 3, 3, 3, 3, 3, 3, 3, 3, 3, 3, 3, 3, 3, 3, 3, 3, 3, 3, 3, 3, 3, 3, 3, 3, 3, 3, 3, 3, 3, 3, 3, 3, 3, 3, 3, 3, 3, 3, 3, 3, 3, 3, 3, 3, 3, 3, 3, 3, 3, 3, 3, 3, 3, 3, 3, 3, 3, 3, 3, 3, 3, 3, 3, 3, 3, 3, 3, 3, 3, 3, 3, 3, 3, 3, 3, 3, 3, 3, 3, 3, 3, 3, 3, 3, 3, 3, 3, 3, 3, 3, 3, 3, 3, 3, 3, 3, 3, 3, 3, 3, 3, 3, 3, 3, 3, 3, 3, 3, 3, 3, 3, 3, 3, 3, 3, 3, 3, 3, 3, 3, 3, 3, 3, 3, 3, 3, 3, 3, 3, 3, 3, 3, 3, 3, 3, 3, 3, 3, 3, 3, 3, 3, 3, 3, 3, 3, 3, 3, 3, 3, 3, 3, 3, 3, 3, 3, 3, 3, 3, 3, 3, 3, 3, 3, 3, 3, 3, 3, 3, 3, 3, 3, 3, 3, 3, 3, 3, 3, 3, 3, 3, 3, 3, 3, 3, 3, 3, 3, 3, 3, 3, 3, 3, 3, 3, 3, 3, 3, 3, 3, 3, 3, 3, 3, 3, 3, 3, 3, 3, 3, 3, 3, 3, 3, 3, 3, 3, 3, 3, 3, 3, 3, 3, 3, 3, 3, 3, 3, 3, 3, 3, 3, 3, 3, 3, 3, 3, 3, 3, 3, 3, 3, 3, 3, 3, 3, 3, 3, 3, 3, 3, 3, 3, 3, 3, 3, 3, 3, 3, 3, 3, 3, 3, 3, 3, 3, 3, 3, 3, 3, 3, 3, 3, 3, 3, 3, 3, 3, 3, 3, 3, 3, 3, 3, 3, 3, 3, 3, 3, 3, 3, 3, 3, 3, 3, 3, 3, 3, 3, 3, 3, 3, 3, 3, 3, 3, 3, 3, 3, 3, 3, 3, 3, 3, 3, 3, 3, 3, 3, 3, 3, 3, 3, 3, 3, 3, 3, 3, 3, 3, 3, 3, 3, 3, 3, 3, 3, 3, 3, 3, 3, 3, 3, 3, 3, 3, 3, 3, 3, 3, 3, 3, 3, 3, 3, 3, 3, 3, 3, 3, 3, 3, 3, 3, 3, 3, 3, 3, 3, 3, 3, 3, 3, 3, 3, 3, 3, 3, 3, 3, 3, 3, 3, 3, 3, 3, 3, 3, 3, 3, 3, 3, 3, 3, 3, 3, 3, 3, 3, 3, 3, 3, 3, 3, 3, 3, 3, 3, 3, 3, 3, 3, 3, 3, 3, 3, 3, 3, 3, 3, 3, 3, 3, 3, 3, 3, 3, 3, 3, 3, 3, 3, 3, 3, 3, 3, 3, 3, 3, 3, 3, 3, 3, 3, 3, 3, 3, 3, 3, 3, 3, 3, 3, 3, 3, 3, 3, 3, 3, 3, 3, 3, 3, 3, 3, 3, 3, 3, 3, 3, 3, 3, 3, 3, 3, 3, 3, 3, 3, 3, 3, 3, 3, 3, 3, 3, 3, 3, 3, 3, 3, 3, 3, 3, 3, 3, 3, 3, 3, 3, 3, 3, 3, 3, 3, 3, 3, 3, 3, 3, 3, 3, 3, 3, 3, 3, 3, 3, 3, 3, 3, 3, 3, 3, 3, 3, 3, 3, 3, 3, 3, 3, 3, 3, 3, 3, 3, 3, 3, 3, 3, 3, 3, 3, 3, 3, 3, 3, 3, 3, 3, 3, 3, 3, 3, 3, 3, 3, 3, 3, 3, 3, 3, 3, 3, 3, 3, 3, 3, 3, 3, 3, 3, 3, 3, 3, 3, 3, 3, 3, 3, 3, 3, 3, 3, 3, 3, 3, 3, 3, 3, 3, 3, 3, 3, 3, 3, 3, 3, 3, 3, 3, 3, 3, 3, 3, 3, 3, 3, 3, 3, 3, 3, 3, 3, 3, 3, 3, 3, 3, 3, 3, 3, 3, 3, 3, 3, 3, 3, 3, 3, 3, 3, 3, 3, 3, 3, 3, 3, 3, 3, 3, 3, 3, 3, 3, 3, 3, 3, 3, 3, 3, 3, 3, 3, 3, 3, 3, 3, 3, 3, 3, 3, 3, 3, 3, 3, 3, 3, 3, 3, 3, 3, 3, 3, 3, 3, 3, 3, 3, 3, 3, 3, 3, 3, 3, 3, 3, 3, 3, 3, 3, 3, 3, 3, 3, 3, 3, 3, 3, 3, 3, 3, 3, 3, 3, 3, 3, 3, 3, 3, 3, 3, 3, 3, 3, 3, 3, 3, 3, 3, 3, 3, 3, 3, 3, 3, 3, 3, 3, 3, 3, 3, 3, 3, 3, 3, 3, 3, 3, 3, 3, 3, 3, 3, 3, 3, 3, 3, 3, 3, 3, 3, 3, 3, 3, 3, 3, 3, 3, 3, 3, 3, 3, 3, 3, 3, 3, 3, 3, 3, 3, 3, 3, 3, 3, 3, 3, 3, 3, 3, 3, 3, 3, 3, 3, 3, 3, 3, 3, 3, 3, 3, 3, 3, 3, 3, 3, 3, 3, 3, 3, 3, 3, 3, 3, 3, 3, 3, 3, 3, 3, 3, 3, 3, 3, 3, 3, 3, 3, 3, 3, 3, 3, 3, 3, 3, 3, 3, 3, 3, 3, 3, 3, 3, 3, 3, 3, 3, 3, 3, 3, 3, 3, 3, 3, 3, 3, 3, 3, 3, 3, 3, 3, 3, 3, 3, 3, 3, 3, 3, 3, 3, 3, 3, 3, 3, 3, 3, 3, 3, 3, 3, 3, 3, 3, 3, 3, 3, 3, 3, 3, 3, 3, 3, 3, 3, 3, 3, 3, 3, 3, 3, 3, 3, 3, 3, 3, 3, 3, 3, 3, 3, 3, 3, 3, 3, 3, 3, 3, 3, 3, 3, 3, 3, 3, 3, 3, 3, 3, 3, 3, 3, 3, 3, 3, 3]
        int[] faceVertexIndices = [66, 0, 1, 66, 65, 0, 67, 1, 2, 67, 66, 1, 3, 67, 2, 68, 67, 3, 69, 3, 4, 69, 68, 3, 70, 4, 5, 70, 69, 4, 71, 5, 6, 71, 70, 5, 72, 6, 7, 72, 71, 6, 73, 7, 8, 73, 72, 7, 74, 8, 9, 74, 73, 8, 75, 9, 10, 75, 74, 9, 11, 75, 10, 76, 75, 11, 77, 11, 12, 77, 76, 11, 13, 77, 12, 78, 77, 13, 14, 78, 13, 79, 78, 14, 80, 14, 15, 80, 79, 14, 16, 80, 15, 81, 80, 16, 82, 16, 17, 82, 81, 16, 83, 17, 18, 83, 82, 17, 84, 83, 18, 84, 18, 19, 85, 84, 19, 85, 19, 20, 86, 85, 20, 86, 20, 21, 87, 86, 21, 87, 21, 22, 88, 87, 22, 88, 22, 23, 89, 23, 24, 89, 88, 23, 25, 89, 24, 90, 89, 25, 91, 25, 26, 91, 90, 25, 92, 26, 27, 92, 91, 26, 93, 27, 28, 93, 92, 27, 94, 28, 29, 94, 93, 28, 95, 29, 30, 95, 94, 29, 96, 30, 31, 96, 95, 30, 97, 31, 32, 97, 96, 31, 98, 32, 33, 98, 97, 32, 99, 33, 34, 99, 98, 33, 100, 34, 35, 100, 99, 34, 101, 35, 36, 101, 100, 35, 102, 36, 37, 102, 101, 36, 103, 37, 38, 103, 102, 37, 104, 38, 39, 104, 103, 38, 105, 39, 40, 105, 104, 39, 41, 105, 40, 106, 105, 41, 107, 41, 42, 107, 106, 41, 108, 107, 42, 108, 42, 43, 44, 108, 43, 109, 108, 44, 110, 109, 44, 110, 44, 45, 111, 110, 45, 111, 45, 46, 47, 111, 46, 112, 111, 47, 48, 112, 47, 113, 112, 48, 114, 113, 48, 114, 48, 49, 115, 114, 49, 115, 49, 50, 116, 115, 50, 116, 50, 51, 52, 116, 51, 117, 116, 52, 118, 117, 52, 118, 52, 53, 119, 118, 53, 119, 53, 54, 55, 119, 54, 120, 119, 55, 121, 120, 55, 121, 55, 56, 122, 121, 56, 122, 56, 57, 123, 57, 58, 123, 122, 57, 124, 58, 59, 124, 123, 58, 125, 59, 60, 125, 124, 59, 61, 125, 60, 126, 125, 61, 127, 61, 62, 127, 126, 61, 63, 127, 62, 64, 127, 63, 246, 183, 182, 246, 184, 183, 247, 184, 246, 245, 246, 182, 245, 182, 181, 248, 184, 247, 248, 185, 184, 244, 181, 180, 244, 245, 181, 249, 185, 248, 249, 186, 185, 243, 180, 179, 243, 244, 180, 250, 187, 186, 250, 186, 249, 242, 243, 179, 242, 179, 178, 251, 187, 250, 251, 188, 187, 251, 189, 188, 241, 242, 178, 252, 189, 251, 240, 178, 177, 240, 241, 178, 253, 190, 189, 253, 189, 252, 239, 177, 176, 239, 240, 177, 191, 128, 190, 191, 190, 253, 238, 176, 175, 238, 239, 176, 192, 129, 128, 192, 128, 191, 237, 175, 174, 237, 238, 175, 193, 130, 129, 193, 129, 192, 236, 174, 173, 236, 237, 174, 172, 236, 173, 194, 131, 130, 194, 130, 193, 235, 236, 172, 132, 131, 194, 195, 132, 194, 234, 235, 172, 234, 172, 171, 133, 132, 195, 196, 133, 195, 233, 234, 171, 233, 171, 170, 197, 134, 133, 197, 133, 196, 232, 233, 170, 232, 170, 169, 135, 134, 197, 198, 135, 197, 168, 232, 169, 231, 232, 168, 136, 135, 198, 136, 198, 199, 167, 230, 231, 167, 231, 168, 200, 136, 199, 137, 136, 200, 229, 230, 167, 166, 229, 167, 138, 137, 200, 138, 200, 201, 228, 229, 166, 165, 228, 166, 139, 138, 201, 139, 201, 202, 164, 228, 165, 164, 227, 228, 140, 202, 203, 140, 139, 202, 163, 227, 164, 163, 226, 227, 225, 226, 163, 141, 203, 204, 141, 140, 203, 162, 225, 163, 205, 141, 204, 142, 141, 205, 161, 224, 225, 161, 225, 162, 143, 142, 205, 143, 205, 206, 160, 224, 161, 160, 223, 224, 144, 143, 206, 144, 206, 207, 144, 207, 208, 159, 223, 160, 159, 221, 222, 159, 222, 223, 145, 144, 208, 158, 221, 159, 146, 145, 208, 146, 208, 209, 157, 221, 158, 157, 219, 220, 157, 220, 221, 147, 146, 209, 147, 209, 210, 156, 219, 157, 148, 147, 210, 148, 210, 211, 155, 219, 156, 155, 218, 219, 149, 148, 211, 149, 211, 212, 154, 218, 155, 154, 216, 217, 154, 217, 218, 150, 149, 212, 150, 212, 213, 153, 216, 154, 151, 150, 213, 151, 213, 214, 152, 216, 153, 152, 151, 214, 152, 214, 215, 152, 215, 216, 426, 255, 254, 427, 426, 254, 428, 427, 254, 429, 428, 254, 430, 429, 254, 431, 430, 254, 432, 254, 256, 432, 431, 254, 433, 432, 256, 434, 433, 256, 435, 434, 256, 436, 435, 256, 437, 436, 256, 438, 437, 256, 439, 438, 256, 440, 439, 256, 441, 440, 256, 442, 441, 256, 443, 442, 256, 444, 443, 256, 257, 444, 256, 257, 445, 444, 362, 460, 459, 362, 461, 460, 362, 462, 461, 362, 463, 462, 362, 464, 463, 362, 465, 464, 362, 425, 465, 363, 456, 455, 363, 457, 456, 363, 458, 457, 363, 459, 458, 363, 362, 459, 363, 447, 446, 363, 448, 447, 363, 449, 448, 363, 450, 449, 363, 451, 450, 363, 452, 451, 363, 453, 452, 363, 454, 453, 363, 455, 454, 364, 445, 257, 364, 257, 258, 364, 363, 446, 364, 446, 445, 365, 364, 258, 366, 258, 259, 366, 259, 260, 366, 365, 258, 367, 260, 261, 367, 366, 260, 368, 367, 261, 369, 261, 262, 369, 368, 261, 370, 262, 263, 370, 263, 264, 370, 369, 262, 371, 370, 264, 372, 264, 265, 372, 371, 264, 373, 265, 266, 373, 372, 265, 374, 266, 267, 374, 373, 266, 375, 267, 268, 375, 374, 267, 376, 268, 269, 376, 375, 268, 377, 269, 270, 377, 376, 269, 378, 270, 271, 378, 377, 270, 379, 271, 272, 379, 378, 271, 380, 272, 273, 380, 379, 272, 381, 273, 274, 381, 380, 273, 382, 274, 275, 382, 275, 276, 382, 381, 274, 383, 382, 276, 384, 276, 277, 384, 277, 278, 384, 383, 276, 385, 384, 278, 386, 278, 279, 386, 279, 280, 386, 385, 278, 387, 386, 280, 388, 280, 281, 388, 387, 280, 389, 388, 281, 389, 281, 282, 389, 282, 283, 390, 389, 283, 390, 283, 284, 391, 390, 284, 392, 391, 284, 392, 284, 285, 392, 285, 286, 393, 392, 286, 394, 393, 286, 394, 286, 287, 394, 287, 288, 395, 394, 288, 396, 395, 288, 396, 288, 289, 396, 289, 290, 397, 396, 290, 398, 290, 291, 398, 397, 290, 399, 291, 292, 399, 398, 291, 400, 292, 293, 400, 399, 292, 401, 293, 294, 401, 400, 293, 402, 294, 295, 402, 295, 296, 402, 401, 294, 403, 402, 296, 404, 296, 297, 404, 403, 296, 405, 297, 298, 405, 404, 297, 406, 298, 299, 406, 405, 298, 407, 299, 300, 407, 406, 299, 408, 300, 301, 408, 407, 300, 409, 301, 302, 409, 408, 301, 410, 302, 303, 410, 409, 302, 411, 303, 304, 411, 410, 303, 412, 304, 305, 412, 411, 304, 413, 305, 306, 413, 412, 305, 414, 413, 306, 414, 306, 307, 415, 414, 307, 415, 307, 308, 416, 415, 308, 416, 308, 309, 417, 416, 309, 417, 309, 310, 418, 417, 310, 418, 310, 311, 419, 418, 311, 419, 311, 312, 420, 419, 312, 420, 312, 313, 421, 420, 313, 421, 313, 314, 422, 421, 314, 422, 314, 315, 423, 422, 315, 423, 315, 316, 341, 317, 342, 341, 316, 317, 343, 342, 317, 340, 423, 316, 340, 316, 341, 344, 343, 317, 339, 423, 340, 345, 344, 317, 346, 345, 317, 347, 346, 317, 348, 347, 317, 349, 348, 317, 350, 349, 317, 351, 350, 317, 352, 351, 317, 353, 352, 317, 354, 317, 318, 354, 353, 317, 355, 354, 318, 356, 355, 318, 357, 356, 318, 358, 357, 318, 359, 358, 318, 360, 359, 318, 319, 360, 318, 424, 423, 339, 424, 328, 327, 424, 329, 328, 424, 330, 329, 424, 331, 330, 424, 332, 331, 424, 333, 332, 424, 334, 333, 424, 335, 334, 424, 336, 335, 424, 337, 336, 424, 338, 337, 424, 339, 338, 361, 321, 320, 361, 322, 321, 361, 323, 322, 361, 324, 323, 361, 325, 324, 361, 326, 325, 361, 327, 326, 361, 424, 327, 532, 466, 467, 532, 531, 466, 533, 467, 468, 533, 532, 467, 534, 468, 469, 534, 533, 468, 535, 469, 470, 535, 534, 469, 536, 470, 471, 536, 535, 470, 537, 471, 472, 537, 536, 471, 538, 472, 473, 538, 537, 472, 539, 473, 474, 539, 538, 473, 475, 539, 474, 540, 539, 475, 541, 475, 476, 541, 540, 475, 542, 476, 477, 542, 541, 476, 543, 477, 478, 543, 542, 477, 479, 543, 478, 544, 543, 479, 480, 544, 479, 545, 544, 480, 546, 480, 481, 546, 545, 480, 547, 481, 482, 547, 546, 481, 548, 482, 483, 548, 547, 482, 484, 548, 483, 549, 548, 484, 550, 549, 484, 550, 484, 485, 486, 550, 485, 551, 550, 486, 487, 551, 486, 552, 551, 487, 553, 552, 487, 553, 487, 488, 554, 553, 488, 554, 488, 489, 490, 554, 489, 555, 554, 490, 491, 555, 490, 556, 555, 491, 557, 491, 492, 557, 556, 491, 493, 557, 492, 558, 557, 493, 494, 558, 493, 559, 558, 494, 560, 494, 495, 560, 559, 494, 561, 495, 496, 561, 560, 495, 562, 496, 497, 562, 561, 496, 563, 497, 498, 563, 562, 497, 564, 498, 499, 564, 563, 498, 565, 499, 500, 565, 564, 499, 566, 500, 501, 566, 565, 500, 567, 501, 502, 567, 566, 501, 568, 502, 503, 568, 567, 502, 569, 503, 504, 569, 568, 503, 570, 504, 505, 570, 569, 504, 571, 505, 506, 571, 570, 505, 572, 506, 507, 572, 571, 506, 573, 507, 508, 573, 572, 507, 574, 573, 508, 574, 508, 509, 575, 509, 510, 575, 574, 509, 511, 575, 510, 576, 575, 511, 577, 576, 511, 577, 511, 512, 578, 577, 512, 578, 512, 513, 579, 578, 513, 579, 513, 514, 580, 579, 514, 580, 514, 515, 581, 580, 515, 581, 515, 516, 582, 581, 516, 582, 516, 517, 583, 582, 517, 583, 517, 518, 584, 583, 518, 584, 518, 519, 585, 584, 519, 585, 519, 520, 586, 585, 520, 586, 520, 521, 587, 586, 521, 587, 521, 522, 588, 587, 522, 588, 522, 523, 589, 523, 524, 589, 588, 523, 590, 524, 525, 590, 589, 524, 591, 525, 526, 591, 590, 525, 592, 526, 527, 592, 591, 526, 593, 527, 528, 593, 592, 527, 530, 528, 529, 530, 593, 528, 594, 636, 637, 595, 637, 638, 595, 594, 637, 596, 638, 639, 596, 595, 638, 597, 639, 640, 597, 596, 639, 598, 640, 641, 598, 597, 640, 599, 641, 642, 599, 598, 641, 600, 642, 643, 600, 599, 642, 601, 643, 644, 601, 600, 643, 602, 601, 644, 602, 644, 645, 603, 602, 645, 603, 645, 646, 604, 603, 646, 604, 646, 647, 605, 604, 647, 605, 647, 648, 606, 605, 648, 606, 648, 649, 607, 606, 649, 608, 607, 649, 608, 649, 650, 609, 608, 650, 609, 650, 651, 610, 609, 651, 610, 651, 652, 611, 610, 652, 611, 652, 653, 612, 611, 653, 612, 653, 654, 613, 612, 654, 613, 654, 655, 614, 613, 655, 614, 655, 656, 615, 614, 656, 615, 656, 657, 616, 615, 657, 616, 657, 658, 617, 616, 658, 617, 658, 659, 618, 659, 660, 618, 617, 659, 619, 660, 661, 619, 618, 660, 620, 661, 662, 620, 619, 661, 621, 620, 662, 621, 662, 663, 622, 663, 664, 622, 621, 663, 623, 664, 665, 623, 622, 664, 624, 665, 666, 624, 623, 665, 625, 666, 667, 625, 624, 666, 626, 667, 668, 626, 625, 667, 627, 626, 668, 627, 668, 669, 628, 627, 669, 628, 669, 670, 629, 628, 670, 629, 670, 671, 630, 629, 671, 630, 671, 672, 631, 630, 672, 631, 672, 673, 632, 631, 673, 632, 673, 674, 633, 632, 674, 633, 674, 675, 634, 633, 675, 634, 675, 676, 635, 634, 676, 635, 676, 677, 635, 677, 678, 720, 635, 678, 720, 678, 679, 721, 720, 679, 721, 679, 680, 722, 721, 680, 722, 680, 681, 723, 722, 681, 723, 681, 682, 724, 723, 682, 724, 682, 683, 725, 724, 683, 725, 683, 684, 726, 725, 684, 726, 684, 685, 727, 726, 685, 727, 685, 686, 728, 727, 686, 728, 686, 687, 729, 728, 687, 729, 687, 688, 730, 729, 688, 730, 688, 689, 731, 730, 689, 731, 689, 690, 732, 731, 690, 733, 732, 690, 733, 690, 691, 734, 733, 691, 734, 691, 692, 735, 734, 692, 735, 692, 693, 736, 735, 693, 736, 693, 694, 737, 694, 695, 737, 736, 694, 738, 695, 696, 738, 737, 695, 739, 696, 697, 739, 738, 696, 740, 697, 698, 740, 739, 697, 741, 698, 699, 741, 740, 698, 742, 699, 700, 742, 741, 699, 743, 700, 701, 743, 742, 700, 744, 701, 702, 744, 743, 701, 745, 702, 703, 745, 744, 702, 746, 703, 704, 746, 745, 703, 747, 704, 705, 747, 746, 704, 748, 705, 706, 748, 747, 705, 749, 706, 707, 749, 748, 706, 750, 707, 708, 750, 749, 707, 751, 708, 709, 751, 750, 708, 752, 709, 710, 752, 751, 709, 753, 710, 711, 753, 752, 710, 754, 711, 712, 754, 753, 711, 755, 712, 713, 755, 754, 712, 756, 713, 714, 756, 755, 713, 757, 714, 715, 757, 756, 714, 758, 715, 716, 758, 757, 715, 759, 716, 717, 759, 758, 716, 719, 717, 718, 719, 759, 717, 826, 760, 761, 826, 825, 760, 827, 761, 762, 827, 826, 761, 828, 762, 763, 828, 827, 762, 829, 763, 764, 829, 828, 763, 830, 764, 765, 830, 829, 764, 831, 765, 766, 831, 830, 765, 832, 766, 767, 832, 831, 766, 833, 767, 768, 833, 832, 767, 834, 768, 769, 834, 833, 768, 835, 769, 770, 835, 834, 769, 771, 835, 770, 836, 835, 771, 837, 771, 772, 837, 836, 771, 773, 837, 772, 838, 837, 773, 839, 773, 774, 839, 838, 773, 840, 774, 775, 840, 839, 774, 776, 840, 775, 841, 840, 776, 842, 776, 777, 842, 841, 776, 778, 842, 777, 843, 842, 778, 844, 843, 778, 844, 778, 779, 845, 844, 779, 845, 779, 780, 846, 845, 780, 846, 780, 781, 847, 846, 781, 847, 781, 782, 848, 847, 782, 848, 782, 783, 849, 783, 784, 849, 848, 783, 785, 849, 784, 850, 849, 785, 851, 785, 786, 851, 850, 785, 852, 786, 787, 852, 851, 786, 853, 787, 788, 853, 852, 787, 854, 788, 789, 854, 853, 788, 855, 789, 790, 855, 854, 789, 856, 790, 791, 856, 855, 790, 857, 791, 792, 857, 856, 791, 858, 792, 793, 858, 857, 792, 859, 793, 794, 859, 858, 793, 860, 794, 795, 860, 859, 794, 861, 795, 796, 861, 860, 795, 862, 796, 797, 862, 861, 796, 863, 797, 798, 863, 862, 797, 799, 863, 798, 864, 863, 799, 865, 799, 800, 865, 864, 799, 801, 865, 800, 866, 865, 801, 867, 801, 802, 867, 866, 801, 868, 867, 802, 868, 802, 803, 804, 868, 803, 869, 868, 804, 805, 869, 804, 870, 869, 805, 871, 870, 805, 871, 805, 806, 807, 871, 806, 872, 871, 807, 873, 872, 807, 873, 807, 808, 874, 873, 808, 874, 808, 809, 810, 874, 809, 875, 874, 810, 876, 875, 810, 876, 810, 811, 877, 876, 811, 877, 811, 812, 813, 877, 812, 878, 877, 813, 879, 878, 813, 879, 813, 814, 880, 879, 814, 880, 814, 815, 816, 880, 815, 881, 880, 816, 817, 881, 816, 882, 881, 817, 883, 817, 818, 883, 882, 817, 884, 818, 819, 884, 883, 818, 885, 819, 820, 885, 884, 819, 886, 820, 821, 886, 885, 820, 887, 821, 822, 887, 886, 821, 823, 887, 822, 824, 887, 823, 1099, 889, 888, 1098, 1099, 888, 1097, 1098, 888, 1096, 1097, 888, 1095, 1096, 888, 1094, 888, 890, 1094, 1095, 888, 1093, 1094, 890, 1092, 1093, 890, 1091, 1092, 890, 1090, 1091, 890, 1089, 1090, 890, 1088, 1089, 890, 1087, 1088, 890, 1086, 1087, 890, 1085, 1086, 890, 1084, 1085, 890, 1083, 1084, 890, 1082, 1083, 890, 1081, 1082, 890, 891, 1081, 890, 891, 1080, 1081, 996, 1059, 1060, 996, 1060, 1061, 996, 1061, 1062, 996, 1062, 1063, 996, 1063, 1064, 996, 1064, 1065, 1079, 1080, 891, 997, 996, 1065, 997, 1065, 1066, 997, 1066, 1067, 997, 1067, 1068, 997, 1068, 1069, 997, 1069, 1070, 997, 1070, 1071, 997, 1071, 1072, 997, 1072, 1073, 997, 1073, 1074, 997, 1074, 1075, 997, 1075, 1076, 997, 1076, 1077, 997, 1077, 1078, 998, 891, 892, 998, 997, 1078, 998, 1079, 891, 998, 1078, 1079, 999, 998, 892, 1000, 892, 893, 1000, 893, 894, 1000, 999, 892, 1001, 894, 895, 1001, 1000, 894, 1002, 1001, 895, 1003, 895, 896, 1003, 1002, 895, 1004, 896, 897, 1004, 897, 898, 1004, 1003, 896, 1005, 1004, 898, 1006, 898, 899, 1006, 1005, 898, 1007, 899, 900, 1007, 1006, 899, 1008, 900, 901, 1008, 1007, 900, 1009, 901, 902, 1009, 1008, 901, 1010, 902, 903, 1010, 1009, 902, 1011, 903, 904, 1011, 1010, 903, 1012, 904, 905, 1012, 1011, 904, 1013, 905, 906, 1013, 1012, 905, 1014, 906, 907, 1014, 1013, 906, 1015, 907, 908, 1015, 1014, 907, 1016, 908, 909, 1016, 909, 910, 1016, 1015, 908, 1017, 1016, 910, 1018, 910, 911, 1018, 911, 912, 1018, 1017, 910, 1019, 1018, 912, 1020, 912, 913, 1020, 913, 914, 1020, 1019, 912, 1021, 1020, 914, 1022, 914, 915, 1022, 1021, 914, 1023, 1022, 915, 1023, 915, 916, 1023, 916, 917, 1024, 1023, 917, 1024, 917, 918, 1025, 1024, 918, 1026, 1025, 918, 1026, 918, 919, 1026, 919, 920, 1027, 1026, 920, 1028, 1027, 920, 1028, 920, 921, 1028, 921, 922, 1029, 1028, 922, 1030, 1029, 922, 1030, 922, 923, 1030, 923, 924, 1031, 1030, 924, 1032, 924, 925, 1032, 1031, 924, 1033, 925, 926, 1033, 1032, 925, 1034, 926, 927, 1034, 1033, 926, 1035, 927, 928, 1035, 1034, 927, 1036, 928, 929, 1036, 929, 930, 1036, 1035, 928, 1037, 1036, 930, 1038, 930, 931, 1038, 1037, 930, 1039, 931, 932, 1039, 1038, 931, 1040, 932, 933, 1040, 1039, 932, 1041, 933, 934, 1041, 1040, 933, 1042, 934, 935, 1042, 1041, 934, 1043, 935, 936, 1043, 1042, 935, 1044, 936, 937, 1044, 1043, 936, 1045, 937, 938, 1045, 1044, 937, 1046, 938, 939, 1046, 1045, 938, 1047, 939, 940, 1047, 1046, 939, 1048, 1047, 940, 1048, 940, 941, 1049, 1048, 941, 1049, 941, 942, 1050, 1049, 942, 1050, 942, 943, 1051, 1050, 943, 1051, 943, 944, 1052, 1051, 944, 1052, 944, 945, 1053, 1052, 945, 1053, 945, 946, 1054, 1053, 946, 1054, 946, 947, 1055, 1054, 947, 1055, 947, 948, 1056, 1055, 948, 1056, 948, 949, 972, 950, 951, 971, 972, 951, 973, 950, 972, 970, 971, 951, 1057, 1056, 949, 1057, 950, 973, 1057, 949, 950, 974, 1057, 973, 969, 970, 951, 975, 1057, 974, 968, 969, 951, 967, 968, 951, 966, 967, 951, 965, 966, 951, 964, 965, 951, 963, 964, 951, 962, 963, 951, 961, 962, 951, 960, 961, 951, 959, 951, 952, 959, 960, 951, 958, 959, 952, 957, 958, 952, 956, 957, 952, 955, 956, 952, 954, 955, 952, 953, 954, 952, 1058, 1057, 975, 1058, 975, 976, 1058, 976, 977, 1058, 977, 978, 1058, 978, 979, 1058, 979, 980, 1058, 980, 981, 1058, 981, 982, 1058, 982, 983, 1058, 983, 984, 1058, 984, 985, 1058, 985, 986, 1058, 986, 987, 1058, 987, 988, 995, 988, 989, 995, 989, 990, 995, 990, 991, 995, 991, 992, 995, 992, 993, 995, 993, 994, 995, 1058, 988, 1203, 1139, 1140, 1203, 1202, 1139, 1201, 1138, 1139, 1201, 1139, 1202, 1204, 1140, 1141, 1204, 1141, 1142, 1204, 1203, 1140, 1200, 1137, 1138, 1200, 1138, 1201, 1205, 1204, 1142, 1199, 1136, 1137, 1199, 1137, 1200, 1206, 1142, 1143, 1206, 1205, 1142, 1198, 1135, 1136, 1198, 1136, 1199, 1207, 1143, 1144, 1207, 1206, 1143, 1197, 1133, 1134, 1197, 1134, 1135, 1197, 1135, 1198, 1208, 1144, 1145, 1208, 1145, 1146, 1208, 1207, 1144, 1196, 1133, 1197, 1209, 1208, 1146, 1195, 1132, 1133, 1195, 1133, 1196, 1210, 1146, 1147, 1210, 1209, 1146, 1194, 1131, 1132, 1194, 1132, 1195, 1211, 1147, 1148, 1211, 1210, 1147, 1193, 1130, 1131, 1193, 1131, 1194, 1212, 1148, 1149, 1212, 1211, 1148, 1192, 1130, 1193, 1192, 1129, 1130, 1213, 1212, 1149, 1213, 1149, 1150, 1191, 1128, 1129, 1191, 1129, 1192, 1214, 1213, 1150, 1214, 1150, 1151, 1190, 1128, 1191, 1190, 1127, 1128, 1215, 1214, 1151, 1215, 1151, 1152, 1189, 1127, 1190, 1189, 1126, 1127, 1216, 1215, 1152, 1216, 1152, 1153, 1188, 1125, 1126, 1188, 1126, 1189, 1217, 1216, 1153, 1217, 1153, 1154, 1187, 1124, 1125, 1187, 1125, 1188, 1218, 1217, 1154, 1218, 1154, 1155, 1123, 1124, 1187, 1123, 1187, 1186, 1156, 1219, 1218, 1156, 1218, 1155, 1185, 1123, 1186, 1122, 1123, 1185, 1157, 1219, 1156, 1157, 1220, 1219, 1121, 1122, 1185, 1121, 1185, 1184, 1158, 1221, 1220, 1158, 1220, 1157, 1120, 1121, 1184, 1120, 1184, 1183, 1159, 1222, 1221, 1159, 1221, 1158, 1182, 1120, 1183, 1119, 1120, 1182, 1160, 1223, 1222, 1160, 1222, 1159, 1181, 1119, 1182, 1224, 1223, 1160, 1118, 1119, 1181, 1161, 1224, 1160, 1117, 1118, 1181, 1117, 1181, 1180, 1162, 1224, 1161, 1162, 1225, 1224, 1163, 1225, 1162, 1116, 1117, 1180, 1116, 1180, 1179, 1100, 1163, 1162, 1115, 1116, 1179, 1115, 1179, 1178, 1101, 1163, 1100, 1101, 1164, 1163, 1101, 1165, 1164, 1114, 1115, 1178, 1114, 1178, 1177, 1102, 1165, 1101, 1113, 1114, 1177, 1113, 1177, 1176, 1103, 1165, 1102, 1103, 1166, 1165, 1112, 1113, 1176, 1112, 1176, 1175, 1104, 1166, 1103, 1104, 1167, 1166, 1104, 1168, 1167, 1111, 1112, 1175, 1111, 1175, 1174, 1105, 1168, 1104, 1110, 1111, 1174, 1110, 1174, 1173, 1106, 1168, 1105, 1106, 1169, 1168, 1109, 1110, 1173, 1109, 1172, 1171, 1109, 1173, 1172, 1107, 1170, 1169, 1107, 1171, 1170, 1107, 1169, 1106, 1108, 1109, 1171, 1108, 1171, 1107, 1292, 1226, 1227, 1292, 1291, 1226, 1293, 1227, 1228, 1293, 1292, 1227, 1294, 1228, 1229, 1294, 1293, 1228, 1295, 1229, 1230, 1295, 1294, 1229, 1231, 1295, 1230, 1296, 1295, 1231, 1297, 1231, 1232, 1297, 1296, 1231, 1233, 1297, 1232, 1298, 1297, 1233, 1299, 1233, 1234, 1299, 1298, 1233, 1235, 1299, 1234, 1300, 1299, 1235, 1301, 1235, 1236, 1301, 1300, 1235, 1302, 1236, 1237, 1302, 1301, 1236, 1303, 1237, 1238, 1303, 1302, 1237, 1239, 1303, 1238, 1304, 1303, 1239, 1240, 1304, 1239, 1305, 1304, 1240, 1306, 1240, 1241, 1306, 1305, 1240, 1242, 1306, 1241, 1307, 1306, 1242, 1308, 1242, 1243, 1308, 1307, 1242, 1244, 1308, 1243, 1309, 1308, 1244, 1310, 1309, 1244, 1310, 1244, 1245, 1311, 1310, 1245, 1311, 1245, 1246, 1247, 1311, 1246, 1312, 1311, 1247, 1313, 1312, 1247, 1313, 1247, 1248, 1314, 1313, 1248, 1314, 1248, 1249, 1250, 1314, 1249, 1315, 1314, 1250, 1251, 1315, 1250, 1316, 1315, 1251, 1317, 1251, 1252, 1317, 1316, 1251, 1253, 1317, 1252, 1318, 1317, 1253, 1254, 1318, 1253, 1319, 1318, 1254, 1320, 1254, 1255, 1320, 1319, 1254, 1256, 1320, 1255, 1321, 1320, 1256, 1322, 1256, 1257, 1322, 1321, 1256, 1323, 1257, 1258, 1323, 1322, 1257, 1324, 1258, 1259, 1324, 1323, 1258, 1325, 1259, 1260, 1325, 1324, 1259, 1326, 1260, 1261, 1326, 1325, 1260, 1327, 1261, 1262, 1327, 1326, 1261, 1328, 1262, 1263, 1328, 1327, 1262, 1329, 1263, 1264, 1329, 1328, 1263, 1330, 1264, 1265, 1330, 1329, 1264, 1331, 1265, 1266, 1331, 1330, 1265, 1332, 1266, 1267, 1332, 1331, 1266, 1333, 1267, 1268, 1333, 1332, 1267, 1334, 1333, 1268, 1334, 1268, 1269, 1335, 1269, 1270, 1335, 1334, 1269, 1336, 1335, 1270, 1336, 1270, 1271, 1337, 1336, 1271, 1337, 1271, 1272, 1338, 1337, 1272, 1338, 1272, 1273, 1339, 1338, 1273, 1339, 1273, 1274, 1340, 1339, 1274, 1340, 1274, 1275, 1341, 1340, 1275, 1341, 1275, 1276, 1342, 1341, 1276, 1342, 1276, 1277, 1343, 1342, 1277, 1343, 1277, 1278, 1344, 1343, 1278, 1344, 1278, 1279, 1345, 1344, 1279, 1345, 1279, 1280, 1346, 1345, 1280, 1346, 1280, 1281, 1347, 1346, 1281, 1347, 1281, 1282, 1348, 1347, 1282, 1348, 1282, 1283, 1349, 1283, 1284, 1349, 1348, 1283, 1285, 1349, 1284, 1350, 1349, 1285, 1351, 1285, 1286, 1351, 1350, 1285, 1352, 1286, 1287, 1352, 1351, 1286, 1353, 1287, 1288, 1353, 1352, 1287, 1290, 1288, 1289, 1290, 1353, 1288]
        point3f[] points = [(0.0000, 14.5000, 0.0000), (0.0000, 14.4279, 1.4437), (0.0000, 14.2125, 2.8731), (0.0000, 13.8558, 4.2740), (0.0000, 13.3614, 5.6323), (0.0000, 12.7342, 6.9347), (0.0000, 11.9805, 8.1681), (0.0000, 11.1076, 9.3204), (0.0000, 10.1244, 10.3801), (0.0000, 9.0406, 11.3366), (0.0000, 7.8669, 12.1804), (0.0000, 6.6151, 12.9031), (0.0000, 5.2974, 13.4977), (0.0000, 3.9272, 13.9581), (0.0000, 2.5179, 14.2797), (0.0000, 1.0836, 14.4595), (0.0000, -0.3615, 14.4955), (0.0000, -1.8030, 14.3875), (0.0000, -3.2266, 14.1365), (0.0000, -4.6181, 13.7449), (0.0000, -5.9637, 13.2168), (0.0000, -7.2500, 12.5574), (0.0000, -8.4643, 11.7731), (0.0000, -9.5944, 10.8718), (0.0000, -10.6293, 9.8625), (0.0000, -11.5584, 8.7552), (0.0000, -12.3727, 7.5608), (0.0000, -13.0640, 6.2913), (0.0000, -13.6255, 4.9593), (0.0000, -14.0516, 3.5780), (0.0000, -14.3380, 2.1611), (0.0000, -14.4820, 0.7228), (0.0000, -14.4820, -0.7228), (0.0000, -14.3380, -2.1611), (0.0000, -14.0516, -3.5780), (0.0000, -13.6255, -4.9593), (0.0000, -13.0640, -6.2913), (0.0000, -12.3727, -7.5608), (0.0000, -11.5584, -8.7552), (0.0000, -10.6293, -9.8625), (0.0000, -9.5944, -10.8718), (0.0000, -8.4643, -11.7731), (0.0000, -7.2500, -12.5574), (0.0000, -5.9637, -13.2168), (0.0000, -4.6181, -13.7449), (0.0000, -3.2266, -14.1365), (0.0000, -1.8030, -14.3875), (0.0000, -0.3615, -14.4955), (0.0000, 1.0836, -14.4595), (0.0000, 2.5179, -14.2797), (0.0000, 3.9272, -13.9581), (0.0000, 5.2974, -13.4977), (0.0000, 6.6151, -12.9031), (0.0000, 7.8669, -12.1804), (0.0000, 9.0406, -11.3366), (0.0000, 10.1244, -10.3801), (0.0000, 11.1076, -9.3204), (0.0000, 11.9805, -8.1681), (0.0000, 12.7342, -6.9347), (0.0000, 13.3614, -5.6323), (0.0000, 13.8558, -4.2740), (0.0000, 14.2125, -2.8731), (0.0000, 14.4279, -1.4437), (0.0000, 14.5000, 0.0000), (0.5000, 15.0000, 0.0000), (0.5000, 15.0000, 0.0000), (0.5000, 14.9255, 1.4935), (0.5000, 14.7026, 2.9722), (0.5000, 14.3336, 4.4213), (0.5000, 13.8221, 5.8265), (0.5000, 13.1733, 7.1738), (0.5000, 12.3936, 8.4498), (0.5000, 11.4907, 9.6418), (0.5000, 10.4736, 10.7380), (0.5000, 9.3523, 11.7275), (0.5000, 8.1382, 12.6004), (0.5000, 6.8432, 13.3481), (0.5000, 5.4801, 13.9631), (0.5000, 4.0626, 14.4394), (0.5000, 2.6047, 14.7721), (0.5000, 1.1210, 14.9581), (0.5000, -0.3740, 14.9953), (0.5000, -1.8652, 14.8836), (0.5000, -3.3378, 14.6239), (0.5000, -4.7773, 14.2189), (0.5000, -6.1693, 13.6726), (0.5000, -7.5000, 12.9904), (0.5000, -8.7562, 12.1791), (0.5000, -9.9253, 11.2467), (0.5000, -10.9958, 10.2026), (0.5000, -11.9570, 9.0571), (0.5000, -12.7994, 7.8215), (0.5000, -13.5145, 6.5083), (0.5000, -14.0954, 5.1303), (0.5000, -14.5362, 3.7014), (0.5000, -14.8325, 2.2356), (0.5000, -14.9814, 0.7477), (0.5000, -14.9814, -0.7477), (0.5000, -14.8325, -2.2356), (0.5000, -14.5362, -3.7014), (0.5000, -14.0954, -5.1303), (0.5000, -13.5145, -6.5083), (0.5000, -12.7994, -7.8215), (0.5000, -11.9570, -9.0571), (0.5000, -10.9958, -10.2026), (0.5000, -9.9253, -11.2467), (0.5000, -8.7562, -12.1791), (0.5000, -7.5000, -12.9904), (0.5000, -6.1693, -13.6726), (0.5000, -4.7773, -14.2189), (0.5000, -3.3378, -14.6239), (0.5000, -1.8652, -14.8836), (0.5000, -0.3740, -14.9953), (0.5000, 1.1210, -14.9581), (0.5000, 2.6047, -14.7721), (0.5000, 4.0626, -14.4394), (0.5000, 5.4801, -13.9631), (0.5000, 6.8432, -13.3481), (0.5000, 8.1382, -12.6004), (0.5000, 9.3523, -11.7275), (0.5000, 10.4736, -10.7380), (0.5000, 11.4907, -9.6418), (0.5000, 12.3936, -8.4498), (0.5000, 13.1733, -7.1738), (0.5000, 13.8221, -5.8265), (0.5000, 14.3336, -4.4213), (0.5000, 14.7026, -2.9722), (0.5000, 14.9255, -1.4935), (0.0000, 14.5000, 0.0000), (0.0000, 14.4279, 1.4437), (0.0000, 14.2125, 2.8731), (0.0000, 13.8558, 4.2740), (0.0000, 13.3614, 5.6323), (0.0000, 12.7342, 6.9347), (0.0000, 11.9805, 8.1681), (0.0000, 11.1076, 9.3204), (0.0000, 10.1244, 10.3801), (0.0000, 9.0406, 11.3366), (0.0000, 7.8669, 12.1804), (0.0000, 6.6151, 12.9031), (0.0000, 5.2974, 13.4977), (0.0000, 3.9272, 13.9581), (0.0000, 2.5179, 14.2797), (0.0000, 1.0836, 14.4595), (0.0000, -0.3615, 14.4955), (0.0000, -1.8030, 14.3875), (0.0000, -3.2266, 14.1365), (0.0000, -4.6181, 13.7449), (0.0000, -5.9637, 13.2168), (0.0000, -7.2500, 12.5574), (0.0000, -8.4643, 11.7731), (0.0000, -9.5944, 10.8718), (0.0000, -10.6293, 9.8625), (0.0000, -11.5584, 8.7552), (0.0000, -12.3727, 7.5608), (0.0000, -13.0640, 6.2913), (0.0000, -13.6255, 4.9593), (0.0000, -14.0516, 3.5780), (0.0000, -14.3380, 2.1611), (0.0000, -14.4820, 0.7228), (0.0000, -14.4820, -0.7228), (0.0000, -14.3380, -2.1611), (0.0000, -14.0516, -3.5780), (0.0000, -13.6255, -4.9593), (0.0000, -13.0640, -6.2913), (0.0000, -12.3727, -7.5608), (0.0000, -11.5584, -8.7552), (0.0000, -10.6293, -9.8625), (0.0000, -9.5944, -10.8718), (0.0000, -8.4643, -11.7731), (0.0000, -7.2500, -12.5574), (0.0000, -5.9637, -13.2168), (0.0000, -4.6181, -13.7449), (0.0000, -3.2266, -14.1365), (0.0000, -1.8030, -14.3875), (0.0000, -0.3615, -14.4955), (0.0000, 1.0836, -14.4595), (0.0000, 2.5179, -14.2797), (0.0000, 3.9272, -13.9581), (0.0000, 5.2974, -13.4977), (0.0000, 6.6151, -12.9031), (0.0000, 7.8669, -12.1804), (0.0000, 9.0406, -11.3366), (0.0000, 10.1244, -10.3801), (0.0000, 11.1076, -9.3204), (0.0000, 11.9805, -8.1681), (0.0000, 12.7342, -6.9347), (0.0000, 13.3614, -5.6323), (0.0000, 13.8558, -4.2740), (0.0000, 14.2125, -2.8731), (0.0000, 14.4279, -1.4437), (0.0000, 13.0000, 0.0000), (0.0000, 12.9354, 1.2944), (0.0000, 12.7422, 2.5759), (0.0000, 12.4224, 3.8318), (0.0000, 11.9792, 5.0497), (0.0000, 11.4169, 6.2173), (0.0000, 10.7411, 7.3232), (0.0000, 9.9586, 8.3562), (0.0000, 9.0771, 9.3063), (0.0000, 8.1054, 10.1638), (0.0000, 7.0531, 10.9203), (0.0000, 5.9307, 11.5683), (0.0000, 4.7494, 12.1014), (0.0000, 3.5209, 12.5141), (0.0000, 2.2574, 12.8025), (0.0000, 0.9715, 12.9636), (0.0000, -0.3241, 12.9960), (0.0000, -1.6165, 12.8991), (0.0000, -2.8928, 12.6741), (0.0000, -4.1403, 12.3231), (0.0000, -5.3467, 11.8496), (0.0000, -6.5000, 11.2583), (0.0000, -7.5887, 10.5552), (0.0000, -8.6019, 9.7472), (0.0000, -9.5297, 8.8422), (0.0000, -10.3627, 7.8495), (0.0000, -11.0928, 6.7787), (0.0000, -11.7126, 5.6405), (0.0000, -12.2160, 4.4463), (0.0000, -12.5980, 3.2078), (0.0000, -12.8548, 1.9375), (0.0000, -12.9838, 0.6480), (0.0000, -12.9838, -0.6480), (0.0000, -12.8548, -1.9375), (0.0000, -12.5980, -3.2078), (0.0000, -12.2160, -4.4463), (0.0000, -11.7126, -5.6405), (0.0000, -11.0928, -6.7787), (0.0000, -10.3627, -7.8495), (0.0000, -9.5297, -8.8422), (0.0000, -8.6019, -9.7472), (0.0000, -7.5887, -10.5552), (0.0000, -6.5000, -11.2583), (0.0000, -5.3467, -11.8496), (0.0000, -4.1403, -12.3231), (0.0000, -2.8928, -12.6741), (0.0000, -1.6165, -12.8991), (0.0000, -0.3241, -12.9960), (0.0000, 0.9715, -12.9636), (0.0000, 2.2574, -12.8025), (0.0000, 3.5209, -12.5141), (0.0000, 4.7494, -12.1014), (0.0000, 5.9307, -11.5683), (0.0000, 7.0531, -10.9203), (0.0000, 8.1054, -10.1638), (0.0000, 9.0771, -9.3063), (0.0000, 9.9586, -8.3562), (0.0000, 10.7411, -7.3232), (0.0000, 11.4169, -6.2173), (0.0000, 11.9792, -5.0497), (0.0000, 12.4224, -3.8318), (0.0000, 12.7422, -2.5759), (0.0000, 12.9354, -1.2944), (0.5000, 15.0000, 0.0000), (11.2500, 15.0000, 0.0000), (0.5000, 14.9255, 1.4935), (0.5000, 14.7026, 2.9722), (0.5000, 14.3336, 4.4213), (0.5000, 13.8221, 5.8265), (0.5000, 13.1733, 7.1738), (0.5000, 12.3936, 8.4498), (0.5000, 11.4907, 9.6418), (0.5000, 10.4736, 10.7380), (0.5000, 9.3523, 11.7275), (0.5000, 8.1382, 12.6004), (0.5000, 6.8432, 13.3481), (0.5000, 5.4801, 13.9631), (0.5000, 4.0626, 14.4394), (0.5000, 2.6047, 14.7721), (0.5000, 1.1210, 14.9581), (0.5000, -0.3740, 14.9953), (0.5000, -1.8652, 14.8836), (0.5000, -3.3378, 14.6239), (0.5000, -4.7773, 14.2189), (0.5000, -6.1693, 13.6726), (0.5000, -7.5000, 12.9904), (0.5000, -8.7562, 12.1791), (0.5000, -9.9253, 11.2467), (0.5000, -10.9958, 10.2026), (0.5000, -11.9570, 9.0571), (0.5000, -12.7994, 7.8215), (0.5000, -13.5145, 6.5083), (0.5000, -14.0954, 5.1303), (0.5000, -14.5362, 3.7014), (0.5000, -14.8325, 2.2356), (0.5000, -14.9814, 0.7477), (0.5000, -14.9814, -0.7477), (0.5000, -14.8325, -2.2356), (0.5000, -14.5362, -3.7014), (0.5000, -14.0954, -5.1303), (0.5000, -13.5145, -6.5083), (0.5000, -12.7994, -7.8215), (0.5000, -11.9570, -9.0571), (0.5000, -10.9958, -10.2026), (0.5000, -9.9253, -11.2467), (0.5000, -8.7562, -12.1791), (0.5000, -7.5000, -12.9904), (0.5000, -6.1693, -13.6726), (0.5000, -4.7773, -14.2189), (0.5000, -3.3378, -14.6239), (0.5000, -1.8652, -14.8836), (0.5000, -0.3740, -14.9953), (0.5000, 1.1210, -14.9581), (0.5000, 2.6047, -14.7721), (0.5000, 4.0626, -14.4394), (0.5000, 5.4801, -13.9631), (0.5000, 6.8432, -13.3481), (0.5000, 8.1382, -12.6004), (0.5000, 9.3523, -11.7275), (0.5000, 10.4736, -10.7380), (0.5000, 11.4907, -9.6418), (0.5000, 12.3936, -8.4498), (0.5000, 13.1733, -7.1738), (0.5000, 13.8221, -5.8265), (0.5000, 14.3336, -4.4213), (0.5000, 14.7026, -2.9722), (0.5000, 14.9255, -1.4935), (0.5000, 15.0000, 0.0000), (11.2500, 15.0000, 0.0000), (13.7500, 15.0000, 0.0000), (13.7450, 14.9996, -0.1121), (13.7301, 14.9984, -0.2220), (13.7060, 14.9964, -0.3287), (13.6731, 14.9938, -0.4316), (13.6321, 14.9906, -0.5299), (13.5837, 14.9871, -0.6229), (13.5286, 14.9832, -0.7102), (13.4677, 14.9791, -0.7913), (13.4017, 14.9750, -0.8657), (13.3316, 14.9709, -0.9332), (13.2585, 14.9671, -0.9936), (13.1826, 14.9634, -1.0472), (13.1041, 14.9600, -1.0943), (13.0234, 14.9570, -1.1351), (12.9409, 14.9543, -1.1697), (12.8569, 14.9521, -1.1980), (12.7718, 14.9503, -1.2201), (12.6858, 14.9490, -1.2361), (12.5992, 14.9482, -1.2461), (12.5123, 14.9478, -1.2499), (12.4254, 14.9480, -1.2478), (12.3387, 14.9487, -1.2395), (12.2525, 14.9499, -1.2253), (12.1671, 14.9515, -1.2049), (12.0827, 14.9536, -1.1783), (11.9998, 14.9562, -1.1455), (11.9185, 14.9591, -1.1065), (11.8394, 14.9624, -1.0612), (11.7627, 14.9660, -1.0094), (11.6889, 14.9698, -0.9511), (11.6185, 14.9738, -0.8863), (11.5522, 14.9778, -0.8149), (11.4905, 14.9819, -0.7372), (11.4342, 14.9858, -0.6532), (11.3840, 14.9894, -0.5632), (11.3407, 14.9927, -0.4674), (11.3049, 14.9955, -0.3665), (11.2776, 14.9977, -0.2614), (11.2594, 14.9992, -0.1533), (11.2524, 14.9998, -0.0769), (24.5000, 15.0000, 0.0000), (24.5000, 15.0000, 0.0000), (24.5000, 14.9255, 1.4935), (24.5000, 14.7026, 2.9722), (24.5000, 14.3336, 4.4213), (24.5000, 13.8221, 5.8265), (24.5000, 13.1733, 7.1738), (24.5000, 12.3936, 8.4498), (24.5000, 11.4907, 9.6418), (24.5000, 10.4736, 10.7380), (24.5000, 9.3523, 11.7275), (24.5000, 8.1382, 12.6004), (24.5000, 6.8432, 13.3481), (24.5000, 5.4801, 13.9631), (24.5000, 4.0626, 14.4394), (24.5000, 2.6047, 14.7721), (24.5000, 1.1210, 14.9581), (24.5000, -0.3740, 14.9953), (24.5000, -1.8652, 14.8836), (24.5000, -3.3378, 14.6239), (24.5000, -4.7773, 14.2189), (24.5000, -6.1693, 13.6726), (24.5000, -7.5000, 12.9904), (24.5000, -8.7562, 12.1791), (24.5000, -9.9253, 11.2467), (24.5000, -10.9958, 10.2026), (24.5000, -11.9570, 9.0571), (24.5000, -12.7994, 7.8215), (24.5000, -13.5145, 6.5083), (24.5000, -14.0954, 5.1303), (24.5000, -14.5362, 3.7014), (24.5000, -14.8325, 2.2356), (24.5000, -14.9814, 0.7477), (24.5000, -14.9814, -0.7477), (24.5000, -14.8325, -2.2356), (24.5000, -14.5362, -3.7014), (24.5000, -14.0954, -5.1303), (24.5000, -13.5145, -6.5083), (24.5000, -12.7994, -7.8215), (24.5000, -11.9570, -9.0571), (24.5000, -10.9958, -10.2026), (24.5000, -9.9253, -11.2467), (24.5000, -8.7562, -12.1791), (24.5000, -7.5000, -12.9904), (24.5000, -6.1693, -13.6726), (24.5000, -4.7773, -14.2189), (24.5000, -3.3378, -14.6239), (24.5000, -1.8652, -14.8836), (24.5000, -0.3740, -14.9953), (24.5000, 1.1210, -14.9581), (24.5000, 2.6047, -14.7721), (24.5000, 4.0626, -14.4394), (24.5000, 5.4801, -13.9631), (24.5000, 6.8432, -13.3481), (24.5000, 8.1382, -12.6004), (24.5000, 9.3523, -11.7275), (24.5000, 10.4736, -10.7380), (24.5000, 11.4907, -9.6418), (24.5000, 12.3936, -8.4498), (24.5000, 13.1733, -7.1738), (24.5000, 13.8221, -5.8265), (24.5000, 14.3336, -4.4213), (24.5000, 14.7026, -2.9722), (24.5000, 14.9255, -1.4935), (13.7500, 15.0000, 0.0000), (11.2550, 14.9996, 0.1121), (11.2699, 14.9984, 0.2220), (11.2940, 14.9964, 0.3287), (11.3269, 14.9938, 0.4316), (11.3679, 14.9906, 0.5299), (11.4163, 14.9871, 0.6229), (11.4714, 14.9832, 0.7102), (11.5323, 14.9791, 0.7913), (11.5983, 14.9750, 0.8657), (11.6684, 14.9709, 0.9332), (11.7415, 14.9671, 0.9936), (11.8174, 14.9634, 1.0472), (11.8959, 14.9600, 1.0943), (11.9766, 14.9570, 1.1351), (12.0591, 14.9543, 1.1697), (12.1431, 14.9521, 1.1980), (12.2282, 14.9503, 1.2201), (12.3143, 14.9490, 1.2361), (12.4008, 14.9482, 1.2461), (12.4877, 14.9478, 1.2499), (12.5746, 14.9480, 1.2478), (12.6613, 14.9487, 1.2395), (12.7475, 14.9499, 1.2253), (12.8329, 14.9515, 1.2048), (12.9173, 14.9536, 1.1783), (13.0002, 14.9562, 1.1455), (13.0815, 14.9591, 1.1065), (13.1607, 14.9624, 1.0611), (13.2373, 14.9660, 1.0094), (13.3112, 14.9698, 0.9510), (13.3823, 14.9738, 0.8855), (13.4495, 14.9780, 0.8130), (13.5120, 14.9820, 0.7337), (13.5689, 14.9860, 0.6481), (13.6193, 14.9897, 0.5565), (13.6624, 14.9930, 0.4596), (13.6977, 14.9957, 0.3579), (13.7243, 14.9979, 0.2522), (13.7418, 14.9993, 0.1431), (13.7479, 14.9998, 0.0720), (0.5000, 12.5000, 0.0000), (0.5000, 12.4379, 1.2446), (0.5000, 12.2522, 2.4768), (0.5000, 11.9447, 3.6844), (0.5000, 11.5185, 4.8554), (0.5000, 10.9778, 5.9782), (0.5000, 10.3280, 7.0415), (0.5000, 9.5756, 8.0348), (0.5000, 8.7280, 8.9483), (0.5000, 7.7936, 9.7729), (0.5000, 6.7818, 10.5003), (0.5000, 5.7026, 11.1234), (0.5000, 4.5668, 11.6359), (0.5000, 3.3855, 12.0328), (0.5000, 2.1706, 12.3101), (0.5000, 0.9341, 12.4650), (0.5000, -0.3116, 12.4961), (0.5000, -1.5543, 12.4030), (0.5000, -2.7815, 12.1866), (0.5000, -3.9811, 11.8491), (0.5000, -5.1411, 11.3938), (0.5000, -6.2500, 10.8253), (0.5000, -7.2968, 10.1492), (0.5000, -8.2711, 9.3723), (0.5000, -9.1631, 8.5022), (0.5000, -9.9642, 7.5476), (0.5000, -10.6661, 6.5179), (0.5000, -11.2621, 5.4235), (0.5000, -11.7462, 4.2753), (0.5000, -12.1135, 3.0845), (0.5000, -12.3604, 1.8630), (0.5000, -12.4845, 0.6231), (0.5000, -12.4845, -0.6231), (0.5000, -12.3604, -1.8630), (0.5000, -12.1135, -3.0845), (0.5000, -11.7462, -4.2753), (0.5000, -11.2621, -5.4235), (0.5000, -10.6661, -6.5179), (0.5000, -9.9642, -7.5476), (0.5000, -9.1631, -8.5022), (0.5000, -8.2711, -9.3723), (0.5000, -7.2968, -10.1492), (0.5000, -6.2500, -10.8253), (0.5000, -5.1411, -11.3938), (0.5000, -3.9811, -11.8491), (0.5000, -2.7815, -12.1866), (0.5000, -1.5543, -12.4030), (0.5000, -0.3116, -12.4961), (0.5000, 0.9341, -12.4650), (0.5000, 2.1706, -12.3101), (0.5000, 3.3855, -12.0328), (0.5000, 4.5668, -11.6359), (0.5000, 5.7026, -11.1234), (0.5000, 6.7818, -10.5003), (0.5000, 7.7936, -9.7729), (0.5000, 8.7280, -8.9483), (0.5000, 9.5756, -8.0348), (0.5000, 10.3280, -7.0415), (0.5000, 10.9778, -5.9782), (0.5000, 11.5185, -4.8554), (0.5000, 11.9447, -3.6844), (0.5000, 12.2522, -2.4768), (0.5000, 12.4379, -1.2446), (0.5000, 12.5000, 0.0000), (0.0000, 13.0000, 0.0000), (0.0000, 13.0000, 0.0000), (0.0000, 12.9354, 1.2944), (0.0000, 12.7422, 2.5759), (0.0000, 12.4224, 3.8318), (0.0000, 11.9792, 5.0497), (0.0000, 11.4169, 6.2173), (0.0000, 10.7411, 7.3232), (0.0000, 9.9586, 8.3562), (0.0000, 9.0771, 9.3063), (0.0000, 8.1054, 10.1638), (0.0000, 7.0531, 10.9203), (0.0000, 5.9307, 11.5683), (0.0000, 4.7494, 12.1014), (0.0000, 3.5209, 12.5141), (0.0000, 2.2574, 12.8025), (0.0000, 0.9715, 12.9636), (0.0000, -0.3241, 12.9960), (0.0000, -1.6165, 12.8991), (0.0000, -2.8928, 12.6741), (0.0000, -4.1403, 12.3231), (0.0000, -5.3467, 11.8496), (0.0000, -6.5000, 11.2583), (0.0000, -7.5887, 10.5552), (0.0000, -8.6019, 9.7472), (0.0000, -9.5297, 8.8422), (0.0000, -10.3627, 7.8495), (0.0000, -11.0928, 6.7787), (0.0000, -11.7126, 5.6405), (0.0000, -12.2160, 4.4463), (0.0000, -12.5980, 3.2078), (0.0000, -12.8548, 1.9375), (0.0000, -12.9838, 0.6480), (0.0000, -12.9838, -0.6480), (0.0000, -12.8548, -1.9375), (0.0000, -12.5980, -3.2078), (0.0000, -12.2160, -4.4463), (0.0000, -11.7126, -5.6405), (0.0000, -11.0928, -6.7787), (0.0000, -10.3627, -7.8495), (0.0000, -9.5297, -8.8422), (0.0000, -8.6019, -9.7472), (0.0000, -7.5887, -10.5552), (0.0000, -6.5000, -11.2583), (0.0000, -5.3467, -11.8496), (0.0000, -4.1403, -12.3231), (0.0000, -2.8928, -12.6741), (0.0000, -1.6165, -12.8991), (0.0000, -0.3241, -12.9960), (0.0000, 0.9715, -12.9636), (0.0000, 2.2574, -12.8025), (0.0000, 3.5209, -12.5141), (0.0000, 4.7494, -12.1014), (0.0000, 5.9307, -11.5683), (0.0000, 7.0531, -10.9203), (0.0000, 8.1054, -10.1638), (0.0000, 9.0771, -9.3063), (0.0000, 9.9586, -8.3562), (0.0000, 10.7411, -7.3232), (0.0000, 11.4169, -6.2173), (0.0000, 11.9792, -5.0497), (0.0000, 12.4224, -3.8318), (0.0000, 12.7422, -2.5759), (0.0000, 12.9354, -1.2944), (13.7500, 12.5000, 0.0000), (13.7450, 12.4995, -0.1121), (13.7302, 12.4980, -0.2218), (13.7061, 12.4957, -0.3285), (13.6733, 12.4926, -0.4312), (13.6323, 12.4888, -0.5294), (13.5840, 12.4845, -0.6224), (13.5290, 12.4798, -0.7097), (13.4681, 12.4750, -0.7907), (13.4022, 12.4700, -0.8652), (13.3323, 12.4652, -0.9327), (13.2592, 12.4605, -0.9930), (13.1834, 12.4561, -1.0466), (13.1050, 12.4520, -1.0939), (13.0243, 12.4484, -1.1347), (12.9419, 12.4452, -1.1693), (12.8579, 12.4425, -1.1977), (12.7728, 12.4403, -1.2199), (12.6869, 12.4387, -1.2360), (12.6003, 12.4377, -1.2460), (12.5135, 12.4374, -1.2499), (12.4266, 12.4376, -1.2478), (12.3399, 12.4384, -1.2397), (12.2537, 12.4398, -1.2255), (12.1683, 12.4418, -1.2052), (12.0840, 12.4443, -1.1787), (12.0010, 12.4473, -1.1461), (11.9198, 12.4509, -1.1072), (11.8406, 12.4548, -1.0619), (11.7639, 12.4591, -1.0103), (11.6902, 12.4637, -0.9522), (11.6198, 12.4685, -0.8875), (11.5534, 12.4733, -0.8164), (11.4917, 12.4781, -0.7388), (11.4353, 12.4828, -0.6550), (11.3851, 12.4872, -0.5652), (11.3416, 12.4912, -0.4697), (11.3057, 12.4946, -0.3690), (11.2782, 12.4972, -0.2641), (11.2598, 12.4990, -0.1561), (11.2525, 12.4998, -0.0783), (11.2500, 12.5000, 0.0000), (13.7500, 15.0000, 0.0000), (13.7450, 14.9996, -0.1121), (13.7301, 14.9984, -0.2220), (13.7060, 14.9964, -0.3287), (13.6731, 14.9938, -0.4316), (13.6321, 14.9906, -0.5299), (13.5837, 14.9871, -0.6229), (13.5286, 14.9832, -0.7102), (13.4677, 14.9791, -0.7913), (13.4017, 14.9750, -0.8657), (13.3316, 14.9709, -0.9332), (13.2585, 14.9671, -0.9936), (13.1826, 14.9634, -1.0472), (13.1041, 14.9600, -1.0943), (13.0234, 14.9570, -1.1351), (12.9409, 14.9543, -1.1697), (12.8569, 14.9521, -1.1980), (12.7718, 14.9503, -1.2201), (12.6858, 14.9490, -1.2361), (12.5992, 14.9482, -1.2461), (12.5123, 14.9478, -1.2499), (12.4254, 14.9480, -1.2478), (12.3387, 14.9487, -1.2395), (12.2525, 14.9499, -1.2253), (12.1671, 14.9515, -1.2049), (12.0827, 14.9536, -1.1783), (11.9998, 14.9562, -1.1455), (11.9185, 14.9591, -1.1065), (11.8394, 14.9624, -1.0612), (11.7627, 14.9660, -1.0094), (11.6889, 14.9698, -0.9511), (11.6185, 14.9738, -0.8863), (11.5522, 14.9778, -0.8149), (11.4905, 14.9819, -0.7372), (11.4342, 14.9858, -0.6532), (11.3840, 14.9894, -0.5632), (11.3407, 14.9927, -0.4674), (11.3049, 14.9955, -0.3665), (11.2776, 14.9977, -0.2614), (11.2594, 14.9992, -0.1533), (11.2524, 14.9998, -0.0769), (11.2500, 15.0000, 0.0000), (11.2550, 14.9996, 0.1121), (11.2699, 14.9984, 0.2220), (11.2940, 14.9964, 0.3287), (11.3269, 14.9938, 0.4316), (11.3679, 14.9906, 0.5299), (11.4163, 14.9871, 0.6229), (11.4714, 14.9832, 0.7102), (11.5323, 14.9791, 0.7913), (11.5983, 14.9750, 0.8657), (11.6684, 14.9709, 0.9332), (11.7415, 14.9671, 0.9936), (11.8174, 14.9634, 1.0472), (11.8959, 14.9600, 1.0943), (11.9766, 14.9570, 1.1351), (12.0591, 14.9543, 1.1697), (12.1431, 14.9521, 1.1980), (12.2282, 14.9503, 1.2201), (12.3143, 14.9490, 1.2361), (12.4008, 14.9482, 1.2461), (12.4877, 14.9478, 1.2499), (12.5746, 14.9480, 1.2478), (12.6613, 14.9487, 1.2395), (12.7475, 14.9499, 1.2253), (12.8329, 14.9515, 1.2048), (12.9173, 14.9536, 1.1783), (13.0002, 14.9562, 1.1455), (13.0815, 14.9591, 1.1065), (13.1607, 14.9624, 1.0611), (13.2373, 14.9660, 1.0094), (13.3112, 14.9698, 0.9510), (13.3823, 14.9738, 0.8855), (13.4495, 14.9780, 0.8130), (13.5120, 14.9820, 0.7337), (13.5689, 14.9860, 0.6481), (13.6193, 14.9897, 0.5565), (13.6624, 14.9930, 0.4596), (13.6977, 14.9957, 0.3579), (13.7243, 14.9979, 0.2522), (13.7418, 14.9993, 0.1431), (13.7479, 14.9998, 0.0720), (13.7500, 15.0000, 0.0000), (13.7500, 12.5000, 0.0000), (11.2550, 12.4995, 0.1121), (11.2698, 12.4980, 0.2218), (11.2939, 12.4957, 0.3285), (11.3267, 12.4926, 0.4312), (11.3677, 12.4888, 0.5294), (11.4160, 12.4845, 0.6224), (11.4710, 12.4798, 0.7097), (11.5319, 12.4750, 0.7907), (11.5978, 12.4700, 0.8652), (11.6677, 12.4652, 0.9327), (11.7408, 12.4605, 0.9930), (11.8166, 12.4561, 1.0466), (11.8950, 12.4520, 1.0939), (11.9757, 12.4484, 1.1347), (12.0581, 12.4452, 1.1693), (12.1421, 12.4425, 1.1977), (12.2272, 12.4403, 1.2199), (12.3132, 12.4387, 1.2360), (12.3997, 12.4377, 1.2460), (12.4866, 12.4374, 1.2499), (12.5735, 12.4376, 1.2478), (12.6601, 12.4384, 1.2397), (12.7463, 12.4398, 1.2255), (12.8317, 12.4418, 1.2052), (12.9161, 12.4443, 1.1787), (12.9990, 12.4474, 1.1461), (13.0803, 12.4509, 1.1072), (13.1594, 12.4548, 1.0619), (13.2361, 12.4591, 1.0103), (13.3100, 12.4637, 0.9521), (13.3810, 12.4685, 0.8868), (13.4483, 12.4734, 0.8144), (13.5108, 12.4784, 0.7354), (13.5678, 12.4831, 0.6499), (13.6183, 12.4875, 0.5586), (13.6616, 12.4915, 0.4618), (13.6969, 12.4948, 0.3604), (13.7238, 12.4974, 0.2548), (13.7415, 12.4991, 0.1459), (13.7478, 12.4998, 0.0734), (24.5000, 15.0000, 0.0000), (24.5000, 14.9255, 1.4935), (24.5000, 14.7026, 2.9722), (24.5000, 14.3336, 4.4213), (24.5000, 13.8221, 5.8265), (24.5000, 13.1733, 7.1738), (24.5000, 12.3936, 8.4498), (24.5000, 11.4907, 9.6418), (24.5000, 10.4736, 10.7380), (24.5000, 9.3523, 11.7275), (24.5000, 8.1382, 12.6004), (24.5000, 6.8432, 13.3481), (24.5000, 5.4801, 13.9631), (24.5000, 4.0626, 14.4394), (24.5000, 2.6047, 14.7721), (24.5000, 1.1210, 14.9581), (24.5000, -0.3740, 14.9953), (24.5000, -1.8652, 14.8836), (24.5000, -3.3378, 14.6239), (24.5000, -4.7773, 14.2189), (24.5000, -6.1693, 13.6726), (24.5000, -7.5000, 12.9904), (24.5000, -8.7562, 12.1791), (24.5000, -9.9253, 11.2467), (24.5000, -10.9958, 10.2026), (24.5000, -11.9570, 9.0571), (24.5000, -12.7994, 7.8215), (24.5000, -13.5145, 6.5083), (24.5000, -14.0954, 5.1303), (24.5000, -14.5362, 3.7014), (24.5000, -14.8325, 2.2356), (24.5000, -14.9814, 0.7477), (24.5000, -14.9814, -0.7477), (24.5000, -14.8325, -2.2356), (24.5000, -14.5362, -3.7014), (24.5000, -14.0954, -5.1303), (24.5000, -13.5145, -6.5083), (24.5000, -12.7994, -7.8215), (24.5000, -11.9570, -9.0571), (24.5000, -10.9958, -10.2026), (24.5000, -9.9253, -11.2467), (24.5000, -8.7562, -12.1791), (24.5000, -7.5000, -12.9904), (24.5000, -6.1693, -13.6726), (24.5000, -4.7773, -14.2189), (24.5000, -3.3378, -14.6239), (24.5000, -1.8652, -14.8836), (24.5000, -0.3740, -14.9953), (24.5000, 1.1210, -14.9581), (24.5000, 2.6047, -14.7721), (24.5000, 4.0626, -14.4394), (24.5000, 5.4801, -13.9631), (24.5000, 6.8432, -13.3481), (24.5000, 8.1382, -12.6004), (24.5000, 9.3523, -11.7275), (24.5000, 10.4736, -10.7380), (24.5000, 11.4907, -9.6418), (24.5000, 12.3936, -8.4498), (24.5000, 13.1733, -7.1738), (24.5000, 13.8221, -5.8265), (24.5000, 14.3336, -4.4213), (24.5000, 14.7026, -2.9722), (24.5000, 14.9255, -1.4935), (24.5000, 15.0000, 0.0000), (25.0000, 14.5000, 0.0000), (25.0000, 14.5000, 0.0000), (25.0000, 14.4279, 1.4437), (25.0000, 14.2125, 2.8731), (25.0000, 13.8558, 4.2740), (25.0000, 13.3614, 5.6323), (25.0000, 12.7342, 6.9347), (25.0000, 11.9805, 8.1681), (25.0000, 11.1076, 9.3204), (25.0000, 10.1244, 10.3801), (25.0000, 9.0406, 11.3366), (25.0000, 7.8669, 12.1804), (25.0000, 6.6151, 12.9031), (25.0000, 5.2974, 13.4977), (25.0000, 3.9272, 13.9581), (25.0000, 2.5179, 14.2797), (25.0000, 1.0836, 14.4595), (25.0000, -0.3615, 14.4955), (25.0000, -1.8030, 14.3875), (25.0000, -3.2266, 14.1365), (25.0000, -4.6181, 13.7449), (25.0000, -5.9637, 13.2168), (25.0000, -7.2500, 12.5574), (25.0000, -8.4643, 11.7731), (25.0000, -9.5944, 10.8718), (25.0000, -10.6293, 9.8625), (25.0000, -11.5584, 8.7552), (25.0000, -12.3727, 7.5608), (25.0000, -13.0640, 6.2913), (25.0000, -13.6255, 4.9593), (25.0000, -14.0516, 3.5780), (25.0000, -14.3380, 2.1611), (25.0000, -14.4820, 0.7228), (25.0000, -14.4820, -0.7228), (25.0000, -14.3380, -2.1611), (25.0000, -14.0516, -3.5780), (25.0000, -13.6255, -4.9593), (25.0000, -13.0640, -6.2913), (25.0000, -12.3727, -7.5608), (25.0000, -11.5584, -8.7552), (25.0000, -10.6293, -9.8625), (25.0000, -9.5944, -10.8718), (25.0000, -8.4643, -11.7731), (25.0000, -7.2500, -12.5574), (25.0000, -5.9637, -13.2168), (25.0000, -4.6181, -13.7449), (25.0000, -3.2266, -14.1365), (25.0000, -1.8030, -14.3875), (25.0000, -0.3615, -14.4955), (25.0000, 1.0836, -14.4595), (25.0000, 2.5179, -14.2797), (25.0000, 3.9272, -13.9581), (25.0000, 5.2974, -13.4977), (25.0000, 6.6151, -12.9031), (25.0000, 7.8669, -12.1804), (25.0000, 9.0406, -11.3366), (25.0000, 10.1244, -10.3801), (25.0000, 11.1076, -9.3204), (25.0000, 11.9805, -8.1681), (25.0000, 12.7342, -6.9347), (25.0000, 13.3614, -5.6323), (25.0000, 13.8558, -4.2740), (25.0000, 14.2125, -2.8731), (25.0000, 14.4279, -1.4437), (24.5000, 12.5000, 0.0000), (13.7500, 12.5000, 0.0000), (24.5000, 12.4379, 1.2446), (24.5000, 12.2522, 2.4768), (24.5000, 11.9447, 3.6844), (24.5000, 11.5185, 4.8554), (24.5000, 10.9778, 5.9782), (24.5000, 10.3280, 7.0415), (24.5000, 9.5756, 8.0348), (24.5000, 8.7280, 8.9483), (24.5000, 7.7936, 9.7729), (24.5000, 6.7818, 10.5003), (24.5000, 5.7026, 11.1234), (24.5000, 4.5668, 11.6359), (24.5000, 3.3855, 12.0328), (24.5000, 2.1706, 12.3101), (24.5000, 0.9341, 12.4650), (24.5000, -0.3116, 12.4961), (24.5000, -1.5543, 12.4030), (24.5000, -2.7815, 12.1866), (24.5000, -3.9811, 11.8491), (24.5000, -5.1411, 11.3938), (24.5000, -6.2500, 10.8253), (24.5000, -7.2968, 10.1492), (24.5000, -8.2711, 9.3723), (24.5000, -9.1631, 8.5022), (24.5000, -9.9642, 7.5476), (24.5000, -10.6661, 6.5179), (24.5000, -11.2621, 5.4235), (24.5000, -11.7462, 4.2753), (24.5000, -12.1135, 3.0845), (24.5000, -12.3604, 1.8630), (24.5000, -12.4845, 0.6231), (24.5000, -12.4845, -0.6231), (24.5000, -12.3604, -1.8630), (24.5000, -12.1135, -3.0845), (24.5000, -11.7462, -4.2753), (24.5000, -11.2621, -5.4235), (24.5000, -10.6661, -6.5179), (24.5000, -9.9642, -7.5476), (24.5000, -9.1631, -8.5022), (24.5000, -8.2711, -9.3723), (24.5000, -7.2968, -10.1492), (24.5000, -6.2500, -10.8253), (24.5000, -5.1411, -11.3938), (24.5000, -3.9811, -11.8491), (24.5000, -2.7815, -12.1866), (24.5000, -1.5543, -12.4030), (24.5000, -0.3116, -12.4961), (24.5000, 0.9341, -12.4650), (24.5000, 2.1706, -12.3101), (24.5000, 3.3855, -12.0328), (24.5000, 4.5668, -11.6359), (24.5000, 5.7026, -11.1234), (24.5000, 6.7818, -10.5003), (24.5000, 7.7936, -9.7729), (24.5000, 8.7280, -8.9483), (24.5000, 9.5756, -8.0348), (24.5000, 10.3280, -7.0415), (24.5000, 10.9778, -5.9782), (24.5000, 11.5185, -4.8554), (24.5000, 11.9447, -3.6844), (24.5000, 12.2522, -2.4768), (24.5000, 12.4379, -1.2446), (24.5000, 12.5000, 0.0000), (13.7500, 12.5000, 0.0000), (13.7450, 12.4995, -0.1121), (13.7302, 12.4980, -0.2218), (13.7061, 12.4957, -0.3285), (13.6733, 12.4926, -0.4312), (13.6323, 12.4888, -0.5294), (13.5840, 12.4845, -0.6224), (13.5290, 12.4798, -0.7097), (13.4681, 12.4750, -0.7907), (13.4022, 12.4700, -0.8652), (13.3323, 12.4652, -0.9327), (13.2592, 12.4605, -0.9930), (13.1834, 12.4561, -1.0466), (13.1050, 12.4520, -1.0939), (13.0243, 12.4484, -1.1347), (12.9419, 12.4452, -1.1693), (12.8579, 12.4425, -1.1977), (12.7728, 12.4403, -1.2199), (12.6869, 12.4387, -1.2360), (12.6003, 12.4377, -1.2460), (12.5135, 12.4374, -1.2499), (12.4266, 12.4376, -1.2478), (12.3399, 12.4384, -1.2397), (12.2537, 12.4398, -1.2255), (12.1683, 12.4418, -1.2052), (12.0840, 12.4443, -1.1787), (12.0010, 12.4473, -1.1461), (11.9198, 12.4509, -1.1072), (11.8406, 12.4548, -1.0619), (11.7639, 12.4591, -1.0103), (11.6902, 12.4637, -0.9522), (11.6198, 12.4685, -0.8875), (11.5534, 12.4733, -0.8164), (11.4917, 12.4781, -0.7388), (11.4353, 12.4828, -0.6550), (11.3851, 12.4872, -0.5652), (11.3416, 12.4912, -0.4697), (11.3057, 12.4946, -0.3690), (11.2782, 12.4972, -0.2641), (11.2598, 12.4990, -0.1561), (11.2525, 12.4998, -0.0783), (11.2500, 12.5000, 0.0000), (0.5000, 12.5000, 0.0000), (0.5000, 12.5000, 0.0000), (0.5000, 12.4379, 1.2446), (0.5000, 12.2522, 2.4768), (0.5000, 11.9447, 3.6844), (0.5000, 11.5185, 4.8554), (0.5000, 10.9778, 5.9782), (0.5000, 10.3280, 7.0415), (0.5000, 9.5756, 8.0348), (0.5000, 8.7280, 8.9483), (0.5000, 7.7936, 9.7729), (0.5000, 6.7818, 10.5003), (0.5000, 5.7026, 11.1234), (0.5000, 4.5668, 11.6359), (0.5000, 3.3855, 12.0328), (0.5000, 2.1706, 12.3101), (0.5000, 0.9341, 12.4650), (0.5000, -0.3116, 12.4961), (0.5000, -1.5543, 12.4030), (0.5000, -2.7815, 12.1866), (0.5000, -3.9811, 11.8491), (0.5000, -5.1411, 11.3938), (0.5000, -6.2500, 10.8253), (0.5000, -7.2968, 10.1492), (0.5000, -8.2711, 9.3723), (0.5000, -9.1631, 8.5022), (0.5000, -9.9642, 7.5476), (0.5000, -10.6661, 6.5179), (0.5000, -11.2621, 5.4235), (0.5000, -11.7462, 4.2753), (0.5000, -12.1135, 3.0845), (0.5000, -12.3604, 1.8630), (0.5000, -12.4845, 0.6231), (0.5000, -12.4845, -0.6231), (0.5000, -12.3604, -1.8630), (0.5000, -12.1135, -3.0845), (0.5000, -11.7462, -4.2753), (0.5000, -11.2621, -5.4235), (0.5000, -10.6661, -6.5179), (0.5000, -9.9642, -7.5476), (0.5000, -9.1631, -8.5022), (0.5000, -8.2711, -9.3723), (0.5000, -7.2968, -10.1492), (0.5000, -6.2500, -10.8253), (0.5000, -5.1411, -11.3938), (0.5000, -3.9811, -11.8491), (0.5000, -2.7815, -12.1866), (0.5000, -1.5543, -12.4030), (0.5000, -0.3116, -12.4961), (0.5000, 0.9341, -12.4650), (0.5000, 2.1706, -12.3101), (0.5000, 3.3855, -12.0328), (0.5000, 4.5668, -11.6359), (0.5000, 5.7026, -11.1234), (0.5000, 6.7818, -10.5003), (0.5000, 7.7936, -9.7729), (0.5000, 8.7280, -8.9483), (0.5000, 9.5756, -8.0348), (0.5000, 10.3280, -7.0415), (0.5000, 10.9778, -5.9782), (0.5000, 11.5185, -4.8554), (0.5000, 11.9447, -3.6844), (0.5000, 12.2522, -2.4768), (0.5000, 12.4379, -1.2446), (11.2500, 12.5000, 0.0000), (11.2550, 12.4995, 0.1121), (11.2698, 12.4980, 0.2218), (11.2939, 12.4957, 0.3285), (11.3267, 12.4926, 0.4312), (11.3677, 12.4888, 0.5294), (11.4160, 12.4845, 0.6224), (11.4710, 12.4798, 0.7097), (11.5319, 12.4750, 0.7907), (11.5978, 12.4700, 0.8652), (11.6677, 12.4652, 0.9327), (11.7408, 12.4605, 0.9930), (11.8166, 12.4561, 1.0466), (11.8950, 12.4520, 1.0939), (11.9757, 12.4484, 1.1347), (12.0581, 12.4452, 1.1693), (12.1421, 12.4425, 1.1977), (12.2272, 12.4403, 1.2199), (12.3132, 12.4387, 1.2360), (12.3997, 12.4377, 1.2460), (12.4866, 12.4374, 1.2499), (12.5735, 12.4376, 1.2478), (12.6601, 12.4384, 1.2397), (12.7463, 12.4398, 1.2255), (12.8317, 12.4418, 1.2052), (12.9161, 12.4443, 1.1787), (12.9990, 12.4474, 1.1461), (13.0803, 12.4509, 1.1072), (13.1594, 12.4548, 1.0619), (13.2361, 12.4591, 1.0103), (13.3100, 12.4637, 0.9521), (13.3810, 12.4685, 0.8868), (13.4483, 12.4734, 0.8144), (13.5108, 12.4784, 0.7354), (13.5678, 12.4831, 0.6499), (13.6183, 12.4875, 0.5586), (13.6616, 12.4915, 0.4618), (13.6969, 12.4948, 0.3604), (13.7238, 12.4974, 0.2548), (13.7415, 12.4991, 0.1459), (13.7478, 12.4998, 0.0734), (25.0000, 14.5000, 0.0000), (25.0000, 14.4279, 1.4437), (25.0000, 14.2125, 2.8731), (25.0000, 13.8558, 4.2740), (25.0000, 13.3614, 5.6323), (25.0000, 12.7342, 6.9347), (25.0000, 11.9805, 8.1681), (25.0000, 11.1076, 9.3204), (25.0000, 10.1244, 10.3801), (25.0000, 9.0406, 11.3366), (25.0000, 7.8669, 12.1804), (25.0000, 6.6151, 12.9031), (25.0000, 5.2974, 13.4977), (25.0000, 3.9272, 13.9581), (25.0000, 2.5179, 14.2797), (25.0000, 1.0836, 14.4595), (25.0000, -0.3615, 14.4955), (25.0000, -1.8030, 14.3875), (25.0000, -3.2266, 14.1365), (25.0000, -4.6181, 13.7449), (25.0000, -5.9637, 13.2168), (25.0000, -7.2500, 12.5574), (25.0000, -8.4643, 11.7731), (25.0000, -9.5944, 10.8718), (25.0000, -10.6293, 9.8625), (25.0000, -11.5584, 8.7552), (25.0000, -12.3727, 7.5608), (25.0000, -13.0640, 6.2913), (25.0000, -13.6255, 4.9593), (25.0000, -14.0516, 3.5780), (25.0000, -14.3380, 2.1611), (25.0000, -14.4820, 0.7228), (25.0000, -14.4820, -0.7228), (25.0000, -14.3380, -2.1611), (25.0000, -14.0516, -3.5780), (25.0000, -13.6255, -4.9593), (25.0000, -13.0640, -6.2913), (25.0000, -12.3727, -7.5608), (25.0000, -11.5584, -8.7552), (25.0000, -10.6293, -9.8625), (25.0000, -9.5944, -10.8718), (25.0000, -8.4643, -11.7731), (25.0000, -7.2500, -12.5574), (25.0000, -5.9637, -13.2168), (25.0000, -4.6181, -13.7449), (25.0000, -3.2266, -14.1365), (25.0000, -1.8030, -14.3875), (25.0000, -0.3615, -14.4955), (25.0000, 1.0836, -14.4595), (25.0000, 2.5179, -14.2797), (25.0000, 3.9272, -13.9581), (25.0000, 5.2974, -13.4977), (25.0000, 6.6151, -12.9031), (25.0000, 7.8669, -12.1804), (25.0000, 9.0406, -11.3366), (25.0000, 10.1244, -10.3801), (25.0000, 11.1076, -9.3204), (25.0000, 11.9805, -8.1681), (25.0000, 12.7342, -6.9347), (25.0000, 13.3614, -5.6323), (25.0000, 13.8558, -4.2740), (25.0000, 14.2125, -2.8731), (25.0000, 14.4279, -1.4437), (25.0000, 13.0000, 0.0000), (25.0000, 12.9354, 1.2944), (25.0000, 12.7422, 2.5759), (25.0000, 12.4224, 3.8318), (25.0000, 11.9792, 5.0497), (25.0000, 11.4169, 6.2173), (25.0000, 10.7411, 7.3232), (25.0000, 9.9586, 8.3562), (25.0000, 9.0771, 9.3063), (25.0000, 8.1054, 10.1638), (25.0000, 7.0531, 10.9203), (25.0000, 5.9307, 11.5683), (25.0000, 4.7494, 12.1014), (25.0000, 3.5209, 12.5141), (25.0000, 2.2574, 12.8025), (25.0000, 0.9715, 12.9636), (25.0000, -0.3241, 12.9960), (25.0000, -1.6165, 12.8991), (25.0000, -2.8928, 12.6741), (25.0000, -4.1403, 12.3231), (25.0000, -5.3467, 11.8496), (25.0000, -6.5000, 11.2583), (25.0000, -7.5887, 10.5552), (25.0000, -8.6019, 9.7472), (25.0000, -9.5297, 8.8422), (25.0000, -10.3627, 7.8495), (25.0000, -11.0928, 6.7787), (25.0000, -11.7126, 5.6405), (25.0000, -12.2160, 4.4463), (25.0000, -12.5980, 3.2078), (25.0000, -12.8548, 1.9375), (25.0000, -12.9838, 0.6480), (25.0000, -12.9838, -0.6480), (25.0000, -12.8548, -1.9375), (25.0000, -12.5980, -3.2078), (25.0000, -12.2160, -4.4463), (25.0000, -11.7126, -5.6405), (25.0000, -11.0928, -6.7787), (25.0000, -10.3627, -7.8495), (25.0000, -9.5297, -8.8422), (25.0000, -8.6019, -9.7472), (25.0000, -7.5887, -10.5552), (25.0000, -6.5000, -11.2583), (25.0000, -5.3467, -11.8496), (25.0000, -4.1403, -12.3231), (25.0000, -2.8928, -12.6741), (25.0000, -1.6165, -12.8991), (25.0000, -0.3241, -12.9960), (25.0000, 0.9715, -12.9636), (25.0000, 2.2574, -12.8025), (25.0000, 3.5209, -12.5141), (25.0000, 4.7494, -12.1014), (25.0000, 5.9307, -11.5683), (25.0000, 7.0531, -10.9203), (25.0000, 8.1054, -10.1638), (25.0000, 9.0771, -9.3063), (25.0000, 9.9586, -8.3562), (25.0000, 10.7411, -7.3232), (25.0000, 11.4169, -6.2173), (25.0000, 11.9792, -5.0497), (25.0000, 12.4224, -3.8318), (25.0000, 12.7422, -2.5759), (25.0000, 12.9354, -1.2944), (25.0000, 13.0000, 0.0000), (25.0000, 12.9354, 1.2944), (25.0000, 12.7422, 2.5759), (25.0000, 12.4224, 3.8318), (25.0000, 11.9792, 5.0497), (25.0000, 11.4169, 6.2173), (25.0000, 10.7411, 7.3232), (25.0000, 9.9586, 8.3562), (25.0000, 9.0771, 9.3063), (25.0000, 8.1054, 10.1638), (25.0000, 7.0531, 10.9203), (25.0000, 5.9307, 11.5683), (25.0000, 4.7494, 12.1014), (25.0000, 3.5209, 12.5141), (25.0000, 2.2574, 12.8025), (25.0000, 0.9715, 12.9636), (25.0000, -0.3241, 12.9960), (25.0000, -1.6165, 12.8991), (25.0000, -2.8928, 12.6741), (25.0000, -4.1403, 12.3231), (25.0000, -5.3467, 11.8496), (25.0000, -6.5000, 11.2583), (25.0000, -7.5887, 10.5552), (25.0000, -8.6019, 9.7472), (25.0000, -9.5297, 8.8422), (25.0000, -10.3627, 7.8495), (25.0000, -11.0928, 6.7787), (25.0000, -11.7126, 5.6405), (25.0000, -12.2160, 4.4463), (25.0000, -12.5980, 3.2078), (25.0000, -12.8548, 1.9375), (25.0000, -12.9838, 0.6480), (25.0000, -12.9838, -0.6480), (25.0000, -12.8548, -1.9375), (25.0000, -12.5980, -3.2078), (25.0000, -12.2160, -4.4463), (25.0000, -11.7126, -5.6405), (25.0000, -11.0928, -6.7787), (25.0000, -10.3627, -7.8495), (25.0000, -9.5297, -8.8422), (25.0000, -8.6019, -9.7472), (25.0000, -7.5887, -10.5552), (25.0000, -6.5000, -11.2583), (25.0000, -5.3467, -11.8496), (25.0000, -4.1403, -12.3231), (25.0000, -2.8928, -12.6741), (25.0000, -1.6165, -12.8991), (25.0000, -0.3241, -12.9960), (25.0000, 0.9715, -12.9636), (25.0000, 2.2574, -12.8025), (25.0000, 3.5209, -12.5141), (25.0000, 4.7494, -12.1014), (25.0000, 5.9307, -11.5683), (25.0000, 7.0531, -10.9203), (25.0000, 8.1054, -10.1638), (25.0000, 9.0771, -9.3063), (25.0000, 9.9586, -8.3562), (25.0000, 10.7411, -7.3232), (25.0000, 11.4169, -6.2173), (25.0000, 11.9792, -5.0497), (25.0000, 12.4224, -3.8318), (25.0000, 12.7422, -2.5759), (25.0000, 12.9354, -1.2944), (25.0000, 13.0000, 0.0000), (24.5000, 12.5000, 0.0000), (24.5000, 12.5000, 0.0000), (24.5000, 12.4379, 1.2446), (24.5000, 12.2522, 2.4768), (24.5000, 11.9447, 3.6844), (24.5000, 11.5185, 4.8554), (24.5000, 10.9778, 5.9782), (24.5000, 10.3280, 7.0415), (24.5000, 9.5756, 8.0348), (24.5000, 8.7280, 8.9483), (24.5000, 7.7936, 9.7729), (24.5000, 6.7818, 10.5003), (24.5000, 5.7026, 11.1234), (24.5000, 4.5668, 11.6359), (24.5000, 3.3855, 12.0328), (24.5000, 2.1706, 12.3101), (24.5000, 0.9341, 12.4650), (24.5000, -0.3116, 12.4961), (24.5000, -1.5543, 12.4030), (24.5000, -2.7815, 12.1866), (24.5000, -3.9811, 11.8491), (24.5000, -5.1411, 11.3938), (24.5000, -6.2500, 10.8253), (24.5000, -7.2968, 10.1492), (24.5000, -8.2711, 9.3723), (24.5000, -9.1631, 8.5022), (24.5000, -9.9642, 7.5476), (24.5000, -10.6661, 6.5179), (24.5000, -11.2621, 5.4235), (24.5000, -11.7462, 4.2753), (24.5000, -12.1135, 3.0845), (24.5000, -12.3604, 1.8630), (24.5000, -12.4845, 0.6231), (24.5000, -12.4845, -0.6231), (24.5000, -12.3604, -1.8630), (24.5000, -12.1135, -3.0845), (24.5000, -11.7462, -4.2753), (24.5000, -11.2621, -5.4235), (24.5000, -10.6661, -6.5179), (24.5000, -9.9642, -7.5476), (24.5000, -9.1631, -8.5022), (24.5000, -8.2711, -9.3723), (24.5000, -7.2968, -10.1492), (24.5000, -6.2500, -10.8253), (24.5000, -5.1411, -11.3938), (24.5000, -3.9811, -11.8491), (24.5000, -2.7815, -12.1866), (24.5000, -1.5543, -12.4030), (24.5000, -0.3116, -12.4961), (24.5000, 0.9341, -12.4650), (24.5000, 2.1706, -12.3101), (24.5000, 3.3855, -12.0328), (24.5000, 4.5668, -11.6359), (24.5000, 5.7026, -11.1234), (24.5000, 6.7818, -10.5003), (24.5000, 7.7936, -9.7729), (24.5000, 8.7280, -8.9483), (24.5000, 9.5756, -8.0348), (24.5000, 10.3280, -7.0415), (24.5000, 10.9778, -5.9782), (24.5000, 11.5185, -4.8554), (24.5000, 11.9447, -3.6844), (24.5000, 12.2522, -2.4768), (24.5000, 12.4379, -1.2446)]
        uniform token subdivisionScheme = "none"
        color3f[] primvars:displayColor = [(0.72, 0.74, 0.77)]
    }
}
