<svg xmlns="http://www.w3.org/2000/svg" viewBox="0 0 297 210" width="1188" height="840" font-family="Pretendard, 'Segoe UI', Arial, sans-serif" data-vringon-dsl="shaft-collar" data-scale="2">
<rect width="297" height="210" fill="#FFFFFF"/>
<g id="hatch" stroke="#111111" stroke-width="0.18" fill="none" stroke-linecap="round" stroke-linejoin="round">
<line x1="157.577" y1="72.1" x2="160.545" y2="69.132"/>
<line x1="154.042" y1="72.1" x2="160.545" y2="65.597"/>
<line x1="150.506" y1="72.1" x2="160.526" y2="62.081"/>
<line x1="146.971" y1="72.1" x2="158.758" y2="60.313"/>
<line x1="143.435" y1="72.1" x2="155.435" y2="60.1"/>
<line x1="139.9" y1="72.1" x2="151.9" y2="60.1"/>
<line x1="136.364" y1="72.1" x2="148.364" y2="60.1"/>
<line x1="132.828" y1="72.1" x2="144.828" y2="60.1"/>
<line x1="129.519" y1="71.874" x2="141.293" y2="60.1"/>
<line x1="128.545" y1="69.312" x2="137.757" y2="60.1"/>
<line x1="128.545" y1="65.777" x2="134.222" y2="60.1"/>
<line x1="128.545" y1="62.241" x2="130.686" y2="60.1"/>
<line x1="156.777" y1="124.1" x2="160.545" y2="120.332"/>
<line x1="153.242" y1="124.1" x2="160.545" y2="116.797"/>
<line x1="149.706" y1="124.1" x2="160.526" y2="113.281"/>
<line x1="146.171" y1="124.1" x2="158.171" y2="112.1"/>
<line x1="142.635" y1="124.1" x2="154.635" y2="112.1"/>
<line x1="139.1" y1="124.1" x2="151.1" y2="112.1"/>
<line x1="135.564" y1="124.1" x2="147.564" y2="112.1"/>
<line x1="132.028" y1="124.1" x2="144.028" y2="112.1"/>
<line x1="129.519" y1="123.074" x2="140.493" y2="112.1"/>
<line x1="128.545" y1="120.512" x2="136.957" y2="112.1"/>
<line x1="128.545" y1="116.977" x2="133.422" y2="112.1"/>
<line x1="128.545" y1="113.441" x2="129.886" y2="112.1"/>
</g>
<g id="center" stroke="#111111" stroke-width="0.18" fill="none" stroke-linecap="round" stroke-linejoin="round" stroke-dasharray="8 1.5 0.5 1.5">
<line x1="120.545" y1="92.1" x2="168.545" y2="92.1"/>
</g>
<g id="hidden" stroke="#111111" stroke-width="0.25" fill="none" stroke-linecap="round" stroke-linejoin="round" stroke-dasharray="3 1.5">
<line x1="138.545" y1="72.1" x2="138.545" y2="60.1"/>
<line x1="150.545" y1="72.1" x2="150.545" y2="60.1"/>
<line x1="138.545" y1="72.1" x2="150.545" y2="72.1"/>
</g>
<g id="dim" stroke="#111111" stroke-width="0.18" fill="none" stroke-linecap="round" stroke-linejoin="round">
<line x1="128.545" y1="125.1" x2="128.545" y2="141.1"/>
<line x1="160.545" y1="125.1" x2="160.545" y2="141.1"/>
<line x1="128.545" y1="139.1" x2="160.545" y2="139.1"/>
<polygon points="128.545,139.1 131.545,138.59 131.545,139.61" fill="#111111" stroke="none"/>
<polygon points="160.545,139.1 157.545,139.61 157.545,138.59" fill="#111111" stroke="none"/>
<line x1="144.545" y1="124.1" x2="144.545" y2="50.1"/>
<polygon points="144.545,124.1 144.035,121.1 145.055,121.1" fill="#111111" stroke="none"/>
<polygon points="144.545,60.1 145.055,63.1 144.035,63.1" fill="#111111" stroke="none"/>
<line x1="144.545" y1="112.1" x2="144.545" y2="55.1"/>
<polygon points="144.545,112.1 144.035,109.1 145.055,109.1" fill="#111111" stroke="none"/>
<polygon points="144.545,72.1 145.055,75.1 144.035,75.1" fill="#111111" stroke="none"/>
<line x1="129.545" y1="61.1" x2="123.545" y2="53.1"/>
<line x1="123.545" y1="53.1" x2="117.205" y2="53.1"/>
<polygon points="129.545,61.1 131.753,63.194 130.937,63.806" fill="#111111" stroke="none"/>
<line x1="159.545" y1="61.1" x2="165.545" y2="53.1"/>
<line x1="165.545" y1="53.1" x2="171.885" y2="53.1"/>
<polygon points="159.545,61.1 158.153,63.806 157.337,63.194" fill="#111111" stroke="none"/>
<line x1="148.745" y1="60.1" x2="151.545" y2="44.1"/>
<line x1="151.545" y1="44.1" x2="168.84" y2="44.1"/>
<polygon points="148.745,60.1 148.73,63.143 147.725,62.967" fill="#111111" stroke="none"/>
<line x1="128.545" y1="59.1" x2="128.545" y2="49.1"/>
<line x1="144.545" y1="59.1" x2="144.545" y2="49.1"/>
<line x1="128.545" y1="51.1" x2="144.545" y2="51.1"/>
<polygon points="128.545,51.1 131.545,50.59 131.545,51.61" fill="#111111" stroke="none"/>
<polygon points="144.545,51.1 141.545,51.61 141.545,50.59" fill="#111111" stroke="none"/>
</g>
<g id="outline" stroke="#111111" stroke-width="0.5" fill="none" stroke-linecap="round" stroke-linejoin="round">
<polyline points="128.545,62.1 130.545,60.1 158.545,60.1 160.545,62.1"/>
<polyline points="128.545,122.1 130.545,124.1 158.545,124.1 160.545,122.1"/>
<line x1="128.545" y1="70.9" x2="128.545" y2="62.1"/>
<line x1="128.545" y1="113.3" x2="128.545" y2="122.1"/>
<line x1="160.545" y1="70.9" x2="160.545" y2="62.1"/>
<line x1="160.545" y1="113.3" x2="160.545" y2="122.1"/>
<line x1="130.545" y1="72.1" x2="130.545" y2="60.1"/>
<line x1="130.545" y1="112.1" x2="130.545" y2="124.1"/>
<line x1="158.545" y1="72.1" x2="158.545" y2="60.1"/>
<line x1="158.545" y1="112.1" x2="158.545" y2="124.1"/>
<line x1="158.545" y1="72.1" x2="158.545" y2="60.1"/>
<line x1="158.545" y1="112.1" x2="158.545" y2="124.1"/>
<polyline points="128.545,70.9 129.745,72.1 159.345,72.1 160.545,70.9"/>
<polyline points="128.545,113.3 129.745,112.1 159.345,112.1 160.545,113.3"/>
</g>
<g id="text" fill="#111111">
<text x="144.545" y="137.3" font-size="3.5" text-anchor="middle" fill="#111111" data-role="dim">16</text>
<text x="144.545" y="48.5" font-size="3.5" text-anchor="middle" fill="#111111" data-role="dim">⌀32</text>
<text x="144.545" y="53.5" font-size="3.5" text-anchor="middle" fill="#111111" data-role="dim">⌀20 H8</text>
<text x="122.545" y="51.7" font-size="3.5" text-anchor="end" fill="#111111" data-role="dim">C1</text>
<text x="166.545" y="51.7" font-size="3.5" text-anchor="start" fill="#111111" data-role="dim">C1</text>
<text x="152.545" y="42.7" font-size="3.5" text-anchor="start" fill="#111111" data-role="dim">⌀6 깊이 6</text>
<text x="136.545" y="49.3" font-size="3.5" text-anchor="middle" fill="#111111" data-role="dim">8</text>
</g>
<g id="frame" stroke="#111111" stroke-width="0.5" fill="none" stroke-linecap="round" stroke-linejoin="round">
<rect x="10" y="10" width="277" height="190"/>
<rect x="177" y="176" width="110" height="24"/>
<line x1="177" y1="192" x2="287" y2="192"/>
<line x1="177" y1="184" x2="287" y2="184"/>
<line x1="232" y1="200" x2="232" y2="184"/>
<line x1="255" y1="184" x2="255" y2="176"/>
<circle cx="269" cy="193.5" r="2.4"/>
<circle cx="269" cy="193.5" r="1.2"/>
<polyline points="274.5,196.1 281,194.9 281,192.1 274.5,190.9"/>
</g><g id="sheet-text" fill="#111111">
<text x="179" y="181.5" font-size="4.2" text-anchor="start" font-weight="700" data-role="title">VRINGON</text>
<text x="257" y="181.5" font-size="2.5" text-anchor="start" font-weight="700" data-role="title">도번 VR-RB-025</text>
<text x="179" y="189.5" font-size="2.8" text-anchor="start" font-weight="700" data-role="title">품명 세트 스크루 칼라</text>
<text x="234" y="189.5" font-size="2.8" text-anchor="start" font-weight="700" data-role="title">재질 S45C</text>
<text x="179" y="197.5" font-size="2.5" text-anchor="start" font-weight="700" data-role="title">척도 2:1</text>
<text x="234" y="197.5" font-size="2.5" text-anchor="start" font-weight="700" data-role="title">3각법 · 단위 mm</text>
<text x="14" y="191.8" font-size="2.6" text-anchor="start" font-weight="400" data-role="note">1. 지시 없는 모따기 C0.5</text>
<text x="14" y="196" font-size="2.6" text-anchor="start" font-weight="400" data-role="note">2. 지시 없는 공차 KS B ISO 2768-m</text>
</g></svg>