0
SECTION
2
HEADER
9
$ACADVER
1
AC1009
9
$INSUNITS
70
4
0
ENDSEC
0
SECTION
2
TABLES
0
TABLE
2
LTYPE
70
3
0
LTYPE
2
CONTINUOUS
70
0
3
Solid line
72
65
73
0
40
0
0
LTYPE
2
DASHED
70
0
3
Dashed __ __ __
72
65
73
2
40
4.5
49
3
49
-1.5
0
LTYPE
2
CENTER
70
0
3
Center ____ _ ____
72
65
73
4
40
11.5
49
8
49
-1.5
49
0.5
49
-1.5
0
ENDTAB
0
TABLE
2
LAYER
70
9
0
LAYER
2
OUTLINE
70
0
62
7
6
CONTINUOUS
0
LAYER
2
HIDDEN
70
0
62
8
6
DASHED
0
LAYER
2
CENTER
70
0
62
1
6
CENTER
0
LAYER
2
THIN
70
0
62
7
6
CONTINUOUS
0
LAYER
2
DIM
70
0
62
3
6
CONTINUOUS
0
LAYER
2
HATCH
70
0
62
8
6
CONTINUOUS
0
LAYER
2
FRAME
70
0
62
7
6
CONTINUOUS
0
LAYER
2
TEXT
70
0
62
7
6
CONTINUOUS
0
LAYER
2
CUT
70
0
62
5
6
DASHED
0
ENDTAB
0
ENDSEC
0
SECTION
2
ENTITIES
0
LINE
8
OUTLINE
10
80.94
20
131.2
30
0
11
81.94
21
132.2
31
0
0
LINE
8
OUTLINE
10
81.94
20
132.2
30
0
11
95.94
21
132.2
31
0
0
LINE
8
OUTLINE
10
95.94
20
132.2
30
0
11
95.94
21
129.2
31
0
0
LINE
8
OUTLINE
10
95.94
20
129.2
30
0
11
95.949
21
129.069
31
0
0
LINE
8
OUTLINE
10
95.949
20
129.069
30
0
11
95.974
21
128.941
31
0
0
LINE
8
OUTLINE
10
95.974
20
128.941
30
0
11
96.016
21
128.817
31
0
0
LINE
8
OUTLINE
10
96.016
20
128.817
30
0
11
96.074
21
128.7
31
0
0
LINE
8
OUTLINE
10
96.074
20
128.7
30
0
11
96.147
21
128.591
31
0
0
LINE
8
OUTLINE
10
96.147
20
128.591
30
0
11
96.233
21
128.493
31
0
0
LINE
8
OUTLINE
10
96.233
20
128.493
30
0
11
96.331
21
128.407
31
0
0
LINE
8
OUTLINE
10
96.331
20
128.407
30
0
11
96.44
21
128.334
31
0
0
LINE
8
OUTLINE
10
96.44
20
128.334
30
0
11
96.557
21
128.276
31
0
0
LINE
8
OUTLINE
10
96.557
20
128.276
30
0
11
96.681
21
128.234
31
0
0
LINE
8
OUTLINE
10
96.681
20
128.234
30
0
11
96.809
21
128.209
31
0
0
LINE
8
OUTLINE
10
96.809
20
128.209
30
0
11
96.94
21
128.2
31
0
0
LINE
8
OUTLINE
10
96.94
20
128.2
30
0
11
125.94
21
128.2
31
0
0
LINE
8
OUTLINE
10
125.94
20
128.2
30
0
11
125.94
21
127.2
31
0
0
LINE
8
OUTLINE
10
125.94
20
127.2
30
0
11
136.44
21
127.2
31
0
0
LINE
8
OUTLINE
10
136.44
20
127.2
30
0
11
137.94
21
125.7
31
0
0
LINE
8
OUTLINE
10
80.94
20
113.2
30
0
11
81.94
21
112.2
31
0
0
LINE
8
OUTLINE
10
81.94
20
112.2
30
0
11
95.94
21
112.2
31
0
0
LINE
8
OUTLINE
10
95.94
20
112.2
30
0
11
95.94
21
115.2
31
0
0
LINE
8
OUTLINE
10
95.94
20
115.2
30
0
11
95.949
21
115.331
31
0
0
LINE
8
OUTLINE
10
95.949
20
115.331
30
0
11
95.974
21
115.459
31
0
0
LINE
8
OUTLINE
10
95.974
20
115.459
30
0
11
96.016
21
115.583
31
0
0
LINE
8
OUTLINE
10
96.016
20
115.583
30
0
11
96.074
21
115.7
31
0
0
LINE
8
OUTLINE
10
96.074
20
115.7
30
0
11
96.147
21
115.809
31
0
0
LINE
8
OUTLINE
10
96.147
20
115.809
30
0
11
96.233
21
115.907
31
0
0
LINE
8
OUTLINE
10
96.233
20
115.907
30
0
11
96.331
21
115.993
31
0
0
LINE
8
OUTLINE
10
96.331
20
115.993
30
0
11
96.44
21
116.066
31
0
0
LINE
8
OUTLINE
10
96.44
20
116.066
30
0
11
96.557
21
116.124
31
0
0
LINE
8
OUTLINE
10
96.557
20
116.124
30
0
11
96.681
21
116.166
31
0
0
LINE
8
OUTLINE
10
96.681
20
116.166
30
0
11
96.809
21
116.191
31
0
0
LINE
8
OUTLINE
10
96.809
20
116.191
30
0
11
96.94
21
116.2
31
0
0
LINE
8
OUTLINE
10
96.94
20
116.2
30
0
11
125.94
21
116.2
31
0
0
LINE
8
OUTLINE
10
125.94
20
116.2
30
0
11
125.94
21
117.2
31
0
0
LINE
8
OUTLINE
10
125.94
20
117.2
30
0
11
136.44
21
117.2
31
0
0
LINE
8
OUTLINE
10
136.44
20
117.2
30
0
11
137.94
21
118.7
31
0
0
LINE
8
OUTLINE
10
80.94
20
113.2
30
0
11
80.94
21
131.2
31
0
0
LINE
8
OUTLINE
10
137.94
20
118.7
30
0
11
137.94
21
125.7
31
0
0
LINE
8
OUTLINE
10
81.94
20
112.2
30
0
11
81.94
21
132.2
31
0
0
LINE
8
OUTLINE
10
81.94
20
112.2
30
0
11
81.94
21
132.2
31
0
0
LINE
8
OUTLINE
10
95.94
20
115.2
30
0
11
95.94
21
129.2
31
0
0
LINE
8
OUTLINE
10
125.94
20
117.2
30
0
11
125.94
21
127.2
31
0
0
LINE
8
OUTLINE
10
136.44
20
117.2
30
0
11
136.44
21
127.2
31
0
0
LINE
8
OUTLINE
10
136.44
20
117.2
30
0
11
136.44
21
127.2
31
0
0
LINE
8
CENTER
10
76.94
20
122.2
30
0
11
141.94
21
122.2
31
0
0
LINE
8
THIN
10
125.94
20
126.28
30
0
11
136.44
21
126.28
31
0
0
LINE
8
THIN
10
125.94
20
118.12
30
0
11
136.44
21
118.12
31
0
0
LINE
8
OUTLINE
10
80.94
20
127.107
30
0
11
95.94
21
127.107
31
0
0
LINE
8
OUTLINE
10
80.94
20
117.293
30
0
11
95.94
21
117.293
31
0
0
LINE
8
CUT
10
88.44
20
134.7
30
0
11
88.44
21
139.7
31
0
0
LINE
8
CUT
10
88.44
20
139.7
30
0
11
85.44
21
139.7
31
0
0
SOLID
8
DIM
10
83.94
20
139.7
30
0
11
86.94
21
140.21
31
0
12
86.94
22
139.19
32
0
13
86.94
23
139.19
33
0
0
TEXT
8
TEXT
10
89.94
20
140.3
30
0
40
3.5
1
A
50
0
72
0
11
89.94
21
140.3
31
0
0
LINE
8
CUT
10
88.44
20
109.7
30
0
11
88.44
21
104.7
31
0
0
LINE
8
CUT
10
88.44
20
104.7
30
0
11
85.44
21
104.7
31
0
0
SOLID
8
DIM
10
83.94
20
104.7
30
0
11
86.94
21
105.21
31
0
12
86.94
22
104.19
32
0
13
86.94
23
104.19
33
0
0
TEXT
8
TEXT
10
89.94
20
101.5
30
0
40
3.5
1
A
50
0
72
0
11
89.94
21
101.5
31
0
0
LINE
8
OUTLINE
10
100.94
20
126.169
30
0
11
112.94
21
126.169
31
0
0
LINE
8
OUTLINE
10
100.94
20
118.231
30
0
11
112.94
21
118.231
31
0
0
LINE
8
OUTLINE
10
100.94
20
118.231
30
0
11
100.94
21
126.169
31
0
0
LINE
8
OUTLINE
10
112.94
20
118.231
30
0
11
112.94
21
126.169
31
0
0
LINE
8
CUT
10
106.94
20
130.7
30
0
11
106.94
21
135.7
31
0
0
LINE
8
CUT
10
106.94
20
135.7
30
0
11
103.94
21
135.7
31
0
0
SOLID
8
DIM
10
102.44
20
135.7
30
0
11
105.44
21
136.21
31
0
12
105.44
22
135.19
32
0
13
105.44
23
135.19
33
0
0
TEXT
8
TEXT
10
108.44
20
136.3
30
0
40
3.5
1
B
50
0
72
0
11
108.44
21
136.3
31
0
0
LINE
8
CUT
10
106.94
20
113.7
30
0
11
106.94
21
108.7
31
0
0
LINE
8
CUT
10
106.94
20
108.7
30
0
11
103.94
21
108.7
31
0
0
SOLID
8
DIM
10
102.44
20
108.7
30
0
11
105.44
21
109.21
31
0
12
105.44
22
108.19
32
0
13
105.44
23
108.19
33
0
0
TEXT
8
TEXT
10
108.44
20
105.5
30
0
40
3.5
1
B
50
0
72
0
11
108.44
21
105.5
31
0
0
LINE
8
DIM
10
80.94
20
111.2
30
0
11
80.94
21
95.2
31
0
0
LINE
8
DIM
10
95.94
20
111.2
30
0
11
95.94
21
95.2
31
0
0
LINE
8
DIM
10
80.94
20
97.2
30
0
11
95.94
21
97.2
31
0
0
SOLID
8
DIM
10
80.94
20
97.2
30
0
11
83.94
21
97.71
31
0
12
83.94
22
96.69
32
0
13
83.94
23
96.69
33
0
0
SOLID
8
DIM
10
95.94
20
97.2
30
0
11
92.94
21
96.69
31
0
12
92.94
22
97.71
32
0
13
92.94
23
97.71
33
0
0
TEXT
8
TEXT
10
88.44
20
107.9
30
0
40
3.5
1
15
50
0
72
1
11
88.44
21
107.9
31
0
0
LINE
8
DIM
10
125.94
20
116.2
30
0
11
125.94
21
95.2
31
0
0
LINE
8
DIM
10
137.94
20
116.2
30
0
11
137.94
21
95.2
31
0
0
LINE
8
DIM
10
125.94
20
97.2
30
0
11
137.94
21
97.2
31
0
0
SOLID
8
DIM
10
125.94
20
97.2
30
0
11
128.94
21
97.71
31
0
12
128.94
22
96.69
32
0
13
128.94
23
96.69
33
0
0
SOLID
8
DIM
10
137.94
20
97.2
30
0
11
134.94
21
96.69
31
0
12
134.94
22
97.71
32
0
13
134.94
23
97.71
33
0
0
TEXT
8
TEXT
10
131.94
20
98.1
30
0
40
3.5
1
12
50
0
72
1
11
131.94
21
98.1
31
0
0
LINE
8
DIM
10
80.94
20
111.2
30
0
11
80.94
21
86.2
31
0
0
LINE
8
DIM
10
137.94
20
111.2
30
0
11
137.94
21
86.2
31
0
0
LINE
8
DIM
10
80.94
20
88.2
30
0
11
137.94
21
88.2
31
0
0
SOLID
8
DIM
10
80.94
20
88.2
30
0
11
83.94
21
88.71
31
0
12
83.94
22
87.69
32
0
13
83.94
23
87.69
33
0
0
SOLID
8
DIM
10
137.94
20
88.2
30
0
11
134.94
21
87.69
31
0
12
134.94
22
88.71
32
0
13
134.94
23
88.71
33
0
0
TEXT
8
TEXT
10
109.44
20
89.1
30
0
40
3.5
1
57
50
0
72
1
11
109.44
21
89.1
31
0
0
LINE
8
DIM
10
88.44
20
112.2
30
0
11
88.44
21
137.2
31
0
0
SOLID
8
DIM
10
88.44
20
112.2
30
0
11
87.93
21
115.2
31
0
12
88.95
22
115.2
32
0
13
88.95
23
115.2
33
0
0
SOLID
8
DIM
10
88.44
20
132.2
30
0
11
88.95
21
129.2
31
0
12
87.93
22
129.2
32
0
13
87.93
23
129.2
33
0
0
LINE
8
DIM
10
88.44
20
137.2
30
0
11
88.44
21
147.5
31
0
0
TEXT
8
TEXT
10
88.44
20
147.8
30
0
40
3.5
1
%%c20
50
0
72
1
11
88.44
21
147.8
31
0
0
LINE
8
DIM
10
110.94
20
116.2
30
0
11
110.94
21
133.2
31
0
0
SOLID
8
DIM
10
110.94
20
116.2
30
0
11
110.43
21
119.2
31
0
12
111.45
22
119.2
32
0
13
111.45
23
119.2
33
0
0
SOLID
8
DIM
10
110.94
20
128.2
30
0
11
111.45
21
125.2
31
0
12
110.43
22
125.2
32
0
13
110.43
23
125.2
33
0
0
LINE
8
DIM
10
110.94
20
133.2
30
0
11
110.94
21
143.5
31
0
0
TEXT
8
TEXT
10
110.94
20
143.8
30
0
40
3.5
1
%%c12 h6
50
0
72
1
11
110.94
21
143.8
31
0
0
LINE
8
DIM
10
131.94
20
127.2
30
0
11
137.94
21
136.2
31
0
0
LINE
8
DIM
10
137.94
20
136.2
30
0
11
145.24
21
136.2
31
0
0
SOLID
8
DIM
10
131.94
20
127.2
30
0
11
130.7
21
124.421
31
0
12
129.852
22
124.987
32
0
13
129.852
23
124.987
33
0
0
TEXT
8
TEXT
10
138.44
20
136.9
30
0
40
3.5
1
M10
50
0
72
0
11
138.44
21
136.9
31
0
0
LINE
8
DIM
10
81.44
20
131.7
30
0
11
75.44
21
139.7
31
0
0
LINE
8
DIM
10
75.44
20
139.7
30
0
11
70.1
21
139.7
31
0
0
SOLID
8
DIM
10
81.44
20
131.7
30
0
11
83.648
21
129.606
31
0
12
82.832
22
128.994
32
0
13
82.832
23
128.994
33
0
0
TEXT
8
TEXT
10
74.94
20
140.4
30
0
40
3.5
1
C1
50
0
72
2
11
74.94
21
140.4
31
0
0
LINE
8
DIM
10
96.23
20
128.49
30
0
11
101.23
21
135.49
31
0
0
LINE
8
DIM
10
101.23
20
135.49
30
0
11
106.57
21
135.49
31
0
0
SOLID
8
DIM
10
96.23
20
128.49
30
0
11
94.901
21
125.752
31
0
12
94.071
22
126.345
32
0
13
94.071
23
126.345
33
0
0
TEXT
8
TEXT
10
101.73
20
136.19
30
0
40
3.5
1
R1
50
0
72
0
11
101.73
21
136.19
31
0
0
LINE
8
DIM
10
137.19
20
126.45
30
0
11
143.19
21
144.45
31
0
0
LINE
8
DIM
10
143.19
20
144.45
30
0
11
151.47
21
144.45
31
0
0
SOLID
8
DIM
10
137.19
20
126.45
30
0
11
136.725
21
123.443
31
0
12
135.757
22
123.765
32
0
13
135.757
23
123.765
33
0
0
TEXT
8
TEXT
10
143.69
20
145.15
30
0
40
3.5
1
C1.5
50
0
72
0
11
143.69
21
145.15
31
0
0
LINE
8
DIM
10
100.94
20
129.2
30
0
11
100.94
21
142.2
31
0
0
LINE
8
DIM
10
112.94
20
129.2
30
0
11
112.94
21
142.2
31
0
0
LINE
8
DIM
10
100.94
20
140.2
30
0
11
112.94
21
140.2
31
0
0
SOLID
8
DIM
10
100.94
20
140.2
30
0
11
103.94
21
140.71
31
0
12
103.94
22
139.69
32
0
13
103.94
23
139.69
33
0
0
SOLID
8
DIM
10
112.94
20
140.2
30
0
11
109.94
21
139.69
31
0
12
109.94
22
140.71
32
0
13
109.94
23
140.71
33
0
0
TEXT
8
TEXT
10
106.94
20
150.9
30
0
40
3.5
1
12
50
0
72
1
11
106.94
21
150.9
31
0
0
LINE
8
DIM
10
95.94
20
129.2
30
0
11
95.94
21
142.2
31
0
0
LINE
8
DIM
10
100.94
20
129.2
30
0
11
100.94
21
142.2
31
0
0
LINE
8
DIM
10
89.34
20
140.2
30
0
11
107.54
21
140.2
31
0
0
SOLID
8
DIM
10
95.94
20
140.2
30
0
11
92.94
21
139.69
31
0
12
92.94
22
140.71
32
0
13
92.94
23
140.71
33
0
0
SOLID
8
DIM
10
100.94
20
140.2
30
0
11
103.94
21
140.71
31
0
12
103.94
22
139.69
32
0
13
103.94
23
139.69
33
0
0
TEXT
8
TEXT
10
87.76
20
141.1
30
0
40
3.5
1
5
50
0
72
1
11
87.76
21
141.1
31
0
0
TEXT
8
TEXT
10
161.94
20
144.2
30
0
40
4
1
A-A
50
0
72
1
11
161.94
21
144.2
31
0
0
LINE
8
CENTER
10
148.94
20
122.2
30
0
11
174.94
21
122.2
31
0
0
LINE
8
CENTER
10
161.94
20
109.2
30
0
11
161.94
21
135.2
31
0
0
LINE
8
OUTLINE
10
166.847
20
130.7
30
0
11
157.033
21
130.7
31
0
0
LINE
8
OUTLINE
10
157.033
20
130.7
30
0
11
152.125
21
122.2
31
0
0
LINE
8
OUTLINE
10
152.125
20
122.2
30
0
11
157.033
21
113.7
31
0
0
LINE
8
OUTLINE
10
157.033
20
113.7
30
0
11
166.847
21
113.7
31
0
0
LINE
8
OUTLINE
10
166.847
20
113.7
30
0
11
171.755
21
122.2
31
0
0
LINE
8
OUTLINE
10
171.755
20
122.2
30
0
11
166.847
21
130.7
31
0
0
LINE
8
DIM
10
167.847
20
130.7
30
0
11
180.94
21
130.7
31
0
0
LINE
8
DIM
10
167.847
20
113.7
30
0
11
180.94
21
113.7
31
0
0
LINE
8
DIM
10
178.94
20
113.7
30
0
11
178.94
21
130.7
31
0
0
SOLID
8
DIM
10
178.94
20
113.7
30
0
11
178.43
21
116.7
31
0
12
179.45
22
116.7
32
0
13
179.45
23
116.7
33
0
0
SOLID
8
DIM
10
178.94
20
130.7
30
0
11
179.45
21
127.7
31
0
12
178.43
22
127.7
32
0
13
178.43
23
127.7
33
0
0
TEXT
8
TEXT
10
178.04
20
122.2
30
0
40
3.5
1
17
50
90
72
1
11
178.04
21
122.2
31
0
0
LINE
8
HATCH
10
165.08
20
113.7
30
0
11
169.262
21
117.883
31
0
0
LINE
8
HATCH
10
161.544
20
113.7
30
0
11
171.129
21
123.285
31
0
0
LINE
8
HATCH
10
158.009
20
113.7
30
0
11
169.835
21
125.526
31
0
0
LINE
8
HATCH
10
156.096
20
115.323
30
0
11
168.541
21
127.767
31
0
0
LINE
8
HATCH
10
154.802
20
117.564
30
0
11
167.246
21
130.009
31
0
0
LINE
8
HATCH
10
153.508
20
119.805
30
0
11
164.402
21
130.7
31
0
0
LINE
8
HATCH
10
152.213
20
122.047
30
0
11
160.867
21
130.7
31
0
0
LINE
8
HATCH
10
156.625
20
129.994
30
0
11
157.331
21
130.7
31
0
0
TEXT
8
TEXT
10
207.94
20
140.2
30
0
40
4
1
B-B
50
0
72
1
11
207.94
21
140.2
31
0
0
LINE
8
CENTER
10
198.94
20
122.2
30
0
11
216.94
21
122.2
31
0
0
LINE
8
CENTER
10
207.94
20
113.2
30
0
11
207.94
21
131.2
31
0
0
ARC
8
OUTLINE
10
207.94
20
122.2
30
0
40
6
50
131.41
51
48.59
0
LINE
8
OUTLINE
10
203.971
20
126.7
30
0
11
211.909
21
126.7
31
0
0
LINE
8
DIM
10
212.909
20
126.7
30
0
11
222.94
21
126.7
31
0
0
LINE
8
DIM
10
208.94
20
116.2
30
0
11
222.94
21
116.2
31
0
0
LINE
8
DIM
10
220.94
20
116.2
30
0
11
220.94
21
126.7
31
0
0
SOLID
8
DIM
10
220.94
20
116.2
30
0
11
220.43
21
119.2
31
0
12
221.45
22
119.2
32
0
13
221.45
23
119.2
33
0
0
SOLID
8
DIM
10
220.94
20
126.7
30
0
11
221.45
21
123.7
31
0
12
220.43
22
123.7
32
0
13
220.43
23
123.7
33
0
0
TEXT
8
TEXT
10
220.04
20
121.45
30
0
40
3.5
1
10.5
50
90
72
1
11
220.04
21
121.45
31
0
0
LINE
8
HATCH
10
208.702
20
116.252
30
0
11
213.884
21
121.434
31
0
0
LINE
8
HATCH
10
205.594
20
116.68
30
0
11
213.457
21
124.542
31
0
0
LINE
8
HATCH
10
203.521
20
118.142
30
0
11
211.995
21
126.616
31
0
0
LINE
8
HATCH
10
202.226
20
120.383
30
0
11
208.543
21
126.7
31
0
0
LINE
8
HATCH
10
202.184
20
123.876
30
0
11
205.008
21
126.7
31
0
0
LINE
8
FRAME
10
10
20
10
30
0
11
287
21
10
31
0
0
LINE
8
FRAME
10
287
20
10
30
0
11
287
21
200
31
0
0
LINE
8
FRAME
10
287
20
200
30
0
11
10
21
200
31
0
0
LINE
8
FRAME
10
10
20
200
30
0
11
10
21
10
31
0
0
LINE
8
FRAME
10
177
20
10
30
0
11
287
21
10
31
0
0
LINE
8
FRAME
10
287
20
10
30
0
11
287
21
34
31
0
0
LINE
8
FRAME
10
287
20
34
30
0
11
177
21
34
31
0
0
LINE
8
FRAME
10
177
20
34
30
0
11
177
21
10
31
0
0
LINE
8
FRAME
10
177
20
18
30
0
11
287
21
18
31
0
0
LINE
8
FRAME
10
177
20
26
30
0
11
287
21
26
31
0
0
LINE
8
FRAME
10
232
20
10
30
0
11
232
21
26
31
0
0
LINE
8
FRAME
10
255
20
26
30
0
11
255
21
34
31
0
0
TEXT
8
TEXT
10
179
20
28.5
30
0
40
4.2
1
VRINGON
72
0
11
179
21
28.5
31
0
0
TEXT
8
TEXT
10
257
20
28.5
30
0
40
2.5
1
도번 VR-RB-006
72
0
11
257
21
28.5
31
0
0
TEXT
8
TEXT
10
179
20
20.5
30
0
40
2.8
1
품명 육각 단붙이 축
72
0
11
179
21
20.5
31
0
0
TEXT
8
TEXT
10
234
20
20.5
30
0
40
2.8
1
재질 SUS303
72
0
11
234
21
20.5
31
0
0
TEXT
8
TEXT
10
179
20
12.5
30
0
40
2.5
1
척도 1:1
72
0
11
179
21
12.5
31
0
0
TEXT
8
TEXT
10
234
20
12.5
30
0
40
2.5
1
3각법 · 단위 mm
72
0
11
234
21
12.5
31
0
0
CIRCLE
8
FRAME
10
269
20
16.5
30
0
40
2.4
0
CIRCLE
8
FRAME
10
269
20
16.5
30
0
40
1.2
0
LINE
8
FRAME
10
274.5
20
13.9
30
0
11
281
21
15.1
31
0
0
LINE
8
FRAME
10
281
20
15.1
30
0
11
281
21
17.9
31
0
0
LINE
8
FRAME
10
281
20
17.9
30
0
11
274.5
21
19.1
31
0
0
LINE
8
FRAME
10
274.5
20
19.1
30
0
11
274.5
21
13.9
31
0
0
TEXT
8
TEXT
10
14
20
18.2
30
0
40
2.6
1
1. 지시 없는 모따기 C0.5
72
0
11
14
21
18.2
31
0
0
TEXT
8
TEXT
10
14
20
14
30
0
40
2.6
1
2. 지시 없는 공차 KS B ISO 2768-m
72
0
11
14
21
14
31
0
0
ENDSEC
0
EOF
